%TF.GenerationSoftware,KiCad,Pcbnew,4.1.0-alpha+201609021633+7109~49~ubuntu16.04.1-product*%
%TF.CreationDate,2016-09-14T14:37:25+05:30*%
%TF.ProjectId,OTS2_encB,4F5453325F656E63422E6B696361645F,rev?*%
%TF.FileFunction,Copper,L1,Top,Signal*%
%FSLAX46Y46*%
G04 Gerber Fmt 4.6, Leading zero omitted, Abs format (unit mm)*
G04 Created by KiCad (PCBNEW 4.1.0-alpha+201609021633+7109~49~ubuntu16.04.1-product) date Wed Sep 14 14:37:25 2016*
%MOMM*%
%LPD*%
G01*
G04 APERTURE LIST*
%ADD10C,0.101600*%
%ADD11C,2.300000*%
%ADD12C,2.600000*%
%ADD13R,2.032000X2.032000*%
%ADD14O,2.032000X2.032000*%
%ADD15C,0.762000*%
%ADD16C,0.762000*%
%ADD17C,0.254000*%
G04 APERTURE END LIST*
D10*
D11*
X140035000Y-91440000D03*
D12*
X141605000Y-95940000D03*
D11*
X141605000Y-100700000D03*
D12*
X141605000Y-86940000D03*
D11*
X141605000Y-82180000D03*
X150865000Y-91440000D03*
D13*
X154305000Y-98425000D03*
D14*
X154305000Y-95885000D03*
D13*
X154305000Y-84455000D03*
D14*
X154305000Y-86995000D03*
D13*
X140335000Y-104140000D03*
D14*
X142875000Y-104140000D03*
D13*
X142875000Y-78740000D03*
D14*
X140335000Y-78740000D03*
D15*
X133985000Y-102235000D03*
X149860000Y-103505000D03*
X146050000Y-103505000D03*
D16*
X144653000Y-107315000D02*
X139065000Y-107315000D01*
X139065000Y-107315000D02*
X133985000Y-102235000D01*
X146050000Y-103505000D02*
X146050000Y-105918000D01*
X146050000Y-105918000D02*
X144653000Y-107315000D01*
X146050000Y-103505000D02*
X149860000Y-103505000D01*
X142875000Y-78740000D02*
X142875000Y-77216000D01*
X133985000Y-81661000D02*
X133985000Y-102235000D01*
X139446000Y-76200000D02*
X133985000Y-81661000D01*
X141859000Y-76200000D02*
X139446000Y-76200000D01*
X142875000Y-77216000D02*
X141859000Y-76200000D01*
D17*
G36*
X145032051Y-74744707D02*
X148209583Y-75728318D01*
X151135548Y-77310381D01*
X153698498Y-79430637D01*
X155800810Y-82008326D01*
X157362408Y-84945265D01*
X158323811Y-88129586D01*
X158648400Y-91440000D01*
X158641755Y-91915880D01*
X158224861Y-95215940D01*
X157174921Y-98372175D01*
X155531927Y-101264367D01*
X153358462Y-103782351D01*
X150737310Y-105830219D01*
X147768312Y-107329967D01*
X144564555Y-108224472D01*
X141248070Y-108479662D01*
X137945180Y-108085816D01*
X134781691Y-107057937D01*
X131878100Y-105435174D01*
X129345004Y-103279340D01*
X129221883Y-103124000D01*
X138680928Y-103124000D01*
X138680928Y-105156000D01*
X138693188Y-105280482D01*
X138729498Y-105400180D01*
X138788463Y-105510494D01*
X138867815Y-105607185D01*
X138964506Y-105686537D01*
X139074820Y-105745502D01*
X139194518Y-105781812D01*
X139319000Y-105794072D01*
X141351000Y-105794072D01*
X141475482Y-105781812D01*
X141595180Y-105745502D01*
X141705494Y-105686537D01*
X141802185Y-105607185D01*
X141881537Y-105510494D01*
X141900761Y-105474528D01*
X141951773Y-105516729D01*
X142235212Y-105669984D01*
X142543020Y-105765267D01*
X142863474Y-105798948D01*
X143184367Y-105769744D01*
X143493475Y-105678769D01*
X143779027Y-105529486D01*
X144030144Y-105327582D01*
X144237262Y-105080749D01*
X144392492Y-104798386D01*
X144489922Y-104491250D01*
X144525839Y-104171040D01*
X144526000Y-104147988D01*
X144526000Y-104132012D01*
X144494557Y-103811331D01*
X144401426Y-103502865D01*
X144250153Y-103218363D01*
X144046501Y-102968661D01*
X143798227Y-102763271D01*
X143514788Y-102610016D01*
X143206980Y-102514733D01*
X142886526Y-102481052D01*
X142565633Y-102510256D01*
X142256525Y-102601231D01*
X141970973Y-102750514D01*
X141901320Y-102806517D01*
X141881537Y-102769506D01*
X141802185Y-102672815D01*
X141705494Y-102593463D01*
X141595180Y-102534498D01*
X141475482Y-102498188D01*
X141351000Y-102485928D01*
X139319000Y-102485928D01*
X139194518Y-102498188D01*
X139074820Y-102534498D01*
X138964506Y-102593463D01*
X138867815Y-102672815D01*
X138788463Y-102769506D01*
X138729498Y-102879820D01*
X138693188Y-102999518D01*
X138680928Y-103124000D01*
X129221883Y-103124000D01*
X127419602Y-100850088D01*
X139817654Y-100850088D01*
X139880845Y-101194393D01*
X140009710Y-101519868D01*
X140199338Y-101814114D01*
X140442508Y-102065923D01*
X140729957Y-102265705D01*
X141050736Y-102405850D01*
X141392626Y-102481020D01*
X141742606Y-102488351D01*
X142087345Y-102427564D01*
X142413711Y-102300975D01*
X142709273Y-102113405D01*
X142962774Y-101871999D01*
X143164558Y-101585952D01*
X143306939Y-101266160D01*
X143384494Y-100924802D01*
X143390077Y-100524972D01*
X143322084Y-100181582D01*
X143188687Y-99857938D01*
X142994969Y-99566369D01*
X142748307Y-99317979D01*
X142458097Y-99122230D01*
X142135393Y-98986577D01*
X141792486Y-98916189D01*
X141442438Y-98913745D01*
X141098582Y-98979339D01*
X140774015Y-99110472D01*
X140481100Y-99302151D01*
X140230994Y-99547072D01*
X140033224Y-99835909D01*
X139895322Y-100157658D01*
X139822541Y-100500065D01*
X139817654Y-100850088D01*
X127419602Y-100850088D01*
X127278887Y-100672550D01*
X125758447Y-97714094D01*
X125296388Y-96102700D01*
X139667456Y-96102700D01*
X139735958Y-96475939D01*
X139875652Y-96828764D01*
X140081215Y-97147737D01*
X140344820Y-97420707D01*
X140656424Y-97637277D01*
X141004159Y-97789199D01*
X141374780Y-97870685D01*
X141754170Y-97878632D01*
X142127878Y-97812738D01*
X142481670Y-97675511D01*
X142802069Y-97472179D01*
X143076873Y-97210487D01*
X143295614Y-96900402D01*
X143449959Y-96553736D01*
X143534031Y-96183693D01*
X143538362Y-95873474D01*
X152646052Y-95873474D01*
X152675256Y-96194367D01*
X152766231Y-96503475D01*
X152915514Y-96789027D01*
X152971517Y-96858680D01*
X152934506Y-96878463D01*
X152837815Y-96957815D01*
X152758463Y-97054506D01*
X152699498Y-97164820D01*
X152663188Y-97284518D01*
X152650928Y-97409000D01*
X152650928Y-99441000D01*
X152663188Y-99565482D01*
X152699498Y-99685180D01*
X152758463Y-99795494D01*
X152837815Y-99892185D01*
X152934506Y-99971537D01*
X153044820Y-100030502D01*
X153164518Y-100066812D01*
X153289000Y-100079072D01*
X155321000Y-100079072D01*
X155445482Y-100066812D01*
X155565180Y-100030502D01*
X155675494Y-99971537D01*
X155772185Y-99892185D01*
X155851537Y-99795494D01*
X155910502Y-99685180D01*
X155946812Y-99565482D01*
X155959072Y-99441000D01*
X155959072Y-97409000D01*
X155946812Y-97284518D01*
X155910502Y-97164820D01*
X155851537Y-97054506D01*
X155772185Y-96957815D01*
X155675494Y-96878463D01*
X155639528Y-96859239D01*
X155681729Y-96808227D01*
X155834984Y-96524788D01*
X155930267Y-96216980D01*
X155963948Y-95896526D01*
X155934744Y-95575633D01*
X155843769Y-95266525D01*
X155694486Y-94980973D01*
X155492582Y-94729856D01*
X155245749Y-94522738D01*
X154963386Y-94367508D01*
X154656250Y-94270078D01*
X154336040Y-94234161D01*
X154312988Y-94234000D01*
X154297012Y-94234000D01*
X153976331Y-94265443D01*
X153667865Y-94358574D01*
X153383363Y-94509847D01*
X153133661Y-94713499D01*
X152928271Y-94961773D01*
X152775016Y-95245212D01*
X152679733Y-95553020D01*
X152646052Y-95873474D01*
X143538362Y-95873474D01*
X143540083Y-95750263D01*
X143466377Y-95378017D01*
X143321771Y-95027177D01*
X143111773Y-94711106D01*
X142844384Y-94441843D01*
X142529786Y-94229644D01*
X142179964Y-94082592D01*
X141808241Y-94006288D01*
X141428777Y-94003639D01*
X141056026Y-94074745D01*
X140704184Y-94216899D01*
X140386655Y-94424684D01*
X140115532Y-94690188D01*
X139901142Y-95003296D01*
X139751651Y-95352083D01*
X139672754Y-95723264D01*
X139667456Y-96102700D01*
X125296388Y-96102700D01*
X124841598Y-94516660D01*
X124595847Y-91590088D01*
X138247654Y-91590088D01*
X138310845Y-91934393D01*
X138439710Y-92259868D01*
X138629338Y-92554114D01*
X138872508Y-92805923D01*
X139159957Y-93005705D01*
X139480736Y-93145850D01*
X139822626Y-93221020D01*
X140172606Y-93228351D01*
X140517345Y-93167564D01*
X140843711Y-93040975D01*
X141139273Y-92853405D01*
X141392774Y-92611999D01*
X141594558Y-92325952D01*
X141736939Y-92006160D01*
X141814494Y-91664802D01*
X141815537Y-91590088D01*
X149077654Y-91590088D01*
X149140845Y-91934393D01*
X149269710Y-92259868D01*
X149459338Y-92554114D01*
X149702508Y-92805923D01*
X149989957Y-93005705D01*
X150310736Y-93145850D01*
X150652626Y-93221020D01*
X151002606Y-93228351D01*
X151347345Y-93167564D01*
X151673711Y-93040975D01*
X151969273Y-92853405D01*
X152222774Y-92611999D01*
X152424558Y-92325952D01*
X152566939Y-92006160D01*
X152644494Y-91664802D01*
X152650077Y-91264972D01*
X152582084Y-90921582D01*
X152448687Y-90597938D01*
X152254969Y-90306369D01*
X152008307Y-90057979D01*
X151718097Y-89862230D01*
X151395393Y-89726577D01*
X151052486Y-89656189D01*
X150702438Y-89653745D01*
X150358582Y-89719339D01*
X150034015Y-89850472D01*
X149741100Y-90042151D01*
X149490994Y-90287072D01*
X149293224Y-90575909D01*
X149155322Y-90897658D01*
X149082541Y-91240065D01*
X149077654Y-91590088D01*
X141815537Y-91590088D01*
X141820077Y-91264972D01*
X141752084Y-90921582D01*
X141618687Y-90597938D01*
X141424969Y-90306369D01*
X141178307Y-90057979D01*
X140888097Y-89862230D01*
X140565393Y-89726577D01*
X140222486Y-89656189D01*
X139872438Y-89653745D01*
X139528582Y-89719339D01*
X139204015Y-89850472D01*
X138911100Y-90042151D01*
X138660994Y-90287072D01*
X138463224Y-90575909D01*
X138325322Y-90897658D01*
X138252541Y-91240065D01*
X138247654Y-91590088D01*
X124595847Y-91590088D01*
X124563261Y-91202037D01*
X124934039Y-87896478D01*
X125185840Y-87102700D01*
X139667456Y-87102700D01*
X139735958Y-87475939D01*
X139875652Y-87828764D01*
X140081215Y-88147737D01*
X140344820Y-88420707D01*
X140656424Y-88637277D01*
X141004159Y-88789199D01*
X141374780Y-88870685D01*
X141754170Y-88878632D01*
X142127878Y-88812738D01*
X142481670Y-88675511D01*
X142802069Y-88472179D01*
X143076873Y-88210487D01*
X143295614Y-87900402D01*
X143449959Y-87553736D01*
X143534031Y-87183693D01*
X143536826Y-86983474D01*
X152646052Y-86983474D01*
X152675256Y-87304367D01*
X152766231Y-87613475D01*
X152915514Y-87899027D01*
X153117418Y-88150144D01*
X153364251Y-88357262D01*
X153646614Y-88512492D01*
X153953750Y-88609922D01*
X154273960Y-88645839D01*
X154297012Y-88646000D01*
X154312988Y-88646000D01*
X154633669Y-88614557D01*
X154942135Y-88521426D01*
X155226637Y-88370153D01*
X155476339Y-88166501D01*
X155681729Y-87918227D01*
X155834984Y-87634788D01*
X155930267Y-87326980D01*
X155963948Y-87006526D01*
X155934744Y-86685633D01*
X155843769Y-86376525D01*
X155694486Y-86090973D01*
X155638483Y-86021320D01*
X155675494Y-86001537D01*
X155772185Y-85922185D01*
X155851537Y-85825494D01*
X155910502Y-85715180D01*
X155946812Y-85595482D01*
X155959072Y-85471000D01*
X155959072Y-83439000D01*
X155946812Y-83314518D01*
X155910502Y-83194820D01*
X155851537Y-83084506D01*
X155772185Y-82987815D01*
X155675494Y-82908463D01*
X155565180Y-82849498D01*
X155445482Y-82813188D01*
X155321000Y-82800928D01*
X153289000Y-82800928D01*
X153164518Y-82813188D01*
X153044820Y-82849498D01*
X152934506Y-82908463D01*
X152837815Y-82987815D01*
X152758463Y-83084506D01*
X152699498Y-83194820D01*
X152663188Y-83314518D01*
X152650928Y-83439000D01*
X152650928Y-85471000D01*
X152663188Y-85595482D01*
X152699498Y-85715180D01*
X152758463Y-85825494D01*
X152837815Y-85922185D01*
X152934506Y-86001537D01*
X152970472Y-86020761D01*
X152928271Y-86071773D01*
X152775016Y-86355212D01*
X152679733Y-86663020D01*
X152646052Y-86983474D01*
X143536826Y-86983474D01*
X143540083Y-86750263D01*
X143466377Y-86378017D01*
X143321771Y-86027177D01*
X143111773Y-85711106D01*
X142844384Y-85441843D01*
X142529786Y-85229644D01*
X142179964Y-85082592D01*
X141808241Y-85006288D01*
X141428777Y-85003639D01*
X141056026Y-85074745D01*
X140704184Y-85216899D01*
X140386655Y-85424684D01*
X140115532Y-85690188D01*
X139901142Y-86003296D01*
X139751651Y-86352083D01*
X139672754Y-86723264D01*
X139667456Y-87102700D01*
X125185840Y-87102700D01*
X125939809Y-84725890D01*
X127256912Y-82330088D01*
X139817654Y-82330088D01*
X139880845Y-82674393D01*
X140009710Y-82999868D01*
X140199338Y-83294114D01*
X140442508Y-83545923D01*
X140729957Y-83745705D01*
X141050736Y-83885850D01*
X141392626Y-83961020D01*
X141742606Y-83968351D01*
X142087345Y-83907564D01*
X142413711Y-83780975D01*
X142709273Y-83593405D01*
X142962774Y-83351999D01*
X143164558Y-83065952D01*
X143306939Y-82746160D01*
X143384494Y-82404802D01*
X143390077Y-82004972D01*
X143322084Y-81661582D01*
X143188687Y-81337938D01*
X142994969Y-81046369D01*
X142748307Y-80797979D01*
X142458097Y-80602230D01*
X142135393Y-80466577D01*
X141792486Y-80396189D01*
X141442438Y-80393745D01*
X141098582Y-80459339D01*
X140774015Y-80590472D01*
X140481100Y-80782151D01*
X140230994Y-81027072D01*
X140033224Y-81315909D01*
X139895322Y-81637658D01*
X139822541Y-81980065D01*
X139817654Y-82330088D01*
X127256912Y-82330088D01*
X127542261Y-81811041D01*
X129680358Y-79262956D01*
X130340719Y-78732012D01*
X138684000Y-78732012D01*
X138684000Y-78747988D01*
X138715443Y-79068669D01*
X138808574Y-79377135D01*
X138959847Y-79661637D01*
X139163499Y-79911339D01*
X139411773Y-80116729D01*
X139695212Y-80269984D01*
X140003020Y-80365267D01*
X140323474Y-80398948D01*
X140644367Y-80369744D01*
X140953475Y-80278769D01*
X141239027Y-80129486D01*
X141307865Y-80074138D01*
X141365763Y-80160789D01*
X141454211Y-80249237D01*
X141558215Y-80318730D01*
X141673777Y-80366597D01*
X141796458Y-80391000D01*
X142589250Y-80391000D01*
X142748000Y-80232250D01*
X142748000Y-78867000D01*
X143002000Y-78867000D01*
X143002000Y-80232250D01*
X143160750Y-80391000D01*
X143953542Y-80391000D01*
X144076223Y-80366597D01*
X144191785Y-80318730D01*
X144295789Y-80249237D01*
X144384237Y-80160789D01*
X144453730Y-80056785D01*
X144501597Y-79941223D01*
X144526000Y-79818542D01*
X144526000Y-79025750D01*
X144367250Y-78867000D01*
X143002000Y-78867000D01*
X142748000Y-78867000D01*
X142728000Y-78867000D01*
X142728000Y-78613000D01*
X142748000Y-78613000D01*
X142748000Y-77247750D01*
X143002000Y-77247750D01*
X143002000Y-78613000D01*
X144367250Y-78613000D01*
X144526000Y-78454250D01*
X144526000Y-77661458D01*
X144501597Y-77538777D01*
X144453730Y-77423215D01*
X144384237Y-77319211D01*
X144295789Y-77230763D01*
X144191785Y-77161270D01*
X144076223Y-77113403D01*
X143953542Y-77089000D01*
X143160750Y-77089000D01*
X143002000Y-77247750D01*
X142748000Y-77247750D01*
X142589250Y-77089000D01*
X141796458Y-77089000D01*
X141673777Y-77113403D01*
X141558215Y-77161270D01*
X141454211Y-77230763D01*
X141365763Y-77319211D01*
X141308522Y-77404879D01*
X141258227Y-77363271D01*
X140974788Y-77210016D01*
X140666980Y-77114733D01*
X140346526Y-77081052D01*
X140025633Y-77110256D01*
X139716525Y-77201231D01*
X139430973Y-77350514D01*
X139179856Y-77552418D01*
X138972738Y-77799251D01*
X138817508Y-78081614D01*
X138720078Y-78388750D01*
X138684161Y-78708960D01*
X138684000Y-78732012D01*
X130340719Y-78732012D01*
X132272661Y-77178691D01*
X135220430Y-75637635D01*
X138411385Y-74698485D01*
X141723984Y-74397015D01*
X145032051Y-74744707D01*
X145032051Y-74744707D01*
G37*
X145032051Y-74744707D02*
X148209583Y-75728318D01*
X151135548Y-77310381D01*
X153698498Y-79430637D01*
X155800810Y-82008326D01*
X157362408Y-84945265D01*
X158323811Y-88129586D01*
X158648400Y-91440000D01*
X158641755Y-91915880D01*
X158224861Y-95215940D01*
X157174921Y-98372175D01*
X155531927Y-101264367D01*
X153358462Y-103782351D01*
X150737310Y-105830219D01*
X147768312Y-107329967D01*
X144564555Y-108224472D01*
X141248070Y-108479662D01*
X137945180Y-108085816D01*
X134781691Y-107057937D01*
X131878100Y-105435174D01*
X129345004Y-103279340D01*
X129221883Y-103124000D01*
X138680928Y-103124000D01*
X138680928Y-105156000D01*
X138693188Y-105280482D01*
X138729498Y-105400180D01*
X138788463Y-105510494D01*
X138867815Y-105607185D01*
X138964506Y-105686537D01*
X139074820Y-105745502D01*
X139194518Y-105781812D01*
X139319000Y-105794072D01*
X141351000Y-105794072D01*
X141475482Y-105781812D01*
X141595180Y-105745502D01*
X141705494Y-105686537D01*
X141802185Y-105607185D01*
X141881537Y-105510494D01*
X141900761Y-105474528D01*
X141951773Y-105516729D01*
X142235212Y-105669984D01*
X142543020Y-105765267D01*
X142863474Y-105798948D01*
X143184367Y-105769744D01*
X143493475Y-105678769D01*
X143779027Y-105529486D01*
X144030144Y-105327582D01*
X144237262Y-105080749D01*
X144392492Y-104798386D01*
X144489922Y-104491250D01*
X144525839Y-104171040D01*
X144526000Y-104147988D01*
X144526000Y-104132012D01*
X144494557Y-103811331D01*
X144401426Y-103502865D01*
X144250153Y-103218363D01*
X144046501Y-102968661D01*
X143798227Y-102763271D01*
X143514788Y-102610016D01*
X143206980Y-102514733D01*
X142886526Y-102481052D01*
X142565633Y-102510256D01*
X142256525Y-102601231D01*
X141970973Y-102750514D01*
X141901320Y-102806517D01*
X141881537Y-102769506D01*
X141802185Y-102672815D01*
X141705494Y-102593463D01*
X141595180Y-102534498D01*
X141475482Y-102498188D01*
X141351000Y-102485928D01*
X139319000Y-102485928D01*
X139194518Y-102498188D01*
X139074820Y-102534498D01*
X138964506Y-102593463D01*
X138867815Y-102672815D01*
X138788463Y-102769506D01*
X138729498Y-102879820D01*
X138693188Y-102999518D01*
X138680928Y-103124000D01*
X129221883Y-103124000D01*
X127419602Y-100850088D01*
X139817654Y-100850088D01*
X139880845Y-101194393D01*
X140009710Y-101519868D01*
X140199338Y-101814114D01*
X140442508Y-102065923D01*
X140729957Y-102265705D01*
X141050736Y-102405850D01*
X141392626Y-102481020D01*
X141742606Y-102488351D01*
X142087345Y-102427564D01*
X142413711Y-102300975D01*
X142709273Y-102113405D01*
X142962774Y-101871999D01*
X143164558Y-101585952D01*
X143306939Y-101266160D01*
X143384494Y-100924802D01*
X143390077Y-100524972D01*
X143322084Y-100181582D01*
X143188687Y-99857938D01*
X142994969Y-99566369D01*
X142748307Y-99317979D01*
X142458097Y-99122230D01*
X142135393Y-98986577D01*
X141792486Y-98916189D01*
X141442438Y-98913745D01*
X141098582Y-98979339D01*
X140774015Y-99110472D01*
X140481100Y-99302151D01*
X140230994Y-99547072D01*
X140033224Y-99835909D01*
X139895322Y-100157658D01*
X139822541Y-100500065D01*
X139817654Y-100850088D01*
X127419602Y-100850088D01*
X127278887Y-100672550D01*
X125758447Y-97714094D01*
X125296388Y-96102700D01*
X139667456Y-96102700D01*
X139735958Y-96475939D01*
X139875652Y-96828764D01*
X140081215Y-97147737D01*
X140344820Y-97420707D01*
X140656424Y-97637277D01*
X141004159Y-97789199D01*
X141374780Y-97870685D01*
X141754170Y-97878632D01*
X142127878Y-97812738D01*
X142481670Y-97675511D01*
X142802069Y-97472179D01*
X143076873Y-97210487D01*
X143295614Y-96900402D01*
X143449959Y-96553736D01*
X143534031Y-96183693D01*
X143538362Y-95873474D01*
X152646052Y-95873474D01*
X152675256Y-96194367D01*
X152766231Y-96503475D01*
X152915514Y-96789027D01*
X152971517Y-96858680D01*
X152934506Y-96878463D01*
X152837815Y-96957815D01*
X152758463Y-97054506D01*
X152699498Y-97164820D01*
X152663188Y-97284518D01*
X152650928Y-97409000D01*
X152650928Y-99441000D01*
X152663188Y-99565482D01*
X152699498Y-99685180D01*
X152758463Y-99795494D01*
X152837815Y-99892185D01*
X152934506Y-99971537D01*
X153044820Y-100030502D01*
X153164518Y-100066812D01*
X153289000Y-100079072D01*
X155321000Y-100079072D01*
X155445482Y-100066812D01*
X155565180Y-100030502D01*
X155675494Y-99971537D01*
X155772185Y-99892185D01*
X155851537Y-99795494D01*
X155910502Y-99685180D01*
X155946812Y-99565482D01*
X155959072Y-99441000D01*
X155959072Y-97409000D01*
X155946812Y-97284518D01*
X155910502Y-97164820D01*
X155851537Y-97054506D01*
X155772185Y-96957815D01*
X155675494Y-96878463D01*
X155639528Y-96859239D01*
X155681729Y-96808227D01*
X155834984Y-96524788D01*
X155930267Y-96216980D01*
X155963948Y-95896526D01*
X155934744Y-95575633D01*
X155843769Y-95266525D01*
X155694486Y-94980973D01*
X155492582Y-94729856D01*
X155245749Y-94522738D01*
X154963386Y-94367508D01*
X154656250Y-94270078D01*
X154336040Y-94234161D01*
X154312988Y-94234000D01*
X154297012Y-94234000D01*
X153976331Y-94265443D01*
X153667865Y-94358574D01*
X153383363Y-94509847D01*
X153133661Y-94713499D01*
X152928271Y-94961773D01*
X152775016Y-95245212D01*
X152679733Y-95553020D01*
X152646052Y-95873474D01*
X143538362Y-95873474D01*
X143540083Y-95750263D01*
X143466377Y-95378017D01*
X143321771Y-95027177D01*
X143111773Y-94711106D01*
X142844384Y-94441843D01*
X142529786Y-94229644D01*
X142179964Y-94082592D01*
X141808241Y-94006288D01*
X141428777Y-94003639D01*
X141056026Y-94074745D01*
X140704184Y-94216899D01*
X140386655Y-94424684D01*
X140115532Y-94690188D01*
X139901142Y-95003296D01*
X139751651Y-95352083D01*
X139672754Y-95723264D01*
X139667456Y-96102700D01*
X125296388Y-96102700D01*
X124841598Y-94516660D01*
X124595847Y-91590088D01*
X138247654Y-91590088D01*
X138310845Y-91934393D01*
X138439710Y-92259868D01*
X138629338Y-92554114D01*
X138872508Y-92805923D01*
X139159957Y-93005705D01*
X139480736Y-93145850D01*
X139822626Y-93221020D01*
X140172606Y-93228351D01*
X140517345Y-93167564D01*
X140843711Y-93040975D01*
X141139273Y-92853405D01*
X141392774Y-92611999D01*
X141594558Y-92325952D01*
X141736939Y-92006160D01*
X141814494Y-91664802D01*
X141815537Y-91590088D01*
X149077654Y-91590088D01*
X149140845Y-91934393D01*
X149269710Y-92259868D01*
X149459338Y-92554114D01*
X149702508Y-92805923D01*
X149989957Y-93005705D01*
X150310736Y-93145850D01*
X150652626Y-93221020D01*
X151002606Y-93228351D01*
X151347345Y-93167564D01*
X151673711Y-93040975D01*
X151969273Y-92853405D01*
X152222774Y-92611999D01*
X152424558Y-92325952D01*
X152566939Y-92006160D01*
X152644494Y-91664802D01*
X152650077Y-91264972D01*
X152582084Y-90921582D01*
X152448687Y-90597938D01*
X152254969Y-90306369D01*
X152008307Y-90057979D01*
X151718097Y-89862230D01*
X151395393Y-89726577D01*
X151052486Y-89656189D01*
X150702438Y-89653745D01*
X150358582Y-89719339D01*
X150034015Y-89850472D01*
X149741100Y-90042151D01*
X149490994Y-90287072D01*
X149293224Y-90575909D01*
X149155322Y-90897658D01*
X149082541Y-91240065D01*
X149077654Y-91590088D01*
X141815537Y-91590088D01*
X141820077Y-91264972D01*
X141752084Y-90921582D01*
X141618687Y-90597938D01*
X141424969Y-90306369D01*
X141178307Y-90057979D01*
X140888097Y-89862230D01*
X140565393Y-89726577D01*
X140222486Y-89656189D01*
X139872438Y-89653745D01*
X139528582Y-89719339D01*
X139204015Y-89850472D01*
X138911100Y-90042151D01*
X138660994Y-90287072D01*
X138463224Y-90575909D01*
X138325322Y-90897658D01*
X138252541Y-91240065D01*
X138247654Y-91590088D01*
X124595847Y-91590088D01*
X124563261Y-91202037D01*
X124934039Y-87896478D01*
X125185840Y-87102700D01*
X139667456Y-87102700D01*
X139735958Y-87475939D01*
X139875652Y-87828764D01*
X140081215Y-88147737D01*
X140344820Y-88420707D01*
X140656424Y-88637277D01*
X141004159Y-88789199D01*
X141374780Y-88870685D01*
X141754170Y-88878632D01*
X142127878Y-88812738D01*
X142481670Y-88675511D01*
X142802069Y-88472179D01*
X143076873Y-88210487D01*
X143295614Y-87900402D01*
X143449959Y-87553736D01*
X143534031Y-87183693D01*
X143536826Y-86983474D01*
X152646052Y-86983474D01*
X152675256Y-87304367D01*
X152766231Y-87613475D01*
X152915514Y-87899027D01*
X153117418Y-88150144D01*
X153364251Y-88357262D01*
X153646614Y-88512492D01*
X153953750Y-88609922D01*
X154273960Y-88645839D01*
X154297012Y-88646000D01*
X154312988Y-88646000D01*
X154633669Y-88614557D01*
X154942135Y-88521426D01*
X155226637Y-88370153D01*
X155476339Y-88166501D01*
X155681729Y-87918227D01*
X155834984Y-87634788D01*
X155930267Y-87326980D01*
X155963948Y-87006526D01*
X155934744Y-86685633D01*
X155843769Y-86376525D01*
X155694486Y-86090973D01*
X155638483Y-86021320D01*
X155675494Y-86001537D01*
X155772185Y-85922185D01*
X155851537Y-85825494D01*
X155910502Y-85715180D01*
X155946812Y-85595482D01*
X155959072Y-85471000D01*
X155959072Y-83439000D01*
X155946812Y-83314518D01*
X155910502Y-83194820D01*
X155851537Y-83084506D01*
X155772185Y-82987815D01*
X155675494Y-82908463D01*
X155565180Y-82849498D01*
X155445482Y-82813188D01*
X155321000Y-82800928D01*
X153289000Y-82800928D01*
X153164518Y-82813188D01*
X153044820Y-82849498D01*
X152934506Y-82908463D01*
X152837815Y-82987815D01*
X152758463Y-83084506D01*
X152699498Y-83194820D01*
X152663188Y-83314518D01*
X152650928Y-83439000D01*
X152650928Y-85471000D01*
X152663188Y-85595482D01*
X152699498Y-85715180D01*
X152758463Y-85825494D01*
X152837815Y-85922185D01*
X152934506Y-86001537D01*
X152970472Y-86020761D01*
X152928271Y-86071773D01*
X152775016Y-86355212D01*
X152679733Y-86663020D01*
X152646052Y-86983474D01*
X143536826Y-86983474D01*
X143540083Y-86750263D01*
X143466377Y-86378017D01*
X143321771Y-86027177D01*
X143111773Y-85711106D01*
X142844384Y-85441843D01*
X142529786Y-85229644D01*
X142179964Y-85082592D01*
X141808241Y-85006288D01*
X141428777Y-85003639D01*
X141056026Y-85074745D01*
X140704184Y-85216899D01*
X140386655Y-85424684D01*
X140115532Y-85690188D01*
X139901142Y-86003296D01*
X139751651Y-86352083D01*
X139672754Y-86723264D01*
X139667456Y-87102700D01*
X125185840Y-87102700D01*
X125939809Y-84725890D01*
X127256912Y-82330088D01*
X139817654Y-82330088D01*
X139880845Y-82674393D01*
X140009710Y-82999868D01*
X140199338Y-83294114D01*
X140442508Y-83545923D01*
X140729957Y-83745705D01*
X141050736Y-83885850D01*
X141392626Y-83961020D01*
X141742606Y-83968351D01*
X142087345Y-83907564D01*
X142413711Y-83780975D01*
X142709273Y-83593405D01*
X142962774Y-83351999D01*
X143164558Y-83065952D01*
X143306939Y-82746160D01*
X143384494Y-82404802D01*
X143390077Y-82004972D01*
X143322084Y-81661582D01*
X143188687Y-81337938D01*
X142994969Y-81046369D01*
X142748307Y-80797979D01*
X142458097Y-80602230D01*
X142135393Y-80466577D01*
X141792486Y-80396189D01*
X141442438Y-80393745D01*
X141098582Y-80459339D01*
X140774015Y-80590472D01*
X140481100Y-80782151D01*
X140230994Y-81027072D01*
X140033224Y-81315909D01*
X139895322Y-81637658D01*
X139822541Y-81980065D01*
X139817654Y-82330088D01*
X127256912Y-82330088D01*
X127542261Y-81811041D01*
X129680358Y-79262956D01*
X130340719Y-78732012D01*
X138684000Y-78732012D01*
X138684000Y-78747988D01*
X138715443Y-79068669D01*
X138808574Y-79377135D01*
X138959847Y-79661637D01*
X139163499Y-79911339D01*
X139411773Y-80116729D01*
X139695212Y-80269984D01*
X140003020Y-80365267D01*
X140323474Y-80398948D01*
X140644367Y-80369744D01*
X140953475Y-80278769D01*
X141239027Y-80129486D01*
X141307865Y-80074138D01*
X141365763Y-80160789D01*
X141454211Y-80249237D01*
X141558215Y-80318730D01*
X141673777Y-80366597D01*
X141796458Y-80391000D01*
X142589250Y-80391000D01*
X142748000Y-80232250D01*
X142748000Y-78867000D01*
X143002000Y-78867000D01*
X143002000Y-80232250D01*
X143160750Y-80391000D01*
X143953542Y-80391000D01*
X144076223Y-80366597D01*
X144191785Y-80318730D01*
X144295789Y-80249237D01*
X144384237Y-80160789D01*
X144453730Y-80056785D01*
X144501597Y-79941223D01*
X144526000Y-79818542D01*
X144526000Y-79025750D01*
X144367250Y-78867000D01*
X143002000Y-78867000D01*
X142748000Y-78867000D01*
X142728000Y-78867000D01*
X142728000Y-78613000D01*
X142748000Y-78613000D01*
X142748000Y-77247750D01*
X143002000Y-77247750D01*
X143002000Y-78613000D01*
X144367250Y-78613000D01*
X144526000Y-78454250D01*
X144526000Y-77661458D01*
X144501597Y-77538777D01*
X144453730Y-77423215D01*
X144384237Y-77319211D01*
X144295789Y-77230763D01*
X144191785Y-77161270D01*
X144076223Y-77113403D01*
X143953542Y-77089000D01*
X143160750Y-77089000D01*
X143002000Y-77247750D01*
X142748000Y-77247750D01*
X142589250Y-77089000D01*
X141796458Y-77089000D01*
X141673777Y-77113403D01*
X141558215Y-77161270D01*
X141454211Y-77230763D01*
X141365763Y-77319211D01*
X141308522Y-77404879D01*
X141258227Y-77363271D01*
X140974788Y-77210016D01*
X140666980Y-77114733D01*
X140346526Y-77081052D01*
X140025633Y-77110256D01*
X139716525Y-77201231D01*
X139430973Y-77350514D01*
X139179856Y-77552418D01*
X138972738Y-77799251D01*
X138817508Y-78081614D01*
X138720078Y-78388750D01*
X138684161Y-78708960D01*
X138684000Y-78732012D01*
X130340719Y-78732012D01*
X132272661Y-77178691D01*
X135220430Y-75637635D01*
X138411385Y-74698485D01*
X141723984Y-74397015D01*
X145032051Y-74744707D01*
M02*
