%TF.GenerationSoftware,KiCad,Pcbnew,4.1.0-alpha+201609021633+7109~49~ubuntu16.04.1-product*%
%TF.CreationDate,2016-09-14T14:37:25+05:30*%
%TF.ProjectId,OTS2_encB,4F5453325F656E63422E6B696361645F,rev?*%
%TF.FileFunction,Legend,Top*%
%FSLAX46Y46*%
G04 Gerber Fmt 4.6, Leading zero omitted, Abs format (unit mm)*
G04 Created by KiCad (PCBNEW 4.1.0-alpha+201609021633+7109~49~ubuntu16.04.1-product) date Wed Sep 14 14:37:25 2016*
%MOMM*%
%LPD*%
G01*
G04 APERTURE LIST*
%ADD10C,0.101600*%
%ADD11C,0.150000*%
%ADD12C,0.500000*%
%ADD13C,2.700000*%
%ADD14C,3.000000*%
%ADD15R,2.432000X2.432000*%
%ADD16O,2.432000X2.432000*%
G04 APERTURE END LIST*
D10*
X151605000Y-91440000D02*
G75*
G03X151605000Y-91440000I-10000000J0D01*
G01*
D11*
X141605000Y-78940000D02*
X142355000Y-77690000D01*
X140855000Y-77690000D02*
X141605000Y-78940000D01*
X142355000Y-77440000D02*
G75*
G03X142355000Y-77440000I-750000J0D01*
G01*
X157605000Y-91440000D02*
G75*
G03X157605000Y-91440000I-16000000J0D01*
G01*
X158605000Y-91440000D02*
G75*
G03X158605000Y-91440000I-17000000J0D01*
G01*
D12*
X148405000Y-91440000D02*
G75*
G03X148405000Y-91440000I-6800000J0D01*
G01*
D11*
X137566718Y-78284303D02*
G75*
G03X137566718Y-78284303I-750000J0D01*
G01*
X133355973Y-80715378D02*
G75*
G03X133355973Y-80715378I-750000J0D01*
G01*
X130230644Y-84440000D02*
G75*
G03X130230644Y-84440000I-750000J0D01*
G01*
X128567690Y-89008926D02*
G75*
G03X128567690Y-89008926I-749999J0D01*
G01*
X128567691Y-93871074D02*
G75*
G03X128567691Y-93871074I-750000J0D01*
G01*
X130230644Y-98440000D02*
G75*
G03X130230644Y-98440000I-750000J0D01*
G01*
X133355974Y-102164622D02*
G75*
G03X133355974Y-102164622I-750001J0D01*
G01*
X137566718Y-104595697D02*
G75*
G03X137566718Y-104595697I-750000J0D01*
G01*
X142355000Y-105440000D02*
G75*
G03X142355000Y-105440000I-750000J0D01*
G01*
X147143282Y-104595697D02*
G75*
G03X147143282Y-104595697I-750000J0D01*
G01*
X151354027Y-102164622D02*
G75*
G03X151354027Y-102164622I-750000J0D01*
G01*
X154479356Y-98440000D02*
G75*
G03X154479356Y-98440000I-750000J0D01*
G01*
X156142308Y-93871074D02*
G75*
G03X156142308Y-93871074I-749999J0D01*
G01*
X156142309Y-89008926D02*
G75*
G03X156142309Y-89008926I-750000J0D01*
G01*
X154479356Y-84440000D02*
G75*
G03X154479356Y-84440000I-750000J0D01*
G01*
X151354028Y-80715378D02*
G75*
G03X151354028Y-80715378I-750001J0D01*
G01*
X147143282Y-78284303D02*
G75*
G03X147143282Y-78284303I-750000J0D01*
G01*
X137329748Y-79693842D02*
X137606992Y-78262711D01*
X133570155Y-81864444D02*
X133341204Y-80424798D01*
X130779682Y-85190000D02*
X130072151Y-83915481D01*
X129294903Y-89269398D02*
X128194130Y-88313732D01*
X129294903Y-93610602D02*
X127933657Y-93089057D01*
X130779682Y-97690000D02*
X129322151Y-97665481D01*
X133570155Y-101015556D02*
X132192137Y-101491020D01*
X137329748Y-103186158D02*
X136197454Y-104104258D01*
X141605000Y-103940000D02*
X140855000Y-105190000D01*
X145880252Y-103186158D02*
X145603008Y-104617289D01*
X149639845Y-101015556D02*
X149868796Y-102455202D01*
X152430318Y-97690000D02*
X153137849Y-98964519D01*
X153915097Y-93610602D02*
X155015870Y-94566268D01*
X153915097Y-89269398D02*
X155276343Y-89790943D01*
X152430318Y-85190000D02*
X153887849Y-85214519D01*
X149639845Y-81864444D02*
X151017863Y-81388980D01*
X145880252Y-79693842D02*
X147012546Y-78775742D01*
X136197454Y-78775742D02*
X137329748Y-79693842D01*
X132192137Y-81388980D02*
X133570155Y-81864444D01*
X129322151Y-85214519D02*
X130779682Y-85190000D01*
X127933657Y-89790943D02*
X129294903Y-89269398D01*
X128194130Y-94566268D02*
X129294903Y-93610602D01*
X130072151Y-98964519D02*
X130779682Y-97690000D01*
X133341204Y-102455202D02*
X133570155Y-101015556D01*
X137606992Y-104617289D02*
X137329748Y-103186158D01*
X142355000Y-105190000D02*
X141605000Y-103940000D01*
X147012546Y-104104258D02*
X145880252Y-103186158D01*
X151017863Y-101491020D02*
X149639845Y-101015556D01*
X153887849Y-97665481D02*
X152430318Y-97690000D01*
X155276343Y-93089057D02*
X153915097Y-93610602D01*
X155015870Y-88313732D02*
X153915097Y-89269398D01*
X153137849Y-83915481D02*
X152430318Y-85190000D01*
X149868796Y-80424798D02*
X149639845Y-81864444D01*
X145603008Y-78262711D02*
X145880252Y-79693842D01*
X153035000Y-97155000D02*
X153035000Y-94615000D01*
X152755000Y-99975000D02*
X152755000Y-98425000D01*
X153035000Y-97155000D02*
X155575000Y-97155000D01*
X155855000Y-98425000D02*
X155855000Y-99975000D01*
X155855000Y-99975000D02*
X152755000Y-99975000D01*
X155575000Y-97155000D02*
X155575000Y-94615000D01*
X155575000Y-94615000D02*
X153035000Y-94615000D01*
X155575000Y-85725000D02*
X155575000Y-88265000D01*
X155855000Y-82905000D02*
X155855000Y-84455000D01*
X155575000Y-85725000D02*
X153035000Y-85725000D01*
X152755000Y-84455000D02*
X152755000Y-82905000D01*
X152755000Y-82905000D02*
X155855000Y-82905000D01*
X153035000Y-85725000D02*
X153035000Y-88265000D01*
X153035000Y-88265000D02*
X155575000Y-88265000D01*
X141605000Y-102870000D02*
X144145000Y-102870000D01*
X138785000Y-102590000D02*
X140335000Y-102590000D01*
X141605000Y-102870000D02*
X141605000Y-105410000D01*
X140335000Y-105690000D02*
X138785000Y-105690000D01*
X138785000Y-105690000D02*
X138785000Y-102590000D01*
X141605000Y-105410000D02*
X144145000Y-105410000D01*
X144145000Y-105410000D02*
X144145000Y-102870000D01*
X141605000Y-80010000D02*
X139065000Y-80010000D01*
X144425000Y-80290000D02*
X142875000Y-80290000D01*
X141605000Y-80010000D02*
X141605000Y-77470000D01*
X142875000Y-77190000D02*
X144425000Y-77190000D01*
X144425000Y-77190000D02*
X144425000Y-80290000D01*
X141605000Y-77470000D02*
X139065000Y-77470000D01*
X139065000Y-77470000D02*
X139065000Y-80010000D01*
X140866904Y-93749761D02*
X140771666Y-93797380D01*
X140581190Y-93797380D01*
X140485952Y-93749761D01*
X140438333Y-93654523D01*
X140438333Y-93273571D01*
X140485952Y-93178333D01*
X140581190Y-93130714D01*
X140771666Y-93130714D01*
X140866904Y-93178333D01*
X140914523Y-93273571D01*
X140914523Y-93368809D01*
X140438333Y-93464047D01*
X141343095Y-93273571D02*
X141676428Y-93273571D01*
X141819285Y-93797380D02*
X141343095Y-93797380D01*
X141343095Y-92797380D01*
X141819285Y-92797380D01*
X142676428Y-93130714D02*
X142676428Y-93797380D01*
X142438333Y-92749761D02*
X142200238Y-93464047D01*
X142819285Y-93464047D01*
X153043095Y-101369761D02*
X152947857Y-101417380D01*
X152757380Y-101417380D01*
X152662142Y-101369761D01*
X152614523Y-101274523D01*
X152614523Y-100893571D01*
X152662142Y-100798333D01*
X152757380Y-100750714D01*
X152947857Y-100750714D01*
X153043095Y-100798333D01*
X153090714Y-100893571D01*
X153090714Y-100988809D01*
X152614523Y-101084047D01*
X153519285Y-101417380D02*
X153519285Y-100417380D01*
X153900238Y-100417380D01*
X153995476Y-100465000D01*
X154043095Y-100512619D01*
X154090714Y-100607857D01*
X154090714Y-100750714D01*
X154043095Y-100845952D01*
X153995476Y-100893571D01*
X153900238Y-100941190D01*
X153519285Y-100941190D01*
X155043095Y-101417380D02*
X154471666Y-101417380D01*
X154757380Y-101417380D02*
X154757380Y-100417380D01*
X154662142Y-100560238D01*
X154566904Y-100655476D01*
X154471666Y-100703095D01*
X155662142Y-100417380D02*
X155757380Y-100417380D01*
X155852619Y-100465000D01*
X155900238Y-100512619D01*
X155947857Y-100607857D01*
X155995476Y-100798333D01*
X155995476Y-101036428D01*
X155947857Y-101226904D01*
X155900238Y-101322142D01*
X155852619Y-101369761D01*
X155757380Y-101417380D01*
X155662142Y-101417380D01*
X155566904Y-101369761D01*
X155519285Y-101322142D01*
X155471666Y-101226904D01*
X155424047Y-101036428D01*
X155424047Y-100798333D01*
X155471666Y-100607857D01*
X155519285Y-100512619D01*
X155566904Y-100465000D01*
X155662142Y-100417380D01*
X153043095Y-82319761D02*
X152947857Y-82367380D01*
X152757380Y-82367380D01*
X152662142Y-82319761D01*
X152614523Y-82224523D01*
X152614523Y-81843571D01*
X152662142Y-81748333D01*
X152757380Y-81700714D01*
X152947857Y-81700714D01*
X153043095Y-81748333D01*
X153090714Y-81843571D01*
X153090714Y-81938809D01*
X152614523Y-82034047D01*
X153519285Y-82367380D02*
X153519285Y-81367380D01*
X153900238Y-81367380D01*
X153995476Y-81415000D01*
X154043095Y-81462619D01*
X154090714Y-81557857D01*
X154090714Y-81700714D01*
X154043095Y-81795952D01*
X153995476Y-81843571D01*
X153900238Y-81891190D01*
X153519285Y-81891190D01*
X155043095Y-82367380D02*
X154471666Y-82367380D01*
X154757380Y-82367380D02*
X154757380Y-81367380D01*
X154662142Y-81510238D01*
X154566904Y-81605476D01*
X154471666Y-81653095D01*
X155424047Y-81462619D02*
X155471666Y-81415000D01*
X155566904Y-81367380D01*
X155805000Y-81367380D01*
X155900238Y-81415000D01*
X155947857Y-81462619D01*
X155995476Y-81557857D01*
X155995476Y-81653095D01*
X155947857Y-81795952D01*
X155376428Y-82367380D01*
X155995476Y-82367380D01*
X140343095Y-107084761D02*
X140247857Y-107132380D01*
X140057380Y-107132380D01*
X139962142Y-107084761D01*
X139914523Y-106989523D01*
X139914523Y-106608571D01*
X139962142Y-106513333D01*
X140057380Y-106465714D01*
X140247857Y-106465714D01*
X140343095Y-106513333D01*
X140390714Y-106608571D01*
X140390714Y-106703809D01*
X139914523Y-106799047D01*
X140819285Y-107132380D02*
X140819285Y-106132380D01*
X141200238Y-106132380D01*
X141295476Y-106180000D01*
X141343095Y-106227619D01*
X141390714Y-106322857D01*
X141390714Y-106465714D01*
X141343095Y-106560952D01*
X141295476Y-106608571D01*
X141200238Y-106656190D01*
X140819285Y-106656190D01*
X142343095Y-107132380D02*
X141771666Y-107132380D01*
X142057380Y-107132380D02*
X142057380Y-106132380D01*
X141962142Y-106275238D01*
X141866904Y-106370476D01*
X141771666Y-106418095D01*
X143295476Y-107132380D02*
X142724047Y-107132380D01*
X143009761Y-107132380D02*
X143009761Y-106132380D01*
X142914523Y-106275238D01*
X142819285Y-106370476D01*
X142724047Y-106418095D01*
X140819285Y-76604761D02*
X140724047Y-76652380D01*
X140533571Y-76652380D01*
X140438333Y-76604761D01*
X140390714Y-76509523D01*
X140390714Y-76128571D01*
X140438333Y-76033333D01*
X140533571Y-75985714D01*
X140724047Y-75985714D01*
X140819285Y-76033333D01*
X140866904Y-76128571D01*
X140866904Y-76223809D01*
X140390714Y-76319047D01*
X141295476Y-76652380D02*
X141295476Y-75652380D01*
X141676428Y-75652380D01*
X141771666Y-75700000D01*
X141819285Y-75747619D01*
X141866904Y-75842857D01*
X141866904Y-75985714D01*
X141819285Y-76080952D01*
X141771666Y-76128571D01*
X141676428Y-76176190D01*
X141295476Y-76176190D01*
X142343095Y-76652380D02*
X142533571Y-76652380D01*
X142628809Y-76604761D01*
X142676428Y-76557142D01*
X142771666Y-76414285D01*
X142819285Y-76223809D01*
X142819285Y-75842857D01*
X142771666Y-75747619D01*
X142724047Y-75700000D01*
X142628809Y-75652380D01*
X142438333Y-75652380D01*
X142343095Y-75700000D01*
X142295476Y-75747619D01*
X142247857Y-75842857D01*
X142247857Y-76080952D01*
X142295476Y-76176190D01*
X142343095Y-76223809D01*
X142438333Y-76271428D01*
X142628809Y-76271428D01*
X142724047Y-76223809D01*
X142771666Y-76176190D01*
X142819285Y-76080952D01*
%LPC*%
D13*
X140035000Y-91440000D03*
D14*
X141605000Y-95940000D03*
D13*
X141605000Y-100700000D03*
D14*
X141605000Y-86940000D03*
D13*
X141605000Y-82180000D03*
X150865000Y-91440000D03*
D15*
X154305000Y-98425000D03*
D16*
X154305000Y-95885000D03*
D15*
X154305000Y-84455000D03*
D16*
X154305000Y-86995000D03*
D15*
X140335000Y-104140000D03*
D16*
X142875000Y-104140000D03*
D15*
X142875000Y-78740000D03*
D16*
X140335000Y-78740000D03*
M02*
