%TF.GenerationSoftware,KiCad,Pcbnew,4.1.0-alpha+201609021633+7109~49~ubuntu16.04.1-product*%
%TF.CreationDate,2016-09-14T14:31:16+05:30*%
%TF.ProjectId,OTS2_encA,4F5453325F656E63412E6B696361645F,rev?*%
%TF.FileFunction,Legend,Bot*%
%FSLAX46Y46*%
G04 Gerber Fmt 4.6, Leading zero omitted, Abs format (unit mm)*
G04 Created by KiCad (PCBNEW 4.1.0-alpha+201609021633+7109~49~ubuntu16.04.1-product) date Wed Sep 14 14:31:16 2016*
%MOMM*%
%LPD*%
G01*
G04 APERTURE LIST*
%ADD10C,0.101600*%
%ADD11C,0.150000*%
%ADD12R,2.900000X2.400000*%
%ADD13C,2.700000*%
%ADD14C,3.000000*%
%ADD15R,2.432000X2.432000*%
%ADD16O,2.432000X2.432000*%
G04 APERTURE END LIST*
D10*
D11*
X39575000Y-85455000D02*
X39575000Y-83455000D01*
X36625000Y-83455000D02*
X36625000Y-85455000D01*
X48465000Y-85455000D02*
X48465000Y-83455000D01*
X45515000Y-83455000D02*
X45515000Y-85455000D01*
X36625000Y-99425000D02*
X36625000Y-97425000D01*
X39575000Y-97425000D02*
X39575000Y-99425000D01*
X35765000Y-85455000D02*
X35765000Y-83455000D01*
X32815000Y-83455000D02*
X32815000Y-85455000D01*
X45515000Y-99425000D02*
X45515000Y-97425000D01*
X48465000Y-97425000D02*
X48465000Y-99425000D01*
X32815000Y-99425000D02*
X32815000Y-97425000D01*
X35765000Y-97425000D02*
X35765000Y-99425000D01*
X39361904Y-89304761D02*
X39457142Y-89352380D01*
X39647619Y-89352380D01*
X39742857Y-89304761D01*
X39790476Y-89209523D01*
X39790476Y-88828571D01*
X39742857Y-88733333D01*
X39647619Y-88685714D01*
X39457142Y-88685714D01*
X39361904Y-88733333D01*
X39314285Y-88828571D01*
X39314285Y-88923809D01*
X39790476Y-89019047D01*
X38314285Y-89352380D02*
X38647619Y-88876190D01*
X38885714Y-89352380D02*
X38885714Y-88352380D01*
X38504761Y-88352380D01*
X38409523Y-88400000D01*
X38361904Y-88447619D01*
X38314285Y-88542857D01*
X38314285Y-88685714D01*
X38361904Y-88780952D01*
X38409523Y-88828571D01*
X38504761Y-88876190D01*
X38885714Y-88876190D01*
X37933333Y-88447619D02*
X37885714Y-88400000D01*
X37790476Y-88352380D01*
X37552380Y-88352380D01*
X37457142Y-88400000D01*
X37409523Y-88447619D01*
X37361904Y-88542857D01*
X37361904Y-88638095D01*
X37409523Y-88780952D01*
X37980952Y-89352380D01*
X37361904Y-89352380D01*
X37028571Y-88352380D02*
X36409523Y-88352380D01*
X36742857Y-88733333D01*
X36600000Y-88733333D01*
X36504761Y-88780952D01*
X36457142Y-88828571D01*
X36409523Y-88923809D01*
X36409523Y-89161904D01*
X36457142Y-89257142D01*
X36504761Y-89304761D01*
X36600000Y-89352380D01*
X36885714Y-89352380D01*
X36980952Y-89304761D01*
X37028571Y-89257142D01*
X38695238Y-84907380D02*
X39266666Y-84907380D01*
X38980952Y-84907380D02*
X38980952Y-83907380D01*
X39076190Y-84050238D01*
X39171428Y-84145476D01*
X39266666Y-84193095D01*
X38076190Y-83907380D02*
X37980952Y-83907380D01*
X37885714Y-83955000D01*
X37838095Y-84002619D01*
X37790476Y-84097857D01*
X37742857Y-84288333D01*
X37742857Y-84526428D01*
X37790476Y-84716904D01*
X37838095Y-84812142D01*
X37885714Y-84859761D01*
X37980952Y-84907380D01*
X38076190Y-84907380D01*
X38171428Y-84859761D01*
X38219047Y-84812142D01*
X38266666Y-84716904D01*
X38314285Y-84526428D01*
X38314285Y-84288333D01*
X38266666Y-84097857D01*
X38219047Y-84002619D01*
X38171428Y-83955000D01*
X38076190Y-83907380D01*
X37314285Y-84907380D02*
X37314285Y-83907380D01*
X37219047Y-84526428D02*
X36933333Y-84907380D01*
X36933333Y-84240714D02*
X37314285Y-84621666D01*
X48251904Y-89304761D02*
X48347142Y-89352380D01*
X48537619Y-89352380D01*
X48632857Y-89304761D01*
X48680476Y-89209523D01*
X48680476Y-88828571D01*
X48632857Y-88733333D01*
X48537619Y-88685714D01*
X48347142Y-88685714D01*
X48251904Y-88733333D01*
X48204285Y-88828571D01*
X48204285Y-88923809D01*
X48680476Y-89019047D01*
X47204285Y-89352380D02*
X47537619Y-88876190D01*
X47775714Y-89352380D02*
X47775714Y-88352380D01*
X47394761Y-88352380D01*
X47299523Y-88400000D01*
X47251904Y-88447619D01*
X47204285Y-88542857D01*
X47204285Y-88685714D01*
X47251904Y-88780952D01*
X47299523Y-88828571D01*
X47394761Y-88876190D01*
X47775714Y-88876190D01*
X46823333Y-88447619D02*
X46775714Y-88400000D01*
X46680476Y-88352380D01*
X46442380Y-88352380D01*
X46347142Y-88400000D01*
X46299523Y-88447619D01*
X46251904Y-88542857D01*
X46251904Y-88638095D01*
X46299523Y-88780952D01*
X46870952Y-89352380D01*
X46251904Y-89352380D01*
X45299523Y-89352380D02*
X45870952Y-89352380D01*
X45585238Y-89352380D02*
X45585238Y-88352380D01*
X45680476Y-88495238D01*
X45775714Y-88590476D01*
X45870952Y-88638095D01*
X47585238Y-84907380D02*
X48156666Y-84907380D01*
X47870952Y-84907380D02*
X47870952Y-83907380D01*
X47966190Y-84050238D01*
X48061428Y-84145476D01*
X48156666Y-84193095D01*
X46966190Y-83907380D02*
X46870952Y-83907380D01*
X46775714Y-83955000D01*
X46728095Y-84002619D01*
X46680476Y-84097857D01*
X46632857Y-84288333D01*
X46632857Y-84526428D01*
X46680476Y-84716904D01*
X46728095Y-84812142D01*
X46775714Y-84859761D01*
X46870952Y-84907380D01*
X46966190Y-84907380D01*
X47061428Y-84859761D01*
X47109047Y-84812142D01*
X47156666Y-84716904D01*
X47204285Y-84526428D01*
X47204285Y-84288333D01*
X47156666Y-84097857D01*
X47109047Y-84002619D01*
X47061428Y-83955000D01*
X46966190Y-83907380D01*
X46204285Y-84907380D02*
X46204285Y-83907380D01*
X46109047Y-84526428D02*
X45823333Y-84907380D01*
X45823333Y-84240714D02*
X46204285Y-84621666D01*
X39361904Y-94384761D02*
X39457142Y-94432380D01*
X39647619Y-94432380D01*
X39742857Y-94384761D01*
X39790476Y-94289523D01*
X39790476Y-93908571D01*
X39742857Y-93813333D01*
X39647619Y-93765714D01*
X39457142Y-93765714D01*
X39361904Y-93813333D01*
X39314285Y-93908571D01*
X39314285Y-94003809D01*
X39790476Y-94099047D01*
X38314285Y-94337142D02*
X38361904Y-94384761D01*
X38504761Y-94432380D01*
X38600000Y-94432380D01*
X38742857Y-94384761D01*
X38838095Y-94289523D01*
X38885714Y-94194285D01*
X38933333Y-94003809D01*
X38933333Y-93860952D01*
X38885714Y-93670476D01*
X38838095Y-93575238D01*
X38742857Y-93480000D01*
X38600000Y-93432380D01*
X38504761Y-93432380D01*
X38361904Y-93480000D01*
X38314285Y-93527619D01*
X37980952Y-93432380D02*
X37361904Y-93432380D01*
X37695238Y-93813333D01*
X37552380Y-93813333D01*
X37457142Y-93860952D01*
X37409523Y-93908571D01*
X37361904Y-94003809D01*
X37361904Y-94241904D01*
X37409523Y-94337142D01*
X37457142Y-94384761D01*
X37552380Y-94432380D01*
X37838095Y-94432380D01*
X37933333Y-94384761D01*
X37980952Y-94337142D01*
X36409523Y-94432380D02*
X36980952Y-94432380D01*
X36695238Y-94432380D02*
X36695238Y-93432380D01*
X36790476Y-93575238D01*
X36885714Y-93670476D01*
X36980952Y-93718095D01*
X38695238Y-98877380D02*
X39266666Y-98877380D01*
X38980952Y-98877380D02*
X38980952Y-97877380D01*
X39076190Y-98020238D01*
X39171428Y-98115476D01*
X39266666Y-98163095D01*
X37838095Y-98210714D02*
X37838095Y-98877380D01*
X38266666Y-98210714D02*
X38266666Y-98734523D01*
X38219047Y-98829761D01*
X38123809Y-98877380D01*
X37980952Y-98877380D01*
X37885714Y-98829761D01*
X37838095Y-98782142D01*
X37028571Y-98353571D02*
X37361904Y-98353571D01*
X37361904Y-98877380D02*
X37361904Y-97877380D01*
X36885714Y-97877380D01*
X35551904Y-89304761D02*
X35647142Y-89352380D01*
X35837619Y-89352380D01*
X35932857Y-89304761D01*
X35980476Y-89209523D01*
X35980476Y-88828571D01*
X35932857Y-88733333D01*
X35837619Y-88685714D01*
X35647142Y-88685714D01*
X35551904Y-88733333D01*
X35504285Y-88828571D01*
X35504285Y-88923809D01*
X35980476Y-89019047D01*
X34504285Y-89352380D02*
X34837619Y-88876190D01*
X35075714Y-89352380D02*
X35075714Y-88352380D01*
X34694761Y-88352380D01*
X34599523Y-88400000D01*
X34551904Y-88447619D01*
X34504285Y-88542857D01*
X34504285Y-88685714D01*
X34551904Y-88780952D01*
X34599523Y-88828571D01*
X34694761Y-88876190D01*
X35075714Y-88876190D01*
X34123333Y-88447619D02*
X34075714Y-88400000D01*
X33980476Y-88352380D01*
X33742380Y-88352380D01*
X33647142Y-88400000D01*
X33599523Y-88447619D01*
X33551904Y-88542857D01*
X33551904Y-88638095D01*
X33599523Y-88780952D01*
X34170952Y-89352380D01*
X33551904Y-89352380D01*
X33170952Y-88447619D02*
X33123333Y-88400000D01*
X33028095Y-88352380D01*
X32790000Y-88352380D01*
X32694761Y-88400000D01*
X32647142Y-88447619D01*
X32599523Y-88542857D01*
X32599523Y-88638095D01*
X32647142Y-88780952D01*
X33218571Y-89352380D01*
X32599523Y-89352380D01*
X34885238Y-84907380D02*
X35456666Y-84907380D01*
X35170952Y-84907380D02*
X35170952Y-83907380D01*
X35266190Y-84050238D01*
X35361428Y-84145476D01*
X35456666Y-84193095D01*
X34266190Y-83907380D02*
X34170952Y-83907380D01*
X34075714Y-83955000D01*
X34028095Y-84002619D01*
X33980476Y-84097857D01*
X33932857Y-84288333D01*
X33932857Y-84526428D01*
X33980476Y-84716904D01*
X34028095Y-84812142D01*
X34075714Y-84859761D01*
X34170952Y-84907380D01*
X34266190Y-84907380D01*
X34361428Y-84859761D01*
X34409047Y-84812142D01*
X34456666Y-84716904D01*
X34504285Y-84526428D01*
X34504285Y-84288333D01*
X34456666Y-84097857D01*
X34409047Y-84002619D01*
X34361428Y-83955000D01*
X34266190Y-83907380D01*
X33504285Y-84907380D02*
X33504285Y-83907380D01*
X33409047Y-84526428D02*
X33123333Y-84907380D01*
X33123333Y-84240714D02*
X33504285Y-84621666D01*
X48251904Y-94384761D02*
X48347142Y-94432380D01*
X48537619Y-94432380D01*
X48632857Y-94384761D01*
X48680476Y-94289523D01*
X48680476Y-93908571D01*
X48632857Y-93813333D01*
X48537619Y-93765714D01*
X48347142Y-93765714D01*
X48251904Y-93813333D01*
X48204285Y-93908571D01*
X48204285Y-94003809D01*
X48680476Y-94099047D01*
X47204285Y-94337142D02*
X47251904Y-94384761D01*
X47394761Y-94432380D01*
X47490000Y-94432380D01*
X47632857Y-94384761D01*
X47728095Y-94289523D01*
X47775714Y-94194285D01*
X47823333Y-94003809D01*
X47823333Y-93860952D01*
X47775714Y-93670476D01*
X47728095Y-93575238D01*
X47632857Y-93480000D01*
X47490000Y-93432380D01*
X47394761Y-93432380D01*
X47251904Y-93480000D01*
X47204285Y-93527619D01*
X46823333Y-93527619D02*
X46775714Y-93480000D01*
X46680476Y-93432380D01*
X46442380Y-93432380D01*
X46347142Y-93480000D01*
X46299523Y-93527619D01*
X46251904Y-93622857D01*
X46251904Y-93718095D01*
X46299523Y-93860952D01*
X46870952Y-94432380D01*
X46251904Y-94432380D01*
X45775714Y-94432380D02*
X45585238Y-94432380D01*
X45490000Y-94384761D01*
X45442380Y-94337142D01*
X45347142Y-94194285D01*
X45299523Y-94003809D01*
X45299523Y-93622857D01*
X45347142Y-93527619D01*
X45394761Y-93480000D01*
X45490000Y-93432380D01*
X45680476Y-93432380D01*
X45775714Y-93480000D01*
X45823333Y-93527619D01*
X45870952Y-93622857D01*
X45870952Y-93860952D01*
X45823333Y-93956190D01*
X45775714Y-94003809D01*
X45680476Y-94051428D01*
X45490000Y-94051428D01*
X45394761Y-94003809D01*
X45347142Y-93956190D01*
X45299523Y-93860952D01*
X47585238Y-98877380D02*
X48156666Y-98877380D01*
X47870952Y-98877380D02*
X47870952Y-97877380D01*
X47966190Y-98020238D01*
X48061428Y-98115476D01*
X48156666Y-98163095D01*
X46728095Y-98210714D02*
X46728095Y-98877380D01*
X47156666Y-98210714D02*
X47156666Y-98734523D01*
X47109047Y-98829761D01*
X47013809Y-98877380D01*
X46870952Y-98877380D01*
X46775714Y-98829761D01*
X46728095Y-98782142D01*
X45918571Y-98353571D02*
X46251904Y-98353571D01*
X46251904Y-98877380D02*
X46251904Y-97877380D01*
X45775714Y-97877380D01*
X35551904Y-94384761D02*
X35647142Y-94432380D01*
X35837619Y-94432380D01*
X35932857Y-94384761D01*
X35980476Y-94289523D01*
X35980476Y-93908571D01*
X35932857Y-93813333D01*
X35837619Y-93765714D01*
X35647142Y-93765714D01*
X35551904Y-93813333D01*
X35504285Y-93908571D01*
X35504285Y-94003809D01*
X35980476Y-94099047D01*
X34504285Y-94337142D02*
X34551904Y-94384761D01*
X34694761Y-94432380D01*
X34790000Y-94432380D01*
X34932857Y-94384761D01*
X35028095Y-94289523D01*
X35075714Y-94194285D01*
X35123333Y-94003809D01*
X35123333Y-93860952D01*
X35075714Y-93670476D01*
X35028095Y-93575238D01*
X34932857Y-93480000D01*
X34790000Y-93432380D01*
X34694761Y-93432380D01*
X34551904Y-93480000D01*
X34504285Y-93527619D01*
X34170952Y-93432380D02*
X33551904Y-93432380D01*
X33885238Y-93813333D01*
X33742380Y-93813333D01*
X33647142Y-93860952D01*
X33599523Y-93908571D01*
X33551904Y-94003809D01*
X33551904Y-94241904D01*
X33599523Y-94337142D01*
X33647142Y-94384761D01*
X33742380Y-94432380D01*
X34028095Y-94432380D01*
X34123333Y-94384761D01*
X34170952Y-94337142D01*
X32932857Y-93432380D02*
X32837619Y-93432380D01*
X32742380Y-93480000D01*
X32694761Y-93527619D01*
X32647142Y-93622857D01*
X32599523Y-93813333D01*
X32599523Y-94051428D01*
X32647142Y-94241904D01*
X32694761Y-94337142D01*
X32742380Y-94384761D01*
X32837619Y-94432380D01*
X32932857Y-94432380D01*
X33028095Y-94384761D01*
X33075714Y-94337142D01*
X33123333Y-94241904D01*
X33170952Y-94051428D01*
X33170952Y-93813333D01*
X33123333Y-93622857D01*
X33075714Y-93527619D01*
X33028095Y-93480000D01*
X32932857Y-93432380D01*
X34885238Y-98877380D02*
X35456666Y-98877380D01*
X35170952Y-98877380D02*
X35170952Y-97877380D01*
X35266190Y-98020238D01*
X35361428Y-98115476D01*
X35456666Y-98163095D01*
X34028095Y-98210714D02*
X34028095Y-98877380D01*
X34456666Y-98210714D02*
X34456666Y-98734523D01*
X34409047Y-98829761D01*
X34313809Y-98877380D01*
X34170952Y-98877380D01*
X34075714Y-98829761D01*
X34028095Y-98782142D01*
X33218571Y-98353571D02*
X33551904Y-98353571D01*
X33551904Y-98877380D02*
X33551904Y-97877380D01*
X33075714Y-97877380D01*
%LPC*%
D12*
X38100000Y-82455000D03*
X38100000Y-86455000D03*
X46990000Y-82455000D03*
X46990000Y-86455000D03*
X38100000Y-96425000D03*
X38100000Y-100425000D03*
X34290000Y-82455000D03*
X34290000Y-86455000D03*
X46990000Y-96425000D03*
X46990000Y-100425000D03*
X34290000Y-96425000D03*
X34290000Y-100425000D03*
D13*
X44115000Y-91440000D03*
D14*
X42545000Y-86940000D03*
D13*
X42545000Y-82180000D03*
D14*
X42545000Y-95940000D03*
D13*
X42545000Y-100700000D03*
X33285000Y-91440000D03*
D15*
X29845000Y-98425000D03*
D16*
X29845000Y-95885000D03*
D15*
X29845000Y-84455000D03*
D16*
X29845000Y-86995000D03*
D15*
X41275000Y-78740000D03*
D16*
X43815000Y-78740000D03*
D15*
X41275000Y-104140000D03*
D16*
X43815000Y-104140000D03*
M02*
