%TF.GenerationSoftware,KiCad,Pcbnew,4.1.0-alpha+201609021633+7109~49~ubuntu16.04.1-product*%
%TF.CreationDate,2016-09-14T14:31:16+05:30*%
%TF.ProjectId,OTS2_encA,4F5453325F656E63412E6B696361645F,rev?*%
%TF.FileFunction,Copper,L1,Top,Signal*%
%FSLAX46Y46*%
G04 Gerber Fmt 4.6, Leading zero omitted, Abs format (unit mm)*
G04 Created by KiCad (PCBNEW 4.1.0-alpha+201609021633+7109~49~ubuntu16.04.1-product) date Wed Sep 14 14:31:16 2016*
%MOMM*%
%LPD*%
G01*
G04 APERTURE LIST*
%ADD10C,0.101600*%
%ADD11C,2.300000*%
%ADD12C,2.600000*%
%ADD13R,2.032000X2.032000*%
%ADD14O,2.032000X2.032000*%
%ADD15C,0.762000*%
%ADD16C,0.762000*%
%ADD17C,0.254000*%
G04 APERTURE END LIST*
D10*
D11*
X44115000Y-91440000D03*
D12*
X42545000Y-86940000D03*
D11*
X42545000Y-82180000D03*
D12*
X42545000Y-95940000D03*
D11*
X42545000Y-100700000D03*
X33285000Y-91440000D03*
D13*
X29845000Y-98425000D03*
D14*
X29845000Y-95885000D03*
D13*
X29845000Y-84455000D03*
D14*
X29845000Y-86995000D03*
D13*
X41275000Y-78740000D03*
D14*
X43815000Y-78740000D03*
D13*
X41275000Y-104140000D03*
D14*
X43815000Y-104140000D03*
D15*
X29845000Y-95885000D03*
X46990000Y-80264000D03*
D16*
X45974000Y-76454000D02*
X42291000Y-76454000D01*
X42291000Y-76454000D02*
X41275000Y-77470000D01*
X41275000Y-77470000D02*
X41275000Y-78740000D01*
X46990000Y-77470000D02*
X45974000Y-76454000D01*
X46990000Y-80264000D02*
X46990000Y-77470000D01*
D17*
G36*
X45972051Y-74744707D02*
X49149583Y-75728318D01*
X52075548Y-77310381D01*
X54638498Y-79430637D01*
X56740810Y-82008326D01*
X58302408Y-84945265D01*
X59263811Y-88129586D01*
X59588400Y-91440000D01*
X59581755Y-91915880D01*
X59164861Y-95215940D01*
X58114921Y-98372175D01*
X56471927Y-101264367D01*
X54298462Y-103782351D01*
X51677310Y-105830219D01*
X48708312Y-107329967D01*
X45504555Y-108224472D01*
X42188070Y-108479662D01*
X38885180Y-108085816D01*
X35721691Y-107057937D01*
X32818100Y-105435174D01*
X30285004Y-103279340D01*
X30161883Y-103124000D01*
X39620928Y-103124000D01*
X39620928Y-105156000D01*
X39633188Y-105280482D01*
X39669498Y-105400180D01*
X39728463Y-105510494D01*
X39807815Y-105607185D01*
X39904506Y-105686537D01*
X40014820Y-105745502D01*
X40134518Y-105781812D01*
X40259000Y-105794072D01*
X42291000Y-105794072D01*
X42415482Y-105781812D01*
X42535180Y-105745502D01*
X42645494Y-105686537D01*
X42742185Y-105607185D01*
X42821537Y-105510494D01*
X42840761Y-105474528D01*
X42891773Y-105516729D01*
X43175212Y-105669984D01*
X43483020Y-105765267D01*
X43803474Y-105798948D01*
X44124367Y-105769744D01*
X44433475Y-105678769D01*
X44719027Y-105529486D01*
X44970144Y-105327582D01*
X45177262Y-105080749D01*
X45332492Y-104798386D01*
X45429922Y-104491250D01*
X45465839Y-104171040D01*
X45466000Y-104147988D01*
X45466000Y-104132012D01*
X45434557Y-103811331D01*
X45341426Y-103502865D01*
X45190153Y-103218363D01*
X44986501Y-102968661D01*
X44738227Y-102763271D01*
X44454788Y-102610016D01*
X44146980Y-102514733D01*
X43826526Y-102481052D01*
X43505633Y-102510256D01*
X43196525Y-102601231D01*
X42910973Y-102750514D01*
X42841320Y-102806517D01*
X42821537Y-102769506D01*
X42742185Y-102672815D01*
X42645494Y-102593463D01*
X42535180Y-102534498D01*
X42415482Y-102498188D01*
X42291000Y-102485928D01*
X40259000Y-102485928D01*
X40134518Y-102498188D01*
X40014820Y-102534498D01*
X39904506Y-102593463D01*
X39807815Y-102672815D01*
X39728463Y-102769506D01*
X39669498Y-102879820D01*
X39633188Y-102999518D01*
X39620928Y-103124000D01*
X30161883Y-103124000D01*
X28359602Y-100850088D01*
X40757654Y-100850088D01*
X40820845Y-101194393D01*
X40949710Y-101519868D01*
X41139338Y-101814114D01*
X41382508Y-102065923D01*
X41669957Y-102265705D01*
X41990736Y-102405850D01*
X42332626Y-102481020D01*
X42682606Y-102488351D01*
X43027345Y-102427564D01*
X43353711Y-102300975D01*
X43649273Y-102113405D01*
X43902774Y-101871999D01*
X44104558Y-101585952D01*
X44246939Y-101266160D01*
X44324494Y-100924802D01*
X44330077Y-100524972D01*
X44262084Y-100181582D01*
X44128687Y-99857938D01*
X43934969Y-99566369D01*
X43688307Y-99317979D01*
X43398097Y-99122230D01*
X43075393Y-98986577D01*
X42732486Y-98916189D01*
X42382438Y-98913745D01*
X42038582Y-98979339D01*
X41714015Y-99110472D01*
X41421100Y-99302151D01*
X41170994Y-99547072D01*
X40973224Y-99835909D01*
X40835322Y-100157658D01*
X40762541Y-100500065D01*
X40757654Y-100850088D01*
X28359602Y-100850088D01*
X28218887Y-100672550D01*
X26698447Y-97714094D01*
X26170658Y-95873474D01*
X28186052Y-95873474D01*
X28215256Y-96194367D01*
X28306231Y-96503475D01*
X28455514Y-96789027D01*
X28511517Y-96858680D01*
X28474506Y-96878463D01*
X28377815Y-96957815D01*
X28298463Y-97054506D01*
X28239498Y-97164820D01*
X28203188Y-97284518D01*
X28190928Y-97409000D01*
X28190928Y-99441000D01*
X28203188Y-99565482D01*
X28239498Y-99685180D01*
X28298463Y-99795494D01*
X28377815Y-99892185D01*
X28474506Y-99971537D01*
X28584820Y-100030502D01*
X28704518Y-100066812D01*
X28829000Y-100079072D01*
X30861000Y-100079072D01*
X30985482Y-100066812D01*
X31105180Y-100030502D01*
X31215494Y-99971537D01*
X31312185Y-99892185D01*
X31391537Y-99795494D01*
X31450502Y-99685180D01*
X31486812Y-99565482D01*
X31499072Y-99441000D01*
X31499072Y-97409000D01*
X31486812Y-97284518D01*
X31450502Y-97164820D01*
X31391537Y-97054506D01*
X31312185Y-96957815D01*
X31215494Y-96878463D01*
X31179528Y-96859239D01*
X31221729Y-96808227D01*
X31374984Y-96524788D01*
X31470267Y-96216980D01*
X31482278Y-96102700D01*
X40607456Y-96102700D01*
X40675958Y-96475939D01*
X40815652Y-96828764D01*
X41021215Y-97147737D01*
X41284820Y-97420707D01*
X41596424Y-97637277D01*
X41944159Y-97789199D01*
X42314780Y-97870685D01*
X42694170Y-97878632D01*
X43067878Y-97812738D01*
X43421670Y-97675511D01*
X43742069Y-97472179D01*
X44016873Y-97210487D01*
X44235614Y-96900402D01*
X44389959Y-96553736D01*
X44474031Y-96183693D01*
X44480083Y-95750263D01*
X44406377Y-95378017D01*
X44261771Y-95027177D01*
X44051773Y-94711106D01*
X43784384Y-94441843D01*
X43469786Y-94229644D01*
X43119964Y-94082592D01*
X42748241Y-94006288D01*
X42368777Y-94003639D01*
X41996026Y-94074745D01*
X41644184Y-94216899D01*
X41326655Y-94424684D01*
X41055532Y-94690188D01*
X40841142Y-95003296D01*
X40691651Y-95352083D01*
X40612754Y-95723264D01*
X40607456Y-96102700D01*
X31482278Y-96102700D01*
X31503948Y-95896526D01*
X31474744Y-95575633D01*
X31383769Y-95266525D01*
X31234486Y-94980973D01*
X31032582Y-94729856D01*
X30785749Y-94522738D01*
X30503386Y-94367508D01*
X30196250Y-94270078D01*
X29876040Y-94234161D01*
X29852988Y-94234000D01*
X29837012Y-94234000D01*
X29516331Y-94265443D01*
X29207865Y-94358574D01*
X28923363Y-94509847D01*
X28673661Y-94713499D01*
X28468271Y-94961773D01*
X28315016Y-95245212D01*
X28219733Y-95553020D01*
X28186052Y-95873474D01*
X26170658Y-95873474D01*
X25781598Y-94516660D01*
X25535847Y-91590088D01*
X31497654Y-91590088D01*
X31560845Y-91934393D01*
X31689710Y-92259868D01*
X31879338Y-92554114D01*
X32122508Y-92805923D01*
X32409957Y-93005705D01*
X32730736Y-93145850D01*
X33072626Y-93221020D01*
X33422606Y-93228351D01*
X33767345Y-93167564D01*
X34093711Y-93040975D01*
X34389273Y-92853405D01*
X34642774Y-92611999D01*
X34844558Y-92325952D01*
X34986939Y-92006160D01*
X35064494Y-91664802D01*
X35065537Y-91590088D01*
X42327654Y-91590088D01*
X42390845Y-91934393D01*
X42519710Y-92259868D01*
X42709338Y-92554114D01*
X42952508Y-92805923D01*
X43239957Y-93005705D01*
X43560736Y-93145850D01*
X43902626Y-93221020D01*
X44252606Y-93228351D01*
X44597345Y-93167564D01*
X44923711Y-93040975D01*
X45219273Y-92853405D01*
X45472774Y-92611999D01*
X45674558Y-92325952D01*
X45816939Y-92006160D01*
X45894494Y-91664802D01*
X45900077Y-91264972D01*
X45832084Y-90921582D01*
X45698687Y-90597938D01*
X45504969Y-90306369D01*
X45258307Y-90057979D01*
X44968097Y-89862230D01*
X44645393Y-89726577D01*
X44302486Y-89656189D01*
X43952438Y-89653745D01*
X43608582Y-89719339D01*
X43284015Y-89850472D01*
X42991100Y-90042151D01*
X42740994Y-90287072D01*
X42543224Y-90575909D01*
X42405322Y-90897658D01*
X42332541Y-91240065D01*
X42327654Y-91590088D01*
X35065537Y-91590088D01*
X35070077Y-91264972D01*
X35002084Y-90921582D01*
X34868687Y-90597938D01*
X34674969Y-90306369D01*
X34428307Y-90057979D01*
X34138097Y-89862230D01*
X33815393Y-89726577D01*
X33472486Y-89656189D01*
X33122438Y-89653745D01*
X32778582Y-89719339D01*
X32454015Y-89850472D01*
X32161100Y-90042151D01*
X31910994Y-90287072D01*
X31713224Y-90575909D01*
X31575322Y-90897658D01*
X31502541Y-91240065D01*
X31497654Y-91590088D01*
X25535847Y-91590088D01*
X25503261Y-91202037D01*
X25874039Y-87896478D01*
X26163660Y-86983474D01*
X28186052Y-86983474D01*
X28215256Y-87304367D01*
X28306231Y-87613475D01*
X28455514Y-87899027D01*
X28657418Y-88150144D01*
X28904251Y-88357262D01*
X29186614Y-88512492D01*
X29493750Y-88609922D01*
X29813960Y-88645839D01*
X29837012Y-88646000D01*
X29852988Y-88646000D01*
X30173669Y-88614557D01*
X30482135Y-88521426D01*
X30766637Y-88370153D01*
X31016339Y-88166501D01*
X31221729Y-87918227D01*
X31374984Y-87634788D01*
X31470267Y-87326980D01*
X31493839Y-87102700D01*
X40607456Y-87102700D01*
X40675958Y-87475939D01*
X40815652Y-87828764D01*
X41021215Y-88147737D01*
X41284820Y-88420707D01*
X41596424Y-88637277D01*
X41944159Y-88789199D01*
X42314780Y-88870685D01*
X42694170Y-88878632D01*
X43067878Y-88812738D01*
X43421670Y-88675511D01*
X43742069Y-88472179D01*
X44016873Y-88210487D01*
X44235614Y-87900402D01*
X44389959Y-87553736D01*
X44474031Y-87183693D01*
X44480083Y-86750263D01*
X44406377Y-86378017D01*
X44261771Y-86027177D01*
X44051773Y-85711106D01*
X43784384Y-85441843D01*
X43469786Y-85229644D01*
X43119964Y-85082592D01*
X42748241Y-85006288D01*
X42368777Y-85003639D01*
X41996026Y-85074745D01*
X41644184Y-85216899D01*
X41326655Y-85424684D01*
X41055532Y-85690188D01*
X40841142Y-86003296D01*
X40691651Y-86352083D01*
X40612754Y-86723264D01*
X40607456Y-87102700D01*
X31493839Y-87102700D01*
X31503948Y-87006526D01*
X31474744Y-86685633D01*
X31383769Y-86376525D01*
X31234486Y-86090973D01*
X31178483Y-86021320D01*
X31215494Y-86001537D01*
X31312185Y-85922185D01*
X31391537Y-85825494D01*
X31450502Y-85715180D01*
X31486812Y-85595482D01*
X31499072Y-85471000D01*
X31499072Y-83439000D01*
X31486812Y-83314518D01*
X31450502Y-83194820D01*
X31391537Y-83084506D01*
X31312185Y-82987815D01*
X31215494Y-82908463D01*
X31105180Y-82849498D01*
X30985482Y-82813188D01*
X30861000Y-82800928D01*
X28829000Y-82800928D01*
X28704518Y-82813188D01*
X28584820Y-82849498D01*
X28474506Y-82908463D01*
X28377815Y-82987815D01*
X28298463Y-83084506D01*
X28239498Y-83194820D01*
X28203188Y-83314518D01*
X28190928Y-83439000D01*
X28190928Y-85471000D01*
X28203188Y-85595482D01*
X28239498Y-85715180D01*
X28298463Y-85825494D01*
X28377815Y-85922185D01*
X28474506Y-86001537D01*
X28510472Y-86020761D01*
X28468271Y-86071773D01*
X28315016Y-86355212D01*
X28219733Y-86663020D01*
X28186052Y-86983474D01*
X26163660Y-86983474D01*
X26879809Y-84725890D01*
X28196912Y-82330088D01*
X40757654Y-82330088D01*
X40820845Y-82674393D01*
X40949710Y-82999868D01*
X41139338Y-83294114D01*
X41382508Y-83545923D01*
X41669957Y-83745705D01*
X41990736Y-83885850D01*
X42332626Y-83961020D01*
X42682606Y-83968351D01*
X43027345Y-83907564D01*
X43353711Y-83780975D01*
X43649273Y-83593405D01*
X43902774Y-83351999D01*
X44104558Y-83065952D01*
X44246939Y-82746160D01*
X44324494Y-82404802D01*
X44330077Y-82004972D01*
X44262084Y-81661582D01*
X44128687Y-81337938D01*
X43934969Y-81046369D01*
X43688307Y-80797979D01*
X43398097Y-80602230D01*
X43075393Y-80466577D01*
X42732486Y-80396189D01*
X42382438Y-80393745D01*
X42038582Y-80459339D01*
X41714015Y-80590472D01*
X41421100Y-80782151D01*
X41170994Y-81027072D01*
X40973224Y-81315909D01*
X40835322Y-81637658D01*
X40762541Y-81980065D01*
X40757654Y-82330088D01*
X28196912Y-82330088D01*
X28482261Y-81811041D01*
X30620358Y-79262956D01*
X30915382Y-79025750D01*
X39624000Y-79025750D01*
X39624000Y-79818542D01*
X39648403Y-79941223D01*
X39696270Y-80056785D01*
X39765763Y-80160789D01*
X39854211Y-80249237D01*
X39958215Y-80318730D01*
X40073777Y-80366597D01*
X40196458Y-80391000D01*
X40989250Y-80391000D01*
X41148000Y-80232250D01*
X41148000Y-78867000D01*
X39782750Y-78867000D01*
X39624000Y-79025750D01*
X30915382Y-79025750D01*
X32612219Y-77661458D01*
X39624000Y-77661458D01*
X39624000Y-78454250D01*
X39782750Y-78613000D01*
X41148000Y-78613000D01*
X41148000Y-77247750D01*
X41402000Y-77247750D01*
X41402000Y-78613000D01*
X41422000Y-78613000D01*
X41422000Y-78867000D01*
X41402000Y-78867000D01*
X41402000Y-80232250D01*
X41560750Y-80391000D01*
X42353542Y-80391000D01*
X42476223Y-80366597D01*
X42591785Y-80318730D01*
X42695789Y-80249237D01*
X42784237Y-80160789D01*
X42841478Y-80075121D01*
X42891773Y-80116729D01*
X43175212Y-80269984D01*
X43483020Y-80365267D01*
X43803474Y-80398948D01*
X44124367Y-80369744D01*
X44433475Y-80278769D01*
X44719027Y-80129486D01*
X44970144Y-79927582D01*
X45177262Y-79680749D01*
X45332492Y-79398386D01*
X45429922Y-79091250D01*
X45465839Y-78771040D01*
X45466000Y-78747988D01*
X45466000Y-78732012D01*
X45434557Y-78411331D01*
X45341426Y-78102865D01*
X45190153Y-77818363D01*
X44986501Y-77568661D01*
X44738227Y-77363271D01*
X44454788Y-77210016D01*
X44146980Y-77114733D01*
X43826526Y-77081052D01*
X43505633Y-77110256D01*
X43196525Y-77201231D01*
X42910973Y-77350514D01*
X42842135Y-77405862D01*
X42784237Y-77319211D01*
X42695789Y-77230763D01*
X42591785Y-77161270D01*
X42476223Y-77113403D01*
X42353542Y-77089000D01*
X41560750Y-77089000D01*
X41402000Y-77247750D01*
X41148000Y-77247750D01*
X40989250Y-77089000D01*
X40196458Y-77089000D01*
X40073777Y-77113403D01*
X39958215Y-77161270D01*
X39854211Y-77230763D01*
X39765763Y-77319211D01*
X39696270Y-77423215D01*
X39648403Y-77538777D01*
X39624000Y-77661458D01*
X32612219Y-77661458D01*
X33212661Y-77178691D01*
X36160430Y-75637635D01*
X39351385Y-74698485D01*
X42663984Y-74397015D01*
X45972051Y-74744707D01*
X45972051Y-74744707D01*
G37*
X45972051Y-74744707D02*
X49149583Y-75728318D01*
X52075548Y-77310381D01*
X54638498Y-79430637D01*
X56740810Y-82008326D01*
X58302408Y-84945265D01*
X59263811Y-88129586D01*
X59588400Y-91440000D01*
X59581755Y-91915880D01*
X59164861Y-95215940D01*
X58114921Y-98372175D01*
X56471927Y-101264367D01*
X54298462Y-103782351D01*
X51677310Y-105830219D01*
X48708312Y-107329967D01*
X45504555Y-108224472D01*
X42188070Y-108479662D01*
X38885180Y-108085816D01*
X35721691Y-107057937D01*
X32818100Y-105435174D01*
X30285004Y-103279340D01*
X30161883Y-103124000D01*
X39620928Y-103124000D01*
X39620928Y-105156000D01*
X39633188Y-105280482D01*
X39669498Y-105400180D01*
X39728463Y-105510494D01*
X39807815Y-105607185D01*
X39904506Y-105686537D01*
X40014820Y-105745502D01*
X40134518Y-105781812D01*
X40259000Y-105794072D01*
X42291000Y-105794072D01*
X42415482Y-105781812D01*
X42535180Y-105745502D01*
X42645494Y-105686537D01*
X42742185Y-105607185D01*
X42821537Y-105510494D01*
X42840761Y-105474528D01*
X42891773Y-105516729D01*
X43175212Y-105669984D01*
X43483020Y-105765267D01*
X43803474Y-105798948D01*
X44124367Y-105769744D01*
X44433475Y-105678769D01*
X44719027Y-105529486D01*
X44970144Y-105327582D01*
X45177262Y-105080749D01*
X45332492Y-104798386D01*
X45429922Y-104491250D01*
X45465839Y-104171040D01*
X45466000Y-104147988D01*
X45466000Y-104132012D01*
X45434557Y-103811331D01*
X45341426Y-103502865D01*
X45190153Y-103218363D01*
X44986501Y-102968661D01*
X44738227Y-102763271D01*
X44454788Y-102610016D01*
X44146980Y-102514733D01*
X43826526Y-102481052D01*
X43505633Y-102510256D01*
X43196525Y-102601231D01*
X42910973Y-102750514D01*
X42841320Y-102806517D01*
X42821537Y-102769506D01*
X42742185Y-102672815D01*
X42645494Y-102593463D01*
X42535180Y-102534498D01*
X42415482Y-102498188D01*
X42291000Y-102485928D01*
X40259000Y-102485928D01*
X40134518Y-102498188D01*
X40014820Y-102534498D01*
X39904506Y-102593463D01*
X39807815Y-102672815D01*
X39728463Y-102769506D01*
X39669498Y-102879820D01*
X39633188Y-102999518D01*
X39620928Y-103124000D01*
X30161883Y-103124000D01*
X28359602Y-100850088D01*
X40757654Y-100850088D01*
X40820845Y-101194393D01*
X40949710Y-101519868D01*
X41139338Y-101814114D01*
X41382508Y-102065923D01*
X41669957Y-102265705D01*
X41990736Y-102405850D01*
X42332626Y-102481020D01*
X42682606Y-102488351D01*
X43027345Y-102427564D01*
X43353711Y-102300975D01*
X43649273Y-102113405D01*
X43902774Y-101871999D01*
X44104558Y-101585952D01*
X44246939Y-101266160D01*
X44324494Y-100924802D01*
X44330077Y-100524972D01*
X44262084Y-100181582D01*
X44128687Y-99857938D01*
X43934969Y-99566369D01*
X43688307Y-99317979D01*
X43398097Y-99122230D01*
X43075393Y-98986577D01*
X42732486Y-98916189D01*
X42382438Y-98913745D01*
X42038582Y-98979339D01*
X41714015Y-99110472D01*
X41421100Y-99302151D01*
X41170994Y-99547072D01*
X40973224Y-99835909D01*
X40835322Y-100157658D01*
X40762541Y-100500065D01*
X40757654Y-100850088D01*
X28359602Y-100850088D01*
X28218887Y-100672550D01*
X26698447Y-97714094D01*
X26170658Y-95873474D01*
X28186052Y-95873474D01*
X28215256Y-96194367D01*
X28306231Y-96503475D01*
X28455514Y-96789027D01*
X28511517Y-96858680D01*
X28474506Y-96878463D01*
X28377815Y-96957815D01*
X28298463Y-97054506D01*
X28239498Y-97164820D01*
X28203188Y-97284518D01*
X28190928Y-97409000D01*
X28190928Y-99441000D01*
X28203188Y-99565482D01*
X28239498Y-99685180D01*
X28298463Y-99795494D01*
X28377815Y-99892185D01*
X28474506Y-99971537D01*
X28584820Y-100030502D01*
X28704518Y-100066812D01*
X28829000Y-100079072D01*
X30861000Y-100079072D01*
X30985482Y-100066812D01*
X31105180Y-100030502D01*
X31215494Y-99971537D01*
X31312185Y-99892185D01*
X31391537Y-99795494D01*
X31450502Y-99685180D01*
X31486812Y-99565482D01*
X31499072Y-99441000D01*
X31499072Y-97409000D01*
X31486812Y-97284518D01*
X31450502Y-97164820D01*
X31391537Y-97054506D01*
X31312185Y-96957815D01*
X31215494Y-96878463D01*
X31179528Y-96859239D01*
X31221729Y-96808227D01*
X31374984Y-96524788D01*
X31470267Y-96216980D01*
X31482278Y-96102700D01*
X40607456Y-96102700D01*
X40675958Y-96475939D01*
X40815652Y-96828764D01*
X41021215Y-97147737D01*
X41284820Y-97420707D01*
X41596424Y-97637277D01*
X41944159Y-97789199D01*
X42314780Y-97870685D01*
X42694170Y-97878632D01*
X43067878Y-97812738D01*
X43421670Y-97675511D01*
X43742069Y-97472179D01*
X44016873Y-97210487D01*
X44235614Y-96900402D01*
X44389959Y-96553736D01*
X44474031Y-96183693D01*
X44480083Y-95750263D01*
X44406377Y-95378017D01*
X44261771Y-95027177D01*
X44051773Y-94711106D01*
X43784384Y-94441843D01*
X43469786Y-94229644D01*
X43119964Y-94082592D01*
X42748241Y-94006288D01*
X42368777Y-94003639D01*
X41996026Y-94074745D01*
X41644184Y-94216899D01*
X41326655Y-94424684D01*
X41055532Y-94690188D01*
X40841142Y-95003296D01*
X40691651Y-95352083D01*
X40612754Y-95723264D01*
X40607456Y-96102700D01*
X31482278Y-96102700D01*
X31503948Y-95896526D01*
X31474744Y-95575633D01*
X31383769Y-95266525D01*
X31234486Y-94980973D01*
X31032582Y-94729856D01*
X30785749Y-94522738D01*
X30503386Y-94367508D01*
X30196250Y-94270078D01*
X29876040Y-94234161D01*
X29852988Y-94234000D01*
X29837012Y-94234000D01*
X29516331Y-94265443D01*
X29207865Y-94358574D01*
X28923363Y-94509847D01*
X28673661Y-94713499D01*
X28468271Y-94961773D01*
X28315016Y-95245212D01*
X28219733Y-95553020D01*
X28186052Y-95873474D01*
X26170658Y-95873474D01*
X25781598Y-94516660D01*
X25535847Y-91590088D01*
X31497654Y-91590088D01*
X31560845Y-91934393D01*
X31689710Y-92259868D01*
X31879338Y-92554114D01*
X32122508Y-92805923D01*
X32409957Y-93005705D01*
X32730736Y-93145850D01*
X33072626Y-93221020D01*
X33422606Y-93228351D01*
X33767345Y-93167564D01*
X34093711Y-93040975D01*
X34389273Y-92853405D01*
X34642774Y-92611999D01*
X34844558Y-92325952D01*
X34986939Y-92006160D01*
X35064494Y-91664802D01*
X35065537Y-91590088D01*
X42327654Y-91590088D01*
X42390845Y-91934393D01*
X42519710Y-92259868D01*
X42709338Y-92554114D01*
X42952508Y-92805923D01*
X43239957Y-93005705D01*
X43560736Y-93145850D01*
X43902626Y-93221020D01*
X44252606Y-93228351D01*
X44597345Y-93167564D01*
X44923711Y-93040975D01*
X45219273Y-92853405D01*
X45472774Y-92611999D01*
X45674558Y-92325952D01*
X45816939Y-92006160D01*
X45894494Y-91664802D01*
X45900077Y-91264972D01*
X45832084Y-90921582D01*
X45698687Y-90597938D01*
X45504969Y-90306369D01*
X45258307Y-90057979D01*
X44968097Y-89862230D01*
X44645393Y-89726577D01*
X44302486Y-89656189D01*
X43952438Y-89653745D01*
X43608582Y-89719339D01*
X43284015Y-89850472D01*
X42991100Y-90042151D01*
X42740994Y-90287072D01*
X42543224Y-90575909D01*
X42405322Y-90897658D01*
X42332541Y-91240065D01*
X42327654Y-91590088D01*
X35065537Y-91590088D01*
X35070077Y-91264972D01*
X35002084Y-90921582D01*
X34868687Y-90597938D01*
X34674969Y-90306369D01*
X34428307Y-90057979D01*
X34138097Y-89862230D01*
X33815393Y-89726577D01*
X33472486Y-89656189D01*
X33122438Y-89653745D01*
X32778582Y-89719339D01*
X32454015Y-89850472D01*
X32161100Y-90042151D01*
X31910994Y-90287072D01*
X31713224Y-90575909D01*
X31575322Y-90897658D01*
X31502541Y-91240065D01*
X31497654Y-91590088D01*
X25535847Y-91590088D01*
X25503261Y-91202037D01*
X25874039Y-87896478D01*
X26163660Y-86983474D01*
X28186052Y-86983474D01*
X28215256Y-87304367D01*
X28306231Y-87613475D01*
X28455514Y-87899027D01*
X28657418Y-88150144D01*
X28904251Y-88357262D01*
X29186614Y-88512492D01*
X29493750Y-88609922D01*
X29813960Y-88645839D01*
X29837012Y-88646000D01*
X29852988Y-88646000D01*
X30173669Y-88614557D01*
X30482135Y-88521426D01*
X30766637Y-88370153D01*
X31016339Y-88166501D01*
X31221729Y-87918227D01*
X31374984Y-87634788D01*
X31470267Y-87326980D01*
X31493839Y-87102700D01*
X40607456Y-87102700D01*
X40675958Y-87475939D01*
X40815652Y-87828764D01*
X41021215Y-88147737D01*
X41284820Y-88420707D01*
X41596424Y-88637277D01*
X41944159Y-88789199D01*
X42314780Y-88870685D01*
X42694170Y-88878632D01*
X43067878Y-88812738D01*
X43421670Y-88675511D01*
X43742069Y-88472179D01*
X44016873Y-88210487D01*
X44235614Y-87900402D01*
X44389959Y-87553736D01*
X44474031Y-87183693D01*
X44480083Y-86750263D01*
X44406377Y-86378017D01*
X44261771Y-86027177D01*
X44051773Y-85711106D01*
X43784384Y-85441843D01*
X43469786Y-85229644D01*
X43119964Y-85082592D01*
X42748241Y-85006288D01*
X42368777Y-85003639D01*
X41996026Y-85074745D01*
X41644184Y-85216899D01*
X41326655Y-85424684D01*
X41055532Y-85690188D01*
X40841142Y-86003296D01*
X40691651Y-86352083D01*
X40612754Y-86723264D01*
X40607456Y-87102700D01*
X31493839Y-87102700D01*
X31503948Y-87006526D01*
X31474744Y-86685633D01*
X31383769Y-86376525D01*
X31234486Y-86090973D01*
X31178483Y-86021320D01*
X31215494Y-86001537D01*
X31312185Y-85922185D01*
X31391537Y-85825494D01*
X31450502Y-85715180D01*
X31486812Y-85595482D01*
X31499072Y-85471000D01*
X31499072Y-83439000D01*
X31486812Y-83314518D01*
X31450502Y-83194820D01*
X31391537Y-83084506D01*
X31312185Y-82987815D01*
X31215494Y-82908463D01*
X31105180Y-82849498D01*
X30985482Y-82813188D01*
X30861000Y-82800928D01*
X28829000Y-82800928D01*
X28704518Y-82813188D01*
X28584820Y-82849498D01*
X28474506Y-82908463D01*
X28377815Y-82987815D01*
X28298463Y-83084506D01*
X28239498Y-83194820D01*
X28203188Y-83314518D01*
X28190928Y-83439000D01*
X28190928Y-85471000D01*
X28203188Y-85595482D01*
X28239498Y-85715180D01*
X28298463Y-85825494D01*
X28377815Y-85922185D01*
X28474506Y-86001537D01*
X28510472Y-86020761D01*
X28468271Y-86071773D01*
X28315016Y-86355212D01*
X28219733Y-86663020D01*
X28186052Y-86983474D01*
X26163660Y-86983474D01*
X26879809Y-84725890D01*
X28196912Y-82330088D01*
X40757654Y-82330088D01*
X40820845Y-82674393D01*
X40949710Y-82999868D01*
X41139338Y-83294114D01*
X41382508Y-83545923D01*
X41669957Y-83745705D01*
X41990736Y-83885850D01*
X42332626Y-83961020D01*
X42682606Y-83968351D01*
X43027345Y-83907564D01*
X43353711Y-83780975D01*
X43649273Y-83593405D01*
X43902774Y-83351999D01*
X44104558Y-83065952D01*
X44246939Y-82746160D01*
X44324494Y-82404802D01*
X44330077Y-82004972D01*
X44262084Y-81661582D01*
X44128687Y-81337938D01*
X43934969Y-81046369D01*
X43688307Y-80797979D01*
X43398097Y-80602230D01*
X43075393Y-80466577D01*
X42732486Y-80396189D01*
X42382438Y-80393745D01*
X42038582Y-80459339D01*
X41714015Y-80590472D01*
X41421100Y-80782151D01*
X41170994Y-81027072D01*
X40973224Y-81315909D01*
X40835322Y-81637658D01*
X40762541Y-81980065D01*
X40757654Y-82330088D01*
X28196912Y-82330088D01*
X28482261Y-81811041D01*
X30620358Y-79262956D01*
X30915382Y-79025750D01*
X39624000Y-79025750D01*
X39624000Y-79818542D01*
X39648403Y-79941223D01*
X39696270Y-80056785D01*
X39765763Y-80160789D01*
X39854211Y-80249237D01*
X39958215Y-80318730D01*
X40073777Y-80366597D01*
X40196458Y-80391000D01*
X40989250Y-80391000D01*
X41148000Y-80232250D01*
X41148000Y-78867000D01*
X39782750Y-78867000D01*
X39624000Y-79025750D01*
X30915382Y-79025750D01*
X32612219Y-77661458D01*
X39624000Y-77661458D01*
X39624000Y-78454250D01*
X39782750Y-78613000D01*
X41148000Y-78613000D01*
X41148000Y-77247750D01*
X41402000Y-77247750D01*
X41402000Y-78613000D01*
X41422000Y-78613000D01*
X41422000Y-78867000D01*
X41402000Y-78867000D01*
X41402000Y-80232250D01*
X41560750Y-80391000D01*
X42353542Y-80391000D01*
X42476223Y-80366597D01*
X42591785Y-80318730D01*
X42695789Y-80249237D01*
X42784237Y-80160789D01*
X42841478Y-80075121D01*
X42891773Y-80116729D01*
X43175212Y-80269984D01*
X43483020Y-80365267D01*
X43803474Y-80398948D01*
X44124367Y-80369744D01*
X44433475Y-80278769D01*
X44719027Y-80129486D01*
X44970144Y-79927582D01*
X45177262Y-79680749D01*
X45332492Y-79398386D01*
X45429922Y-79091250D01*
X45465839Y-78771040D01*
X45466000Y-78747988D01*
X45466000Y-78732012D01*
X45434557Y-78411331D01*
X45341426Y-78102865D01*
X45190153Y-77818363D01*
X44986501Y-77568661D01*
X44738227Y-77363271D01*
X44454788Y-77210016D01*
X44146980Y-77114733D01*
X43826526Y-77081052D01*
X43505633Y-77110256D01*
X43196525Y-77201231D01*
X42910973Y-77350514D01*
X42842135Y-77405862D01*
X42784237Y-77319211D01*
X42695789Y-77230763D01*
X42591785Y-77161270D01*
X42476223Y-77113403D01*
X42353542Y-77089000D01*
X41560750Y-77089000D01*
X41402000Y-77247750D01*
X41148000Y-77247750D01*
X40989250Y-77089000D01*
X40196458Y-77089000D01*
X40073777Y-77113403D01*
X39958215Y-77161270D01*
X39854211Y-77230763D01*
X39765763Y-77319211D01*
X39696270Y-77423215D01*
X39648403Y-77538777D01*
X39624000Y-77661458D01*
X32612219Y-77661458D01*
X33212661Y-77178691D01*
X36160430Y-75637635D01*
X39351385Y-74698485D01*
X42663984Y-74397015D01*
X45972051Y-74744707D01*
M02*
