M48
INCH,TZ
T1C0.020
T2C0.040
T3C0.055
T4C0.063
T5C0.157
%
G90
G05
T1
X031250Y-051500
X033600Y-054600
X034400Y-049450
X036250Y-046500
X037850Y-054900
X039900Y-053200
X042100Y-050800
T2
X030500Y-047750
X031207Y-048457
X033293Y-044793
X034000Y-045500
X038293Y-044500
X038750Y-055500
X039000Y-045207
X039457Y-056207
X041293Y-053043
X042000Y-053750
T3
X030304Y-053551
X033672Y-047922
X033672Y-053078
X034830Y-044142
X036687Y-050937
X037670Y-056858
X038828Y-047922
X042196Y-047449
X042581Y-051781
T4
X034997Y-051753
X037503Y-049247
T5
X032074Y-046324
X032074Y-054676
X040426Y-046324
X040426Y-054676
T0
M30
