%TF.GenerationSoftware,KiCad,Pcbnew,4.1.0-alpha+201609021633+7109~49~ubuntu16.04.1-product*%
%TF.CreationDate,2016-09-14T14:39:46+05:30*%
%TF.ProjectId,OTS2_encC,4F5453325F656E63432E6B696361645F,rev?*%
%TF.FileFunction,Legend,Top*%
%FSLAX46Y46*%
G04 Gerber Fmt 4.6, Leading zero omitted, Abs format (unit mm)*
G04 Created by KiCad (PCBNEW 4.1.0-alpha+201609021633+7109~49~ubuntu16.04.1-product) date Wed Sep 14 14:39:46 2016*
%MOMM*%
%LPD*%
G01*
G04 APERTURE LIST*
%ADD10C,0.101600*%
%ADD11C,0.150000*%
%ADD12C,0.500000*%
%ADD13C,0.100000*%
%ADD14C,0.400000*%
%ADD15C,2.432000*%
%ADD16C,2.800000*%
%ADD17C,5.400000*%
%ADD18C,3.000000*%
G04 APERTURE END LIST*
D10*
D11*
X77469989Y-123081062D02*
X75673938Y-121285011D01*
X79266040Y-125273093D02*
X78170024Y-124177078D01*
X77469989Y-123081062D02*
X79266040Y-121285011D01*
X80362056Y-121985046D02*
X81458071Y-123081062D01*
X81458071Y-123081062D02*
X79266040Y-125273093D01*
X79266040Y-121285011D02*
X77469989Y-119488960D01*
X77469989Y-119488960D02*
X75673938Y-121285011D01*
D12*
X90660786Y-140997922D02*
X93489214Y-140997922D01*
X93489214Y-140997922D02*
X92075000Y-142412136D01*
X92075000Y-142412136D02*
X90660786Y-140997922D01*
X104802922Y-129684214D02*
X104802922Y-126855786D01*
X104802922Y-126855786D02*
X106217136Y-128270000D01*
X106217136Y-128270000D02*
X104802922Y-129684214D01*
X90660786Y-115542078D02*
X93489214Y-115542078D01*
X93489214Y-115542078D02*
X92075000Y-114127864D01*
X92075000Y-114127864D02*
X90660786Y-115542078D01*
X79347078Y-129684214D02*
X77932864Y-128270000D01*
X77932864Y-128270000D02*
X79347078Y-126855786D01*
X79347078Y-129684214D02*
X79347078Y-126855786D01*
D11*
X96671194Y-123673806D02*
X97555078Y-123497029D01*
X96847971Y-122789922D02*
X96671194Y-123673806D01*
X97878301Y-122966699D02*
G75*
G03X97878301Y-122966699I-500000J0D01*
G01*
D13*
X107575000Y-128270000D02*
G75*
G03X107575000Y-128270000I-15500000J0D01*
G01*
X103075001Y-128270000D02*
G75*
G03X103075001Y-128270000I-11000001J0D01*
G01*
D14*
X108074999Y-128270000D02*
G75*
G03X108074999Y-128270000I-15999999J0D01*
G01*
D11*
X109325000Y-128270000D02*
G75*
G03X109325000Y-128270000I-17250000J0D01*
G01*
D14*
X103575000Y-128270000D02*
G75*
G03X103575000Y-128270000I-11500000J0D01*
G01*
D12*
X96325000Y-128270000D02*
G75*
G03X96325000Y-128270000I-4250000J0D01*
G01*
D11*
X95744636Y-121472691D02*
G75*
G03X95744636Y-121472691I-499999J0D01*
G01*
X93228668Y-120798540D02*
G75*
G03X93228668Y-120798540I-500000J0D01*
G01*
X90633857Y-121025556D02*
G75*
G03X90633857Y-121025556I-500000J0D01*
G01*
X88273177Y-122126360D02*
G75*
G03X88273177Y-122126360I-500000J0D01*
G01*
X86431360Y-123968177D02*
G75*
G03X86431360Y-123968177I-500000J0D01*
G01*
X85330556Y-126328857D02*
G75*
G03X85330556Y-126328857I-500000J0D01*
G01*
X85103540Y-128923668D02*
G75*
G03X85103540Y-128923668I-500000J0D01*
G01*
X85777691Y-131439637D02*
G75*
G03X85777691Y-131439637I-500000J0D01*
G01*
X87271699Y-133573301D02*
G75*
G03X87271699Y-133573301I-500000J0D01*
G01*
X89405362Y-135067309D02*
G75*
G03X89405362Y-135067309I-499999J0D01*
G01*
X91921332Y-135741460D02*
G75*
G03X91921332Y-135741460I-500000J0D01*
G01*
X94516143Y-135514444D02*
G75*
G03X94516143Y-135514444I-500000J0D01*
G01*
X96876823Y-134413640D02*
G75*
G03X96876823Y-134413640I-500000J0D01*
G01*
X98718640Y-132571823D02*
G75*
G03X98718640Y-132571823I-500000J0D01*
G01*
X99819444Y-130211143D02*
G75*
G03X99819444Y-130211143I-500000J0D01*
G01*
X100046460Y-127616332D02*
G75*
G03X100046460Y-127616332I-500000J0D01*
G01*
X99372309Y-125100363D02*
G75*
G03X99372309Y-125100363I-500000J0D01*
G01*
X94822019Y-122378999D02*
X95592136Y-121910577D01*
X92641513Y-121794735D02*
X93204976Y-121091166D01*
X90392676Y-121991482D02*
X90681525Y-121137628D01*
X88346753Y-122945512D02*
X88326147Y-122044360D01*
X86750512Y-124541753D02*
X86422936Y-123701995D01*
X85796482Y-126587676D02*
X85201448Y-125910599D01*
X85599735Y-128836513D02*
X84809011Y-128403782D01*
X86183999Y-131017019D02*
X85292960Y-130880828D01*
X87478806Y-132866194D02*
X86594922Y-133042971D01*
X89327981Y-134161001D02*
X88557864Y-134629423D01*
X91508487Y-134745265D02*
X90945024Y-135448834D01*
X93757324Y-134548518D02*
X93468475Y-135402372D01*
X95803247Y-133594488D02*
X95823853Y-134495640D01*
X97399488Y-131998247D02*
X97727064Y-132838005D01*
X98353518Y-129952324D02*
X98948552Y-130629401D01*
X98550265Y-127703487D02*
X99340989Y-128136218D01*
X97966001Y-125522981D02*
X98857040Y-125659172D01*
X94685828Y-121487960D02*
X94822019Y-122378999D01*
X92208782Y-121004011D02*
X92641513Y-121794735D01*
X89715599Y-121396448D02*
X90392676Y-121991482D01*
X87506995Y-122617936D02*
X88346753Y-122945512D01*
X85849360Y-124521147D02*
X86750512Y-124541753D01*
X84942628Y-126876525D02*
X85796482Y-126587676D01*
X84896166Y-129399976D02*
X85599735Y-128836513D01*
X85715577Y-131787136D02*
X86183999Y-131017019D01*
X87302029Y-133750078D02*
X87478806Y-132866194D01*
X89464172Y-135052040D02*
X89327981Y-134161001D01*
X91941218Y-135535989D02*
X91508487Y-134745265D01*
X94434401Y-135143552D02*
X93757324Y-134548518D01*
X96643005Y-133922064D02*
X95803247Y-133594488D01*
X98300640Y-132018853D02*
X97399488Y-131998247D01*
X99207372Y-129663475D02*
X98353518Y-129952324D01*
X99253834Y-127140024D02*
X98550265Y-127703487D01*
X98434423Y-124752864D02*
X97966001Y-125522981D01*
X100221051Y-140970000D02*
X102017102Y-142766051D01*
X98425000Y-138777969D02*
X99521016Y-139873984D01*
X100221051Y-140970000D02*
X98425000Y-142766051D01*
X97328984Y-142066016D02*
X96232969Y-140970000D01*
X96232969Y-140970000D02*
X98425000Y-138777969D01*
X98425000Y-142766051D02*
X100221051Y-144562102D01*
X100221051Y-144562102D02*
X102017102Y-142766051D01*
X84563949Y-115570000D02*
X82767898Y-113773949D01*
X86360000Y-117762031D02*
X85263984Y-116666016D01*
X84563949Y-115570000D02*
X86360000Y-113773949D01*
X87456016Y-114473984D02*
X88552031Y-115570000D01*
X88552031Y-115570000D02*
X86360000Y-117762031D01*
X86360000Y-113773949D02*
X84563949Y-111977898D01*
X84563949Y-111977898D02*
X82767898Y-113773949D01*
X106680000Y-134728949D02*
X108476051Y-136525000D01*
X104883949Y-132536918D02*
X105979965Y-133632933D01*
X106680000Y-134728949D02*
X104883949Y-136525000D01*
X103787933Y-135824965D02*
X102691918Y-134728949D01*
X102691918Y-134728949D02*
X104883949Y-132536918D01*
X104883949Y-136525000D02*
X106680000Y-138321051D01*
X106680000Y-138321051D02*
X108476051Y-136525000D01*
X99060000Y-113030000D02*
X100856051Y-114826051D01*
X97263949Y-110837969D02*
X98359965Y-111933984D01*
X99060000Y-113030000D02*
X97263949Y-114826051D01*
X96167933Y-114126016D02*
X95071918Y-113030000D01*
X95071918Y-113030000D02*
X97263949Y-110837969D01*
X97263949Y-114826051D02*
X99060000Y-116622102D01*
X99060000Y-116622102D02*
X100856051Y-114826051D01*
X77835625Y-127206793D02*
X77801954Y-127307809D01*
X77667267Y-127442496D01*
X77566251Y-127476167D01*
X77465236Y-127442496D01*
X77195862Y-127173122D01*
X77162190Y-127072106D01*
X77195862Y-126971091D01*
X77330549Y-126836404D01*
X77431564Y-126802732D01*
X77532580Y-126836404D01*
X77599923Y-126903748D01*
X77330549Y-127307809D01*
X78206015Y-126903748D02*
X77498908Y-126196641D01*
X77768282Y-125927267D01*
X77869297Y-125893595D01*
X77936641Y-125893595D01*
X78037656Y-125927267D01*
X78138671Y-126028282D01*
X78172343Y-126129297D01*
X78172343Y-126196641D01*
X78138671Y-126297656D01*
X77869297Y-126567030D01*
X78138671Y-125556877D02*
X78576404Y-125119145D01*
X78610076Y-125624221D01*
X78711091Y-125523206D01*
X78812106Y-125489534D01*
X78879450Y-125489534D01*
X78980465Y-125523206D01*
X79148824Y-125691564D01*
X79182496Y-125792580D01*
X79182496Y-125859923D01*
X79148824Y-125960938D01*
X78946793Y-126162969D01*
X78845778Y-126196641D01*
X78778435Y-126196641D01*
X90066904Y-129309761D02*
X89971666Y-129357380D01*
X89781190Y-129357380D01*
X89685952Y-129309761D01*
X89638333Y-129214523D01*
X89638333Y-128833571D01*
X89685952Y-128738333D01*
X89781190Y-128690714D01*
X89971666Y-128690714D01*
X90066904Y-128738333D01*
X90114523Y-128833571D01*
X90114523Y-128928809D01*
X89638333Y-129024047D01*
X90543095Y-128833571D02*
X90876428Y-128833571D01*
X91019285Y-129357380D02*
X90543095Y-129357380D01*
X90543095Y-128357380D01*
X91019285Y-128357380D01*
X91971666Y-129357380D02*
X91400238Y-129357380D01*
X91685952Y-129357380D02*
X91685952Y-128357380D01*
X91590714Y-128500238D01*
X91495476Y-128595476D01*
X91400238Y-128643095D01*
X94980625Y-143081794D02*
X94946954Y-143182810D01*
X94812267Y-143317497D01*
X94711251Y-143351168D01*
X94610236Y-143317497D01*
X94340862Y-143048123D01*
X94307190Y-142947107D01*
X94340862Y-142846092D01*
X94475549Y-142711405D01*
X94576564Y-142677733D01*
X94677580Y-142711405D01*
X94744923Y-142778749D01*
X94475549Y-143182810D01*
X95351015Y-142778749D02*
X94643908Y-142071642D01*
X94913282Y-141802268D01*
X95014297Y-141768596D01*
X95081641Y-141768596D01*
X95182656Y-141802268D01*
X95283671Y-141903283D01*
X95317343Y-142004298D01*
X95317343Y-142071642D01*
X95283671Y-142172657D01*
X95014297Y-142442031D01*
X95384687Y-141465550D02*
X95384687Y-141398207D01*
X95418358Y-141297191D01*
X95586717Y-141128833D01*
X95687732Y-141095161D01*
X95755076Y-141095161D01*
X95856091Y-141128833D01*
X95923435Y-141196176D01*
X95990778Y-141330863D01*
X95990778Y-142138985D01*
X96428511Y-141701252D01*
X89265625Y-115141792D02*
X89231954Y-115242808D01*
X89097267Y-115377495D01*
X88996251Y-115411166D01*
X88895236Y-115377495D01*
X88625862Y-115108121D01*
X88592190Y-115007105D01*
X88625862Y-114906090D01*
X88760549Y-114771403D01*
X88861564Y-114737731D01*
X88962580Y-114771403D01*
X89029923Y-114838747D01*
X88760549Y-115242808D01*
X89636015Y-114838747D02*
X88928908Y-114131640D01*
X89198282Y-113862266D01*
X89299297Y-113828594D01*
X89366641Y-113828594D01*
X89467656Y-113862266D01*
X89568671Y-113963281D01*
X89602343Y-114064296D01*
X89602343Y-114131640D01*
X89568671Y-114232655D01*
X89299297Y-114502029D01*
X90174763Y-113357189D02*
X90646167Y-113828594D01*
X89737030Y-113256174D02*
X90073748Y-113929609D01*
X90511480Y-113491876D01*
X105140625Y-131964497D02*
X105106954Y-132065513D01*
X104972267Y-132200200D01*
X104871251Y-132233871D01*
X104770236Y-132200200D01*
X104500862Y-131930826D01*
X104467190Y-131829810D01*
X104500862Y-131728795D01*
X104635549Y-131594108D01*
X104736564Y-131560436D01*
X104837580Y-131594108D01*
X104904923Y-131661452D01*
X104635549Y-132065513D01*
X105511015Y-131661452D02*
X104803908Y-130954345D01*
X105073282Y-130684971D01*
X105174297Y-130651299D01*
X105241641Y-130651299D01*
X105342656Y-130684971D01*
X105443671Y-130785986D01*
X105477343Y-130887001D01*
X105477343Y-130954345D01*
X105443671Y-131055360D01*
X105174297Y-131324734D01*
X106588511Y-130583955D02*
X106184450Y-130988016D01*
X106386480Y-130785986D02*
X105679374Y-130078879D01*
X105713045Y-130247238D01*
X105713045Y-130381925D01*
X105679374Y-130482940D01*
X97818908Y-119288510D02*
X97785236Y-119389525D01*
X97650549Y-119524212D01*
X97549534Y-119557884D01*
X97448519Y-119524212D01*
X97179145Y-119254838D01*
X97145473Y-119153823D01*
X97179145Y-119052808D01*
X97313832Y-118918121D01*
X97414847Y-118884449D01*
X97515862Y-118918121D01*
X97583206Y-118985464D01*
X97313832Y-119389525D01*
X98189297Y-118985464D02*
X97482190Y-118278357D01*
X97751564Y-118008983D01*
X97852580Y-117975311D01*
X97919923Y-117975311D01*
X98020938Y-118008983D01*
X98121954Y-118109999D01*
X98155625Y-118211014D01*
X98155625Y-118278357D01*
X98121954Y-118379373D01*
X97852580Y-118648747D01*
X99266793Y-117907968D02*
X98862732Y-118312029D01*
X99064763Y-118109999D02*
X98357656Y-117402892D01*
X98391328Y-117571250D01*
X98391328Y-117705937D01*
X98357656Y-117806953D01*
X98795389Y-116965159D02*
X99233122Y-116527426D01*
X99266793Y-117032502D01*
X99367809Y-116931487D01*
X99468824Y-116897815D01*
X99536167Y-116897815D01*
X99637183Y-116931487D01*
X99805541Y-117099846D01*
X99839213Y-117200861D01*
X99839213Y-117268205D01*
X99805541Y-117369220D01*
X99603511Y-117571250D01*
X99502496Y-117604922D01*
X99435152Y-117604922D01*
%LPC*%
D10*
G36*
X79266040Y-121361378D02*
X80985724Y-123081062D01*
X79266040Y-124800746D01*
X77546356Y-123081062D01*
X79266040Y-121361378D01*
X79266040Y-121361378D01*
G37*
D15*
X77469989Y-121285011D02*
X77469989Y-121285011D01*
D16*
X93185158Y-129380158D03*
D17*
X81468398Y-117663398D03*
D16*
X85527191Y-134817809D03*
D17*
X102681602Y-138876602D03*
D16*
X98622809Y-121722191D03*
D17*
X81468398Y-138876602D03*
X102681602Y-117663398D03*
D18*
X88893019Y-131451981D03*
X95256981Y-125088019D03*
D16*
X76971199Y-136019890D03*
X85527191Y-121722191D03*
X88468755Y-112119681D03*
X95681245Y-144420319D03*
X108154608Y-131522691D03*
X107178801Y-120520110D03*
D10*
G36*
X98425000Y-142689684D02*
X96705316Y-140970000D01*
X98425000Y-139250316D01*
X100144684Y-140970000D01*
X98425000Y-142689684D01*
X98425000Y-142689684D01*
G37*
D15*
X100221051Y-142766051D02*
X100221051Y-142766051D01*
D10*
G36*
X86360000Y-113850316D02*
X88079684Y-115570000D01*
X86360000Y-117289684D01*
X84640316Y-115570000D01*
X86360000Y-113850316D01*
X86360000Y-113850316D01*
G37*
D15*
X84563949Y-113773949D02*
X84563949Y-113773949D01*
D10*
G36*
X104883949Y-136448633D02*
X103164265Y-134728949D01*
X104883949Y-133009265D01*
X106603633Y-134728949D01*
X104883949Y-136448633D01*
X104883949Y-136448633D01*
G37*
D15*
X106680000Y-136525000D02*
X106680000Y-136525000D01*
D10*
G36*
X97263949Y-114749684D02*
X95544265Y-113030000D01*
X97263949Y-111310316D01*
X98983633Y-113030000D01*
X97263949Y-114749684D01*
X97263949Y-114749684D01*
G37*
D15*
X99060000Y-114826051D02*
X99060000Y-114826051D01*
M02*
