%TF.GenerationSoftware,KiCad,Pcbnew,4.1.0-alpha+201609021633+7109~49~ubuntu16.04.1-product*%
%TF.CreationDate,2016-09-14T14:39:46+05:30*%
%TF.ProjectId,OTS2_encC,4F5453325F656E63432E6B696361645F,rev?*%
%TF.FileFunction,Soldermask,Bot*%
%FSLAX46Y46*%
G04 Gerber Fmt 4.6, Leading zero omitted, Abs format (unit mm)*
G04 Created by KiCad (PCBNEW 4.1.0-alpha+201609021633+7109~49~ubuntu16.04.1-product) date Wed Sep 14 14:39:46 2016*
%MOMM*%
%LPD*%
G01*
G04 APERTURE LIST*
%ADD10C,0.101600*%
%ADD11C,2.432000*%
%ADD12C,2.800000*%
%ADD13C,5.400000*%
%ADD14C,3.000000*%
G04 APERTURE END LIST*
D10*
G36*
X102756953Y-122587563D02*
X104807563Y-120536953D01*
X106504619Y-122234009D01*
X104454009Y-124284619D01*
X102756953Y-122587563D01*
X102756953Y-122587563D01*
G37*
G36*
X105585381Y-125415991D02*
X107635991Y-123365381D01*
X109333047Y-125062437D01*
X107282437Y-127113047D01*
X105585381Y-125415991D01*
X105585381Y-125415991D01*
G37*
G36*
X97676953Y-127667563D02*
X99727563Y-125616953D01*
X101424619Y-127314009D01*
X99374009Y-129364619D01*
X97676953Y-127667563D01*
X97676953Y-127667563D01*
G37*
G36*
X100505381Y-130495991D02*
X102555991Y-128445381D01*
X104253047Y-130142437D01*
X102202437Y-132193047D01*
X100505381Y-130495991D01*
X100505381Y-130495991D01*
G37*
G36*
X106793047Y-127602437D02*
X104742437Y-129653047D01*
X103045381Y-127955991D01*
X105095991Y-125905381D01*
X106793047Y-127602437D01*
X106793047Y-127602437D01*
G37*
G36*
X103964619Y-124774009D02*
X101914009Y-126824619D01*
X100216953Y-125127563D01*
X102267563Y-123076953D01*
X103964619Y-124774009D01*
X103964619Y-124774009D01*
G37*
G36*
X101713047Y-132682437D02*
X99662437Y-134733047D01*
X97965381Y-133035991D01*
X100015991Y-130985381D01*
X101713047Y-132682437D01*
X101713047Y-132682437D01*
G37*
G36*
X98884619Y-129854009D02*
X96834009Y-131904619D01*
X95136953Y-130207563D01*
X97187563Y-128156953D01*
X98884619Y-129854009D01*
X98884619Y-129854009D01*
G37*
G36*
X92596953Y-132747563D02*
X94647563Y-130696953D01*
X96344619Y-132394009D01*
X94294009Y-134444619D01*
X92596953Y-132747563D01*
X92596953Y-132747563D01*
G37*
G36*
X95425381Y-135575991D02*
X97475991Y-133525381D01*
X99173047Y-135222437D01*
X97122437Y-137273047D01*
X95425381Y-135575991D01*
X95425381Y-135575991D01*
G37*
G36*
X96633047Y-137762437D02*
X94582437Y-139813047D01*
X92885381Y-138115991D01*
X94935991Y-136065381D01*
X96633047Y-137762437D01*
X96633047Y-137762437D01*
G37*
G36*
X93804619Y-134934009D02*
X91754009Y-136984619D01*
X90056953Y-135287563D01*
X92107563Y-133236953D01*
X93804619Y-134934009D01*
X93804619Y-134934009D01*
G37*
G36*
X94093047Y-140302437D02*
X92042437Y-142353047D01*
X90345381Y-140655991D01*
X92395991Y-138605381D01*
X94093047Y-140302437D01*
X94093047Y-140302437D01*
G37*
G36*
X91264619Y-137474009D02*
X89214009Y-139524619D01*
X87516953Y-137827563D01*
X89567563Y-135776953D01*
X91264619Y-137474009D01*
X91264619Y-137474009D01*
G37*
G36*
X87743047Y-126967437D02*
X85692437Y-129018047D01*
X83995381Y-127320991D01*
X86045991Y-125270381D01*
X87743047Y-126967437D01*
X87743047Y-126967437D01*
G37*
G36*
X84914619Y-124139009D02*
X82864009Y-126189619D01*
X81166953Y-124492563D01*
X83217563Y-122441953D01*
X84914619Y-124139009D01*
X84914619Y-124139009D01*
G37*
G36*
X76086953Y-129572563D02*
X78137563Y-127521953D01*
X79834619Y-129219009D01*
X77784009Y-131269619D01*
X76086953Y-129572563D01*
X76086953Y-129572563D01*
G37*
G36*
X78915381Y-132400991D02*
X80965991Y-130350381D01*
X82663047Y-132047437D01*
X80612437Y-134098047D01*
X78915381Y-132400991D01*
X78915381Y-132400991D01*
G37*
G36*
X84976953Y-140367563D02*
X87027563Y-138316953D01*
X88724619Y-140014009D01*
X86674009Y-142064619D01*
X84976953Y-140367563D01*
X84976953Y-140367563D01*
G37*
G36*
X87805381Y-143195991D02*
X89855991Y-141145381D01*
X91553047Y-142842437D01*
X89502437Y-144893047D01*
X87805381Y-143195991D01*
X87805381Y-143195991D01*
G37*
G36*
X85203047Y-129507437D02*
X83152437Y-131558047D01*
X81455381Y-129860991D01*
X83505991Y-127810381D01*
X85203047Y-129507437D01*
X85203047Y-129507437D01*
G37*
G36*
X82374619Y-126679009D02*
X80324009Y-128729619D01*
X78626953Y-127032563D01*
X80677563Y-124981953D01*
X82374619Y-126679009D01*
X82374619Y-126679009D01*
G37*
G36*
X95363047Y-119347437D02*
X93312437Y-121398047D01*
X91615381Y-119700991D01*
X93665991Y-117650381D01*
X95363047Y-119347437D01*
X95363047Y-119347437D01*
G37*
G36*
X92534619Y-116519009D02*
X90484009Y-118569619D01*
X88786953Y-116872563D01*
X90837563Y-114821953D01*
X92534619Y-116519009D01*
X92534619Y-116519009D01*
G37*
G36*
X91326953Y-114332563D02*
X93377563Y-112281953D01*
X95074619Y-113979009D01*
X93024009Y-116029619D01*
X91326953Y-114332563D01*
X91326953Y-114332563D01*
G37*
G36*
X94155381Y-117160991D02*
X96205991Y-115110381D01*
X97903047Y-116807437D01*
X95852437Y-118858047D01*
X94155381Y-117160991D01*
X94155381Y-117160991D01*
G37*
G36*
X86246953Y-119412563D02*
X88297563Y-117361953D01*
X89994619Y-119059009D01*
X87944009Y-121109619D01*
X86246953Y-119412563D01*
X86246953Y-119412563D01*
G37*
G36*
X89075381Y-122240991D02*
X91125991Y-120190381D01*
X92823047Y-121887437D01*
X90772437Y-123938047D01*
X89075381Y-122240991D01*
X89075381Y-122240991D01*
G37*
G36*
X79266040Y-121361378D02*
X80985724Y-123081062D01*
X79266040Y-124800746D01*
X77546356Y-123081062D01*
X79266040Y-121361378D01*
X79266040Y-121361378D01*
G37*
D11*
X77469989Y-121285011D02*
X77469989Y-121285011D01*
D12*
X93185158Y-129380158D03*
D13*
X81468398Y-117663398D03*
D12*
X85527191Y-134817809D03*
D13*
X102681602Y-138876602D03*
D12*
X98622809Y-121722191D03*
D13*
X81468398Y-138876602D03*
X102681602Y-117663398D03*
D14*
X88893019Y-131451981D03*
X95256981Y-125088019D03*
D12*
X76971199Y-136019890D03*
X85527191Y-121722191D03*
X88468755Y-112119681D03*
X95681245Y-144420319D03*
X108154608Y-131522691D03*
X107178801Y-120520110D03*
D10*
G36*
X98425000Y-142689684D02*
X96705316Y-140970000D01*
X98425000Y-139250316D01*
X100144684Y-140970000D01*
X98425000Y-142689684D01*
X98425000Y-142689684D01*
G37*
D11*
X100221051Y-142766051D02*
X100221051Y-142766051D01*
D10*
G36*
X86360000Y-113850316D02*
X88079684Y-115570000D01*
X86360000Y-117289684D01*
X84640316Y-115570000D01*
X86360000Y-113850316D01*
X86360000Y-113850316D01*
G37*
D11*
X84563949Y-113773949D02*
X84563949Y-113773949D01*
D10*
G36*
X104883949Y-136448633D02*
X103164265Y-134728949D01*
X104883949Y-133009265D01*
X106603633Y-134728949D01*
X104883949Y-136448633D01*
X104883949Y-136448633D01*
G37*
D11*
X106680000Y-136525000D02*
X106680000Y-136525000D01*
D10*
G36*
X97263949Y-114749684D02*
X95544265Y-113030000D01*
X97263949Y-111310316D01*
X98983633Y-113030000D01*
X97263949Y-114749684D01*
X97263949Y-114749684D01*
G37*
D11*
X99060000Y-114826051D02*
X99060000Y-114826051D01*
M02*
