%TF.GenerationSoftware,KiCad,Pcbnew,4.1.0-alpha+201609021633+7109~49~ubuntu16.04.1-product*%
%TF.CreationDate,2016-09-14T14:39:46+05:30*%
%TF.ProjectId,OTS2_encC,4F5453325F656E63432E6B696361645F,rev?*%
%TF.FileFunction,Legend,Bot*%
%FSLAX46Y46*%
G04 Gerber Fmt 4.6, Leading zero omitted, Abs format (unit mm)*
G04 Created by KiCad (PCBNEW 4.1.0-alpha+201609021633+7109~49~ubuntu16.04.1-product) date Wed Sep 14 14:39:46 2016*
%MOMM*%
%LPD*%
G01*
G04 APERTURE LIST*
%ADD10C,0.101600*%
%ADD11C,0.150000*%
%ADD12C,2.432000*%
%ADD13C,2.800000*%
%ADD14C,5.400000*%
%ADD15C,3.000000*%
G04 APERTURE END LIST*
D10*
D11*
X105709124Y-125575089D02*
X104294911Y-124160876D01*
X106380876Y-122074911D02*
X107795089Y-123489124D01*
X100629124Y-130655089D02*
X99214911Y-129240876D01*
X101300876Y-127154911D02*
X102715089Y-128569124D01*
X101754911Y-126700876D02*
X103169124Y-128115089D01*
X105255089Y-126029124D02*
X103840876Y-124614911D01*
X96674911Y-131780876D02*
X98089124Y-133195089D01*
X100175089Y-131109124D02*
X98760876Y-129694911D01*
X95549124Y-135735089D02*
X94134911Y-134320876D01*
X96220876Y-132234911D02*
X97635089Y-133649124D01*
X91594911Y-136860876D02*
X93009124Y-138275089D01*
X95095089Y-136189124D02*
X93680876Y-134774911D01*
X91140876Y-137314911D02*
X92555089Y-138729124D01*
X90469124Y-140815089D02*
X89054911Y-139400876D01*
X82704911Y-126065876D02*
X84119124Y-127480089D01*
X86205089Y-125394124D02*
X84790876Y-123979911D01*
X81125089Y-130474124D02*
X79710876Y-129059911D01*
X77624911Y-131145876D02*
X79039124Y-132560089D01*
X90015089Y-141269124D02*
X88600876Y-139854911D01*
X86514911Y-141940876D02*
X87929124Y-143355089D01*
X82250876Y-126519911D02*
X83665089Y-127934124D01*
X81579124Y-130020089D02*
X80164911Y-128605876D01*
X90324911Y-118445876D02*
X91739124Y-119860089D01*
X93825089Y-117774124D02*
X92410876Y-116359911D01*
X94279124Y-117320089D02*
X92864911Y-115905876D01*
X94950876Y-113819911D02*
X96365089Y-115234124D01*
X89199124Y-122400089D02*
X87784911Y-120985876D01*
X89870876Y-118899911D02*
X91285089Y-120314124D01*
X102631374Y-121999793D02*
X102665045Y-122100809D01*
X102799732Y-122235496D01*
X102900748Y-122269167D01*
X103001763Y-122235496D01*
X103271137Y-121966122D01*
X103304809Y-121865106D01*
X103271137Y-121764091D01*
X103136450Y-121629404D01*
X103035435Y-121595732D01*
X102934419Y-121629404D01*
X102867076Y-121696748D01*
X103136450Y-122100809D01*
X101924267Y-121225343D02*
X101924267Y-121292687D01*
X101991610Y-121427374D01*
X102058954Y-121494717D01*
X102193641Y-121562061D01*
X102328328Y-121562061D01*
X102429343Y-121528389D01*
X102597702Y-121427374D01*
X102698717Y-121326358D01*
X102799732Y-121158000D01*
X102833404Y-121056984D01*
X102833404Y-120922297D01*
X102766061Y-120787610D01*
X102698717Y-120720267D01*
X102564030Y-120652923D01*
X102496687Y-120652923D01*
X101722236Y-120215190D02*
X101250832Y-120686595D01*
X102159969Y-120114175D02*
X101823251Y-120787610D01*
X101385519Y-120349877D01*
X106785778Y-123723984D02*
X107189839Y-123319923D01*
X106987809Y-123521954D02*
X106280702Y-122814847D01*
X106449061Y-122848519D01*
X106583748Y-122848519D01*
X106684763Y-122814847D01*
X105708282Y-123858671D02*
X106179687Y-124330076D01*
X106011328Y-123555625D02*
X106381717Y-123926015D01*
X106415389Y-124027030D01*
X106381717Y-124128045D01*
X106280702Y-124229061D01*
X106179687Y-124262732D01*
X106112343Y-124262732D01*
X105236877Y-124532106D02*
X105472580Y-124296404D01*
X105842969Y-124666793D02*
X105135862Y-123959687D01*
X104799145Y-124296404D01*
X98059374Y-126571793D02*
X98093045Y-126672809D01*
X98227732Y-126807496D01*
X98328748Y-126841167D01*
X98429763Y-126807496D01*
X98699137Y-126538122D01*
X98732809Y-126437106D01*
X98699137Y-126336091D01*
X98564450Y-126201404D01*
X98463435Y-126167732D01*
X98362419Y-126201404D01*
X98295076Y-126268748D01*
X98564450Y-126672809D01*
X97352267Y-125797343D02*
X97352267Y-125864687D01*
X97419610Y-125999374D01*
X97486954Y-126066717D01*
X97621641Y-126134061D01*
X97756328Y-126134061D01*
X97857343Y-126100389D01*
X98025702Y-125999374D01*
X98126717Y-125898358D01*
X98227732Y-125730000D01*
X98261404Y-125628984D01*
X98261404Y-125494297D01*
X98194061Y-125359610D01*
X98126717Y-125292267D01*
X97992030Y-125224923D01*
X97924687Y-125224923D01*
X96611488Y-125191251D02*
X97015549Y-125595312D01*
X96813519Y-125393282D02*
X97520625Y-124686175D01*
X97486954Y-124854534D01*
X97486954Y-124989221D01*
X97520625Y-125090236D01*
X101705778Y-128803984D02*
X102109839Y-128399923D01*
X101907809Y-128601954D02*
X101200702Y-127894847D01*
X101369061Y-127928519D01*
X101503748Y-127928519D01*
X101604763Y-127894847D01*
X100628282Y-128938671D02*
X101099687Y-129410076D01*
X100931328Y-128635625D02*
X101301717Y-129006015D01*
X101335389Y-129107030D01*
X101301717Y-129208045D01*
X101200702Y-129309061D01*
X101099687Y-129342732D01*
X101032343Y-129342732D01*
X100156877Y-129612106D02*
X100392580Y-129376404D01*
X100762969Y-129746793D02*
X100055862Y-129039687D01*
X99719145Y-129376404D01*
X100599374Y-124031793D02*
X100633045Y-124132809D01*
X100767732Y-124267496D01*
X100868748Y-124301167D01*
X100969763Y-124267496D01*
X101239137Y-123998122D01*
X101272809Y-123897106D01*
X101239137Y-123796091D01*
X101104450Y-123661404D01*
X101003435Y-123627732D01*
X100902419Y-123661404D01*
X100835076Y-123728748D01*
X101104450Y-124132809D01*
X99824923Y-123324687D02*
X100397343Y-123223671D01*
X100228984Y-123728748D02*
X100936091Y-123021641D01*
X100666717Y-122752267D01*
X100565702Y-122718595D01*
X100498358Y-122718595D01*
X100397343Y-122752267D01*
X100296328Y-122853282D01*
X100262656Y-122954297D01*
X100262656Y-123021641D01*
X100296328Y-123122656D01*
X100565702Y-123392030D01*
X99892267Y-121977816D02*
X100228984Y-122314534D01*
X99925938Y-122684923D01*
X99925938Y-122617580D01*
X99892267Y-122516564D01*
X99723908Y-122348206D01*
X99622893Y-122314534D01*
X99555549Y-122314534D01*
X99454534Y-122348206D01*
X99286175Y-122516564D01*
X99252503Y-122617580D01*
X99252503Y-122684923D01*
X99286175Y-122785938D01*
X99454534Y-122954297D01*
X99555549Y-122987969D01*
X99622893Y-122987969D01*
X104245778Y-126263984D02*
X104649839Y-125859923D01*
X104447809Y-126061954D02*
X103740702Y-125354847D01*
X103909061Y-125388519D01*
X104043748Y-125388519D01*
X104144763Y-125354847D01*
X103100938Y-125994610D02*
X103033595Y-126061954D01*
X102999923Y-126162969D01*
X102999923Y-126230312D01*
X103033595Y-126331328D01*
X103134610Y-126499687D01*
X103302969Y-126668045D01*
X103471328Y-126769061D01*
X103572343Y-126802732D01*
X103639687Y-126802732D01*
X103740702Y-126769061D01*
X103808045Y-126701717D01*
X103841717Y-126600702D01*
X103841717Y-126533358D01*
X103808045Y-126432343D01*
X103707030Y-126263984D01*
X103538671Y-126095625D01*
X103370312Y-125994610D01*
X103269297Y-125960938D01*
X103201954Y-125960938D01*
X103100938Y-125994610D01*
X103269297Y-127240465D02*
X102562190Y-126533358D01*
X102932580Y-127038435D02*
X102999923Y-127509839D01*
X102528519Y-127038435D02*
X103067267Y-127038435D01*
X95519374Y-129111793D02*
X95553045Y-129212809D01*
X95687732Y-129347496D01*
X95788748Y-129381167D01*
X95889763Y-129347496D01*
X96159137Y-129078122D01*
X96192809Y-128977106D01*
X96159137Y-128876091D01*
X96024450Y-128741404D01*
X95923435Y-128707732D01*
X95822419Y-128741404D01*
X95755076Y-128808748D01*
X96024450Y-129212809D01*
X94744923Y-128404687D02*
X95317343Y-128303671D01*
X95148984Y-128808748D02*
X95856091Y-128101641D01*
X95586717Y-127832267D01*
X95485702Y-127798595D01*
X95418358Y-127798595D01*
X95317343Y-127832267D01*
X95216328Y-127933282D01*
X95182656Y-128034297D01*
X95182656Y-128101641D01*
X95216328Y-128202656D01*
X95485702Y-128472030D01*
X95115312Y-127495549D02*
X95115312Y-127428206D01*
X95081641Y-127327190D01*
X94913282Y-127158832D01*
X94812267Y-127125160D01*
X94744923Y-127125160D01*
X94643908Y-127158832D01*
X94576564Y-127226175D01*
X94509221Y-127360862D01*
X94509221Y-128168984D01*
X94071488Y-127731251D01*
X99165778Y-131343984D02*
X99569839Y-130939923D01*
X99367809Y-131141954D02*
X98660702Y-130434847D01*
X98829061Y-130468519D01*
X98963748Y-130468519D01*
X99064763Y-130434847D01*
X98020938Y-131074610D02*
X97953595Y-131141954D01*
X97919923Y-131242969D01*
X97919923Y-131310312D01*
X97953595Y-131411328D01*
X98054610Y-131579687D01*
X98222969Y-131748045D01*
X98391328Y-131849061D01*
X98492343Y-131882732D01*
X98559687Y-131882732D01*
X98660702Y-131849061D01*
X98728045Y-131781717D01*
X98761717Y-131680702D01*
X98761717Y-131613358D01*
X98728045Y-131512343D01*
X98627030Y-131343984D01*
X98458671Y-131175625D01*
X98290312Y-131074610D01*
X98189297Y-131040938D01*
X98121954Y-131040938D01*
X98020938Y-131074610D01*
X98189297Y-132320465D02*
X97482190Y-131613358D01*
X97852580Y-132118435D02*
X97919923Y-132589839D01*
X97448519Y-132118435D02*
X97987267Y-132118435D01*
X92471374Y-132159793D02*
X92505045Y-132260809D01*
X92639732Y-132395496D01*
X92740748Y-132429167D01*
X92841763Y-132395496D01*
X93111137Y-132126122D01*
X93144809Y-132025106D01*
X93111137Y-131924091D01*
X92976450Y-131789404D01*
X92875435Y-131755732D01*
X92774419Y-131789404D01*
X92707076Y-131856748D01*
X92976450Y-132260809D01*
X91764267Y-131385343D02*
X91764267Y-131452687D01*
X91831610Y-131587374D01*
X91898954Y-131654717D01*
X92033641Y-131722061D01*
X92168328Y-131722061D01*
X92269343Y-131688389D01*
X92437702Y-131587374D01*
X92538717Y-131486358D01*
X92639732Y-131318000D01*
X92673404Y-131216984D01*
X92673404Y-131082297D01*
X92606061Y-130947610D01*
X92538717Y-130880267D01*
X92404030Y-130812923D01*
X92336687Y-130812923D01*
X92168328Y-130509877D02*
X91730595Y-130072145D01*
X91696923Y-130577221D01*
X91595908Y-130476206D01*
X91494893Y-130442534D01*
X91427549Y-130442534D01*
X91326534Y-130476206D01*
X91158175Y-130644564D01*
X91124503Y-130745580D01*
X91124503Y-130812923D01*
X91158175Y-130913938D01*
X91360206Y-131115969D01*
X91461221Y-131149641D01*
X91528564Y-131149641D01*
X96625778Y-133883984D02*
X97029839Y-133479923D01*
X96827809Y-133681954D02*
X96120702Y-132974847D01*
X96289061Y-133008519D01*
X96423748Y-133008519D01*
X96524763Y-132974847D01*
X95548282Y-134018671D02*
X96019687Y-134490076D01*
X95851328Y-133715625D02*
X96221717Y-134086015D01*
X96255389Y-134187030D01*
X96221717Y-134288045D01*
X96120702Y-134389061D01*
X96019687Y-134422732D01*
X95952343Y-134422732D01*
X95076877Y-134692106D02*
X95312580Y-134456404D01*
X95682969Y-134826793D02*
X94975862Y-134119687D01*
X94639145Y-134456404D01*
X90439374Y-134318794D02*
X90473045Y-134419810D01*
X90607732Y-134554497D01*
X90708748Y-134588168D01*
X90809763Y-134554497D01*
X91079137Y-134285123D01*
X91112809Y-134184107D01*
X91079137Y-134083092D01*
X90944450Y-133948405D01*
X90843435Y-133914733D01*
X90742419Y-133948405D01*
X90675076Y-134015749D01*
X90944450Y-134419810D01*
X89664923Y-133611688D02*
X90237343Y-133510672D01*
X90068984Y-134015749D02*
X90776091Y-133308642D01*
X90506717Y-133039268D01*
X90405702Y-133005596D01*
X90338358Y-133005596D01*
X90237343Y-133039268D01*
X90136328Y-133140283D01*
X90102656Y-133241298D01*
X90102656Y-133308642D01*
X90136328Y-133409657D01*
X90405702Y-133679031D01*
X89530236Y-132534191D02*
X89058832Y-133005596D01*
X89967969Y-132433176D02*
X89631251Y-133106611D01*
X89193519Y-132668878D01*
X94085778Y-136423984D02*
X94489839Y-136019923D01*
X94287809Y-136221954D02*
X93580702Y-135514847D01*
X93749061Y-135548519D01*
X93883748Y-135548519D01*
X93984763Y-135514847D01*
X92940938Y-136154610D02*
X92873595Y-136221954D01*
X92839923Y-136322969D01*
X92839923Y-136390312D01*
X92873595Y-136491328D01*
X92974610Y-136659687D01*
X93142969Y-136828045D01*
X93311328Y-136929061D01*
X93412343Y-136962732D01*
X93479687Y-136962732D01*
X93580702Y-136929061D01*
X93648045Y-136861717D01*
X93681717Y-136760702D01*
X93681717Y-136693358D01*
X93648045Y-136592343D01*
X93547030Y-136423984D01*
X93378671Y-136255625D01*
X93210312Y-136154610D01*
X93109297Y-136120938D01*
X93041954Y-136120938D01*
X92940938Y-136154610D01*
X93109297Y-137400465D02*
X92402190Y-136693358D01*
X92772580Y-137198435D02*
X92839923Y-137669839D01*
X92368519Y-137198435D02*
X92907267Y-137198435D01*
X87899374Y-136731793D02*
X87933045Y-136832809D01*
X88067732Y-136967496D01*
X88168748Y-137001167D01*
X88269763Y-136967496D01*
X88539137Y-136698122D01*
X88572809Y-136597106D01*
X88539137Y-136496091D01*
X88404450Y-136361404D01*
X88303435Y-136327732D01*
X88202419Y-136361404D01*
X88135076Y-136428748D01*
X88404450Y-136832809D01*
X87192267Y-135957343D02*
X87192267Y-136024687D01*
X87259610Y-136159374D01*
X87326954Y-136226717D01*
X87461641Y-136294061D01*
X87596328Y-136294061D01*
X87697343Y-136260389D01*
X87865702Y-136159374D01*
X87966717Y-136058358D01*
X88067732Y-135890000D01*
X88101404Y-135788984D01*
X88101404Y-135654297D01*
X88034061Y-135519610D01*
X87966717Y-135452267D01*
X87832030Y-135384923D01*
X87764687Y-135384923D01*
X87596328Y-135081877D02*
X87124923Y-134610473D01*
X86720862Y-135620625D01*
X91545778Y-138963984D02*
X91949839Y-138559923D01*
X91747809Y-138761954D02*
X91040702Y-138054847D01*
X91209061Y-138088519D01*
X91343748Y-138088519D01*
X91444763Y-138054847D01*
X90468282Y-139098671D02*
X90939687Y-139570076D01*
X90771328Y-138795625D02*
X91141717Y-139166015D01*
X91175389Y-139267030D01*
X91141717Y-139368045D01*
X91040702Y-139469061D01*
X90939687Y-139502732D01*
X90872343Y-139502732D01*
X89996877Y-139772106D02*
X90232580Y-139536404D01*
X90602969Y-139906793D02*
X89895862Y-139199687D01*
X89559145Y-139536404D01*
X87899374Y-129746793D02*
X87933045Y-129847809D01*
X88067732Y-129982496D01*
X88168748Y-130016167D01*
X88269763Y-129982496D01*
X88539137Y-129713122D01*
X88572809Y-129612106D01*
X88539137Y-129511091D01*
X88404450Y-129376404D01*
X88303435Y-129342732D01*
X88202419Y-129376404D01*
X88135076Y-129443748D01*
X88404450Y-129847809D01*
X87124923Y-129039687D02*
X87697343Y-128938671D01*
X87528984Y-129443748D02*
X88236091Y-128736641D01*
X87966717Y-128467267D01*
X87865702Y-128433595D01*
X87798358Y-128433595D01*
X87697343Y-128467267D01*
X87596328Y-128568282D01*
X87562656Y-128669297D01*
X87562656Y-128736641D01*
X87596328Y-128837656D01*
X87865702Y-129107030D01*
X87596328Y-128096877D02*
X87158595Y-127659145D01*
X87124923Y-128164221D01*
X87023908Y-128063206D01*
X86922893Y-128029534D01*
X86855549Y-128029534D01*
X86754534Y-128063206D01*
X86586175Y-128231564D01*
X86552503Y-128332580D01*
X86552503Y-128399923D01*
X86586175Y-128500938D01*
X86788206Y-128702969D01*
X86889221Y-128736641D01*
X86956564Y-128736641D01*
X85195778Y-125628984D02*
X85599839Y-125224923D01*
X85397809Y-125426954D02*
X84690702Y-124719847D01*
X84859061Y-124753519D01*
X84993748Y-124753519D01*
X85094763Y-124719847D01*
X84050938Y-125359610D02*
X83983595Y-125426954D01*
X83949923Y-125527969D01*
X83949923Y-125595312D01*
X83983595Y-125696328D01*
X84084610Y-125864687D01*
X84252969Y-126033045D01*
X84421328Y-126134061D01*
X84522343Y-126167732D01*
X84589687Y-126167732D01*
X84690702Y-126134061D01*
X84758045Y-126066717D01*
X84791717Y-125965702D01*
X84791717Y-125898358D01*
X84758045Y-125797343D01*
X84657030Y-125628984D01*
X84488671Y-125460625D01*
X84320312Y-125359610D01*
X84219297Y-125325938D01*
X84151954Y-125325938D01*
X84050938Y-125359610D01*
X84219297Y-126605465D02*
X83512190Y-125898358D01*
X83882580Y-126403435D02*
X83949923Y-126874839D01*
X83478519Y-126403435D02*
X84017267Y-126403435D01*
X82819374Y-134826793D02*
X82853045Y-134927809D01*
X82987732Y-135062496D01*
X83088748Y-135096167D01*
X83189763Y-135062496D01*
X83459137Y-134793122D01*
X83492809Y-134692106D01*
X83459137Y-134591091D01*
X83324450Y-134456404D01*
X83223435Y-134422732D01*
X83122419Y-134456404D01*
X83055076Y-134523748D01*
X83324450Y-134927809D01*
X82044923Y-134119687D02*
X82617343Y-134018671D01*
X82448984Y-134523748D02*
X83156091Y-133816641D01*
X82886717Y-133547267D01*
X82785702Y-133513595D01*
X82718358Y-133513595D01*
X82617343Y-133547267D01*
X82516328Y-133648282D01*
X82482656Y-133749297D01*
X82482656Y-133816641D01*
X82516328Y-133917656D01*
X82785702Y-134187030D01*
X82516328Y-133176877D02*
X82044923Y-132705473D01*
X81640862Y-133715625D01*
X80115778Y-130708984D02*
X80519839Y-130304923D01*
X80317809Y-130506954D02*
X79610702Y-129799847D01*
X79779061Y-129833519D01*
X79913748Y-129833519D01*
X80014763Y-129799847D01*
X78970938Y-130439610D02*
X78903595Y-130506954D01*
X78869923Y-130607969D01*
X78869923Y-130675312D01*
X78903595Y-130776328D01*
X79004610Y-130944687D01*
X79172969Y-131113045D01*
X79341328Y-131214061D01*
X79442343Y-131247732D01*
X79509687Y-131247732D01*
X79610702Y-131214061D01*
X79678045Y-131146717D01*
X79711717Y-131045702D01*
X79711717Y-130978358D01*
X79678045Y-130877343D01*
X79577030Y-130708984D01*
X79408671Y-130540625D01*
X79240312Y-130439610D01*
X79139297Y-130405938D01*
X79071954Y-130405938D01*
X78970938Y-130439610D01*
X79139297Y-131685465D02*
X78432190Y-130978358D01*
X78802580Y-131483435D02*
X78869923Y-131954839D01*
X78398519Y-131483435D02*
X78937267Y-131483435D01*
X85486374Y-139398793D02*
X85520045Y-139499809D01*
X85654732Y-139634496D01*
X85755748Y-139668167D01*
X85856763Y-139634496D01*
X86126137Y-139365122D01*
X86159809Y-139264106D01*
X86126137Y-139163091D01*
X85991450Y-139028404D01*
X85890435Y-138994732D01*
X85789419Y-139028404D01*
X85722076Y-139095748D01*
X85991450Y-139499809D01*
X84711923Y-138691687D02*
X85284343Y-138590671D01*
X85115984Y-139095748D02*
X85823091Y-138388641D01*
X85553717Y-138119267D01*
X85452702Y-138085595D01*
X85385358Y-138085595D01*
X85284343Y-138119267D01*
X85183328Y-138220282D01*
X85149656Y-138321297D01*
X85149656Y-138388641D01*
X85183328Y-138489656D01*
X85452702Y-138759030D01*
X84711923Y-137883564D02*
X84812938Y-137917236D01*
X84880282Y-137917236D01*
X84981297Y-137883564D01*
X85014969Y-137849893D01*
X85048641Y-137748877D01*
X85048641Y-137681534D01*
X85014969Y-137580519D01*
X84880282Y-137445832D01*
X84779267Y-137412160D01*
X84711923Y-137412160D01*
X84610908Y-137445832D01*
X84577236Y-137479503D01*
X84543564Y-137580519D01*
X84543564Y-137647862D01*
X84577236Y-137748877D01*
X84711923Y-137883564D01*
X84745595Y-137984580D01*
X84745595Y-138051923D01*
X84711923Y-138152938D01*
X84577236Y-138287625D01*
X84476221Y-138321297D01*
X84408877Y-138321297D01*
X84307862Y-138287625D01*
X84173175Y-138152938D01*
X84139503Y-138051923D01*
X84139503Y-137984580D01*
X84173175Y-137883564D01*
X84307862Y-137748877D01*
X84408877Y-137715206D01*
X84476221Y-137715206D01*
X84577236Y-137748877D01*
X89005778Y-141503984D02*
X89409839Y-141099923D01*
X89207809Y-141301954D02*
X88500702Y-140594847D01*
X88669061Y-140628519D01*
X88803748Y-140628519D01*
X88904763Y-140594847D01*
X87860938Y-141234610D02*
X87793595Y-141301954D01*
X87759923Y-141402969D01*
X87759923Y-141470312D01*
X87793595Y-141571328D01*
X87894610Y-141739687D01*
X88062969Y-141908045D01*
X88231328Y-142009061D01*
X88332343Y-142042732D01*
X88399687Y-142042732D01*
X88500702Y-142009061D01*
X88568045Y-141941717D01*
X88601717Y-141840702D01*
X88601717Y-141773358D01*
X88568045Y-141672343D01*
X88467030Y-141503984D01*
X88298671Y-141335625D01*
X88130312Y-141234610D01*
X88029297Y-141200938D01*
X87961954Y-141200938D01*
X87860938Y-141234610D01*
X88029297Y-142480465D02*
X87322190Y-141773358D01*
X87692580Y-142278435D02*
X87759923Y-142749839D01*
X87288519Y-142278435D02*
X87827267Y-142278435D01*
X85359374Y-132286793D02*
X85393045Y-132387809D01*
X85527732Y-132522496D01*
X85628748Y-132556167D01*
X85729763Y-132522496D01*
X85999137Y-132253122D01*
X86032809Y-132152106D01*
X85999137Y-132051091D01*
X85864450Y-131916404D01*
X85763435Y-131882732D01*
X85662419Y-131916404D01*
X85595076Y-131983748D01*
X85864450Y-132387809D01*
X84652267Y-131512343D02*
X84652267Y-131579687D01*
X84719610Y-131714374D01*
X84786954Y-131781717D01*
X84921641Y-131849061D01*
X85056328Y-131849061D01*
X85157343Y-131815389D01*
X85325702Y-131714374D01*
X85426717Y-131613358D01*
X85527732Y-131445000D01*
X85561404Y-131343984D01*
X85561404Y-131209297D01*
X85494061Y-131074610D01*
X85426717Y-131007267D01*
X85292030Y-130939923D01*
X85224687Y-130939923D01*
X84685938Y-130266488D02*
X84820625Y-130401175D01*
X84854297Y-130502190D01*
X84854297Y-130569534D01*
X84820625Y-130737893D01*
X84719610Y-130906251D01*
X84450236Y-131175625D01*
X84349221Y-131209297D01*
X84281877Y-131209297D01*
X84180862Y-131175625D01*
X84046175Y-131040938D01*
X84012503Y-130939923D01*
X84012503Y-130872580D01*
X84046175Y-130771564D01*
X84214534Y-130603206D01*
X84315549Y-130569534D01*
X84382893Y-130569534D01*
X84483908Y-130603206D01*
X84618595Y-130737893D01*
X84652267Y-130838908D01*
X84652267Y-130906251D01*
X84618595Y-131007267D01*
X82655778Y-128168984D02*
X83059839Y-127764923D01*
X82857809Y-127966954D02*
X82150702Y-127259847D01*
X82319061Y-127293519D01*
X82453748Y-127293519D01*
X82554763Y-127259847D01*
X81578282Y-128303671D02*
X82049687Y-128775076D01*
X81881328Y-128000625D02*
X82251717Y-128371015D01*
X82285389Y-128472030D01*
X82251717Y-128573045D01*
X82150702Y-128674061D01*
X82049687Y-128707732D01*
X81982343Y-128707732D01*
X81106877Y-128977106D02*
X81342580Y-128741404D01*
X81712969Y-129111793D02*
X81005862Y-128404687D01*
X80669145Y-128741404D01*
X95392374Y-121999793D02*
X95426045Y-122100809D01*
X95560732Y-122235496D01*
X95661748Y-122269167D01*
X95762763Y-122235496D01*
X96032137Y-121966122D01*
X96065809Y-121865106D01*
X96032137Y-121764091D01*
X95897450Y-121629404D01*
X95796435Y-121595732D01*
X95695419Y-121629404D01*
X95628076Y-121696748D01*
X95897450Y-122100809D01*
X94617923Y-121292687D02*
X95190343Y-121191671D01*
X95021984Y-121696748D02*
X95729091Y-120989641D01*
X95459717Y-120720267D01*
X95358702Y-120686595D01*
X95291358Y-120686595D01*
X95190343Y-120720267D01*
X95089328Y-120821282D01*
X95055656Y-120922297D01*
X95055656Y-120989641D01*
X95089328Y-121090656D01*
X95358702Y-121360030D01*
X94718938Y-119979488D02*
X94853625Y-120114175D01*
X94887297Y-120215190D01*
X94887297Y-120282534D01*
X94853625Y-120450893D01*
X94752610Y-120619251D01*
X94483236Y-120888625D01*
X94382221Y-120922297D01*
X94314877Y-120922297D01*
X94213862Y-120888625D01*
X94079175Y-120753938D01*
X94045503Y-120652923D01*
X94045503Y-120585580D01*
X94079175Y-120484564D01*
X94247534Y-120316206D01*
X94348549Y-120282534D01*
X94415893Y-120282534D01*
X94516908Y-120316206D01*
X94651595Y-120450893D01*
X94685267Y-120551908D01*
X94685267Y-120619251D01*
X94651595Y-120720267D01*
X92815778Y-118008984D02*
X93219839Y-117604923D01*
X93017809Y-117806954D02*
X92310702Y-117099847D01*
X92479061Y-117133519D01*
X92613748Y-117133519D01*
X92714763Y-117099847D01*
X91670938Y-117739610D02*
X91603595Y-117806954D01*
X91569923Y-117907969D01*
X91569923Y-117975312D01*
X91603595Y-118076328D01*
X91704610Y-118244687D01*
X91872969Y-118413045D01*
X92041328Y-118514061D01*
X92142343Y-118547732D01*
X92209687Y-118547732D01*
X92310702Y-118514061D01*
X92378045Y-118446717D01*
X92411717Y-118345702D01*
X92411717Y-118278358D01*
X92378045Y-118177343D01*
X92277030Y-118008984D01*
X92108671Y-117840625D01*
X91940312Y-117739610D01*
X91839297Y-117705938D01*
X91771954Y-117705938D01*
X91670938Y-117739610D01*
X91839297Y-118985465D02*
X91132190Y-118278358D01*
X91502580Y-118783435D02*
X91569923Y-119254839D01*
X91098519Y-118783435D02*
X91637267Y-118783435D01*
X97932374Y-119459793D02*
X97966045Y-119560809D01*
X98100732Y-119695496D01*
X98201748Y-119729167D01*
X98302763Y-119695496D01*
X98572137Y-119426122D01*
X98605809Y-119325106D01*
X98572137Y-119224091D01*
X98437450Y-119089404D01*
X98336435Y-119055732D01*
X98235419Y-119089404D01*
X98168076Y-119156748D01*
X98437450Y-119560809D01*
X97225267Y-118685343D02*
X97225267Y-118752687D01*
X97292610Y-118887374D01*
X97359954Y-118954717D01*
X97494641Y-119022061D01*
X97629328Y-119022061D01*
X97730343Y-118988389D01*
X97898702Y-118887374D01*
X97999717Y-118786358D01*
X98100732Y-118618000D01*
X98134404Y-118516984D01*
X98134404Y-118382297D01*
X98067061Y-118247610D01*
X97999717Y-118180267D01*
X97865030Y-118112923D01*
X97797687Y-118112923D01*
X97225267Y-117405816D02*
X97561984Y-117742534D01*
X97258938Y-118112923D01*
X97258938Y-118045580D01*
X97225267Y-117944564D01*
X97056908Y-117776206D01*
X96955893Y-117742534D01*
X96888549Y-117742534D01*
X96787534Y-117776206D01*
X96619175Y-117944564D01*
X96585503Y-118045580D01*
X96585503Y-118112923D01*
X96619175Y-118213938D01*
X96787534Y-118382297D01*
X96888549Y-118415969D01*
X96955893Y-118415969D01*
X95355778Y-115468984D02*
X95759839Y-115064923D01*
X95557809Y-115266954D02*
X94850702Y-114559847D01*
X95019061Y-114593519D01*
X95153748Y-114593519D01*
X95254763Y-114559847D01*
X94278282Y-115603671D02*
X94749687Y-116075076D01*
X94581328Y-115300625D02*
X94951717Y-115671015D01*
X94985389Y-115772030D01*
X94951717Y-115873045D01*
X94850702Y-115974061D01*
X94749687Y-116007732D01*
X94682343Y-116007732D01*
X93806877Y-116277106D02*
X94042580Y-116041404D01*
X94412969Y-116411793D02*
X93705862Y-115704687D01*
X93369145Y-116041404D01*
X92979374Y-124539792D02*
X93013045Y-124640808D01*
X93147732Y-124775495D01*
X93248748Y-124809166D01*
X93349763Y-124775495D01*
X93619137Y-124506121D01*
X93652809Y-124405105D01*
X93619137Y-124304090D01*
X93484450Y-124169403D01*
X93383435Y-124135731D01*
X93282419Y-124169403D01*
X93215076Y-124236747D01*
X93484450Y-124640808D01*
X92272267Y-123765342D02*
X92272267Y-123832686D01*
X92339610Y-123967373D01*
X92406954Y-124034716D01*
X92541641Y-124102060D01*
X92676328Y-124102060D01*
X92777343Y-124068388D01*
X92945702Y-123967373D01*
X93046717Y-123866357D01*
X93147732Y-123697999D01*
X93181404Y-123596983D01*
X93181404Y-123462296D01*
X93114061Y-123327609D01*
X93046717Y-123260266D01*
X92912030Y-123192922D01*
X92844687Y-123192922D01*
X92575312Y-122923548D02*
X92575312Y-122856205D01*
X92541641Y-122755189D01*
X92373282Y-122586831D01*
X92272267Y-122553159D01*
X92204923Y-122553159D01*
X92103908Y-122586831D01*
X92036564Y-122654174D01*
X91969221Y-122788861D01*
X91969221Y-123596983D01*
X91531488Y-123159250D01*
X90275778Y-120548984D02*
X90679839Y-120144923D01*
X90477809Y-120346954D02*
X89770702Y-119639847D01*
X89939061Y-119673519D01*
X90073748Y-119673519D01*
X90174763Y-119639847D01*
X89198282Y-120683671D02*
X89669687Y-121155076D01*
X89501328Y-120380625D02*
X89871717Y-120751015D01*
X89905389Y-120852030D01*
X89871717Y-120953045D01*
X89770702Y-121054061D01*
X89669687Y-121087732D01*
X89602343Y-121087732D01*
X88726877Y-121357106D02*
X88962580Y-121121404D01*
X89332969Y-121491793D02*
X88625862Y-120784687D01*
X88289145Y-121121404D01*
%LPC*%
D10*
G36*
X102756953Y-122587563D02*
X104807563Y-120536953D01*
X106504619Y-122234009D01*
X104454009Y-124284619D01*
X102756953Y-122587563D01*
X102756953Y-122587563D01*
G37*
G36*
X105585381Y-125415991D02*
X107635991Y-123365381D01*
X109333047Y-125062437D01*
X107282437Y-127113047D01*
X105585381Y-125415991D01*
X105585381Y-125415991D01*
G37*
G36*
X97676953Y-127667563D02*
X99727563Y-125616953D01*
X101424619Y-127314009D01*
X99374009Y-129364619D01*
X97676953Y-127667563D01*
X97676953Y-127667563D01*
G37*
G36*
X100505381Y-130495991D02*
X102555991Y-128445381D01*
X104253047Y-130142437D01*
X102202437Y-132193047D01*
X100505381Y-130495991D01*
X100505381Y-130495991D01*
G37*
G36*
X106793047Y-127602437D02*
X104742437Y-129653047D01*
X103045381Y-127955991D01*
X105095991Y-125905381D01*
X106793047Y-127602437D01*
X106793047Y-127602437D01*
G37*
G36*
X103964619Y-124774009D02*
X101914009Y-126824619D01*
X100216953Y-125127563D01*
X102267563Y-123076953D01*
X103964619Y-124774009D01*
X103964619Y-124774009D01*
G37*
G36*
X101713047Y-132682437D02*
X99662437Y-134733047D01*
X97965381Y-133035991D01*
X100015991Y-130985381D01*
X101713047Y-132682437D01*
X101713047Y-132682437D01*
G37*
G36*
X98884619Y-129854009D02*
X96834009Y-131904619D01*
X95136953Y-130207563D01*
X97187563Y-128156953D01*
X98884619Y-129854009D01*
X98884619Y-129854009D01*
G37*
G36*
X92596953Y-132747563D02*
X94647563Y-130696953D01*
X96344619Y-132394009D01*
X94294009Y-134444619D01*
X92596953Y-132747563D01*
X92596953Y-132747563D01*
G37*
G36*
X95425381Y-135575991D02*
X97475991Y-133525381D01*
X99173047Y-135222437D01*
X97122437Y-137273047D01*
X95425381Y-135575991D01*
X95425381Y-135575991D01*
G37*
G36*
X96633047Y-137762437D02*
X94582437Y-139813047D01*
X92885381Y-138115991D01*
X94935991Y-136065381D01*
X96633047Y-137762437D01*
X96633047Y-137762437D01*
G37*
G36*
X93804619Y-134934009D02*
X91754009Y-136984619D01*
X90056953Y-135287563D01*
X92107563Y-133236953D01*
X93804619Y-134934009D01*
X93804619Y-134934009D01*
G37*
G36*
X94093047Y-140302437D02*
X92042437Y-142353047D01*
X90345381Y-140655991D01*
X92395991Y-138605381D01*
X94093047Y-140302437D01*
X94093047Y-140302437D01*
G37*
G36*
X91264619Y-137474009D02*
X89214009Y-139524619D01*
X87516953Y-137827563D01*
X89567563Y-135776953D01*
X91264619Y-137474009D01*
X91264619Y-137474009D01*
G37*
G36*
X87743047Y-126967437D02*
X85692437Y-129018047D01*
X83995381Y-127320991D01*
X86045991Y-125270381D01*
X87743047Y-126967437D01*
X87743047Y-126967437D01*
G37*
G36*
X84914619Y-124139009D02*
X82864009Y-126189619D01*
X81166953Y-124492563D01*
X83217563Y-122441953D01*
X84914619Y-124139009D01*
X84914619Y-124139009D01*
G37*
G36*
X76086953Y-129572563D02*
X78137563Y-127521953D01*
X79834619Y-129219009D01*
X77784009Y-131269619D01*
X76086953Y-129572563D01*
X76086953Y-129572563D01*
G37*
G36*
X78915381Y-132400991D02*
X80965991Y-130350381D01*
X82663047Y-132047437D01*
X80612437Y-134098047D01*
X78915381Y-132400991D01*
X78915381Y-132400991D01*
G37*
G36*
X84976953Y-140367563D02*
X87027563Y-138316953D01*
X88724619Y-140014009D01*
X86674009Y-142064619D01*
X84976953Y-140367563D01*
X84976953Y-140367563D01*
G37*
G36*
X87805381Y-143195991D02*
X89855991Y-141145381D01*
X91553047Y-142842437D01*
X89502437Y-144893047D01*
X87805381Y-143195991D01*
X87805381Y-143195991D01*
G37*
G36*
X85203047Y-129507437D02*
X83152437Y-131558047D01*
X81455381Y-129860991D01*
X83505991Y-127810381D01*
X85203047Y-129507437D01*
X85203047Y-129507437D01*
G37*
G36*
X82374619Y-126679009D02*
X80324009Y-128729619D01*
X78626953Y-127032563D01*
X80677563Y-124981953D01*
X82374619Y-126679009D01*
X82374619Y-126679009D01*
G37*
G36*
X95363047Y-119347437D02*
X93312437Y-121398047D01*
X91615381Y-119700991D01*
X93665991Y-117650381D01*
X95363047Y-119347437D01*
X95363047Y-119347437D01*
G37*
G36*
X92534619Y-116519009D02*
X90484009Y-118569619D01*
X88786953Y-116872563D01*
X90837563Y-114821953D01*
X92534619Y-116519009D01*
X92534619Y-116519009D01*
G37*
G36*
X91326953Y-114332563D02*
X93377563Y-112281953D01*
X95074619Y-113979009D01*
X93024009Y-116029619D01*
X91326953Y-114332563D01*
X91326953Y-114332563D01*
G37*
G36*
X94155381Y-117160991D02*
X96205991Y-115110381D01*
X97903047Y-116807437D01*
X95852437Y-118858047D01*
X94155381Y-117160991D01*
X94155381Y-117160991D01*
G37*
G36*
X86246953Y-119412563D02*
X88297563Y-117361953D01*
X89994619Y-119059009D01*
X87944009Y-121109619D01*
X86246953Y-119412563D01*
X86246953Y-119412563D01*
G37*
G36*
X89075381Y-122240991D02*
X91125991Y-120190381D01*
X92823047Y-121887437D01*
X90772437Y-123938047D01*
X89075381Y-122240991D01*
X89075381Y-122240991D01*
G37*
G36*
X79266040Y-121361378D02*
X80985724Y-123081062D01*
X79266040Y-124800746D01*
X77546356Y-123081062D01*
X79266040Y-121361378D01*
X79266040Y-121361378D01*
G37*
D12*
X77469989Y-121285011D02*
X77469989Y-121285011D01*
D13*
X93185158Y-129380158D03*
D14*
X81468398Y-117663398D03*
D13*
X85527191Y-134817809D03*
D14*
X102681602Y-138876602D03*
D13*
X98622809Y-121722191D03*
D14*
X81468398Y-138876602D03*
X102681602Y-117663398D03*
D15*
X88893019Y-131451981D03*
X95256981Y-125088019D03*
D13*
X76971199Y-136019890D03*
X85527191Y-121722191D03*
X88468755Y-112119681D03*
X95681245Y-144420319D03*
X108154608Y-131522691D03*
X107178801Y-120520110D03*
D10*
G36*
X98425000Y-142689684D02*
X96705316Y-140970000D01*
X98425000Y-139250316D01*
X100144684Y-140970000D01*
X98425000Y-142689684D01*
X98425000Y-142689684D01*
G37*
D12*
X100221051Y-142766051D02*
X100221051Y-142766051D01*
D10*
G36*
X86360000Y-113850316D02*
X88079684Y-115570000D01*
X86360000Y-117289684D01*
X84640316Y-115570000D01*
X86360000Y-113850316D01*
X86360000Y-113850316D01*
G37*
D12*
X84563949Y-113773949D02*
X84563949Y-113773949D01*
D10*
G36*
X104883949Y-136448633D02*
X103164265Y-134728949D01*
X104883949Y-133009265D01*
X106603633Y-134728949D01*
X104883949Y-136448633D01*
X104883949Y-136448633D01*
G37*
D12*
X106680000Y-136525000D02*
X106680000Y-136525000D01*
D10*
G36*
X97263949Y-114749684D02*
X95544265Y-113030000D01*
X97263949Y-111310316D01*
X98983633Y-113030000D01*
X97263949Y-114749684D01*
X97263949Y-114749684D01*
G37*
D12*
X99060000Y-114826051D02*
X99060000Y-114826051D01*
M02*
