%TF.GenerationSoftware,KiCad,Pcbnew,4.1.0-alpha+201609021633+7109~49~ubuntu16.04.1-product*%
%TF.CreationDate,2016-09-14T14:39:46+05:30*%
%TF.ProjectId,OTS2_encC,4F5453325F656E63432E6B696361645F,rev?*%
%TF.FileFunction,Copper,L1,Top,Signal*%
%FSLAX46Y46*%
G04 Gerber Fmt 4.6, Leading zero omitted, Abs format (unit mm)*
G04 Created by KiCad (PCBNEW 4.1.0-alpha+201609021633+7109~49~ubuntu16.04.1-product) date Wed Sep 14 14:39:46 2016*
%MOMM*%
%LPD*%
G01*
G04 APERTURE LIST*
%ADD10C,0.101600*%
%ADD11C,2.032000*%
%ADD12C,2.400000*%
%ADD13C,5.000000*%
%ADD14C,2.600000*%
%ADD15C,0.762000*%
%ADD16C,0.508000*%
%ADD17C,0.762000*%
%ADD18C,0.254000*%
G04 APERTURE END LIST*
D10*
G36*
X79266040Y-121644221D02*
X80702881Y-123081062D01*
X79266040Y-124517903D01*
X77829199Y-123081062D01*
X79266040Y-121644221D01*
X79266040Y-121644221D01*
G37*
D11*
X77469989Y-121285011D02*
X77469989Y-121285011D01*
D12*
X93185158Y-129380158D03*
D13*
X81468398Y-117663398D03*
D12*
X85527191Y-134817809D03*
D13*
X102681602Y-138876602D03*
D12*
X98622809Y-121722191D03*
D13*
X81468398Y-138876602D03*
X102681602Y-117663398D03*
D14*
X88893019Y-131451981D03*
X95256981Y-125088019D03*
D12*
X76971199Y-136019890D03*
X85527191Y-121722191D03*
X88468755Y-112119681D03*
X95681245Y-144420319D03*
X108154608Y-131522691D03*
X107178801Y-120520110D03*
D10*
G36*
X98425000Y-142406841D02*
X96988159Y-140970000D01*
X98425000Y-139533159D01*
X99861841Y-140970000D01*
X98425000Y-142406841D01*
X98425000Y-142406841D01*
G37*
D11*
X100221051Y-142766051D02*
X100221051Y-142766051D01*
D10*
G36*
X86360000Y-114133159D02*
X87796841Y-115570000D01*
X86360000Y-117006841D01*
X84923159Y-115570000D01*
X86360000Y-114133159D01*
X86360000Y-114133159D01*
G37*
D11*
X84563949Y-113773949D02*
X84563949Y-113773949D01*
D10*
G36*
X104883949Y-136165790D02*
X103447108Y-134728949D01*
X104883949Y-133292108D01*
X106320790Y-134728949D01*
X104883949Y-136165790D01*
X104883949Y-136165790D01*
G37*
D11*
X106680000Y-136525000D02*
X106680000Y-136525000D01*
D10*
G36*
X97263949Y-114466841D02*
X95827108Y-113030000D01*
X97263949Y-111593159D01*
X98700790Y-113030000D01*
X97263949Y-114466841D01*
X97263949Y-114466841D01*
G37*
D11*
X99060000Y-114826051D02*
X99060000Y-114826051D01*
D15*
X106934000Y-129032000D03*
X101346000Y-135128000D03*
X96139000Y-139446000D03*
X85344000Y-138684000D03*
X87376000Y-125603000D03*
X92075000Y-118110000D03*
X79375000Y-130810000D03*
D16*
X98622809Y-121722191D02*
X98622809Y-128467809D01*
X98622809Y-128467809D02*
X104883949Y-134728949D01*
X97635870Y-133830870D02*
X93185158Y-129380158D01*
X98425000Y-140970000D02*
X97635870Y-140180870D01*
X97635870Y-140180870D02*
X97635870Y-133830870D01*
D17*
X97790000Y-116096051D02*
X99060000Y-114826051D01*
X97790000Y-117729000D02*
X97790000Y-116096051D01*
X101854000Y-121793000D02*
X97790000Y-117729000D01*
X101854000Y-124714000D02*
X101854000Y-121793000D01*
X106172000Y-129032000D02*
X101854000Y-124714000D01*
X106934000Y-129032000D02*
X106172000Y-129032000D01*
X87376000Y-125603000D02*
X88138000Y-124841000D01*
X101346000Y-135128000D02*
X101346000Y-134366000D01*
X101346000Y-134366000D02*
X94107000Y-127127000D01*
X94107000Y-127127000D02*
X90424000Y-127127000D01*
X90424000Y-127127000D02*
X88138000Y-124841000D01*
X88138000Y-124841000D02*
X86741000Y-123444000D01*
X85344000Y-138684000D02*
X88519000Y-141859000D01*
X93726000Y-141859000D02*
X96139000Y-139446000D01*
X88519000Y-141859000D02*
X93726000Y-141859000D01*
X87376000Y-125603000D02*
X82423000Y-130556000D01*
X85344000Y-137922000D02*
X85344000Y-138684000D01*
X82423000Y-135001000D02*
X85344000Y-137922000D01*
X82423000Y-130556000D02*
X82423000Y-135001000D01*
X97263949Y-113030000D02*
X97155000Y-113030000D01*
X97155000Y-113030000D02*
X92075000Y-118110000D01*
X92075000Y-118110000D02*
X86741000Y-123444000D01*
X86741000Y-123444000D02*
X79375000Y-130810000D01*
X97263949Y-113030000D02*
X99060000Y-114826051D01*
D18*
G36*
X95759548Y-110320283D02*
X99175828Y-111377798D01*
X102321640Y-113078732D01*
X105077160Y-115358297D01*
X107337432Y-118129664D01*
X107665502Y-118746674D01*
X107371539Y-118686332D01*
X107011685Y-118683820D01*
X106658198Y-118751251D01*
X106324539Y-118886058D01*
X106023419Y-119083105D01*
X105766308Y-119334887D01*
X105562998Y-119631815D01*
X105421233Y-119962577D01*
X105346413Y-120314575D01*
X105341389Y-120674402D01*
X105406351Y-121028352D01*
X105538825Y-121362943D01*
X105733765Y-121665431D01*
X105983746Y-121924294D01*
X106279247Y-122129673D01*
X106609011Y-122273743D01*
X106960478Y-122351018D01*
X107320262Y-122358555D01*
X107674657Y-122296065D01*
X108010165Y-122165930D01*
X108314006Y-121973106D01*
X108574608Y-121724939D01*
X108782044Y-121430879D01*
X108923631Y-121112871D01*
X109016363Y-121287274D01*
X110050003Y-124710854D01*
X110398980Y-128270000D01*
X110391836Y-128781636D01*
X109943617Y-132329650D01*
X108814789Y-135723034D01*
X108331738Y-136573358D01*
X108336638Y-136525115D01*
X108306314Y-136204326D01*
X108214260Y-135895537D01*
X108063982Y-135610508D01*
X107861203Y-135360097D01*
X107613647Y-135153842D01*
X107330746Y-134999598D01*
X107023271Y-134903242D01*
X106934420Y-134893590D01*
X106946602Y-134853431D01*
X106958862Y-134728949D01*
X106946602Y-134604467D01*
X106910292Y-134484769D01*
X106851327Y-134374455D01*
X106771975Y-134277764D01*
X105335134Y-132840923D01*
X105238443Y-132761571D01*
X105128129Y-132702606D01*
X105008431Y-132666296D01*
X104883949Y-132654036D01*
X104759467Y-132666296D01*
X104639769Y-132702606D01*
X104529455Y-132761571D01*
X104432764Y-132840923D01*
X104342962Y-132930726D01*
X103089219Y-131676983D01*
X106317196Y-131676983D01*
X106382158Y-132030933D01*
X106514632Y-132365524D01*
X106709572Y-132668012D01*
X106959553Y-132926875D01*
X107255054Y-133132254D01*
X107584818Y-133276324D01*
X107936285Y-133353599D01*
X108296069Y-133361136D01*
X108650464Y-133298646D01*
X108985972Y-133168511D01*
X109289813Y-132975687D01*
X109550415Y-132727520D01*
X109757851Y-132433460D01*
X109904221Y-132104710D01*
X109983947Y-131753790D01*
X109989687Y-131342760D01*
X109919789Y-130989751D01*
X109782657Y-130657042D01*
X109583512Y-130357305D01*
X109329941Y-130101958D01*
X109031601Y-129900725D01*
X108699858Y-129761273D01*
X108347346Y-129688913D01*
X107987492Y-129686401D01*
X107634005Y-129753832D01*
X107300346Y-129888639D01*
X106999226Y-130085686D01*
X106742115Y-130337468D01*
X106538805Y-130634396D01*
X106397040Y-130965158D01*
X106322220Y-131317156D01*
X106317196Y-131676983D01*
X103089219Y-131676983D01*
X99511809Y-128099573D01*
X99511809Y-123331434D01*
X99758014Y-123175187D01*
X100018616Y-122927020D01*
X100226052Y-122632960D01*
X100372422Y-122304210D01*
X100452148Y-121953290D01*
X100457888Y-121542260D01*
X100387990Y-121189251D01*
X100250858Y-120856542D01*
X100051713Y-120556805D01*
X99798142Y-120301458D01*
X99499802Y-120100225D01*
X99168059Y-119960773D01*
X98815547Y-119888413D01*
X98455693Y-119885901D01*
X98102206Y-119953332D01*
X97768547Y-120088139D01*
X97467427Y-120285186D01*
X97210316Y-120536968D01*
X97007006Y-120833896D01*
X96865241Y-121164658D01*
X96790421Y-121516656D01*
X96785397Y-121876483D01*
X96850359Y-122230433D01*
X96982833Y-122565024D01*
X97177773Y-122867512D01*
X97427754Y-123126375D01*
X97723255Y-123331754D01*
X97733809Y-123336365D01*
X97733809Y-128467809D01*
X97741820Y-128549513D01*
X97748979Y-128631342D01*
X97750284Y-128635834D01*
X97750740Y-128640483D01*
X97774474Y-128719093D01*
X97797386Y-128797955D01*
X97799536Y-128802103D01*
X97800888Y-128806581D01*
X97839456Y-128879118D01*
X97877231Y-128951993D01*
X97880147Y-128955646D01*
X97882342Y-128959774D01*
X97934251Y-129023420D01*
X97985476Y-129087589D01*
X97991893Y-129094097D01*
X97992001Y-129094229D01*
X97992124Y-129094330D01*
X97994191Y-129096427D01*
X103085726Y-134187962D01*
X102995923Y-134277764D01*
X102916571Y-134374455D01*
X102857606Y-134484769D01*
X102821296Y-134604467D01*
X102809036Y-134728949D01*
X102821296Y-134853431D01*
X102857606Y-134973129D01*
X102916571Y-135083443D01*
X102995923Y-135180134D01*
X103733847Y-135918058D01*
X103613132Y-135867314D01*
X103010884Y-135743690D01*
X102396094Y-135739398D01*
X101792179Y-135854601D01*
X101222141Y-136084911D01*
X100707694Y-136421556D01*
X100268433Y-136851712D01*
X99921088Y-137358997D01*
X99678890Y-137924086D01*
X99551065Y-138525456D01*
X99542481Y-139140201D01*
X99653465Y-139744906D01*
X99728412Y-139934201D01*
X98876185Y-139081974D01*
X98779494Y-139002622D01*
X98669180Y-138943657D01*
X98549482Y-138907347D01*
X98524870Y-138904923D01*
X98524870Y-133830870D01*
X98516859Y-133749166D01*
X98509700Y-133667337D01*
X98508395Y-133662845D01*
X98507939Y-133658196D01*
X98484205Y-133579586D01*
X98461293Y-133500724D01*
X98459143Y-133496577D01*
X98457791Y-133492098D01*
X98419202Y-133419522D01*
X98381447Y-133346686D01*
X98378534Y-133343037D01*
X98376337Y-133338905D01*
X98324406Y-133275232D01*
X98273203Y-133211090D01*
X98266786Y-133204582D01*
X98266678Y-133204450D01*
X98266555Y-133204349D01*
X98264488Y-133202252D01*
X94951367Y-129889131D01*
X95014497Y-129611257D01*
X95020237Y-129200227D01*
X94950339Y-128847218D01*
X94813207Y-128514509D01*
X94614062Y-128214772D01*
X94360491Y-127959425D01*
X94062151Y-127758192D01*
X93730408Y-127618740D01*
X93377896Y-127546380D01*
X93018042Y-127543868D01*
X92664555Y-127611299D01*
X92330896Y-127746106D01*
X92029776Y-127943153D01*
X91772665Y-128194935D01*
X91569355Y-128491863D01*
X91427590Y-128822625D01*
X91352770Y-129174623D01*
X91347746Y-129534450D01*
X91412708Y-129888400D01*
X91545182Y-130222991D01*
X91740122Y-130525479D01*
X91990103Y-130784342D01*
X92285604Y-130989721D01*
X92615368Y-131133791D01*
X92966835Y-131211066D01*
X93326619Y-131218603D01*
X93681014Y-131156113D01*
X93697487Y-131149723D01*
X96746870Y-134199106D01*
X96746870Y-140180870D01*
X96754881Y-140262574D01*
X96757965Y-140297824D01*
X96536974Y-140518815D01*
X96457622Y-140615506D01*
X96398657Y-140725820D01*
X96362347Y-140845518D01*
X96350087Y-140970000D01*
X96362347Y-141094482D01*
X96398657Y-141214180D01*
X96457622Y-141324494D01*
X96536974Y-141421185D01*
X97973815Y-142858026D01*
X98070506Y-142937378D01*
X98180820Y-142996343D01*
X98300518Y-143032653D01*
X98425000Y-143044913D01*
X98549482Y-143032653D01*
X98588507Y-143020815D01*
X98594737Y-143086725D01*
X98686791Y-143395514D01*
X98837069Y-143680543D01*
X99039848Y-143930954D01*
X99287404Y-144137209D01*
X99570305Y-144291452D01*
X99877780Y-144387809D01*
X100198114Y-144422608D01*
X100519106Y-144394525D01*
X100710937Y-144338793D01*
X98701401Y-145353883D01*
X96797160Y-145885557D01*
X96816450Y-145873315D01*
X97077052Y-145625148D01*
X97284488Y-145331088D01*
X97430858Y-145002338D01*
X97510584Y-144651418D01*
X97516324Y-144240388D01*
X97446426Y-143887379D01*
X97309294Y-143554670D01*
X97110149Y-143254933D01*
X96856578Y-142999586D01*
X96558238Y-142798353D01*
X96226495Y-142658901D01*
X95873983Y-142586541D01*
X95514129Y-142584029D01*
X95160642Y-142651460D01*
X94826983Y-142786267D01*
X94525863Y-142983314D01*
X94268752Y-143235096D01*
X94065442Y-143532024D01*
X93923677Y-143862786D01*
X93848857Y-144214784D01*
X93843833Y-144574611D01*
X93908795Y-144928561D01*
X94041269Y-145263152D01*
X94236209Y-145565640D01*
X94486190Y-145824503D01*
X94781691Y-146029882D01*
X95111455Y-146173952D01*
X95462922Y-146251227D01*
X95485763Y-146251705D01*
X95256926Y-146315598D01*
X91691252Y-146589961D01*
X88140194Y-146166523D01*
X84739012Y-145061412D01*
X81617256Y-143316722D01*
X78893832Y-140998906D01*
X77420641Y-139140201D01*
X78329277Y-139140201D01*
X78440261Y-139744906D01*
X78666586Y-140316538D01*
X78999631Y-140833322D01*
X79426711Y-141275576D01*
X79931558Y-141626454D01*
X80494942Y-141872591D01*
X81095405Y-142004611D01*
X81710076Y-142017487D01*
X82315541Y-141910727D01*
X82888738Y-141688398D01*
X83407836Y-141358969D01*
X83853060Y-140934987D01*
X84207454Y-140432602D01*
X84457518Y-139870950D01*
X84593727Y-139271423D01*
X84603533Y-138569199D01*
X84484116Y-137966103D01*
X84249832Y-137397687D01*
X83909604Y-136885603D01*
X83476391Y-136449355D01*
X82966695Y-136105560D01*
X82399928Y-135867314D01*
X81797680Y-135743690D01*
X81182890Y-135739398D01*
X80578975Y-135854601D01*
X80008937Y-136084911D01*
X79494490Y-136421556D01*
X79055229Y-136851712D01*
X78707884Y-137358997D01*
X78465686Y-137924086D01*
X78337861Y-138525456D01*
X78329277Y-139140201D01*
X77420641Y-139140201D01*
X76672474Y-138196250D01*
X76462077Y-137786862D01*
X76752876Y-137850798D01*
X77112660Y-137858335D01*
X77467055Y-137795845D01*
X77802563Y-137665710D01*
X78106404Y-137472886D01*
X78367006Y-137224719D01*
X78574442Y-136930659D01*
X78720812Y-136601909D01*
X78800538Y-136250989D01*
X78806278Y-135839959D01*
X78736380Y-135486950D01*
X78599248Y-135154241D01*
X78478235Y-134972101D01*
X83689779Y-134972101D01*
X83754741Y-135326051D01*
X83887215Y-135660642D01*
X84082155Y-135963130D01*
X84332136Y-136221993D01*
X84627637Y-136427372D01*
X84957401Y-136571442D01*
X85308868Y-136648717D01*
X85668652Y-136656254D01*
X86023047Y-136593764D01*
X86358555Y-136463629D01*
X86662396Y-136270805D01*
X86922998Y-136022638D01*
X87130434Y-135728578D01*
X87276804Y-135399828D01*
X87356530Y-135048908D01*
X87362270Y-134637878D01*
X87292372Y-134284869D01*
X87155240Y-133952160D01*
X86956095Y-133652423D01*
X86702524Y-133397076D01*
X86404184Y-133195843D01*
X86072441Y-133056391D01*
X85719929Y-132984031D01*
X85360075Y-132981519D01*
X85006588Y-133048950D01*
X84672929Y-133183757D01*
X84371809Y-133380804D01*
X84114698Y-133632586D01*
X83911388Y-133929514D01*
X83769623Y-134260276D01*
X83694803Y-134612274D01*
X83689779Y-134972101D01*
X78478235Y-134972101D01*
X78400103Y-134854504D01*
X78146532Y-134599157D01*
X77848192Y-134397924D01*
X77516449Y-134258472D01*
X77163937Y-134186112D01*
X76804083Y-134183600D01*
X76450596Y-134251031D01*
X76116937Y-134385838D01*
X75815817Y-134582885D01*
X75558706Y-134834667D01*
X75355396Y-135131595D01*
X75238101Y-135405263D01*
X75037794Y-135015507D01*
X74062624Y-131614681D01*
X86955475Y-131614681D01*
X87023977Y-131987920D01*
X87163671Y-132340745D01*
X87369234Y-132659718D01*
X87632839Y-132932688D01*
X87944443Y-133149258D01*
X88292178Y-133301180D01*
X88662799Y-133382666D01*
X89042189Y-133390613D01*
X89415897Y-133324719D01*
X89769689Y-133187492D01*
X90090088Y-132984160D01*
X90364892Y-132722468D01*
X90583633Y-132412383D01*
X90737978Y-132065717D01*
X90822050Y-131695674D01*
X90828102Y-131262244D01*
X90754396Y-130889998D01*
X90609790Y-130539158D01*
X90399792Y-130223087D01*
X90132403Y-129953824D01*
X89817805Y-129741625D01*
X89467983Y-129594573D01*
X89096260Y-129518269D01*
X88716796Y-129515620D01*
X88344045Y-129586726D01*
X87992203Y-129728880D01*
X87674674Y-129936665D01*
X87403551Y-130202169D01*
X87189161Y-130515277D01*
X87039670Y-130864064D01*
X86960773Y-131235245D01*
X86955475Y-131614681D01*
X74062624Y-131614681D01*
X74052056Y-131577829D01*
X73752806Y-128014157D01*
X74062775Y-125250719D01*
X93319437Y-125250719D01*
X93387939Y-125623958D01*
X93527633Y-125976783D01*
X93733196Y-126295756D01*
X93996801Y-126568726D01*
X94308405Y-126785296D01*
X94656140Y-126937218D01*
X95026761Y-127018704D01*
X95406151Y-127026651D01*
X95779859Y-126960757D01*
X96133651Y-126823530D01*
X96454050Y-126620198D01*
X96728854Y-126358506D01*
X96947595Y-126048421D01*
X97101940Y-125701755D01*
X97186012Y-125331712D01*
X97192064Y-124898282D01*
X97118358Y-124526036D01*
X96973752Y-124175196D01*
X96763754Y-123859125D01*
X96496365Y-123589862D01*
X96181767Y-123377663D01*
X95831945Y-123230611D01*
X95460222Y-123154307D01*
X95080758Y-123151658D01*
X94708007Y-123222764D01*
X94356165Y-123364918D01*
X94038636Y-123572703D01*
X93767513Y-123838207D01*
X93553123Y-124151315D01*
X93403632Y-124500102D01*
X93324735Y-124871283D01*
X93319437Y-125250719D01*
X74062775Y-125250719D01*
X74151443Y-124460230D01*
X75158717Y-121284896D01*
X75813351Y-121284896D01*
X75843675Y-121605685D01*
X75935729Y-121914474D01*
X76086007Y-122199503D01*
X76288786Y-122449914D01*
X76536342Y-122656169D01*
X76819243Y-122810412D01*
X77126718Y-122906769D01*
X77215569Y-122916421D01*
X77203387Y-122956580D01*
X77191127Y-123081062D01*
X77203387Y-123205544D01*
X77239697Y-123325242D01*
X77298662Y-123435556D01*
X77378014Y-123532247D01*
X78814855Y-124969088D01*
X78911546Y-125048440D01*
X79021860Y-125107405D01*
X79141558Y-125143715D01*
X79266040Y-125155975D01*
X79390522Y-125143715D01*
X79510220Y-125107405D01*
X79620534Y-125048440D01*
X79717225Y-124969088D01*
X81154066Y-123532247D01*
X81233418Y-123435556D01*
X81292383Y-123325242D01*
X81328693Y-123205544D01*
X81340953Y-123081062D01*
X81328693Y-122956580D01*
X81292383Y-122836882D01*
X81233418Y-122726568D01*
X81154066Y-122629877D01*
X80400672Y-121876483D01*
X83689779Y-121876483D01*
X83754741Y-122230433D01*
X83887215Y-122565024D01*
X84082155Y-122867512D01*
X84332136Y-123126375D01*
X84627637Y-123331754D01*
X84957401Y-123475824D01*
X85308868Y-123553099D01*
X85668652Y-123560636D01*
X86023047Y-123498146D01*
X86358555Y-123368011D01*
X86662396Y-123175187D01*
X86922998Y-122927020D01*
X87130434Y-122632960D01*
X87276804Y-122304210D01*
X87356530Y-121953290D01*
X87362270Y-121542260D01*
X87292372Y-121189251D01*
X87155240Y-120856542D01*
X86956095Y-120556805D01*
X86702524Y-120301458D01*
X86404184Y-120100225D01*
X86072441Y-119960773D01*
X85719929Y-119888413D01*
X85360075Y-119885901D01*
X85006588Y-119953332D01*
X84672929Y-120088139D01*
X84371809Y-120285186D01*
X84114698Y-120536968D01*
X83911388Y-120833896D01*
X83769623Y-121164658D01*
X83694803Y-121516656D01*
X83689779Y-121876483D01*
X80400672Y-121876483D01*
X79717225Y-121193036D01*
X79620534Y-121113684D01*
X79510220Y-121054719D01*
X79390522Y-121018409D01*
X79266040Y-121006149D01*
X79141558Y-121018409D01*
X79102533Y-121030247D01*
X79096303Y-120964337D01*
X79004249Y-120655548D01*
X78853971Y-120370519D01*
X78651192Y-120120108D01*
X78403636Y-119913853D01*
X78120735Y-119759609D01*
X77813260Y-119663253D01*
X77492926Y-119628454D01*
X77171934Y-119656537D01*
X76862509Y-119746433D01*
X76576438Y-119894718D01*
X76324618Y-120095743D01*
X76308204Y-120111930D01*
X76296908Y-120123226D01*
X76092386Y-120372215D01*
X75940121Y-120656187D01*
X75845914Y-120964326D01*
X75813351Y-121284896D01*
X75158717Y-121284896D01*
X75232782Y-121051416D01*
X76950446Y-117926997D01*
X78329277Y-117926997D01*
X78440261Y-118531702D01*
X78666586Y-119103334D01*
X78999631Y-119620118D01*
X79426711Y-120062372D01*
X79931558Y-120413250D01*
X80494942Y-120659387D01*
X81095405Y-120791407D01*
X81710076Y-120804283D01*
X82315541Y-120697523D01*
X82888738Y-120475194D01*
X83407836Y-120145765D01*
X83853060Y-119721783D01*
X84207454Y-119219398D01*
X84457518Y-118657746D01*
X84593727Y-118058219D01*
X84603533Y-117355995D01*
X84484116Y-116752899D01*
X84249832Y-116184483D01*
X83909604Y-115672399D01*
X83476391Y-115236151D01*
X82966695Y-114892356D01*
X82399928Y-114654110D01*
X81797680Y-114530486D01*
X81182890Y-114526194D01*
X80578975Y-114641397D01*
X80008937Y-114871707D01*
X79494490Y-115208352D01*
X79055229Y-115638508D01*
X78707884Y-116145793D01*
X78465686Y-116710882D01*
X78337861Y-117312252D01*
X78329277Y-117926997D01*
X76950446Y-117926997D01*
X76955637Y-117917556D01*
X79254383Y-115178017D01*
X81000833Y-113773834D01*
X82907311Y-113773834D01*
X82937635Y-114094623D01*
X83029689Y-114403412D01*
X83179967Y-114688441D01*
X83382746Y-114938852D01*
X83630302Y-115145107D01*
X83913203Y-115299350D01*
X84220678Y-115395707D01*
X84309529Y-115405359D01*
X84297347Y-115445518D01*
X84285087Y-115570000D01*
X84297347Y-115694482D01*
X84333657Y-115814180D01*
X84392622Y-115924494D01*
X84471974Y-116021185D01*
X85908815Y-117458026D01*
X86005506Y-117537378D01*
X86115820Y-117596343D01*
X86235518Y-117632653D01*
X86360000Y-117644913D01*
X86484482Y-117632653D01*
X86604180Y-117596343D01*
X86714494Y-117537378D01*
X86811185Y-117458026D01*
X88248026Y-116021185D01*
X88292326Y-115967205D01*
X98098451Y-115967205D01*
X98195186Y-116232429D01*
X98371101Y-116326462D01*
X98677054Y-116432030D01*
X98997723Y-116475880D01*
X99320786Y-116456329D01*
X99633826Y-116374126D01*
X99873177Y-116257576D01*
X99678890Y-116710882D01*
X99551065Y-117312252D01*
X99542481Y-117926997D01*
X99653465Y-118531702D01*
X99879790Y-119103334D01*
X100212835Y-119620118D01*
X100639915Y-120062372D01*
X101144762Y-120413250D01*
X101708146Y-120659387D01*
X102308609Y-120791407D01*
X102923280Y-120804283D01*
X103528745Y-120697523D01*
X104101942Y-120475194D01*
X104621040Y-120145765D01*
X105066264Y-119721783D01*
X105420658Y-119219398D01*
X105670722Y-118657746D01*
X105806931Y-118058219D01*
X105816737Y-117355995D01*
X105697320Y-116752899D01*
X105463036Y-116184483D01*
X105122808Y-115672399D01*
X104689595Y-115236151D01*
X104179899Y-114892356D01*
X103613132Y-114654110D01*
X103010884Y-114530486D01*
X102396094Y-114526194D01*
X101792179Y-114641397D01*
X101222141Y-114871707D01*
X100707694Y-115208352D01*
X100641294Y-115273376D01*
X100690278Y-115086837D01*
X100709829Y-114763774D01*
X100665979Y-114443105D01*
X100560411Y-114137152D01*
X100466378Y-113961237D01*
X100201154Y-113864502D01*
X99239605Y-114826051D01*
X99253748Y-114840194D01*
X99074143Y-115019799D01*
X99060000Y-115005656D01*
X98098451Y-115967205D01*
X88292326Y-115967205D01*
X88327378Y-115924494D01*
X88386343Y-115814180D01*
X88422653Y-115694482D01*
X88434913Y-115570000D01*
X88422653Y-115445518D01*
X88386343Y-115325820D01*
X88327378Y-115215506D01*
X88248026Y-115118815D01*
X87304194Y-114174983D01*
X96298571Y-114174983D01*
X96298571Y-114399489D01*
X96859160Y-114960078D01*
X96963164Y-115029571D01*
X97078726Y-115077438D01*
X97201407Y-115101841D01*
X97326491Y-115101841D01*
X97436379Y-115079983D01*
X97454021Y-115208997D01*
X97559589Y-115514950D01*
X97653622Y-115690865D01*
X97918846Y-115787600D01*
X98880395Y-114826051D01*
X97263949Y-113209605D01*
X96298571Y-114174983D01*
X87304194Y-114174983D01*
X86811185Y-113681974D01*
X86714494Y-113602622D01*
X86604180Y-113543657D01*
X86484482Y-113507347D01*
X86360000Y-113495087D01*
X86235518Y-113507347D01*
X86196493Y-113519185D01*
X86190263Y-113453275D01*
X86098209Y-113144486D01*
X85947931Y-112859457D01*
X85745152Y-112609046D01*
X85497596Y-112402791D01*
X85214695Y-112248547D01*
X84907220Y-112152191D01*
X84586886Y-112117392D01*
X84265894Y-112145475D01*
X83956469Y-112235371D01*
X83670398Y-112383656D01*
X83418578Y-112584681D01*
X83402164Y-112600868D01*
X83390868Y-112612164D01*
X83186346Y-112861153D01*
X83034081Y-113145125D01*
X82939874Y-113453264D01*
X82907311Y-113773834D01*
X81000833Y-113773834D01*
X82041462Y-112937147D01*
X85210716Y-111280302D01*
X87372306Y-110644111D01*
X87313373Y-110682676D01*
X87056262Y-110934458D01*
X86852952Y-111231386D01*
X86711187Y-111562148D01*
X86636367Y-111914146D01*
X86631343Y-112273973D01*
X86696305Y-112627923D01*
X86828779Y-112962514D01*
X87023719Y-113265002D01*
X87273700Y-113523865D01*
X87569201Y-113729244D01*
X87898965Y-113873314D01*
X88250432Y-113950589D01*
X88610216Y-113958126D01*
X88964611Y-113895636D01*
X89300119Y-113765501D01*
X89603960Y-113572677D01*
X89864562Y-113324510D01*
X90071998Y-113030450D01*
X90100044Y-112967458D01*
X95192108Y-112967458D01*
X95192108Y-113092542D01*
X95216511Y-113215223D01*
X95264378Y-113330785D01*
X95333871Y-113434789D01*
X95894460Y-113995378D01*
X96118966Y-113995378D01*
X97084344Y-113030000D01*
X97443554Y-113030000D01*
X99060000Y-114646446D01*
X100021549Y-113684897D01*
X99924814Y-113419673D01*
X99748899Y-113325640D01*
X99442946Y-113220072D01*
X99313932Y-113202430D01*
X99335790Y-113092542D01*
X99335790Y-112967458D01*
X99311387Y-112844777D01*
X99263520Y-112729215D01*
X99194027Y-112625211D01*
X98633438Y-112064622D01*
X98408932Y-112064622D01*
X97443554Y-113030000D01*
X97084344Y-113030000D01*
X96118966Y-112064622D01*
X95894460Y-112064622D01*
X95333871Y-112625211D01*
X95264378Y-112729215D01*
X95216511Y-112844777D01*
X95192108Y-112967458D01*
X90100044Y-112967458D01*
X90218368Y-112701700D01*
X90298094Y-112350780D01*
X90303834Y-111939750D01*
X90248543Y-111660511D01*
X96298571Y-111660511D01*
X96298571Y-111885017D01*
X97263949Y-112850395D01*
X98229327Y-111885017D01*
X98229327Y-111660511D01*
X97668738Y-111099922D01*
X97564734Y-111030429D01*
X97449172Y-110982562D01*
X97326491Y-110958159D01*
X97201407Y-110958159D01*
X97078726Y-110982562D01*
X96963164Y-111030429D01*
X96859160Y-111099922D01*
X96298571Y-111660511D01*
X90248543Y-111660511D01*
X90233936Y-111586741D01*
X90096804Y-111254032D01*
X89897659Y-110954295D01*
X89644088Y-110698948D01*
X89345748Y-110497715D01*
X89014005Y-110358263D01*
X88661493Y-110285903D01*
X88591064Y-110285411D01*
X88641429Y-110270588D01*
X92202924Y-109946467D01*
X95759548Y-110320283D01*
X95759548Y-110320283D01*
G37*
X95759548Y-110320283D02*
X99175828Y-111377798D01*
X102321640Y-113078732D01*
X105077160Y-115358297D01*
X107337432Y-118129664D01*
X107665502Y-118746674D01*
X107371539Y-118686332D01*
X107011685Y-118683820D01*
X106658198Y-118751251D01*
X106324539Y-118886058D01*
X106023419Y-119083105D01*
X105766308Y-119334887D01*
X105562998Y-119631815D01*
X105421233Y-119962577D01*
X105346413Y-120314575D01*
X105341389Y-120674402D01*
X105406351Y-121028352D01*
X105538825Y-121362943D01*
X105733765Y-121665431D01*
X105983746Y-121924294D01*
X106279247Y-122129673D01*
X106609011Y-122273743D01*
X106960478Y-122351018D01*
X107320262Y-122358555D01*
X107674657Y-122296065D01*
X108010165Y-122165930D01*
X108314006Y-121973106D01*
X108574608Y-121724939D01*
X108782044Y-121430879D01*
X108923631Y-121112871D01*
X109016363Y-121287274D01*
X110050003Y-124710854D01*
X110398980Y-128270000D01*
X110391836Y-128781636D01*
X109943617Y-132329650D01*
X108814789Y-135723034D01*
X108331738Y-136573358D01*
X108336638Y-136525115D01*
X108306314Y-136204326D01*
X108214260Y-135895537D01*
X108063982Y-135610508D01*
X107861203Y-135360097D01*
X107613647Y-135153842D01*
X107330746Y-134999598D01*
X107023271Y-134903242D01*
X106934420Y-134893590D01*
X106946602Y-134853431D01*
X106958862Y-134728949D01*
X106946602Y-134604467D01*
X106910292Y-134484769D01*
X106851327Y-134374455D01*
X106771975Y-134277764D01*
X105335134Y-132840923D01*
X105238443Y-132761571D01*
X105128129Y-132702606D01*
X105008431Y-132666296D01*
X104883949Y-132654036D01*
X104759467Y-132666296D01*
X104639769Y-132702606D01*
X104529455Y-132761571D01*
X104432764Y-132840923D01*
X104342962Y-132930726D01*
X103089219Y-131676983D01*
X106317196Y-131676983D01*
X106382158Y-132030933D01*
X106514632Y-132365524D01*
X106709572Y-132668012D01*
X106959553Y-132926875D01*
X107255054Y-133132254D01*
X107584818Y-133276324D01*
X107936285Y-133353599D01*
X108296069Y-133361136D01*
X108650464Y-133298646D01*
X108985972Y-133168511D01*
X109289813Y-132975687D01*
X109550415Y-132727520D01*
X109757851Y-132433460D01*
X109904221Y-132104710D01*
X109983947Y-131753790D01*
X109989687Y-131342760D01*
X109919789Y-130989751D01*
X109782657Y-130657042D01*
X109583512Y-130357305D01*
X109329941Y-130101958D01*
X109031601Y-129900725D01*
X108699858Y-129761273D01*
X108347346Y-129688913D01*
X107987492Y-129686401D01*
X107634005Y-129753832D01*
X107300346Y-129888639D01*
X106999226Y-130085686D01*
X106742115Y-130337468D01*
X106538805Y-130634396D01*
X106397040Y-130965158D01*
X106322220Y-131317156D01*
X106317196Y-131676983D01*
X103089219Y-131676983D01*
X99511809Y-128099573D01*
X99511809Y-123331434D01*
X99758014Y-123175187D01*
X100018616Y-122927020D01*
X100226052Y-122632960D01*
X100372422Y-122304210D01*
X100452148Y-121953290D01*
X100457888Y-121542260D01*
X100387990Y-121189251D01*
X100250858Y-120856542D01*
X100051713Y-120556805D01*
X99798142Y-120301458D01*
X99499802Y-120100225D01*
X99168059Y-119960773D01*
X98815547Y-119888413D01*
X98455693Y-119885901D01*
X98102206Y-119953332D01*
X97768547Y-120088139D01*
X97467427Y-120285186D01*
X97210316Y-120536968D01*
X97007006Y-120833896D01*
X96865241Y-121164658D01*
X96790421Y-121516656D01*
X96785397Y-121876483D01*
X96850359Y-122230433D01*
X96982833Y-122565024D01*
X97177773Y-122867512D01*
X97427754Y-123126375D01*
X97723255Y-123331754D01*
X97733809Y-123336365D01*
X97733809Y-128467809D01*
X97741820Y-128549513D01*
X97748979Y-128631342D01*
X97750284Y-128635834D01*
X97750740Y-128640483D01*
X97774474Y-128719093D01*
X97797386Y-128797955D01*
X97799536Y-128802103D01*
X97800888Y-128806581D01*
X97839456Y-128879118D01*
X97877231Y-128951993D01*
X97880147Y-128955646D01*
X97882342Y-128959774D01*
X97934251Y-129023420D01*
X97985476Y-129087589D01*
X97991893Y-129094097D01*
X97992001Y-129094229D01*
X97992124Y-129094330D01*
X97994191Y-129096427D01*
X103085726Y-134187962D01*
X102995923Y-134277764D01*
X102916571Y-134374455D01*
X102857606Y-134484769D01*
X102821296Y-134604467D01*
X102809036Y-134728949D01*
X102821296Y-134853431D01*
X102857606Y-134973129D01*
X102916571Y-135083443D01*
X102995923Y-135180134D01*
X103733847Y-135918058D01*
X103613132Y-135867314D01*
X103010884Y-135743690D01*
X102396094Y-135739398D01*
X101792179Y-135854601D01*
X101222141Y-136084911D01*
X100707694Y-136421556D01*
X100268433Y-136851712D01*
X99921088Y-137358997D01*
X99678890Y-137924086D01*
X99551065Y-138525456D01*
X99542481Y-139140201D01*
X99653465Y-139744906D01*
X99728412Y-139934201D01*
X98876185Y-139081974D01*
X98779494Y-139002622D01*
X98669180Y-138943657D01*
X98549482Y-138907347D01*
X98524870Y-138904923D01*
X98524870Y-133830870D01*
X98516859Y-133749166D01*
X98509700Y-133667337D01*
X98508395Y-133662845D01*
X98507939Y-133658196D01*
X98484205Y-133579586D01*
X98461293Y-133500724D01*
X98459143Y-133496577D01*
X98457791Y-133492098D01*
X98419202Y-133419522D01*
X98381447Y-133346686D01*
X98378534Y-133343037D01*
X98376337Y-133338905D01*
X98324406Y-133275232D01*
X98273203Y-133211090D01*
X98266786Y-133204582D01*
X98266678Y-133204450D01*
X98266555Y-133204349D01*
X98264488Y-133202252D01*
X94951367Y-129889131D01*
X95014497Y-129611257D01*
X95020237Y-129200227D01*
X94950339Y-128847218D01*
X94813207Y-128514509D01*
X94614062Y-128214772D01*
X94360491Y-127959425D01*
X94062151Y-127758192D01*
X93730408Y-127618740D01*
X93377896Y-127546380D01*
X93018042Y-127543868D01*
X92664555Y-127611299D01*
X92330896Y-127746106D01*
X92029776Y-127943153D01*
X91772665Y-128194935D01*
X91569355Y-128491863D01*
X91427590Y-128822625D01*
X91352770Y-129174623D01*
X91347746Y-129534450D01*
X91412708Y-129888400D01*
X91545182Y-130222991D01*
X91740122Y-130525479D01*
X91990103Y-130784342D01*
X92285604Y-130989721D01*
X92615368Y-131133791D01*
X92966835Y-131211066D01*
X93326619Y-131218603D01*
X93681014Y-131156113D01*
X93697487Y-131149723D01*
X96746870Y-134199106D01*
X96746870Y-140180870D01*
X96754881Y-140262574D01*
X96757965Y-140297824D01*
X96536974Y-140518815D01*
X96457622Y-140615506D01*
X96398657Y-140725820D01*
X96362347Y-140845518D01*
X96350087Y-140970000D01*
X96362347Y-141094482D01*
X96398657Y-141214180D01*
X96457622Y-141324494D01*
X96536974Y-141421185D01*
X97973815Y-142858026D01*
X98070506Y-142937378D01*
X98180820Y-142996343D01*
X98300518Y-143032653D01*
X98425000Y-143044913D01*
X98549482Y-143032653D01*
X98588507Y-143020815D01*
X98594737Y-143086725D01*
X98686791Y-143395514D01*
X98837069Y-143680543D01*
X99039848Y-143930954D01*
X99287404Y-144137209D01*
X99570305Y-144291452D01*
X99877780Y-144387809D01*
X100198114Y-144422608D01*
X100519106Y-144394525D01*
X100710937Y-144338793D01*
X98701401Y-145353883D01*
X96797160Y-145885557D01*
X96816450Y-145873315D01*
X97077052Y-145625148D01*
X97284488Y-145331088D01*
X97430858Y-145002338D01*
X97510584Y-144651418D01*
X97516324Y-144240388D01*
X97446426Y-143887379D01*
X97309294Y-143554670D01*
X97110149Y-143254933D01*
X96856578Y-142999586D01*
X96558238Y-142798353D01*
X96226495Y-142658901D01*
X95873983Y-142586541D01*
X95514129Y-142584029D01*
X95160642Y-142651460D01*
X94826983Y-142786267D01*
X94525863Y-142983314D01*
X94268752Y-143235096D01*
X94065442Y-143532024D01*
X93923677Y-143862786D01*
X93848857Y-144214784D01*
X93843833Y-144574611D01*
X93908795Y-144928561D01*
X94041269Y-145263152D01*
X94236209Y-145565640D01*
X94486190Y-145824503D01*
X94781691Y-146029882D01*
X95111455Y-146173952D01*
X95462922Y-146251227D01*
X95485763Y-146251705D01*
X95256926Y-146315598D01*
X91691252Y-146589961D01*
X88140194Y-146166523D01*
X84739012Y-145061412D01*
X81617256Y-143316722D01*
X78893832Y-140998906D01*
X77420641Y-139140201D01*
X78329277Y-139140201D01*
X78440261Y-139744906D01*
X78666586Y-140316538D01*
X78999631Y-140833322D01*
X79426711Y-141275576D01*
X79931558Y-141626454D01*
X80494942Y-141872591D01*
X81095405Y-142004611D01*
X81710076Y-142017487D01*
X82315541Y-141910727D01*
X82888738Y-141688398D01*
X83407836Y-141358969D01*
X83853060Y-140934987D01*
X84207454Y-140432602D01*
X84457518Y-139870950D01*
X84593727Y-139271423D01*
X84603533Y-138569199D01*
X84484116Y-137966103D01*
X84249832Y-137397687D01*
X83909604Y-136885603D01*
X83476391Y-136449355D01*
X82966695Y-136105560D01*
X82399928Y-135867314D01*
X81797680Y-135743690D01*
X81182890Y-135739398D01*
X80578975Y-135854601D01*
X80008937Y-136084911D01*
X79494490Y-136421556D01*
X79055229Y-136851712D01*
X78707884Y-137358997D01*
X78465686Y-137924086D01*
X78337861Y-138525456D01*
X78329277Y-139140201D01*
X77420641Y-139140201D01*
X76672474Y-138196250D01*
X76462077Y-137786862D01*
X76752876Y-137850798D01*
X77112660Y-137858335D01*
X77467055Y-137795845D01*
X77802563Y-137665710D01*
X78106404Y-137472886D01*
X78367006Y-137224719D01*
X78574442Y-136930659D01*
X78720812Y-136601909D01*
X78800538Y-136250989D01*
X78806278Y-135839959D01*
X78736380Y-135486950D01*
X78599248Y-135154241D01*
X78478235Y-134972101D01*
X83689779Y-134972101D01*
X83754741Y-135326051D01*
X83887215Y-135660642D01*
X84082155Y-135963130D01*
X84332136Y-136221993D01*
X84627637Y-136427372D01*
X84957401Y-136571442D01*
X85308868Y-136648717D01*
X85668652Y-136656254D01*
X86023047Y-136593764D01*
X86358555Y-136463629D01*
X86662396Y-136270805D01*
X86922998Y-136022638D01*
X87130434Y-135728578D01*
X87276804Y-135399828D01*
X87356530Y-135048908D01*
X87362270Y-134637878D01*
X87292372Y-134284869D01*
X87155240Y-133952160D01*
X86956095Y-133652423D01*
X86702524Y-133397076D01*
X86404184Y-133195843D01*
X86072441Y-133056391D01*
X85719929Y-132984031D01*
X85360075Y-132981519D01*
X85006588Y-133048950D01*
X84672929Y-133183757D01*
X84371809Y-133380804D01*
X84114698Y-133632586D01*
X83911388Y-133929514D01*
X83769623Y-134260276D01*
X83694803Y-134612274D01*
X83689779Y-134972101D01*
X78478235Y-134972101D01*
X78400103Y-134854504D01*
X78146532Y-134599157D01*
X77848192Y-134397924D01*
X77516449Y-134258472D01*
X77163937Y-134186112D01*
X76804083Y-134183600D01*
X76450596Y-134251031D01*
X76116937Y-134385838D01*
X75815817Y-134582885D01*
X75558706Y-134834667D01*
X75355396Y-135131595D01*
X75238101Y-135405263D01*
X75037794Y-135015507D01*
X74062624Y-131614681D01*
X86955475Y-131614681D01*
X87023977Y-131987920D01*
X87163671Y-132340745D01*
X87369234Y-132659718D01*
X87632839Y-132932688D01*
X87944443Y-133149258D01*
X88292178Y-133301180D01*
X88662799Y-133382666D01*
X89042189Y-133390613D01*
X89415897Y-133324719D01*
X89769689Y-133187492D01*
X90090088Y-132984160D01*
X90364892Y-132722468D01*
X90583633Y-132412383D01*
X90737978Y-132065717D01*
X90822050Y-131695674D01*
X90828102Y-131262244D01*
X90754396Y-130889998D01*
X90609790Y-130539158D01*
X90399792Y-130223087D01*
X90132403Y-129953824D01*
X89817805Y-129741625D01*
X89467983Y-129594573D01*
X89096260Y-129518269D01*
X88716796Y-129515620D01*
X88344045Y-129586726D01*
X87992203Y-129728880D01*
X87674674Y-129936665D01*
X87403551Y-130202169D01*
X87189161Y-130515277D01*
X87039670Y-130864064D01*
X86960773Y-131235245D01*
X86955475Y-131614681D01*
X74062624Y-131614681D01*
X74052056Y-131577829D01*
X73752806Y-128014157D01*
X74062775Y-125250719D01*
X93319437Y-125250719D01*
X93387939Y-125623958D01*
X93527633Y-125976783D01*
X93733196Y-126295756D01*
X93996801Y-126568726D01*
X94308405Y-126785296D01*
X94656140Y-126937218D01*
X95026761Y-127018704D01*
X95406151Y-127026651D01*
X95779859Y-126960757D01*
X96133651Y-126823530D01*
X96454050Y-126620198D01*
X96728854Y-126358506D01*
X96947595Y-126048421D01*
X97101940Y-125701755D01*
X97186012Y-125331712D01*
X97192064Y-124898282D01*
X97118358Y-124526036D01*
X96973752Y-124175196D01*
X96763754Y-123859125D01*
X96496365Y-123589862D01*
X96181767Y-123377663D01*
X95831945Y-123230611D01*
X95460222Y-123154307D01*
X95080758Y-123151658D01*
X94708007Y-123222764D01*
X94356165Y-123364918D01*
X94038636Y-123572703D01*
X93767513Y-123838207D01*
X93553123Y-124151315D01*
X93403632Y-124500102D01*
X93324735Y-124871283D01*
X93319437Y-125250719D01*
X74062775Y-125250719D01*
X74151443Y-124460230D01*
X75158717Y-121284896D01*
X75813351Y-121284896D01*
X75843675Y-121605685D01*
X75935729Y-121914474D01*
X76086007Y-122199503D01*
X76288786Y-122449914D01*
X76536342Y-122656169D01*
X76819243Y-122810412D01*
X77126718Y-122906769D01*
X77215569Y-122916421D01*
X77203387Y-122956580D01*
X77191127Y-123081062D01*
X77203387Y-123205544D01*
X77239697Y-123325242D01*
X77298662Y-123435556D01*
X77378014Y-123532247D01*
X78814855Y-124969088D01*
X78911546Y-125048440D01*
X79021860Y-125107405D01*
X79141558Y-125143715D01*
X79266040Y-125155975D01*
X79390522Y-125143715D01*
X79510220Y-125107405D01*
X79620534Y-125048440D01*
X79717225Y-124969088D01*
X81154066Y-123532247D01*
X81233418Y-123435556D01*
X81292383Y-123325242D01*
X81328693Y-123205544D01*
X81340953Y-123081062D01*
X81328693Y-122956580D01*
X81292383Y-122836882D01*
X81233418Y-122726568D01*
X81154066Y-122629877D01*
X80400672Y-121876483D01*
X83689779Y-121876483D01*
X83754741Y-122230433D01*
X83887215Y-122565024D01*
X84082155Y-122867512D01*
X84332136Y-123126375D01*
X84627637Y-123331754D01*
X84957401Y-123475824D01*
X85308868Y-123553099D01*
X85668652Y-123560636D01*
X86023047Y-123498146D01*
X86358555Y-123368011D01*
X86662396Y-123175187D01*
X86922998Y-122927020D01*
X87130434Y-122632960D01*
X87276804Y-122304210D01*
X87356530Y-121953290D01*
X87362270Y-121542260D01*
X87292372Y-121189251D01*
X87155240Y-120856542D01*
X86956095Y-120556805D01*
X86702524Y-120301458D01*
X86404184Y-120100225D01*
X86072441Y-119960773D01*
X85719929Y-119888413D01*
X85360075Y-119885901D01*
X85006588Y-119953332D01*
X84672929Y-120088139D01*
X84371809Y-120285186D01*
X84114698Y-120536968D01*
X83911388Y-120833896D01*
X83769623Y-121164658D01*
X83694803Y-121516656D01*
X83689779Y-121876483D01*
X80400672Y-121876483D01*
X79717225Y-121193036D01*
X79620534Y-121113684D01*
X79510220Y-121054719D01*
X79390522Y-121018409D01*
X79266040Y-121006149D01*
X79141558Y-121018409D01*
X79102533Y-121030247D01*
X79096303Y-120964337D01*
X79004249Y-120655548D01*
X78853971Y-120370519D01*
X78651192Y-120120108D01*
X78403636Y-119913853D01*
X78120735Y-119759609D01*
X77813260Y-119663253D01*
X77492926Y-119628454D01*
X77171934Y-119656537D01*
X76862509Y-119746433D01*
X76576438Y-119894718D01*
X76324618Y-120095743D01*
X76308204Y-120111930D01*
X76296908Y-120123226D01*
X76092386Y-120372215D01*
X75940121Y-120656187D01*
X75845914Y-120964326D01*
X75813351Y-121284896D01*
X75158717Y-121284896D01*
X75232782Y-121051416D01*
X76950446Y-117926997D01*
X78329277Y-117926997D01*
X78440261Y-118531702D01*
X78666586Y-119103334D01*
X78999631Y-119620118D01*
X79426711Y-120062372D01*
X79931558Y-120413250D01*
X80494942Y-120659387D01*
X81095405Y-120791407D01*
X81710076Y-120804283D01*
X82315541Y-120697523D01*
X82888738Y-120475194D01*
X83407836Y-120145765D01*
X83853060Y-119721783D01*
X84207454Y-119219398D01*
X84457518Y-118657746D01*
X84593727Y-118058219D01*
X84603533Y-117355995D01*
X84484116Y-116752899D01*
X84249832Y-116184483D01*
X83909604Y-115672399D01*
X83476391Y-115236151D01*
X82966695Y-114892356D01*
X82399928Y-114654110D01*
X81797680Y-114530486D01*
X81182890Y-114526194D01*
X80578975Y-114641397D01*
X80008937Y-114871707D01*
X79494490Y-115208352D01*
X79055229Y-115638508D01*
X78707884Y-116145793D01*
X78465686Y-116710882D01*
X78337861Y-117312252D01*
X78329277Y-117926997D01*
X76950446Y-117926997D01*
X76955637Y-117917556D01*
X79254383Y-115178017D01*
X81000833Y-113773834D01*
X82907311Y-113773834D01*
X82937635Y-114094623D01*
X83029689Y-114403412D01*
X83179967Y-114688441D01*
X83382746Y-114938852D01*
X83630302Y-115145107D01*
X83913203Y-115299350D01*
X84220678Y-115395707D01*
X84309529Y-115405359D01*
X84297347Y-115445518D01*
X84285087Y-115570000D01*
X84297347Y-115694482D01*
X84333657Y-115814180D01*
X84392622Y-115924494D01*
X84471974Y-116021185D01*
X85908815Y-117458026D01*
X86005506Y-117537378D01*
X86115820Y-117596343D01*
X86235518Y-117632653D01*
X86360000Y-117644913D01*
X86484482Y-117632653D01*
X86604180Y-117596343D01*
X86714494Y-117537378D01*
X86811185Y-117458026D01*
X88248026Y-116021185D01*
X88292326Y-115967205D01*
X98098451Y-115967205D01*
X98195186Y-116232429D01*
X98371101Y-116326462D01*
X98677054Y-116432030D01*
X98997723Y-116475880D01*
X99320786Y-116456329D01*
X99633826Y-116374126D01*
X99873177Y-116257576D01*
X99678890Y-116710882D01*
X99551065Y-117312252D01*
X99542481Y-117926997D01*
X99653465Y-118531702D01*
X99879790Y-119103334D01*
X100212835Y-119620118D01*
X100639915Y-120062372D01*
X101144762Y-120413250D01*
X101708146Y-120659387D01*
X102308609Y-120791407D01*
X102923280Y-120804283D01*
X103528745Y-120697523D01*
X104101942Y-120475194D01*
X104621040Y-120145765D01*
X105066264Y-119721783D01*
X105420658Y-119219398D01*
X105670722Y-118657746D01*
X105806931Y-118058219D01*
X105816737Y-117355995D01*
X105697320Y-116752899D01*
X105463036Y-116184483D01*
X105122808Y-115672399D01*
X104689595Y-115236151D01*
X104179899Y-114892356D01*
X103613132Y-114654110D01*
X103010884Y-114530486D01*
X102396094Y-114526194D01*
X101792179Y-114641397D01*
X101222141Y-114871707D01*
X100707694Y-115208352D01*
X100641294Y-115273376D01*
X100690278Y-115086837D01*
X100709829Y-114763774D01*
X100665979Y-114443105D01*
X100560411Y-114137152D01*
X100466378Y-113961237D01*
X100201154Y-113864502D01*
X99239605Y-114826051D01*
X99253748Y-114840194D01*
X99074143Y-115019799D01*
X99060000Y-115005656D01*
X98098451Y-115967205D01*
X88292326Y-115967205D01*
X88327378Y-115924494D01*
X88386343Y-115814180D01*
X88422653Y-115694482D01*
X88434913Y-115570000D01*
X88422653Y-115445518D01*
X88386343Y-115325820D01*
X88327378Y-115215506D01*
X88248026Y-115118815D01*
X87304194Y-114174983D01*
X96298571Y-114174983D01*
X96298571Y-114399489D01*
X96859160Y-114960078D01*
X96963164Y-115029571D01*
X97078726Y-115077438D01*
X97201407Y-115101841D01*
X97326491Y-115101841D01*
X97436379Y-115079983D01*
X97454021Y-115208997D01*
X97559589Y-115514950D01*
X97653622Y-115690865D01*
X97918846Y-115787600D01*
X98880395Y-114826051D01*
X97263949Y-113209605D01*
X96298571Y-114174983D01*
X87304194Y-114174983D01*
X86811185Y-113681974D01*
X86714494Y-113602622D01*
X86604180Y-113543657D01*
X86484482Y-113507347D01*
X86360000Y-113495087D01*
X86235518Y-113507347D01*
X86196493Y-113519185D01*
X86190263Y-113453275D01*
X86098209Y-113144486D01*
X85947931Y-112859457D01*
X85745152Y-112609046D01*
X85497596Y-112402791D01*
X85214695Y-112248547D01*
X84907220Y-112152191D01*
X84586886Y-112117392D01*
X84265894Y-112145475D01*
X83956469Y-112235371D01*
X83670398Y-112383656D01*
X83418578Y-112584681D01*
X83402164Y-112600868D01*
X83390868Y-112612164D01*
X83186346Y-112861153D01*
X83034081Y-113145125D01*
X82939874Y-113453264D01*
X82907311Y-113773834D01*
X81000833Y-113773834D01*
X82041462Y-112937147D01*
X85210716Y-111280302D01*
X87372306Y-110644111D01*
X87313373Y-110682676D01*
X87056262Y-110934458D01*
X86852952Y-111231386D01*
X86711187Y-111562148D01*
X86636367Y-111914146D01*
X86631343Y-112273973D01*
X86696305Y-112627923D01*
X86828779Y-112962514D01*
X87023719Y-113265002D01*
X87273700Y-113523865D01*
X87569201Y-113729244D01*
X87898965Y-113873314D01*
X88250432Y-113950589D01*
X88610216Y-113958126D01*
X88964611Y-113895636D01*
X89300119Y-113765501D01*
X89603960Y-113572677D01*
X89864562Y-113324510D01*
X90071998Y-113030450D01*
X90100044Y-112967458D01*
X95192108Y-112967458D01*
X95192108Y-113092542D01*
X95216511Y-113215223D01*
X95264378Y-113330785D01*
X95333871Y-113434789D01*
X95894460Y-113995378D01*
X96118966Y-113995378D01*
X97084344Y-113030000D01*
X97443554Y-113030000D01*
X99060000Y-114646446D01*
X100021549Y-113684897D01*
X99924814Y-113419673D01*
X99748899Y-113325640D01*
X99442946Y-113220072D01*
X99313932Y-113202430D01*
X99335790Y-113092542D01*
X99335790Y-112967458D01*
X99311387Y-112844777D01*
X99263520Y-112729215D01*
X99194027Y-112625211D01*
X98633438Y-112064622D01*
X98408932Y-112064622D01*
X97443554Y-113030000D01*
X97084344Y-113030000D01*
X96118966Y-112064622D01*
X95894460Y-112064622D01*
X95333871Y-112625211D01*
X95264378Y-112729215D01*
X95216511Y-112844777D01*
X95192108Y-112967458D01*
X90100044Y-112967458D01*
X90218368Y-112701700D01*
X90298094Y-112350780D01*
X90303834Y-111939750D01*
X90248543Y-111660511D01*
X96298571Y-111660511D01*
X96298571Y-111885017D01*
X97263949Y-112850395D01*
X98229327Y-111885017D01*
X98229327Y-111660511D01*
X97668738Y-111099922D01*
X97564734Y-111030429D01*
X97449172Y-110982562D01*
X97326491Y-110958159D01*
X97201407Y-110958159D01*
X97078726Y-110982562D01*
X96963164Y-111030429D01*
X96859160Y-111099922D01*
X96298571Y-111660511D01*
X90248543Y-111660511D01*
X90233936Y-111586741D01*
X90096804Y-111254032D01*
X89897659Y-110954295D01*
X89644088Y-110698948D01*
X89345748Y-110497715D01*
X89014005Y-110358263D01*
X88661493Y-110285903D01*
X88591064Y-110285411D01*
X88641429Y-110270588D01*
X92202924Y-109946467D01*
X95759548Y-110320283D01*
M02*
