  0
SECTION
  2
HEADER
  9
$ACADVER
  1
AC1014
  9
$HANDSEED
  5
FFFF
  9
$MEASUREMENT
 70
     1
  0
ENDSEC
  0
SECTION
  2
TABLES
  0
TABLE
  2
VPORT
  5
8
330
0
100
AcDbSymbolTable
 70
     4
  0
VPORT
  5
2E
330
8
100
AcDbSymbolTableRecord
100
AcDbViewportTableRecord
  2
*ACTIVE
 70
     0
 10
0.0
 20
0.0
 11
1.0
 21
1.0
 12
210.0
 22
148.5
 13
0.0
 23
0.0
 14
10.0
 24
10.0
 15
10.0
 25
10.0
 16
0.0
 26
0.0
 36
1.0
 17
0.0
 27
0.0
 37
0.0
 40
341.0
 41
1.24
 42
50.0
 43
0.0
 44
0.0
 50
0.0
 51
0.0
 71
     0
 72
   100
 73
     1
 74
     3
 75
     0
 76
     0
 77
     0
 78
     0
  0
ENDTAB
  0
TABLE
  2
LTYPE
  5
5
330
0
100
AcDbSymbolTable
 70
     1
  0
LTYPE
  5
14
330
5
100
AcDbSymbolTableRecord
100
AcDbLinetypeTableRecord
  2
BYBLOCK
 70
     0
  3

 72
    65
 73
     0
 40
0.0
  0
LTYPE
  5
15
330
5
100
AcDbSymbolTableRecord
100
AcDbLinetypeTableRecord
  2
BYLAYER
 70
     0
  3

 72
    65
 73
     0
 40
0.0
  0
LTYPE
  5
16
330
5
100
AcDbSymbolTableRecord
100
AcDbLinetypeTableRecord
  2
CONTINUOUS
 70
     0
  3
Solid line
 72
    65
 73
     0
 40
0.0
  0
ENDTAB
  0
TABLE
  2
LAYER
  5
2
100
AcDbSymbolTable
 70
2
  0
LAYER
  5
50
100
AcDbSymbolTableRecord
100
AcDbLayerTableRecord
  2
0
 70
0
  6
CONTINUOUS
  0
LAYER
  5
51
100
AcDbSymbolTableRecord
100
AcDbLayerTableRecord
  2
Layer_1
 70
0
  6
CONTINUOUS
  0
ENDTAB
  0
TABLE
  2
STYLE
  5
3
330
0
100
AcDbSymbolTable
 70
     1
  0
STYLE
  5
11
330
3
100
AcDbSymbolTableRecord
100
AcDbTextStyleTableRecord
  2
STANDARD
 70
     0
 40
0.0
 41
1.0
 50
0.0
 71
     0
 42
2.5
  3
txt
  4

  0
ENDTAB
  0
TABLE
  2
VIEW
  5
6
330
0
100
AcDbSymbolTable
 70
     0
  0
ENDTAB
  0
TABLE
  2
UCS
  5
7
330
0
100
AcDbSymbolTable
 70
     0
  0
ENDTAB
  0
TABLE
  2
APPID
  5
9
330
0
100
AcDbSymbolTable
 70
     2
  0
APPID
  5
12
330
9
100
AcDbSymbolTableRecord
100
AcDbRegAppTableRecord
  2
ACAD
 70
     0
  0
ENDTAB
  0
TABLE
  2
DIMSTYLE
  5
A
330
0
100
AcDbSymbolTable
 70
     1
  0
DIMSTYLE
105
27
330
A
100
AcDbSymbolTableRecord
100
AcDbDimStyleTableRecord
  2
ISO-25
 70
     0
  3

  4

  5

  6

  7

 40
1.0
 41
2.5
 42
0.625
 43
3.75
 44
1.25
 45
0.0
 46
0.0
 47
0.0
 48
0.0
140
2.5
141
2.5
142
0.0
143
0.03937007874016
144
1.0
145
0.0
146
1.0
147
0.625
 71
     0
 72
     0
 73
     0
 74
     0
 75
     0
 76
     0
 77
     1
 78
     8
170
     0
171
     3
172
     1
173
     0
174
     0
175
     0
176
     0
177
     0
178
     0
270
     2
271
     2
272
     2
273
     2
274
     3
340
11
275
     0
280
     0
281
     0
282
     0
283
     0
284
     8
285
     0
286
     0
287
     3
288
     0
  0
ENDTAB
  0
TABLE
  2
BLOCK_RECORD
  5
1
330
0
100
AcDbSymbolTable
 70
     1
  0
BLOCK_RECORD
  5
1F
330
1
100
AcDbSymbolTableRecord
100
AcDbBlockTableRecord
  2
*MODEL_SPACE
  0
BLOCK_RECORD
  5
1B
330
1
100
AcDbSymbolTableRecord
100
AcDbBlockTableRecord
  2
*PAPER_SPACE
  0
ENDTAB
  0
ENDSEC
  0
SECTION
  2
BLOCKS
  0
BLOCK
  5
20
330
1F
100
AcDbEntity
  8
0
100
AcDbBlockBegin
  2
*MODEL_SPACE
 70
     0
 10
0.0
 20
0.0
 30
0.0
  3
*MODEL_SPACE
  1

  0
ENDBLK
  5
21
330
1F
100
AcDbEntity
  8
0
100
AcDbBlockEnd
  0
BLOCK
  5
1C
330
1B
100
AcDbEntity
 67
     1
  8
0
100
AcDbBlockBegin
  2
*PAPER_SPACE
  1

  0
ENDBLK
  5
1D
330
1B
100
AcDbEntity
 67
     1
  8
0
100
AcDbBlockEnd
  0
ENDSEC
  0
SECTION
  2
ENTITIES
  0
LWPOLYLINE
  5
100
100
AcDbEntity
  8
Layer_1
 62
7
100
AcDbPolyline
 90
62
 70
1
 10
-66.689450
 20
-0.790193
 30
0.0
 10
-68.862583
 20
-2.472519
 30
0.0
 10
-69.964562
 20
-4.921531
 30
0.0
 10
-69.889068
 20
-7.605775
 30
0.0
 10
-68.529787
 20
-9.993826
 30
0.0
 10
-66.039819
 20
-12.446789
 30
0.0
 10
-63.615330
 20
-14.979282
 30
0.0
 10
-61.109202
 20
-17.412602
 30
0.0
 10
-58.374328
 20
-19.568018
 30
0.0
 10
-54.690526
 20
-19.998519
 30
0.0
 10
-50.968803
 20
-20.048614
 30
0.0
 10
-47.233936
 20
-19.966882
 30
0.0
 10
-43.510702
 20
-20.001850
 30
0.0
 10
-39.248272
 20
-20.001850
 30
0.0
 10
-34.985841
 20
-20.001850
 30
0.0
 10
-30.723411
 20
-20.001850
 30
0.0
 10
-26.460981
 20
-20.001850
 30
0.0
 10
-23.713007
 20
-22.706075
 30
0.0
 10
-21.036783
 20
-25.497563
 30
0.0
 10
-18.277903
 20
-28.188524
 30
0.0
 10
-15.281961
 20
-30.591138
 30
0.0
 10
-11.598719
 20
-31.021047
 30
0.0
 10
-7.877660
 20
-31.071028
 30
0.0
 10
-4.143494
 20
-30.989382
 30
0.0
 10
-0.420929
 20
-31.024321
 30
0.0
 10
3.421535
 20
-30.997792
 30
0.0
 10
7.272346
 20
-31.056296
 30
0.0
 10
11.115215
 20
-31.033719
 30
0.0
 10
14.933851
 20
-30.764394
 30
0.0
 10
17.303611
 20
-29.550754
 30
0.0
 10
19.316081
 20
-27.757909
 30
0.0
 10
21.184104
 20
-25.741516
 30
0.0
 10
23.120525
 20
-23.857259
 30
0.0
 10
24.221141
 20
-22.823507
 30
0.0
 10
25.257596
 20
-21.635041
 30
0.0
 10
26.355096
 20
-20.593782
 30
0.0
 10
27.638846
 20
-20.001737
 30
0.0
 10
35.072972
 20
-19.987061
 30
0.0
 10
42.511559
 20
-20.017852
 30
0.0
 10
49.946162
 20
-20.008256
 30
0.0
 10
57.368333
 20
-19.871914
 30
0.0
 10
59.949122
 20
-18.849536
 30
0.0
 10
62.091214
 20
-17.057369
 30
0.0
 10
64.043221
 20
-14.951144
 30
0.0
 10
66.053750
 20
-12.986680
 30
0.0
 10
67.891166
 20
-11.204672
 30
0.0
 10
69.561665
 20
-9.198665
 30
0.0
 10
70.555860
 20
-6.933154
 30
0.0
 10
70.364356
 20
-4.372693
 30
0.0
 10
69.179897
 20
-2.233138
 30
0.0
 10
67.212893
 20
-0.928792
 30
0.0
 10
64.823464
 20
-0.343915
 30
0.0
 10
62.371738
 20
-0.362824
 30
0.0
 10
30.562496
 20
-0.369879
 30
0.0
 10
-1.248940
 20
-0.354639
 30
0.0
 10
-33.058385
 20
-0.359719
 30
0.0
 10
-64.861652
 20
-0.427706
 30
0.0
 10
-65.318600
 20
-0.518272
 30
0.0
 10
-65.775549
 20
-0.608865
 30
0.0
 10
-66.232501
 20
-0.699458
 30
0.0
 10
-66.689450
 20
-0.790052
 30
0.0
 10
-66.689450
 20
-0.790193
 30
0.0
  0
ENDSEC
  0
SECTION
  2
OBJECTS
  0
DICTIONARY
  5
C
330
0
100
AcDbDictionary
  3
ACAD_GROUP
350
D
  3
ACAD_MLINESTYLE
350
17
  0
DICTIONARY
  5
D
330
C
100
AcDbDictionary
  0
DICTIONARY
  5
1A
330
C
100
AcDbDictionary
  0
DICTIONARY
  5
17
330
C
100
AcDbDictionary
  3
STANDARD
350
18
  0
DICTIONARY
  5
19
330
C
100
AcDbDictionary
  0
ENDSEC
  0
EOF
