  0
SECTION
  2
HEADER
  9
$ACADVER
  1
AC1014
  9
$HANDSEED
  5
FFFF
  9
$MEASUREMENT
 70
     1
  0
ENDSEC
  0
SECTION
  2
TABLES
  0
TABLE
  2
VPORT
  5
8
330
0
100
AcDbSymbolTable
 70
     4
  0
VPORT
  5
2E
330
8
100
AcDbSymbolTableRecord
100
AcDbViewportTableRecord
  2
*ACTIVE
 70
     0
 10
0.0
 20
0.0
 11
1.0
 21
1.0
 12
210.0
 22
148.5
 13
0.0
 23
0.0
 14
10.0
 24
10.0
 15
10.0
 25
10.0
 16
0.0
 26
0.0
 36
1.0
 17
0.0
 27
0.0
 37
0.0
 40
341.0
 41
1.24
 42
50.0
 43
0.0
 44
0.0
 50
0.0
 51
0.0
 71
     0
 72
   100
 73
     1
 74
     3
 75
     0
 76
     0
 77
     0
 78
     0
  0
ENDTAB
  0
TABLE
  2
LTYPE
  5
5
330
0
100
AcDbSymbolTable
 70
     1
  0
LTYPE
  5
14
330
5
100
AcDbSymbolTableRecord
100
AcDbLinetypeTableRecord
  2
BYBLOCK
 70
     0
  3

 72
    65
 73
     0
 40
0.0
  0
LTYPE
  5
15
330
5
100
AcDbSymbolTableRecord
100
AcDbLinetypeTableRecord
  2
BYLAYER
 70
     0
  3

 72
    65
 73
     0
 40
0.0
  0
LTYPE
  5
16
330
5
100
AcDbSymbolTableRecord
100
AcDbLinetypeTableRecord
  2
CONTINUOUS
 70
     0
  3
Solid line
 72
    65
 73
     0
 40
0.0
  0
ENDTAB
  0
TABLE
  2
LAYER
  5
2
100
AcDbSymbolTable
 70
2
  0
LAYER
  5
50
100
AcDbSymbolTableRecord
100
AcDbLayerTableRecord
  2
0
 70
0
  6
CONTINUOUS
  0
LAYER
  5
51
100
AcDbSymbolTableRecord
100
AcDbLayerTableRecord
  2
Layer_1
 70
0
  6
CONTINUOUS
  0
ENDTAB
  0
TABLE
  2
STYLE
  5
3
330
0
100
AcDbSymbolTable
 70
     1
  0
STYLE
  5
11
330
3
100
AcDbSymbolTableRecord
100
AcDbTextStyleTableRecord
  2
STANDARD
 70
     0
 40
0.0
 41
1.0
 50
0.0
 71
     0
 42
2.5
  3
txt
  4

  0
ENDTAB
  0
TABLE
  2
VIEW
  5
6
330
0
100
AcDbSymbolTable
 70
     0
  0
ENDTAB
  0
TABLE
  2
UCS
  5
7
330
0
100
AcDbSymbolTable
 70
     0
  0
ENDTAB
  0
TABLE
  2
APPID
  5
9
330
0
100
AcDbSymbolTable
 70
     2
  0
APPID
  5
12
330
9
100
AcDbSymbolTableRecord
100
AcDbRegAppTableRecord
  2
ACAD
 70
     0
  0
ENDTAB
  0
TABLE
  2
DIMSTYLE
  5
A
330
0
100
AcDbSymbolTable
 70
     1
  0
DIMSTYLE
105
27
330
A
100
AcDbSymbolTableRecord
100
AcDbDimStyleTableRecord
  2
ISO-25
 70
     0
  3

  4

  5

  6

  7

 40
1.0
 41
2.5
 42
0.625
 43
3.75
 44
1.25
 45
0.0
 46
0.0
 47
0.0
 48
0.0
140
2.5
141
2.5
142
0.0
143
0.03937007874016
144
1.0
145
0.0
146
1.0
147
0.625
 71
     0
 72
     0
 73
     0
 74
     0
 75
     0
 76
     0
 77
     1
 78
     8
170
     0
171
     3
172
     1
173
     0
174
     0
175
     0
176
     0
177
     0
178
     0
270
     2
271
     2
272
     2
273
     2
274
     3
340
11
275
     0
280
     0
281
     0
282
     0
283
     0
284
     8
285
     0
286
     0
287
     3
288
     0
  0
ENDTAB
  0
TABLE
  2
BLOCK_RECORD
  5
1
330
0
100
AcDbSymbolTable
 70
     1
  0
BLOCK_RECORD
  5
1F
330
1
100
AcDbSymbolTableRecord
100
AcDbBlockTableRecord
  2
*MODEL_SPACE
  0
BLOCK_RECORD
  5
1B
330
1
100
AcDbSymbolTableRecord
100
AcDbBlockTableRecord
  2
*PAPER_SPACE
  0
ENDTAB
  0
ENDSEC
  0
SECTION
  2
BLOCKS
  0
BLOCK
  5
20
330
1F
100
AcDbEntity
  8
0
100
AcDbBlockBegin
  2
*MODEL_SPACE
 70
     0
 10
0.0
 20
0.0
 30
0.0
  3
*MODEL_SPACE
  1

  0
ENDBLK
  5
21
330
1F
100
AcDbEntity
  8
0
100
AcDbBlockEnd
  0
BLOCK
  5
1C
330
1B
100
AcDbEntity
 67
     1
  8
0
100
AcDbBlockBegin
  2
*PAPER_SPACE
  1

  0
ENDBLK
  5
1D
330
1B
100
AcDbEntity
 67
     1
  8
0
100
AcDbBlockEnd
  0
ENDSEC
  0
SECTION
  2
ENTITIES
  0
LWPOLYLINE
  5
100
100
AcDbEntity
  8
Layer_1
 62
7
100
AcDbPolyline
 90
95
 70
1
 10
133.636529
 20
35.033205
 30
0.0
 10
126.130084
 20
16.457155
 30
0.0
 10
125.772249
 20
16.779112
 30
0.0
 10
125.532501
 20
16.963013
 30
0.0
 10
125.292753
 20
17.146915
 30
0.0
 10
125.053005
 20
17.330816
 30
0.0
 10
124.813258
 20
17.514718
 30
0.0
 10
124.466161
 20
17.715686
 30
0.0
 10
124.119067
 20
17.916653
 30
0.0
 10
123.771970
 20
18.117618
 30
0.0
 10
123.424877
 20
18.318586
 30
0.0
 10
123.013377
 20
18.450271
 30
0.0
 10
122.601877
 20
18.581953
 30
0.0
 10
122.190380
 20
18.713638
 30
0.0
 10
121.778880
 20
18.845320
 30
0.0
 10
120.820773
 20
18.840268
 30
0.0
 10
119.862662
 20
18.835216
 30
0.0
 10
118.904554
 20
18.830164
 30
0.0
 10
117.946447
 20
18.825113
 30
0.0
 10
116.815864
 20
18.598573
 30
0.0
 10
115.685282
 20
18.372036
 30
0.0
 10
114.554700
 20
18.145496
 30
0.0
 10
113.424118
 20
17.918956
 30
0.0
 10
112.296152
 20
17.541817
 30
0.0
 10
111.168188
 20
17.164678
 30
0.0
 10
110.040222
 20
16.787536
 30
0.0
 10
108.912259
 20
16.410397
 30
0.0
 10
107.962006
 20
15.953544
 30
0.0
 10
107.011755
 20
15.496694
 30
0.0
 10
106.061502
 20
15.039841
 30
0.0
 10
105.111251
 20
14.582988
 30
0.0
 10
103.582089
 20
13.682135
 30
0.0
 10
102.052927
 20
12.781281
 30
0.0
 10
100.523765
 20
11.880400
 30
0.0
 10
98.994603
 20
10.979546
 30
0.0
 10
97.465442
 20
10.078693
 30
0.0
 10
95.936280
 20
9.177840
 30
0.0
 10
94.407118
 20
8.276958
 30
0.0
 10
92.877956
 20
7.376105
 30
0.0
 10
91.348794
 20
6.475252
 30
0.0
 10
89.819632
 20
5.574398
 30
0.0
 10
88.290471
 20
4.673517
 30
0.0
 10
86.761309
 20
3.772663
 30
0.0
 10
85.232147
 20
2.871810
 30
0.0
 10
83.702985
 20
1.970928
 30
0.0
 10
82.173823
 20
1.070075
 30
0.0
 10
80.644661
 20
0.169222
 30
0.0
 10
73.770685
 20
0.169222
 30
0.0
 10
66.896705
 20
0.169222
 30
0.0
 10
60.022729
 20
0.169222
 30
0.0
 10
53.148752
 20
0.169222
 30
0.0
 10
51.619590
 20
1.070075
 30
0.0
 10
50.090428
 20
1.970928
 30
0.0
 10
48.561267
 20
2.871810
 30
0.0
 10
47.032105
 20
3.772663
 30
0.0
 10
45.502943
 20
4.673517
 30
0.0
 10
43.973781
 20
5.574398
 30
0.0
 10
42.444619
 20
6.475252
 30
0.0
 10
40.915457
 20
7.376105
 30
0.0
 10
39.386296
 20
8.276958
 30
0.0
 10
37.857134
 20
9.177840
 30
0.0
 10
36.327972
 20
10.078693
 30
0.0
 10
34.798810
 20
10.979546
 30
0.0
 10
33.269648
 20
11.880400
 30
0.0
 10
31.740486
 20
12.781281
 30
0.0
 10
30.211324
 20
13.682135
 30
0.0
 10
28.682163
 20
14.582988
 30
0.0
 10
27.731911
 20
15.039841
 30
0.0
 10
26.781659
 20
15.496694
 30
0.0
 10
25.831407
 20
15.953544
 30
0.0
 10
24.881155
 20
16.410397
 30
0.0
 10
23.753190
 20
16.787536
 30
0.0
 10
22.625226
 20
17.164678
 30
0.0
 10
21.497261
 20
17.541817
 30
0.0
 10
20.369297
 20
17.918956
 30
0.0
 10
19.238714
 20
18.145496
 30
0.0
 10
18.108132
 20
18.372036
 30
0.0
 10
16.977550
 20
18.598573
 30
0.0
 10
15.846968
 20
18.825113
 30
0.0
 10
14.888859
 20
18.830164
 30
0.0
 10
13.930751
 20
18.835216
 30
0.0
 10
12.972642
 20
18.840268
 30
0.0
 10
12.014534
 20
18.845320
 30
0.0
 10
11.603035
 20
18.713638
 30
0.0
 10
11.191536
 20
18.581953
 30
0.0
 10
10.780037
 20
18.450271
 30
0.0
 10
10.368538
 20
18.318586
 30
0.0
 10
10.021442
 20
18.117618
 30
0.0
 10
9.674347
 20
17.916653
 30
0.0
 10
9.327252
 20
17.715686
 30
0.0
 10
8.980157
 20
17.514718
 30
0.0
 10
8.021166
 20
16.779112
 30
0.0
 10
7.663330
 20
16.457155
 30
0.0
 10
0.156885
 20
35.033205
 30
0.0
 10
133.636529
 20
35.033205
 30
0.0
  0
ENDSEC
  0
SECTION
  2
OBJECTS
  0
DICTIONARY
  5
C
330
0
100
AcDbDictionary
  3
ACAD_GROUP
350
D
  3
ACAD_MLINESTYLE
350
17
  0
DICTIONARY
  5
D
330
C
100
AcDbDictionary
  0
DICTIONARY
  5
1A
330
C
100
AcDbDictionary
  0
DICTIONARY
  5
17
330
C
100
AcDbDictionary
  3
STANDARD
350
18
  0
DICTIONARY
  5
19
330
C
100
AcDbDictionary
  0
ENDSEC
  0
EOF
