  0
SECTION
  2
HEADER
  9
$ACADVER
  1
AC1014
  9
$HANDSEED
  5
FFFF
  9
$MEASUREMENT
 70
     1
  0
ENDSEC
  0
SECTION
  2
TABLES
  0
TABLE
  2
VPORT
  5
8
330
0
100
AcDbSymbolTable
 70
     4
  0
VPORT
  5
2E
330
8
100
AcDbSymbolTableRecord
100
AcDbViewportTableRecord
  2
*ACTIVE
 70
     0
 10
0.0
 20
0.0
 11
1.0
 21
1.0
 12
210.0
 22
148.5
 13
0.0
 23
0.0
 14
10.0
 24
10.0
 15
10.0
 25
10.0
 16
0.0
 26
0.0
 36
1.0
 17
0.0
 27
0.0
 37
0.0
 40
341.0
 41
1.24
 42
50.0
 43
0.0
 44
0.0
 50
0.0
 51
0.0
 71
     0
 72
   100
 73
     1
 74
     3
 75
     0
 76
     0
 77
     0
 78
     0
  0
ENDTAB
  0
TABLE
  2
LTYPE
  5
5
330
0
100
AcDbSymbolTable
 70
     1
  0
LTYPE
  5
14
330
5
100
AcDbSymbolTableRecord
100
AcDbLinetypeTableRecord
  2
BYBLOCK
 70
     0
  3

 72
    65
 73
     0
 40
0.0
  0
LTYPE
  5
15
330
5
100
AcDbSymbolTableRecord
100
AcDbLinetypeTableRecord
  2
BYLAYER
 70
     0
  3

 72
    65
 73
     0
 40
0.0
  0
LTYPE
  5
16
330
5
100
AcDbSymbolTableRecord
100
AcDbLinetypeTableRecord
  2
CONTINUOUS
 70
     0
  3
Solid line
 72
    65
 73
     0
 40
0.0
  0
ENDTAB
  0
TABLE
  2
LAYER
  5
2
100
AcDbSymbolTable
 70
2
  0
LAYER
  5
50
100
AcDbSymbolTableRecord
100
AcDbLayerTableRecord
  2
0
 70
0
  6
CONTINUOUS
  0
LAYER
  5
51
100
AcDbSymbolTableRecord
100
AcDbLayerTableRecord
  2
Layer_1
 70
0
  6
CONTINUOUS
  0
ENDTAB
  0
TABLE
  2
STYLE
  5
3
330
0
100
AcDbSymbolTable
 70
     1
  0
STYLE
  5
11
330
3
100
AcDbSymbolTableRecord
100
AcDbTextStyleTableRecord
  2
STANDARD
 70
     0
 40
0.0
 41
1.0
 50
0.0
 71
     0
 42
2.5
  3
txt
  4

  0
ENDTAB
  0
TABLE
  2
VIEW
  5
6
330
0
100
AcDbSymbolTable
 70
     0
  0
ENDTAB
  0
TABLE
  2
UCS
  5
7
330
0
100
AcDbSymbolTable
 70
     0
  0
ENDTAB
  0
TABLE
  2
APPID
  5
9
330
0
100
AcDbSymbolTable
 70
     2
  0
APPID
  5
12
330
9
100
AcDbSymbolTableRecord
100
AcDbRegAppTableRecord
  2
ACAD
 70
     0
  0
ENDTAB
  0
TABLE
  2
DIMSTYLE
  5
A
330
0
100
AcDbSymbolTable
 70
     1
  0
DIMSTYLE
105
27
330
A
100
AcDbSymbolTableRecord
100
AcDbDimStyleTableRecord
  2
ISO-25
 70
     0
  3

  4

  5

  6

  7

 40
1.0
 41
2.5
 42
0.625
 43
3.75
 44
1.25
 45
0.0
 46
0.0
 47
0.0
 48
0.0
140
2.5
141
2.5
142
0.0
143
0.03937007874016
144
1.0
145
0.0
146
1.0
147
0.625
 71
     0
 72
     0
 73
     0
 74
     0
 75
     0
 76
     0
 77
     1
 78
     8
170
     0
171
     3
172
     1
173
     0
174
     0
175
     0
176
     0
177
     0
178
     0
270
     2
271
     2
272
     2
273
     2
274
     3
340
11
275
     0
280
     0
281
     0
282
     0
283
     0
284
     8
285
     0
286
     0
287
     3
288
     0
  0
ENDTAB
  0
TABLE
  2
BLOCK_RECORD
  5
1
330
0
100
AcDbSymbolTable
 70
     1
  0
BLOCK_RECORD
  5
1F
330
1
100
AcDbSymbolTableRecord
100
AcDbBlockTableRecord
  2
*MODEL_SPACE
  0
BLOCK_RECORD
  5
1B
330
1
100
AcDbSymbolTableRecord
100
AcDbBlockTableRecord
  2
*PAPER_SPACE
  0
ENDTAB
  0
ENDSEC
  0
SECTION
  2
BLOCKS
  0
BLOCK
  5
20
330
1F
100
AcDbEntity
  8
0
100
AcDbBlockBegin
  2
*MODEL_SPACE
 70
     0
 10
0.0
 20
0.0
 30
0.0
  3
*MODEL_SPACE
  1

  0
ENDBLK
  5
21
330
1F
100
AcDbEntity
  8
0
100
AcDbBlockEnd
  0
BLOCK
  5
1C
330
1B
100
AcDbEntity
 67
     1
  8
0
100
AcDbBlockBegin
  2
*PAPER_SPACE
  1

  0
ENDBLK
  5
1D
330
1B
100
AcDbEntity
 67
     1
  8
0
100
AcDbBlockEnd
  0
ENDSEC
  0
SECTION
  2
ENTITIES
  0
LWPOLYLINE
  5
100
100
AcDbEntity
  8
Layer_1
 62
7
100
AcDbPolyline
 90
49
 70
1
 10
-24.545905
 20
-0.658226
 30
0.0
 10
-31.910788
 20
-0.728527
 30
0.0
 10
-39.341061
 20
-0.930880
 30
0.0
 10
-46.581816
 20
-2.012187
 30
0.0
 10
-53.378131
 20
-4.719347
 30
0.0
 10
-60.752725
 20
-10.083291
 30
0.0
 10
-66.376643
 20
-17.089232
 30
0.0
 10
-69.881468
 20
-25.232782
 30
0.0
 10
-70.898772
 20
-34.009498
 30
0.0
 10
-70.963770
 20
-36.696987
 30
0.0
 10
-70.390806
 20
-39.292726
 30
0.0
 10
-69.022381
 20
-41.513081
 30
0.0
 10
-66.701007
 20
-43.074306
 30
0.0
 10
-51.585385
 20
-52.253754
 30
0.0
 10
-36.486617
 20
-61.466249
 30
0.0
 10
-21.372601
 20
-70.648829
 30
0.0
 10
-6.211240
 20
-79.738529
 30
0.0
 10
-3.396802
 20
-80.356624
 30
0.0
 10
-0.477277
 20
-80.436295
 30
0.0
 10
2.466548
 20
-80.220678
 30
0.0
 10
5.353885
 20
-79.952962
 30
0.0
 10
9.090235
 20
-78.277747
 30
0.0
 10
12.629968
 20
-76.186198
 30
0.0
 10
16.104022
 20
-73.955711
 30
0.0
 10
19.643333
 20
-71.863682
 30
0.0
 10
31.996363
 20
-64.355753
 30
0.0
 10
44.373998
 20
-56.876300
 30
0.0
 10
56.729373
 20
-49.371079
 30
0.0
 10
69.015618
 20
-41.785934
 30
0.0
 10
70.882163
 20
-39.140975
 30
0.0
 10
71.329386
 20
-36.012824
 30
0.0
 10
71.102539
 20
-32.690899
 30
0.0
 10
70.946876
 20
-29.464620
 30
0.0
 10
68.446094
 20
-19.772177
 30
0.0
 10
62.705262
 20
-11.412416
 30
0.0
 10
54.546257
 20
-5.050902
 30
0.0
 10
44.790958
 20
-1.353170
 30
0.0
 10
32.214868
 20
-0.880363
 30
0.0
 10
19.624642
 20
-0.750766
 30
0.0
 10
7.029677
 20
-0.755282
 30
0.0
 10
-5.560636
 20
-0.684952
 30
0.0
 10
-10.306941
 20
-0.669430
 30
0.0
 10
-15.053255
 20
-0.657859
 30
0.0
 10
-19.799576
 20
-0.653343
 30
0.0
 10
-24.545905
 20
-0.658423
 30
0.0
 10
-24.545905
 20
-0.658451
 30
0.0
 10
-24.545905
 20
-0.658451
 30
0.0
 10
-24.545905
 20
-0.658480
 30
0.0
 10
-24.545905
 20
-0.658226
 30
0.0
  0
ENDSEC
  0
SECTION
  2
OBJECTS
  0
DICTIONARY
  5
C
330
0
100
AcDbDictionary
  3
ACAD_GROUP
350
D
  3
ACAD_MLINESTYLE
350
17
  0
DICTIONARY
  5
D
330
C
100
AcDbDictionary
  0
DICTIONARY
  5
1A
330
C
100
AcDbDictionary
  0
DICTIONARY
  5
17
330
C
100
AcDbDictionary
  3
STANDARD
350
18
  0
DICTIONARY
  5
19
330
C
100
AcDbDictionary
  0
ENDSEC
  0
EOF
