  0
SECTION
  2
HEADER
  9
$ACADVER
  1
AC1014
  9
$HANDSEED
  5
FFFF
  9
$MEASUREMENT
 70
     1
  0
ENDSEC
  0
SECTION
  2
TABLES
  0
TABLE
  2
VPORT
  5
8
330
0
100
AcDbSymbolTable
 70
     4
  0
VPORT
  5
2E
330
8
100
AcDbSymbolTableRecord
100
AcDbViewportTableRecord
  2
*ACTIVE
 70
     0
 10
0.0
 20
0.0
 11
1.0
 21
1.0
 12
210.0
 22
148.5
 13
0.0
 23
0.0
 14
10.0
 24
10.0
 15
10.0
 25
10.0
 16
0.0
 26
0.0
 36
1.0
 17
0.0
 27
0.0
 37
0.0
 40
341.0
 41
1.24
 42
50.0
 43
0.0
 44
0.0
 50
0.0
 51
0.0
 71
     0
 72
   100
 73
     1
 74
     3
 75
     0
 76
     0
 77
     0
 78
     0
  0
ENDTAB
  0
TABLE
  2
LTYPE
  5
5
330
0
100
AcDbSymbolTable
 70
     1
  0
LTYPE
  5
14
330
5
100
AcDbSymbolTableRecord
100
AcDbLinetypeTableRecord
  2
BYBLOCK
 70
     0
  3

 72
    65
 73
     0
 40
0.0
  0
LTYPE
  5
15
330
5
100
AcDbSymbolTableRecord
100
AcDbLinetypeTableRecord
  2
BYLAYER
 70
     0
  3

 72
    65
 73
     0
 40
0.0
  0
LTYPE
  5
16
330
5
100
AcDbSymbolTableRecord
100
AcDbLinetypeTableRecord
  2
CONTINUOUS
 70
     0
  3
Solid line
 72
    65
 73
     0
 40
0.0
  0
ENDTAB
  0
TABLE
  2
LAYER
  5
2
100
AcDbSymbolTable
 70
2
  0
LAYER
  5
50
100
AcDbSymbolTableRecord
100
AcDbLayerTableRecord
  2
0
 70
0
  6
CONTINUOUS
  0
LAYER
  5
51
100
AcDbSymbolTableRecord
100
AcDbLayerTableRecord
  2
Layer_1
 70
0
  6
CONTINUOUS
  0
ENDTAB
  0
TABLE
  2
STYLE
  5
3
330
0
100
AcDbSymbolTable
 70
     1
  0
STYLE
  5
11
330
3
100
AcDbSymbolTableRecord
100
AcDbTextStyleTableRecord
  2
STANDARD
 70
     0
 40
0.0
 41
1.0
 50
0.0
 71
     0
 42
2.5
  3
txt
  4

  0
ENDTAB
  0
TABLE
  2
VIEW
  5
6
330
0
100
AcDbSymbolTable
 70
     0
  0
ENDTAB
  0
TABLE
  2
UCS
  5
7
330
0
100
AcDbSymbolTable
 70
     0
  0
ENDTAB
  0
TABLE
  2
APPID
  5
9
330
0
100
AcDbSymbolTable
 70
     2
  0
APPID
  5
12
330
9
100
AcDbSymbolTableRecord
100
AcDbRegAppTableRecord
  2
ACAD
 70
     0
  0
ENDTAB
  0
TABLE
  2
DIMSTYLE
  5
A
330
0
100
AcDbSymbolTable
 70
     1
  0
DIMSTYLE
105
27
330
A
100
AcDbSymbolTableRecord
100
AcDbDimStyleTableRecord
  2
ISO-25
 70
     0
  3

  4

  5

  6

  7

 40
1.0
 41
2.5
 42
0.625
 43
3.75
 44
1.25
 45
0.0
 46
0.0
 47
0.0
 48
0.0
140
2.5
141
2.5
142
0.0
143
0.03937007874016
144
1.0
145
0.0
146
1.0
147
0.625
 71
     0
 72
     0
 73
     0
 74
     0
 75
     0
 76
     0
 77
     1
 78
     8
170
     0
171
     3
172
     1
173
     0
174
     0
175
     0
176
     0
177
     0
178
     0
270
     2
271
     2
272
     2
273
     2
274
     3
340
11
275
     0
280
     0
281
     0
282
     0
283
     0
284
     8
285
     0
286
     0
287
     3
288
     0
  0
ENDTAB
  0
TABLE
  2
BLOCK_RECORD
  5
1
330
0
100
AcDbSymbolTable
 70
     1
  0
BLOCK_RECORD
  5
1F
330
1
100
AcDbSymbolTableRecord
100
AcDbBlockTableRecord
  2
*MODEL_SPACE
  0
BLOCK_RECORD
  5
1B
330
1
100
AcDbSymbolTableRecord
100
AcDbBlockTableRecord
  2
*PAPER_SPACE
  0
ENDTAB
  0
ENDSEC
  0
SECTION
  2
BLOCKS
  0
BLOCK
  5
20
330
1F
100
AcDbEntity
  8
0
100
AcDbBlockBegin
  2
*MODEL_SPACE
 70
     0
 10
0.0
 20
0.0
 30
0.0
  3
*MODEL_SPACE
  1

  0
ENDBLK
  5
21
330
1F
100
AcDbEntity
  8
0
100
AcDbBlockEnd
  0
BLOCK
  5
1C
330
1B
100
AcDbEntity
 67
     1
  8
0
100
AcDbBlockBegin
  2
*PAPER_SPACE
  1

  0
ENDBLK
  5
1D
330
1B
100
AcDbEntity
 67
     1
  8
0
100
AcDbBlockEnd
  0
ENDSEC
  0
SECTION
  2
ENTITIES
  0
LWPOLYLINE
  5
100
100
AcDbEntity
  8
Layer_1
 62
7
100
AcDbPolyline
 90
109
 70
1
 10
63.699243
 20
0.217595
 30
0.0
 10
63.216437
 20
0.308273
 30
0.0
 10
62.652368
 20
0.429007
 30
0.0
 10
62.077199
 20
0.564051
 30
0.0
 10
61.561085
 20
0.697655
 30
0.0
 10
59.524496
 20
1.424038
 30
0.0
 10
55.676224
 20
3.649530
 30
0.0
 10
47.148651
 20
9.168555
 30
0.0
 10
31.074165
 20
19.775651
 30
0.0
 10
24.517153
 20
24.109190
 30
0.0
 10
17.960142
 20
28.442727
 30
0.0
 10
11.403130
 20
32.776266
 30
0.0
 10
4.846118
 20
37.109805
 30
0.0
 10
4.543795
 20
37.467234
 30
0.0
 10
4.241473
 20
37.824660
 30
0.0
 10
3.939151
 20
38.182088
 30
0.0
 10
3.636828
 20
38.539517
 30
0.0
 10
2.949276
 20
39.380111
 30
0.0
 10
2.477317
 20
40.077425
 30
0.0
 10
2.063720
 20
40.901602
 30
0.0
 10
1.551256
 20
42.122777
 30
0.0
 10
0.878665
 20
43.986903
 30
0.0
 10
0.418809
 20
45.778136
 30
0.0
 10
0.155181
 20
47.578421
 30
0.0
 10
0.071272
 20
49.469699
 30
0.0
 10
0.088525
 20
50.394795
 30
0.0
 10
0.163985
 20
51.152045
 30
0.0
 10
0.333954
 20
51.975211
 30
0.0
 10
0.634735
 20
53.098055
 30
0.0
 10
0.963975
 20
54.198239
 30
0.0
 10
1.300081
 20
55.112089
 30
0.0
 10
1.721391
 20
56.028950
 30
0.0
 10
2.306244
 20
57.138168
 30
0.0
 10
3.459684
 20
59.013825
 30
0.0
 10
4.748007
 20
60.614829
 30
0.0
 10
6.268375
 20
62.046080
 30
0.0
 10
8.117953
 20
63.412470
 30
0.0
 10
8.582888
 20
63.723459
 30
0.0
 10
9.047823
 20
64.034448
 30
0.0
 10
9.512758
 20
64.345438
 30
0.0
 10
9.977693
 20
64.656427
 30
0.0
 10
12.354706
 20
65.356846
 30
0.0
 10
14.731720
 20
66.057265
 30
0.0
 10
17.108734
 20
66.757681
 30
0.0
 10
19.485748
 20
67.458100
 30
0.0
 10
21.862762
 20
68.158519
 30
0.0
 10
24.239776
 20
68.858936
 30
0.0
 10
26.616790
 20
69.559355
 30
0.0
 10
28.993804
 20
70.259774
 30
0.0
 10
38.273047
 20
70.259774
 30
0.0
 10
47.552288
 20
70.259774
 30
0.0
 10
56.831532
 20
70.259774
 30
0.0
 10
66.110776
 20
70.259774
 30
0.0
 10
75.390019
 20
70.259774
 30
0.0
 10
84.669263
 20
70.259774
 30
0.0
 10
93.948507
 20
70.259774
 30
0.0
 10
103.227751
 20
70.259774
 30
0.0
 10
105.594235
 20
69.563139
 30
0.0
 10
107.960719
 20
68.866505
 30
0.0
 10
110.327203
 20
68.169870
 30
0.0
 10
112.693687
 20
67.473236
 30
0.0
 10
115.060171
 20
66.776601
 30
0.0
 10
117.426653
 20
66.079967
 30
0.0
 10
119.793137
 20
65.383335
 30
0.0
 10
122.159621
 20
64.686701
 30
0.0
 10
122.625920
 20
64.376620
 30
0.0
 10
123.092216
 20
64.066540
 30
0.0
 10
123.558514
 20
63.756457
 30
0.0
 10
124.024813
 20
63.446376
 30
0.0
 10
125.004658
 20
62.768665
 30
0.0
 10
125.813479
 20
62.139179
 30
0.0
 10
126.566814
 20
61.461217
 30
0.0
 10
127.380210
 20
60.638070
 30
0.0
 10
128.199823
 20
59.747422
 30
0.0
 10
128.800569
 20
58.996835
 30
0.0
 10
129.334305
 20
58.175969
 30
0.0
 10
129.952888
 20
57.074476
 30
0.0
 10
130.844674
 20
55.244070
 30
0.0
 10
131.506948
 20
53.460550
 30
0.0
 10
131.943577
 20
51.711492
 30
0.0
 10
132.158427
 20
49.984469
 30
0.0
 10
132.153939
 20
48.174765
 30
0.0
 10
131.920353
 20
46.304266
 30
0.0
 10
131.454920
 20
44.358051
 30
0.0
 10
130.754913
 20
42.321199
 30
0.0
 10
130.243368
 20
41.053533
 30
0.0
 10
129.834287
 20
40.212505
 30
0.0
 10
129.356691
 20
39.498181
 30
0.0
 10
128.639587
 20
38.610626
 30
0.0
 10
128.327291
 20
38.235341
 30
0.0
 10
128.014995
 20
37.860053
 30
0.0
 10
127.702702
 20
37.484765
 30
0.0
 10
127.390406
 20
37.109480
 30
0.0
 10
120.849754
 20
32.786265
 30
0.0
 10
114.309099
 20
28.463049
 30
0.0
 10
107.768446
 20
24.139834
 30
0.0
 10
101.227791
 20
19.816618
 30
0.0
 10
89.018014
 20
11.760992
 30
0.0
 10
80.664137
 20
6.286671
 30
0.0
 10
75.684120
 20
3.079864
 30
0.0
 10
73.595916
 20
1.826685
 30
0.0
 10
72.434794
 20
1.322354
 30
0.0
 10
71.230654
 20
0.888634
 30
0.0
 10
70.004412
 20
0.532385
 30
0.0
 10
68.776974
 20
0.260323
 30
0.0
 10
67.635978
 20
0.126409
 30
0.0
 10
66.242150
 20
0.073266
 30
0.0
 10
64.846299
 20
0.102956
 30
0.0
 10
63.699243
 20
0.217595
 30
0.0
  0
ENDSEC
  0
SECTION
  2
OBJECTS
  0
DICTIONARY
  5
C
330
0
100
AcDbDictionary
  3
ACAD_GROUP
350
D
  3
ACAD_MLINESTYLE
350
17
  0
DICTIONARY
  5
D
330
C
100
AcDbDictionary
  0
DICTIONARY
  5
1A
330
C
100
AcDbDictionary
  0
DICTIONARY
  5
17
330
C
100
AcDbDictionary
  3
STANDARD
350
18
  0
DICTIONARY
  5
19
330
C
100
AcDbDictionary
  0
ENDSEC
  0
EOF
