%TF.GenerationSoftware,KiCad,Pcbnew,4.1.0-alpha+201609021633+7109~49~ubuntu16.04.1-product*%
%TF.CreationDate,2016-09-14T14:42:10+05:30*%
%TF.ProjectId,OTS2_main,4F5453325F6D61696E2E6B696361645F,rev?*%
%TF.FileFunction,Soldermask,Top*%
%FSLAX46Y46*%
G04 Gerber Fmt 4.6, Leading zero omitted, Abs format (unit mm)*
G04 Created by KiCad (PCBNEW 4.1.0-alpha+201609021633+7109~49~ubuntu16.04.1-product) date Wed Sep 14 14:42:10 2016*
%MOMM*%
%LPD*%
G01*
G04 APERTURE LIST*
%ADD10C,0.101600*%
%ADD11C,2.800000*%
%ADD12C,5.400000*%
%ADD13C,3.000000*%
%ADD14R,3.702000X1.670000*%
%ADD15O,2.813000X1.797000*%
%ADD16O,2.432000X1.797000*%
%ADD17C,4.572000*%
%ADD18O,2.432000X1.924000*%
%ADD19C,1.924000*%
%ADD20O,1.924000X2.432000*%
%ADD21O,1.924000X1.924000*%
%ADD22O,1.797000X1.797000*%
%ADD23C,2.700000*%
%ADD24C,1.052400*%
%ADD25R,1.052400X0.552400*%
%ADD26R,1.052400X1.052400*%
%ADD27C,2.432000*%
%ADD28R,2.432000X2.432000*%
%ADD29O,2.432000X2.432000*%
G04 APERTURE END LIST*
D10*
D11*
X93185158Y-78580158D03*
D12*
X81468398Y-66863398D03*
D11*
X85527191Y-84017809D03*
D12*
X102681602Y-88076602D03*
D11*
X98622809Y-70922191D03*
D12*
X81468398Y-88076602D03*
X102681602Y-66863398D03*
D13*
X88893019Y-80651981D03*
X95256981Y-74288019D03*
D11*
X76971199Y-85219890D03*
X85527191Y-70922191D03*
X88468755Y-61319681D03*
X95681245Y-93620319D03*
X108154608Y-80722691D03*
X107178801Y-69720110D03*
D14*
X123952000Y-73660000D03*
X123952000Y-71120000D03*
X116078000Y-71120000D03*
X116078000Y-73660000D03*
D15*
X66675000Y-29210000D03*
X66675000Y-31750000D03*
X66675000Y-34290000D03*
X66675000Y-36830000D03*
X66675000Y-39370000D03*
D16*
X66675000Y-41910000D03*
D15*
X66675000Y-44450000D03*
X66675000Y-46990000D03*
X66675000Y-49530000D03*
X66675000Y-52070000D03*
D17*
X66675000Y-55245000D03*
X117475000Y-55245000D03*
X117475000Y-26035000D03*
X66675000Y-26035000D03*
D18*
X109855000Y-67310000D03*
X109855000Y-64770000D03*
X109855000Y-62230000D03*
X109855000Y-59690000D03*
X109855000Y-57150000D03*
X109855000Y-54610000D03*
X109855000Y-52070000D03*
X109855000Y-49530000D03*
X109855000Y-46990000D03*
X109855000Y-44450000D03*
X109855000Y-41910000D03*
X109855000Y-39370000D03*
X130175000Y-29210000D03*
X130175000Y-31750000D03*
X130175000Y-34290000D03*
X130175000Y-36830000D03*
X130175000Y-39370000D03*
X130175000Y-41910000D03*
X130175000Y-44450000D03*
X130175000Y-46990000D03*
X130175000Y-49530000D03*
X130175000Y-52070000D03*
X130175000Y-54610000D03*
X130175000Y-57150000D03*
X130175000Y-59690000D03*
X130175000Y-62230000D03*
X130175000Y-64770000D03*
X130175000Y-67310000D03*
D17*
X111125000Y-25400000D03*
X128905000Y-25400000D03*
D19*
X112395000Y-67310000D03*
X112395000Y-64770000D03*
X112395000Y-62230000D03*
X112395000Y-59690000D03*
X112395000Y-57150000D03*
X112395000Y-54610000D03*
X112395000Y-52070000D03*
X112395000Y-49530000D03*
X112395000Y-46990000D03*
X112395000Y-44450000D03*
X112395000Y-41910000D03*
X112395000Y-39370000D03*
X127635000Y-29210000D03*
X127635000Y-31750000D03*
X127635000Y-34290000D03*
X127635000Y-36830000D03*
X127635000Y-39370000D03*
X127635000Y-41910000D03*
X127635000Y-44450000D03*
X127635000Y-46990000D03*
X127635000Y-49530000D03*
X127635000Y-52070000D03*
X127635000Y-54610000D03*
X127635000Y-57150000D03*
X127635000Y-59690000D03*
X127635000Y-62230000D03*
X127635000Y-64770000D03*
X127635000Y-67310000D03*
D17*
X111125000Y-71120000D03*
X128905000Y-71120000D03*
D18*
X74295000Y-28575000D03*
X74295000Y-31115000D03*
X74295000Y-33655000D03*
X74295000Y-36195000D03*
X74295000Y-38735000D03*
X74295000Y-41275000D03*
X74295000Y-43815000D03*
X74295000Y-46355000D03*
X74295000Y-48895000D03*
X74295000Y-51435000D03*
X74295000Y-53975000D03*
X74295000Y-56515000D03*
D20*
X70485000Y-60960000D03*
X67945000Y-60960000D03*
X65405000Y-60960000D03*
X62865000Y-60960000D03*
X60325000Y-60960000D03*
X57785000Y-60960000D03*
D18*
X53975000Y-56515000D03*
X53975000Y-53975000D03*
X53975000Y-51435000D03*
X53975000Y-48895000D03*
X53975000Y-46355000D03*
X53975000Y-43815000D03*
X53975000Y-41275000D03*
X53975000Y-38735000D03*
X53975000Y-36195000D03*
X53975000Y-33655000D03*
X53975000Y-31115000D03*
X53975000Y-28575000D03*
D17*
X73660000Y-60325000D03*
X54610000Y-60325000D03*
X54610000Y-24765000D03*
X73660000Y-24765000D03*
D21*
X71755000Y-28575000D03*
X71755000Y-31115000D03*
X71755000Y-33655000D03*
X71755000Y-36195000D03*
X71755000Y-38735000D03*
X71755000Y-41275000D03*
X71755000Y-43815000D03*
X71755000Y-46355000D03*
X71755000Y-48895000D03*
X71755000Y-51435000D03*
X71755000Y-53975000D03*
X71755000Y-56515000D03*
X56515000Y-56515000D03*
X56515000Y-53975000D03*
X56515000Y-51435000D03*
X56515000Y-48895000D03*
X56515000Y-46355000D03*
X56515000Y-43815000D03*
X56515000Y-41275000D03*
X56515000Y-38735000D03*
X56515000Y-36195000D03*
X56515000Y-33655000D03*
D22*
X56515000Y-31115000D03*
X56515000Y-28575000D03*
D17*
X73025000Y-71120000D03*
X55245000Y-71120000D03*
X142875000Y-60325000D03*
X41275000Y-60325000D03*
D23*
X44115000Y-40640000D03*
D13*
X42545000Y-36140000D03*
D23*
X42545000Y-31380000D03*
D13*
X42545000Y-45140000D03*
D23*
X42545000Y-49900000D03*
X33285000Y-40640000D03*
X140035000Y-40640000D03*
D13*
X141605000Y-45140000D03*
D23*
X141605000Y-49900000D03*
D13*
X141605000Y-36140000D03*
D23*
X141605000Y-31380000D03*
X150865000Y-40640000D03*
D18*
X93345000Y-24130000D03*
X93345000Y-26670000D03*
X93345000Y-29210000D03*
X93345000Y-31750000D03*
X93345000Y-34290000D03*
X93345000Y-36830000D03*
X93345000Y-39370000D03*
X93345000Y-41910000D03*
X93345000Y-44450000D03*
X93345000Y-46990000D03*
X93345000Y-49530000D03*
X93345000Y-52070000D03*
D21*
X92075000Y-54610000D03*
X89535000Y-54610000D03*
X86995000Y-54610000D03*
X84455000Y-54610000D03*
X81915000Y-54610000D03*
X79375000Y-54610000D03*
D18*
X78105000Y-52069999D03*
X78105000Y-49530000D03*
X78105000Y-46990000D03*
X78105000Y-44450000D03*
X78105000Y-41910000D03*
X78105000Y-39370000D03*
X78105000Y-36830000D03*
X78105000Y-34290000D03*
X78105000Y-31750000D03*
X78105000Y-29210000D03*
X78105000Y-26670000D03*
X78105000Y-24130000D03*
D21*
X90805000Y-24130000D03*
X90805000Y-26670000D03*
X90805000Y-29210000D03*
X90805000Y-31750000D03*
X90805000Y-34290000D03*
X90805000Y-36830000D03*
X90805000Y-39370000D03*
X90805000Y-41910000D03*
X90805000Y-44450000D03*
X90805000Y-46990000D03*
X90805000Y-49530000D03*
X95885000Y-52070000D03*
X94615000Y-54610000D03*
X89535000Y-52070000D03*
X86995000Y-52070000D03*
X84455000Y-52070000D03*
X81915000Y-52070000D03*
X80645000Y-49530000D03*
X78105000Y-57785000D03*
X77470000Y-59690000D03*
X80645000Y-46990000D03*
X80645000Y-44450000D03*
X80645000Y-41910000D03*
X80645000Y-39370000D03*
X80645000Y-36830000D03*
X80645000Y-34290000D03*
X80645000Y-31750000D03*
X80645000Y-29210000D03*
D22*
X80645000Y-26670000D03*
X80645000Y-24130000D03*
D13*
X98950000Y-26035000D03*
X104250000Y-26035000D03*
D24*
X121920000Y-45840000D03*
D25*
X121920000Y-47890000D03*
X121920000Y-46090000D03*
D24*
X121920000Y-48140000D03*
D26*
X121920000Y-46990000D03*
D10*
G36*
X104883949Y-85648633D02*
X103164265Y-83928949D01*
X104883949Y-82209265D01*
X106603633Y-83928949D01*
X104883949Y-85648633D01*
X104883949Y-85648633D01*
G37*
D27*
X106680000Y-85725000D02*
X106680000Y-85725000D01*
D10*
G36*
X98425000Y-91889684D02*
X96705316Y-90170000D01*
X98425000Y-88450316D01*
X100144684Y-90170000D01*
X98425000Y-91889684D01*
X98425000Y-91889684D01*
G37*
D27*
X100221051Y-91966051D02*
X100221051Y-91966051D01*
D10*
G36*
X86360000Y-63050316D02*
X88079684Y-64770000D01*
X86360000Y-66489684D01*
X84640316Y-64770000D01*
X86360000Y-63050316D01*
X86360000Y-63050316D01*
G37*
D27*
X84563949Y-62973949D02*
X84563949Y-62973949D01*
D10*
G36*
X79266040Y-70561378D02*
X80985724Y-72281062D01*
X79266040Y-74000746D01*
X77546356Y-72281062D01*
X79266040Y-70561378D01*
X79266040Y-70561378D01*
G37*
D27*
X77469989Y-70485011D02*
X77469989Y-70485011D01*
D28*
X29845000Y-47625000D03*
D29*
X29845000Y-45085000D03*
D28*
X41275000Y-27940000D03*
D29*
X43815000Y-27940000D03*
D28*
X41275000Y-53340000D03*
D29*
X43815000Y-53340000D03*
D28*
X29845000Y-33655000D03*
D29*
X29845000Y-36195000D03*
D28*
X154305000Y-33655000D03*
D29*
X154305000Y-36195000D03*
D28*
X142875000Y-27940000D03*
D29*
X140335000Y-27940000D03*
D28*
X154305000Y-47625000D03*
D29*
X154305000Y-45085000D03*
D28*
X142875000Y-53340000D03*
D29*
X140335000Y-53340000D03*
D10*
G36*
X97263949Y-63949684D02*
X95544265Y-62230000D01*
X97263949Y-60510316D01*
X98983633Y-62230000D01*
X97263949Y-63949684D01*
X97263949Y-63949684D01*
G37*
D27*
X99060000Y-64026051D02*
X99060000Y-64026051D01*
M02*
