M48
INCH,TZ
T1C0.020
T2C0.040
T3C0.051
T4C0.055
T5C0.063
T6C0.157
T7C0.120
%
G90
G05
T1
X013500Y-011500
X015000Y-011500
X015750Y-018750
X016500Y-022250
X018500Y-011500
X022750Y-012750
X023250Y-025250
X023750Y-022750
X024250Y-025250
X025250Y-025250
X026250Y-027500
X027250Y-026250
X030000Y-013750
X032500Y-027750
X033250Y-031500
X033750Y-034250
X034500Y-012000
X034500Y-013000
X034500Y-014000
X034500Y-015000
X034500Y-016000
X035675Y-023750
X035750Y-029500
X036750Y-033750
X037000Y-023750
X037670Y-035250
X038750Y-031750
X039000Y-026500
X039750Y-017000
X040000Y-014000
X040000Y-014500
X040000Y-015000
X040000Y-016000
X040750Y-018000
X040750Y-029750
X041000Y-013000
X041500Y-014000
X041500Y-014500
X041500Y-015000
X041750Y-017000
X041761Y-023731
X045250Y-019500
X045750Y-019000
X046200Y-024950
X046750Y-025700
X047000Y-018500
X048250Y-015000
X048750Y-012500
X052400Y-024000
X053283Y-020150
X053500Y-021750
X057500Y-021750
X058500Y-021750
T2
X011750Y-013250
X011750Y-014250
X011750Y-017750
X011750Y-018750
X016250Y-011000
X016250Y-021000
X017250Y-011000
X017250Y-021000
X021250Y-011250
X021250Y-012250
X021250Y-013250
X021250Y-014250
X021250Y-015250
X021250Y-016250
X021250Y-017250
X021250Y-018250
X021250Y-019250
X021250Y-020250
X021250Y-021250
X021250Y-022250
X022250Y-011250
X022250Y-012250
X022250Y-013250
X022250Y-014250
X022250Y-015250
X022250Y-016250
X022250Y-017250
X022250Y-018250
X022250Y-019250
X022250Y-020250
X022250Y-021250
X022250Y-022250
X022750Y-024000
X023750Y-024000
X024750Y-024000
X025750Y-024000
X026250Y-011500
X026250Y-012500
X026250Y-013500
X026250Y-014500
X026250Y-015500
X026250Y-016500
X026250Y-017500
X026250Y-018500
X026250Y-019500
X026250Y-020500
X026750Y-024000
X027750Y-024000
X028250Y-011250
X028250Y-012250
X028250Y-013250
X028250Y-014250
X028250Y-015250
X028250Y-016250
X028250Y-017250
X028250Y-018250
X028250Y-019250
X028250Y-020250
X028250Y-021250
X028250Y-022250
X029250Y-011250
X029250Y-012250
X029250Y-013250
X029250Y-014250
X029250Y-015250
X029250Y-016250
X029250Y-017250
X029250Y-018250
X029250Y-019250
X029250Y-020250
X029250Y-021250
X029250Y-022250
X030500Y-027750
X030500Y-023500
X030750Y-009500
X030750Y-010500
X030750Y-011500
X030750Y-012500
X030750Y-013500
X030750Y-014500
X030750Y-015500
X030750Y-016500
X030750Y-017500
X030750Y-018500
X030750Y-019500
X030750Y-020500
X030750Y-022750
X031207Y-028457
X031250Y-021500
X031750Y-009500
X031750Y-010500
X031750Y-011500
X031750Y-012500
X031750Y-013500
X031750Y-014500
X031750Y-015500
X031750Y-016500
X031750Y-017500
X031750Y-018500
X031750Y-019500
X032250Y-020500
X032250Y-021500
X033250Y-020500
X033250Y-021500
X033293Y-024793
X034000Y-025500
X034250Y-020500
X034250Y-021500
X035250Y-020500
X035250Y-021500
X035750Y-009500
X035750Y-010500
X035750Y-011500
X035750Y-012500
X035750Y-013500
X035750Y-014500
X035750Y-015500
X035750Y-016500
X035750Y-017500
X035750Y-018500
X035750Y-019500
X036250Y-021500
X036750Y-009500
X036750Y-010500
X036750Y-011500
X036750Y-012500
X036750Y-013500
X036750Y-014500
X036750Y-015500
X036750Y-016500
X036750Y-017500
X036750Y-018500
X036750Y-019500
X036750Y-020500
X037250Y-021500
X037750Y-020500
X038293Y-024500
X038750Y-035500
X039000Y-025207
X039457Y-036207
X041293Y-033043
X042000Y-033750
X043250Y-015500
X043250Y-016500
X043250Y-017500
X043250Y-018500
X043250Y-019500
X043250Y-020500
X043250Y-021500
X043250Y-022500
X043250Y-023500
X043250Y-024500
X043250Y-025500
X043250Y-026500
X044250Y-015500
X044250Y-016500
X044250Y-017500
X044250Y-018500
X044250Y-019500
X044250Y-020500
X044250Y-021500
X044250Y-022500
X044250Y-023500
X044250Y-024500
X044250Y-025500
X044250Y-026500
X050250Y-011500
X050250Y-012500
X050250Y-013500
X050250Y-014500
X050250Y-015500
X050250Y-016500
X050250Y-017500
X050250Y-018500
X050250Y-019500
X050250Y-020500
X050250Y-021500
X050250Y-022500
X050250Y-023500
X050250Y-024500
X050250Y-025500
X050250Y-026500
X051250Y-011500
X051250Y-012500
X051250Y-013500
X051250Y-014500
X051250Y-015500
X051250Y-016500
X051250Y-017500
X051250Y-018500
X051250Y-019500
X051250Y-020500
X051250Y-021500
X051250Y-022500
X051250Y-023500
X051250Y-024500
X051250Y-025500
X051250Y-026500
X055250Y-011000
X055250Y-021000
X056250Y-011000
X056250Y-021000
X060750Y-013250
X060750Y-014250
X060750Y-017750
X060750Y-018750
T3
X013104Y-016000
X016750Y-012354
X016750Y-019646
X017368Y-016000
X055132Y-016000
X055750Y-012354
X055750Y-019646
X059396Y-016000
T4
X030304Y-033551
X033672Y-027922
X033672Y-033078
X034830Y-024142
X036687Y-030937
X037670Y-036858
X038828Y-027922
X042196Y-027449
X042581Y-031781
T5
X016750Y-014228
X016750Y-017772
X034997Y-031753
X037503Y-029247
X038957Y-010250
X041043Y-010250
X055750Y-014228
X055750Y-017772
T6
X032074Y-026324
X032074Y-034676
X040426Y-026324
X040426Y-034676
T7
X016250Y-023750
X021500Y-009750
X021500Y-023750
X021750Y-028000
X026250Y-010250
X026250Y-021750
X028750Y-028000
X029000Y-009750
X029000Y-023750
X043750Y-010000
X043750Y-028000
X046250Y-010250
X046250Y-021750
X050750Y-010000
X050750Y-028000
X056250Y-023750
T0
M30
