%TF.GenerationSoftware,KiCad,Pcbnew,4.1.0-alpha+201609021633+7109~49~ubuntu16.04.1-product*%
%TF.CreationDate,2016-09-14T14:42:10+05:30*%
%TF.ProjectId,OTS2_main,4F5453325F6D61696E2E6B696361645F,rev?*%
%TF.FileFunction,Soldermask,Bot*%
%FSLAX46Y46*%
G04 Gerber Fmt 4.6, Leading zero omitted, Abs format (unit mm)*
G04 Created by KiCad (PCBNEW 4.1.0-alpha+201609021633+7109~49~ubuntu16.04.1-product) date Wed Sep 14 14:42:10 2016*
%MOMM*%
%LPD*%
G01*
G04 APERTURE LIST*
%ADD10C,0.101600*%
%ADD11C,2.800000*%
%ADD12C,5.400000*%
%ADD13C,3.000000*%
%ADD14O,2.813000X1.797000*%
%ADD15O,2.432000X1.797000*%
%ADD16C,4.572000*%
%ADD17O,2.432000X1.924000*%
%ADD18C,1.924000*%
%ADD19R,1.924000X2.178000*%
%ADD20O,1.924000X2.432000*%
%ADD21O,1.924000X1.924000*%
%ADD22O,1.797000X1.797000*%
%ADD23R,2.900000X2.400000*%
%ADD24R,2.400000X2.900000*%
%ADD25C,2.700000*%
%ADD26C,2.432000*%
%ADD27R,2.432000X2.432000*%
%ADD28O,2.432000X2.432000*%
G04 APERTURE END LIST*
D10*
D11*
X93185158Y-78580158D03*
D12*
X81468398Y-66863398D03*
D11*
X85527191Y-84017809D03*
D12*
X102681602Y-88076602D03*
D11*
X98622809Y-70922191D03*
D12*
X81468398Y-88076602D03*
X102681602Y-66863398D03*
D13*
X88893019Y-80651981D03*
X95256981Y-74288019D03*
D11*
X76971199Y-85219890D03*
X85527191Y-70922191D03*
X88468755Y-61319681D03*
X95681245Y-93620319D03*
X108154608Y-80722691D03*
X107178801Y-69720110D03*
D14*
X66675000Y-29210000D03*
X66675000Y-31750000D03*
X66675000Y-34290000D03*
X66675000Y-36830000D03*
X66675000Y-39370000D03*
D15*
X66675000Y-41910000D03*
D14*
X66675000Y-44450000D03*
X66675000Y-46990000D03*
X66675000Y-49530000D03*
X66675000Y-52070000D03*
D16*
X66675000Y-55245000D03*
X117475000Y-55245000D03*
X117475000Y-26035000D03*
X66675000Y-26035000D03*
D17*
X109855000Y-67310000D03*
X109855000Y-64770000D03*
X109855000Y-62230000D03*
X109855000Y-59690000D03*
X109855000Y-57150000D03*
X109855000Y-54610000D03*
X109855000Y-52070000D03*
X109855000Y-49530000D03*
X109855000Y-46990000D03*
X109855000Y-44450000D03*
X109855000Y-41910000D03*
X109855000Y-39370000D03*
X130175000Y-29210000D03*
X130175000Y-31750000D03*
X130175000Y-34290000D03*
X130175000Y-36830000D03*
X130175000Y-39370000D03*
X130175000Y-41910000D03*
X130175000Y-44450000D03*
X130175000Y-46990000D03*
X130175000Y-49530000D03*
X130175000Y-52070000D03*
X130175000Y-54610000D03*
X130175000Y-57150000D03*
X130175000Y-59690000D03*
X130175000Y-62230000D03*
X130175000Y-64770000D03*
X130175000Y-67310000D03*
D16*
X111125000Y-25400000D03*
X128905000Y-25400000D03*
D18*
X112395000Y-67310000D03*
X112395000Y-64770000D03*
X112395000Y-62230000D03*
X112395000Y-59690000D03*
X112395000Y-57150000D03*
X112395000Y-54610000D03*
X112395000Y-52070000D03*
X112395000Y-49530000D03*
X112395000Y-46990000D03*
X112395000Y-44450000D03*
X112395000Y-41910000D03*
X112395000Y-39370000D03*
X127635000Y-29210000D03*
X127635000Y-31750000D03*
X127635000Y-34290000D03*
X127635000Y-36830000D03*
X127635000Y-39370000D03*
X127635000Y-41910000D03*
X127635000Y-44450000D03*
X127635000Y-46990000D03*
X127635000Y-49530000D03*
X127635000Y-52070000D03*
X127635000Y-54610000D03*
X127635000Y-57150000D03*
X127635000Y-59690000D03*
X127635000Y-62230000D03*
X127635000Y-64770000D03*
X127635000Y-67310000D03*
D16*
X111125000Y-71120000D03*
X128905000Y-71120000D03*
D19*
X138150600Y-56235600D03*
X138150600Y-64414400D03*
X133629400Y-64414400D03*
X133629400Y-56235600D03*
D17*
X74295000Y-28575000D03*
X74295000Y-31115000D03*
X74295000Y-33655000D03*
X74295000Y-36195000D03*
X74295000Y-38735000D03*
X74295000Y-41275000D03*
X74295000Y-43815000D03*
X74295000Y-46355000D03*
X74295000Y-48895000D03*
X74295000Y-51435000D03*
X74295000Y-53975000D03*
X74295000Y-56515000D03*
D20*
X70485000Y-60960000D03*
X67945000Y-60960000D03*
X65405000Y-60960000D03*
X62865000Y-60960000D03*
X60325000Y-60960000D03*
X57785000Y-60960000D03*
D17*
X53975000Y-56515000D03*
X53975000Y-53975000D03*
X53975000Y-51435000D03*
X53975000Y-48895000D03*
X53975000Y-46355000D03*
X53975000Y-43815000D03*
X53975000Y-41275000D03*
X53975000Y-38735000D03*
X53975000Y-36195000D03*
X53975000Y-33655000D03*
X53975000Y-31115000D03*
X53975000Y-28575000D03*
D16*
X73660000Y-60325000D03*
X54610000Y-60325000D03*
X54610000Y-24765000D03*
X73660000Y-24765000D03*
D21*
X71755000Y-28575000D03*
X71755000Y-31115000D03*
X71755000Y-33655000D03*
X71755000Y-36195000D03*
X71755000Y-38735000D03*
X71755000Y-41275000D03*
X71755000Y-43815000D03*
X71755000Y-46355000D03*
X71755000Y-48895000D03*
X71755000Y-51435000D03*
X71755000Y-53975000D03*
X71755000Y-56515000D03*
X56515000Y-56515000D03*
X56515000Y-53975000D03*
X56515000Y-51435000D03*
X56515000Y-48895000D03*
X56515000Y-46355000D03*
X56515000Y-43815000D03*
X56515000Y-41275000D03*
X56515000Y-38735000D03*
X56515000Y-36195000D03*
X56515000Y-33655000D03*
D22*
X56515000Y-31115000D03*
X56515000Y-28575000D03*
D16*
X73025000Y-71120000D03*
X55245000Y-71120000D03*
X142875000Y-60325000D03*
X41275000Y-60325000D03*
D23*
X146050000Y-35655000D03*
X146050000Y-31655000D03*
X149860000Y-35655000D03*
X149860000Y-31655000D03*
X137160000Y-35655000D03*
X137160000Y-31655000D03*
X38100000Y-45625000D03*
X38100000Y-49625000D03*
X34290000Y-45625000D03*
X34290000Y-49625000D03*
X46990000Y-45625000D03*
X46990000Y-49625000D03*
D10*
G36*
X94093047Y-89502437D02*
X92042437Y-91553047D01*
X90345381Y-89855991D01*
X92395991Y-87805381D01*
X94093047Y-89502437D01*
X94093047Y-89502437D01*
G37*
G36*
X91264619Y-86674009D02*
X89214009Y-88724619D01*
X87516953Y-87027563D01*
X89567563Y-84976953D01*
X91264619Y-86674009D01*
X91264619Y-86674009D01*
G37*
G36*
X85203047Y-78707437D02*
X83152437Y-80758047D01*
X81455381Y-79060991D01*
X83505991Y-77010381D01*
X85203047Y-78707437D01*
X85203047Y-78707437D01*
G37*
G36*
X82374619Y-75879009D02*
X80324009Y-77929619D01*
X78626953Y-76232563D01*
X80677563Y-74181953D01*
X82374619Y-75879009D01*
X82374619Y-75879009D01*
G37*
G36*
X91326953Y-63532563D02*
X93377563Y-61481953D01*
X95074619Y-63179009D01*
X93024009Y-65229619D01*
X91326953Y-63532563D01*
X91326953Y-63532563D01*
G37*
G36*
X94155381Y-66360991D02*
X96205991Y-64310381D01*
X97903047Y-66007437D01*
X95852437Y-68058047D01*
X94155381Y-66360991D01*
X94155381Y-66360991D01*
G37*
G36*
X102756953Y-71787563D02*
X104807563Y-69736953D01*
X106504619Y-71434009D01*
X104454009Y-73484619D01*
X102756953Y-71787563D01*
X102756953Y-71787563D01*
G37*
G36*
X105585381Y-74615991D02*
X107635991Y-72565381D01*
X109333047Y-74262437D01*
X107282437Y-76313047D01*
X105585381Y-74615991D01*
X105585381Y-74615991D01*
G37*
G36*
X92596953Y-81947563D02*
X94647563Y-79896953D01*
X96344619Y-81594009D01*
X94294009Y-83644619D01*
X92596953Y-81947563D01*
X92596953Y-81947563D01*
G37*
G36*
X95425381Y-84775991D02*
X97475991Y-82725381D01*
X99173047Y-84422437D01*
X97122437Y-86473047D01*
X95425381Y-84775991D01*
X95425381Y-84775991D01*
G37*
G36*
X86246953Y-68612563D02*
X88297563Y-66561953D01*
X89994619Y-68259009D01*
X87944009Y-70309619D01*
X86246953Y-68612563D01*
X86246953Y-68612563D01*
G37*
G36*
X89075381Y-71440991D02*
X91125991Y-69390381D01*
X92823047Y-71087437D01*
X90772437Y-73138047D01*
X89075381Y-71440991D01*
X89075381Y-71440991D01*
G37*
G36*
X97676953Y-76867563D02*
X99727563Y-74816953D01*
X101424619Y-76514009D01*
X99374009Y-78564619D01*
X97676953Y-76867563D01*
X97676953Y-76867563D01*
G37*
G36*
X100505381Y-79695991D02*
X102555991Y-77645381D01*
X104253047Y-79342437D01*
X102202437Y-81393047D01*
X100505381Y-79695991D01*
X100505381Y-79695991D01*
G37*
D23*
X146050000Y-49625000D03*
X146050000Y-45625000D03*
X149860000Y-49625000D03*
X149860000Y-45625000D03*
X137160000Y-49625000D03*
X137160000Y-45625000D03*
X38100000Y-31655000D03*
X38100000Y-35655000D03*
X34290000Y-31655000D03*
X34290000Y-35655000D03*
X46990000Y-31655000D03*
X46990000Y-35655000D03*
D10*
G36*
X84976953Y-89567563D02*
X87027563Y-87516953D01*
X88724619Y-89214009D01*
X86674009Y-91264619D01*
X84976953Y-89567563D01*
X84976953Y-89567563D01*
G37*
G36*
X87805381Y-92395991D02*
X89855991Y-90345381D01*
X91553047Y-92042437D01*
X89502437Y-94093047D01*
X87805381Y-92395991D01*
X87805381Y-92395991D01*
G37*
G36*
X76086953Y-78772563D02*
X78137563Y-76721953D01*
X79834619Y-78419009D01*
X77784009Y-80469619D01*
X76086953Y-78772563D01*
X76086953Y-78772563D01*
G37*
G36*
X78915381Y-81600991D02*
X80965991Y-79550381D01*
X82663047Y-81247437D01*
X80612437Y-83298047D01*
X78915381Y-81600991D01*
X78915381Y-81600991D01*
G37*
G36*
X95363047Y-68547437D02*
X93312437Y-70598047D01*
X91615381Y-68900991D01*
X93665991Y-66850381D01*
X95363047Y-68547437D01*
X95363047Y-68547437D01*
G37*
G36*
X92534619Y-65719009D02*
X90484009Y-67769619D01*
X88786953Y-66072563D01*
X90837563Y-64021953D01*
X92534619Y-65719009D01*
X92534619Y-65719009D01*
G37*
G36*
X106793047Y-76802437D02*
X104742437Y-78853047D01*
X103045381Y-77155991D01*
X105095991Y-75105381D01*
X106793047Y-76802437D01*
X106793047Y-76802437D01*
G37*
G36*
X103964619Y-73974009D02*
X101914009Y-76024619D01*
X100216953Y-74327563D01*
X102267563Y-72276953D01*
X103964619Y-73974009D01*
X103964619Y-73974009D01*
G37*
G36*
X96633047Y-86962437D02*
X94582437Y-89013047D01*
X92885381Y-87315991D01*
X94935991Y-85265381D01*
X96633047Y-86962437D01*
X96633047Y-86962437D01*
G37*
G36*
X93804619Y-84134009D02*
X91754009Y-86184619D01*
X90056953Y-84487563D01*
X92107563Y-82436953D01*
X93804619Y-84134009D01*
X93804619Y-84134009D01*
G37*
G36*
X87743047Y-76167437D02*
X85692437Y-78218047D01*
X83995381Y-76520991D01*
X86045991Y-74470381D01*
X87743047Y-76167437D01*
X87743047Y-76167437D01*
G37*
G36*
X84914619Y-73339009D02*
X82864009Y-75389619D01*
X81166953Y-73692563D01*
X83217563Y-71641953D01*
X84914619Y-73339009D01*
X84914619Y-73339009D01*
G37*
G36*
X101713047Y-81882437D02*
X99662437Y-83933047D01*
X97965381Y-82235991D01*
X100015991Y-80185381D01*
X101713047Y-81882437D01*
X101713047Y-81882437D01*
G37*
G36*
X98884619Y-79054009D02*
X96834009Y-81104619D01*
X95136953Y-79407563D01*
X97187563Y-77356953D01*
X98884619Y-79054009D01*
X98884619Y-79054009D01*
G37*
D24*
X120745000Y-31750000D03*
X116745000Y-31750000D03*
D25*
X44115000Y-40640000D03*
D13*
X42545000Y-36140000D03*
D25*
X42545000Y-31380000D03*
D13*
X42545000Y-45140000D03*
D25*
X42545000Y-49900000D03*
X33285000Y-40640000D03*
X140035000Y-40640000D03*
D13*
X141605000Y-45140000D03*
D25*
X141605000Y-49900000D03*
D13*
X141605000Y-36140000D03*
D25*
X141605000Y-31380000D03*
X150865000Y-40640000D03*
D17*
X93345000Y-24130000D03*
X93345000Y-26670000D03*
X93345000Y-29210000D03*
X93345000Y-31750000D03*
X93345000Y-34290000D03*
X93345000Y-36830000D03*
X93345000Y-39370000D03*
X93345000Y-41910000D03*
X93345000Y-44450000D03*
X93345000Y-46990000D03*
X93345000Y-49530000D03*
X93345000Y-52070000D03*
D21*
X92075000Y-54610000D03*
X89535000Y-54610000D03*
X86995000Y-54610000D03*
X84455000Y-54610000D03*
X81915000Y-54610000D03*
X79375000Y-54610000D03*
D17*
X78105000Y-52069999D03*
X78105000Y-49530000D03*
X78105000Y-46990000D03*
X78105000Y-44450000D03*
X78105000Y-41910000D03*
X78105000Y-39370000D03*
X78105000Y-36830000D03*
X78105000Y-34290000D03*
X78105000Y-31750000D03*
X78105000Y-29210000D03*
X78105000Y-26670000D03*
X78105000Y-24130000D03*
D21*
X90805000Y-24130000D03*
X90805000Y-26670000D03*
X90805000Y-29210000D03*
X90805000Y-31750000D03*
X90805000Y-34290000D03*
X90805000Y-36830000D03*
X90805000Y-39370000D03*
X90805000Y-41910000D03*
X90805000Y-44450000D03*
X90805000Y-46990000D03*
X90805000Y-49530000D03*
X95885000Y-52070000D03*
X94615000Y-54610000D03*
X89535000Y-52070000D03*
X86995000Y-52070000D03*
X84455000Y-52070000D03*
X81915000Y-52070000D03*
X80645000Y-49530000D03*
X78105000Y-57785000D03*
X77470000Y-59690000D03*
X80645000Y-46990000D03*
X80645000Y-44450000D03*
X80645000Y-41910000D03*
X80645000Y-39370000D03*
X80645000Y-36830000D03*
X80645000Y-34290000D03*
X80645000Y-31750000D03*
X80645000Y-29210000D03*
D22*
X80645000Y-26670000D03*
X80645000Y-24130000D03*
D13*
X98950000Y-26035000D03*
X104250000Y-26035000D03*
D19*
X50520600Y-56235600D03*
X50520600Y-64414400D03*
X45999400Y-64414400D03*
X45999400Y-56235600D03*
D10*
G36*
X104883949Y-85648633D02*
X103164265Y-83928949D01*
X104883949Y-82209265D01*
X106603633Y-83928949D01*
X104883949Y-85648633D01*
X104883949Y-85648633D01*
G37*
D26*
X106680000Y-85725000D02*
X106680000Y-85725000D01*
D10*
G36*
X98425000Y-91889684D02*
X96705316Y-90170000D01*
X98425000Y-88450316D01*
X100144684Y-90170000D01*
X98425000Y-91889684D01*
X98425000Y-91889684D01*
G37*
D26*
X100221051Y-91966051D02*
X100221051Y-91966051D01*
D10*
G36*
X86360000Y-63050316D02*
X88079684Y-64770000D01*
X86360000Y-66489684D01*
X84640316Y-64770000D01*
X86360000Y-63050316D01*
X86360000Y-63050316D01*
G37*
D26*
X84563949Y-62973949D02*
X84563949Y-62973949D01*
D10*
G36*
X79266040Y-70561378D02*
X80985724Y-72281062D01*
X79266040Y-74000746D01*
X77546356Y-72281062D01*
X79266040Y-70561378D01*
X79266040Y-70561378D01*
G37*
D26*
X77469989Y-70485011D02*
X77469989Y-70485011D01*
D27*
X29845000Y-47625000D03*
D28*
X29845000Y-45085000D03*
D27*
X41275000Y-27940000D03*
D28*
X43815000Y-27940000D03*
D27*
X41275000Y-53340000D03*
D28*
X43815000Y-53340000D03*
D27*
X29845000Y-33655000D03*
D28*
X29845000Y-36195000D03*
D27*
X154305000Y-33655000D03*
D28*
X154305000Y-36195000D03*
D27*
X142875000Y-27940000D03*
D28*
X140335000Y-27940000D03*
D27*
X154305000Y-47625000D03*
D28*
X154305000Y-45085000D03*
D27*
X142875000Y-53340000D03*
D28*
X140335000Y-53340000D03*
D10*
G36*
X97263949Y-63949684D02*
X95544265Y-62230000D01*
X97263949Y-60510316D01*
X98983633Y-62230000D01*
X97263949Y-63949684D01*
X97263949Y-63949684D01*
G37*
D26*
X99060000Y-64026051D02*
X99060000Y-64026051D01*
M02*
