G04 #@! TF.FileFunction,Copper,L1,Top,Signal*
%FSLAX46Y46*%
G04 Gerber Fmt 4.6, Leading zero omitted, Abs format (unit mm)*
G04 Created by KiCad (PCBNEW 4.0.1-3.201512221401+6198~38~ubuntu15.10.1-stable) date Mon Feb 15 20:14:59 2016*
%MOMM*%
G01*
G04 APERTURE LIST*
%ADD10C,0.101600*%
%ADD11C,0.152400*%
%ADD12O,2.032000X1.524000*%
%ADD13O,1.524000X2.032000*%
%ADD14O,1.524000X1.524000*%
%ADD15O,1.397000X1.397000*%
%ADD16C,1.501140*%
%ADD17C,1.998980*%
%ADD18R,2.032000X2.032000*%
%ADD19O,2.032000X2.032000*%
%ADD20O,2.413000X1.397000*%
%ADD21O,2.032000X1.397000*%
%ADD22C,1.524000*%
%ADD23C,1.600000*%
%ADD24C,3.700000*%
%ADD25C,2.600000*%
%ADD26C,0.762000*%
%ADD27C,0.254000*%
%ADD28C,0.762000*%
%ADD29C,0.508000*%
G04 APERTURE END LIST*
D10*
D11*
X139700000Y-22860000D02*
X141605000Y-22860000D01*
X139700000Y-22860000D02*
G75*
G03X138430000Y-24130000I0J-1270000D01*
G01*
X132080000Y-24130000D02*
G75*
G03X130810000Y-22860000I-1270000J0D01*
G01*
X137160000Y-29210000D02*
G75*
G03X138430000Y-27940000I0J1270000D01*
G01*
X132080000Y-27940000D02*
G75*
G03X133350000Y-29210000I1270000J0D01*
G01*
X133350000Y-29210000D02*
X137160000Y-29210000D01*
X138430000Y-27940000D02*
X138430000Y-24130000D01*
X132080000Y-24130000D02*
X132080000Y-27940000D01*
X109220000Y-74930000D02*
X130175000Y-74930000D01*
X74930000Y-74930000D02*
X53975000Y-74930000D01*
X109220000Y-74930000D02*
G75*
G03X92075000Y-57785000I-17145000J0D01*
G01*
X92075000Y-57785000D02*
G75*
G03X74930000Y-74930000I0J-17145000D01*
G01*
X53975000Y-74930000D02*
X29972000Y-53213000D01*
X29972641Y-53212359D02*
G75*
G02X42545000Y-22860000I12572359J12572359D01*
G01*
X42545000Y-22860000D02*
X130810000Y-22860000D01*
X130175000Y-74930000D02*
X154178000Y-53213000D01*
X154177359Y-53212359D02*
G75*
G03X141605000Y-22860000I-12572359J12572359D01*
G01*
D12*
X93345000Y-24130000D03*
X93345000Y-26670000D03*
X93345000Y-29210000D03*
X93345000Y-31750000D03*
X93345000Y-34290000D03*
X93345000Y-36830000D03*
X93345000Y-39370000D03*
X93345000Y-41910000D03*
X93345000Y-44450000D03*
X93345000Y-46990000D03*
X93345000Y-49530000D03*
X93345000Y-52070000D03*
D13*
X92075000Y-54610000D03*
X89535000Y-54610000D03*
X86995000Y-54610000D03*
X84455000Y-54610000D03*
X81915000Y-54610000D03*
X79375000Y-54610000D03*
D12*
X78105000Y-52069999D03*
X78105000Y-49530000D03*
X78105000Y-46990000D03*
X78105000Y-44450000D03*
X78105000Y-41910000D03*
X78105000Y-39370000D03*
X78105000Y-36830000D03*
X78105000Y-34290000D03*
X78105000Y-31750000D03*
X78105000Y-29210000D03*
X78105000Y-26670000D03*
X78105000Y-24130000D03*
D14*
X90805000Y-24130000D03*
X90805000Y-26670000D03*
X90805000Y-29210000D03*
X90805000Y-31750000D03*
X90805000Y-34290000D03*
X90805000Y-36830000D03*
X90805000Y-39370000D03*
X90805000Y-41910000D03*
X90805000Y-44450000D03*
X90805000Y-46990000D03*
X90805000Y-49530000D03*
X95885000Y-52070000D03*
X94615000Y-54610000D03*
X89535000Y-52070000D03*
X86995000Y-52070000D03*
X84455000Y-52070000D03*
X81915000Y-52070000D03*
X76835000Y-54610000D03*
X75565000Y-52070000D03*
X80645000Y-49530000D03*
X80645000Y-46990000D03*
X80645000Y-44450000D03*
X80645000Y-41910000D03*
X80645000Y-39370000D03*
X80645000Y-36830000D03*
X80645000Y-34290000D03*
X80645000Y-31750000D03*
X80645000Y-29210000D03*
D15*
X80645000Y-26670000D03*
X80645000Y-24130000D03*
D16*
X140335000Y-54610000D03*
X142875000Y-54610000D03*
X155575000Y-41910000D03*
X155575000Y-39370000D03*
X140335000Y-27940000D03*
X142875000Y-27940000D03*
X103505000Y-48895000D03*
X103505000Y-46355000D03*
X28575000Y-41910000D03*
X28575000Y-39370000D03*
X43815000Y-53975000D03*
X41275000Y-53975000D03*
X43815000Y-27940000D03*
X41275000Y-27940000D03*
D17*
X146685000Y-51435000D03*
X136525000Y-51435000D03*
X152400000Y-35560000D03*
X152400000Y-45720000D03*
X146685000Y-31115000D03*
X136525000Y-31115000D03*
X106680000Y-38735000D03*
X106680000Y-48895000D03*
X31750000Y-35560000D03*
X31750000Y-45720000D03*
X37465000Y-50800000D03*
X47625000Y-50800000D03*
X37465000Y-31115000D03*
X47625000Y-31115000D03*
D18*
X106045000Y-52070000D03*
D19*
X103505000Y-52070000D03*
D12*
X73025000Y-28575000D03*
X73025000Y-31115000D03*
X73025000Y-33655000D03*
X73025000Y-36195000D03*
X73025000Y-38735000D03*
X73025000Y-41275000D03*
X73025000Y-43815000D03*
X73025000Y-46355000D03*
X73025000Y-48895000D03*
X73025000Y-51435000D03*
X73025000Y-53975000D03*
X73025000Y-56515000D03*
D13*
X69215000Y-60960000D03*
X66675000Y-60960000D03*
X64135000Y-60960000D03*
X61595000Y-60960000D03*
X59055000Y-60960000D03*
X56515000Y-60960000D03*
D12*
X52705000Y-56515000D03*
X52705000Y-53975000D03*
X52705000Y-51435000D03*
X52705000Y-48895000D03*
X52705000Y-46355000D03*
X52705000Y-43815000D03*
X52705000Y-41275000D03*
X52705000Y-38735000D03*
X52705000Y-36195000D03*
X52705000Y-33655000D03*
X52705000Y-31115000D03*
X52705000Y-28575000D03*
D14*
X70485000Y-28575000D03*
X70485000Y-31115000D03*
X70485000Y-33655000D03*
X70485000Y-36195000D03*
X70485000Y-38735000D03*
X70485000Y-41275000D03*
X70485000Y-43815000D03*
X70485000Y-46355000D03*
X70485000Y-48895000D03*
X70485000Y-51435000D03*
X70485000Y-53975000D03*
X70485000Y-56515000D03*
X55245000Y-56515000D03*
X55245000Y-53975000D03*
X55245000Y-51435000D03*
X55245000Y-48895000D03*
X55245000Y-46355000D03*
X55245000Y-43815000D03*
X55245000Y-41275000D03*
X55245000Y-38735000D03*
X55245000Y-36195000D03*
X55245000Y-33655000D03*
D15*
X55245000Y-31115000D03*
X55245000Y-28575000D03*
D20*
X66675000Y-29210000D03*
X66675000Y-31750000D03*
X66675000Y-34290000D03*
X66675000Y-36830000D03*
X66675000Y-39370000D03*
D21*
X66675000Y-41910000D03*
D20*
X66675000Y-44450000D03*
X66675000Y-46990000D03*
X66675000Y-49530000D03*
X66675000Y-52070000D03*
D12*
X130810000Y-67310000D03*
X130810000Y-64770000D03*
X130810000Y-62230000D03*
X130810000Y-59690000D03*
X130810000Y-57150000D03*
X130810000Y-54610000D03*
X130810000Y-52070000D03*
X130810000Y-49530000D03*
X130810000Y-46990000D03*
X130810000Y-44450000D03*
X130810000Y-41910000D03*
X130810000Y-39370000D03*
X110490000Y-29210000D03*
X110490000Y-31750000D03*
X110490000Y-34290000D03*
X110490000Y-36830000D03*
X110490000Y-39370000D03*
X110490000Y-41910000D03*
X110490000Y-44450000D03*
X110490000Y-46990000D03*
X110490000Y-49530000D03*
X110490000Y-52070000D03*
X110490000Y-54610000D03*
X110490000Y-57150000D03*
X110490000Y-59690000D03*
X110490000Y-62230000D03*
X110490000Y-64770000D03*
X110490000Y-67310000D03*
D22*
X128270000Y-67310000D03*
X128270000Y-64770000D03*
X128270000Y-62230000D03*
X128270000Y-59690000D03*
X128270000Y-57150000D03*
X128270000Y-54610000D03*
X128270000Y-52070000D03*
X128270000Y-49530000D03*
X128270000Y-46990000D03*
X128270000Y-44450000D03*
X128270000Y-41910000D03*
X128270000Y-39370000D03*
X113030000Y-29210000D03*
X113030000Y-31750000D03*
X113030000Y-34290000D03*
X113030000Y-36830000D03*
X113030000Y-39370000D03*
X113030000Y-41910000D03*
X113030000Y-44450000D03*
X113030000Y-46990000D03*
X113030000Y-49530000D03*
X113030000Y-52070000D03*
X113030000Y-54610000D03*
X113030000Y-57150000D03*
X113030000Y-59690000D03*
X113030000Y-62230000D03*
X113030000Y-64770000D03*
X113030000Y-67310000D03*
D23*
X42545000Y-48140000D03*
X40045000Y-48140000D03*
X45045000Y-48140000D03*
X40045000Y-33640000D03*
X45045000Y-33640000D03*
D24*
X49245000Y-40640000D03*
X35845000Y-40640000D03*
D23*
X141605000Y-48140000D03*
X139105000Y-48140000D03*
X144105000Y-48140000D03*
X139105000Y-33640000D03*
X144105000Y-33640000D03*
D24*
X148305000Y-40640000D03*
X134905000Y-40640000D03*
D25*
X99585000Y-26035000D03*
X104885000Y-26035000D03*
D26*
X74930000Y-45720000D03*
X99695000Y-52197000D03*
X98425000Y-28575006D03*
X98406801Y-30607021D03*
X102235000Y-30480000D03*
X102234996Y-35560000D03*
X132715000Y-31750000D03*
X116840006Y-40640000D03*
X106680000Y-43180000D03*
D27*
X128270000Y-49530000D02*
X126365000Y-47625000D01*
X99966780Y-31115000D02*
X99966780Y-30116780D01*
X106680000Y-33020000D02*
X105410000Y-31750000D01*
X125730000Y-34290000D02*
X115570000Y-34290000D01*
X105410000Y-31750000D02*
X100601780Y-31750000D01*
X126365000Y-47625000D02*
X126365000Y-34925000D01*
X74295000Y-28575000D02*
X73025000Y-28575000D01*
X88265000Y-29210000D02*
X83185000Y-29210000D01*
X89535000Y-27940000D02*
X88265000Y-29210000D01*
X100601780Y-31750000D02*
X99966780Y-31115000D01*
X126365000Y-34925000D02*
X125730000Y-34290000D01*
X114300000Y-33020000D02*
X106680000Y-33020000D01*
X115570000Y-34290000D02*
X114300000Y-33020000D01*
X99966780Y-30116780D02*
X99441000Y-29591000D01*
X99441000Y-29591000D02*
X97536000Y-29591000D01*
X83185000Y-29210000D02*
X81915000Y-27940000D01*
X95885000Y-27940000D02*
X89535000Y-27940000D01*
X97536000Y-29591000D02*
X95885000Y-27940000D01*
X81915000Y-27940000D02*
X74930000Y-27940000D01*
X74930000Y-27940000D02*
X74295000Y-28575000D01*
X73025000Y-28575000D02*
X70485000Y-28575000D01*
X130810000Y-49530000D02*
X128270000Y-49530000D01*
X73025000Y-31115000D02*
X74295000Y-31115000D01*
X74295000Y-31115000D02*
X74930000Y-30480000D01*
X74930000Y-30480000D02*
X81915000Y-30480000D01*
X81915000Y-30480000D02*
X84455000Y-33020000D01*
X84455000Y-33020000D02*
X104140000Y-33020000D01*
X104140000Y-33020000D02*
X106680000Y-35560000D01*
X106680000Y-35560000D02*
X125095000Y-35560000D01*
X125095000Y-35560000D02*
X125730000Y-36195000D01*
X125730000Y-36195000D02*
X125730000Y-52070000D01*
X125730000Y-52070000D02*
X127508001Y-53848001D01*
X127508001Y-53848001D02*
X128270000Y-54610000D01*
X70485000Y-31115000D02*
X73025000Y-31115000D01*
X128270000Y-54610000D02*
X130810000Y-54610000D01*
X128270000Y-57150000D02*
X125095000Y-53975000D01*
X125095000Y-53975000D02*
X125095000Y-38735000D01*
X107950000Y-36830000D02*
X105410000Y-36830000D01*
X105410000Y-36830000D02*
X104140000Y-38100000D01*
X104140000Y-38100000D02*
X86995000Y-38100000D01*
X125095000Y-38735000D02*
X124460000Y-38100000D01*
X124460000Y-38100000D02*
X109220000Y-38100000D01*
X109220000Y-38100000D02*
X107950000Y-36830000D01*
X86995000Y-38100000D02*
X81915000Y-33020000D01*
X81915000Y-33020000D02*
X75565000Y-33020000D01*
X75565000Y-33020000D02*
X74930000Y-32385000D01*
X74930000Y-32385000D02*
X69088000Y-32385000D01*
X69088000Y-32385000D02*
X67183000Y-34290000D01*
X67183000Y-34290000D02*
X66675000Y-34290000D01*
X130810000Y-57150000D02*
X128270000Y-57150000D01*
X66675000Y-36830000D02*
X67183000Y-36830000D01*
X67183000Y-36830000D02*
X69088000Y-34925000D01*
X69088000Y-34925000D02*
X74295000Y-34925000D01*
X74295000Y-34925000D02*
X74930000Y-35560000D01*
X107315000Y-41910000D02*
X108585000Y-43180000D01*
X108585000Y-43180000D02*
X123825000Y-43180000D01*
X123825000Y-43180000D02*
X124460000Y-43815000D01*
X74930000Y-35560000D02*
X81915000Y-35560000D01*
X81915000Y-35560000D02*
X89535000Y-43180000D01*
X89535000Y-43180000D02*
X95885000Y-43180000D01*
X95885000Y-43180000D02*
X97155000Y-41910000D01*
X97155000Y-41910000D02*
X107315000Y-41910000D01*
X124460000Y-43815000D02*
X124460000Y-55880000D01*
X124460000Y-55880000D02*
X127508001Y-58928001D01*
X127508001Y-58928001D02*
X128270000Y-59690000D01*
X128270000Y-59690000D02*
X130810000Y-59690000D01*
X66675000Y-41910000D02*
X66992500Y-41910000D01*
X66992500Y-41910000D02*
X68897500Y-40005000D01*
X106962158Y-45720000D02*
X123190000Y-45720000D01*
X123190000Y-45720000D02*
X123825000Y-46355000D01*
X68897500Y-40005000D02*
X74295000Y-40005000D01*
X74295000Y-40005000D02*
X76200000Y-38100000D01*
X82550000Y-38100000D02*
X90170000Y-45720000D01*
X90170000Y-45720000D02*
X97155000Y-45720000D01*
X76200000Y-38100000D02*
X82550000Y-38100000D01*
X97155000Y-45720000D02*
X97790000Y-45085000D01*
X123825000Y-46355000D02*
X123825000Y-57785000D01*
X97790000Y-45085000D02*
X106327158Y-45085000D01*
X106327158Y-45085000D02*
X106962158Y-45720000D01*
X123825000Y-57785000D02*
X128270000Y-62230000D01*
X130810000Y-62230000D02*
X128270000Y-62230000D01*
X74930000Y-45720000D02*
X81915000Y-45720000D01*
X100330000Y-48260000D02*
X101600000Y-49530000D01*
X81915000Y-45720000D02*
X84455000Y-48260000D01*
X84455000Y-48260000D02*
X100330000Y-48260000D01*
X101600000Y-49530000D02*
X101600000Y-52705000D01*
X101600000Y-52705000D02*
X104775000Y-55880000D01*
X104775000Y-55880000D02*
X113665000Y-55880000D01*
X113665000Y-55880000D02*
X121285000Y-63500000D01*
X121285000Y-63500000D02*
X132080000Y-63500000D01*
X132080000Y-63500000D02*
X132715000Y-62865000D01*
X132715000Y-62865000D02*
X132715000Y-52705000D01*
X132715000Y-52705000D02*
X132080000Y-52070000D01*
X132080000Y-52070000D02*
X130810000Y-52070000D01*
X128270000Y-52070000D02*
X130810000Y-52070000D01*
X132080000Y-46990000D02*
X130810000Y-46990000D01*
X133350000Y-48260000D02*
X132080000Y-46990000D01*
X133350000Y-65405000D02*
X132715000Y-66040000D01*
X133350000Y-65405000D02*
X133350000Y-48260000D01*
X68770500Y-47625000D02*
X68135500Y-46990000D01*
X75565000Y-47625000D02*
X68770500Y-47625000D01*
X100965000Y-51435000D02*
X100330000Y-50800000D01*
X100965000Y-53340000D02*
X100965000Y-51435000D01*
X76200000Y-48260000D02*
X75565000Y-47625000D01*
X121285000Y-66040000D02*
X113665000Y-58420000D01*
X132715000Y-66040000D02*
X121285000Y-66040000D01*
X106045000Y-58420000D02*
X100965000Y-53340000D01*
X100330000Y-50800000D02*
X83820000Y-50800000D01*
X68135500Y-46990000D02*
X66675000Y-46990000D01*
X113665000Y-58420000D02*
X106045000Y-58420000D01*
X83820000Y-50800000D02*
X81280000Y-48260000D01*
X81280000Y-48260000D02*
X76200000Y-48260000D01*
X128270000Y-46990000D02*
X130810000Y-46990000D01*
X110490000Y-62230000D02*
X107315000Y-62230000D01*
X107315000Y-62230000D02*
X101219000Y-56134000D01*
X101219000Y-56134000D02*
X81280000Y-56134000D01*
X80645000Y-55499000D02*
X80645000Y-52705000D01*
X80645000Y-52705000D02*
X80010000Y-52070000D01*
X80010000Y-52070000D02*
X78105001Y-52070000D01*
X81280000Y-56134000D02*
X80645000Y-55499000D01*
X78105001Y-52070000D02*
X78105000Y-52069999D01*
X75565000Y-52070000D02*
X78104999Y-52070000D01*
X78104999Y-52070000D02*
X78105000Y-52069999D01*
X110490000Y-62230000D02*
X113030000Y-62230000D01*
X113030000Y-64770000D02*
X114300000Y-64770000D01*
X114300000Y-64770000D02*
X114935000Y-64135000D01*
X114935000Y-64135000D02*
X114935000Y-61595000D01*
X107315000Y-60960000D02*
X99695000Y-53340000D01*
X99695000Y-53340000D02*
X99695000Y-52197000D01*
X114935000Y-61595000D02*
X114300000Y-60960000D01*
X114300000Y-60960000D02*
X107315000Y-60960000D01*
X78105000Y-49530000D02*
X80645000Y-49530000D01*
X113030000Y-64770000D02*
X113665000Y-64770000D01*
X113030000Y-64770000D02*
X110490000Y-64770000D01*
X59690000Y-38100000D02*
X59055000Y-37465000D01*
X59055000Y-37465000D02*
X48870000Y-37465000D01*
X48870000Y-37465000D02*
X45045000Y-33640000D01*
X78105000Y-36830000D02*
X74930000Y-36830000D01*
X74930000Y-36830000D02*
X74295000Y-37465000D01*
X74295000Y-37465000D02*
X69215000Y-37465000D01*
X69215000Y-37465000D02*
X68580000Y-38100000D01*
X68580000Y-38100000D02*
X59690000Y-38100000D01*
X43815000Y-27940000D02*
X43815000Y-31115000D01*
X43815000Y-31115000D02*
X43815000Y-32410000D01*
X47625000Y-31115000D02*
X43815000Y-31115000D01*
X43815000Y-32410000D02*
X45045000Y-33640000D01*
X80645000Y-36830000D02*
X78105000Y-36830000D01*
X59690000Y-45085000D02*
X48100000Y-45085000D01*
X48100000Y-45085000D02*
X45045000Y-48140000D01*
X80645000Y-39370000D02*
X81915000Y-39370000D01*
X74930000Y-43815000D02*
X74930000Y-44450000D01*
X81915000Y-39370000D02*
X82550000Y-40005000D01*
X82550000Y-40005000D02*
X82550000Y-42545000D01*
X67945000Y-45720000D02*
X60325000Y-45720000D01*
X82550000Y-42545000D02*
X81915000Y-43180000D01*
X60325000Y-45720000D02*
X59690000Y-45085000D01*
X81915000Y-43180000D02*
X75565000Y-43180000D01*
X75565000Y-43180000D02*
X74930000Y-43815000D01*
X74930000Y-44450000D02*
X74295000Y-45085000D01*
X74295000Y-45085000D02*
X68580000Y-45085000D01*
X68580000Y-45085000D02*
X67945000Y-45720000D01*
X45045000Y-48140000D02*
X45045000Y-50800000D01*
X45045000Y-50800000D02*
X45045000Y-52745000D01*
X47625000Y-50800000D02*
X45045000Y-50800000D01*
X45045000Y-52745000D02*
X43815000Y-53975000D01*
X80645000Y-39370000D02*
X78105000Y-39370000D01*
X78105000Y-41910000D02*
X74930000Y-41910000D01*
X74930000Y-41910000D02*
X74295000Y-42545000D01*
X68580000Y-43180000D02*
X60960000Y-43180000D01*
X60960000Y-43180000D02*
X60325000Y-42545000D01*
X40640000Y-43815000D02*
X40045000Y-44410000D01*
X74295000Y-42545000D02*
X69215000Y-42545000D01*
X60325000Y-42545000D02*
X51435000Y-42545000D01*
X40045000Y-44410000D02*
X40045000Y-48140000D01*
X69215000Y-42545000D02*
X68580000Y-43180000D01*
X51435000Y-42545000D02*
X50165000Y-43815000D01*
X50165000Y-43815000D02*
X40640000Y-43815000D01*
X80645000Y-41910000D02*
X78105000Y-41910000D01*
X31750000Y-45720000D02*
X31750000Y-47133492D01*
X31750000Y-47133492D02*
X32756508Y-48140000D01*
X32756508Y-48140000D02*
X40045000Y-48140000D01*
X28575000Y-41910000D02*
X28575000Y-45085000D01*
X28575000Y-45085000D02*
X29210000Y-45720000D01*
X29210000Y-45720000D02*
X31750000Y-45720000D01*
X106045000Y-52070000D02*
X110490000Y-52070000D01*
X106680000Y-50165000D02*
X106045000Y-50800000D01*
X106045000Y-50800000D02*
X106045000Y-52070000D01*
X106680000Y-48895000D02*
X106680000Y-50165000D01*
X103505000Y-48895000D02*
X106680000Y-48895000D01*
X113030000Y-52070000D02*
X110490000Y-52070000D01*
X114935006Y-27940006D02*
X109220000Y-27940006D01*
X98425000Y-28575006D02*
X108585000Y-28575006D01*
X108585000Y-28575006D02*
X109220000Y-27940006D01*
X83312021Y-30607021D02*
X97867986Y-30607021D01*
X97867986Y-30607021D02*
X98406801Y-30607021D01*
X117475000Y-30480000D02*
X114935006Y-27940006D01*
X133985000Y-30480000D02*
X117475000Y-30480000D01*
X136525000Y-31115000D02*
X134620000Y-31115000D01*
X134620000Y-31115000D02*
X133985000Y-30480000D01*
X80645000Y-29210000D02*
X81915000Y-29210000D01*
X81915000Y-29210000D02*
X83312021Y-30607021D01*
X80645000Y-29210000D02*
X78105000Y-29210000D01*
X139700000Y-31115000D02*
X136525000Y-31115000D01*
X140335000Y-30480000D02*
X139700000Y-31115000D01*
X140335000Y-27940000D02*
X140335000Y-30480000D01*
X136525000Y-31115000D02*
X136525000Y-33020000D01*
X137145000Y-33640000D02*
X139105000Y-33640000D01*
X136525000Y-33020000D02*
X137145000Y-33640000D01*
X144780000Y-45720000D02*
X144105000Y-46395000D01*
X144105000Y-46395000D02*
X144105000Y-48140000D01*
X152400000Y-45720000D02*
X144780000Y-45720000D01*
X132715000Y-31750000D02*
X116840000Y-31750000D01*
X116840000Y-31750000D02*
X115570000Y-30480000D01*
X102773815Y-30480000D02*
X102235000Y-30480000D01*
X115570000Y-30480000D02*
X102773815Y-30480000D01*
X102234996Y-35560000D02*
X85725000Y-35560000D01*
X85725000Y-35560000D02*
X81915000Y-31750000D01*
X81915000Y-31750000D02*
X80645000Y-31750000D01*
X80645000Y-31750000D02*
X78105000Y-31750000D01*
X155575000Y-41910000D02*
X153035000Y-41910000D01*
X152400000Y-42545000D02*
X152400000Y-45720000D01*
X153035000Y-41910000D02*
X152400000Y-42545000D01*
X88265000Y-40640000D02*
X114935000Y-40640000D01*
X114935000Y-40640000D02*
X116840006Y-40640000D01*
X81915000Y-34290000D02*
X88265000Y-40640000D01*
X80645000Y-34290000D02*
X81915000Y-34290000D01*
X139700000Y-51435000D02*
X140335000Y-52070000D01*
X140335000Y-52070000D02*
X140335000Y-54610000D01*
X136525000Y-51435000D02*
X139700000Y-51435000D01*
X80645000Y-34290000D02*
X78105000Y-34290000D01*
X139105000Y-48140000D02*
X137160000Y-48140000D01*
X136525000Y-48775000D02*
X137160000Y-48140000D01*
X136525000Y-51435000D02*
X136525000Y-48775000D01*
D28*
X59055000Y-55245000D02*
X59055000Y-57150000D01*
X59055000Y-57150000D02*
X58420000Y-57785000D01*
X58420000Y-57785000D02*
X56515000Y-57785000D01*
X56515000Y-57785000D02*
X55880000Y-57785000D01*
X59055000Y-55245000D02*
X59055000Y-53340000D01*
X59055000Y-53340000D02*
X58420000Y-52705000D01*
X58420000Y-52705000D02*
X55880000Y-52705000D01*
X66675000Y-52070000D02*
X62230000Y-52070000D01*
X61595000Y-54610000D02*
X61595000Y-52705000D01*
X61595000Y-52705000D02*
X62230000Y-52070000D01*
X60960000Y-55245000D02*
X61595000Y-54610000D01*
X59055000Y-55245000D02*
X60960000Y-55245000D01*
X55880000Y-55245000D02*
X59055000Y-55245000D01*
D27*
X55572662Y-55245000D02*
X55880000Y-55245000D01*
X51435000Y-55245000D02*
X55572662Y-55245000D01*
D28*
X50165000Y-55245000D02*
X50165000Y-53340000D01*
X50165000Y-57785000D02*
X50165000Y-55245000D01*
X50165000Y-55245000D02*
X51435000Y-55245000D01*
D27*
X51435000Y-52705000D02*
X55880000Y-52705000D01*
D28*
X50800000Y-52705000D02*
X51435000Y-52705000D01*
X50165000Y-53340000D02*
X50800000Y-52705000D01*
X146685000Y-35560000D02*
X135890000Y-35560000D01*
X135890000Y-35560000D02*
X133350000Y-33020000D01*
X133350000Y-33020000D02*
X116205000Y-33020000D01*
X114935000Y-31750000D02*
X113030000Y-31750000D01*
X116205000Y-33020000D02*
X114935000Y-31750000D01*
D27*
X55880000Y-57785000D02*
X51435000Y-57785000D01*
D28*
X50800000Y-57785000D02*
X51435000Y-57785000D01*
X50800000Y-57785000D02*
X50165000Y-57785000D01*
X50165000Y-57785000D02*
X41275000Y-57785000D01*
X50165000Y-59309000D02*
X50165000Y-57785000D01*
X41275000Y-57785000D02*
X37465000Y-53975000D01*
D29*
X114300000Y-68643501D02*
X114236498Y-68579999D01*
X114236498Y-68579999D02*
X109347003Y-68579999D01*
X109347003Y-68579999D02*
X109283501Y-68643501D01*
X132715000Y-68580000D02*
X132714999Y-68579999D01*
X132714999Y-68579999D02*
X127063502Y-68579999D01*
X127063502Y-68579999D02*
X127000000Y-68643501D01*
D28*
X134620000Y-66675000D02*
X132715000Y-68580000D01*
D27*
X134620000Y-66675000D02*
X134620000Y-66738501D01*
D28*
X134620000Y-65405000D02*
X134620000Y-66675000D01*
X114300000Y-68643501D02*
X127000000Y-68643501D01*
D27*
X134620000Y-66738501D02*
X132715000Y-68643501D01*
X132715000Y-68643501D02*
X127000000Y-68643501D01*
D28*
X134620000Y-65405000D02*
X134620000Y-57785000D01*
X50165000Y-62230000D02*
X50165000Y-59309000D01*
X51435000Y-63500000D02*
X50165000Y-62230000D01*
X73660000Y-63500000D02*
X51435000Y-63500000D01*
X75946000Y-61214000D02*
X73660000Y-63500000D01*
X75946000Y-58039000D02*
X75946000Y-61214000D01*
X143510000Y-56515000D02*
X146685000Y-53340000D01*
X75946000Y-58039000D02*
X76835000Y-57150000D01*
X76835000Y-57150000D02*
X100330000Y-57150000D01*
X100330000Y-57150000D02*
X108331000Y-65151000D01*
X134620000Y-57785000D02*
X135890000Y-56515000D01*
X108331000Y-65151000D02*
X108331000Y-67691000D01*
X108331000Y-67691000D02*
X109283501Y-68643501D01*
X135890000Y-56515000D02*
X143510000Y-56515000D01*
X146685000Y-53340000D02*
X146685000Y-51435000D01*
X157480000Y-43815000D02*
X153670000Y-47625000D01*
X146685000Y-48895000D02*
X147955000Y-47625000D01*
X147955000Y-47625000D02*
X153670000Y-47625000D01*
X146685000Y-51435000D02*
X146685000Y-48895000D01*
X152400000Y-35560000D02*
X146685000Y-35560000D01*
X146685000Y-31115000D02*
X146685000Y-35560000D01*
X152400000Y-35560000D02*
X156210000Y-35560000D01*
X156210000Y-35560000D02*
X157480000Y-36830000D01*
X157480000Y-36830000D02*
X157480000Y-43815000D01*
D29*
X66675000Y-31750000D02*
X67183000Y-31750000D01*
D28*
X44450000Y-25400000D02*
X39370000Y-25400000D01*
X46990000Y-25400000D02*
X44450000Y-25400000D01*
X44450000Y-25400000D02*
X46990000Y-25400000D01*
X46990000Y-25400000D02*
X51435000Y-29845000D01*
X56515000Y-29845000D02*
X57785000Y-29845000D01*
D29*
X51435000Y-29845000D02*
X56515000Y-29845000D01*
D28*
X67310000Y-31750000D02*
X66675000Y-31750000D01*
X93345000Y-44450000D02*
X90805000Y-44450000D01*
X37465000Y-53975000D02*
X37465000Y-50800000D01*
X70485000Y-48895000D02*
X69850000Y-48895000D01*
X69850000Y-48895000D02*
X66675000Y-52070000D01*
X73025000Y-48895000D02*
X70485000Y-48895000D01*
X96520000Y-44450000D02*
X97790000Y-43180000D01*
X97790000Y-43180000D02*
X106680000Y-43180000D01*
X93345000Y-44450000D02*
X96520000Y-44450000D01*
X66675000Y-31750000D02*
X59690000Y-31750000D01*
X59690000Y-31750000D02*
X57785000Y-29845000D01*
X37465000Y-27305000D02*
X37465000Y-31115000D01*
X39370000Y-25400000D02*
X37465000Y-27305000D01*
X26670000Y-45085000D02*
X32385000Y-50800000D01*
X32385000Y-50800000D02*
X37465000Y-50800000D01*
X26670000Y-37465000D02*
X26670000Y-45085000D01*
X28575000Y-35560000D02*
X26670000Y-37465000D01*
X31750000Y-35560000D02*
X28575000Y-35560000D01*
X31750000Y-31750000D02*
X32385000Y-31115000D01*
X32385000Y-31115000D02*
X37465000Y-31115000D01*
X31750000Y-35560000D02*
X31750000Y-31750000D01*
X113030000Y-31750000D02*
X110490000Y-31750000D01*
D27*
X73025000Y-33655000D02*
X70485000Y-33655000D01*
X70485000Y-36195000D02*
X73025000Y-36195000D01*
X73025000Y-38735000D02*
X70485000Y-38735000D01*
X70485000Y-41275000D02*
X73025000Y-41275000D01*
X73025000Y-43815000D02*
X70485000Y-43815000D01*
X70485000Y-46355000D02*
X73025000Y-46355000D01*
X70485000Y-53975000D02*
X73025000Y-53975000D01*
X70485000Y-56515000D02*
X73025000Y-56515000D01*
X52705000Y-56515000D02*
X55245000Y-56515000D01*
X52705000Y-53975000D02*
X55245000Y-53975000D01*
X52705000Y-51435000D02*
X55245000Y-51435000D01*
X52705000Y-48895000D02*
X55245000Y-48895000D01*
X52705000Y-46355000D02*
X55245000Y-46355000D01*
X52705000Y-43815000D02*
X55245000Y-43815000D01*
X52705000Y-41275000D02*
X55245000Y-41275000D01*
X55245000Y-38735000D02*
X52705000Y-38735000D01*
X52705000Y-36195000D02*
X55245000Y-36195000D01*
X55245000Y-33655000D02*
X52705000Y-33655000D01*
X52705000Y-31115000D02*
X55245000Y-31115000D01*
X55245000Y-28575000D02*
X52705000Y-28575000D01*
X130810000Y-67310000D02*
X128270000Y-67310000D01*
X128270000Y-64770000D02*
X130810000Y-64770000D01*
X130810000Y-44450000D02*
X128270000Y-44450000D01*
X130810000Y-39370000D02*
X128270000Y-39370000D01*
X110490000Y-29210000D02*
X113030000Y-29210000D01*
X110490000Y-34290000D02*
X113030000Y-34290000D01*
X113030000Y-36830000D02*
X110490000Y-36830000D01*
X110490000Y-39370000D02*
X113030000Y-39370000D01*
X113030000Y-41910000D02*
X110490000Y-41910000D01*
X110490000Y-44450000D02*
X113030000Y-44450000D01*
X113030000Y-46990000D02*
X110490000Y-46990000D01*
X110490000Y-49530000D02*
X113030000Y-49530000D01*
X110490000Y-54610000D02*
X113030000Y-54610000D01*
X110490000Y-57150000D02*
X113030000Y-57150000D01*
X113030000Y-59690000D02*
X110490000Y-59690000D01*
X90805000Y-24130000D02*
X93345000Y-24130000D01*
X93345000Y-26670000D02*
X90805000Y-26670000D01*
X90805000Y-29210000D02*
X93345000Y-29210000D01*
X93345000Y-31750000D02*
X90805000Y-31750000D01*
X90805000Y-34290000D02*
X93345000Y-34290000D01*
X90805000Y-36830000D02*
X93345000Y-36830000D01*
X93345000Y-39370000D02*
X90805000Y-39370000D01*
X90805000Y-41910000D02*
X93345000Y-41910000D01*
X93345000Y-46990000D02*
X90805000Y-46990000D01*
X95885000Y-52070000D02*
X93345000Y-52070000D01*
X92075000Y-54610000D02*
X94615000Y-54610000D01*
X89535000Y-52070000D02*
X89535000Y-54610000D01*
X86995000Y-52070000D02*
X86995000Y-54610000D01*
X84455000Y-54610000D02*
X84455000Y-52070000D01*
X81915000Y-52070000D02*
X81915000Y-54610000D01*
X79375000Y-54610000D02*
X76835000Y-54610000D01*
X80645000Y-46990000D02*
X78105000Y-46990000D01*
X80645000Y-44450000D02*
X78105000Y-44450000D01*
X78105000Y-26670000D02*
X80645000Y-26670000D01*
X78105000Y-24130000D02*
X80645000Y-24130000D01*
X128270000Y-41910000D02*
X130810000Y-41910000D01*
M02*
