%TF.GenerationSoftware,KiCad,Pcbnew,4.1.0-alpha+201609021633+7109~49~ubuntu16.04.1-product*%
%TF.CreationDate,2016-09-14T14:47:56+05:30*%
%TF.ProjectId,OTS2,4F5453322E6B696361645F7063620000,rev?*%
%TF.FileFunction,Legend,Bot*%
%FSLAX46Y46*%
G04 Gerber Fmt 4.6, Leading zero omitted, Abs format (unit mm)*
G04 Created by KiCad (PCBNEW 4.1.0-alpha+201609021633+7109~49~ubuntu16.04.1-product) date Wed Sep 14 14:47:56 2016*
%MOMM*%
%LPD*%
G01*
G04 APERTURE LIST*
%ADD10C,0.101600*%
%ADD11C,0.150000*%
%ADD12C,0.010000*%
%ADD13C,0.127000*%
%ADD14C,0.152400*%
%ADD15R,2.432000X2.432000*%
%ADD16O,2.432000X2.432000*%
%ADD17C,2.700000*%
%ADD18C,3.000000*%
%ADD19R,2.900000X2.400000*%
%ADD20C,2.432000*%
%ADD21C,2.800000*%
%ADD22C,5.400000*%
%ADD23O,2.813000X1.797000*%
%ADD24O,2.432000X1.797000*%
%ADD25C,4.572000*%
%ADD26O,2.432000X1.924000*%
%ADD27C,1.924000*%
%ADD28R,1.924000X2.178000*%
%ADD29O,1.924000X2.432000*%
%ADD30O,1.924000X1.924000*%
%ADD31O,1.797000X1.797000*%
%ADD32R,2.400000X2.900000*%
G04 APERTURE END LIST*
D10*
D11*
X105709124Y-125575089D02*
X104294911Y-124160876D01*
X106380876Y-122074911D02*
X107795089Y-123489124D01*
X100629124Y-130655089D02*
X99214911Y-129240876D01*
X101300876Y-127154911D02*
X102715089Y-128569124D01*
X101754911Y-126700876D02*
X103169124Y-128115089D01*
X105255089Y-126029124D02*
X103840876Y-124614911D01*
X96674911Y-131780876D02*
X98089124Y-133195089D01*
X100175089Y-131109124D02*
X98760876Y-129694911D01*
X95549124Y-135735089D02*
X94134911Y-134320876D01*
X96220876Y-132234911D02*
X97635089Y-133649124D01*
X91594911Y-136860876D02*
X93009124Y-138275089D01*
X95095089Y-136189124D02*
X93680876Y-134774911D01*
X91140876Y-137314911D02*
X92555089Y-138729124D01*
X90469124Y-140815089D02*
X89054911Y-139400876D01*
X82704911Y-126065876D02*
X84119124Y-127480089D01*
X86205089Y-125394124D02*
X84790876Y-123979911D01*
X81125089Y-130474124D02*
X79710876Y-129059911D01*
X77624911Y-131145876D02*
X79039124Y-132560089D01*
X90015089Y-141269124D02*
X88600876Y-139854911D01*
X86514911Y-141940876D02*
X87929124Y-143355089D01*
X82250876Y-126519911D02*
X83665089Y-127934124D01*
X81579124Y-130020089D02*
X80164911Y-128605876D01*
X90324911Y-118445876D02*
X91739124Y-119860089D01*
X93825089Y-117774124D02*
X92410876Y-116359911D01*
X94279124Y-117320089D02*
X92864911Y-115905876D01*
X94950876Y-113819911D02*
X96365089Y-115234124D01*
X89199124Y-122400089D02*
X87784911Y-120985876D01*
X89870876Y-118899911D02*
X91285089Y-120314124D01*
X39575000Y-85455000D02*
X39575000Y-83455000D01*
X36625000Y-83455000D02*
X36625000Y-85455000D01*
X48465000Y-85455000D02*
X48465000Y-83455000D01*
X45515000Y-83455000D02*
X45515000Y-85455000D01*
X36625000Y-99425000D02*
X36625000Y-97425000D01*
X39575000Y-97425000D02*
X39575000Y-99425000D01*
X35765000Y-85455000D02*
X35765000Y-83455000D01*
X32815000Y-83455000D02*
X32815000Y-85455000D01*
X45515000Y-99425000D02*
X45515000Y-97425000D01*
X48465000Y-97425000D02*
X48465000Y-99425000D01*
X32815000Y-99425000D02*
X32815000Y-97425000D01*
X35765000Y-97425000D02*
X35765000Y-99425000D01*
X148385000Y-97425000D02*
X148385000Y-99425000D01*
X151335000Y-99425000D02*
X151335000Y-97425000D01*
X144575000Y-97425000D02*
X144575000Y-99425000D01*
X147525000Y-99425000D02*
X147525000Y-97425000D01*
X151335000Y-83455000D02*
X151335000Y-85455000D01*
X148385000Y-85455000D02*
X148385000Y-83455000D01*
X135685000Y-97425000D02*
X135685000Y-99425000D01*
X138635000Y-99425000D02*
X138635000Y-97425000D01*
X138635000Y-83455000D02*
X138635000Y-85455000D01*
X135685000Y-85455000D02*
X135685000Y-83455000D01*
X147525000Y-83455000D02*
X147525000Y-85455000D01*
X144575000Y-85455000D02*
X144575000Y-83455000D01*
D12*
G36*
X111643640Y-46612692D02*
X110199783Y-46761604D01*
X109066686Y-47066164D01*
X108036758Y-47540538D01*
X105158681Y-49506527D01*
X102872776Y-51989786D01*
X101718441Y-53907036D01*
X101106918Y-55282505D01*
X100750410Y-56530019D01*
X100585230Y-57975660D01*
X100547606Y-59901667D01*
X100591256Y-61839097D01*
X100755769Y-63241048D01*
X101102915Y-64416639D01*
X101694466Y-65674992D01*
X101705481Y-65696012D01*
X103522745Y-68365242D01*
X105840994Y-70531688D01*
X108519629Y-72125973D01*
X111418052Y-73078719D01*
X114395666Y-73320547D01*
X116529075Y-73010677D01*
X119649239Y-71805531D01*
X122385953Y-69882771D01*
X124639717Y-67322417D01*
X125624519Y-65696012D01*
X126219423Y-64436707D01*
X126569027Y-63266949D01*
X126734800Y-61878032D01*
X126778209Y-59961250D01*
X126778233Y-59932118D01*
X125079563Y-59932118D01*
X124730980Y-62751389D01*
X123798559Y-65350781D01*
X122474489Y-67320679D01*
X121139331Y-68565613D01*
X119488097Y-69769174D01*
X117894168Y-70668350D01*
X117475000Y-70842362D01*
X115989530Y-71139335D01*
X114026579Y-71210786D01*
X111919137Y-71076100D01*
X110000192Y-70754664D01*
X108733310Y-70333414D01*
X106688512Y-68981005D01*
X104800320Y-67095348D01*
X103360950Y-64978935D01*
X103154364Y-64558333D01*
X102667233Y-63026902D01*
X102365340Y-61136930D01*
X102260194Y-59165403D01*
X102363302Y-57389305D01*
X102686174Y-56085621D01*
X102793791Y-55880000D01*
X103187052Y-55283725D01*
X103283344Y-55407645D01*
X103256479Y-55880000D01*
X103262252Y-57577360D01*
X103642532Y-58807542D01*
X104502806Y-59906155D01*
X104530769Y-59934231D01*
X106042256Y-60933671D01*
X107702477Y-61230476D01*
X109328866Y-60901169D01*
X110738859Y-60022271D01*
X111749891Y-58670303D01*
X112154687Y-57022373D01*
X110012946Y-57022373D01*
X109628439Y-58236164D01*
X108840309Y-58926716D01*
X107700712Y-59101706D01*
X106512765Y-58782565D01*
X105579587Y-57990722D01*
X105550775Y-57947885D01*
X105084653Y-57068392D01*
X105141005Y-56345803D01*
X105448389Y-55725385D01*
X106333055Y-54870719D01*
X107095940Y-54610000D01*
X103716666Y-54610000D01*
X103505000Y-54821667D01*
X103293333Y-54610000D01*
X103505000Y-54398333D01*
X103716666Y-54610000D01*
X107095940Y-54610000D01*
X107584558Y-54443013D01*
X108845191Y-54520815D01*
X109459320Y-54844617D01*
X109963319Y-55749621D01*
X110012946Y-57022373D01*
X112154687Y-57022373D01*
X112179395Y-56921790D01*
X112183333Y-56726667D01*
X111815855Y-54953717D01*
X110835907Y-53556168D01*
X109427216Y-52621477D01*
X107773513Y-52237099D01*
X106058525Y-52490493D01*
X104777967Y-53201632D01*
X104013641Y-53786121D01*
X103792255Y-53851149D01*
X103993233Y-53403175D01*
X104080784Y-53238979D01*
X105002587Y-52052308D01*
X106438551Y-50773896D01*
X108112585Y-49615886D01*
X109748596Y-48790422D01*
X109979768Y-48706310D01*
X112939239Y-48117146D01*
X115853680Y-48318133D01*
X118597467Y-49256598D01*
X121044975Y-50879870D01*
X123070578Y-53135278D01*
X123921239Y-54551642D01*
X124818314Y-57122394D01*
X125079563Y-59932118D01*
X126778233Y-59932118D01*
X126778259Y-59901667D01*
X126714227Y-57736633D01*
X126487624Y-56114129D01*
X126050499Y-54737812D01*
X125879396Y-54346515D01*
X124277589Y-51732021D01*
X122107741Y-49428755D01*
X119620786Y-47703032D01*
X119618529Y-47701845D01*
X118431502Y-47137916D01*
X117319547Y-46798160D01*
X115997676Y-46628570D01*
X114180903Y-46575137D01*
X113665000Y-46573600D01*
X111643640Y-46612692D01*
X111643640Y-46612692D01*
G37*
X111643640Y-46612692D02*
X110199783Y-46761604D01*
X109066686Y-47066164D01*
X108036758Y-47540538D01*
X105158681Y-49506527D01*
X102872776Y-51989786D01*
X101718441Y-53907036D01*
X101106918Y-55282505D01*
X100750410Y-56530019D01*
X100585230Y-57975660D01*
X100547606Y-59901667D01*
X100591256Y-61839097D01*
X100755769Y-63241048D01*
X101102915Y-64416639D01*
X101694466Y-65674992D01*
X101705481Y-65696012D01*
X103522745Y-68365242D01*
X105840994Y-70531688D01*
X108519629Y-72125973D01*
X111418052Y-73078719D01*
X114395666Y-73320547D01*
X116529075Y-73010677D01*
X119649239Y-71805531D01*
X122385953Y-69882771D01*
X124639717Y-67322417D01*
X125624519Y-65696012D01*
X126219423Y-64436707D01*
X126569027Y-63266949D01*
X126734800Y-61878032D01*
X126778209Y-59961250D01*
X126778233Y-59932118D01*
X125079563Y-59932118D01*
X124730980Y-62751389D01*
X123798559Y-65350781D01*
X122474489Y-67320679D01*
X121139331Y-68565613D01*
X119488097Y-69769174D01*
X117894168Y-70668350D01*
X117475000Y-70842362D01*
X115989530Y-71139335D01*
X114026579Y-71210786D01*
X111919137Y-71076100D01*
X110000192Y-70754664D01*
X108733310Y-70333414D01*
X106688512Y-68981005D01*
X104800320Y-67095348D01*
X103360950Y-64978935D01*
X103154364Y-64558333D01*
X102667233Y-63026902D01*
X102365340Y-61136930D01*
X102260194Y-59165403D01*
X102363302Y-57389305D01*
X102686174Y-56085621D01*
X102793791Y-55880000D01*
X103187052Y-55283725D01*
X103283344Y-55407645D01*
X103256479Y-55880000D01*
X103262252Y-57577360D01*
X103642532Y-58807542D01*
X104502806Y-59906155D01*
X104530769Y-59934231D01*
X106042256Y-60933671D01*
X107702477Y-61230476D01*
X109328866Y-60901169D01*
X110738859Y-60022271D01*
X111749891Y-58670303D01*
X112154687Y-57022373D01*
X110012946Y-57022373D01*
X109628439Y-58236164D01*
X108840309Y-58926716D01*
X107700712Y-59101706D01*
X106512765Y-58782565D01*
X105579587Y-57990722D01*
X105550775Y-57947885D01*
X105084653Y-57068392D01*
X105141005Y-56345803D01*
X105448389Y-55725385D01*
X106333055Y-54870719D01*
X107095940Y-54610000D01*
X103716666Y-54610000D01*
X103505000Y-54821667D01*
X103293333Y-54610000D01*
X103505000Y-54398333D01*
X103716666Y-54610000D01*
X107095940Y-54610000D01*
X107584558Y-54443013D01*
X108845191Y-54520815D01*
X109459320Y-54844617D01*
X109963319Y-55749621D01*
X110012946Y-57022373D01*
X112154687Y-57022373D01*
X112179395Y-56921790D01*
X112183333Y-56726667D01*
X111815855Y-54953717D01*
X110835907Y-53556168D01*
X109427216Y-52621477D01*
X107773513Y-52237099D01*
X106058525Y-52490493D01*
X104777967Y-53201632D01*
X104013641Y-53786121D01*
X103792255Y-53851149D01*
X103993233Y-53403175D01*
X104080784Y-53238979D01*
X105002587Y-52052308D01*
X106438551Y-50773896D01*
X108112585Y-49615886D01*
X109748596Y-48790422D01*
X109979768Y-48706310D01*
X112939239Y-48117146D01*
X115853680Y-48318133D01*
X118597467Y-49256598D01*
X121044975Y-50879870D01*
X123070578Y-53135278D01*
X123921239Y-54551642D01*
X124818314Y-57122394D01*
X125079563Y-59932118D01*
X126778233Y-59932118D01*
X126778259Y-59901667D01*
X126714227Y-57736633D01*
X126487624Y-56114129D01*
X126050499Y-54737812D01*
X125879396Y-54346515D01*
X124277589Y-51732021D01*
X122107741Y-49428755D01*
X119620786Y-47703032D01*
X119618529Y-47701845D01*
X118431502Y-47137916D01*
X117319547Y-46798160D01*
X115997676Y-46628570D01*
X114180903Y-46575137D01*
X113665000Y-46573600D01*
X111643640Y-46612692D01*
G36*
X80706499Y-30353799D02*
X79946830Y-30665232D01*
X79565564Y-31154429D01*
X79239846Y-32278396D01*
X79561395Y-33357918D01*
X80586679Y-34488895D01*
X82227222Y-35674772D01*
X83501514Y-36410389D01*
X85182580Y-37267361D01*
X87079236Y-38161546D01*
X89000299Y-39008803D01*
X90754583Y-39724991D01*
X92150904Y-40225968D01*
X92998077Y-40427592D01*
X93028152Y-40428333D01*
X93628711Y-40720129D01*
X93974177Y-41056317D01*
X94225646Y-41576097D01*
X93789688Y-41945616D01*
X93496845Y-42066517D01*
X92643351Y-42615317D01*
X91429242Y-43680238D01*
X90006854Y-45103812D01*
X88528523Y-46728570D01*
X87146587Y-48397043D01*
X86369992Y-49433477D01*
X84933100Y-51453621D01*
X83424050Y-50007528D01*
X81473375Y-48378687D01*
X79519913Y-47328154D01*
X77305754Y-46758890D01*
X74572994Y-46573860D01*
X74295000Y-46572738D01*
X72272997Y-46612362D01*
X70828478Y-46761815D01*
X69694676Y-47066968D01*
X68666758Y-47540538D01*
X65788681Y-49506527D01*
X63502776Y-51989786D01*
X62348441Y-53907036D01*
X61739852Y-55272193D01*
X61385892Y-56501808D01*
X61224018Y-57920065D01*
X61191689Y-59851150D01*
X61191959Y-59901667D01*
X61246109Y-61860732D01*
X61423854Y-63287377D01*
X61787548Y-64493628D01*
X62349834Y-65696012D01*
X64145460Y-68354764D01*
X66449886Y-70517111D01*
X69120572Y-72112647D01*
X72014974Y-73070966D01*
X74990550Y-73321664D01*
X77159075Y-73010677D01*
X80238372Y-71835967D01*
X82868502Y-70029861D01*
X84982040Y-67708382D01*
X86511560Y-64987555D01*
X87389637Y-61983404D01*
X87535634Y-59075116D01*
X85778051Y-59075116D01*
X85726528Y-61166096D01*
X85520251Y-62412831D01*
X84399711Y-65361321D01*
X82596036Y-67837504D01*
X80170916Y-69771665D01*
X78124810Y-70770294D01*
X76867625Y-71065005D01*
X75177949Y-71227252D01*
X73384547Y-71250745D01*
X71816180Y-71129195D01*
X70908333Y-70908333D01*
X70490371Y-70667674D01*
X70774520Y-70551180D01*
X71554972Y-70514754D01*
X73362816Y-70126682D01*
X74757228Y-69160588D01*
X75672195Y-67794549D01*
X76017433Y-66310933D01*
X73984816Y-66310933D01*
X73424328Y-67427472D01*
X72432355Y-68190552D01*
X71165895Y-68321655D01*
X69936071Y-67800286D01*
X69777500Y-67667722D01*
X69104428Y-66556521D01*
X69149315Y-65271750D01*
X69850000Y-64135000D01*
X70807651Y-63429377D01*
X71739265Y-63418368D01*
X72889218Y-64104381D01*
X72967910Y-64165725D01*
X73885877Y-65204109D01*
X73984816Y-66310933D01*
X76017433Y-66310933D01*
X76041703Y-66206640D01*
X75799736Y-64574939D01*
X74880282Y-63077522D01*
X74459791Y-62678852D01*
X72770813Y-61721035D01*
X71033025Y-61504261D01*
X69411256Y-61950303D01*
X68070336Y-62980935D01*
X67175096Y-64517929D01*
X66886666Y-66272977D01*
X67171424Y-67531507D01*
X68106595Y-68819837D01*
X68326000Y-69045667D01*
X69228357Y-70002092D01*
X69487487Y-70414137D01*
X69112579Y-70277048D01*
X68112822Y-69586075D01*
X67773292Y-69331512D01*
X65481738Y-67241801D01*
X63959947Y-64968095D01*
X63131643Y-62358995D01*
X62915781Y-59690000D01*
X63286583Y-56631254D01*
X64321082Y-53965682D01*
X65909830Y-51741364D01*
X67943377Y-50006382D01*
X70312274Y-48808817D01*
X72907073Y-48196749D01*
X75618324Y-48218260D01*
X78336577Y-48921431D01*
X80952385Y-50354343D01*
X82087008Y-51268071D01*
X83307213Y-52269588D01*
X84086693Y-52696686D01*
X84348952Y-52604946D01*
X84634376Y-52304079D01*
X85223963Y-52643923D01*
X85254070Y-52668634D01*
X85743620Y-53197018D01*
X85552025Y-53681778D01*
X85307604Y-53938634D01*
X84732643Y-54369811D01*
X84348501Y-54138205D01*
X84274366Y-54025000D01*
X83924660Y-53781684D01*
X83457991Y-54200491D01*
X83150914Y-54660000D01*
X82484985Y-55696921D01*
X81944808Y-56490784D01*
X81940405Y-56496845D01*
X81965052Y-56637483D01*
X82520679Y-56319807D01*
X83049494Y-55940065D01*
X84014248Y-55251443D01*
X84546103Y-55047885D01*
X84871143Y-55282868D01*
X85018546Y-55534887D01*
X85533350Y-57078678D01*
X85778051Y-59075116D01*
X87535634Y-59075116D01*
X87548846Y-58811952D01*
X87046917Y-55995938D01*
X86675891Y-54678522D01*
X86426471Y-53714143D01*
X86360000Y-53375141D01*
X86695921Y-53070875D01*
X87629554Y-52381727D01*
X89049705Y-51385736D01*
X90845182Y-50160941D01*
X92815833Y-48844235D01*
X94916316Y-47423792D01*
X96789146Y-46100438D01*
X98310084Y-44966512D01*
X99354890Y-44114352D01*
X99785832Y-43663940D01*
X100270211Y-42152342D01*
X100031710Y-40500103D01*
X99124058Y-38692521D01*
X97294729Y-36491335D01*
X94808781Y-34489218D01*
X91849229Y-32776325D01*
X88599086Y-31442810D01*
X85241366Y-30578830D01*
X82035728Y-30274590D01*
X80706499Y-30353799D01*
X80706499Y-30353799D01*
G37*
X80706499Y-30353799D02*
X79946830Y-30665232D01*
X79565564Y-31154429D01*
X79239846Y-32278396D01*
X79561395Y-33357918D01*
X80586679Y-34488895D01*
X82227222Y-35674772D01*
X83501514Y-36410389D01*
X85182580Y-37267361D01*
X87079236Y-38161546D01*
X89000299Y-39008803D01*
X90754583Y-39724991D01*
X92150904Y-40225968D01*
X92998077Y-40427592D01*
X93028152Y-40428333D01*
X93628711Y-40720129D01*
X93974177Y-41056317D01*
X94225646Y-41576097D01*
X93789688Y-41945616D01*
X93496845Y-42066517D01*
X92643351Y-42615317D01*
X91429242Y-43680238D01*
X90006854Y-45103812D01*
X88528523Y-46728570D01*
X87146587Y-48397043D01*
X86369992Y-49433477D01*
X84933100Y-51453621D01*
X83424050Y-50007528D01*
X81473375Y-48378687D01*
X79519913Y-47328154D01*
X77305754Y-46758890D01*
X74572994Y-46573860D01*
X74295000Y-46572738D01*
X72272997Y-46612362D01*
X70828478Y-46761815D01*
X69694676Y-47066968D01*
X68666758Y-47540538D01*
X65788681Y-49506527D01*
X63502776Y-51989786D01*
X62348441Y-53907036D01*
X61739852Y-55272193D01*
X61385892Y-56501808D01*
X61224018Y-57920065D01*
X61191689Y-59851150D01*
X61191959Y-59901667D01*
X61246109Y-61860732D01*
X61423854Y-63287377D01*
X61787548Y-64493628D01*
X62349834Y-65696012D01*
X64145460Y-68354764D01*
X66449886Y-70517111D01*
X69120572Y-72112647D01*
X72014974Y-73070966D01*
X74990550Y-73321664D01*
X77159075Y-73010677D01*
X80238372Y-71835967D01*
X82868502Y-70029861D01*
X84982040Y-67708382D01*
X86511560Y-64987555D01*
X87389637Y-61983404D01*
X87535634Y-59075116D01*
X85778051Y-59075116D01*
X85726528Y-61166096D01*
X85520251Y-62412831D01*
X84399711Y-65361321D01*
X82596036Y-67837504D01*
X80170916Y-69771665D01*
X78124810Y-70770294D01*
X76867625Y-71065005D01*
X75177949Y-71227252D01*
X73384547Y-71250745D01*
X71816180Y-71129195D01*
X70908333Y-70908333D01*
X70490371Y-70667674D01*
X70774520Y-70551180D01*
X71554972Y-70514754D01*
X73362816Y-70126682D01*
X74757228Y-69160588D01*
X75672195Y-67794549D01*
X76017433Y-66310933D01*
X73984816Y-66310933D01*
X73424328Y-67427472D01*
X72432355Y-68190552D01*
X71165895Y-68321655D01*
X69936071Y-67800286D01*
X69777500Y-67667722D01*
X69104428Y-66556521D01*
X69149315Y-65271750D01*
X69850000Y-64135000D01*
X70807651Y-63429377D01*
X71739265Y-63418368D01*
X72889218Y-64104381D01*
X72967910Y-64165725D01*
X73885877Y-65204109D01*
X73984816Y-66310933D01*
X76017433Y-66310933D01*
X76041703Y-66206640D01*
X75799736Y-64574939D01*
X74880282Y-63077522D01*
X74459791Y-62678852D01*
X72770813Y-61721035D01*
X71033025Y-61504261D01*
X69411256Y-61950303D01*
X68070336Y-62980935D01*
X67175096Y-64517929D01*
X66886666Y-66272977D01*
X67171424Y-67531507D01*
X68106595Y-68819837D01*
X68326000Y-69045667D01*
X69228357Y-70002092D01*
X69487487Y-70414137D01*
X69112579Y-70277048D01*
X68112822Y-69586075D01*
X67773292Y-69331512D01*
X65481738Y-67241801D01*
X63959947Y-64968095D01*
X63131643Y-62358995D01*
X62915781Y-59690000D01*
X63286583Y-56631254D01*
X64321082Y-53965682D01*
X65909830Y-51741364D01*
X67943377Y-50006382D01*
X70312274Y-48808817D01*
X72907073Y-48196749D01*
X75618324Y-48218260D01*
X78336577Y-48921431D01*
X80952385Y-50354343D01*
X82087008Y-51268071D01*
X83307213Y-52269588D01*
X84086693Y-52696686D01*
X84348952Y-52604946D01*
X84634376Y-52304079D01*
X85223963Y-52643923D01*
X85254070Y-52668634D01*
X85743620Y-53197018D01*
X85552025Y-53681778D01*
X85307604Y-53938634D01*
X84732643Y-54369811D01*
X84348501Y-54138205D01*
X84274366Y-54025000D01*
X83924660Y-53781684D01*
X83457991Y-54200491D01*
X83150914Y-54660000D01*
X82484985Y-55696921D01*
X81944808Y-56490784D01*
X81940405Y-56496845D01*
X81965052Y-56637483D01*
X82520679Y-56319807D01*
X83049494Y-55940065D01*
X84014248Y-55251443D01*
X84546103Y-55047885D01*
X84871143Y-55282868D01*
X85018546Y-55534887D01*
X85533350Y-57078678D01*
X85778051Y-59075116D01*
X87535634Y-59075116D01*
X87548846Y-58811952D01*
X87046917Y-55995938D01*
X86675891Y-54678522D01*
X86426471Y-53714143D01*
X86360000Y-53375141D01*
X86695921Y-53070875D01*
X87629554Y-52381727D01*
X89049705Y-51385736D01*
X90845182Y-50160941D01*
X92815833Y-48844235D01*
X94916316Y-47423792D01*
X96789146Y-46100438D01*
X98310084Y-44966512D01*
X99354890Y-44114352D01*
X99785832Y-43663940D01*
X100270211Y-42152342D01*
X100031710Y-40500103D01*
X99124058Y-38692521D01*
X97294729Y-36491335D01*
X94808781Y-34489218D01*
X91849229Y-32776325D01*
X88599086Y-31442810D01*
X85241366Y-30578830D01*
X82035728Y-30274590D01*
X80706499Y-30353799D01*
G36*
X101633977Y-32158165D02*
X101017253Y-32808557D01*
X100897568Y-34004185D01*
X101239997Y-35836393D01*
X101264724Y-35931509D01*
X102103909Y-38697675D01*
X103026397Y-40979123D01*
X103978762Y-42668894D01*
X104907580Y-43660028D01*
X105203458Y-43816948D01*
X106971161Y-44154095D01*
X109422357Y-44099955D01*
X112491330Y-43657619D01*
X113665000Y-43419091D01*
X115769043Y-42922688D01*
X117877427Y-42354708D01*
X119831075Y-41766492D01*
X121470908Y-41209379D01*
X122637852Y-40734710D01*
X123172827Y-40393825D01*
X123190000Y-40345007D01*
X122789292Y-40234827D01*
X121677585Y-40139539D01*
X119990500Y-40065381D01*
X117863661Y-40018592D01*
X115798158Y-40005000D01*
X112910111Y-39996927D01*
X110744908Y-39937000D01*
X109178725Y-39771652D01*
X108087741Y-39447321D01*
X107348132Y-38910441D01*
X106836078Y-38107448D01*
X106427756Y-36984777D01*
X106088094Y-35804498D01*
X105358375Y-33809214D01*
X104470086Y-32573425D01*
X103352145Y-32014490D01*
X102782668Y-31961667D01*
X101633977Y-32158165D01*
X101633977Y-32158165D01*
G37*
X101633977Y-32158165D02*
X101017253Y-32808557D01*
X100897568Y-34004185D01*
X101239997Y-35836393D01*
X101264724Y-35931509D01*
X102103909Y-38697675D01*
X103026397Y-40979123D01*
X103978762Y-42668894D01*
X104907580Y-43660028D01*
X105203458Y-43816948D01*
X106971161Y-44154095D01*
X109422357Y-44099955D01*
X112491330Y-43657619D01*
X113665000Y-43419091D01*
X115769043Y-42922688D01*
X117877427Y-42354708D01*
X119831075Y-41766492D01*
X121470908Y-41209379D01*
X122637852Y-40734710D01*
X123172827Y-40393825D01*
X123190000Y-40345007D01*
X122789292Y-40234827D01*
X121677585Y-40139539D01*
X119990500Y-40065381D01*
X117863661Y-40018592D01*
X115798158Y-40005000D01*
X112910111Y-39996927D01*
X110744908Y-39937000D01*
X109178725Y-39771652D01*
X108087741Y-39447321D01*
X107348132Y-38910441D01*
X106836078Y-38107448D01*
X106427756Y-36984777D01*
X106088094Y-35804498D01*
X105358375Y-33809214D01*
X104470086Y-32573425D01*
X103352145Y-32014490D01*
X102782668Y-31961667D01*
X101633977Y-32158165D01*
G36*
X106710634Y-23072369D02*
X105190394Y-24156578D01*
X104890246Y-24497047D01*
X104340993Y-25718822D01*
X104165840Y-27331477D01*
X104386632Y-28955982D01*
X104599406Y-29543449D01*
X105614415Y-30826219D01*
X107140065Y-31637036D01*
X108938648Y-31899950D01*
X110772457Y-31539013D01*
X110804824Y-31526131D01*
X112035053Y-30617380D01*
X112919625Y-29169184D01*
X113313673Y-27464612D01*
X113290039Y-26670000D01*
X112711390Y-24903456D01*
X111583828Y-23613779D01*
X110087649Y-22847612D01*
X108403152Y-22651595D01*
X106710634Y-23072369D01*
X106710634Y-23072369D01*
G37*
X106710634Y-23072369D02*
X105190394Y-24156578D01*
X104890246Y-24497047D01*
X104340993Y-25718822D01*
X104165840Y-27331477D01*
X104386632Y-28955982D01*
X104599406Y-29543449D01*
X105614415Y-30826219D01*
X107140065Y-31637036D01*
X108938648Y-31899950D01*
X110772457Y-31539013D01*
X110804824Y-31526131D01*
X112035053Y-30617380D01*
X112919625Y-29169184D01*
X113313673Y-27464612D01*
X113290039Y-26670000D01*
X112711390Y-24903456D01*
X111583828Y-23613779D01*
X110087649Y-22847612D01*
X108403152Y-22651595D01*
X106710634Y-23072369D01*
D11*
X128905000Y-73660000D02*
X111125000Y-73660000D01*
X131445000Y-25400000D02*
X131445000Y-71120000D01*
X111125000Y-22860000D02*
X128905000Y-22860000D01*
X108585000Y-71120000D02*
X108585000Y-25400000D01*
X108585000Y-25400000D02*
G75*
G02X111125000Y-22860000I2540000J0D01*
G01*
X128905000Y-22860000D02*
G75*
G02X131445000Y-25400000I0J-2540000D01*
G01*
X131445000Y-71120000D02*
G75*
G02X128905000Y-73660000I-2540000J0D01*
G01*
X111125000Y-73660000D02*
G75*
G02X108585000Y-71120000I0J2540000D01*
G01*
D13*
X132842000Y-62865000D02*
X132842000Y-57785000D01*
X138430000Y-63373000D02*
X133350000Y-63373000D01*
X138938000Y-57785000D02*
X138938000Y-62865000D01*
X133350000Y-57277000D02*
X138430000Y-57277000D01*
X138938000Y-62865000D02*
G75*
G02X138430000Y-63373000I-508000J0D01*
G01*
X138430000Y-57277000D02*
G75*
G02X138938000Y-57785000I0J-508000D01*
G01*
X132842000Y-57785000D02*
G75*
G02X133350000Y-57277000I508000J0D01*
G01*
X133350000Y-63373000D02*
G75*
G02X132842000Y-62865000I0J508000D01*
G01*
X137668000Y-60325000D02*
G75*
G03X137668000Y-60325000I-1778000J0D01*
G01*
D11*
X54610000Y-62230000D02*
X73660000Y-62230000D01*
X52705000Y-24765000D02*
X52705000Y-60325000D01*
X73660000Y-22860000D02*
X54610000Y-22860000D01*
X75565000Y-60325000D02*
X75565000Y-24765000D01*
X75565000Y-60325000D02*
G75*
G02X73660000Y-62230000I-1905000J0D01*
G01*
X54610000Y-62230000D02*
G75*
G02X52705000Y-60325000I0J1905000D01*
G01*
X52705000Y-24765000D02*
G75*
G02X54610000Y-22860000I1905000J0D01*
G01*
X73660000Y-22860000D02*
G75*
G02X75565000Y-24765000I0J-1905000D01*
G01*
X147525000Y-32655000D02*
X147525000Y-34655000D01*
X144575000Y-34655000D02*
X144575000Y-32655000D01*
X151335000Y-32655000D02*
X151335000Y-34655000D01*
X148385000Y-34655000D02*
X148385000Y-32655000D01*
X138635000Y-32655000D02*
X138635000Y-34655000D01*
X135685000Y-34655000D02*
X135685000Y-32655000D01*
X36625000Y-48625000D02*
X36625000Y-46625000D01*
X39575000Y-46625000D02*
X39575000Y-48625000D01*
X32815000Y-48625000D02*
X32815000Y-46625000D01*
X35765000Y-46625000D02*
X35765000Y-48625000D01*
X45515000Y-48625000D02*
X45515000Y-46625000D01*
X48465000Y-46625000D02*
X48465000Y-48625000D01*
X91140876Y-86514911D02*
X92555089Y-87929124D01*
X90469124Y-90015089D02*
X89054911Y-88600876D01*
X82250876Y-75719911D02*
X83665089Y-77134124D01*
X81579124Y-79220089D02*
X80164911Y-77805876D01*
X94279124Y-66520089D02*
X92864911Y-65105876D01*
X94950876Y-63019911D02*
X96365089Y-64434124D01*
X105709124Y-74775089D02*
X104294911Y-73360876D01*
X106380876Y-71274911D02*
X107795089Y-72689124D01*
X95549124Y-84935089D02*
X94134911Y-83520876D01*
X96220876Y-81434911D02*
X97635089Y-82849124D01*
X89199124Y-71600089D02*
X87784911Y-70185876D01*
X89870876Y-68099911D02*
X91285089Y-69514124D01*
X100629124Y-79855089D02*
X99214911Y-78440876D01*
X101300876Y-76354911D02*
X102715089Y-77769124D01*
X144575000Y-46625000D02*
X144575000Y-48625000D01*
X147525000Y-48625000D02*
X147525000Y-46625000D01*
X148385000Y-46625000D02*
X148385000Y-48625000D01*
X151335000Y-48625000D02*
X151335000Y-46625000D01*
X135685000Y-46625000D02*
X135685000Y-48625000D01*
X138635000Y-48625000D02*
X138635000Y-46625000D01*
X39575000Y-34655000D02*
X39575000Y-32655000D01*
X36625000Y-32655000D02*
X36625000Y-34655000D01*
X35765000Y-34655000D02*
X35765000Y-32655000D01*
X32815000Y-32655000D02*
X32815000Y-34655000D01*
X48465000Y-34655000D02*
X48465000Y-32655000D01*
X45515000Y-32655000D02*
X45515000Y-34655000D01*
X90015089Y-90469124D02*
X88600876Y-89054911D01*
X86514911Y-91140876D02*
X87929124Y-92555089D01*
X81125089Y-79674124D02*
X79710876Y-78259911D01*
X77624911Y-80345876D02*
X79039124Y-81760089D01*
X90324911Y-67645876D02*
X91739124Y-69060089D01*
X93825089Y-66974124D02*
X92410876Y-65559911D01*
X101754911Y-75900876D02*
X103169124Y-77315089D01*
X105255089Y-75229124D02*
X103840876Y-73814911D01*
X91594911Y-86060876D02*
X93009124Y-87475089D01*
X95095089Y-85389124D02*
X93680876Y-83974911D01*
X82704911Y-75265876D02*
X84119124Y-76680089D01*
X86205089Y-74594124D02*
X84790876Y-73179911D01*
X96674911Y-80980876D02*
X98089124Y-82395089D01*
X100175089Y-80309124D02*
X98760876Y-78894911D01*
X117745000Y-33225000D02*
X119745000Y-33225000D01*
X119745000Y-30275000D02*
X117745000Y-30275000D01*
D14*
X78105000Y-22860000D02*
X93345000Y-22860000D01*
X93345000Y-55880000D02*
X78105000Y-55880000D01*
D11*
X94615000Y-54610000D02*
G75*
G02X93345000Y-55880000I-1270000J0D01*
G01*
X78105000Y-55880000D02*
G75*
G02X76835000Y-54610000I0J1270000D01*
G01*
X76835000Y-24130000D02*
G75*
G02X78105000Y-22860000I1270000J0D01*
G01*
X93345000Y-22860000D02*
G75*
G02X94615000Y-24130000I0J-1270000D01*
G01*
X76835000Y-54610000D02*
X76835000Y-24130000D01*
X94615000Y-24130000D02*
X94615000Y-54610000D01*
X98900000Y-21035000D02*
G75*
G02X104300000Y-21035000I2700000J-5000000D01*
G01*
X104300000Y-21035000D02*
X98900000Y-21035000D01*
X104300000Y-22935000D02*
X104300000Y-21035000D01*
X98900000Y-21035000D02*
X98900000Y-22935000D01*
X95100000Y-29435000D02*
X95100000Y-22935000D01*
X95100000Y-22935000D02*
X108100000Y-22935000D01*
X108100000Y-22935000D02*
X108100000Y-29435000D01*
X108100000Y-29435000D02*
X95100000Y-29435000D01*
D13*
X45212000Y-62865000D02*
X45212000Y-57785000D01*
X50800000Y-63373000D02*
X45720000Y-63373000D01*
X51308000Y-57785000D02*
X51308000Y-62865000D01*
X45720000Y-57277000D02*
X50800000Y-57277000D01*
X51308000Y-62865000D02*
G75*
G02X50800000Y-63373000I-508000J0D01*
G01*
X50800000Y-57277000D02*
G75*
G02X51308000Y-57785000I0J-508000D01*
G01*
X45212000Y-57785000D02*
G75*
G02X45720000Y-57277000I508000J0D01*
G01*
X45720000Y-63373000D02*
G75*
G02X45212000Y-62865000I0J508000D01*
G01*
X50038000Y-60325000D02*
G75*
G03X50038000Y-60325000I-1778000J0D01*
G01*
D11*
X102631374Y-121999793D02*
X102665045Y-122100809D01*
X102799732Y-122235496D01*
X102900748Y-122269167D01*
X103001763Y-122235496D01*
X103271137Y-121966122D01*
X103304809Y-121865106D01*
X103271137Y-121764091D01*
X103136450Y-121629404D01*
X103035435Y-121595732D01*
X102934419Y-121629404D01*
X102867076Y-121696748D01*
X103136450Y-122100809D01*
X101924267Y-121225343D02*
X101924267Y-121292687D01*
X101991610Y-121427374D01*
X102058954Y-121494717D01*
X102193641Y-121562061D01*
X102328328Y-121562061D01*
X102429343Y-121528389D01*
X102597702Y-121427374D01*
X102698717Y-121326358D01*
X102799732Y-121158000D01*
X102833404Y-121056984D01*
X102833404Y-120922297D01*
X102766061Y-120787610D01*
X102698717Y-120720267D01*
X102564030Y-120652923D01*
X102496687Y-120652923D01*
X101722236Y-120215190D02*
X101250832Y-120686595D01*
X102159969Y-120114175D02*
X101823251Y-120787610D01*
X101385519Y-120349877D01*
X106785778Y-123723984D02*
X107189839Y-123319923D01*
X106987809Y-123521954D02*
X106280702Y-122814847D01*
X106449061Y-122848519D01*
X106583748Y-122848519D01*
X106684763Y-122814847D01*
X105708282Y-123858671D02*
X106179687Y-124330076D01*
X106011328Y-123555625D02*
X106381717Y-123926015D01*
X106415389Y-124027030D01*
X106381717Y-124128045D01*
X106280702Y-124229061D01*
X106179687Y-124262732D01*
X106112343Y-124262732D01*
X105236877Y-124532106D02*
X105472580Y-124296404D01*
X105842969Y-124666793D02*
X105135862Y-123959687D01*
X104799145Y-124296404D01*
X98059374Y-126571793D02*
X98093045Y-126672809D01*
X98227732Y-126807496D01*
X98328748Y-126841167D01*
X98429763Y-126807496D01*
X98699137Y-126538122D01*
X98732809Y-126437106D01*
X98699137Y-126336091D01*
X98564450Y-126201404D01*
X98463435Y-126167732D01*
X98362419Y-126201404D01*
X98295076Y-126268748D01*
X98564450Y-126672809D01*
X97352267Y-125797343D02*
X97352267Y-125864687D01*
X97419610Y-125999374D01*
X97486954Y-126066717D01*
X97621641Y-126134061D01*
X97756328Y-126134061D01*
X97857343Y-126100389D01*
X98025702Y-125999374D01*
X98126717Y-125898358D01*
X98227732Y-125730000D01*
X98261404Y-125628984D01*
X98261404Y-125494297D01*
X98194061Y-125359610D01*
X98126717Y-125292267D01*
X97992030Y-125224923D01*
X97924687Y-125224923D01*
X96611488Y-125191251D02*
X97015549Y-125595312D01*
X96813519Y-125393282D02*
X97520625Y-124686175D01*
X97486954Y-124854534D01*
X97486954Y-124989221D01*
X97520625Y-125090236D01*
X101705778Y-128803984D02*
X102109839Y-128399923D01*
X101907809Y-128601954D02*
X101200702Y-127894847D01*
X101369061Y-127928519D01*
X101503748Y-127928519D01*
X101604763Y-127894847D01*
X100628282Y-128938671D02*
X101099687Y-129410076D01*
X100931328Y-128635625D02*
X101301717Y-129006015D01*
X101335389Y-129107030D01*
X101301717Y-129208045D01*
X101200702Y-129309061D01*
X101099687Y-129342732D01*
X101032343Y-129342732D01*
X100156877Y-129612106D02*
X100392580Y-129376404D01*
X100762969Y-129746793D02*
X100055862Y-129039687D01*
X99719145Y-129376404D01*
X100599374Y-124031793D02*
X100633045Y-124132809D01*
X100767732Y-124267496D01*
X100868748Y-124301167D01*
X100969763Y-124267496D01*
X101239137Y-123998122D01*
X101272809Y-123897106D01*
X101239137Y-123796091D01*
X101104450Y-123661404D01*
X101003435Y-123627732D01*
X100902419Y-123661404D01*
X100835076Y-123728748D01*
X101104450Y-124132809D01*
X99824923Y-123324687D02*
X100397343Y-123223671D01*
X100228984Y-123728748D02*
X100936091Y-123021641D01*
X100666717Y-122752267D01*
X100565702Y-122718595D01*
X100498358Y-122718595D01*
X100397343Y-122752267D01*
X100296328Y-122853282D01*
X100262656Y-122954297D01*
X100262656Y-123021641D01*
X100296328Y-123122656D01*
X100565702Y-123392030D01*
X99892267Y-121977816D02*
X100228984Y-122314534D01*
X99925938Y-122684923D01*
X99925938Y-122617580D01*
X99892267Y-122516564D01*
X99723908Y-122348206D01*
X99622893Y-122314534D01*
X99555549Y-122314534D01*
X99454534Y-122348206D01*
X99286175Y-122516564D01*
X99252503Y-122617580D01*
X99252503Y-122684923D01*
X99286175Y-122785938D01*
X99454534Y-122954297D01*
X99555549Y-122987969D01*
X99622893Y-122987969D01*
X104245778Y-126263984D02*
X104649839Y-125859923D01*
X104447809Y-126061954D02*
X103740702Y-125354847D01*
X103909061Y-125388519D01*
X104043748Y-125388519D01*
X104144763Y-125354847D01*
X103100938Y-125994610D02*
X103033595Y-126061954D01*
X102999923Y-126162969D01*
X102999923Y-126230312D01*
X103033595Y-126331328D01*
X103134610Y-126499687D01*
X103302969Y-126668045D01*
X103471328Y-126769061D01*
X103572343Y-126802732D01*
X103639687Y-126802732D01*
X103740702Y-126769061D01*
X103808045Y-126701717D01*
X103841717Y-126600702D01*
X103841717Y-126533358D01*
X103808045Y-126432343D01*
X103707030Y-126263984D01*
X103538671Y-126095625D01*
X103370312Y-125994610D01*
X103269297Y-125960938D01*
X103201954Y-125960938D01*
X103100938Y-125994610D01*
X103269297Y-127240465D02*
X102562190Y-126533358D01*
X102932580Y-127038435D02*
X102999923Y-127509839D01*
X102528519Y-127038435D02*
X103067267Y-127038435D01*
X95519374Y-129111793D02*
X95553045Y-129212809D01*
X95687732Y-129347496D01*
X95788748Y-129381167D01*
X95889763Y-129347496D01*
X96159137Y-129078122D01*
X96192809Y-128977106D01*
X96159137Y-128876091D01*
X96024450Y-128741404D01*
X95923435Y-128707732D01*
X95822419Y-128741404D01*
X95755076Y-128808748D01*
X96024450Y-129212809D01*
X94744923Y-128404687D02*
X95317343Y-128303671D01*
X95148984Y-128808748D02*
X95856091Y-128101641D01*
X95586717Y-127832267D01*
X95485702Y-127798595D01*
X95418358Y-127798595D01*
X95317343Y-127832267D01*
X95216328Y-127933282D01*
X95182656Y-128034297D01*
X95182656Y-128101641D01*
X95216328Y-128202656D01*
X95485702Y-128472030D01*
X95115312Y-127495549D02*
X95115312Y-127428206D01*
X95081641Y-127327190D01*
X94913282Y-127158832D01*
X94812267Y-127125160D01*
X94744923Y-127125160D01*
X94643908Y-127158832D01*
X94576564Y-127226175D01*
X94509221Y-127360862D01*
X94509221Y-128168984D01*
X94071488Y-127731251D01*
X99165778Y-131343984D02*
X99569839Y-130939923D01*
X99367809Y-131141954D02*
X98660702Y-130434847D01*
X98829061Y-130468519D01*
X98963748Y-130468519D01*
X99064763Y-130434847D01*
X98020938Y-131074610D02*
X97953595Y-131141954D01*
X97919923Y-131242969D01*
X97919923Y-131310312D01*
X97953595Y-131411328D01*
X98054610Y-131579687D01*
X98222969Y-131748045D01*
X98391328Y-131849061D01*
X98492343Y-131882732D01*
X98559687Y-131882732D01*
X98660702Y-131849061D01*
X98728045Y-131781717D01*
X98761717Y-131680702D01*
X98761717Y-131613358D01*
X98728045Y-131512343D01*
X98627030Y-131343984D01*
X98458671Y-131175625D01*
X98290312Y-131074610D01*
X98189297Y-131040938D01*
X98121954Y-131040938D01*
X98020938Y-131074610D01*
X98189297Y-132320465D02*
X97482190Y-131613358D01*
X97852580Y-132118435D02*
X97919923Y-132589839D01*
X97448519Y-132118435D02*
X97987267Y-132118435D01*
X92471374Y-132159793D02*
X92505045Y-132260809D01*
X92639732Y-132395496D01*
X92740748Y-132429167D01*
X92841763Y-132395496D01*
X93111137Y-132126122D01*
X93144809Y-132025106D01*
X93111137Y-131924091D01*
X92976450Y-131789404D01*
X92875435Y-131755732D01*
X92774419Y-131789404D01*
X92707076Y-131856748D01*
X92976450Y-132260809D01*
X91764267Y-131385343D02*
X91764267Y-131452687D01*
X91831610Y-131587374D01*
X91898954Y-131654717D01*
X92033641Y-131722061D01*
X92168328Y-131722061D01*
X92269343Y-131688389D01*
X92437702Y-131587374D01*
X92538717Y-131486358D01*
X92639732Y-131318000D01*
X92673404Y-131216984D01*
X92673404Y-131082297D01*
X92606061Y-130947610D01*
X92538717Y-130880267D01*
X92404030Y-130812923D01*
X92336687Y-130812923D01*
X92168328Y-130509877D02*
X91730595Y-130072145D01*
X91696923Y-130577221D01*
X91595908Y-130476206D01*
X91494893Y-130442534D01*
X91427549Y-130442534D01*
X91326534Y-130476206D01*
X91158175Y-130644564D01*
X91124503Y-130745580D01*
X91124503Y-130812923D01*
X91158175Y-130913938D01*
X91360206Y-131115969D01*
X91461221Y-131149641D01*
X91528564Y-131149641D01*
X96625778Y-133883984D02*
X97029839Y-133479923D01*
X96827809Y-133681954D02*
X96120702Y-132974847D01*
X96289061Y-133008519D01*
X96423748Y-133008519D01*
X96524763Y-132974847D01*
X95548282Y-134018671D02*
X96019687Y-134490076D01*
X95851328Y-133715625D02*
X96221717Y-134086015D01*
X96255389Y-134187030D01*
X96221717Y-134288045D01*
X96120702Y-134389061D01*
X96019687Y-134422732D01*
X95952343Y-134422732D01*
X95076877Y-134692106D02*
X95312580Y-134456404D01*
X95682969Y-134826793D02*
X94975862Y-134119687D01*
X94639145Y-134456404D01*
X90439374Y-134318794D02*
X90473045Y-134419810D01*
X90607732Y-134554497D01*
X90708748Y-134588168D01*
X90809763Y-134554497D01*
X91079137Y-134285123D01*
X91112809Y-134184107D01*
X91079137Y-134083092D01*
X90944450Y-133948405D01*
X90843435Y-133914733D01*
X90742419Y-133948405D01*
X90675076Y-134015749D01*
X90944450Y-134419810D01*
X89664923Y-133611688D02*
X90237343Y-133510672D01*
X90068984Y-134015749D02*
X90776091Y-133308642D01*
X90506717Y-133039268D01*
X90405702Y-133005596D01*
X90338358Y-133005596D01*
X90237343Y-133039268D01*
X90136328Y-133140283D01*
X90102656Y-133241298D01*
X90102656Y-133308642D01*
X90136328Y-133409657D01*
X90405702Y-133679031D01*
X89530236Y-132534191D02*
X89058832Y-133005596D01*
X89967969Y-132433176D02*
X89631251Y-133106611D01*
X89193519Y-132668878D01*
X94085778Y-136423984D02*
X94489839Y-136019923D01*
X94287809Y-136221954D02*
X93580702Y-135514847D01*
X93749061Y-135548519D01*
X93883748Y-135548519D01*
X93984763Y-135514847D01*
X92940938Y-136154610D02*
X92873595Y-136221954D01*
X92839923Y-136322969D01*
X92839923Y-136390312D01*
X92873595Y-136491328D01*
X92974610Y-136659687D01*
X93142969Y-136828045D01*
X93311328Y-136929061D01*
X93412343Y-136962732D01*
X93479687Y-136962732D01*
X93580702Y-136929061D01*
X93648045Y-136861717D01*
X93681717Y-136760702D01*
X93681717Y-136693358D01*
X93648045Y-136592343D01*
X93547030Y-136423984D01*
X93378671Y-136255625D01*
X93210312Y-136154610D01*
X93109297Y-136120938D01*
X93041954Y-136120938D01*
X92940938Y-136154610D01*
X93109297Y-137400465D02*
X92402190Y-136693358D01*
X92772580Y-137198435D02*
X92839923Y-137669839D01*
X92368519Y-137198435D02*
X92907267Y-137198435D01*
X87899374Y-136731793D02*
X87933045Y-136832809D01*
X88067732Y-136967496D01*
X88168748Y-137001167D01*
X88269763Y-136967496D01*
X88539137Y-136698122D01*
X88572809Y-136597106D01*
X88539137Y-136496091D01*
X88404450Y-136361404D01*
X88303435Y-136327732D01*
X88202419Y-136361404D01*
X88135076Y-136428748D01*
X88404450Y-136832809D01*
X87192267Y-135957343D02*
X87192267Y-136024687D01*
X87259610Y-136159374D01*
X87326954Y-136226717D01*
X87461641Y-136294061D01*
X87596328Y-136294061D01*
X87697343Y-136260389D01*
X87865702Y-136159374D01*
X87966717Y-136058358D01*
X88067732Y-135890000D01*
X88101404Y-135788984D01*
X88101404Y-135654297D01*
X88034061Y-135519610D01*
X87966717Y-135452267D01*
X87832030Y-135384923D01*
X87764687Y-135384923D01*
X87596328Y-135081877D02*
X87124923Y-134610473D01*
X86720862Y-135620625D01*
X91545778Y-138963984D02*
X91949839Y-138559923D01*
X91747809Y-138761954D02*
X91040702Y-138054847D01*
X91209061Y-138088519D01*
X91343748Y-138088519D01*
X91444763Y-138054847D01*
X90468282Y-139098671D02*
X90939687Y-139570076D01*
X90771328Y-138795625D02*
X91141717Y-139166015D01*
X91175389Y-139267030D01*
X91141717Y-139368045D01*
X91040702Y-139469061D01*
X90939687Y-139502732D01*
X90872343Y-139502732D01*
X89996877Y-139772106D02*
X90232580Y-139536404D01*
X90602969Y-139906793D02*
X89895862Y-139199687D01*
X89559145Y-139536404D01*
X87899374Y-129746793D02*
X87933045Y-129847809D01*
X88067732Y-129982496D01*
X88168748Y-130016167D01*
X88269763Y-129982496D01*
X88539137Y-129713122D01*
X88572809Y-129612106D01*
X88539137Y-129511091D01*
X88404450Y-129376404D01*
X88303435Y-129342732D01*
X88202419Y-129376404D01*
X88135076Y-129443748D01*
X88404450Y-129847809D01*
X87124923Y-129039687D02*
X87697343Y-128938671D01*
X87528984Y-129443748D02*
X88236091Y-128736641D01*
X87966717Y-128467267D01*
X87865702Y-128433595D01*
X87798358Y-128433595D01*
X87697343Y-128467267D01*
X87596328Y-128568282D01*
X87562656Y-128669297D01*
X87562656Y-128736641D01*
X87596328Y-128837656D01*
X87865702Y-129107030D01*
X87596328Y-128096877D02*
X87158595Y-127659145D01*
X87124923Y-128164221D01*
X87023908Y-128063206D01*
X86922893Y-128029534D01*
X86855549Y-128029534D01*
X86754534Y-128063206D01*
X86586175Y-128231564D01*
X86552503Y-128332580D01*
X86552503Y-128399923D01*
X86586175Y-128500938D01*
X86788206Y-128702969D01*
X86889221Y-128736641D01*
X86956564Y-128736641D01*
X85195778Y-125628984D02*
X85599839Y-125224923D01*
X85397809Y-125426954D02*
X84690702Y-124719847D01*
X84859061Y-124753519D01*
X84993748Y-124753519D01*
X85094763Y-124719847D01*
X84050938Y-125359610D02*
X83983595Y-125426954D01*
X83949923Y-125527969D01*
X83949923Y-125595312D01*
X83983595Y-125696328D01*
X84084610Y-125864687D01*
X84252969Y-126033045D01*
X84421328Y-126134061D01*
X84522343Y-126167732D01*
X84589687Y-126167732D01*
X84690702Y-126134061D01*
X84758045Y-126066717D01*
X84791717Y-125965702D01*
X84791717Y-125898358D01*
X84758045Y-125797343D01*
X84657030Y-125628984D01*
X84488671Y-125460625D01*
X84320312Y-125359610D01*
X84219297Y-125325938D01*
X84151954Y-125325938D01*
X84050938Y-125359610D01*
X84219297Y-126605465D02*
X83512190Y-125898358D01*
X83882580Y-126403435D02*
X83949923Y-126874839D01*
X83478519Y-126403435D02*
X84017267Y-126403435D01*
X82819374Y-134826793D02*
X82853045Y-134927809D01*
X82987732Y-135062496D01*
X83088748Y-135096167D01*
X83189763Y-135062496D01*
X83459137Y-134793122D01*
X83492809Y-134692106D01*
X83459137Y-134591091D01*
X83324450Y-134456404D01*
X83223435Y-134422732D01*
X83122419Y-134456404D01*
X83055076Y-134523748D01*
X83324450Y-134927809D01*
X82044923Y-134119687D02*
X82617343Y-134018671D01*
X82448984Y-134523748D02*
X83156091Y-133816641D01*
X82886717Y-133547267D01*
X82785702Y-133513595D01*
X82718358Y-133513595D01*
X82617343Y-133547267D01*
X82516328Y-133648282D01*
X82482656Y-133749297D01*
X82482656Y-133816641D01*
X82516328Y-133917656D01*
X82785702Y-134187030D01*
X82516328Y-133176877D02*
X82044923Y-132705473D01*
X81640862Y-133715625D01*
X80115778Y-130708984D02*
X80519839Y-130304923D01*
X80317809Y-130506954D02*
X79610702Y-129799847D01*
X79779061Y-129833519D01*
X79913748Y-129833519D01*
X80014763Y-129799847D01*
X78970938Y-130439610D02*
X78903595Y-130506954D01*
X78869923Y-130607969D01*
X78869923Y-130675312D01*
X78903595Y-130776328D01*
X79004610Y-130944687D01*
X79172969Y-131113045D01*
X79341328Y-131214061D01*
X79442343Y-131247732D01*
X79509687Y-131247732D01*
X79610702Y-131214061D01*
X79678045Y-131146717D01*
X79711717Y-131045702D01*
X79711717Y-130978358D01*
X79678045Y-130877343D01*
X79577030Y-130708984D01*
X79408671Y-130540625D01*
X79240312Y-130439610D01*
X79139297Y-130405938D01*
X79071954Y-130405938D01*
X78970938Y-130439610D01*
X79139297Y-131685465D02*
X78432190Y-130978358D01*
X78802580Y-131483435D02*
X78869923Y-131954839D01*
X78398519Y-131483435D02*
X78937267Y-131483435D01*
X85486374Y-139398793D02*
X85520045Y-139499809D01*
X85654732Y-139634496D01*
X85755748Y-139668167D01*
X85856763Y-139634496D01*
X86126137Y-139365122D01*
X86159809Y-139264106D01*
X86126137Y-139163091D01*
X85991450Y-139028404D01*
X85890435Y-138994732D01*
X85789419Y-139028404D01*
X85722076Y-139095748D01*
X85991450Y-139499809D01*
X84711923Y-138691687D02*
X85284343Y-138590671D01*
X85115984Y-139095748D02*
X85823091Y-138388641D01*
X85553717Y-138119267D01*
X85452702Y-138085595D01*
X85385358Y-138085595D01*
X85284343Y-138119267D01*
X85183328Y-138220282D01*
X85149656Y-138321297D01*
X85149656Y-138388641D01*
X85183328Y-138489656D01*
X85452702Y-138759030D01*
X84711923Y-137883564D02*
X84812938Y-137917236D01*
X84880282Y-137917236D01*
X84981297Y-137883564D01*
X85014969Y-137849893D01*
X85048641Y-137748877D01*
X85048641Y-137681534D01*
X85014969Y-137580519D01*
X84880282Y-137445832D01*
X84779267Y-137412160D01*
X84711923Y-137412160D01*
X84610908Y-137445832D01*
X84577236Y-137479503D01*
X84543564Y-137580519D01*
X84543564Y-137647862D01*
X84577236Y-137748877D01*
X84711923Y-137883564D01*
X84745595Y-137984580D01*
X84745595Y-138051923D01*
X84711923Y-138152938D01*
X84577236Y-138287625D01*
X84476221Y-138321297D01*
X84408877Y-138321297D01*
X84307862Y-138287625D01*
X84173175Y-138152938D01*
X84139503Y-138051923D01*
X84139503Y-137984580D01*
X84173175Y-137883564D01*
X84307862Y-137748877D01*
X84408877Y-137715206D01*
X84476221Y-137715206D01*
X84577236Y-137748877D01*
X89005778Y-141503984D02*
X89409839Y-141099923D01*
X89207809Y-141301954D02*
X88500702Y-140594847D01*
X88669061Y-140628519D01*
X88803748Y-140628519D01*
X88904763Y-140594847D01*
X87860938Y-141234610D02*
X87793595Y-141301954D01*
X87759923Y-141402969D01*
X87759923Y-141470312D01*
X87793595Y-141571328D01*
X87894610Y-141739687D01*
X88062969Y-141908045D01*
X88231328Y-142009061D01*
X88332343Y-142042732D01*
X88399687Y-142042732D01*
X88500702Y-142009061D01*
X88568045Y-141941717D01*
X88601717Y-141840702D01*
X88601717Y-141773358D01*
X88568045Y-141672343D01*
X88467030Y-141503984D01*
X88298671Y-141335625D01*
X88130312Y-141234610D01*
X88029297Y-141200938D01*
X87961954Y-141200938D01*
X87860938Y-141234610D01*
X88029297Y-142480465D02*
X87322190Y-141773358D01*
X87692580Y-142278435D02*
X87759923Y-142749839D01*
X87288519Y-142278435D02*
X87827267Y-142278435D01*
X85359374Y-132286793D02*
X85393045Y-132387809D01*
X85527732Y-132522496D01*
X85628748Y-132556167D01*
X85729763Y-132522496D01*
X85999137Y-132253122D01*
X86032809Y-132152106D01*
X85999137Y-132051091D01*
X85864450Y-131916404D01*
X85763435Y-131882732D01*
X85662419Y-131916404D01*
X85595076Y-131983748D01*
X85864450Y-132387809D01*
X84652267Y-131512343D02*
X84652267Y-131579687D01*
X84719610Y-131714374D01*
X84786954Y-131781717D01*
X84921641Y-131849061D01*
X85056328Y-131849061D01*
X85157343Y-131815389D01*
X85325702Y-131714374D01*
X85426717Y-131613358D01*
X85527732Y-131445000D01*
X85561404Y-131343984D01*
X85561404Y-131209297D01*
X85494061Y-131074610D01*
X85426717Y-131007267D01*
X85292030Y-130939923D01*
X85224687Y-130939923D01*
X84685938Y-130266488D02*
X84820625Y-130401175D01*
X84854297Y-130502190D01*
X84854297Y-130569534D01*
X84820625Y-130737893D01*
X84719610Y-130906251D01*
X84450236Y-131175625D01*
X84349221Y-131209297D01*
X84281877Y-131209297D01*
X84180862Y-131175625D01*
X84046175Y-131040938D01*
X84012503Y-130939923D01*
X84012503Y-130872580D01*
X84046175Y-130771564D01*
X84214534Y-130603206D01*
X84315549Y-130569534D01*
X84382893Y-130569534D01*
X84483908Y-130603206D01*
X84618595Y-130737893D01*
X84652267Y-130838908D01*
X84652267Y-130906251D01*
X84618595Y-131007267D01*
X82655778Y-128168984D02*
X83059839Y-127764923D01*
X82857809Y-127966954D02*
X82150702Y-127259847D01*
X82319061Y-127293519D01*
X82453748Y-127293519D01*
X82554763Y-127259847D01*
X81578282Y-128303671D02*
X82049687Y-128775076D01*
X81881328Y-128000625D02*
X82251717Y-128371015D01*
X82285389Y-128472030D01*
X82251717Y-128573045D01*
X82150702Y-128674061D01*
X82049687Y-128707732D01*
X81982343Y-128707732D01*
X81106877Y-128977106D02*
X81342580Y-128741404D01*
X81712969Y-129111793D02*
X81005862Y-128404687D01*
X80669145Y-128741404D01*
X95392374Y-121999793D02*
X95426045Y-122100809D01*
X95560732Y-122235496D01*
X95661748Y-122269167D01*
X95762763Y-122235496D01*
X96032137Y-121966122D01*
X96065809Y-121865106D01*
X96032137Y-121764091D01*
X95897450Y-121629404D01*
X95796435Y-121595732D01*
X95695419Y-121629404D01*
X95628076Y-121696748D01*
X95897450Y-122100809D01*
X94617923Y-121292687D02*
X95190343Y-121191671D01*
X95021984Y-121696748D02*
X95729091Y-120989641D01*
X95459717Y-120720267D01*
X95358702Y-120686595D01*
X95291358Y-120686595D01*
X95190343Y-120720267D01*
X95089328Y-120821282D01*
X95055656Y-120922297D01*
X95055656Y-120989641D01*
X95089328Y-121090656D01*
X95358702Y-121360030D01*
X94718938Y-119979488D02*
X94853625Y-120114175D01*
X94887297Y-120215190D01*
X94887297Y-120282534D01*
X94853625Y-120450893D01*
X94752610Y-120619251D01*
X94483236Y-120888625D01*
X94382221Y-120922297D01*
X94314877Y-120922297D01*
X94213862Y-120888625D01*
X94079175Y-120753938D01*
X94045503Y-120652923D01*
X94045503Y-120585580D01*
X94079175Y-120484564D01*
X94247534Y-120316206D01*
X94348549Y-120282534D01*
X94415893Y-120282534D01*
X94516908Y-120316206D01*
X94651595Y-120450893D01*
X94685267Y-120551908D01*
X94685267Y-120619251D01*
X94651595Y-120720267D01*
X92815778Y-118008984D02*
X93219839Y-117604923D01*
X93017809Y-117806954D02*
X92310702Y-117099847D01*
X92479061Y-117133519D01*
X92613748Y-117133519D01*
X92714763Y-117099847D01*
X91670938Y-117739610D02*
X91603595Y-117806954D01*
X91569923Y-117907969D01*
X91569923Y-117975312D01*
X91603595Y-118076328D01*
X91704610Y-118244687D01*
X91872969Y-118413045D01*
X92041328Y-118514061D01*
X92142343Y-118547732D01*
X92209687Y-118547732D01*
X92310702Y-118514061D01*
X92378045Y-118446717D01*
X92411717Y-118345702D01*
X92411717Y-118278358D01*
X92378045Y-118177343D01*
X92277030Y-118008984D01*
X92108671Y-117840625D01*
X91940312Y-117739610D01*
X91839297Y-117705938D01*
X91771954Y-117705938D01*
X91670938Y-117739610D01*
X91839297Y-118985465D02*
X91132190Y-118278358D01*
X91502580Y-118783435D02*
X91569923Y-119254839D01*
X91098519Y-118783435D02*
X91637267Y-118783435D01*
X97932374Y-119459793D02*
X97966045Y-119560809D01*
X98100732Y-119695496D01*
X98201748Y-119729167D01*
X98302763Y-119695496D01*
X98572137Y-119426122D01*
X98605809Y-119325106D01*
X98572137Y-119224091D01*
X98437450Y-119089404D01*
X98336435Y-119055732D01*
X98235419Y-119089404D01*
X98168076Y-119156748D01*
X98437450Y-119560809D01*
X97225267Y-118685343D02*
X97225267Y-118752687D01*
X97292610Y-118887374D01*
X97359954Y-118954717D01*
X97494641Y-119022061D01*
X97629328Y-119022061D01*
X97730343Y-118988389D01*
X97898702Y-118887374D01*
X97999717Y-118786358D01*
X98100732Y-118618000D01*
X98134404Y-118516984D01*
X98134404Y-118382297D01*
X98067061Y-118247610D01*
X97999717Y-118180267D01*
X97865030Y-118112923D01*
X97797687Y-118112923D01*
X97225267Y-117405816D02*
X97561984Y-117742534D01*
X97258938Y-118112923D01*
X97258938Y-118045580D01*
X97225267Y-117944564D01*
X97056908Y-117776206D01*
X96955893Y-117742534D01*
X96888549Y-117742534D01*
X96787534Y-117776206D01*
X96619175Y-117944564D01*
X96585503Y-118045580D01*
X96585503Y-118112923D01*
X96619175Y-118213938D01*
X96787534Y-118382297D01*
X96888549Y-118415969D01*
X96955893Y-118415969D01*
X95355778Y-115468984D02*
X95759839Y-115064923D01*
X95557809Y-115266954D02*
X94850702Y-114559847D01*
X95019061Y-114593519D01*
X95153748Y-114593519D01*
X95254763Y-114559847D01*
X94278282Y-115603671D02*
X94749687Y-116075076D01*
X94581328Y-115300625D02*
X94951717Y-115671015D01*
X94985389Y-115772030D01*
X94951717Y-115873045D01*
X94850702Y-115974061D01*
X94749687Y-116007732D01*
X94682343Y-116007732D01*
X93806877Y-116277106D02*
X94042580Y-116041404D01*
X94412969Y-116411793D02*
X93705862Y-115704687D01*
X93369145Y-116041404D01*
X92979374Y-124539792D02*
X93013045Y-124640808D01*
X93147732Y-124775495D01*
X93248748Y-124809166D01*
X93349763Y-124775495D01*
X93619137Y-124506121D01*
X93652809Y-124405105D01*
X93619137Y-124304090D01*
X93484450Y-124169403D01*
X93383435Y-124135731D01*
X93282419Y-124169403D01*
X93215076Y-124236747D01*
X93484450Y-124640808D01*
X92272267Y-123765342D02*
X92272267Y-123832686D01*
X92339610Y-123967373D01*
X92406954Y-124034716D01*
X92541641Y-124102060D01*
X92676328Y-124102060D01*
X92777343Y-124068388D01*
X92945702Y-123967373D01*
X93046717Y-123866357D01*
X93147732Y-123697999D01*
X93181404Y-123596983D01*
X93181404Y-123462296D01*
X93114061Y-123327609D01*
X93046717Y-123260266D01*
X92912030Y-123192922D01*
X92844687Y-123192922D01*
X92575312Y-122923548D02*
X92575312Y-122856205D01*
X92541641Y-122755189D01*
X92373282Y-122586831D01*
X92272267Y-122553159D01*
X92204923Y-122553159D01*
X92103908Y-122586831D01*
X92036564Y-122654174D01*
X91969221Y-122788861D01*
X91969221Y-123596983D01*
X91531488Y-123159250D01*
X90275778Y-120548984D02*
X90679839Y-120144923D01*
X90477809Y-120346954D02*
X89770702Y-119639847D01*
X89939061Y-119673519D01*
X90073748Y-119673519D01*
X90174763Y-119639847D01*
X89198282Y-120683671D02*
X89669687Y-121155076D01*
X89501328Y-120380625D02*
X89871717Y-120751015D01*
X89905389Y-120852030D01*
X89871717Y-120953045D01*
X89770702Y-121054061D01*
X89669687Y-121087732D01*
X89602343Y-121087732D01*
X88726877Y-121357106D02*
X88962580Y-121121404D01*
X89332969Y-121491793D02*
X88625862Y-120784687D01*
X88289145Y-121121404D01*
X39361904Y-89304761D02*
X39457142Y-89352380D01*
X39647619Y-89352380D01*
X39742857Y-89304761D01*
X39790476Y-89209523D01*
X39790476Y-88828571D01*
X39742857Y-88733333D01*
X39647619Y-88685714D01*
X39457142Y-88685714D01*
X39361904Y-88733333D01*
X39314285Y-88828571D01*
X39314285Y-88923809D01*
X39790476Y-89019047D01*
X38314285Y-89352380D02*
X38647619Y-88876190D01*
X38885714Y-89352380D02*
X38885714Y-88352380D01*
X38504761Y-88352380D01*
X38409523Y-88400000D01*
X38361904Y-88447619D01*
X38314285Y-88542857D01*
X38314285Y-88685714D01*
X38361904Y-88780952D01*
X38409523Y-88828571D01*
X38504761Y-88876190D01*
X38885714Y-88876190D01*
X37933333Y-88447619D02*
X37885714Y-88400000D01*
X37790476Y-88352380D01*
X37552380Y-88352380D01*
X37457142Y-88400000D01*
X37409523Y-88447619D01*
X37361904Y-88542857D01*
X37361904Y-88638095D01*
X37409523Y-88780952D01*
X37980952Y-89352380D01*
X37361904Y-89352380D01*
X37028571Y-88352380D02*
X36409523Y-88352380D01*
X36742857Y-88733333D01*
X36600000Y-88733333D01*
X36504761Y-88780952D01*
X36457142Y-88828571D01*
X36409523Y-88923809D01*
X36409523Y-89161904D01*
X36457142Y-89257142D01*
X36504761Y-89304761D01*
X36600000Y-89352380D01*
X36885714Y-89352380D01*
X36980952Y-89304761D01*
X37028571Y-89257142D01*
X38695238Y-84907380D02*
X39266666Y-84907380D01*
X38980952Y-84907380D02*
X38980952Y-83907380D01*
X39076190Y-84050238D01*
X39171428Y-84145476D01*
X39266666Y-84193095D01*
X38076190Y-83907380D02*
X37980952Y-83907380D01*
X37885714Y-83955000D01*
X37838095Y-84002619D01*
X37790476Y-84097857D01*
X37742857Y-84288333D01*
X37742857Y-84526428D01*
X37790476Y-84716904D01*
X37838095Y-84812142D01*
X37885714Y-84859761D01*
X37980952Y-84907380D01*
X38076190Y-84907380D01*
X38171428Y-84859761D01*
X38219047Y-84812142D01*
X38266666Y-84716904D01*
X38314285Y-84526428D01*
X38314285Y-84288333D01*
X38266666Y-84097857D01*
X38219047Y-84002619D01*
X38171428Y-83955000D01*
X38076190Y-83907380D01*
X37314285Y-84907380D02*
X37314285Y-83907380D01*
X37219047Y-84526428D02*
X36933333Y-84907380D01*
X36933333Y-84240714D02*
X37314285Y-84621666D01*
X48251904Y-89304761D02*
X48347142Y-89352380D01*
X48537619Y-89352380D01*
X48632857Y-89304761D01*
X48680476Y-89209523D01*
X48680476Y-88828571D01*
X48632857Y-88733333D01*
X48537619Y-88685714D01*
X48347142Y-88685714D01*
X48251904Y-88733333D01*
X48204285Y-88828571D01*
X48204285Y-88923809D01*
X48680476Y-89019047D01*
X47204285Y-89352380D02*
X47537619Y-88876190D01*
X47775714Y-89352380D02*
X47775714Y-88352380D01*
X47394761Y-88352380D01*
X47299523Y-88400000D01*
X47251904Y-88447619D01*
X47204285Y-88542857D01*
X47204285Y-88685714D01*
X47251904Y-88780952D01*
X47299523Y-88828571D01*
X47394761Y-88876190D01*
X47775714Y-88876190D01*
X46823333Y-88447619D02*
X46775714Y-88400000D01*
X46680476Y-88352380D01*
X46442380Y-88352380D01*
X46347142Y-88400000D01*
X46299523Y-88447619D01*
X46251904Y-88542857D01*
X46251904Y-88638095D01*
X46299523Y-88780952D01*
X46870952Y-89352380D01*
X46251904Y-89352380D01*
X45299523Y-89352380D02*
X45870952Y-89352380D01*
X45585238Y-89352380D02*
X45585238Y-88352380D01*
X45680476Y-88495238D01*
X45775714Y-88590476D01*
X45870952Y-88638095D01*
X47585238Y-84907380D02*
X48156666Y-84907380D01*
X47870952Y-84907380D02*
X47870952Y-83907380D01*
X47966190Y-84050238D01*
X48061428Y-84145476D01*
X48156666Y-84193095D01*
X46966190Y-83907380D02*
X46870952Y-83907380D01*
X46775714Y-83955000D01*
X46728095Y-84002619D01*
X46680476Y-84097857D01*
X46632857Y-84288333D01*
X46632857Y-84526428D01*
X46680476Y-84716904D01*
X46728095Y-84812142D01*
X46775714Y-84859761D01*
X46870952Y-84907380D01*
X46966190Y-84907380D01*
X47061428Y-84859761D01*
X47109047Y-84812142D01*
X47156666Y-84716904D01*
X47204285Y-84526428D01*
X47204285Y-84288333D01*
X47156666Y-84097857D01*
X47109047Y-84002619D01*
X47061428Y-83955000D01*
X46966190Y-83907380D01*
X46204285Y-84907380D02*
X46204285Y-83907380D01*
X46109047Y-84526428D02*
X45823333Y-84907380D01*
X45823333Y-84240714D02*
X46204285Y-84621666D01*
X39361904Y-94384761D02*
X39457142Y-94432380D01*
X39647619Y-94432380D01*
X39742857Y-94384761D01*
X39790476Y-94289523D01*
X39790476Y-93908571D01*
X39742857Y-93813333D01*
X39647619Y-93765714D01*
X39457142Y-93765714D01*
X39361904Y-93813333D01*
X39314285Y-93908571D01*
X39314285Y-94003809D01*
X39790476Y-94099047D01*
X38314285Y-94337142D02*
X38361904Y-94384761D01*
X38504761Y-94432380D01*
X38600000Y-94432380D01*
X38742857Y-94384761D01*
X38838095Y-94289523D01*
X38885714Y-94194285D01*
X38933333Y-94003809D01*
X38933333Y-93860952D01*
X38885714Y-93670476D01*
X38838095Y-93575238D01*
X38742857Y-93480000D01*
X38600000Y-93432380D01*
X38504761Y-93432380D01*
X38361904Y-93480000D01*
X38314285Y-93527619D01*
X37980952Y-93432380D02*
X37361904Y-93432380D01*
X37695238Y-93813333D01*
X37552380Y-93813333D01*
X37457142Y-93860952D01*
X37409523Y-93908571D01*
X37361904Y-94003809D01*
X37361904Y-94241904D01*
X37409523Y-94337142D01*
X37457142Y-94384761D01*
X37552380Y-94432380D01*
X37838095Y-94432380D01*
X37933333Y-94384761D01*
X37980952Y-94337142D01*
X36409523Y-94432380D02*
X36980952Y-94432380D01*
X36695238Y-94432380D02*
X36695238Y-93432380D01*
X36790476Y-93575238D01*
X36885714Y-93670476D01*
X36980952Y-93718095D01*
X38695238Y-98877380D02*
X39266666Y-98877380D01*
X38980952Y-98877380D02*
X38980952Y-97877380D01*
X39076190Y-98020238D01*
X39171428Y-98115476D01*
X39266666Y-98163095D01*
X37838095Y-98210714D02*
X37838095Y-98877380D01*
X38266666Y-98210714D02*
X38266666Y-98734523D01*
X38219047Y-98829761D01*
X38123809Y-98877380D01*
X37980952Y-98877380D01*
X37885714Y-98829761D01*
X37838095Y-98782142D01*
X37028571Y-98353571D02*
X37361904Y-98353571D01*
X37361904Y-98877380D02*
X37361904Y-97877380D01*
X36885714Y-97877380D01*
X35551904Y-89304761D02*
X35647142Y-89352380D01*
X35837619Y-89352380D01*
X35932857Y-89304761D01*
X35980476Y-89209523D01*
X35980476Y-88828571D01*
X35932857Y-88733333D01*
X35837619Y-88685714D01*
X35647142Y-88685714D01*
X35551904Y-88733333D01*
X35504285Y-88828571D01*
X35504285Y-88923809D01*
X35980476Y-89019047D01*
X34504285Y-89352380D02*
X34837619Y-88876190D01*
X35075714Y-89352380D02*
X35075714Y-88352380D01*
X34694761Y-88352380D01*
X34599523Y-88400000D01*
X34551904Y-88447619D01*
X34504285Y-88542857D01*
X34504285Y-88685714D01*
X34551904Y-88780952D01*
X34599523Y-88828571D01*
X34694761Y-88876190D01*
X35075714Y-88876190D01*
X34123333Y-88447619D02*
X34075714Y-88400000D01*
X33980476Y-88352380D01*
X33742380Y-88352380D01*
X33647142Y-88400000D01*
X33599523Y-88447619D01*
X33551904Y-88542857D01*
X33551904Y-88638095D01*
X33599523Y-88780952D01*
X34170952Y-89352380D01*
X33551904Y-89352380D01*
X33170952Y-88447619D02*
X33123333Y-88400000D01*
X33028095Y-88352380D01*
X32790000Y-88352380D01*
X32694761Y-88400000D01*
X32647142Y-88447619D01*
X32599523Y-88542857D01*
X32599523Y-88638095D01*
X32647142Y-88780952D01*
X33218571Y-89352380D01*
X32599523Y-89352380D01*
X34885238Y-84907380D02*
X35456666Y-84907380D01*
X35170952Y-84907380D02*
X35170952Y-83907380D01*
X35266190Y-84050238D01*
X35361428Y-84145476D01*
X35456666Y-84193095D01*
X34266190Y-83907380D02*
X34170952Y-83907380D01*
X34075714Y-83955000D01*
X34028095Y-84002619D01*
X33980476Y-84097857D01*
X33932857Y-84288333D01*
X33932857Y-84526428D01*
X33980476Y-84716904D01*
X34028095Y-84812142D01*
X34075714Y-84859761D01*
X34170952Y-84907380D01*
X34266190Y-84907380D01*
X34361428Y-84859761D01*
X34409047Y-84812142D01*
X34456666Y-84716904D01*
X34504285Y-84526428D01*
X34504285Y-84288333D01*
X34456666Y-84097857D01*
X34409047Y-84002619D01*
X34361428Y-83955000D01*
X34266190Y-83907380D01*
X33504285Y-84907380D02*
X33504285Y-83907380D01*
X33409047Y-84526428D02*
X33123333Y-84907380D01*
X33123333Y-84240714D02*
X33504285Y-84621666D01*
X48251904Y-94384761D02*
X48347142Y-94432380D01*
X48537619Y-94432380D01*
X48632857Y-94384761D01*
X48680476Y-94289523D01*
X48680476Y-93908571D01*
X48632857Y-93813333D01*
X48537619Y-93765714D01*
X48347142Y-93765714D01*
X48251904Y-93813333D01*
X48204285Y-93908571D01*
X48204285Y-94003809D01*
X48680476Y-94099047D01*
X47204285Y-94337142D02*
X47251904Y-94384761D01*
X47394761Y-94432380D01*
X47490000Y-94432380D01*
X47632857Y-94384761D01*
X47728095Y-94289523D01*
X47775714Y-94194285D01*
X47823333Y-94003809D01*
X47823333Y-93860952D01*
X47775714Y-93670476D01*
X47728095Y-93575238D01*
X47632857Y-93480000D01*
X47490000Y-93432380D01*
X47394761Y-93432380D01*
X47251904Y-93480000D01*
X47204285Y-93527619D01*
X46823333Y-93527619D02*
X46775714Y-93480000D01*
X46680476Y-93432380D01*
X46442380Y-93432380D01*
X46347142Y-93480000D01*
X46299523Y-93527619D01*
X46251904Y-93622857D01*
X46251904Y-93718095D01*
X46299523Y-93860952D01*
X46870952Y-94432380D01*
X46251904Y-94432380D01*
X45775714Y-94432380D02*
X45585238Y-94432380D01*
X45490000Y-94384761D01*
X45442380Y-94337142D01*
X45347142Y-94194285D01*
X45299523Y-94003809D01*
X45299523Y-93622857D01*
X45347142Y-93527619D01*
X45394761Y-93480000D01*
X45490000Y-93432380D01*
X45680476Y-93432380D01*
X45775714Y-93480000D01*
X45823333Y-93527619D01*
X45870952Y-93622857D01*
X45870952Y-93860952D01*
X45823333Y-93956190D01*
X45775714Y-94003809D01*
X45680476Y-94051428D01*
X45490000Y-94051428D01*
X45394761Y-94003809D01*
X45347142Y-93956190D01*
X45299523Y-93860952D01*
X47585238Y-98877380D02*
X48156666Y-98877380D01*
X47870952Y-98877380D02*
X47870952Y-97877380D01*
X47966190Y-98020238D01*
X48061428Y-98115476D01*
X48156666Y-98163095D01*
X46728095Y-98210714D02*
X46728095Y-98877380D01*
X47156666Y-98210714D02*
X47156666Y-98734523D01*
X47109047Y-98829761D01*
X47013809Y-98877380D01*
X46870952Y-98877380D01*
X46775714Y-98829761D01*
X46728095Y-98782142D01*
X45918571Y-98353571D02*
X46251904Y-98353571D01*
X46251904Y-98877380D02*
X46251904Y-97877380D01*
X45775714Y-97877380D01*
X35551904Y-94384761D02*
X35647142Y-94432380D01*
X35837619Y-94432380D01*
X35932857Y-94384761D01*
X35980476Y-94289523D01*
X35980476Y-93908571D01*
X35932857Y-93813333D01*
X35837619Y-93765714D01*
X35647142Y-93765714D01*
X35551904Y-93813333D01*
X35504285Y-93908571D01*
X35504285Y-94003809D01*
X35980476Y-94099047D01*
X34504285Y-94337142D02*
X34551904Y-94384761D01*
X34694761Y-94432380D01*
X34790000Y-94432380D01*
X34932857Y-94384761D01*
X35028095Y-94289523D01*
X35075714Y-94194285D01*
X35123333Y-94003809D01*
X35123333Y-93860952D01*
X35075714Y-93670476D01*
X35028095Y-93575238D01*
X34932857Y-93480000D01*
X34790000Y-93432380D01*
X34694761Y-93432380D01*
X34551904Y-93480000D01*
X34504285Y-93527619D01*
X34170952Y-93432380D02*
X33551904Y-93432380D01*
X33885238Y-93813333D01*
X33742380Y-93813333D01*
X33647142Y-93860952D01*
X33599523Y-93908571D01*
X33551904Y-94003809D01*
X33551904Y-94241904D01*
X33599523Y-94337142D01*
X33647142Y-94384761D01*
X33742380Y-94432380D01*
X34028095Y-94432380D01*
X34123333Y-94384761D01*
X34170952Y-94337142D01*
X32932857Y-93432380D02*
X32837619Y-93432380D01*
X32742380Y-93480000D01*
X32694761Y-93527619D01*
X32647142Y-93622857D01*
X32599523Y-93813333D01*
X32599523Y-94051428D01*
X32647142Y-94241904D01*
X32694761Y-94337142D01*
X32742380Y-94384761D01*
X32837619Y-94432380D01*
X32932857Y-94432380D01*
X33028095Y-94384761D01*
X33075714Y-94337142D01*
X33123333Y-94241904D01*
X33170952Y-94051428D01*
X33170952Y-93813333D01*
X33123333Y-93622857D01*
X33075714Y-93527619D01*
X33028095Y-93480000D01*
X32932857Y-93432380D01*
X34885238Y-98877380D02*
X35456666Y-98877380D01*
X35170952Y-98877380D02*
X35170952Y-97877380D01*
X35266190Y-98020238D01*
X35361428Y-98115476D01*
X35456666Y-98163095D01*
X34028095Y-98210714D02*
X34028095Y-98877380D01*
X34456666Y-98210714D02*
X34456666Y-98734523D01*
X34409047Y-98829761D01*
X34313809Y-98877380D01*
X34170952Y-98877380D01*
X34075714Y-98829761D01*
X34028095Y-98782142D01*
X33218571Y-98353571D02*
X33551904Y-98353571D01*
X33551904Y-98877380D02*
X33551904Y-97877380D01*
X33075714Y-97877380D01*
X151121904Y-94384761D02*
X151217142Y-94432380D01*
X151407619Y-94432380D01*
X151502857Y-94384761D01*
X151550476Y-94289523D01*
X151550476Y-93908571D01*
X151502857Y-93813333D01*
X151407619Y-93765714D01*
X151217142Y-93765714D01*
X151121904Y-93813333D01*
X151074285Y-93908571D01*
X151074285Y-94003809D01*
X151550476Y-94099047D01*
X150074285Y-94432380D02*
X150407619Y-93956190D01*
X150645714Y-94432380D02*
X150645714Y-93432380D01*
X150264761Y-93432380D01*
X150169523Y-93480000D01*
X150121904Y-93527619D01*
X150074285Y-93622857D01*
X150074285Y-93765714D01*
X150121904Y-93860952D01*
X150169523Y-93908571D01*
X150264761Y-93956190D01*
X150645714Y-93956190D01*
X149693333Y-93527619D02*
X149645714Y-93480000D01*
X149550476Y-93432380D01*
X149312380Y-93432380D01*
X149217142Y-93480000D01*
X149169523Y-93527619D01*
X149121904Y-93622857D01*
X149121904Y-93718095D01*
X149169523Y-93860952D01*
X149740952Y-94432380D01*
X149121904Y-94432380D01*
X148264761Y-93432380D02*
X148455238Y-93432380D01*
X148550476Y-93480000D01*
X148598095Y-93527619D01*
X148693333Y-93670476D01*
X148740952Y-93860952D01*
X148740952Y-94241904D01*
X148693333Y-94337142D01*
X148645714Y-94384761D01*
X148550476Y-94432380D01*
X148360000Y-94432380D01*
X148264761Y-94384761D01*
X148217142Y-94337142D01*
X148169523Y-94241904D01*
X148169523Y-94003809D01*
X148217142Y-93908571D01*
X148264761Y-93860952D01*
X148360000Y-93813333D01*
X148550476Y-93813333D01*
X148645714Y-93860952D01*
X148693333Y-93908571D01*
X148740952Y-94003809D01*
X150455238Y-98877380D02*
X151026666Y-98877380D01*
X150740952Y-98877380D02*
X150740952Y-97877380D01*
X150836190Y-98020238D01*
X150931428Y-98115476D01*
X151026666Y-98163095D01*
X149836190Y-97877380D02*
X149740952Y-97877380D01*
X149645714Y-97925000D01*
X149598095Y-97972619D01*
X149550476Y-98067857D01*
X149502857Y-98258333D01*
X149502857Y-98496428D01*
X149550476Y-98686904D01*
X149598095Y-98782142D01*
X149645714Y-98829761D01*
X149740952Y-98877380D01*
X149836190Y-98877380D01*
X149931428Y-98829761D01*
X149979047Y-98782142D01*
X150026666Y-98686904D01*
X150074285Y-98496428D01*
X150074285Y-98258333D01*
X150026666Y-98067857D01*
X149979047Y-97972619D01*
X149931428Y-97925000D01*
X149836190Y-97877380D01*
X149074285Y-98877380D02*
X149074285Y-97877380D01*
X148979047Y-98496428D02*
X148693333Y-98877380D01*
X148693333Y-98210714D02*
X149074285Y-98591666D01*
X147311904Y-94384761D02*
X147407142Y-94432380D01*
X147597619Y-94432380D01*
X147692857Y-94384761D01*
X147740476Y-94289523D01*
X147740476Y-93908571D01*
X147692857Y-93813333D01*
X147597619Y-93765714D01*
X147407142Y-93765714D01*
X147311904Y-93813333D01*
X147264285Y-93908571D01*
X147264285Y-94003809D01*
X147740476Y-94099047D01*
X146264285Y-94432380D02*
X146597619Y-93956190D01*
X146835714Y-94432380D02*
X146835714Y-93432380D01*
X146454761Y-93432380D01*
X146359523Y-93480000D01*
X146311904Y-93527619D01*
X146264285Y-93622857D01*
X146264285Y-93765714D01*
X146311904Y-93860952D01*
X146359523Y-93908571D01*
X146454761Y-93956190D01*
X146835714Y-93956190D01*
X145883333Y-93527619D02*
X145835714Y-93480000D01*
X145740476Y-93432380D01*
X145502380Y-93432380D01*
X145407142Y-93480000D01*
X145359523Y-93527619D01*
X145311904Y-93622857D01*
X145311904Y-93718095D01*
X145359523Y-93860952D01*
X145930952Y-94432380D01*
X145311904Y-94432380D01*
X144978571Y-93432380D02*
X144311904Y-93432380D01*
X144740476Y-94432380D01*
X146645238Y-98877380D02*
X147216666Y-98877380D01*
X146930952Y-98877380D02*
X146930952Y-97877380D01*
X147026190Y-98020238D01*
X147121428Y-98115476D01*
X147216666Y-98163095D01*
X146026190Y-97877380D02*
X145930952Y-97877380D01*
X145835714Y-97925000D01*
X145788095Y-97972619D01*
X145740476Y-98067857D01*
X145692857Y-98258333D01*
X145692857Y-98496428D01*
X145740476Y-98686904D01*
X145788095Y-98782142D01*
X145835714Y-98829761D01*
X145930952Y-98877380D01*
X146026190Y-98877380D01*
X146121428Y-98829761D01*
X146169047Y-98782142D01*
X146216666Y-98686904D01*
X146264285Y-98496428D01*
X146264285Y-98258333D01*
X146216666Y-98067857D01*
X146169047Y-97972619D01*
X146121428Y-97925000D01*
X146026190Y-97877380D01*
X145264285Y-98877380D02*
X145264285Y-97877380D01*
X145169047Y-98496428D02*
X144883333Y-98877380D01*
X144883333Y-98210714D02*
X145264285Y-98591666D01*
X151121904Y-89304761D02*
X151217142Y-89352380D01*
X151407619Y-89352380D01*
X151502857Y-89304761D01*
X151550476Y-89209523D01*
X151550476Y-88828571D01*
X151502857Y-88733333D01*
X151407619Y-88685714D01*
X151217142Y-88685714D01*
X151121904Y-88733333D01*
X151074285Y-88828571D01*
X151074285Y-88923809D01*
X151550476Y-89019047D01*
X150074285Y-89257142D02*
X150121904Y-89304761D01*
X150264761Y-89352380D01*
X150360000Y-89352380D01*
X150502857Y-89304761D01*
X150598095Y-89209523D01*
X150645714Y-89114285D01*
X150693333Y-88923809D01*
X150693333Y-88780952D01*
X150645714Y-88590476D01*
X150598095Y-88495238D01*
X150502857Y-88400000D01*
X150360000Y-88352380D01*
X150264761Y-88352380D01*
X150121904Y-88400000D01*
X150074285Y-88447619D01*
X149740952Y-88352380D02*
X149121904Y-88352380D01*
X149455238Y-88733333D01*
X149312380Y-88733333D01*
X149217142Y-88780952D01*
X149169523Y-88828571D01*
X149121904Y-88923809D01*
X149121904Y-89161904D01*
X149169523Y-89257142D01*
X149217142Y-89304761D01*
X149312380Y-89352380D01*
X149598095Y-89352380D01*
X149693333Y-89304761D01*
X149740952Y-89257142D01*
X148264761Y-88685714D02*
X148264761Y-89352380D01*
X148502857Y-88304761D02*
X148740952Y-89019047D01*
X148121904Y-89019047D01*
X150455238Y-84907380D02*
X151026666Y-84907380D01*
X150740952Y-84907380D02*
X150740952Y-83907380D01*
X150836190Y-84050238D01*
X150931428Y-84145476D01*
X151026666Y-84193095D01*
X149598095Y-84240714D02*
X149598095Y-84907380D01*
X150026666Y-84240714D02*
X150026666Y-84764523D01*
X149979047Y-84859761D01*
X149883809Y-84907380D01*
X149740952Y-84907380D01*
X149645714Y-84859761D01*
X149598095Y-84812142D01*
X148788571Y-84383571D02*
X149121904Y-84383571D01*
X149121904Y-84907380D02*
X149121904Y-83907380D01*
X148645714Y-83907380D01*
X138421904Y-94384761D02*
X138517142Y-94432380D01*
X138707619Y-94432380D01*
X138802857Y-94384761D01*
X138850476Y-94289523D01*
X138850476Y-93908571D01*
X138802857Y-93813333D01*
X138707619Y-93765714D01*
X138517142Y-93765714D01*
X138421904Y-93813333D01*
X138374285Y-93908571D01*
X138374285Y-94003809D01*
X138850476Y-94099047D01*
X137374285Y-94432380D02*
X137707619Y-93956190D01*
X137945714Y-94432380D02*
X137945714Y-93432380D01*
X137564761Y-93432380D01*
X137469523Y-93480000D01*
X137421904Y-93527619D01*
X137374285Y-93622857D01*
X137374285Y-93765714D01*
X137421904Y-93860952D01*
X137469523Y-93908571D01*
X137564761Y-93956190D01*
X137945714Y-93956190D01*
X136993333Y-93527619D02*
X136945714Y-93480000D01*
X136850476Y-93432380D01*
X136612380Y-93432380D01*
X136517142Y-93480000D01*
X136469523Y-93527619D01*
X136421904Y-93622857D01*
X136421904Y-93718095D01*
X136469523Y-93860952D01*
X137040952Y-94432380D01*
X136421904Y-94432380D01*
X135517142Y-93432380D02*
X135993333Y-93432380D01*
X136040952Y-93908571D01*
X135993333Y-93860952D01*
X135898095Y-93813333D01*
X135660000Y-93813333D01*
X135564761Y-93860952D01*
X135517142Y-93908571D01*
X135469523Y-94003809D01*
X135469523Y-94241904D01*
X135517142Y-94337142D01*
X135564761Y-94384761D01*
X135660000Y-94432380D01*
X135898095Y-94432380D01*
X135993333Y-94384761D01*
X136040952Y-94337142D01*
X137755238Y-98877380D02*
X138326666Y-98877380D01*
X138040952Y-98877380D02*
X138040952Y-97877380D01*
X138136190Y-98020238D01*
X138231428Y-98115476D01*
X138326666Y-98163095D01*
X137136190Y-97877380D02*
X137040952Y-97877380D01*
X136945714Y-97925000D01*
X136898095Y-97972619D01*
X136850476Y-98067857D01*
X136802857Y-98258333D01*
X136802857Y-98496428D01*
X136850476Y-98686904D01*
X136898095Y-98782142D01*
X136945714Y-98829761D01*
X137040952Y-98877380D01*
X137136190Y-98877380D01*
X137231428Y-98829761D01*
X137279047Y-98782142D01*
X137326666Y-98686904D01*
X137374285Y-98496428D01*
X137374285Y-98258333D01*
X137326666Y-98067857D01*
X137279047Y-97972619D01*
X137231428Y-97925000D01*
X137136190Y-97877380D01*
X136374285Y-98877380D02*
X136374285Y-97877380D01*
X136279047Y-98496428D02*
X135993333Y-98877380D01*
X135993333Y-98210714D02*
X136374285Y-98591666D01*
X138421904Y-89304761D02*
X138517142Y-89352380D01*
X138707619Y-89352380D01*
X138802857Y-89304761D01*
X138850476Y-89209523D01*
X138850476Y-88828571D01*
X138802857Y-88733333D01*
X138707619Y-88685714D01*
X138517142Y-88685714D01*
X138421904Y-88733333D01*
X138374285Y-88828571D01*
X138374285Y-88923809D01*
X138850476Y-89019047D01*
X137374285Y-89257142D02*
X137421904Y-89304761D01*
X137564761Y-89352380D01*
X137660000Y-89352380D01*
X137802857Y-89304761D01*
X137898095Y-89209523D01*
X137945714Y-89114285D01*
X137993333Y-88923809D01*
X137993333Y-88780952D01*
X137945714Y-88590476D01*
X137898095Y-88495238D01*
X137802857Y-88400000D01*
X137660000Y-88352380D01*
X137564761Y-88352380D01*
X137421904Y-88400000D01*
X137374285Y-88447619D01*
X137040952Y-88352380D02*
X136421904Y-88352380D01*
X136755238Y-88733333D01*
X136612380Y-88733333D01*
X136517142Y-88780952D01*
X136469523Y-88828571D01*
X136421904Y-88923809D01*
X136421904Y-89161904D01*
X136469523Y-89257142D01*
X136517142Y-89304761D01*
X136612380Y-89352380D01*
X136898095Y-89352380D01*
X136993333Y-89304761D01*
X137040952Y-89257142D01*
X136088571Y-88352380D02*
X135469523Y-88352380D01*
X135802857Y-88733333D01*
X135660000Y-88733333D01*
X135564761Y-88780952D01*
X135517142Y-88828571D01*
X135469523Y-88923809D01*
X135469523Y-89161904D01*
X135517142Y-89257142D01*
X135564761Y-89304761D01*
X135660000Y-89352380D01*
X135945714Y-89352380D01*
X136040952Y-89304761D01*
X136088571Y-89257142D01*
X137755238Y-84907380D02*
X138326666Y-84907380D01*
X138040952Y-84907380D02*
X138040952Y-83907380D01*
X138136190Y-84050238D01*
X138231428Y-84145476D01*
X138326666Y-84193095D01*
X136898095Y-84240714D02*
X136898095Y-84907380D01*
X137326666Y-84240714D02*
X137326666Y-84764523D01*
X137279047Y-84859761D01*
X137183809Y-84907380D01*
X137040952Y-84907380D01*
X136945714Y-84859761D01*
X136898095Y-84812142D01*
X136088571Y-84383571D02*
X136421904Y-84383571D01*
X136421904Y-84907380D02*
X136421904Y-83907380D01*
X135945714Y-83907380D01*
X147311904Y-89304761D02*
X147407142Y-89352380D01*
X147597619Y-89352380D01*
X147692857Y-89304761D01*
X147740476Y-89209523D01*
X147740476Y-88828571D01*
X147692857Y-88733333D01*
X147597619Y-88685714D01*
X147407142Y-88685714D01*
X147311904Y-88733333D01*
X147264285Y-88828571D01*
X147264285Y-88923809D01*
X147740476Y-89019047D01*
X146264285Y-89257142D02*
X146311904Y-89304761D01*
X146454761Y-89352380D01*
X146550000Y-89352380D01*
X146692857Y-89304761D01*
X146788095Y-89209523D01*
X146835714Y-89114285D01*
X146883333Y-88923809D01*
X146883333Y-88780952D01*
X146835714Y-88590476D01*
X146788095Y-88495238D01*
X146692857Y-88400000D01*
X146550000Y-88352380D01*
X146454761Y-88352380D01*
X146311904Y-88400000D01*
X146264285Y-88447619D01*
X145930952Y-88352380D02*
X145311904Y-88352380D01*
X145645238Y-88733333D01*
X145502380Y-88733333D01*
X145407142Y-88780952D01*
X145359523Y-88828571D01*
X145311904Y-88923809D01*
X145311904Y-89161904D01*
X145359523Y-89257142D01*
X145407142Y-89304761D01*
X145502380Y-89352380D01*
X145788095Y-89352380D01*
X145883333Y-89304761D01*
X145930952Y-89257142D01*
X144407142Y-88352380D02*
X144883333Y-88352380D01*
X144930952Y-88828571D01*
X144883333Y-88780952D01*
X144788095Y-88733333D01*
X144550000Y-88733333D01*
X144454761Y-88780952D01*
X144407142Y-88828571D01*
X144359523Y-88923809D01*
X144359523Y-89161904D01*
X144407142Y-89257142D01*
X144454761Y-89304761D01*
X144550000Y-89352380D01*
X144788095Y-89352380D01*
X144883333Y-89304761D01*
X144930952Y-89257142D01*
X146645238Y-84907380D02*
X147216666Y-84907380D01*
X146930952Y-84907380D02*
X146930952Y-83907380D01*
X147026190Y-84050238D01*
X147121428Y-84145476D01*
X147216666Y-84193095D01*
X145788095Y-84240714D02*
X145788095Y-84907380D01*
X146216666Y-84240714D02*
X146216666Y-84764523D01*
X146169047Y-84859761D01*
X146073809Y-84907380D01*
X145930952Y-84907380D01*
X145835714Y-84859761D01*
X145788095Y-84812142D01*
X144978571Y-84383571D02*
X145311904Y-84383571D01*
X145311904Y-84907380D02*
X145311904Y-83907380D01*
X144835714Y-83907380D01*
D14*
X123964095Y-25478619D02*
X123964095Y-26301095D01*
X123915714Y-26397857D01*
X123867333Y-26446238D01*
X123770571Y-26494619D01*
X123577047Y-26494619D01*
X123480285Y-26446238D01*
X123431904Y-26397857D01*
X123383523Y-26301095D01*
X123383523Y-25478619D01*
X122851333Y-26494619D02*
X122657809Y-26494619D01*
X122561047Y-26446238D01*
X122512666Y-26397857D01*
X122415904Y-26252714D01*
X122367523Y-26059190D01*
X122367523Y-25672142D01*
X122415904Y-25575380D01*
X122464285Y-25527000D01*
X122561047Y-25478619D01*
X122754571Y-25478619D01*
X122851333Y-25527000D01*
X122899714Y-25575380D01*
X122948095Y-25672142D01*
X122948095Y-25914047D01*
X122899714Y-26010809D01*
X122851333Y-26059190D01*
X122754571Y-26107571D01*
X122561047Y-26107571D01*
X122464285Y-26059190D01*
X122415904Y-26010809D01*
X122367523Y-25914047D01*
X126504095Y-24057428D02*
X126842761Y-24057428D01*
X126842761Y-24589619D02*
X126842761Y-23573619D01*
X126358952Y-23573619D01*
X125584857Y-24541238D02*
X125681619Y-24589619D01*
X125875142Y-24589619D01*
X125971904Y-24541238D01*
X126020285Y-24444476D01*
X126020285Y-24057428D01*
X125971904Y-23960666D01*
X125875142Y-23912285D01*
X125681619Y-23912285D01*
X125584857Y-23960666D01*
X125536476Y-24057428D01*
X125536476Y-24154190D01*
X126020285Y-24250952D01*
X124665619Y-24589619D02*
X124665619Y-24057428D01*
X124714000Y-23960666D01*
X124810761Y-23912285D01*
X125004285Y-23912285D01*
X125101047Y-23960666D01*
X124665619Y-24541238D02*
X124762380Y-24589619D01*
X125004285Y-24589619D01*
X125101047Y-24541238D01*
X125149428Y-24444476D01*
X125149428Y-24347714D01*
X125101047Y-24250952D01*
X125004285Y-24202571D01*
X124762380Y-24202571D01*
X124665619Y-24154190D01*
X124326952Y-23912285D02*
X123939904Y-23912285D01*
X124181809Y-23573619D02*
X124181809Y-24444476D01*
X124133428Y-24541238D01*
X124036666Y-24589619D01*
X123939904Y-24589619D01*
X123601238Y-24589619D02*
X123601238Y-23573619D01*
X123165809Y-24589619D02*
X123165809Y-24057428D01*
X123214190Y-23960666D01*
X123310952Y-23912285D01*
X123456095Y-23912285D01*
X123552857Y-23960666D01*
X123601238Y-24009047D01*
X122294952Y-24541238D02*
X122391714Y-24589619D01*
X122585238Y-24589619D01*
X122682000Y-24541238D01*
X122730380Y-24444476D01*
X122730380Y-24057428D01*
X122682000Y-23960666D01*
X122585238Y-23912285D01*
X122391714Y-23912285D01*
X122294952Y-23960666D01*
X122246571Y-24057428D01*
X122246571Y-24154190D01*
X122730380Y-24250952D01*
X121811142Y-24589619D02*
X121811142Y-23912285D01*
X121811142Y-24105809D02*
X121762761Y-24009047D01*
X121714380Y-23960666D01*
X121617619Y-23912285D01*
X121520857Y-23912285D01*
X121182190Y-24589619D02*
X121182190Y-23573619D01*
X120843523Y-24299333D01*
X120504857Y-23573619D01*
X120504857Y-24589619D01*
X119827523Y-23573619D02*
X119730761Y-23573619D01*
X119634000Y-23622000D01*
X119585619Y-23670380D01*
X119537238Y-23767142D01*
X119488857Y-23960666D01*
X119488857Y-24202571D01*
X119537238Y-24396095D01*
X119585619Y-24492857D01*
X119634000Y-24541238D01*
X119730761Y-24589619D01*
X119827523Y-24589619D01*
X119924285Y-24541238D01*
X119972666Y-24492857D01*
X120021047Y-24396095D01*
X120069428Y-24202571D01*
X120069428Y-23960666D01*
X120021047Y-23767142D01*
X119972666Y-23670380D01*
X119924285Y-23622000D01*
X119827523Y-23573619D01*
D10*
X136470571Y-60633428D02*
X136361714Y-60669714D01*
X136180285Y-60669714D01*
X136107714Y-60633428D01*
X136071428Y-60597142D01*
X136035142Y-60524571D01*
X136035142Y-60452000D01*
X136071428Y-60379428D01*
X136107714Y-60343142D01*
X136180285Y-60306857D01*
X136325428Y-60270571D01*
X136398000Y-60234285D01*
X136434285Y-60198000D01*
X136470571Y-60125428D01*
X136470571Y-60052857D01*
X136434285Y-59980285D01*
X136398000Y-59944000D01*
X136325428Y-59907714D01*
X136144000Y-59907714D01*
X136035142Y-59944000D01*
X135309428Y-60669714D02*
X135744857Y-60669714D01*
X135527142Y-60669714D02*
X135527142Y-59907714D01*
X135599714Y-60016571D01*
X135672285Y-60089142D01*
X135744857Y-60125428D01*
X137831285Y-66384714D02*
X137831285Y-65622714D01*
X137577285Y-66167000D01*
X137323285Y-65622714D01*
X137323285Y-66384714D01*
X136815285Y-65622714D02*
X136742714Y-65622714D01*
X136670142Y-65659000D01*
X136633857Y-65695285D01*
X136597571Y-65767857D01*
X136561285Y-65913000D01*
X136561285Y-66094428D01*
X136597571Y-66239571D01*
X136633857Y-66312142D01*
X136670142Y-66348428D01*
X136742714Y-66384714D01*
X136815285Y-66384714D01*
X136887857Y-66348428D01*
X136924142Y-66312142D01*
X136960428Y-66239571D01*
X136996714Y-66094428D01*
X136996714Y-65913000D01*
X136960428Y-65767857D01*
X136924142Y-65695285D01*
X136887857Y-65659000D01*
X136815285Y-65622714D01*
X136416142Y-66457285D02*
X135835571Y-66457285D01*
X135218714Y-66384714D02*
X135472714Y-66021857D01*
X135654142Y-66384714D02*
X135654142Y-65622714D01*
X135363857Y-65622714D01*
X135291285Y-65659000D01*
X135255000Y-65695285D01*
X135218714Y-65767857D01*
X135218714Y-65876714D01*
X135255000Y-65949285D01*
X135291285Y-65985571D01*
X135363857Y-66021857D01*
X135654142Y-66021857D01*
X134928428Y-66348428D02*
X134819571Y-66384714D01*
X134638142Y-66384714D01*
X134565571Y-66348428D01*
X134529285Y-66312142D01*
X134493000Y-66239571D01*
X134493000Y-66167000D01*
X134529285Y-66094428D01*
X134565571Y-66058142D01*
X134638142Y-66021857D01*
X134783285Y-65985571D01*
X134855857Y-65949285D01*
X134892142Y-65913000D01*
X134928428Y-65840428D01*
X134928428Y-65767857D01*
X134892142Y-65695285D01*
X134855857Y-65659000D01*
X134783285Y-65622714D01*
X134601857Y-65622714D01*
X134493000Y-65659000D01*
X134275285Y-65622714D02*
X133839857Y-65622714D01*
X134057571Y-66384714D02*
X134057571Y-65622714D01*
D14*
X61099095Y-25478619D02*
X61099095Y-26301095D01*
X61050714Y-26397857D01*
X61002333Y-26446238D01*
X60905571Y-26494619D01*
X60712047Y-26494619D01*
X60615285Y-26446238D01*
X60566904Y-26397857D01*
X60518523Y-26301095D01*
X60518523Y-25478619D01*
X60131476Y-25478619D02*
X59454142Y-25478619D01*
X59889571Y-26494619D01*
X64878857Y-24057428D02*
X64540190Y-24057428D01*
X64395047Y-24589619D02*
X64878857Y-24589619D01*
X64878857Y-23573619D01*
X64395047Y-23573619D01*
X64056380Y-23573619D02*
X63379047Y-23573619D01*
X64056380Y-24589619D01*
X63379047Y-24589619D01*
X62992000Y-24589619D02*
X62992000Y-23573619D01*
X62992000Y-23960666D02*
X62895238Y-23912285D01*
X62701714Y-23912285D01*
X62604952Y-23960666D01*
X62556571Y-24009047D01*
X62508190Y-24105809D01*
X62508190Y-24396095D01*
X62556571Y-24492857D01*
X62604952Y-24541238D01*
X62701714Y-24589619D01*
X62895238Y-24589619D01*
X62992000Y-24541238D01*
X61927619Y-24589619D02*
X62024380Y-24541238D01*
X62072761Y-24444476D01*
X62072761Y-23573619D01*
X61105142Y-23912285D02*
X61105142Y-24589619D01*
X61540571Y-23912285D02*
X61540571Y-24444476D01*
X61492190Y-24541238D01*
X61395428Y-24589619D01*
X61250285Y-24589619D01*
X61153523Y-24541238D01*
X61105142Y-24492857D01*
X60234285Y-24541238D02*
X60331047Y-24589619D01*
X60524571Y-24589619D01*
X60621333Y-24541238D01*
X60669714Y-24444476D01*
X60669714Y-24057428D01*
X60621333Y-23960666D01*
X60524571Y-23912285D01*
X60331047Y-23912285D01*
X60234285Y-23960666D01*
X60185904Y-24057428D01*
X60185904Y-24154190D01*
X60669714Y-24250952D01*
X59895619Y-23912285D02*
X59508571Y-23912285D01*
X59750476Y-24589619D02*
X59750476Y-23718761D01*
X59702095Y-23622000D01*
X59605333Y-23573619D01*
X59508571Y-23573619D01*
X59169904Y-24589619D02*
X59169904Y-23912285D01*
X59169904Y-24105809D02*
X59121523Y-24009047D01*
X59073142Y-23960666D01*
X58976380Y-23912285D01*
X58879619Y-23912285D01*
X58105523Y-23912285D02*
X58105523Y-24589619D01*
X58540952Y-23912285D02*
X58540952Y-24444476D01*
X58492571Y-24541238D01*
X58395809Y-24589619D01*
X58250666Y-24589619D01*
X58153904Y-24541238D01*
X58105523Y-24492857D01*
X57621714Y-24589619D02*
X57621714Y-23912285D01*
X57621714Y-23573619D02*
X57670095Y-23622000D01*
X57621714Y-23670380D01*
X57573333Y-23622000D01*
X57621714Y-23573619D01*
X57621714Y-23670380D01*
X57283047Y-23912285D02*
X56896000Y-23912285D01*
X57137904Y-23573619D02*
X57137904Y-24444476D01*
X57089523Y-24541238D01*
X56992761Y-24589619D01*
X56896000Y-24589619D01*
D11*
X146692857Y-38457142D02*
X146740476Y-38504761D01*
X146883333Y-38552380D01*
X146978571Y-38552380D01*
X147121428Y-38504761D01*
X147216666Y-38409523D01*
X147264285Y-38314285D01*
X147311904Y-38123809D01*
X147311904Y-37980952D01*
X147264285Y-37790476D01*
X147216666Y-37695238D01*
X147121428Y-37600000D01*
X146978571Y-37552380D01*
X146883333Y-37552380D01*
X146740476Y-37600000D01*
X146692857Y-37647619D01*
X146359523Y-37552380D02*
X145740476Y-37552380D01*
X146073809Y-37933333D01*
X145930952Y-37933333D01*
X145835714Y-37980952D01*
X145788095Y-38028571D01*
X145740476Y-38123809D01*
X145740476Y-38361904D01*
X145788095Y-38457142D01*
X145835714Y-38504761D01*
X145930952Y-38552380D01*
X146216666Y-38552380D01*
X146311904Y-38504761D01*
X146359523Y-38457142D01*
X144835714Y-37552380D02*
X145311904Y-37552380D01*
X145359523Y-38028571D01*
X145311904Y-37980952D01*
X145216666Y-37933333D01*
X144978571Y-37933333D01*
X144883333Y-37980952D01*
X144835714Y-38028571D01*
X144788095Y-38123809D01*
X144788095Y-38361904D01*
X144835714Y-38457142D01*
X144883333Y-38504761D01*
X144978571Y-38552380D01*
X145216666Y-38552380D01*
X145311904Y-38504761D01*
X145359523Y-38457142D01*
X146645238Y-34107380D02*
X147216666Y-34107380D01*
X146930952Y-34107380D02*
X146930952Y-33107380D01*
X147026190Y-33250238D01*
X147121428Y-33345476D01*
X147216666Y-33393095D01*
X145788095Y-33440714D02*
X145788095Y-34107380D01*
X146216666Y-33440714D02*
X146216666Y-33964523D01*
X146169047Y-34059761D01*
X146073809Y-34107380D01*
X145930952Y-34107380D01*
X145835714Y-34059761D01*
X145788095Y-34012142D01*
X144978571Y-33583571D02*
X145311904Y-33583571D01*
X145311904Y-34107380D02*
X145311904Y-33107380D01*
X144835714Y-33107380D01*
X150502857Y-38457142D02*
X150550476Y-38504761D01*
X150693333Y-38552380D01*
X150788571Y-38552380D01*
X150931428Y-38504761D01*
X151026666Y-38409523D01*
X151074285Y-38314285D01*
X151121904Y-38123809D01*
X151121904Y-37980952D01*
X151074285Y-37790476D01*
X151026666Y-37695238D01*
X150931428Y-37600000D01*
X150788571Y-37552380D01*
X150693333Y-37552380D01*
X150550476Y-37600000D01*
X150502857Y-37647619D01*
X150169523Y-37552380D02*
X149550476Y-37552380D01*
X149883809Y-37933333D01*
X149740952Y-37933333D01*
X149645714Y-37980952D01*
X149598095Y-38028571D01*
X149550476Y-38123809D01*
X149550476Y-38361904D01*
X149598095Y-38457142D01*
X149645714Y-38504761D01*
X149740952Y-38552380D01*
X150026666Y-38552380D01*
X150121904Y-38504761D01*
X150169523Y-38457142D01*
X148693333Y-37885714D02*
X148693333Y-38552380D01*
X148931428Y-37504761D02*
X149169523Y-38219047D01*
X148550476Y-38219047D01*
X150455238Y-34107380D02*
X151026666Y-34107380D01*
X150740952Y-34107380D02*
X150740952Y-33107380D01*
X150836190Y-33250238D01*
X150931428Y-33345476D01*
X151026666Y-33393095D01*
X149598095Y-33440714D02*
X149598095Y-34107380D01*
X150026666Y-33440714D02*
X150026666Y-33964523D01*
X149979047Y-34059761D01*
X149883809Y-34107380D01*
X149740952Y-34107380D01*
X149645714Y-34059761D01*
X149598095Y-34012142D01*
X148788571Y-33583571D02*
X149121904Y-33583571D01*
X149121904Y-34107380D02*
X149121904Y-33107380D01*
X148645714Y-33107380D01*
X137802857Y-38457142D02*
X137850476Y-38504761D01*
X137993333Y-38552380D01*
X138088571Y-38552380D01*
X138231428Y-38504761D01*
X138326666Y-38409523D01*
X138374285Y-38314285D01*
X138421904Y-38123809D01*
X138421904Y-37980952D01*
X138374285Y-37790476D01*
X138326666Y-37695238D01*
X138231428Y-37600000D01*
X138088571Y-37552380D01*
X137993333Y-37552380D01*
X137850476Y-37600000D01*
X137802857Y-37647619D01*
X137469523Y-37552380D02*
X136850476Y-37552380D01*
X137183809Y-37933333D01*
X137040952Y-37933333D01*
X136945714Y-37980952D01*
X136898095Y-38028571D01*
X136850476Y-38123809D01*
X136850476Y-38361904D01*
X136898095Y-38457142D01*
X136945714Y-38504761D01*
X137040952Y-38552380D01*
X137326666Y-38552380D01*
X137421904Y-38504761D01*
X137469523Y-38457142D01*
X136517142Y-37552380D02*
X135898095Y-37552380D01*
X136231428Y-37933333D01*
X136088571Y-37933333D01*
X135993333Y-37980952D01*
X135945714Y-38028571D01*
X135898095Y-38123809D01*
X135898095Y-38361904D01*
X135945714Y-38457142D01*
X135993333Y-38504761D01*
X136088571Y-38552380D01*
X136374285Y-38552380D01*
X136469523Y-38504761D01*
X136517142Y-38457142D01*
X137755238Y-34107380D02*
X138326666Y-34107380D01*
X138040952Y-34107380D02*
X138040952Y-33107380D01*
X138136190Y-33250238D01*
X138231428Y-33345476D01*
X138326666Y-33393095D01*
X136898095Y-33440714D02*
X136898095Y-34107380D01*
X137326666Y-33440714D02*
X137326666Y-33964523D01*
X137279047Y-34059761D01*
X137183809Y-34107380D01*
X137040952Y-34107380D01*
X136945714Y-34059761D01*
X136898095Y-34012142D01*
X136088571Y-33583571D02*
X136421904Y-33583571D01*
X136421904Y-34107380D02*
X136421904Y-33107380D01*
X135945714Y-33107380D01*
X38742857Y-43537142D02*
X38790476Y-43584761D01*
X38933333Y-43632380D01*
X39028571Y-43632380D01*
X39171428Y-43584761D01*
X39266666Y-43489523D01*
X39314285Y-43394285D01*
X39361904Y-43203809D01*
X39361904Y-43060952D01*
X39314285Y-42870476D01*
X39266666Y-42775238D01*
X39171428Y-42680000D01*
X39028571Y-42632380D01*
X38933333Y-42632380D01*
X38790476Y-42680000D01*
X38742857Y-42727619D01*
X38409523Y-42632380D02*
X37790476Y-42632380D01*
X38123809Y-43013333D01*
X37980952Y-43013333D01*
X37885714Y-43060952D01*
X37838095Y-43108571D01*
X37790476Y-43203809D01*
X37790476Y-43441904D01*
X37838095Y-43537142D01*
X37885714Y-43584761D01*
X37980952Y-43632380D01*
X38266666Y-43632380D01*
X38361904Y-43584761D01*
X38409523Y-43537142D01*
X36838095Y-43632380D02*
X37409523Y-43632380D01*
X37123809Y-43632380D02*
X37123809Y-42632380D01*
X37219047Y-42775238D01*
X37314285Y-42870476D01*
X37409523Y-42918095D01*
X38695238Y-48077380D02*
X39266666Y-48077380D01*
X38980952Y-48077380D02*
X38980952Y-47077380D01*
X39076190Y-47220238D01*
X39171428Y-47315476D01*
X39266666Y-47363095D01*
X37838095Y-47410714D02*
X37838095Y-48077380D01*
X38266666Y-47410714D02*
X38266666Y-47934523D01*
X38219047Y-48029761D01*
X38123809Y-48077380D01*
X37980952Y-48077380D01*
X37885714Y-48029761D01*
X37838095Y-47982142D01*
X37028571Y-47553571D02*
X37361904Y-47553571D01*
X37361904Y-48077380D02*
X37361904Y-47077380D01*
X36885714Y-47077380D01*
X34932857Y-43537142D02*
X34980476Y-43584761D01*
X35123333Y-43632380D01*
X35218571Y-43632380D01*
X35361428Y-43584761D01*
X35456666Y-43489523D01*
X35504285Y-43394285D01*
X35551904Y-43203809D01*
X35551904Y-43060952D01*
X35504285Y-42870476D01*
X35456666Y-42775238D01*
X35361428Y-42680000D01*
X35218571Y-42632380D01*
X35123333Y-42632380D01*
X34980476Y-42680000D01*
X34932857Y-42727619D01*
X34599523Y-42632380D02*
X33980476Y-42632380D01*
X34313809Y-43013333D01*
X34170952Y-43013333D01*
X34075714Y-43060952D01*
X34028095Y-43108571D01*
X33980476Y-43203809D01*
X33980476Y-43441904D01*
X34028095Y-43537142D01*
X34075714Y-43584761D01*
X34170952Y-43632380D01*
X34456666Y-43632380D01*
X34551904Y-43584761D01*
X34599523Y-43537142D01*
X33361428Y-42632380D02*
X33266190Y-42632380D01*
X33170952Y-42680000D01*
X33123333Y-42727619D01*
X33075714Y-42822857D01*
X33028095Y-43013333D01*
X33028095Y-43251428D01*
X33075714Y-43441904D01*
X33123333Y-43537142D01*
X33170952Y-43584761D01*
X33266190Y-43632380D01*
X33361428Y-43632380D01*
X33456666Y-43584761D01*
X33504285Y-43537142D01*
X33551904Y-43441904D01*
X33599523Y-43251428D01*
X33599523Y-43013333D01*
X33551904Y-42822857D01*
X33504285Y-42727619D01*
X33456666Y-42680000D01*
X33361428Y-42632380D01*
X34885238Y-48077380D02*
X35456666Y-48077380D01*
X35170952Y-48077380D02*
X35170952Y-47077380D01*
X35266190Y-47220238D01*
X35361428Y-47315476D01*
X35456666Y-47363095D01*
X34028095Y-47410714D02*
X34028095Y-48077380D01*
X34456666Y-47410714D02*
X34456666Y-47934523D01*
X34409047Y-48029761D01*
X34313809Y-48077380D01*
X34170952Y-48077380D01*
X34075714Y-48029761D01*
X34028095Y-47982142D01*
X33218571Y-47553571D02*
X33551904Y-47553571D01*
X33551904Y-48077380D02*
X33551904Y-47077380D01*
X33075714Y-47077380D01*
X47632857Y-43537142D02*
X47680476Y-43584761D01*
X47823333Y-43632380D01*
X47918571Y-43632380D01*
X48061428Y-43584761D01*
X48156666Y-43489523D01*
X48204285Y-43394285D01*
X48251904Y-43203809D01*
X48251904Y-43060952D01*
X48204285Y-42870476D01*
X48156666Y-42775238D01*
X48061428Y-42680000D01*
X47918571Y-42632380D01*
X47823333Y-42632380D01*
X47680476Y-42680000D01*
X47632857Y-42727619D01*
X47251904Y-42727619D02*
X47204285Y-42680000D01*
X47109047Y-42632380D01*
X46870952Y-42632380D01*
X46775714Y-42680000D01*
X46728095Y-42727619D01*
X46680476Y-42822857D01*
X46680476Y-42918095D01*
X46728095Y-43060952D01*
X47299523Y-43632380D01*
X46680476Y-43632380D01*
X46204285Y-43632380D02*
X46013809Y-43632380D01*
X45918571Y-43584761D01*
X45870952Y-43537142D01*
X45775714Y-43394285D01*
X45728095Y-43203809D01*
X45728095Y-42822857D01*
X45775714Y-42727619D01*
X45823333Y-42680000D01*
X45918571Y-42632380D01*
X46109047Y-42632380D01*
X46204285Y-42680000D01*
X46251904Y-42727619D01*
X46299523Y-42822857D01*
X46299523Y-43060952D01*
X46251904Y-43156190D01*
X46204285Y-43203809D01*
X46109047Y-43251428D01*
X45918571Y-43251428D01*
X45823333Y-43203809D01*
X45775714Y-43156190D01*
X45728095Y-43060952D01*
X47585238Y-48077380D02*
X48156666Y-48077380D01*
X47870952Y-48077380D02*
X47870952Y-47077380D01*
X47966190Y-47220238D01*
X48061428Y-47315476D01*
X48156666Y-47363095D01*
X46728095Y-47410714D02*
X46728095Y-48077380D01*
X47156666Y-47410714D02*
X47156666Y-47934523D01*
X47109047Y-48029761D01*
X47013809Y-48077380D01*
X46870952Y-48077380D01*
X46775714Y-48029761D01*
X46728095Y-47982142D01*
X45918571Y-47553571D02*
X46251904Y-47553571D01*
X46251904Y-48077380D02*
X46251904Y-47077380D01*
X45775714Y-47077380D01*
X87495312Y-85460389D02*
X87495312Y-85527732D01*
X87562656Y-85662419D01*
X87630000Y-85729763D01*
X87764687Y-85797106D01*
X87899374Y-85797106D01*
X88000389Y-85763435D01*
X88168748Y-85662419D01*
X88269763Y-85561404D01*
X88370778Y-85393045D01*
X88404450Y-85292030D01*
X88404450Y-85157343D01*
X88337106Y-85022656D01*
X88269763Y-84955312D01*
X88135076Y-84887969D01*
X88067732Y-84887969D01*
X87899374Y-84584923D02*
X87427969Y-84113519D01*
X87023908Y-85123671D01*
X91545778Y-88163984D02*
X91949839Y-87759923D01*
X91747809Y-87961954D02*
X91040702Y-87254847D01*
X91209061Y-87288519D01*
X91343748Y-87288519D01*
X91444763Y-87254847D01*
X90468282Y-88298671D02*
X90939687Y-88770076D01*
X90771328Y-87995625D02*
X91141717Y-88366015D01*
X91175389Y-88467030D01*
X91141717Y-88568045D01*
X91040702Y-88669061D01*
X90939687Y-88702732D01*
X90872343Y-88702732D01*
X89996877Y-88972106D02*
X90232580Y-88736404D01*
X90602969Y-89106793D02*
X89895862Y-88399687D01*
X89559145Y-88736404D01*
X84955312Y-81015389D02*
X84955312Y-81082732D01*
X85022656Y-81217419D01*
X85090000Y-81284763D01*
X85224687Y-81352106D01*
X85359374Y-81352106D01*
X85460389Y-81318435D01*
X85628748Y-81217419D01*
X85729763Y-81116404D01*
X85830778Y-80948045D01*
X85864450Y-80847030D01*
X85864450Y-80712343D01*
X85797106Y-80577656D01*
X85729763Y-80510312D01*
X85595076Y-80442969D01*
X85527732Y-80442969D01*
X84988984Y-79769534D02*
X85123671Y-79904221D01*
X85157343Y-80005236D01*
X85157343Y-80072580D01*
X85123671Y-80240938D01*
X85022656Y-80409297D01*
X84753282Y-80678671D01*
X84652267Y-80712343D01*
X84584923Y-80712343D01*
X84483908Y-80678671D01*
X84349221Y-80543984D01*
X84315549Y-80442969D01*
X84315549Y-80375625D01*
X84349221Y-80274610D01*
X84517580Y-80106251D01*
X84618595Y-80072580D01*
X84685938Y-80072580D01*
X84786954Y-80106251D01*
X84921641Y-80240938D01*
X84955312Y-80341954D01*
X84955312Y-80409297D01*
X84921641Y-80510312D01*
X82655778Y-77368984D02*
X83059839Y-76964923D01*
X82857809Y-77166954D02*
X82150702Y-76459847D01*
X82319061Y-76493519D01*
X82453748Y-76493519D01*
X82554763Y-76459847D01*
X81578282Y-77503671D02*
X82049687Y-77975076D01*
X81881328Y-77200625D02*
X82251717Y-77571015D01*
X82285389Y-77672030D01*
X82251717Y-77773045D01*
X82150702Y-77874061D01*
X82049687Y-77907732D01*
X81982343Y-77907732D01*
X81106877Y-78177106D02*
X81342580Y-77941404D01*
X81712969Y-78311793D02*
X81005862Y-77604687D01*
X80669145Y-77941404D01*
X97528312Y-68188389D02*
X97528312Y-68255732D01*
X97595656Y-68390419D01*
X97663000Y-68457763D01*
X97797687Y-68525106D01*
X97932374Y-68525106D01*
X98033389Y-68491435D01*
X98201748Y-68390419D01*
X98302763Y-68289404D01*
X98403778Y-68121045D01*
X98437450Y-68020030D01*
X98437450Y-67885343D01*
X98370106Y-67750656D01*
X98302763Y-67683312D01*
X98168076Y-67615969D01*
X98100732Y-67615969D01*
X97528312Y-66908862D02*
X97865030Y-67245580D01*
X97561984Y-67615969D01*
X97561984Y-67548625D01*
X97528312Y-67447610D01*
X97359954Y-67279251D01*
X97258938Y-67245580D01*
X97191595Y-67245580D01*
X97090580Y-67279251D01*
X96922221Y-67447610D01*
X96888549Y-67548625D01*
X96888549Y-67615969D01*
X96922221Y-67716984D01*
X97090580Y-67885343D01*
X97191595Y-67919015D01*
X97258938Y-67919015D01*
X95355778Y-64668984D02*
X95759839Y-64264923D01*
X95557809Y-64466954D02*
X94850702Y-63759847D01*
X95019061Y-63793519D01*
X95153748Y-63793519D01*
X95254763Y-63759847D01*
X94278282Y-64803671D02*
X94749687Y-65275076D01*
X94581328Y-64500625D02*
X94951717Y-64871015D01*
X94985389Y-64972030D01*
X94951717Y-65073045D01*
X94850702Y-65174061D01*
X94749687Y-65207732D01*
X94682343Y-65207732D01*
X93806877Y-65477106D02*
X94042580Y-65241404D01*
X94412969Y-65611793D02*
X93705862Y-64904687D01*
X93369145Y-65241404D01*
X102227312Y-70728389D02*
X102227312Y-70795732D01*
X102294656Y-70930419D01*
X102362000Y-70997763D01*
X102496687Y-71065106D01*
X102631374Y-71065106D01*
X102732389Y-71031435D01*
X102900748Y-70930419D01*
X103001763Y-70829404D01*
X103102778Y-70661045D01*
X103136450Y-70560030D01*
X103136450Y-70425343D01*
X103069106Y-70290656D01*
X103001763Y-70223312D01*
X102867076Y-70155969D01*
X102799732Y-70155969D01*
X102025282Y-69718236D02*
X101553877Y-70189641D01*
X102463015Y-69617221D02*
X102126297Y-70290656D01*
X101688564Y-69852923D01*
X106785778Y-72923984D02*
X107189839Y-72519923D01*
X106987809Y-72721954D02*
X106280702Y-72014847D01*
X106449061Y-72048519D01*
X106583748Y-72048519D01*
X106684763Y-72014847D01*
X105708282Y-73058671D02*
X106179687Y-73530076D01*
X106011328Y-72755625D02*
X106381717Y-73126015D01*
X106415389Y-73227030D01*
X106381717Y-73328045D01*
X106280702Y-73429061D01*
X106179687Y-73462732D01*
X106112343Y-73462732D01*
X105236877Y-73732106D02*
X105472580Y-73496404D01*
X105842969Y-73866793D02*
X105135862Y-73159687D01*
X104799145Y-73496404D01*
X92067312Y-80888389D02*
X92067312Y-80955732D01*
X92134656Y-81090419D01*
X92202000Y-81157763D01*
X92336687Y-81225106D01*
X92471374Y-81225106D01*
X92572389Y-81191435D01*
X92740748Y-81090419D01*
X92841763Y-80989404D01*
X92942778Y-80821045D01*
X92976450Y-80720030D01*
X92976450Y-80585343D01*
X92909106Y-80450656D01*
X92841763Y-80383312D01*
X92707076Y-80315969D01*
X92639732Y-80315969D01*
X92471374Y-80012923D02*
X92033641Y-79575190D01*
X91999969Y-80080267D01*
X91898954Y-79979251D01*
X91797938Y-79945580D01*
X91730595Y-79945580D01*
X91629580Y-79979251D01*
X91461221Y-80147610D01*
X91427549Y-80248625D01*
X91427549Y-80315969D01*
X91461221Y-80416984D01*
X91663251Y-80619015D01*
X91764267Y-80652687D01*
X91831610Y-80652687D01*
X96625778Y-83083984D02*
X97029839Y-82679923D01*
X96827809Y-82881954D02*
X96120702Y-82174847D01*
X96289061Y-82208519D01*
X96423748Y-82208519D01*
X96524763Y-82174847D01*
X95548282Y-83218671D02*
X96019687Y-83690076D01*
X95851328Y-82915625D02*
X96221717Y-83286015D01*
X96255389Y-83387030D01*
X96221717Y-83488045D01*
X96120702Y-83589061D01*
X96019687Y-83622732D01*
X95952343Y-83622732D01*
X95076877Y-83892106D02*
X95312580Y-83656404D01*
X95682969Y-84026793D02*
X94975862Y-83319687D01*
X94639145Y-83656404D01*
X92575312Y-73268388D02*
X92575312Y-73335731D01*
X92642656Y-73470418D01*
X92710000Y-73537762D01*
X92844687Y-73605105D01*
X92979374Y-73605105D01*
X93080389Y-73571434D01*
X93248748Y-73470418D01*
X93349763Y-73369403D01*
X93450778Y-73201044D01*
X93484450Y-73100029D01*
X93484450Y-72965342D01*
X93417106Y-72830655D01*
X93349763Y-72763311D01*
X93215076Y-72695968D01*
X93147732Y-72695968D01*
X92878358Y-72426594D02*
X92878358Y-72359250D01*
X92844687Y-72258235D01*
X92676328Y-72089876D01*
X92575312Y-72056205D01*
X92507969Y-72056205D01*
X92406954Y-72089876D01*
X92339610Y-72157220D01*
X92272267Y-72291907D01*
X92272267Y-73100029D01*
X91834534Y-72662296D01*
X90275778Y-69748984D02*
X90679839Y-69344923D01*
X90477809Y-69546954D02*
X89770702Y-68839847D01*
X89939061Y-68873519D01*
X90073748Y-68873519D01*
X90174763Y-68839847D01*
X89198282Y-69883671D02*
X89669687Y-70355076D01*
X89501328Y-69580625D02*
X89871717Y-69951015D01*
X89905389Y-70052030D01*
X89871717Y-70153045D01*
X89770702Y-70254061D01*
X89669687Y-70287732D01*
X89602343Y-70287732D01*
X88726877Y-70557106D02*
X88962580Y-70321404D01*
X89332969Y-70691793D02*
X88625862Y-69984687D01*
X88289145Y-70321404D01*
X97655312Y-75300389D02*
X97655312Y-75367732D01*
X97722656Y-75502419D01*
X97790000Y-75569763D01*
X97924687Y-75637106D01*
X98059374Y-75637106D01*
X98160389Y-75603435D01*
X98328748Y-75502419D01*
X98429763Y-75401404D01*
X98530778Y-75233045D01*
X98564450Y-75132030D01*
X98564450Y-74997343D01*
X98497106Y-74862656D01*
X98429763Y-74795312D01*
X98295076Y-74727969D01*
X98227732Y-74727969D01*
X96914534Y-74694297D02*
X97318595Y-75098358D01*
X97116564Y-74896328D02*
X97823671Y-74189221D01*
X97790000Y-74357580D01*
X97790000Y-74492267D01*
X97823671Y-74593282D01*
X101705778Y-78003984D02*
X102109839Y-77599923D01*
X101907809Y-77801954D02*
X101200702Y-77094847D01*
X101369061Y-77128519D01*
X101503748Y-77128519D01*
X101604763Y-77094847D01*
X100628282Y-78138671D02*
X101099687Y-78610076D01*
X100931328Y-77835625D02*
X101301717Y-78206015D01*
X101335389Y-78307030D01*
X101301717Y-78408045D01*
X101200702Y-78509061D01*
X101099687Y-78542732D01*
X101032343Y-78542732D01*
X100156877Y-78812106D02*
X100392580Y-78576404D01*
X100762969Y-78946793D02*
X100055862Y-78239687D01*
X99719145Y-78576404D01*
X146692857Y-43632380D02*
X147026190Y-43156190D01*
X147264285Y-43632380D02*
X147264285Y-42632380D01*
X146883333Y-42632380D01*
X146788095Y-42680000D01*
X146740476Y-42727619D01*
X146692857Y-42822857D01*
X146692857Y-42965714D01*
X146740476Y-43060952D01*
X146788095Y-43108571D01*
X146883333Y-43156190D01*
X147264285Y-43156190D01*
X146311904Y-42727619D02*
X146264285Y-42680000D01*
X146169047Y-42632380D01*
X145930952Y-42632380D01*
X145835714Y-42680000D01*
X145788095Y-42727619D01*
X145740476Y-42822857D01*
X145740476Y-42918095D01*
X145788095Y-43060952D01*
X146359523Y-43632380D01*
X145740476Y-43632380D01*
X145407142Y-42632380D02*
X144740476Y-42632380D01*
X145169047Y-43632380D01*
X146645238Y-48077380D02*
X147216666Y-48077380D01*
X146930952Y-48077380D02*
X146930952Y-47077380D01*
X147026190Y-47220238D01*
X147121428Y-47315476D01*
X147216666Y-47363095D01*
X146026190Y-47077380D02*
X145930952Y-47077380D01*
X145835714Y-47125000D01*
X145788095Y-47172619D01*
X145740476Y-47267857D01*
X145692857Y-47458333D01*
X145692857Y-47696428D01*
X145740476Y-47886904D01*
X145788095Y-47982142D01*
X145835714Y-48029761D01*
X145930952Y-48077380D01*
X146026190Y-48077380D01*
X146121428Y-48029761D01*
X146169047Y-47982142D01*
X146216666Y-47886904D01*
X146264285Y-47696428D01*
X146264285Y-47458333D01*
X146216666Y-47267857D01*
X146169047Y-47172619D01*
X146121428Y-47125000D01*
X146026190Y-47077380D01*
X145264285Y-48077380D02*
X145264285Y-47077380D01*
X145169047Y-47696428D02*
X144883333Y-48077380D01*
X144883333Y-47410714D02*
X145264285Y-47791666D01*
X150502857Y-43632380D02*
X150836190Y-43156190D01*
X151074285Y-43632380D02*
X151074285Y-42632380D01*
X150693333Y-42632380D01*
X150598095Y-42680000D01*
X150550476Y-42727619D01*
X150502857Y-42822857D01*
X150502857Y-42965714D01*
X150550476Y-43060952D01*
X150598095Y-43108571D01*
X150693333Y-43156190D01*
X151074285Y-43156190D01*
X150121904Y-42727619D02*
X150074285Y-42680000D01*
X149979047Y-42632380D01*
X149740952Y-42632380D01*
X149645714Y-42680000D01*
X149598095Y-42727619D01*
X149550476Y-42822857D01*
X149550476Y-42918095D01*
X149598095Y-43060952D01*
X150169523Y-43632380D01*
X149550476Y-43632380D01*
X148693333Y-42632380D02*
X148883809Y-42632380D01*
X148979047Y-42680000D01*
X149026666Y-42727619D01*
X149121904Y-42870476D01*
X149169523Y-43060952D01*
X149169523Y-43441904D01*
X149121904Y-43537142D01*
X149074285Y-43584761D01*
X148979047Y-43632380D01*
X148788571Y-43632380D01*
X148693333Y-43584761D01*
X148645714Y-43537142D01*
X148598095Y-43441904D01*
X148598095Y-43203809D01*
X148645714Y-43108571D01*
X148693333Y-43060952D01*
X148788571Y-43013333D01*
X148979047Y-43013333D01*
X149074285Y-43060952D01*
X149121904Y-43108571D01*
X149169523Y-43203809D01*
X150455238Y-48077380D02*
X151026666Y-48077380D01*
X150740952Y-48077380D02*
X150740952Y-47077380D01*
X150836190Y-47220238D01*
X150931428Y-47315476D01*
X151026666Y-47363095D01*
X149836190Y-47077380D02*
X149740952Y-47077380D01*
X149645714Y-47125000D01*
X149598095Y-47172619D01*
X149550476Y-47267857D01*
X149502857Y-47458333D01*
X149502857Y-47696428D01*
X149550476Y-47886904D01*
X149598095Y-47982142D01*
X149645714Y-48029761D01*
X149740952Y-48077380D01*
X149836190Y-48077380D01*
X149931428Y-48029761D01*
X149979047Y-47982142D01*
X150026666Y-47886904D01*
X150074285Y-47696428D01*
X150074285Y-47458333D01*
X150026666Y-47267857D01*
X149979047Y-47172619D01*
X149931428Y-47125000D01*
X149836190Y-47077380D01*
X149074285Y-48077380D02*
X149074285Y-47077380D01*
X148979047Y-47696428D02*
X148693333Y-48077380D01*
X148693333Y-47410714D02*
X149074285Y-47791666D01*
X137802857Y-43632380D02*
X138136190Y-43156190D01*
X138374285Y-43632380D02*
X138374285Y-42632380D01*
X137993333Y-42632380D01*
X137898095Y-42680000D01*
X137850476Y-42727619D01*
X137802857Y-42822857D01*
X137802857Y-42965714D01*
X137850476Y-43060952D01*
X137898095Y-43108571D01*
X137993333Y-43156190D01*
X138374285Y-43156190D01*
X137421904Y-42727619D02*
X137374285Y-42680000D01*
X137279047Y-42632380D01*
X137040952Y-42632380D01*
X136945714Y-42680000D01*
X136898095Y-42727619D01*
X136850476Y-42822857D01*
X136850476Y-42918095D01*
X136898095Y-43060952D01*
X137469523Y-43632380D01*
X136850476Y-43632380D01*
X135945714Y-42632380D02*
X136421904Y-42632380D01*
X136469523Y-43108571D01*
X136421904Y-43060952D01*
X136326666Y-43013333D01*
X136088571Y-43013333D01*
X135993333Y-43060952D01*
X135945714Y-43108571D01*
X135898095Y-43203809D01*
X135898095Y-43441904D01*
X135945714Y-43537142D01*
X135993333Y-43584761D01*
X136088571Y-43632380D01*
X136326666Y-43632380D01*
X136421904Y-43584761D01*
X136469523Y-43537142D01*
X137755238Y-48077380D02*
X138326666Y-48077380D01*
X138040952Y-48077380D02*
X138040952Y-47077380D01*
X138136190Y-47220238D01*
X138231428Y-47315476D01*
X138326666Y-47363095D01*
X137136190Y-47077380D02*
X137040952Y-47077380D01*
X136945714Y-47125000D01*
X136898095Y-47172619D01*
X136850476Y-47267857D01*
X136802857Y-47458333D01*
X136802857Y-47696428D01*
X136850476Y-47886904D01*
X136898095Y-47982142D01*
X136945714Y-48029761D01*
X137040952Y-48077380D01*
X137136190Y-48077380D01*
X137231428Y-48029761D01*
X137279047Y-47982142D01*
X137326666Y-47886904D01*
X137374285Y-47696428D01*
X137374285Y-47458333D01*
X137326666Y-47267857D01*
X137279047Y-47172619D01*
X137231428Y-47125000D01*
X137136190Y-47077380D01*
X136374285Y-48077380D02*
X136374285Y-47077380D01*
X136279047Y-47696428D02*
X135993333Y-48077380D01*
X135993333Y-47410714D02*
X136374285Y-47791666D01*
X38742857Y-38552380D02*
X39076190Y-38076190D01*
X39314285Y-38552380D02*
X39314285Y-37552380D01*
X38933333Y-37552380D01*
X38838095Y-37600000D01*
X38790476Y-37647619D01*
X38742857Y-37742857D01*
X38742857Y-37885714D01*
X38790476Y-37980952D01*
X38838095Y-38028571D01*
X38933333Y-38076190D01*
X39314285Y-38076190D01*
X38361904Y-37647619D02*
X38314285Y-37600000D01*
X38219047Y-37552380D01*
X37980952Y-37552380D01*
X37885714Y-37600000D01*
X37838095Y-37647619D01*
X37790476Y-37742857D01*
X37790476Y-37838095D01*
X37838095Y-37980952D01*
X38409523Y-38552380D01*
X37790476Y-38552380D01*
X37457142Y-37552380D02*
X36838095Y-37552380D01*
X37171428Y-37933333D01*
X37028571Y-37933333D01*
X36933333Y-37980952D01*
X36885714Y-38028571D01*
X36838095Y-38123809D01*
X36838095Y-38361904D01*
X36885714Y-38457142D01*
X36933333Y-38504761D01*
X37028571Y-38552380D01*
X37314285Y-38552380D01*
X37409523Y-38504761D01*
X37457142Y-38457142D01*
X38695238Y-34107380D02*
X39266666Y-34107380D01*
X38980952Y-34107380D02*
X38980952Y-33107380D01*
X39076190Y-33250238D01*
X39171428Y-33345476D01*
X39266666Y-33393095D01*
X38076190Y-33107380D02*
X37980952Y-33107380D01*
X37885714Y-33155000D01*
X37838095Y-33202619D01*
X37790476Y-33297857D01*
X37742857Y-33488333D01*
X37742857Y-33726428D01*
X37790476Y-33916904D01*
X37838095Y-34012142D01*
X37885714Y-34059761D01*
X37980952Y-34107380D01*
X38076190Y-34107380D01*
X38171428Y-34059761D01*
X38219047Y-34012142D01*
X38266666Y-33916904D01*
X38314285Y-33726428D01*
X38314285Y-33488333D01*
X38266666Y-33297857D01*
X38219047Y-33202619D01*
X38171428Y-33155000D01*
X38076190Y-33107380D01*
X37314285Y-34107380D02*
X37314285Y-33107380D01*
X37219047Y-33726428D02*
X36933333Y-34107380D01*
X36933333Y-33440714D02*
X37314285Y-33821666D01*
X34932857Y-38552380D02*
X35266190Y-38076190D01*
X35504285Y-38552380D02*
X35504285Y-37552380D01*
X35123333Y-37552380D01*
X35028095Y-37600000D01*
X34980476Y-37647619D01*
X34932857Y-37742857D01*
X34932857Y-37885714D01*
X34980476Y-37980952D01*
X35028095Y-38028571D01*
X35123333Y-38076190D01*
X35504285Y-38076190D01*
X34551904Y-37647619D02*
X34504285Y-37600000D01*
X34409047Y-37552380D01*
X34170952Y-37552380D01*
X34075714Y-37600000D01*
X34028095Y-37647619D01*
X33980476Y-37742857D01*
X33980476Y-37838095D01*
X34028095Y-37980952D01*
X34599523Y-38552380D01*
X33980476Y-38552380D01*
X33599523Y-37647619D02*
X33551904Y-37600000D01*
X33456666Y-37552380D01*
X33218571Y-37552380D01*
X33123333Y-37600000D01*
X33075714Y-37647619D01*
X33028095Y-37742857D01*
X33028095Y-37838095D01*
X33075714Y-37980952D01*
X33647142Y-38552380D01*
X33028095Y-38552380D01*
X34885238Y-34107380D02*
X35456666Y-34107380D01*
X35170952Y-34107380D02*
X35170952Y-33107380D01*
X35266190Y-33250238D01*
X35361428Y-33345476D01*
X35456666Y-33393095D01*
X34266190Y-33107380D02*
X34170952Y-33107380D01*
X34075714Y-33155000D01*
X34028095Y-33202619D01*
X33980476Y-33297857D01*
X33932857Y-33488333D01*
X33932857Y-33726428D01*
X33980476Y-33916904D01*
X34028095Y-34012142D01*
X34075714Y-34059761D01*
X34170952Y-34107380D01*
X34266190Y-34107380D01*
X34361428Y-34059761D01*
X34409047Y-34012142D01*
X34456666Y-33916904D01*
X34504285Y-33726428D01*
X34504285Y-33488333D01*
X34456666Y-33297857D01*
X34409047Y-33202619D01*
X34361428Y-33155000D01*
X34266190Y-33107380D01*
X33504285Y-34107380D02*
X33504285Y-33107380D01*
X33409047Y-33726428D02*
X33123333Y-34107380D01*
X33123333Y-33440714D02*
X33504285Y-33821666D01*
X47632857Y-38552380D02*
X47966190Y-38076190D01*
X48204285Y-38552380D02*
X48204285Y-37552380D01*
X47823333Y-37552380D01*
X47728095Y-37600000D01*
X47680476Y-37647619D01*
X47632857Y-37742857D01*
X47632857Y-37885714D01*
X47680476Y-37980952D01*
X47728095Y-38028571D01*
X47823333Y-38076190D01*
X48204285Y-38076190D01*
X47251904Y-37647619D02*
X47204285Y-37600000D01*
X47109047Y-37552380D01*
X46870952Y-37552380D01*
X46775714Y-37600000D01*
X46728095Y-37647619D01*
X46680476Y-37742857D01*
X46680476Y-37838095D01*
X46728095Y-37980952D01*
X47299523Y-38552380D01*
X46680476Y-38552380D01*
X45728095Y-38552380D02*
X46299523Y-38552380D01*
X46013809Y-38552380D02*
X46013809Y-37552380D01*
X46109047Y-37695238D01*
X46204285Y-37790476D01*
X46299523Y-37838095D01*
X47585238Y-34107380D02*
X48156666Y-34107380D01*
X47870952Y-34107380D02*
X47870952Y-33107380D01*
X47966190Y-33250238D01*
X48061428Y-33345476D01*
X48156666Y-33393095D01*
X46966190Y-33107380D02*
X46870952Y-33107380D01*
X46775714Y-33155000D01*
X46728095Y-33202619D01*
X46680476Y-33297857D01*
X46632857Y-33488333D01*
X46632857Y-33726428D01*
X46680476Y-33916904D01*
X46728095Y-34012142D01*
X46775714Y-34059761D01*
X46870952Y-34107380D01*
X46966190Y-34107380D01*
X47061428Y-34059761D01*
X47109047Y-34012142D01*
X47156666Y-33916904D01*
X47204285Y-33726428D01*
X47204285Y-33488333D01*
X47156666Y-33297857D01*
X47109047Y-33202619D01*
X47061428Y-33155000D01*
X46966190Y-33107380D01*
X46204285Y-34107380D02*
X46204285Y-33107380D01*
X46109047Y-33726428D02*
X45823333Y-34107380D01*
X45823333Y-33440714D02*
X46204285Y-33821666D01*
X85014969Y-88194732D02*
X85587389Y-88093717D01*
X85419030Y-88598793D02*
X86126137Y-87891687D01*
X85856763Y-87622312D01*
X85755748Y-87588641D01*
X85688404Y-87588641D01*
X85587389Y-87622312D01*
X85486374Y-87723328D01*
X85452702Y-87824343D01*
X85452702Y-87891687D01*
X85486374Y-87992702D01*
X85755748Y-88262076D01*
X85014969Y-87386610D02*
X85115984Y-87420282D01*
X85183328Y-87420282D01*
X85284343Y-87386610D01*
X85318015Y-87352938D01*
X85351687Y-87251923D01*
X85351687Y-87184580D01*
X85318015Y-87083564D01*
X85183328Y-86948877D01*
X85082312Y-86915206D01*
X85014969Y-86915206D01*
X84913954Y-86948877D01*
X84880282Y-86982549D01*
X84846610Y-87083564D01*
X84846610Y-87150908D01*
X84880282Y-87251923D01*
X85014969Y-87386610D01*
X85048641Y-87487625D01*
X85048641Y-87554969D01*
X85014969Y-87655984D01*
X84880282Y-87790671D01*
X84779267Y-87824343D01*
X84711923Y-87824343D01*
X84610908Y-87790671D01*
X84476221Y-87655984D01*
X84442549Y-87554969D01*
X84442549Y-87487625D01*
X84476221Y-87386610D01*
X84610908Y-87251923D01*
X84711923Y-87218251D01*
X84779267Y-87218251D01*
X84880282Y-87251923D01*
X89005778Y-90703984D02*
X89409839Y-90299923D01*
X89207809Y-90501954D02*
X88500702Y-89794847D01*
X88669061Y-89828519D01*
X88803748Y-89828519D01*
X88904763Y-89794847D01*
X87860938Y-90434610D02*
X87793595Y-90501954D01*
X87759923Y-90602969D01*
X87759923Y-90670312D01*
X87793595Y-90771328D01*
X87894610Y-90939687D01*
X88062969Y-91108045D01*
X88231328Y-91209061D01*
X88332343Y-91242732D01*
X88399687Y-91242732D01*
X88500702Y-91209061D01*
X88568045Y-91141717D01*
X88601717Y-91040702D01*
X88601717Y-90973358D01*
X88568045Y-90872343D01*
X88467030Y-90703984D01*
X88298671Y-90535625D01*
X88130312Y-90434610D01*
X88029297Y-90400938D01*
X87961954Y-90400938D01*
X87860938Y-90434610D01*
X88029297Y-91680465D02*
X87322190Y-90973358D01*
X87692580Y-91478435D02*
X87759923Y-91949839D01*
X87288519Y-91478435D02*
X87827267Y-91478435D01*
X82347969Y-83622732D02*
X82920389Y-83521717D01*
X82752030Y-84026793D02*
X83459137Y-83319687D01*
X83189763Y-83050312D01*
X83088748Y-83016641D01*
X83021404Y-83016641D01*
X82920389Y-83050312D01*
X82819374Y-83151328D01*
X82785702Y-83252343D01*
X82785702Y-83319687D01*
X82819374Y-83420702D01*
X83088748Y-83690076D01*
X82819374Y-82679923D02*
X82347969Y-82208519D01*
X81943908Y-83218671D01*
X80115778Y-79908984D02*
X80519839Y-79504923D01*
X80317809Y-79706954D02*
X79610702Y-78999847D01*
X79779061Y-79033519D01*
X79913748Y-79033519D01*
X80014763Y-78999847D01*
X78970938Y-79639610D02*
X78903595Y-79706954D01*
X78869923Y-79807969D01*
X78869923Y-79875312D01*
X78903595Y-79976328D01*
X79004610Y-80144687D01*
X79172969Y-80313045D01*
X79341328Y-80414061D01*
X79442343Y-80447732D01*
X79509687Y-80447732D01*
X79610702Y-80414061D01*
X79678045Y-80346717D01*
X79711717Y-80245702D01*
X79711717Y-80178358D01*
X79678045Y-80077343D01*
X79577030Y-79908984D01*
X79408671Y-79740625D01*
X79240312Y-79639610D01*
X79139297Y-79605938D01*
X79071954Y-79605938D01*
X78970938Y-79639610D01*
X79139297Y-80885465D02*
X78432190Y-80178358D01*
X78802580Y-80683435D02*
X78869923Y-81154839D01*
X78398519Y-80683435D02*
X78937267Y-80683435D01*
X94920969Y-70795732D02*
X95493389Y-70694717D01*
X95325030Y-71199793D02*
X96032137Y-70492687D01*
X95762763Y-70223312D01*
X95661748Y-70189641D01*
X95594404Y-70189641D01*
X95493389Y-70223312D01*
X95392374Y-70324328D01*
X95358702Y-70425343D01*
X95358702Y-70492687D01*
X95392374Y-70593702D01*
X95661748Y-70863076D01*
X95021984Y-69482534D02*
X95156671Y-69617221D01*
X95190343Y-69718236D01*
X95190343Y-69785580D01*
X95156671Y-69953938D01*
X95055656Y-70122297D01*
X94786282Y-70391671D01*
X94685267Y-70425343D01*
X94617923Y-70425343D01*
X94516908Y-70391671D01*
X94382221Y-70256984D01*
X94348549Y-70155969D01*
X94348549Y-70088625D01*
X94382221Y-69987610D01*
X94550580Y-69819251D01*
X94651595Y-69785580D01*
X94718938Y-69785580D01*
X94819954Y-69819251D01*
X94954641Y-69953938D01*
X94988312Y-70054954D01*
X94988312Y-70122297D01*
X94954641Y-70223312D01*
X92815778Y-67208984D02*
X93219839Y-66804923D01*
X93017809Y-67006954D02*
X92310702Y-66299847D01*
X92479061Y-66333519D01*
X92613748Y-66333519D01*
X92714763Y-66299847D01*
X91670938Y-66939610D02*
X91603595Y-67006954D01*
X91569923Y-67107969D01*
X91569923Y-67175312D01*
X91603595Y-67276328D01*
X91704610Y-67444687D01*
X91872969Y-67613045D01*
X92041328Y-67714061D01*
X92142343Y-67747732D01*
X92209687Y-67747732D01*
X92310702Y-67714061D01*
X92378045Y-67646717D01*
X92411717Y-67545702D01*
X92411717Y-67478358D01*
X92378045Y-67377343D01*
X92277030Y-67208984D01*
X92108671Y-67040625D01*
X91940312Y-66939610D01*
X91839297Y-66905938D01*
X91771954Y-66905938D01*
X91670938Y-66939610D01*
X91839297Y-68185465D02*
X91132190Y-67478358D01*
X91502580Y-67983435D02*
X91569923Y-68454839D01*
X91098519Y-67983435D02*
X91637267Y-67983435D01*
X100127969Y-72827732D02*
X100700389Y-72726717D01*
X100532030Y-73231793D02*
X101239137Y-72524687D01*
X100969763Y-72255312D01*
X100868748Y-72221641D01*
X100801404Y-72221641D01*
X100700389Y-72255312D01*
X100599374Y-72356328D01*
X100565702Y-72457343D01*
X100565702Y-72524687D01*
X100599374Y-72625702D01*
X100868748Y-72895076D01*
X100195312Y-71480862D02*
X100532030Y-71817580D01*
X100228984Y-72187969D01*
X100228984Y-72120625D01*
X100195312Y-72019610D01*
X100026954Y-71851251D01*
X99925938Y-71817580D01*
X99858595Y-71817580D01*
X99757580Y-71851251D01*
X99589221Y-72019610D01*
X99555549Y-72120625D01*
X99555549Y-72187969D01*
X99589221Y-72288984D01*
X99757580Y-72457343D01*
X99858595Y-72491015D01*
X99925938Y-72491015D01*
X104245778Y-75463984D02*
X104649839Y-75059923D01*
X104447809Y-75261954D02*
X103740702Y-74554847D01*
X103909061Y-74588519D01*
X104043748Y-74588519D01*
X104144763Y-74554847D01*
X103100938Y-75194610D02*
X103033595Y-75261954D01*
X102999923Y-75362969D01*
X102999923Y-75430312D01*
X103033595Y-75531328D01*
X103134610Y-75699687D01*
X103302969Y-75868045D01*
X103471328Y-75969061D01*
X103572343Y-76002732D01*
X103639687Y-76002732D01*
X103740702Y-75969061D01*
X103808045Y-75901717D01*
X103841717Y-75800702D01*
X103841717Y-75733358D01*
X103808045Y-75632343D01*
X103707030Y-75463984D01*
X103538671Y-75295625D01*
X103370312Y-75194610D01*
X103269297Y-75160938D01*
X103201954Y-75160938D01*
X103100938Y-75194610D01*
X103269297Y-76440465D02*
X102562190Y-75733358D01*
X102932580Y-76238435D02*
X102999923Y-76709839D01*
X102528519Y-76238435D02*
X103067267Y-76238435D01*
X89967969Y-83114733D02*
X90540389Y-83013718D01*
X90372030Y-83518794D02*
X91079137Y-82811688D01*
X90809763Y-82542313D01*
X90708748Y-82508642D01*
X90641404Y-82508642D01*
X90540389Y-82542313D01*
X90439374Y-82643329D01*
X90405702Y-82744344D01*
X90405702Y-82811688D01*
X90439374Y-82912703D01*
X90708748Y-83182077D01*
X89833282Y-82037237D02*
X89361877Y-82508642D01*
X90271015Y-81936222D02*
X89934297Y-82609657D01*
X89496564Y-82171924D01*
X94085778Y-85623984D02*
X94489839Y-85219923D01*
X94287809Y-85421954D02*
X93580702Y-84714847D01*
X93749061Y-84748519D01*
X93883748Y-84748519D01*
X93984763Y-84714847D01*
X92940938Y-85354610D02*
X92873595Y-85421954D01*
X92839923Y-85522969D01*
X92839923Y-85590312D01*
X92873595Y-85691328D01*
X92974610Y-85859687D01*
X93142969Y-86028045D01*
X93311328Y-86129061D01*
X93412343Y-86162732D01*
X93479687Y-86162732D01*
X93580702Y-86129061D01*
X93648045Y-86061717D01*
X93681717Y-85960702D01*
X93681717Y-85893358D01*
X93648045Y-85792343D01*
X93547030Y-85623984D01*
X93378671Y-85455625D01*
X93210312Y-85354610D01*
X93109297Y-85320938D01*
X93041954Y-85320938D01*
X92940938Y-85354610D01*
X93109297Y-86600465D02*
X92402190Y-85893358D01*
X92772580Y-86398435D02*
X92839923Y-86869839D01*
X92368519Y-86398435D02*
X92907267Y-86398435D01*
X87427969Y-78542732D02*
X88000389Y-78441717D01*
X87832030Y-78946793D02*
X88539137Y-78239687D01*
X88269763Y-77970312D01*
X88168748Y-77936641D01*
X88101404Y-77936641D01*
X88000389Y-77970312D01*
X87899374Y-78071328D01*
X87865702Y-78172343D01*
X87865702Y-78239687D01*
X87899374Y-78340702D01*
X88168748Y-78610076D01*
X87899374Y-77599923D02*
X87461641Y-77162190D01*
X87427969Y-77667267D01*
X87326954Y-77566251D01*
X87225938Y-77532580D01*
X87158595Y-77532580D01*
X87057580Y-77566251D01*
X86889221Y-77734610D01*
X86855549Y-77835625D01*
X86855549Y-77902969D01*
X86889221Y-78003984D01*
X87091251Y-78206015D01*
X87192267Y-78239687D01*
X87259610Y-78239687D01*
X85195778Y-74828984D02*
X85599839Y-74424923D01*
X85397809Y-74626954D02*
X84690702Y-73919847D01*
X84859061Y-73953519D01*
X84993748Y-73953519D01*
X85094763Y-73919847D01*
X84050938Y-74559610D02*
X83983595Y-74626954D01*
X83949923Y-74727969D01*
X83949923Y-74795312D01*
X83983595Y-74896328D01*
X84084610Y-75064687D01*
X84252969Y-75233045D01*
X84421328Y-75334061D01*
X84522343Y-75367732D01*
X84589687Y-75367732D01*
X84690702Y-75334061D01*
X84758045Y-75266717D01*
X84791717Y-75165702D01*
X84791717Y-75098358D01*
X84758045Y-74997343D01*
X84657030Y-74828984D01*
X84488671Y-74660625D01*
X84320312Y-74559610D01*
X84219297Y-74525938D01*
X84151954Y-74525938D01*
X84050938Y-74559610D01*
X84219297Y-75805465D02*
X83512190Y-75098358D01*
X83882580Y-75603435D02*
X83949923Y-76074839D01*
X83478519Y-75603435D02*
X84017267Y-75603435D01*
X95047969Y-77907732D02*
X95620389Y-77806717D01*
X95452030Y-78311793D02*
X96159137Y-77604687D01*
X95889763Y-77335312D01*
X95788748Y-77301641D01*
X95721404Y-77301641D01*
X95620389Y-77335312D01*
X95519374Y-77436328D01*
X95485702Y-77537343D01*
X95485702Y-77604687D01*
X95519374Y-77705702D01*
X95788748Y-77975076D01*
X95418358Y-76998595D02*
X95418358Y-76931251D01*
X95384687Y-76830236D01*
X95216328Y-76661877D01*
X95115312Y-76628206D01*
X95047969Y-76628206D01*
X94946954Y-76661877D01*
X94879610Y-76729221D01*
X94812267Y-76863908D01*
X94812267Y-77672030D01*
X94374534Y-77234297D01*
X99165778Y-80543984D02*
X99569839Y-80139923D01*
X99367809Y-80341954D02*
X98660702Y-79634847D01*
X98829061Y-79668519D01*
X98963748Y-79668519D01*
X99064763Y-79634847D01*
X98020938Y-80274610D02*
X97953595Y-80341954D01*
X97919923Y-80442969D01*
X97919923Y-80510312D01*
X97953595Y-80611328D01*
X98054610Y-80779687D01*
X98222969Y-80948045D01*
X98391328Y-81049061D01*
X98492343Y-81082732D01*
X98559687Y-81082732D01*
X98660702Y-81049061D01*
X98728045Y-80981717D01*
X98761717Y-80880702D01*
X98761717Y-80813358D01*
X98728045Y-80712343D01*
X98627030Y-80543984D01*
X98458671Y-80375625D01*
X98290312Y-80274610D01*
X98189297Y-80240938D01*
X98121954Y-80240938D01*
X98020938Y-80274610D01*
X98189297Y-81520465D02*
X97482190Y-80813358D01*
X97852580Y-81318435D02*
X97919923Y-81789839D01*
X97448519Y-81318435D02*
X97987267Y-81318435D01*
X118911666Y-34742380D02*
X119245000Y-34266190D01*
X119483095Y-34742380D02*
X119483095Y-33742380D01*
X119102142Y-33742380D01*
X119006904Y-33790000D01*
X118959285Y-33837619D01*
X118911666Y-33932857D01*
X118911666Y-34075714D01*
X118959285Y-34170952D01*
X119006904Y-34218571D01*
X119102142Y-34266190D01*
X119483095Y-34266190D01*
X117959285Y-34742380D02*
X118530714Y-34742380D01*
X118245000Y-34742380D02*
X118245000Y-33742380D01*
X118340238Y-33885238D01*
X118435476Y-33980476D01*
X118530714Y-34028095D01*
X119197380Y-31154761D02*
X119197380Y-30583333D01*
X119197380Y-30869047D02*
X118197380Y-30869047D01*
X118340238Y-30773809D01*
X118435476Y-30678571D01*
X118483095Y-30583333D01*
X118197380Y-31773809D02*
X118197380Y-31869047D01*
X118245000Y-31964285D01*
X118292619Y-32011904D01*
X118387857Y-32059523D01*
X118578333Y-32107142D01*
X118816428Y-32107142D01*
X119006904Y-32059523D01*
X119102142Y-32011904D01*
X119149761Y-31964285D01*
X119197380Y-31869047D01*
X119197380Y-31773809D01*
X119149761Y-31678571D01*
X119102142Y-31630952D01*
X119006904Y-31583333D01*
X118816428Y-31535714D01*
X118578333Y-31535714D01*
X118387857Y-31583333D01*
X118292619Y-31630952D01*
X118245000Y-31678571D01*
X118197380Y-31773809D01*
X119197380Y-32535714D02*
X118197380Y-32535714D01*
X118816428Y-32630952D02*
X119197380Y-32916666D01*
X118530714Y-32916666D02*
X118911666Y-32535714D01*
D14*
X86982904Y-25478619D02*
X86982904Y-26301095D01*
X86934523Y-26397857D01*
X86886142Y-26446238D01*
X86789380Y-26494619D01*
X86595857Y-26494619D01*
X86499095Y-26446238D01*
X86450714Y-26397857D01*
X86402333Y-26301095D01*
X86402333Y-25478619D01*
X85386333Y-26494619D02*
X85966904Y-26494619D01*
X85676619Y-26494619D02*
X85676619Y-25478619D01*
X85773380Y-25623761D01*
X85870142Y-25720523D01*
X85966904Y-25768904D01*
X84757380Y-25478619D02*
X84660619Y-25478619D01*
X84563857Y-25527000D01*
X84515476Y-25575380D01*
X84467095Y-25672142D01*
X84418714Y-25865666D01*
X84418714Y-26107571D01*
X84467095Y-26301095D01*
X84515476Y-26397857D01*
X84563857Y-26446238D01*
X84660619Y-26494619D01*
X84757380Y-26494619D01*
X84854142Y-26446238D01*
X84902523Y-26397857D01*
X84950904Y-26301095D01*
X84999285Y-26107571D01*
X84999285Y-25865666D01*
X84950904Y-25672142D01*
X84902523Y-25575380D01*
X84854142Y-25527000D01*
X84757380Y-25478619D01*
X88289190Y-24589619D02*
X88289190Y-23573619D01*
X87902142Y-23573619D01*
X87805380Y-23622000D01*
X87757000Y-23670380D01*
X87708619Y-23767142D01*
X87708619Y-23912285D01*
X87757000Y-24009047D01*
X87805380Y-24057428D01*
X87902142Y-24105809D01*
X88289190Y-24105809D01*
X87273190Y-24589619D02*
X87273190Y-23912285D01*
X87273190Y-24105809D02*
X87224809Y-24009047D01*
X87176428Y-23960666D01*
X87079666Y-23912285D01*
X86982904Y-23912285D01*
X86499095Y-24589619D02*
X86595857Y-24541238D01*
X86644238Y-24492857D01*
X86692619Y-24396095D01*
X86692619Y-24105809D01*
X86644238Y-24009047D01*
X86595857Y-23960666D01*
X86499095Y-23912285D01*
X86353952Y-23912285D01*
X86257190Y-23960666D01*
X86208809Y-24009047D01*
X86160428Y-24105809D01*
X86160428Y-24396095D01*
X86208809Y-24492857D01*
X86257190Y-24541238D01*
X86353952Y-24589619D01*
X86499095Y-24589619D01*
X85725000Y-24589619D02*
X85725000Y-23573619D01*
X85386333Y-24299333D01*
X85047666Y-23573619D01*
X85047666Y-24589619D01*
X84563857Y-24589619D02*
X84563857Y-23912285D01*
X84563857Y-23573619D02*
X84612238Y-23622000D01*
X84563857Y-23670380D01*
X84515476Y-23622000D01*
X84563857Y-23573619D01*
X84563857Y-23670380D01*
X84080047Y-23912285D02*
X84080047Y-24589619D01*
X84080047Y-24009047D02*
X84031666Y-23960666D01*
X83934904Y-23912285D01*
X83789761Y-23912285D01*
X83693000Y-23960666D01*
X83644619Y-24057428D01*
X83644619Y-24589619D01*
X83160809Y-24589619D02*
X83160809Y-23912285D01*
X83160809Y-23573619D02*
X83209190Y-23622000D01*
X83160809Y-23670380D01*
X83112428Y-23622000D01*
X83160809Y-23573619D01*
X83160809Y-23670380D01*
X102374095Y-24541238D02*
X102228952Y-24589619D01*
X101987047Y-24589619D01*
X101890285Y-24541238D01*
X101841904Y-24492857D01*
X101793523Y-24396095D01*
X101793523Y-24299333D01*
X101841904Y-24202571D01*
X101890285Y-24154190D01*
X101987047Y-24105809D01*
X102180571Y-24057428D01*
X102277333Y-24009047D01*
X102325714Y-23960666D01*
X102374095Y-23863904D01*
X102374095Y-23767142D01*
X102325714Y-23670380D01*
X102277333Y-23622000D01*
X102180571Y-23573619D01*
X101938666Y-23573619D01*
X101793523Y-23622000D01*
X101406476Y-23670380D02*
X101358095Y-23622000D01*
X101261333Y-23573619D01*
X101019428Y-23573619D01*
X100922666Y-23622000D01*
X100874285Y-23670380D01*
X100825904Y-23767142D01*
X100825904Y-23863904D01*
X100874285Y-24009047D01*
X101454857Y-24589619D01*
X100825904Y-24589619D01*
X104019047Y-29923619D02*
X103825523Y-29923619D01*
X103728761Y-29972000D01*
X103632000Y-30068761D01*
X103583619Y-30262285D01*
X103583619Y-30600952D01*
X103632000Y-30794476D01*
X103728761Y-30891238D01*
X103825523Y-30939619D01*
X104019047Y-30939619D01*
X104115809Y-30891238D01*
X104212571Y-30794476D01*
X104260952Y-30600952D01*
X104260952Y-30262285D01*
X104212571Y-30068761D01*
X104115809Y-29972000D01*
X104019047Y-29923619D01*
X103148190Y-30939619D02*
X103148190Y-29923619D01*
X102567619Y-30939619D01*
X102567619Y-29923619D01*
X102325714Y-31036380D02*
X101551619Y-31036380D01*
X101116190Y-29923619D02*
X100922666Y-29923619D01*
X100825904Y-29972000D01*
X100729142Y-30068761D01*
X100680761Y-30262285D01*
X100680761Y-30600952D01*
X100729142Y-30794476D01*
X100825904Y-30891238D01*
X100922666Y-30939619D01*
X101116190Y-30939619D01*
X101212952Y-30891238D01*
X101309714Y-30794476D01*
X101358095Y-30600952D01*
X101358095Y-30262285D01*
X101309714Y-30068761D01*
X101212952Y-29972000D01*
X101116190Y-29923619D01*
X99906666Y-30407428D02*
X100245333Y-30407428D01*
X100245333Y-30939619D02*
X100245333Y-29923619D01*
X99761523Y-29923619D01*
X99035809Y-30407428D02*
X99374476Y-30407428D01*
X99374476Y-30939619D02*
X99374476Y-29923619D01*
X98890666Y-29923619D01*
D10*
X48840571Y-60633428D02*
X48731714Y-60669714D01*
X48550285Y-60669714D01*
X48477714Y-60633428D01*
X48441428Y-60597142D01*
X48405142Y-60524571D01*
X48405142Y-60452000D01*
X48441428Y-60379428D01*
X48477714Y-60343142D01*
X48550285Y-60306857D01*
X48695428Y-60270571D01*
X48768000Y-60234285D01*
X48804285Y-60198000D01*
X48840571Y-60125428D01*
X48840571Y-60052857D01*
X48804285Y-59980285D01*
X48768000Y-59944000D01*
X48695428Y-59907714D01*
X48514000Y-59907714D01*
X48405142Y-59944000D01*
X48151142Y-59907714D02*
X47679428Y-59907714D01*
X47933428Y-60198000D01*
X47824571Y-60198000D01*
X47752000Y-60234285D01*
X47715714Y-60270571D01*
X47679428Y-60343142D01*
X47679428Y-60524571D01*
X47715714Y-60597142D01*
X47752000Y-60633428D01*
X47824571Y-60669714D01*
X48042285Y-60669714D01*
X48114857Y-60633428D01*
X48151142Y-60597142D01*
X49348571Y-66384714D02*
X49348571Y-65622714D01*
X49058285Y-65622714D01*
X48985714Y-65659000D01*
X48949428Y-65695285D01*
X48913142Y-65767857D01*
X48913142Y-65876714D01*
X48949428Y-65949285D01*
X48985714Y-65985571D01*
X49058285Y-66021857D01*
X49348571Y-66021857D01*
X48622857Y-66167000D02*
X48260000Y-66167000D01*
X48695428Y-66384714D02*
X48441428Y-65622714D01*
X48187428Y-66384714D01*
X47933428Y-66384714D02*
X47933428Y-65622714D01*
X47135142Y-66384714D02*
X47389142Y-66021857D01*
X47570571Y-66384714D02*
X47570571Y-65622714D01*
X47280285Y-65622714D01*
X47207714Y-65659000D01*
X47171428Y-65695285D01*
X47135142Y-65767857D01*
X47135142Y-65876714D01*
X47171428Y-65949285D01*
X47207714Y-65985571D01*
X47280285Y-66021857D01*
X47570571Y-66021857D01*
%LPC*%
D15*
X154305000Y-98425000D03*
D16*
X154305000Y-95885000D03*
D17*
X140035000Y-91440000D03*
D18*
X141605000Y-95940000D03*
D17*
X141605000Y-100700000D03*
D18*
X141605000Y-86940000D03*
D17*
X141605000Y-82180000D03*
X150865000Y-91440000D03*
D10*
G36*
X102756953Y-122587563D02*
X104807563Y-120536953D01*
X106504619Y-122234009D01*
X104454009Y-124284619D01*
X102756953Y-122587563D01*
X102756953Y-122587563D01*
G37*
G36*
X105585381Y-125415991D02*
X107635991Y-123365381D01*
X109333047Y-125062437D01*
X107282437Y-127113047D01*
X105585381Y-125415991D01*
X105585381Y-125415991D01*
G37*
G36*
X97676953Y-127667563D02*
X99727563Y-125616953D01*
X101424619Y-127314009D01*
X99374009Y-129364619D01*
X97676953Y-127667563D01*
X97676953Y-127667563D01*
G37*
G36*
X100505381Y-130495991D02*
X102555991Y-128445381D01*
X104253047Y-130142437D01*
X102202437Y-132193047D01*
X100505381Y-130495991D01*
X100505381Y-130495991D01*
G37*
G36*
X106793047Y-127602437D02*
X104742437Y-129653047D01*
X103045381Y-127955991D01*
X105095991Y-125905381D01*
X106793047Y-127602437D01*
X106793047Y-127602437D01*
G37*
G36*
X103964619Y-124774009D02*
X101914009Y-126824619D01*
X100216953Y-125127563D01*
X102267563Y-123076953D01*
X103964619Y-124774009D01*
X103964619Y-124774009D01*
G37*
G36*
X101713047Y-132682437D02*
X99662437Y-134733047D01*
X97965381Y-133035991D01*
X100015991Y-130985381D01*
X101713047Y-132682437D01*
X101713047Y-132682437D01*
G37*
G36*
X98884619Y-129854009D02*
X96834009Y-131904619D01*
X95136953Y-130207563D01*
X97187563Y-128156953D01*
X98884619Y-129854009D01*
X98884619Y-129854009D01*
G37*
G36*
X92596953Y-132747563D02*
X94647563Y-130696953D01*
X96344619Y-132394009D01*
X94294009Y-134444619D01*
X92596953Y-132747563D01*
X92596953Y-132747563D01*
G37*
G36*
X95425381Y-135575991D02*
X97475991Y-133525381D01*
X99173047Y-135222437D01*
X97122437Y-137273047D01*
X95425381Y-135575991D01*
X95425381Y-135575991D01*
G37*
G36*
X96633047Y-137762437D02*
X94582437Y-139813047D01*
X92885381Y-138115991D01*
X94935991Y-136065381D01*
X96633047Y-137762437D01*
X96633047Y-137762437D01*
G37*
G36*
X93804619Y-134934009D02*
X91754009Y-136984619D01*
X90056953Y-135287563D01*
X92107563Y-133236953D01*
X93804619Y-134934009D01*
X93804619Y-134934009D01*
G37*
G36*
X94093047Y-140302437D02*
X92042437Y-142353047D01*
X90345381Y-140655991D01*
X92395991Y-138605381D01*
X94093047Y-140302437D01*
X94093047Y-140302437D01*
G37*
G36*
X91264619Y-137474009D02*
X89214009Y-139524619D01*
X87516953Y-137827563D01*
X89567563Y-135776953D01*
X91264619Y-137474009D01*
X91264619Y-137474009D01*
G37*
G36*
X87743047Y-126967437D02*
X85692437Y-129018047D01*
X83995381Y-127320991D01*
X86045991Y-125270381D01*
X87743047Y-126967437D01*
X87743047Y-126967437D01*
G37*
G36*
X84914619Y-124139009D02*
X82864009Y-126189619D01*
X81166953Y-124492563D01*
X83217563Y-122441953D01*
X84914619Y-124139009D01*
X84914619Y-124139009D01*
G37*
G36*
X76086953Y-129572563D02*
X78137563Y-127521953D01*
X79834619Y-129219009D01*
X77784009Y-131269619D01*
X76086953Y-129572563D01*
X76086953Y-129572563D01*
G37*
G36*
X78915381Y-132400991D02*
X80965991Y-130350381D01*
X82663047Y-132047437D01*
X80612437Y-134098047D01*
X78915381Y-132400991D01*
X78915381Y-132400991D01*
G37*
G36*
X84976953Y-140367563D02*
X87027563Y-138316953D01*
X88724619Y-140014009D01*
X86674009Y-142064619D01*
X84976953Y-140367563D01*
X84976953Y-140367563D01*
G37*
G36*
X87805381Y-143195991D02*
X89855991Y-141145381D01*
X91553047Y-142842437D01*
X89502437Y-144893047D01*
X87805381Y-143195991D01*
X87805381Y-143195991D01*
G37*
G36*
X85203047Y-129507437D02*
X83152437Y-131558047D01*
X81455381Y-129860991D01*
X83505991Y-127810381D01*
X85203047Y-129507437D01*
X85203047Y-129507437D01*
G37*
G36*
X82374619Y-126679009D02*
X80324009Y-128729619D01*
X78626953Y-127032563D01*
X80677563Y-124981953D01*
X82374619Y-126679009D01*
X82374619Y-126679009D01*
G37*
G36*
X95363047Y-119347437D02*
X93312437Y-121398047D01*
X91615381Y-119700991D01*
X93665991Y-117650381D01*
X95363047Y-119347437D01*
X95363047Y-119347437D01*
G37*
G36*
X92534619Y-116519009D02*
X90484009Y-118569619D01*
X88786953Y-116872563D01*
X90837563Y-114821953D01*
X92534619Y-116519009D01*
X92534619Y-116519009D01*
G37*
G36*
X91326953Y-114332563D02*
X93377563Y-112281953D01*
X95074619Y-113979009D01*
X93024009Y-116029619D01*
X91326953Y-114332563D01*
X91326953Y-114332563D01*
G37*
G36*
X94155381Y-117160991D02*
X96205991Y-115110381D01*
X97903047Y-116807437D01*
X95852437Y-118858047D01*
X94155381Y-117160991D01*
X94155381Y-117160991D01*
G37*
G36*
X86246953Y-119412563D02*
X88297563Y-117361953D01*
X89994619Y-119059009D01*
X87944009Y-121109619D01*
X86246953Y-119412563D01*
X86246953Y-119412563D01*
G37*
G36*
X89075381Y-122240991D02*
X91125991Y-120190381D01*
X92823047Y-121887437D01*
X90772437Y-123938047D01*
X89075381Y-122240991D01*
X89075381Y-122240991D01*
G37*
D19*
X38100000Y-82455000D03*
X38100000Y-86455000D03*
X46990000Y-82455000D03*
X46990000Y-86455000D03*
X38100000Y-96425000D03*
X38100000Y-100425000D03*
X34290000Y-82455000D03*
X34290000Y-86455000D03*
X46990000Y-96425000D03*
X46990000Y-100425000D03*
X34290000Y-96425000D03*
X34290000Y-100425000D03*
X149860000Y-100425000D03*
X149860000Y-96425000D03*
X146050000Y-100425000D03*
X146050000Y-96425000D03*
X149860000Y-86455000D03*
X149860000Y-82455000D03*
X137160000Y-100425000D03*
X137160000Y-96425000D03*
X137160000Y-86455000D03*
X137160000Y-82455000D03*
X146050000Y-86455000D03*
X146050000Y-82455000D03*
D17*
X44115000Y-91440000D03*
D18*
X42545000Y-86940000D03*
D17*
X42545000Y-82180000D03*
D18*
X42545000Y-95940000D03*
D17*
X42545000Y-100700000D03*
X33285000Y-91440000D03*
D15*
X29845000Y-98425000D03*
D16*
X29845000Y-95885000D03*
D15*
X29845000Y-84455000D03*
D16*
X29845000Y-86995000D03*
D15*
X41275000Y-78740000D03*
D16*
X43815000Y-78740000D03*
D15*
X41275000Y-104140000D03*
D16*
X43815000Y-104140000D03*
D15*
X154305000Y-84455000D03*
D16*
X154305000Y-86995000D03*
D15*
X140335000Y-104140000D03*
D16*
X142875000Y-104140000D03*
D15*
X142875000Y-78740000D03*
D16*
X140335000Y-78740000D03*
D10*
G36*
X79266040Y-121361378D02*
X80985724Y-123081062D01*
X79266040Y-124800746D01*
X77546356Y-123081062D01*
X79266040Y-121361378D01*
X79266040Y-121361378D01*
G37*
D20*
X77469989Y-121285011D02*
X77469989Y-121285011D01*
D21*
X93185158Y-129380158D03*
D22*
X81468398Y-117663398D03*
D21*
X85527191Y-134817809D03*
D22*
X102681602Y-138876602D03*
D21*
X98622809Y-121722191D03*
D22*
X81468398Y-138876602D03*
X102681602Y-117663398D03*
D18*
X88893019Y-131451981D03*
X95256981Y-125088019D03*
D21*
X76971199Y-136019890D03*
X85527191Y-121722191D03*
X88468755Y-112119681D03*
X95681245Y-144420319D03*
X108154608Y-131522691D03*
X107178801Y-120520110D03*
D10*
G36*
X98425000Y-142689684D02*
X96705316Y-140970000D01*
X98425000Y-139250316D01*
X100144684Y-140970000D01*
X98425000Y-142689684D01*
X98425000Y-142689684D01*
G37*
D20*
X100221051Y-142766051D02*
X100221051Y-142766051D01*
D10*
G36*
X86360000Y-113850316D02*
X88079684Y-115570000D01*
X86360000Y-117289684D01*
X84640316Y-115570000D01*
X86360000Y-113850316D01*
X86360000Y-113850316D01*
G37*
D20*
X84563949Y-113773949D02*
X84563949Y-113773949D01*
D10*
G36*
X104883949Y-136448633D02*
X103164265Y-134728949D01*
X104883949Y-133009265D01*
X106603633Y-134728949D01*
X104883949Y-136448633D01*
X104883949Y-136448633D01*
G37*
D20*
X106680000Y-136525000D02*
X106680000Y-136525000D01*
D10*
G36*
X97263949Y-114749684D02*
X95544265Y-113030000D01*
X97263949Y-111310316D01*
X98983633Y-113030000D01*
X97263949Y-114749684D01*
X97263949Y-114749684D01*
G37*
D20*
X99060000Y-114826051D02*
X99060000Y-114826051D01*
D21*
X93185158Y-78580158D03*
D22*
X81468398Y-66863398D03*
D21*
X85527191Y-84017809D03*
D22*
X102681602Y-88076602D03*
D21*
X98622809Y-70922191D03*
D22*
X81468398Y-88076602D03*
X102681602Y-66863398D03*
D18*
X88893019Y-80651981D03*
X95256981Y-74288019D03*
D21*
X76971199Y-85219890D03*
X85527191Y-70922191D03*
X88468755Y-61319681D03*
X95681245Y-93620319D03*
X108154608Y-80722691D03*
X107178801Y-69720110D03*
D23*
X66675000Y-29210000D03*
X66675000Y-31750000D03*
X66675000Y-34290000D03*
X66675000Y-36830000D03*
X66675000Y-39370000D03*
D24*
X66675000Y-41910000D03*
D23*
X66675000Y-44450000D03*
X66675000Y-46990000D03*
X66675000Y-49530000D03*
X66675000Y-52070000D03*
D25*
X66675000Y-55245000D03*
X117475000Y-55245000D03*
X117475000Y-26035000D03*
X66675000Y-26035000D03*
D26*
X109855000Y-67310000D03*
X109855000Y-64770000D03*
X109855000Y-62230000D03*
X109855000Y-59690000D03*
X109855000Y-57150000D03*
X109855000Y-54610000D03*
X109855000Y-52070000D03*
X109855000Y-49530000D03*
X109855000Y-46990000D03*
X109855000Y-44450000D03*
X109855000Y-41910000D03*
X109855000Y-39370000D03*
X130175000Y-29210000D03*
X130175000Y-31750000D03*
X130175000Y-34290000D03*
X130175000Y-36830000D03*
X130175000Y-39370000D03*
X130175000Y-41910000D03*
X130175000Y-44450000D03*
X130175000Y-46990000D03*
X130175000Y-49530000D03*
X130175000Y-52070000D03*
X130175000Y-54610000D03*
X130175000Y-57150000D03*
X130175000Y-59690000D03*
X130175000Y-62230000D03*
X130175000Y-64770000D03*
X130175000Y-67310000D03*
D25*
X111125000Y-25400000D03*
X128905000Y-25400000D03*
D27*
X112395000Y-67310000D03*
X112395000Y-64770000D03*
X112395000Y-62230000D03*
X112395000Y-59690000D03*
X112395000Y-57150000D03*
X112395000Y-54610000D03*
X112395000Y-52070000D03*
X112395000Y-49530000D03*
X112395000Y-46990000D03*
X112395000Y-44450000D03*
X112395000Y-41910000D03*
X112395000Y-39370000D03*
X127635000Y-29210000D03*
X127635000Y-31750000D03*
X127635000Y-34290000D03*
X127635000Y-36830000D03*
X127635000Y-39370000D03*
X127635000Y-41910000D03*
X127635000Y-44450000D03*
X127635000Y-46990000D03*
X127635000Y-49530000D03*
X127635000Y-52070000D03*
X127635000Y-54610000D03*
X127635000Y-57150000D03*
X127635000Y-59690000D03*
X127635000Y-62230000D03*
X127635000Y-64770000D03*
X127635000Y-67310000D03*
D25*
X111125000Y-71120000D03*
X128905000Y-71120000D03*
D28*
X138150600Y-56235600D03*
X138150600Y-64414400D03*
X133629400Y-64414400D03*
X133629400Y-56235600D03*
D26*
X74295000Y-28575000D03*
X74295000Y-31115000D03*
X74295000Y-33655000D03*
X74295000Y-36195000D03*
X74295000Y-38735000D03*
X74295000Y-41275000D03*
X74295000Y-43815000D03*
X74295000Y-46355000D03*
X74295000Y-48895000D03*
X74295000Y-51435000D03*
X74295000Y-53975000D03*
X74295000Y-56515000D03*
D29*
X70485000Y-60960000D03*
X67945000Y-60960000D03*
X65405000Y-60960000D03*
X62865000Y-60960000D03*
X60325000Y-60960000D03*
X57785000Y-60960000D03*
D26*
X53975000Y-56515000D03*
X53975000Y-53975000D03*
X53975000Y-51435000D03*
X53975000Y-48895000D03*
X53975000Y-46355000D03*
X53975000Y-43815000D03*
X53975000Y-41275000D03*
X53975000Y-38735000D03*
X53975000Y-36195000D03*
X53975000Y-33655000D03*
X53975000Y-31115000D03*
X53975000Y-28575000D03*
D25*
X73660000Y-60325000D03*
X54610000Y-60325000D03*
X54610000Y-24765000D03*
X73660000Y-24765000D03*
D30*
X71755000Y-28575000D03*
X71755000Y-31115000D03*
X71755000Y-33655000D03*
X71755000Y-36195000D03*
X71755000Y-38735000D03*
X71755000Y-41275000D03*
X71755000Y-43815000D03*
X71755000Y-46355000D03*
X71755000Y-48895000D03*
X71755000Y-51435000D03*
X71755000Y-53975000D03*
X71755000Y-56515000D03*
X56515000Y-56515000D03*
X56515000Y-53975000D03*
X56515000Y-51435000D03*
X56515000Y-48895000D03*
X56515000Y-46355000D03*
X56515000Y-43815000D03*
X56515000Y-41275000D03*
X56515000Y-38735000D03*
X56515000Y-36195000D03*
X56515000Y-33655000D03*
D31*
X56515000Y-31115000D03*
X56515000Y-28575000D03*
D25*
X73025000Y-71120000D03*
X55245000Y-71120000D03*
X142875000Y-60325000D03*
X41275000Y-60325000D03*
D19*
X146050000Y-35655000D03*
X146050000Y-31655000D03*
X149860000Y-35655000D03*
X149860000Y-31655000D03*
X137160000Y-35655000D03*
X137160000Y-31655000D03*
X38100000Y-45625000D03*
X38100000Y-49625000D03*
X34290000Y-45625000D03*
X34290000Y-49625000D03*
X46990000Y-45625000D03*
X46990000Y-49625000D03*
D10*
G36*
X94093047Y-89502437D02*
X92042437Y-91553047D01*
X90345381Y-89855991D01*
X92395991Y-87805381D01*
X94093047Y-89502437D01*
X94093047Y-89502437D01*
G37*
G36*
X91264619Y-86674009D02*
X89214009Y-88724619D01*
X87516953Y-87027563D01*
X89567563Y-84976953D01*
X91264619Y-86674009D01*
X91264619Y-86674009D01*
G37*
G36*
X85203047Y-78707437D02*
X83152437Y-80758047D01*
X81455381Y-79060991D01*
X83505991Y-77010381D01*
X85203047Y-78707437D01*
X85203047Y-78707437D01*
G37*
G36*
X82374619Y-75879009D02*
X80324009Y-77929619D01*
X78626953Y-76232563D01*
X80677563Y-74181953D01*
X82374619Y-75879009D01*
X82374619Y-75879009D01*
G37*
G36*
X91326953Y-63532563D02*
X93377563Y-61481953D01*
X95074619Y-63179009D01*
X93024009Y-65229619D01*
X91326953Y-63532563D01*
X91326953Y-63532563D01*
G37*
G36*
X94155381Y-66360991D02*
X96205991Y-64310381D01*
X97903047Y-66007437D01*
X95852437Y-68058047D01*
X94155381Y-66360991D01*
X94155381Y-66360991D01*
G37*
G36*
X102756953Y-71787563D02*
X104807563Y-69736953D01*
X106504619Y-71434009D01*
X104454009Y-73484619D01*
X102756953Y-71787563D01*
X102756953Y-71787563D01*
G37*
G36*
X105585381Y-74615991D02*
X107635991Y-72565381D01*
X109333047Y-74262437D01*
X107282437Y-76313047D01*
X105585381Y-74615991D01*
X105585381Y-74615991D01*
G37*
G36*
X92596953Y-81947563D02*
X94647563Y-79896953D01*
X96344619Y-81594009D01*
X94294009Y-83644619D01*
X92596953Y-81947563D01*
X92596953Y-81947563D01*
G37*
G36*
X95425381Y-84775991D02*
X97475991Y-82725381D01*
X99173047Y-84422437D01*
X97122437Y-86473047D01*
X95425381Y-84775991D01*
X95425381Y-84775991D01*
G37*
G36*
X86246953Y-68612563D02*
X88297563Y-66561953D01*
X89994619Y-68259009D01*
X87944009Y-70309619D01*
X86246953Y-68612563D01*
X86246953Y-68612563D01*
G37*
G36*
X89075381Y-71440991D02*
X91125991Y-69390381D01*
X92823047Y-71087437D01*
X90772437Y-73138047D01*
X89075381Y-71440991D01*
X89075381Y-71440991D01*
G37*
G36*
X97676953Y-76867563D02*
X99727563Y-74816953D01*
X101424619Y-76514009D01*
X99374009Y-78564619D01*
X97676953Y-76867563D01*
X97676953Y-76867563D01*
G37*
G36*
X100505381Y-79695991D02*
X102555991Y-77645381D01*
X104253047Y-79342437D01*
X102202437Y-81393047D01*
X100505381Y-79695991D01*
X100505381Y-79695991D01*
G37*
D19*
X146050000Y-49625000D03*
X146050000Y-45625000D03*
X149860000Y-49625000D03*
X149860000Y-45625000D03*
X137160000Y-49625000D03*
X137160000Y-45625000D03*
X38100000Y-31655000D03*
X38100000Y-35655000D03*
X34290000Y-31655000D03*
X34290000Y-35655000D03*
X46990000Y-31655000D03*
X46990000Y-35655000D03*
D10*
G36*
X84976953Y-89567563D02*
X87027563Y-87516953D01*
X88724619Y-89214009D01*
X86674009Y-91264619D01*
X84976953Y-89567563D01*
X84976953Y-89567563D01*
G37*
G36*
X87805381Y-92395991D02*
X89855991Y-90345381D01*
X91553047Y-92042437D01*
X89502437Y-94093047D01*
X87805381Y-92395991D01*
X87805381Y-92395991D01*
G37*
G36*
X76086953Y-78772563D02*
X78137563Y-76721953D01*
X79834619Y-78419009D01*
X77784009Y-80469619D01*
X76086953Y-78772563D01*
X76086953Y-78772563D01*
G37*
G36*
X78915381Y-81600991D02*
X80965991Y-79550381D01*
X82663047Y-81247437D01*
X80612437Y-83298047D01*
X78915381Y-81600991D01*
X78915381Y-81600991D01*
G37*
G36*
X95363047Y-68547437D02*
X93312437Y-70598047D01*
X91615381Y-68900991D01*
X93665991Y-66850381D01*
X95363047Y-68547437D01*
X95363047Y-68547437D01*
G37*
G36*
X92534619Y-65719009D02*
X90484009Y-67769619D01*
X88786953Y-66072563D01*
X90837563Y-64021953D01*
X92534619Y-65719009D01*
X92534619Y-65719009D01*
G37*
G36*
X106793047Y-76802437D02*
X104742437Y-78853047D01*
X103045381Y-77155991D01*
X105095991Y-75105381D01*
X106793047Y-76802437D01*
X106793047Y-76802437D01*
G37*
G36*
X103964619Y-73974009D02*
X101914009Y-76024619D01*
X100216953Y-74327563D01*
X102267563Y-72276953D01*
X103964619Y-73974009D01*
X103964619Y-73974009D01*
G37*
G36*
X96633047Y-86962437D02*
X94582437Y-89013047D01*
X92885381Y-87315991D01*
X94935991Y-85265381D01*
X96633047Y-86962437D01*
X96633047Y-86962437D01*
G37*
G36*
X93804619Y-84134009D02*
X91754009Y-86184619D01*
X90056953Y-84487563D01*
X92107563Y-82436953D01*
X93804619Y-84134009D01*
X93804619Y-84134009D01*
G37*
G36*
X87743047Y-76167437D02*
X85692437Y-78218047D01*
X83995381Y-76520991D01*
X86045991Y-74470381D01*
X87743047Y-76167437D01*
X87743047Y-76167437D01*
G37*
G36*
X84914619Y-73339009D02*
X82864009Y-75389619D01*
X81166953Y-73692563D01*
X83217563Y-71641953D01*
X84914619Y-73339009D01*
X84914619Y-73339009D01*
G37*
G36*
X101713047Y-81882437D02*
X99662437Y-83933047D01*
X97965381Y-82235991D01*
X100015991Y-80185381D01*
X101713047Y-81882437D01*
X101713047Y-81882437D01*
G37*
G36*
X98884619Y-79054009D02*
X96834009Y-81104619D01*
X95136953Y-79407563D01*
X97187563Y-77356953D01*
X98884619Y-79054009D01*
X98884619Y-79054009D01*
G37*
D32*
X120745000Y-31750000D03*
X116745000Y-31750000D03*
D17*
X44115000Y-40640000D03*
D18*
X42545000Y-36140000D03*
D17*
X42545000Y-31380000D03*
D18*
X42545000Y-45140000D03*
D17*
X42545000Y-49900000D03*
X33285000Y-40640000D03*
X140035000Y-40640000D03*
D18*
X141605000Y-45140000D03*
D17*
X141605000Y-49900000D03*
D18*
X141605000Y-36140000D03*
D17*
X141605000Y-31380000D03*
X150865000Y-40640000D03*
D26*
X93345000Y-24130000D03*
X93345000Y-26670000D03*
X93345000Y-29210000D03*
X93345000Y-31750000D03*
X93345000Y-34290000D03*
X93345000Y-36830000D03*
X93345000Y-39370000D03*
X93345000Y-41910000D03*
X93345000Y-44450000D03*
X93345000Y-46990000D03*
X93345000Y-49530000D03*
X93345000Y-52070000D03*
D30*
X92075000Y-54610000D03*
X89535000Y-54610000D03*
X86995000Y-54610000D03*
X84455000Y-54610000D03*
X81915000Y-54610000D03*
X79375000Y-54610000D03*
D26*
X78105000Y-52069999D03*
X78105000Y-49530000D03*
X78105000Y-46990000D03*
X78105000Y-44450000D03*
X78105000Y-41910000D03*
X78105000Y-39370000D03*
X78105000Y-36830000D03*
X78105000Y-34290000D03*
X78105000Y-31750000D03*
X78105000Y-29210000D03*
X78105000Y-26670000D03*
X78105000Y-24130000D03*
D30*
X90805000Y-24130000D03*
X90805000Y-26670000D03*
X90805000Y-29210000D03*
X90805000Y-31750000D03*
X90805000Y-34290000D03*
X90805000Y-36830000D03*
X90805000Y-39370000D03*
X90805000Y-41910000D03*
X90805000Y-44450000D03*
X90805000Y-46990000D03*
X90805000Y-49530000D03*
X95885000Y-52070000D03*
X94615000Y-54610000D03*
X89535000Y-52070000D03*
X86995000Y-52070000D03*
X84455000Y-52070000D03*
X81915000Y-52070000D03*
X80645000Y-49530000D03*
X78105000Y-57785000D03*
X77470000Y-59690000D03*
X80645000Y-46990000D03*
X80645000Y-44450000D03*
X80645000Y-41910000D03*
X80645000Y-39370000D03*
X80645000Y-36830000D03*
X80645000Y-34290000D03*
X80645000Y-31750000D03*
X80645000Y-29210000D03*
D31*
X80645000Y-26670000D03*
X80645000Y-24130000D03*
D18*
X98950000Y-26035000D03*
X104250000Y-26035000D03*
D28*
X50520600Y-56235600D03*
X50520600Y-64414400D03*
X45999400Y-64414400D03*
X45999400Y-56235600D03*
D10*
G36*
X104883949Y-85648633D02*
X103164265Y-83928949D01*
X104883949Y-82209265D01*
X106603633Y-83928949D01*
X104883949Y-85648633D01*
X104883949Y-85648633D01*
G37*
D20*
X106680000Y-85725000D02*
X106680000Y-85725000D01*
D10*
G36*
X98425000Y-91889684D02*
X96705316Y-90170000D01*
X98425000Y-88450316D01*
X100144684Y-90170000D01*
X98425000Y-91889684D01*
X98425000Y-91889684D01*
G37*
D20*
X100221051Y-91966051D02*
X100221051Y-91966051D01*
D10*
G36*
X86360000Y-63050316D02*
X88079684Y-64770000D01*
X86360000Y-66489684D01*
X84640316Y-64770000D01*
X86360000Y-63050316D01*
X86360000Y-63050316D01*
G37*
D20*
X84563949Y-62973949D02*
X84563949Y-62973949D01*
D10*
G36*
X79266040Y-70561378D02*
X80985724Y-72281062D01*
X79266040Y-74000746D01*
X77546356Y-72281062D01*
X79266040Y-70561378D01*
X79266040Y-70561378D01*
G37*
D20*
X77469989Y-70485011D02*
X77469989Y-70485011D01*
D15*
X29845000Y-47625000D03*
D16*
X29845000Y-45085000D03*
D15*
X41275000Y-27940000D03*
D16*
X43815000Y-27940000D03*
D15*
X41275000Y-53340000D03*
D16*
X43815000Y-53340000D03*
D15*
X29845000Y-33655000D03*
D16*
X29845000Y-36195000D03*
D15*
X154305000Y-33655000D03*
D16*
X154305000Y-36195000D03*
D15*
X142875000Y-27940000D03*
D16*
X140335000Y-27940000D03*
D15*
X154305000Y-47625000D03*
D16*
X154305000Y-45085000D03*
D15*
X142875000Y-53340000D03*
D16*
X140335000Y-53340000D03*
D10*
G36*
X97263949Y-63949684D02*
X95544265Y-62230000D01*
X97263949Y-60510316D01*
X98983633Y-62230000D01*
X97263949Y-63949684D01*
X97263949Y-63949684D01*
G37*
D20*
X99060000Y-64026051D02*
X99060000Y-64026051D01*
M02*
