M48
INCH,TZ
T1C0.020
T2C0.040
T3C0.051
T4C0.055
T5C0.063
T6C0.157
T7C0.120
%
G90
G05
T1
X003750Y026250
X005250Y026250
X006750Y015500
X008750Y026250
X013000Y025000
X013500Y012500
X014000Y015000
X014500Y012500
X015500Y012500
X018000Y011400
X020250Y024000
X020250Y008000
X021750Y009000
X023500Y008250
X023500Y006250
X024000Y003500
X024250Y006500
X024750Y025750
X024750Y024750
X024750Y023750
X024750Y022750
X024750Y021750
X026500Y011250
X027000Y004000
X027500Y009750
X027920Y002500
X028500Y016250
X029000Y006000
X029275Y011500
X030000Y020750
X030025Y016250
X030250Y023750
X030250Y023250
X030250Y022750
X030250Y021750
X031000Y019750
X031000Y008000
X031250Y024750
X031750Y023750
X031750Y023250
X031750Y022750
X032000Y020750
X037250Y019250
X038500Y022750
X038500Y021750
X038500Y020750
X039000Y025250
X042500Y013750
X043250Y017750
X045500Y016000
X047750Y016000
X048750Y016000
T2
X011500Y026500
X011500Y025500
X011500Y024500
X011500Y023500
X011500Y022500
X011500Y021500
X011500Y020500
X011500Y019500
X011500Y018500
X011500Y017500
X011500Y016500
X011500Y015500
X012500Y026500
X012500Y025500
X012500Y024500
X012500Y023500
X012500Y022500
X012500Y021500
X012500Y020500
X012500Y019500
X012500Y018500
X012500Y017500
X012500Y016500
X012500Y015500
X013000Y013750
X014000Y013750
X015000Y013750
X016000Y013750
X016500Y026250
X016500Y025250
X016500Y024250
X016500Y023250
X016500Y022250
X016500Y021250
X016500Y020250
X016500Y019250
X016500Y018250
X016500Y017250
X017000Y013750
X018000Y013750
X018500Y026500
X018500Y025500
X018500Y024500
X018500Y023500
X018500Y022500
X018500Y021500
X018500Y020500
X018500Y019500
X018500Y018500
X018500Y017500
X018500Y016500
X018500Y015500
X019500Y026500
X019500Y025500
X019500Y024500
X019500Y023500
X019500Y022500
X019500Y021500
X019500Y020500
X019500Y019500
X019500Y018500
X019500Y017500
X019500Y016500
X019500Y015500
X020750Y014250
X021000Y028250
X021000Y027250
X021000Y026250
X021000Y025250
X021000Y024250
X021000Y023250
X021000Y022250
X021000Y021250
X021000Y020250
X021000Y019250
X021000Y018250
X021000Y017250
X021000Y015000
X021500Y016250
X022000Y028250
X022000Y027250
X022000Y026250
X022000Y025250
X022000Y024250
X022000Y023250
X022000Y022250
X022000Y021250
X022000Y020250
X022000Y019250
X022000Y018250
X022500Y017250
X022500Y016250
X023500Y017250
X023500Y016250
X024500Y017250
X024500Y016250
X025500Y017250
X025500Y016250
X026000Y028250
X026000Y027250
X026000Y026250
X026000Y025250
X026000Y024250
X026000Y023250
X026000Y022250
X026000Y021250
X026000Y020250
X026000Y019250
X026000Y018250
X026500Y016250
X027000Y028250
X027000Y027250
X027000Y026250
X027000Y025250
X027000Y024250
X027000Y023250
X027000Y022250
X027000Y021250
X027000Y020250
X027000Y019250
X027000Y018250
X027000Y017250
X027500Y016250
X028000Y017250
X033500Y022250
X033500Y021250
X033500Y020250
X033500Y019250
X033500Y018250
X033500Y017250
X033500Y016250
X033500Y015250
X033500Y014250
X033500Y013250
X033500Y012250
X033500Y011250
X034500Y022250
X034500Y021250
X034500Y020250
X034500Y019250
X034500Y018250
X034500Y017250
X034500Y016250
X034500Y015250
X034500Y014250
X034500Y013250
X034500Y012250
X034500Y011250
X040500Y026250
X040500Y025250
X040500Y024250
X040500Y023250
X040500Y022250
X040500Y021250
X040500Y020250
X040500Y019250
X040500Y018250
X040500Y017250
X040500Y016250
X040500Y015250
X040500Y014250
X040500Y013250
X040500Y012250
X040500Y011250
X041500Y026250
X041500Y025250
X041500Y024250
X041500Y023250
X041500Y022250
X041500Y021250
X041500Y020250
X041500Y019250
X041500Y018250
X041500Y017250
X041500Y016250
X041500Y015250
X041500Y014250
X041500Y013250
X041500Y012250
X041500Y011250
T3
X003354Y021750
X007000Y025396
X007000Y018104
X007618Y021750
X045382Y021750
X046000Y025396
X046000Y018104
X049646Y021750
T4
X020554Y004199
X023922Y009828
X023922Y004672
X025080Y013608
X026937Y006813
X027920Y000892
X029078Y009828
X032446Y010301
X032831Y005969
T5
X007000Y023522
X007000Y019978
X025247Y005997
X027753Y008503
X029207Y027500
X031293Y027500
X046000Y023522
X046000Y019978
T6
X022324Y011426
X022324Y003074
X030676Y011426
X030676Y003074
T7
X006500Y014000
X011750Y028000
X011750Y014000
X012000Y009750
X016500Y027500
X016500Y016000
X019000Y009750
X019250Y028000
X019250Y014000
X034000Y027750
X034000Y009750
X036500Y027500
X036500Y016000
X041000Y027750
X041000Y009750
X046500Y014000
T0
M30
