G04 #@! TF.FileFunction,Soldermask,Top*
%FSLAX46Y46*%
G04 Gerber Fmt 4.6, Leading zero omitted, Abs format (unit mm)*
G04 Created by KiCad (PCBNEW 4.0.2-4+6225~38~ubuntu15.10.1-stable) date Fri Apr  1 21:39:14 2016*
%MOMM*%
G01*
G04 APERTURE LIST*
%ADD10C,0.101600*%
%ADD11O,2.813000X1.797000*%
%ADD12O,2.432000X1.797000*%
%ADD13C,4.572000*%
%ADD14O,2.432000X1.924000*%
%ADD15C,1.924000*%
%ADD16O,1.924000X2.432000*%
%ADD17O,1.924000X1.924000*%
%ADD18O,1.797000X1.797000*%
%ADD19C,2.800000*%
%ADD20C,5.400000*%
%ADD21C,3.000000*%
%ADD22C,2.700000*%
%ADD23C,1.052400*%
%ADD24R,1.052400X0.552400*%
%ADD25R,1.052400X1.052400*%
G04 APERTURE END LIST*
D10*
D11*
X41910000Y66675000D03*
X41910000Y64135000D03*
X41910000Y61595000D03*
X41910000Y59055000D03*
X41910000Y56515000D03*
D12*
X41910000Y53975000D03*
D11*
X41910000Y51435000D03*
X41910000Y48895000D03*
X41910000Y46355000D03*
X41910000Y43815000D03*
D13*
X41910000Y40640000D03*
X92710000Y40640000D03*
X92710000Y69850000D03*
X41910000Y69850000D03*
D14*
X85090000Y28575000D03*
X85090000Y31115000D03*
X85090000Y33655000D03*
X85090000Y36195000D03*
X85090000Y38735000D03*
X85090000Y41275000D03*
X85090000Y43815000D03*
X85090000Y46355000D03*
X85090000Y48895000D03*
X85090000Y51435000D03*
X85090000Y53975000D03*
X85090000Y56515000D03*
X105410000Y66675000D03*
X105410000Y64135000D03*
X105410000Y61595000D03*
X105410000Y59055000D03*
X105410000Y56515000D03*
X105410000Y53975000D03*
X105410000Y51435000D03*
X105410000Y48895000D03*
X105410000Y46355000D03*
X105410000Y43815000D03*
X105410000Y41275000D03*
X105410000Y38735000D03*
X105410000Y36195000D03*
X105410000Y33655000D03*
X105410000Y31115000D03*
X105410000Y28575000D03*
D13*
X86360000Y70485000D03*
X104140000Y70485000D03*
D15*
X87630000Y28575000D03*
X87630000Y31115000D03*
X87630000Y33655000D03*
X87630000Y36195000D03*
X87630000Y38735000D03*
X87630000Y41275000D03*
X87630000Y43815000D03*
X87630000Y46355000D03*
X87630000Y48895000D03*
X87630000Y51435000D03*
X87630000Y53975000D03*
X87630000Y56515000D03*
X102870000Y66675000D03*
X102870000Y64135000D03*
X102870000Y61595000D03*
X102870000Y59055000D03*
X102870000Y56515000D03*
X102870000Y53975000D03*
X102870000Y51435000D03*
X102870000Y48895000D03*
X102870000Y46355000D03*
X102870000Y43815000D03*
X102870000Y41275000D03*
X102870000Y38735000D03*
X102870000Y36195000D03*
X102870000Y33655000D03*
X102870000Y31115000D03*
X102870000Y28575000D03*
D13*
X86360000Y24765000D03*
X104140000Y24765000D03*
D14*
X49530000Y67310000D03*
X49530000Y64770000D03*
X49530000Y62230000D03*
X49530000Y59690000D03*
X49530000Y57150000D03*
X49530000Y54610000D03*
X49530000Y52070000D03*
X49530000Y49530000D03*
X49530000Y46990000D03*
X49530000Y44450000D03*
X49530000Y41910000D03*
X49530000Y39370000D03*
D16*
X45720000Y34925000D03*
X43180000Y34925000D03*
X40640000Y34925000D03*
X38100000Y34925000D03*
X35560000Y34925000D03*
X33020000Y34925000D03*
D14*
X29210000Y39370000D03*
X29210000Y41910000D03*
X29210000Y44450000D03*
X29210000Y46990000D03*
X29210000Y49530000D03*
X29210000Y52070000D03*
X29210000Y54610000D03*
X29210000Y57150000D03*
X29210000Y59690000D03*
X29210000Y62230000D03*
X29210000Y64770000D03*
X29210000Y67310000D03*
D13*
X48895000Y35560000D03*
X29845000Y35560000D03*
X29845000Y71120000D03*
X48895000Y71120000D03*
D17*
X46990000Y67310000D03*
X46990000Y64770000D03*
X46990000Y62230000D03*
X46990000Y59690000D03*
X46990000Y57150000D03*
X46990000Y54610000D03*
X46990000Y52070000D03*
X46990000Y49530000D03*
X46990000Y46990000D03*
X46990000Y44450000D03*
X46990000Y41910000D03*
X46990000Y39370000D03*
X31750000Y39370000D03*
X31750000Y41910000D03*
X31750000Y44450000D03*
X31750000Y46990000D03*
X31750000Y49530000D03*
X31750000Y52070000D03*
X31750000Y54610000D03*
X31750000Y57150000D03*
X31750000Y59690000D03*
X31750000Y62230000D03*
D18*
X31750000Y64770000D03*
X31750000Y67310000D03*
D13*
X48260000Y24765000D03*
X30480000Y24765000D03*
X118110000Y35560000D03*
X16510000Y35560000D03*
D19*
X68420158Y17304842D03*
D20*
X56703398Y29021602D03*
D19*
X60762191Y11867191D03*
D20*
X77916602Y7808398D03*
D19*
X73857809Y24962809D03*
D20*
X56703398Y7808398D03*
X77916602Y29021602D03*
D21*
X64128019Y15233019D03*
X70491981Y21596981D03*
D19*
X52206199Y10665110D03*
X60762191Y24962809D03*
X63703755Y34565319D03*
X70916245Y2264681D03*
X83389608Y15162309D03*
X82413801Y26164890D03*
D22*
X19350000Y55245000D03*
D21*
X17780000Y59745000D03*
D22*
X17780000Y64505000D03*
D21*
X17780000Y50745000D03*
D22*
X17780000Y45985000D03*
X8520000Y55245000D03*
X115270000Y55245000D03*
D21*
X116840000Y50745000D03*
D22*
X116840000Y45985000D03*
D21*
X116840000Y59745000D03*
D22*
X116840000Y64505000D03*
X126100000Y55245000D03*
D14*
X68580000Y71755000D03*
X68580000Y69215000D03*
X68580000Y66675000D03*
X68580000Y64135000D03*
X68580000Y61595000D03*
X68580000Y59055000D03*
X68580000Y56515000D03*
X68580000Y53975000D03*
X68580000Y51435000D03*
X68580000Y48895000D03*
X68580000Y46355000D03*
X68580000Y43815000D03*
D16*
X67310000Y41275000D03*
X64770000Y41275000D03*
X62230000Y41275000D03*
X59690000Y41275000D03*
X57150000Y41275000D03*
X54610000Y41275000D03*
D14*
X53340000Y43815001D03*
X53340000Y46355000D03*
X53340000Y48895000D03*
X53340000Y51435000D03*
X53340000Y53975000D03*
X53340000Y56515000D03*
X53340000Y59055000D03*
X53340000Y61595000D03*
X53340000Y64135000D03*
X53340000Y66675000D03*
X53340000Y69215000D03*
X53340000Y71755000D03*
D17*
X66040000Y71755000D03*
X66040000Y69215000D03*
X66040000Y66675000D03*
X66040000Y64135000D03*
X66040000Y61595000D03*
X66040000Y59055000D03*
X66040000Y56515000D03*
X66040000Y53975000D03*
X66040000Y51435000D03*
X66040000Y48895000D03*
X66040000Y46355000D03*
X71120000Y43815000D03*
X69850000Y41275000D03*
X64770000Y43815000D03*
X62230000Y43815000D03*
X59690000Y43815000D03*
X57150000Y43815000D03*
X55880000Y46355000D03*
X53340000Y38100000D03*
X52705000Y36195000D03*
X55880000Y48895000D03*
X55880000Y51435000D03*
X55880000Y53975000D03*
X55880000Y56515000D03*
X55880000Y59055000D03*
X55880000Y61595000D03*
X55880000Y64135000D03*
X55880000Y66675000D03*
D18*
X55880000Y69215000D03*
X55880000Y71755000D03*
D21*
X74185000Y69850000D03*
X79485000Y69850000D03*
D23*
X97155000Y50045000D03*
D24*
X97155000Y47995000D03*
X97155000Y49795000D03*
D23*
X97155000Y47745000D03*
D25*
X97155000Y48895000D03*
M02*
