%TF.GenerationSoftware,KiCad,Pcbnew,4.1.0-alpha+201609021633+7109~49~ubuntu16.04.1-product*%
%TF.CreationDate,2016-09-14T14:47:56+05:30*%
%TF.ProjectId,OTS2,4F5453322E6B696361645F7063620000,rev?*%
%TF.FileFunction,Soldermask,Top*%
%FSLAX46Y46*%
G04 Gerber Fmt 4.6, Leading zero omitted, Abs format (unit mm)*
G04 Created by KiCad (PCBNEW 4.1.0-alpha+201609021633+7109~49~ubuntu16.04.1-product) date Wed Sep 14 14:47:56 2016*
%MOMM*%
%LPD*%
G01*
G04 APERTURE LIST*
%ADD10C,0.101600*%
%ADD11R,2.432000X2.432000*%
%ADD12O,2.432000X2.432000*%
%ADD13C,2.700000*%
%ADD14C,3.000000*%
%ADD15C,2.432000*%
%ADD16C,2.800000*%
%ADD17C,5.400000*%
%ADD18R,3.702000X1.670000*%
%ADD19O,2.813000X1.797000*%
%ADD20O,2.432000X1.797000*%
%ADD21C,4.572000*%
%ADD22O,2.432000X1.924000*%
%ADD23C,1.924000*%
%ADD24O,1.924000X2.432000*%
%ADD25O,1.924000X1.924000*%
%ADD26O,1.797000X1.797000*%
%ADD27C,1.052400*%
%ADD28R,1.052400X0.552400*%
%ADD29R,1.052400X1.052400*%
G04 APERTURE END LIST*
D10*
D11*
X154305000Y-98425000D03*
D12*
X154305000Y-95885000D03*
D13*
X140035000Y-91440000D03*
D14*
X141605000Y-95940000D03*
D13*
X141605000Y-100700000D03*
D14*
X141605000Y-86940000D03*
D13*
X141605000Y-82180000D03*
X150865000Y-91440000D03*
X44115000Y-91440000D03*
D14*
X42545000Y-86940000D03*
D13*
X42545000Y-82180000D03*
D14*
X42545000Y-95940000D03*
D13*
X42545000Y-100700000D03*
X33285000Y-91440000D03*
D11*
X29845000Y-98425000D03*
D12*
X29845000Y-95885000D03*
D11*
X29845000Y-84455000D03*
D12*
X29845000Y-86995000D03*
D11*
X41275000Y-78740000D03*
D12*
X43815000Y-78740000D03*
D11*
X41275000Y-104140000D03*
D12*
X43815000Y-104140000D03*
D11*
X154305000Y-84455000D03*
D12*
X154305000Y-86995000D03*
D11*
X140335000Y-104140000D03*
D12*
X142875000Y-104140000D03*
D11*
X142875000Y-78740000D03*
D12*
X140335000Y-78740000D03*
D10*
G36*
X79266040Y-121361378D02*
X80985724Y-123081062D01*
X79266040Y-124800746D01*
X77546356Y-123081062D01*
X79266040Y-121361378D01*
X79266040Y-121361378D01*
G37*
D15*
X77469989Y-121285011D02*
X77469989Y-121285011D01*
D16*
X93185158Y-129380158D03*
D17*
X81468398Y-117663398D03*
D16*
X85527191Y-134817809D03*
D17*
X102681602Y-138876602D03*
D16*
X98622809Y-121722191D03*
D17*
X81468398Y-138876602D03*
X102681602Y-117663398D03*
D14*
X88893019Y-131451981D03*
X95256981Y-125088019D03*
D16*
X76971199Y-136019890D03*
X85527191Y-121722191D03*
X88468755Y-112119681D03*
X95681245Y-144420319D03*
X108154608Y-131522691D03*
X107178801Y-120520110D03*
D10*
G36*
X98425000Y-142689684D02*
X96705316Y-140970000D01*
X98425000Y-139250316D01*
X100144684Y-140970000D01*
X98425000Y-142689684D01*
X98425000Y-142689684D01*
G37*
D15*
X100221051Y-142766051D02*
X100221051Y-142766051D01*
D10*
G36*
X86360000Y-113850316D02*
X88079684Y-115570000D01*
X86360000Y-117289684D01*
X84640316Y-115570000D01*
X86360000Y-113850316D01*
X86360000Y-113850316D01*
G37*
D15*
X84563949Y-113773949D02*
X84563949Y-113773949D01*
D10*
G36*
X104883949Y-136448633D02*
X103164265Y-134728949D01*
X104883949Y-133009265D01*
X106603633Y-134728949D01*
X104883949Y-136448633D01*
X104883949Y-136448633D01*
G37*
D15*
X106680000Y-136525000D02*
X106680000Y-136525000D01*
D10*
G36*
X97263949Y-114749684D02*
X95544265Y-113030000D01*
X97263949Y-111310316D01*
X98983633Y-113030000D01*
X97263949Y-114749684D01*
X97263949Y-114749684D01*
G37*
D15*
X99060000Y-114826051D02*
X99060000Y-114826051D01*
D16*
X93185158Y-78580158D03*
D17*
X81468398Y-66863398D03*
D16*
X85527191Y-84017809D03*
D17*
X102681602Y-88076602D03*
D16*
X98622809Y-70922191D03*
D17*
X81468398Y-88076602D03*
X102681602Y-66863398D03*
D14*
X88893019Y-80651981D03*
X95256981Y-74288019D03*
D16*
X76971199Y-85219890D03*
X85527191Y-70922191D03*
X88468755Y-61319681D03*
X95681245Y-93620319D03*
X108154608Y-80722691D03*
X107178801Y-69720110D03*
D18*
X123952000Y-73660000D03*
X123952000Y-71120000D03*
X116078000Y-71120000D03*
X116078000Y-73660000D03*
D19*
X66675000Y-29210000D03*
X66675000Y-31750000D03*
X66675000Y-34290000D03*
X66675000Y-36830000D03*
X66675000Y-39370000D03*
D20*
X66675000Y-41910000D03*
D19*
X66675000Y-44450000D03*
X66675000Y-46990000D03*
X66675000Y-49530000D03*
X66675000Y-52070000D03*
D21*
X66675000Y-55245000D03*
X117475000Y-55245000D03*
X117475000Y-26035000D03*
X66675000Y-26035000D03*
D22*
X109855000Y-67310000D03*
X109855000Y-64770000D03*
X109855000Y-62230000D03*
X109855000Y-59690000D03*
X109855000Y-57150000D03*
X109855000Y-54610000D03*
X109855000Y-52070000D03*
X109855000Y-49530000D03*
X109855000Y-46990000D03*
X109855000Y-44450000D03*
X109855000Y-41910000D03*
X109855000Y-39370000D03*
X130175000Y-29210000D03*
X130175000Y-31750000D03*
X130175000Y-34290000D03*
X130175000Y-36830000D03*
X130175000Y-39370000D03*
X130175000Y-41910000D03*
X130175000Y-44450000D03*
X130175000Y-46990000D03*
X130175000Y-49530000D03*
X130175000Y-52070000D03*
X130175000Y-54610000D03*
X130175000Y-57150000D03*
X130175000Y-59690000D03*
X130175000Y-62230000D03*
X130175000Y-64770000D03*
X130175000Y-67310000D03*
D21*
X111125000Y-25400000D03*
X128905000Y-25400000D03*
D23*
X112395000Y-67310000D03*
X112395000Y-64770000D03*
X112395000Y-62230000D03*
X112395000Y-59690000D03*
X112395000Y-57150000D03*
X112395000Y-54610000D03*
X112395000Y-52070000D03*
X112395000Y-49530000D03*
X112395000Y-46990000D03*
X112395000Y-44450000D03*
X112395000Y-41910000D03*
X112395000Y-39370000D03*
X127635000Y-29210000D03*
X127635000Y-31750000D03*
X127635000Y-34290000D03*
X127635000Y-36830000D03*
X127635000Y-39370000D03*
X127635000Y-41910000D03*
X127635000Y-44450000D03*
X127635000Y-46990000D03*
X127635000Y-49530000D03*
X127635000Y-52070000D03*
X127635000Y-54610000D03*
X127635000Y-57150000D03*
X127635000Y-59690000D03*
X127635000Y-62230000D03*
X127635000Y-64770000D03*
X127635000Y-67310000D03*
D21*
X111125000Y-71120000D03*
X128905000Y-71120000D03*
D22*
X74295000Y-28575000D03*
X74295000Y-31115000D03*
X74295000Y-33655000D03*
X74295000Y-36195000D03*
X74295000Y-38735000D03*
X74295000Y-41275000D03*
X74295000Y-43815000D03*
X74295000Y-46355000D03*
X74295000Y-48895000D03*
X74295000Y-51435000D03*
X74295000Y-53975000D03*
X74295000Y-56515000D03*
D24*
X70485000Y-60960000D03*
X67945000Y-60960000D03*
X65405000Y-60960000D03*
X62865000Y-60960000D03*
X60325000Y-60960000D03*
X57785000Y-60960000D03*
D22*
X53975000Y-56515000D03*
X53975000Y-53975000D03*
X53975000Y-51435000D03*
X53975000Y-48895000D03*
X53975000Y-46355000D03*
X53975000Y-43815000D03*
X53975000Y-41275000D03*
X53975000Y-38735000D03*
X53975000Y-36195000D03*
X53975000Y-33655000D03*
X53975000Y-31115000D03*
X53975000Y-28575000D03*
D21*
X73660000Y-60325000D03*
X54610000Y-60325000D03*
X54610000Y-24765000D03*
X73660000Y-24765000D03*
D25*
X71755000Y-28575000D03*
X71755000Y-31115000D03*
X71755000Y-33655000D03*
X71755000Y-36195000D03*
X71755000Y-38735000D03*
X71755000Y-41275000D03*
X71755000Y-43815000D03*
X71755000Y-46355000D03*
X71755000Y-48895000D03*
X71755000Y-51435000D03*
X71755000Y-53975000D03*
X71755000Y-56515000D03*
X56515000Y-56515000D03*
X56515000Y-53975000D03*
X56515000Y-51435000D03*
X56515000Y-48895000D03*
X56515000Y-46355000D03*
X56515000Y-43815000D03*
X56515000Y-41275000D03*
X56515000Y-38735000D03*
X56515000Y-36195000D03*
X56515000Y-33655000D03*
D26*
X56515000Y-31115000D03*
X56515000Y-28575000D03*
D21*
X73025000Y-71120000D03*
X55245000Y-71120000D03*
X142875000Y-60325000D03*
X41275000Y-60325000D03*
D13*
X44115000Y-40640000D03*
D14*
X42545000Y-36140000D03*
D13*
X42545000Y-31380000D03*
D14*
X42545000Y-45140000D03*
D13*
X42545000Y-49900000D03*
X33285000Y-40640000D03*
X140035000Y-40640000D03*
D14*
X141605000Y-45140000D03*
D13*
X141605000Y-49900000D03*
D14*
X141605000Y-36140000D03*
D13*
X141605000Y-31380000D03*
X150865000Y-40640000D03*
D22*
X93345000Y-24130000D03*
X93345000Y-26670000D03*
X93345000Y-29210000D03*
X93345000Y-31750000D03*
X93345000Y-34290000D03*
X93345000Y-36830000D03*
X93345000Y-39370000D03*
X93345000Y-41910000D03*
X93345000Y-44450000D03*
X93345000Y-46990000D03*
X93345000Y-49530000D03*
X93345000Y-52070000D03*
D25*
X92075000Y-54610000D03*
X89535000Y-54610000D03*
X86995000Y-54610000D03*
X84455000Y-54610000D03*
X81915000Y-54610000D03*
X79375000Y-54610000D03*
D22*
X78105000Y-52069999D03*
X78105000Y-49530000D03*
X78105000Y-46990000D03*
X78105000Y-44450000D03*
X78105000Y-41910000D03*
X78105000Y-39370000D03*
X78105000Y-36830000D03*
X78105000Y-34290000D03*
X78105000Y-31750000D03*
X78105000Y-29210000D03*
X78105000Y-26670000D03*
X78105000Y-24130000D03*
D25*
X90805000Y-24130000D03*
X90805000Y-26670000D03*
X90805000Y-29210000D03*
X90805000Y-31750000D03*
X90805000Y-34290000D03*
X90805000Y-36830000D03*
X90805000Y-39370000D03*
X90805000Y-41910000D03*
X90805000Y-44450000D03*
X90805000Y-46990000D03*
X90805000Y-49530000D03*
X95885000Y-52070000D03*
X94615000Y-54610000D03*
X89535000Y-52070000D03*
X86995000Y-52070000D03*
X84455000Y-52070000D03*
X81915000Y-52070000D03*
X80645000Y-49530000D03*
X78105000Y-57785000D03*
X77470000Y-59690000D03*
X80645000Y-46990000D03*
X80645000Y-44450000D03*
X80645000Y-41910000D03*
X80645000Y-39370000D03*
X80645000Y-36830000D03*
X80645000Y-34290000D03*
X80645000Y-31750000D03*
X80645000Y-29210000D03*
D26*
X80645000Y-26670000D03*
X80645000Y-24130000D03*
D14*
X98950000Y-26035000D03*
X104250000Y-26035000D03*
D27*
X121920000Y-45840000D03*
D28*
X121920000Y-47890000D03*
X121920000Y-46090000D03*
D27*
X121920000Y-48140000D03*
D29*
X121920000Y-46990000D03*
D10*
G36*
X104883949Y-85648633D02*
X103164265Y-83928949D01*
X104883949Y-82209265D01*
X106603633Y-83928949D01*
X104883949Y-85648633D01*
X104883949Y-85648633D01*
G37*
D15*
X106680000Y-85725000D02*
X106680000Y-85725000D01*
D10*
G36*
X98425000Y-91889684D02*
X96705316Y-90170000D01*
X98425000Y-88450316D01*
X100144684Y-90170000D01*
X98425000Y-91889684D01*
X98425000Y-91889684D01*
G37*
D15*
X100221051Y-91966051D02*
X100221051Y-91966051D01*
D10*
G36*
X86360000Y-63050316D02*
X88079684Y-64770000D01*
X86360000Y-66489684D01*
X84640316Y-64770000D01*
X86360000Y-63050316D01*
X86360000Y-63050316D01*
G37*
D15*
X84563949Y-62973949D02*
X84563949Y-62973949D01*
D10*
G36*
X79266040Y-70561378D02*
X80985724Y-72281062D01*
X79266040Y-74000746D01*
X77546356Y-72281062D01*
X79266040Y-70561378D01*
X79266040Y-70561378D01*
G37*
D15*
X77469989Y-70485011D02*
X77469989Y-70485011D01*
D11*
X29845000Y-47625000D03*
D12*
X29845000Y-45085000D03*
D11*
X41275000Y-27940000D03*
D12*
X43815000Y-27940000D03*
D11*
X41275000Y-53340000D03*
D12*
X43815000Y-53340000D03*
D11*
X29845000Y-33655000D03*
D12*
X29845000Y-36195000D03*
D11*
X154305000Y-33655000D03*
D12*
X154305000Y-36195000D03*
D11*
X142875000Y-27940000D03*
D12*
X140335000Y-27940000D03*
D11*
X154305000Y-47625000D03*
D12*
X154305000Y-45085000D03*
D11*
X142875000Y-53340000D03*
D12*
X140335000Y-53340000D03*
D10*
G36*
X97263949Y-63949684D02*
X95544265Y-62230000D01*
X97263949Y-60510316D01*
X98983633Y-62230000D01*
X97263949Y-63949684D01*
X97263949Y-63949684D01*
G37*
D15*
X99060000Y-64026051D02*
X99060000Y-64026051D01*
M02*
