G04 #@! TF.FileFunction,Legend,Bot*
%FSLAX46Y46*%
G04 Gerber Fmt 4.6, Leading zero omitted, Abs format (unit mm)*
G04 Created by KiCad (PCBNEW 4.0.2-4+6225~38~ubuntu15.04.1-stable) date Fri Apr 22 16:44:49 2016*
%MOMM*%
G01*
G04 APERTURE LIST*
%ADD10C,0.101600*%
%ADD11C,0.010000*%
%ADD12C,0.150000*%
%ADD13C,0.127000*%
%ADD14C,0.152400*%
%ADD15O,2.813000X1.797000*%
%ADD16O,2.432000X1.797000*%
%ADD17C,4.572000*%
%ADD18O,2.432000X1.924000*%
%ADD19C,1.924000*%
%ADD20R,1.924000X2.178000*%
%ADD21O,1.924000X2.432000*%
%ADD22O,1.924000X1.924000*%
%ADD23O,1.797000X1.797000*%
%ADD24R,2.900000X2.400000*%
%ADD25R,2.400000X2.900000*%
%ADD26C,2.800000*%
%ADD27C,5.400000*%
%ADD28C,3.000000*%
%ADD29C,2.700000*%
G04 APERTURE END LIST*
D10*
D11*
G36*
X86878640Y49272308D02*
X85434783Y49123396D01*
X84301686Y48818836D01*
X83271758Y48344462D01*
X80393681Y46378473D01*
X78107776Y43895214D01*
X76953441Y41977964D01*
X76341918Y40602495D01*
X75985410Y39354981D01*
X75820230Y37909340D01*
X75782606Y35983333D01*
X75826256Y34045903D01*
X75990769Y32643952D01*
X76337915Y31468361D01*
X76929466Y30210008D01*
X76940481Y30188988D01*
X78757745Y27519758D01*
X81075994Y25353312D01*
X83754629Y23759027D01*
X86653052Y22806281D01*
X89630666Y22564453D01*
X91764075Y22874323D01*
X94884239Y24079469D01*
X97620953Y26002229D01*
X99874717Y28562583D01*
X100859519Y30188988D01*
X101454423Y31448293D01*
X101804027Y32618051D01*
X101969800Y34006968D01*
X102013209Y35923750D01*
X102013233Y35952882D01*
X100314563Y35952882D01*
X99965980Y33133611D01*
X99033559Y30534219D01*
X97709489Y28564321D01*
X96374331Y27319387D01*
X94723097Y26115826D01*
X93129168Y25216650D01*
X92710000Y25042638D01*
X91224530Y24745665D01*
X89261579Y24674214D01*
X87154137Y24808900D01*
X85235192Y25130336D01*
X83968310Y25551586D01*
X81923512Y26903995D01*
X80035320Y28789652D01*
X78595950Y30906065D01*
X78389364Y31326667D01*
X77902233Y32858098D01*
X77600340Y34748070D01*
X77495194Y36719597D01*
X77598302Y38495695D01*
X77921174Y39799379D01*
X78028791Y40005000D01*
X78422052Y40601275D01*
X78518344Y40477355D01*
X78491479Y40005000D01*
X78497252Y38307640D01*
X78877532Y37077458D01*
X79737806Y35978845D01*
X79765769Y35950769D01*
X81277256Y34951329D01*
X82937477Y34654524D01*
X84563866Y34983831D01*
X85973859Y35862729D01*
X86984891Y37214697D01*
X87389687Y38862627D01*
X85247946Y38862627D01*
X84863439Y37648836D01*
X84075309Y36958284D01*
X82935712Y36783294D01*
X81747765Y37102435D01*
X80814587Y37894278D01*
X80785775Y37937115D01*
X80319653Y38816608D01*
X80376005Y39539197D01*
X80683389Y40159615D01*
X81568055Y41014281D01*
X82330940Y41275000D01*
X78951666Y41275000D01*
X78740000Y41063333D01*
X78528333Y41275000D01*
X78740000Y41486667D01*
X78951666Y41275000D01*
X82330940Y41275000D01*
X82819558Y41441987D01*
X84080191Y41364185D01*
X84694320Y41040383D01*
X85198319Y40135379D01*
X85247946Y38862627D01*
X87389687Y38862627D01*
X87414395Y38963210D01*
X87418333Y39158333D01*
X87050855Y40931283D01*
X86070907Y42328832D01*
X84662216Y43263523D01*
X83008513Y43647901D01*
X81293525Y43394507D01*
X80012967Y42683368D01*
X79248641Y42098879D01*
X79027255Y42033851D01*
X79228233Y42481825D01*
X79315784Y42646021D01*
X80237587Y43832692D01*
X81673551Y45111104D01*
X83347585Y46269114D01*
X84983596Y47094578D01*
X85214768Y47178690D01*
X88174239Y47767854D01*
X91088680Y47566867D01*
X93832467Y46628402D01*
X96279975Y45005130D01*
X98305578Y42749722D01*
X99156239Y41333358D01*
X100053314Y38762606D01*
X100314563Y35952882D01*
X102013233Y35952882D01*
X102013259Y35983333D01*
X101949227Y38148367D01*
X101722624Y39770871D01*
X101285499Y41147188D01*
X101114396Y41538485D01*
X99512589Y44152979D01*
X97342741Y46456245D01*
X94855786Y48181968D01*
X94853529Y48183155D01*
X93666502Y48747084D01*
X92554547Y49086840D01*
X91232676Y49256430D01*
X89415903Y49309863D01*
X88900000Y49311400D01*
X86878640Y49272308D01*
X86878640Y49272308D01*
G37*
X86878640Y49272308D02*
X85434783Y49123396D01*
X84301686Y48818836D01*
X83271758Y48344462D01*
X80393681Y46378473D01*
X78107776Y43895214D01*
X76953441Y41977964D01*
X76341918Y40602495D01*
X75985410Y39354981D01*
X75820230Y37909340D01*
X75782606Y35983333D01*
X75826256Y34045903D01*
X75990769Y32643952D01*
X76337915Y31468361D01*
X76929466Y30210008D01*
X76940481Y30188988D01*
X78757745Y27519758D01*
X81075994Y25353312D01*
X83754629Y23759027D01*
X86653052Y22806281D01*
X89630666Y22564453D01*
X91764075Y22874323D01*
X94884239Y24079469D01*
X97620953Y26002229D01*
X99874717Y28562583D01*
X100859519Y30188988D01*
X101454423Y31448293D01*
X101804027Y32618051D01*
X101969800Y34006968D01*
X102013209Y35923750D01*
X102013233Y35952882D01*
X100314563Y35952882D01*
X99965980Y33133611D01*
X99033559Y30534219D01*
X97709489Y28564321D01*
X96374331Y27319387D01*
X94723097Y26115826D01*
X93129168Y25216650D01*
X92710000Y25042638D01*
X91224530Y24745665D01*
X89261579Y24674214D01*
X87154137Y24808900D01*
X85235192Y25130336D01*
X83968310Y25551586D01*
X81923512Y26903995D01*
X80035320Y28789652D01*
X78595950Y30906065D01*
X78389364Y31326667D01*
X77902233Y32858098D01*
X77600340Y34748070D01*
X77495194Y36719597D01*
X77598302Y38495695D01*
X77921174Y39799379D01*
X78028791Y40005000D01*
X78422052Y40601275D01*
X78518344Y40477355D01*
X78491479Y40005000D01*
X78497252Y38307640D01*
X78877532Y37077458D01*
X79737806Y35978845D01*
X79765769Y35950769D01*
X81277256Y34951329D01*
X82937477Y34654524D01*
X84563866Y34983831D01*
X85973859Y35862729D01*
X86984891Y37214697D01*
X87389687Y38862627D01*
X85247946Y38862627D01*
X84863439Y37648836D01*
X84075309Y36958284D01*
X82935712Y36783294D01*
X81747765Y37102435D01*
X80814587Y37894278D01*
X80785775Y37937115D01*
X80319653Y38816608D01*
X80376005Y39539197D01*
X80683389Y40159615D01*
X81568055Y41014281D01*
X82330940Y41275000D01*
X78951666Y41275000D01*
X78740000Y41063333D01*
X78528333Y41275000D01*
X78740000Y41486667D01*
X78951666Y41275000D01*
X82330940Y41275000D01*
X82819558Y41441987D01*
X84080191Y41364185D01*
X84694320Y41040383D01*
X85198319Y40135379D01*
X85247946Y38862627D01*
X87389687Y38862627D01*
X87414395Y38963210D01*
X87418333Y39158333D01*
X87050855Y40931283D01*
X86070907Y42328832D01*
X84662216Y43263523D01*
X83008513Y43647901D01*
X81293525Y43394507D01*
X80012967Y42683368D01*
X79248641Y42098879D01*
X79027255Y42033851D01*
X79228233Y42481825D01*
X79315784Y42646021D01*
X80237587Y43832692D01*
X81673551Y45111104D01*
X83347585Y46269114D01*
X84983596Y47094578D01*
X85214768Y47178690D01*
X88174239Y47767854D01*
X91088680Y47566867D01*
X93832467Y46628402D01*
X96279975Y45005130D01*
X98305578Y42749722D01*
X99156239Y41333358D01*
X100053314Y38762606D01*
X100314563Y35952882D01*
X102013233Y35952882D01*
X102013259Y35983333D01*
X101949227Y38148367D01*
X101722624Y39770871D01*
X101285499Y41147188D01*
X101114396Y41538485D01*
X99512589Y44152979D01*
X97342741Y46456245D01*
X94855786Y48181968D01*
X94853529Y48183155D01*
X93666502Y48747084D01*
X92554547Y49086840D01*
X91232676Y49256430D01*
X89415903Y49309863D01*
X88900000Y49311400D01*
X86878640Y49272308D01*
G36*
X55941499Y65531201D02*
X55181830Y65219768D01*
X54800564Y64730571D01*
X54474846Y63606604D01*
X54796395Y62527082D01*
X55821679Y61396105D01*
X57462222Y60210228D01*
X58736514Y59474611D01*
X60417580Y58617639D01*
X62314236Y57723454D01*
X64235299Y56876197D01*
X65989583Y56160009D01*
X67385904Y55659032D01*
X68233077Y55457408D01*
X68263152Y55456667D01*
X68863711Y55164871D01*
X69209177Y54828683D01*
X69460646Y54308903D01*
X69024688Y53939384D01*
X68731845Y53818483D01*
X67878351Y53269683D01*
X66664242Y52204762D01*
X65241854Y50781188D01*
X63763523Y49156430D01*
X62381587Y47487957D01*
X61604992Y46451523D01*
X60168100Y44431379D01*
X58659050Y45877472D01*
X56708375Y47506313D01*
X54754913Y48556846D01*
X52540754Y49126110D01*
X49807994Y49311140D01*
X49530000Y49312262D01*
X47507997Y49272638D01*
X46063478Y49123185D01*
X44929676Y48818032D01*
X43901758Y48344462D01*
X41023681Y46378473D01*
X38737776Y43895214D01*
X37583441Y41977964D01*
X36974852Y40612807D01*
X36620892Y39383192D01*
X36459018Y37964935D01*
X36426689Y36033850D01*
X36426959Y35983333D01*
X36481109Y34024268D01*
X36658854Y32597623D01*
X37022548Y31391372D01*
X37584834Y30188988D01*
X39380460Y27530236D01*
X41684886Y25367889D01*
X44355572Y23772353D01*
X47249974Y22814034D01*
X50225550Y22563336D01*
X52394075Y22874323D01*
X55473372Y24049033D01*
X58103502Y25855139D01*
X60217040Y28176618D01*
X61746560Y30897445D01*
X62624637Y33901596D01*
X62770634Y36809884D01*
X61013051Y36809884D01*
X60961528Y34718904D01*
X60755251Y33472169D01*
X59634711Y30523679D01*
X57831036Y28047496D01*
X55405916Y26113335D01*
X53359810Y25114706D01*
X52102625Y24819995D01*
X50412949Y24657748D01*
X48619547Y24634255D01*
X47051180Y24755805D01*
X46143333Y24976667D01*
X45725371Y25217326D01*
X46009520Y25333820D01*
X46789972Y25370246D01*
X48597816Y25758318D01*
X49992228Y26724412D01*
X50907195Y28090451D01*
X51252433Y29574067D01*
X49219816Y29574067D01*
X48659328Y28457528D01*
X47667355Y27694448D01*
X46400895Y27563345D01*
X45171071Y28084714D01*
X45012500Y28217278D01*
X44339428Y29328479D01*
X44384315Y30613250D01*
X45085000Y31750000D01*
X46042651Y32455623D01*
X46974265Y32466632D01*
X48124218Y31780619D01*
X48202910Y31719275D01*
X49120877Y30680891D01*
X49219816Y29574067D01*
X51252433Y29574067D01*
X51276703Y29678360D01*
X51034736Y31310061D01*
X50115282Y32807478D01*
X49694791Y33206148D01*
X48005813Y34163965D01*
X46268025Y34380739D01*
X44646256Y33934697D01*
X43305336Y32904065D01*
X42410096Y31367071D01*
X42121666Y29612023D01*
X42406424Y28353493D01*
X43341595Y27065163D01*
X43561000Y26839333D01*
X44463357Y25882908D01*
X44722487Y25470863D01*
X44347579Y25607952D01*
X43347822Y26298925D01*
X43008292Y26553488D01*
X40716738Y28643199D01*
X39194947Y30916905D01*
X38366643Y33526005D01*
X38150781Y36195000D01*
X38521583Y39253746D01*
X39556082Y41919318D01*
X41144830Y44143636D01*
X43178377Y45878618D01*
X45547274Y47076183D01*
X48142073Y47688251D01*
X50853324Y47666740D01*
X53571577Y46963569D01*
X56187385Y45530657D01*
X57322008Y44616929D01*
X58542213Y43615412D01*
X59321693Y43188314D01*
X59583952Y43280054D01*
X59869376Y43580921D01*
X60458963Y43241077D01*
X60489070Y43216366D01*
X60978620Y42687982D01*
X60787025Y42203222D01*
X60542604Y41946366D01*
X59967643Y41515189D01*
X59583501Y41746795D01*
X59509366Y41860000D01*
X59159660Y42103316D01*
X58692991Y41684509D01*
X58385914Y41225000D01*
X57719985Y40188079D01*
X57179808Y39394216D01*
X57175405Y39388155D01*
X57200052Y39247517D01*
X57755679Y39565193D01*
X58284494Y39944935D01*
X59249248Y40633557D01*
X59781103Y40837115D01*
X60106143Y40602132D01*
X60253546Y40350113D01*
X60768350Y38806322D01*
X61013051Y36809884D01*
X62770634Y36809884D01*
X62783846Y37073048D01*
X62281917Y39889062D01*
X61910891Y41206478D01*
X61661471Y42170857D01*
X61595000Y42509859D01*
X61930921Y42814125D01*
X62864554Y43503273D01*
X64284705Y44499264D01*
X66080182Y45724059D01*
X68050833Y47040765D01*
X70151316Y48461208D01*
X72024146Y49784562D01*
X73545084Y50918488D01*
X74589890Y51770648D01*
X75020832Y52221060D01*
X75505211Y53732658D01*
X75266710Y55384897D01*
X74359058Y57192479D01*
X72529729Y59393665D01*
X70043781Y61395782D01*
X67084229Y63108675D01*
X63834086Y64442190D01*
X60476366Y65306170D01*
X57270728Y65610410D01*
X55941499Y65531201D01*
X55941499Y65531201D01*
G37*
X55941499Y65531201D02*
X55181830Y65219768D01*
X54800564Y64730571D01*
X54474846Y63606604D01*
X54796395Y62527082D01*
X55821679Y61396105D01*
X57462222Y60210228D01*
X58736514Y59474611D01*
X60417580Y58617639D01*
X62314236Y57723454D01*
X64235299Y56876197D01*
X65989583Y56160009D01*
X67385904Y55659032D01*
X68233077Y55457408D01*
X68263152Y55456667D01*
X68863711Y55164871D01*
X69209177Y54828683D01*
X69460646Y54308903D01*
X69024688Y53939384D01*
X68731845Y53818483D01*
X67878351Y53269683D01*
X66664242Y52204762D01*
X65241854Y50781188D01*
X63763523Y49156430D01*
X62381587Y47487957D01*
X61604992Y46451523D01*
X60168100Y44431379D01*
X58659050Y45877472D01*
X56708375Y47506313D01*
X54754913Y48556846D01*
X52540754Y49126110D01*
X49807994Y49311140D01*
X49530000Y49312262D01*
X47507997Y49272638D01*
X46063478Y49123185D01*
X44929676Y48818032D01*
X43901758Y48344462D01*
X41023681Y46378473D01*
X38737776Y43895214D01*
X37583441Y41977964D01*
X36974852Y40612807D01*
X36620892Y39383192D01*
X36459018Y37964935D01*
X36426689Y36033850D01*
X36426959Y35983333D01*
X36481109Y34024268D01*
X36658854Y32597623D01*
X37022548Y31391372D01*
X37584834Y30188988D01*
X39380460Y27530236D01*
X41684886Y25367889D01*
X44355572Y23772353D01*
X47249974Y22814034D01*
X50225550Y22563336D01*
X52394075Y22874323D01*
X55473372Y24049033D01*
X58103502Y25855139D01*
X60217040Y28176618D01*
X61746560Y30897445D01*
X62624637Y33901596D01*
X62770634Y36809884D01*
X61013051Y36809884D01*
X60961528Y34718904D01*
X60755251Y33472169D01*
X59634711Y30523679D01*
X57831036Y28047496D01*
X55405916Y26113335D01*
X53359810Y25114706D01*
X52102625Y24819995D01*
X50412949Y24657748D01*
X48619547Y24634255D01*
X47051180Y24755805D01*
X46143333Y24976667D01*
X45725371Y25217326D01*
X46009520Y25333820D01*
X46789972Y25370246D01*
X48597816Y25758318D01*
X49992228Y26724412D01*
X50907195Y28090451D01*
X51252433Y29574067D01*
X49219816Y29574067D01*
X48659328Y28457528D01*
X47667355Y27694448D01*
X46400895Y27563345D01*
X45171071Y28084714D01*
X45012500Y28217278D01*
X44339428Y29328479D01*
X44384315Y30613250D01*
X45085000Y31750000D01*
X46042651Y32455623D01*
X46974265Y32466632D01*
X48124218Y31780619D01*
X48202910Y31719275D01*
X49120877Y30680891D01*
X49219816Y29574067D01*
X51252433Y29574067D01*
X51276703Y29678360D01*
X51034736Y31310061D01*
X50115282Y32807478D01*
X49694791Y33206148D01*
X48005813Y34163965D01*
X46268025Y34380739D01*
X44646256Y33934697D01*
X43305336Y32904065D01*
X42410096Y31367071D01*
X42121666Y29612023D01*
X42406424Y28353493D01*
X43341595Y27065163D01*
X43561000Y26839333D01*
X44463357Y25882908D01*
X44722487Y25470863D01*
X44347579Y25607952D01*
X43347822Y26298925D01*
X43008292Y26553488D01*
X40716738Y28643199D01*
X39194947Y30916905D01*
X38366643Y33526005D01*
X38150781Y36195000D01*
X38521583Y39253746D01*
X39556082Y41919318D01*
X41144830Y44143636D01*
X43178377Y45878618D01*
X45547274Y47076183D01*
X48142073Y47688251D01*
X50853324Y47666740D01*
X53571577Y46963569D01*
X56187385Y45530657D01*
X57322008Y44616929D01*
X58542213Y43615412D01*
X59321693Y43188314D01*
X59583952Y43280054D01*
X59869376Y43580921D01*
X60458963Y43241077D01*
X60489070Y43216366D01*
X60978620Y42687982D01*
X60787025Y42203222D01*
X60542604Y41946366D01*
X59967643Y41515189D01*
X59583501Y41746795D01*
X59509366Y41860000D01*
X59159660Y42103316D01*
X58692991Y41684509D01*
X58385914Y41225000D01*
X57719985Y40188079D01*
X57179808Y39394216D01*
X57175405Y39388155D01*
X57200052Y39247517D01*
X57755679Y39565193D01*
X58284494Y39944935D01*
X59249248Y40633557D01*
X59781103Y40837115D01*
X60106143Y40602132D01*
X60253546Y40350113D01*
X60768350Y38806322D01*
X61013051Y36809884D01*
X62770634Y36809884D01*
X62783846Y37073048D01*
X62281917Y39889062D01*
X61910891Y41206478D01*
X61661471Y42170857D01*
X61595000Y42509859D01*
X61930921Y42814125D01*
X62864554Y43503273D01*
X64284705Y44499264D01*
X66080182Y45724059D01*
X68050833Y47040765D01*
X70151316Y48461208D01*
X72024146Y49784562D01*
X73545084Y50918488D01*
X74589890Y51770648D01*
X75020832Y52221060D01*
X75505211Y53732658D01*
X75266710Y55384897D01*
X74359058Y57192479D01*
X72529729Y59393665D01*
X70043781Y61395782D01*
X67084229Y63108675D01*
X63834086Y64442190D01*
X60476366Y65306170D01*
X57270728Y65610410D01*
X55941499Y65531201D01*
G36*
X76868977Y63726835D02*
X76252253Y63076443D01*
X76132568Y61880815D01*
X76474997Y60048607D01*
X76499724Y59953491D01*
X77338909Y57187325D01*
X78261397Y54905877D01*
X79213762Y53216106D01*
X80142580Y52224972D01*
X80438458Y52068052D01*
X82206161Y51730905D01*
X84657357Y51785045D01*
X87726330Y52227381D01*
X88900000Y52465909D01*
X91004043Y52962312D01*
X93112427Y53530292D01*
X95066075Y54118508D01*
X96705908Y54675621D01*
X97872852Y55150290D01*
X98407827Y55491175D01*
X98425000Y55539993D01*
X98024292Y55650173D01*
X96912585Y55745461D01*
X95225500Y55819619D01*
X93098661Y55866408D01*
X91033158Y55880000D01*
X88145111Y55888073D01*
X85979908Y55948000D01*
X84413725Y56113348D01*
X83322741Y56437679D01*
X82583132Y56974559D01*
X82071078Y57777552D01*
X81662756Y58900223D01*
X81323094Y60080502D01*
X80593375Y62075786D01*
X79705086Y63311575D01*
X78587145Y63870510D01*
X78017668Y63923333D01*
X76868977Y63726835D01*
X76868977Y63726835D01*
G37*
X76868977Y63726835D02*
X76252253Y63076443D01*
X76132568Y61880815D01*
X76474997Y60048607D01*
X76499724Y59953491D01*
X77338909Y57187325D01*
X78261397Y54905877D01*
X79213762Y53216106D01*
X80142580Y52224972D01*
X80438458Y52068052D01*
X82206161Y51730905D01*
X84657357Y51785045D01*
X87726330Y52227381D01*
X88900000Y52465909D01*
X91004043Y52962312D01*
X93112427Y53530292D01*
X95066075Y54118508D01*
X96705908Y54675621D01*
X97872852Y55150290D01*
X98407827Y55491175D01*
X98425000Y55539993D01*
X98024292Y55650173D01*
X96912585Y55745461D01*
X95225500Y55819619D01*
X93098661Y55866408D01*
X91033158Y55880000D01*
X88145111Y55888073D01*
X85979908Y55948000D01*
X84413725Y56113348D01*
X83322741Y56437679D01*
X82583132Y56974559D01*
X82071078Y57777552D01*
X81662756Y58900223D01*
X81323094Y60080502D01*
X80593375Y62075786D01*
X79705086Y63311575D01*
X78587145Y63870510D01*
X78017668Y63923333D01*
X76868977Y63726835D01*
G36*
X81945634Y72812631D02*
X80425394Y71728422D01*
X80125246Y71387953D01*
X79575993Y70166178D01*
X79400840Y68553523D01*
X79621632Y66929018D01*
X79834406Y66341551D01*
X80849415Y65058781D01*
X82375065Y64247964D01*
X84173648Y63985050D01*
X86007457Y64345987D01*
X86039824Y64358869D01*
X87270053Y65267620D01*
X88154625Y66715816D01*
X88548673Y68420388D01*
X88525039Y69215000D01*
X87946390Y70981544D01*
X86818828Y72271221D01*
X85322649Y73037388D01*
X83638152Y73233405D01*
X81945634Y72812631D01*
X81945634Y72812631D01*
G37*
X81945634Y72812631D02*
X80425394Y71728422D01*
X80125246Y71387953D01*
X79575993Y70166178D01*
X79400840Y68553523D01*
X79621632Y66929018D01*
X79834406Y66341551D01*
X80849415Y65058781D01*
X82375065Y64247964D01*
X84173648Y63985050D01*
X86007457Y64345987D01*
X86039824Y64358869D01*
X87270053Y65267620D01*
X88154625Y66715816D01*
X88548673Y68420388D01*
X88525039Y69215000D01*
X87946390Y70981544D01*
X86818828Y72271221D01*
X85322649Y73037388D01*
X83638152Y73233405D01*
X81945634Y72812631D01*
D12*
X104140000Y22225000D02*
X86360000Y22225000D01*
X106680000Y70485000D02*
X106680000Y24765000D01*
X86360000Y73025000D02*
X104140000Y73025000D01*
X83820000Y24765000D02*
X83820000Y70485000D01*
X83820000Y70485000D02*
G75*
G02X86360000Y73025000I2540000J0D01*
G01*
X104140000Y73025000D02*
G75*
G02X106680000Y70485000I0J-2540000D01*
G01*
X106680000Y24765000D02*
G75*
G02X104140000Y22225000I-2540000J0D01*
G01*
X86360000Y22225000D02*
G75*
G02X83820000Y24765000I0J2540000D01*
G01*
D13*
X108077000Y33020000D02*
X108077000Y38100000D01*
X113665000Y32512000D02*
X108585000Y32512000D01*
X114173000Y38100000D02*
X114173000Y33020000D01*
X108585000Y38608000D02*
X113665000Y38608000D01*
X114173000Y33020000D02*
G75*
G02X113665000Y32512000I-508000J0D01*
G01*
X113665000Y38608000D02*
G75*
G02X114173000Y38100000I0J-508000D01*
G01*
X108077000Y38100000D02*
G75*
G02X108585000Y38608000I508000J0D01*
G01*
X108585000Y32512000D02*
G75*
G02X108077000Y33020000I0J508000D01*
G01*
X112903000Y35560000D02*
G75*
G03X112903000Y35560000I-1778000J0D01*
G01*
D12*
X29845000Y33655000D02*
X48895000Y33655000D01*
X27940000Y71120000D02*
X27940000Y35560000D01*
X48895000Y73025000D02*
X29845000Y73025000D01*
X50800000Y35560000D02*
X50800000Y71120000D01*
X50800000Y35560000D02*
G75*
G02X48895000Y33655000I-1905000J0D01*
G01*
X29845000Y33655000D02*
G75*
G02X27940000Y35560000I0J1905000D01*
G01*
X27940000Y71120000D02*
G75*
G02X29845000Y73025000I1905000J0D01*
G01*
X48895000Y73025000D02*
G75*
G02X50800000Y71120000I0J-1905000D01*
G01*
X122760000Y63230000D02*
X122760000Y61230000D01*
X119810000Y61230000D02*
X119810000Y63230000D01*
X126570000Y63230000D02*
X126570000Y61230000D01*
X123620000Y61230000D02*
X123620000Y63230000D01*
X113870000Y63230000D02*
X113870000Y61230000D01*
X110920000Y61230000D02*
X110920000Y63230000D01*
X11860000Y47260000D02*
X11860000Y49260000D01*
X14810000Y49260000D02*
X14810000Y47260000D01*
X8050000Y47260000D02*
X8050000Y49260000D01*
X11000000Y49260000D02*
X11000000Y47260000D01*
X20750000Y47260000D02*
X20750000Y49260000D01*
X23700000Y49260000D02*
X23700000Y47260000D01*
X66375876Y9370089D02*
X67790089Y7955876D01*
X65704124Y5869911D02*
X64289911Y7284124D01*
X57485876Y20165089D02*
X58900089Y18750876D01*
X56814124Y16664911D02*
X55399911Y18079124D01*
X69514124Y29364911D02*
X68099911Y30779124D01*
X70185876Y32865089D02*
X71600089Y31450876D01*
X80944124Y21109911D02*
X79529911Y22524124D01*
X81615876Y24610089D02*
X83030089Y23195876D01*
X70784124Y10949911D02*
X69369911Y12364124D01*
X71455876Y14450089D02*
X72870089Y13035876D01*
X64434124Y24284911D02*
X63019911Y25699124D01*
X65105876Y27785089D02*
X66520089Y26370876D01*
X75864124Y16029911D02*
X74449911Y17444124D01*
X76535876Y19530089D02*
X77950089Y18115876D01*
X119810000Y46720000D02*
X119810000Y44720000D01*
X122760000Y44720000D02*
X122760000Y46720000D01*
X123620000Y46720000D02*
X123620000Y44720000D01*
X126570000Y44720000D02*
X126570000Y46720000D01*
X110920000Y46720000D02*
X110920000Y44720000D01*
X113870000Y44720000D02*
X113870000Y46720000D01*
X14810000Y61230000D02*
X14810000Y63230000D01*
X11860000Y63230000D02*
X11860000Y61230000D01*
X11000000Y61230000D02*
X11000000Y63230000D01*
X8050000Y63230000D02*
X8050000Y61230000D01*
X23700000Y61230000D02*
X23700000Y63230000D01*
X20750000Y63230000D02*
X20750000Y61230000D01*
X65250089Y5415876D02*
X63835876Y6830089D01*
X61749911Y4744124D02*
X63164124Y3329911D01*
X56360089Y16210876D02*
X54945876Y17625089D01*
X52859911Y15539124D02*
X54274124Y14124911D01*
X65559911Y28239124D02*
X66974124Y26824911D01*
X69060089Y28910876D02*
X67645876Y30325089D01*
X76989911Y19984124D02*
X78404124Y18569911D01*
X80490089Y20655876D02*
X79075876Y22070089D01*
X66829911Y9824124D02*
X68244124Y8409911D01*
X70330089Y10495876D02*
X68915876Y11910089D01*
X57939911Y20619124D02*
X59354124Y19204911D01*
X61440089Y21290876D02*
X60025876Y22705089D01*
X71909911Y14904124D02*
X73324124Y13489911D01*
X75410089Y15575876D02*
X73995876Y16990089D01*
X92980000Y62660000D02*
X94980000Y62660000D01*
X94980000Y65610000D02*
X92980000Y65610000D01*
D14*
X53340000Y73025000D02*
X68580000Y73025000D01*
X68580000Y40005000D02*
X53340000Y40005000D01*
D12*
X69850000Y41275000D02*
G75*
G02X68580000Y40005000I-1270000J0D01*
G01*
X53340000Y40005000D02*
G75*
G02X52070000Y41275000I0J1270000D01*
G01*
X52070000Y71755000D02*
G75*
G02X53340000Y73025000I1270000J0D01*
G01*
X68580000Y73025000D02*
G75*
G02X69850000Y71755000I0J-1270000D01*
G01*
X52070000Y41275000D02*
X52070000Y71755000D01*
X69850000Y71755000D02*
X69850000Y41275000D01*
X74135000Y74850000D02*
G75*
G02X79535000Y74850000I2700000J-5000000D01*
G01*
X79535000Y74850000D02*
X74135000Y74850000D01*
X79535000Y72950000D02*
X79535000Y74850000D01*
X74135000Y74850000D02*
X74135000Y72950000D01*
X70335000Y66450000D02*
X70335000Y72950000D01*
X70335000Y72950000D02*
X83335000Y72950000D01*
X83335000Y72950000D02*
X83335000Y66450000D01*
X83335000Y66450000D02*
X70335000Y66450000D01*
D13*
X20447000Y33020000D02*
X20447000Y38100000D01*
X26035000Y32512000D02*
X20955000Y32512000D01*
X26543000Y38100000D02*
X26543000Y33020000D01*
X20955000Y38608000D02*
X26035000Y38608000D01*
X26543000Y33020000D02*
G75*
G02X26035000Y32512000I-508000J0D01*
G01*
X26035000Y38608000D02*
G75*
G02X26543000Y38100000I0J-508000D01*
G01*
X20447000Y38100000D02*
G75*
G02X20955000Y38608000I508000J0D01*
G01*
X20955000Y32512000D02*
G75*
G02X20447000Y33020000I0J508000D01*
G01*
X25273000Y35560000D02*
G75*
G03X25273000Y35560000I-1778000J0D01*
G01*
D14*
X99199095Y70406381D02*
X99199095Y69583905D01*
X99150714Y69487143D01*
X99102333Y69438762D01*
X99005571Y69390381D01*
X98812048Y69390381D01*
X98715286Y69438762D01*
X98666905Y69487143D01*
X98618524Y69583905D01*
X98618524Y70406381D01*
X98086333Y69390381D02*
X97892809Y69390381D01*
X97796048Y69438762D01*
X97747667Y69487143D01*
X97650905Y69632286D01*
X97602524Y69825810D01*
X97602524Y70212857D01*
X97650905Y70309619D01*
X97699286Y70358000D01*
X97796048Y70406381D01*
X97989571Y70406381D01*
X98086333Y70358000D01*
X98134714Y70309619D01*
X98183095Y70212857D01*
X98183095Y69970952D01*
X98134714Y69874190D01*
X98086333Y69825810D01*
X97989571Y69777429D01*
X97796048Y69777429D01*
X97699286Y69825810D01*
X97650905Y69874190D01*
X97602524Y69970952D01*
X101739095Y71827571D02*
X102077761Y71827571D01*
X102077761Y71295381D02*
X102077761Y72311381D01*
X101593952Y72311381D01*
X100819857Y71343762D02*
X100916619Y71295381D01*
X101110142Y71295381D01*
X101206904Y71343762D01*
X101255285Y71440524D01*
X101255285Y71827571D01*
X101206904Y71924333D01*
X101110142Y71972714D01*
X100916619Y71972714D01*
X100819857Y71924333D01*
X100771476Y71827571D01*
X100771476Y71730810D01*
X101255285Y71634048D01*
X99900619Y71295381D02*
X99900619Y71827571D01*
X99949000Y71924333D01*
X100045762Y71972714D01*
X100239285Y71972714D01*
X100336047Y71924333D01*
X99900619Y71343762D02*
X99997381Y71295381D01*
X100239285Y71295381D01*
X100336047Y71343762D01*
X100384428Y71440524D01*
X100384428Y71537286D01*
X100336047Y71634048D01*
X100239285Y71682429D01*
X99997381Y71682429D01*
X99900619Y71730810D01*
X99561952Y71972714D02*
X99174904Y71972714D01*
X99416809Y72311381D02*
X99416809Y71440524D01*
X99368428Y71343762D01*
X99271666Y71295381D01*
X99174904Y71295381D01*
X98836238Y71295381D02*
X98836238Y72311381D01*
X98400810Y71295381D02*
X98400810Y71827571D01*
X98449191Y71924333D01*
X98545953Y71972714D01*
X98691095Y71972714D01*
X98787857Y71924333D01*
X98836238Y71875952D01*
X97529953Y71343762D02*
X97626715Y71295381D01*
X97820238Y71295381D01*
X97917000Y71343762D01*
X97965381Y71440524D01*
X97965381Y71827571D01*
X97917000Y71924333D01*
X97820238Y71972714D01*
X97626715Y71972714D01*
X97529953Y71924333D01*
X97481572Y71827571D01*
X97481572Y71730810D01*
X97965381Y71634048D01*
X97046143Y71295381D02*
X97046143Y71972714D01*
X97046143Y71779190D02*
X96997762Y71875952D01*
X96949381Y71924333D01*
X96852619Y71972714D01*
X96755858Y71972714D01*
X96417191Y71295381D02*
X96417191Y72311381D01*
X96078525Y71585667D01*
X95739858Y72311381D01*
X95739858Y71295381D01*
X95062524Y72311381D02*
X94965763Y72311381D01*
X94869001Y72263000D01*
X94820620Y72214619D01*
X94772239Y72117857D01*
X94723858Y71924333D01*
X94723858Y71682429D01*
X94772239Y71488905D01*
X94820620Y71392143D01*
X94869001Y71343762D01*
X94965763Y71295381D01*
X95062524Y71295381D01*
X95159286Y71343762D01*
X95207667Y71392143D01*
X95256048Y71488905D01*
X95304429Y71682429D01*
X95304429Y71924333D01*
X95256048Y72117857D01*
X95207667Y72214619D01*
X95159286Y72263000D01*
X95062524Y72311381D01*
D10*
X111705571Y35251571D02*
X111596714Y35215286D01*
X111415285Y35215286D01*
X111342714Y35251571D01*
X111306428Y35287857D01*
X111270143Y35360429D01*
X111270143Y35433000D01*
X111306428Y35505571D01*
X111342714Y35541857D01*
X111415285Y35578143D01*
X111560428Y35614429D01*
X111633000Y35650714D01*
X111669285Y35687000D01*
X111705571Y35759571D01*
X111705571Y35832143D01*
X111669285Y35904714D01*
X111633000Y35941000D01*
X111560428Y35977286D01*
X111379000Y35977286D01*
X111270143Y35941000D01*
X110544429Y35215286D02*
X110979857Y35215286D01*
X110762143Y35215286D02*
X110762143Y35977286D01*
X110834714Y35868429D01*
X110907286Y35795857D01*
X110979857Y35759571D01*
X113066284Y29500286D02*
X113066284Y30262286D01*
X112812284Y29718000D01*
X112558284Y30262286D01*
X112558284Y29500286D01*
X112050285Y30262286D02*
X111977713Y30262286D01*
X111905142Y30226000D01*
X111868856Y30189714D01*
X111832570Y30117143D01*
X111796285Y29972000D01*
X111796285Y29790571D01*
X111832570Y29645429D01*
X111868856Y29572857D01*
X111905142Y29536571D01*
X111977713Y29500286D01*
X112050285Y29500286D01*
X112122856Y29536571D01*
X112159142Y29572857D01*
X112195427Y29645429D01*
X112231713Y29790571D01*
X112231713Y29972000D01*
X112195427Y30117143D01*
X112159142Y30189714D01*
X112122856Y30226000D01*
X112050285Y30262286D01*
X111651142Y29427714D02*
X111070571Y29427714D01*
X110453714Y29500286D02*
X110707714Y29863143D01*
X110889142Y29500286D02*
X110889142Y30262286D01*
X110598857Y30262286D01*
X110526285Y30226000D01*
X110490000Y30189714D01*
X110453714Y30117143D01*
X110453714Y30008286D01*
X110490000Y29935714D01*
X110526285Y29899429D01*
X110598857Y29863143D01*
X110889142Y29863143D01*
X110163428Y29536571D02*
X110054571Y29500286D01*
X109873142Y29500286D01*
X109800571Y29536571D01*
X109764285Y29572857D01*
X109728000Y29645429D01*
X109728000Y29718000D01*
X109764285Y29790571D01*
X109800571Y29826857D01*
X109873142Y29863143D01*
X110018285Y29899429D01*
X110090857Y29935714D01*
X110127142Y29972000D01*
X110163428Y30044571D01*
X110163428Y30117143D01*
X110127142Y30189714D01*
X110090857Y30226000D01*
X110018285Y30262286D01*
X109836857Y30262286D01*
X109728000Y30226000D01*
X109510286Y30262286D02*
X109074857Y30262286D01*
X109292571Y29500286D02*
X109292571Y30262286D01*
D14*
X36334095Y70406381D02*
X36334095Y69583905D01*
X36285714Y69487143D01*
X36237333Y69438762D01*
X36140571Y69390381D01*
X35947048Y69390381D01*
X35850286Y69438762D01*
X35801905Y69487143D01*
X35753524Y69583905D01*
X35753524Y70406381D01*
X35366476Y70406381D02*
X34689143Y70406381D01*
X35124571Y69390381D01*
X40113856Y71827571D02*
X39775190Y71827571D01*
X39630047Y71295381D02*
X40113856Y71295381D01*
X40113856Y72311381D01*
X39630047Y72311381D01*
X39291380Y72311381D02*
X38614047Y72311381D01*
X39291380Y71295381D01*
X38614047Y71295381D01*
X38226999Y71295381D02*
X38226999Y72311381D01*
X38226999Y71924333D02*
X38130237Y71972714D01*
X37936714Y71972714D01*
X37839952Y71924333D01*
X37791571Y71875952D01*
X37743190Y71779190D01*
X37743190Y71488905D01*
X37791571Y71392143D01*
X37839952Y71343762D01*
X37936714Y71295381D01*
X38130237Y71295381D01*
X38226999Y71343762D01*
X37162618Y71295381D02*
X37259380Y71343762D01*
X37307761Y71440524D01*
X37307761Y72311381D01*
X36340143Y71972714D02*
X36340143Y71295381D01*
X36775571Y71972714D02*
X36775571Y71440524D01*
X36727190Y71343762D01*
X36630428Y71295381D01*
X36485286Y71295381D01*
X36388524Y71343762D01*
X36340143Y71392143D01*
X35469286Y71343762D02*
X35566048Y71295381D01*
X35759571Y71295381D01*
X35856333Y71343762D01*
X35904714Y71440524D01*
X35904714Y71827571D01*
X35856333Y71924333D01*
X35759571Y71972714D01*
X35566048Y71972714D01*
X35469286Y71924333D01*
X35420905Y71827571D01*
X35420905Y71730810D01*
X35904714Y71634048D01*
X35130619Y71972714D02*
X34743571Y71972714D01*
X34985476Y71295381D02*
X34985476Y72166238D01*
X34937095Y72263000D01*
X34840333Y72311381D01*
X34743571Y72311381D01*
X34404905Y71295381D02*
X34404905Y71972714D01*
X34404905Y71779190D02*
X34356524Y71875952D01*
X34308143Y71924333D01*
X34211381Y71972714D01*
X34114620Y71972714D01*
X33340525Y71972714D02*
X33340525Y71295381D01*
X33775953Y71972714D02*
X33775953Y71440524D01*
X33727572Y71343762D01*
X33630810Y71295381D01*
X33485668Y71295381D01*
X33388906Y71343762D01*
X33340525Y71392143D01*
X32856715Y71295381D02*
X32856715Y71972714D01*
X32856715Y72311381D02*
X32905096Y72263000D01*
X32856715Y72214619D01*
X32808334Y72263000D01*
X32856715Y72311381D01*
X32856715Y72214619D01*
X32518048Y71972714D02*
X32131000Y71972714D01*
X32372905Y72311381D02*
X32372905Y71440524D01*
X32324524Y71343762D01*
X32227762Y71295381D01*
X32131000Y71295381D01*
D12*
X121927857Y57427857D02*
X121975476Y57380238D01*
X122118333Y57332619D01*
X122213571Y57332619D01*
X122356429Y57380238D01*
X122451667Y57475476D01*
X122499286Y57570714D01*
X122546905Y57761190D01*
X122546905Y57904048D01*
X122499286Y58094524D01*
X122451667Y58189762D01*
X122356429Y58285000D01*
X122213571Y58332619D01*
X122118333Y58332619D01*
X121975476Y58285000D01*
X121927857Y58237381D01*
X121594524Y58332619D02*
X120975476Y58332619D01*
X121308810Y57951667D01*
X121165952Y57951667D01*
X121070714Y57904048D01*
X121023095Y57856429D01*
X120975476Y57761190D01*
X120975476Y57523095D01*
X121023095Y57427857D01*
X121070714Y57380238D01*
X121165952Y57332619D01*
X121451667Y57332619D01*
X121546905Y57380238D01*
X121594524Y57427857D01*
X120070714Y58332619D02*
X120546905Y58332619D01*
X120594524Y57856429D01*
X120546905Y57904048D01*
X120451667Y57951667D01*
X120213571Y57951667D01*
X120118333Y57904048D01*
X120070714Y57856429D01*
X120023095Y57761190D01*
X120023095Y57523095D01*
X120070714Y57427857D01*
X120118333Y57380238D01*
X120213571Y57332619D01*
X120451667Y57332619D01*
X120546905Y57380238D01*
X120594524Y57427857D01*
X121880238Y61777619D02*
X122451667Y61777619D01*
X122165953Y61777619D02*
X122165953Y62777619D01*
X122261191Y62634762D01*
X122356429Y62539524D01*
X122451667Y62491905D01*
X121023095Y62444286D02*
X121023095Y61777619D01*
X121451667Y62444286D02*
X121451667Y61920476D01*
X121404048Y61825238D01*
X121308810Y61777619D01*
X121165952Y61777619D01*
X121070714Y61825238D01*
X121023095Y61872857D01*
X120213571Y62301429D02*
X120546905Y62301429D01*
X120546905Y61777619D02*
X120546905Y62777619D01*
X120070714Y62777619D01*
X125737857Y57427857D02*
X125785476Y57380238D01*
X125928333Y57332619D01*
X126023571Y57332619D01*
X126166429Y57380238D01*
X126261667Y57475476D01*
X126309286Y57570714D01*
X126356905Y57761190D01*
X126356905Y57904048D01*
X126309286Y58094524D01*
X126261667Y58189762D01*
X126166429Y58285000D01*
X126023571Y58332619D01*
X125928333Y58332619D01*
X125785476Y58285000D01*
X125737857Y58237381D01*
X125404524Y58332619D02*
X124785476Y58332619D01*
X125118810Y57951667D01*
X124975952Y57951667D01*
X124880714Y57904048D01*
X124833095Y57856429D01*
X124785476Y57761190D01*
X124785476Y57523095D01*
X124833095Y57427857D01*
X124880714Y57380238D01*
X124975952Y57332619D01*
X125261667Y57332619D01*
X125356905Y57380238D01*
X125404524Y57427857D01*
X123928333Y57999286D02*
X123928333Y57332619D01*
X124166429Y58380238D02*
X124404524Y57665952D01*
X123785476Y57665952D01*
X125690238Y61777619D02*
X126261667Y61777619D01*
X125975953Y61777619D02*
X125975953Y62777619D01*
X126071191Y62634762D01*
X126166429Y62539524D01*
X126261667Y62491905D01*
X124833095Y62444286D02*
X124833095Y61777619D01*
X125261667Y62444286D02*
X125261667Y61920476D01*
X125214048Y61825238D01*
X125118810Y61777619D01*
X124975952Y61777619D01*
X124880714Y61825238D01*
X124833095Y61872857D01*
X124023571Y62301429D02*
X124356905Y62301429D01*
X124356905Y61777619D02*
X124356905Y62777619D01*
X123880714Y62777619D01*
X113037857Y57427857D02*
X113085476Y57380238D01*
X113228333Y57332619D01*
X113323571Y57332619D01*
X113466429Y57380238D01*
X113561667Y57475476D01*
X113609286Y57570714D01*
X113656905Y57761190D01*
X113656905Y57904048D01*
X113609286Y58094524D01*
X113561667Y58189762D01*
X113466429Y58285000D01*
X113323571Y58332619D01*
X113228333Y58332619D01*
X113085476Y58285000D01*
X113037857Y58237381D01*
X112704524Y58332619D02*
X112085476Y58332619D01*
X112418810Y57951667D01*
X112275952Y57951667D01*
X112180714Y57904048D01*
X112133095Y57856429D01*
X112085476Y57761190D01*
X112085476Y57523095D01*
X112133095Y57427857D01*
X112180714Y57380238D01*
X112275952Y57332619D01*
X112561667Y57332619D01*
X112656905Y57380238D01*
X112704524Y57427857D01*
X111752143Y58332619D02*
X111133095Y58332619D01*
X111466429Y57951667D01*
X111323571Y57951667D01*
X111228333Y57904048D01*
X111180714Y57856429D01*
X111133095Y57761190D01*
X111133095Y57523095D01*
X111180714Y57427857D01*
X111228333Y57380238D01*
X111323571Y57332619D01*
X111609286Y57332619D01*
X111704524Y57380238D01*
X111752143Y57427857D01*
X112990238Y61777619D02*
X113561667Y61777619D01*
X113275953Y61777619D02*
X113275953Y62777619D01*
X113371191Y62634762D01*
X113466429Y62539524D01*
X113561667Y62491905D01*
X112133095Y62444286D02*
X112133095Y61777619D01*
X112561667Y62444286D02*
X112561667Y61920476D01*
X112514048Y61825238D01*
X112418810Y61777619D01*
X112275952Y61777619D01*
X112180714Y61825238D01*
X112133095Y61872857D01*
X111323571Y62301429D02*
X111656905Y62301429D01*
X111656905Y61777619D02*
X111656905Y62777619D01*
X111180714Y62777619D01*
X13977857Y52347857D02*
X14025476Y52300238D01*
X14168333Y52252619D01*
X14263571Y52252619D01*
X14406429Y52300238D01*
X14501667Y52395476D01*
X14549286Y52490714D01*
X14596905Y52681190D01*
X14596905Y52824048D01*
X14549286Y53014524D01*
X14501667Y53109762D01*
X14406429Y53205000D01*
X14263571Y53252619D01*
X14168333Y53252619D01*
X14025476Y53205000D01*
X13977857Y53157381D01*
X13644524Y53252619D02*
X13025476Y53252619D01*
X13358810Y52871667D01*
X13215952Y52871667D01*
X13120714Y52824048D01*
X13073095Y52776429D01*
X13025476Y52681190D01*
X13025476Y52443095D01*
X13073095Y52347857D01*
X13120714Y52300238D01*
X13215952Y52252619D01*
X13501667Y52252619D01*
X13596905Y52300238D01*
X13644524Y52347857D01*
X12073095Y52252619D02*
X12644524Y52252619D01*
X12358810Y52252619D02*
X12358810Y53252619D01*
X12454048Y53109762D01*
X12549286Y53014524D01*
X12644524Y52966905D01*
X13930238Y47807619D02*
X14501667Y47807619D01*
X14215953Y47807619D02*
X14215953Y48807619D01*
X14311191Y48664762D01*
X14406429Y48569524D01*
X14501667Y48521905D01*
X13073095Y48474286D02*
X13073095Y47807619D01*
X13501667Y48474286D02*
X13501667Y47950476D01*
X13454048Y47855238D01*
X13358810Y47807619D01*
X13215952Y47807619D01*
X13120714Y47855238D01*
X13073095Y47902857D01*
X12263571Y48331429D02*
X12596905Y48331429D01*
X12596905Y47807619D02*
X12596905Y48807619D01*
X12120714Y48807619D01*
X10167857Y52347857D02*
X10215476Y52300238D01*
X10358333Y52252619D01*
X10453571Y52252619D01*
X10596429Y52300238D01*
X10691667Y52395476D01*
X10739286Y52490714D01*
X10786905Y52681190D01*
X10786905Y52824048D01*
X10739286Y53014524D01*
X10691667Y53109762D01*
X10596429Y53205000D01*
X10453571Y53252619D01*
X10358333Y53252619D01*
X10215476Y53205000D01*
X10167857Y53157381D01*
X9834524Y53252619D02*
X9215476Y53252619D01*
X9548810Y52871667D01*
X9405952Y52871667D01*
X9310714Y52824048D01*
X9263095Y52776429D01*
X9215476Y52681190D01*
X9215476Y52443095D01*
X9263095Y52347857D01*
X9310714Y52300238D01*
X9405952Y52252619D01*
X9691667Y52252619D01*
X9786905Y52300238D01*
X9834524Y52347857D01*
X8596429Y53252619D02*
X8501190Y53252619D01*
X8405952Y53205000D01*
X8358333Y53157381D01*
X8310714Y53062143D01*
X8263095Y52871667D01*
X8263095Y52633571D01*
X8310714Y52443095D01*
X8358333Y52347857D01*
X8405952Y52300238D01*
X8501190Y52252619D01*
X8596429Y52252619D01*
X8691667Y52300238D01*
X8739286Y52347857D01*
X8786905Y52443095D01*
X8834524Y52633571D01*
X8834524Y52871667D01*
X8786905Y53062143D01*
X8739286Y53157381D01*
X8691667Y53205000D01*
X8596429Y53252619D01*
X10120238Y47807619D02*
X10691667Y47807619D01*
X10405953Y47807619D02*
X10405953Y48807619D01*
X10501191Y48664762D01*
X10596429Y48569524D01*
X10691667Y48521905D01*
X9263095Y48474286D02*
X9263095Y47807619D01*
X9691667Y48474286D02*
X9691667Y47950476D01*
X9644048Y47855238D01*
X9548810Y47807619D01*
X9405952Y47807619D01*
X9310714Y47855238D01*
X9263095Y47902857D01*
X8453571Y48331429D02*
X8786905Y48331429D01*
X8786905Y47807619D02*
X8786905Y48807619D01*
X8310714Y48807619D01*
X22867857Y52347857D02*
X22915476Y52300238D01*
X23058333Y52252619D01*
X23153571Y52252619D01*
X23296429Y52300238D01*
X23391667Y52395476D01*
X23439286Y52490714D01*
X23486905Y52681190D01*
X23486905Y52824048D01*
X23439286Y53014524D01*
X23391667Y53109762D01*
X23296429Y53205000D01*
X23153571Y53252619D01*
X23058333Y53252619D01*
X22915476Y53205000D01*
X22867857Y53157381D01*
X22486905Y53157381D02*
X22439286Y53205000D01*
X22344048Y53252619D01*
X22105952Y53252619D01*
X22010714Y53205000D01*
X21963095Y53157381D01*
X21915476Y53062143D01*
X21915476Y52966905D01*
X21963095Y52824048D01*
X22534524Y52252619D01*
X21915476Y52252619D01*
X21439286Y52252619D02*
X21248810Y52252619D01*
X21153571Y52300238D01*
X21105952Y52347857D01*
X21010714Y52490714D01*
X20963095Y52681190D01*
X20963095Y53062143D01*
X21010714Y53157381D01*
X21058333Y53205000D01*
X21153571Y53252619D01*
X21344048Y53252619D01*
X21439286Y53205000D01*
X21486905Y53157381D01*
X21534524Y53062143D01*
X21534524Y52824048D01*
X21486905Y52728810D01*
X21439286Y52681190D01*
X21344048Y52633571D01*
X21153571Y52633571D01*
X21058333Y52681190D01*
X21010714Y52728810D01*
X20963095Y52824048D01*
X22820238Y47807619D02*
X23391667Y47807619D01*
X23105953Y47807619D02*
X23105953Y48807619D01*
X23201191Y48664762D01*
X23296429Y48569524D01*
X23391667Y48521905D01*
X21963095Y48474286D02*
X21963095Y47807619D01*
X22391667Y48474286D02*
X22391667Y47950476D01*
X22344048Y47855238D01*
X22248810Y47807619D01*
X22105952Y47807619D01*
X22010714Y47855238D01*
X21963095Y47902857D01*
X21153571Y48331429D02*
X21486905Y48331429D01*
X21486905Y47807619D02*
X21486905Y48807619D01*
X21010714Y48807619D01*
X62730312Y10424611D02*
X62730312Y10357268D01*
X62797656Y10222581D01*
X62864999Y10155237D01*
X62999687Y10087893D01*
X63134374Y10087893D01*
X63235389Y10121565D01*
X63403747Y10222580D01*
X63504763Y10323596D01*
X63605778Y10491955D01*
X63639450Y10592970D01*
X63639450Y10727657D01*
X63572106Y10862344D01*
X63504763Y10929688D01*
X63370076Y10997031D01*
X63302732Y10997031D01*
X63134374Y11300076D02*
X62662969Y11771481D01*
X62258908Y10761328D01*
X66780778Y7721015D02*
X67184840Y8125076D01*
X66982810Y7923046D02*
X66275703Y8630153D01*
X66444061Y8596481D01*
X66578748Y8596481D01*
X66679763Y8630153D01*
X65703282Y7586328D02*
X66174687Y7114924D01*
X66006328Y7889374D02*
X66376718Y7518985D01*
X66410390Y7417970D01*
X66376718Y7316955D01*
X66275702Y7215939D01*
X66174687Y7182267D01*
X66107343Y7182267D01*
X65231877Y6912893D02*
X65467580Y7148596D01*
X65837970Y6778206D02*
X65130863Y7485313D01*
X64794145Y7148595D01*
X60190312Y14869611D02*
X60190312Y14802268D01*
X60257656Y14667581D01*
X60324999Y14600237D01*
X60459687Y14532893D01*
X60594374Y14532893D01*
X60695389Y14566565D01*
X60863747Y14667580D01*
X60964763Y14768596D01*
X61065778Y14936955D01*
X61099450Y15037970D01*
X61099450Y15172657D01*
X61032106Y15307344D01*
X60964763Y15374688D01*
X60830076Y15442031D01*
X60762732Y15442031D01*
X60223984Y16115466D02*
X60358672Y15980778D01*
X60392343Y15879763D01*
X60392343Y15812420D01*
X60358672Y15644061D01*
X60257657Y15475703D01*
X59988282Y15206328D01*
X59887267Y15172657D01*
X59819924Y15172657D01*
X59718908Y15206328D01*
X59584221Y15341016D01*
X59550549Y15442031D01*
X59550549Y15509374D01*
X59584221Y15610390D01*
X59752579Y15778748D01*
X59853595Y15812421D01*
X59920939Y15812421D01*
X60021954Y15778749D01*
X60156641Y15644061D01*
X60190313Y15543046D01*
X60190313Y15475703D01*
X60156641Y15374687D01*
X57890778Y18516015D02*
X58294840Y18920076D01*
X58092810Y18718046D02*
X57385703Y19425153D01*
X57554061Y19391481D01*
X57688748Y19391481D01*
X57789763Y19425153D01*
X56813282Y18381328D02*
X57284687Y17909924D01*
X57116328Y18684374D02*
X57486718Y18313985D01*
X57520390Y18212970D01*
X57486718Y18111955D01*
X57385702Y18010939D01*
X57284687Y17977267D01*
X57217343Y17977267D01*
X56341877Y17707893D02*
X56577580Y17943596D01*
X56947970Y17573206D02*
X56240863Y18280313D01*
X55904145Y17943595D01*
X72763312Y27696611D02*
X72763312Y27629268D01*
X72830656Y27494581D01*
X72897999Y27427237D01*
X73032687Y27359893D01*
X73167374Y27359893D01*
X73268389Y27393565D01*
X73436747Y27494580D01*
X73537763Y27595596D01*
X73638778Y27763955D01*
X73672450Y27864970D01*
X73672450Y27999657D01*
X73605106Y28134344D01*
X73537763Y28201688D01*
X73403076Y28269031D01*
X73335732Y28269031D01*
X72763312Y28976138D02*
X73100030Y28639420D01*
X72796985Y28269031D01*
X72796985Y28336374D01*
X72763313Y28437390D01*
X72594954Y28605749D01*
X72493939Y28639421D01*
X72426595Y28639421D01*
X72325579Y28605748D01*
X72157221Y28437390D01*
X72123549Y28336374D01*
X72123549Y28269031D01*
X72157221Y28168016D01*
X72325580Y27999657D01*
X72426595Y27965985D01*
X72493939Y27965985D01*
X70590778Y31216015D02*
X70994840Y31620076D01*
X70792810Y31418046D02*
X70085703Y32125153D01*
X70254061Y32091481D01*
X70388748Y32091481D01*
X70489763Y32125153D01*
X69513282Y31081328D02*
X69984687Y30609924D01*
X69816328Y31384374D02*
X70186718Y31013985D01*
X70220390Y30912970D01*
X70186718Y30811955D01*
X70085702Y30710939D01*
X69984687Y30677267D01*
X69917343Y30677267D01*
X69041877Y30407893D02*
X69277580Y30643596D01*
X69647970Y30273206D02*
X68940863Y30980313D01*
X68604145Y30643595D01*
X77462312Y25156611D02*
X77462312Y25089268D01*
X77529656Y24954581D01*
X77596999Y24887237D01*
X77731687Y24819893D01*
X77866374Y24819893D01*
X77967389Y24853565D01*
X78135747Y24954580D01*
X78236763Y25055596D01*
X78337778Y25223955D01*
X78371450Y25324970D01*
X78371450Y25459657D01*
X78304106Y25594344D01*
X78236763Y25661688D01*
X78102076Y25729031D01*
X78034732Y25729031D01*
X77260282Y26166764D02*
X76788877Y25695359D01*
X77698015Y26267778D02*
X77361297Y25594343D01*
X76923564Y26032076D01*
X82020778Y22961015D02*
X82424840Y23365076D01*
X82222810Y23163046D02*
X81515703Y23870153D01*
X81684061Y23836481D01*
X81818748Y23836481D01*
X81919763Y23870153D01*
X80943282Y22826328D02*
X81414687Y22354924D01*
X81246328Y23129374D02*
X81616718Y22758985D01*
X81650390Y22657970D01*
X81616718Y22556955D01*
X81515702Y22455939D01*
X81414687Y22422267D01*
X81347343Y22422267D01*
X80471877Y22152893D02*
X80707580Y22388596D01*
X81077970Y22018206D02*
X80370863Y22725313D01*
X80034145Y22388595D01*
X67302312Y14996611D02*
X67302312Y14929268D01*
X67369656Y14794581D01*
X67436999Y14727237D01*
X67571687Y14659893D01*
X67706374Y14659893D01*
X67807389Y14693565D01*
X67975747Y14794580D01*
X68076763Y14895596D01*
X68177778Y15063955D01*
X68211450Y15164970D01*
X68211450Y15299657D01*
X68144106Y15434344D01*
X68076763Y15501688D01*
X67942076Y15569031D01*
X67874732Y15569031D01*
X67706374Y15872076D02*
X67268641Y16309810D01*
X67234970Y15804733D01*
X67133954Y15905749D01*
X67032939Y15939421D01*
X66965595Y15939421D01*
X66864579Y15905748D01*
X66696221Y15737390D01*
X66662549Y15636374D01*
X66662549Y15569031D01*
X66696221Y15468016D01*
X66898252Y15265985D01*
X66999267Y15232313D01*
X67066610Y15232313D01*
X71860778Y12801015D02*
X72264840Y13205076D01*
X72062810Y13003046D02*
X71355703Y13710153D01*
X71524061Y13676481D01*
X71658748Y13676481D01*
X71759763Y13710153D01*
X70783282Y12666328D02*
X71254687Y12194924D01*
X71086328Y12969374D02*
X71456718Y12598985D01*
X71490390Y12497970D01*
X71456718Y12396955D01*
X71355702Y12295939D01*
X71254687Y12262267D01*
X71187343Y12262267D01*
X70311877Y11992893D02*
X70547580Y12228596D01*
X70917970Y11858206D02*
X70210863Y12565313D01*
X69874145Y12228595D01*
X67810312Y22616612D02*
X67810312Y22549269D01*
X67877656Y22414582D01*
X67944999Y22347238D01*
X68079687Y22279894D01*
X68214374Y22279894D01*
X68315389Y22313566D01*
X68483747Y22414581D01*
X68584763Y22515597D01*
X68685778Y22683956D01*
X68719450Y22784971D01*
X68719450Y22919658D01*
X68652106Y23054345D01*
X68584763Y23121689D01*
X68450076Y23189032D01*
X68382732Y23189032D01*
X68113359Y23458406D02*
X68113359Y23525749D01*
X68079687Y23626764D01*
X67911328Y23795124D01*
X67810312Y23828795D01*
X67742969Y23828795D01*
X67641954Y23795124D01*
X67574610Y23727780D01*
X67507267Y23593093D01*
X67507267Y22784971D01*
X67069534Y23222704D01*
X65510778Y26136015D02*
X65914840Y26540076D01*
X65712810Y26338046D02*
X65005703Y27045153D01*
X65174061Y27011481D01*
X65308748Y27011481D01*
X65409763Y27045153D01*
X64433282Y26001328D02*
X64904687Y25529924D01*
X64736328Y26304374D02*
X65106718Y25933985D01*
X65140390Y25832970D01*
X65106718Y25731955D01*
X65005702Y25630939D01*
X64904687Y25597267D01*
X64837343Y25597267D01*
X63961877Y25327893D02*
X64197580Y25563596D01*
X64567970Y25193206D02*
X63860863Y25900313D01*
X63524145Y25563595D01*
X72890312Y20584611D02*
X72890312Y20517268D01*
X72957656Y20382581D01*
X73024999Y20315237D01*
X73159687Y20247893D01*
X73294374Y20247893D01*
X73395389Y20281565D01*
X73563747Y20382580D01*
X73664763Y20483596D01*
X73765778Y20651955D01*
X73799450Y20752970D01*
X73799450Y20887657D01*
X73732106Y21022344D01*
X73664763Y21089688D01*
X73530076Y21157031D01*
X73462732Y21157031D01*
X72149534Y21190703D02*
X72553595Y20786641D01*
X72351565Y20988672D02*
X73058672Y21695778D01*
X73025000Y21527420D01*
X73025000Y21392733D01*
X73058672Y21291718D01*
X76940778Y17881015D02*
X77344840Y18285076D01*
X77142810Y18083046D02*
X76435703Y18790153D01*
X76604061Y18756481D01*
X76738748Y18756481D01*
X76839763Y18790153D01*
X75863282Y17746328D02*
X76334687Y17274924D01*
X76166328Y18049374D02*
X76536718Y17678985D01*
X76570390Y17577970D01*
X76536718Y17476955D01*
X76435702Y17375939D01*
X76334687Y17342267D01*
X76267343Y17342267D01*
X75391877Y17072893D02*
X75627580Y17308596D01*
X75997970Y16938206D02*
X75290863Y17645313D01*
X74954145Y17308595D01*
X121927857Y49712619D02*
X122261191Y50188810D01*
X122499286Y49712619D02*
X122499286Y50712619D01*
X122118333Y50712619D01*
X122023095Y50665000D01*
X121975476Y50617381D01*
X121927857Y50522143D01*
X121927857Y50379286D01*
X121975476Y50284048D01*
X122023095Y50236429D01*
X122118333Y50188810D01*
X122499286Y50188810D01*
X121546905Y50617381D02*
X121499286Y50665000D01*
X121404048Y50712619D01*
X121165952Y50712619D01*
X121070714Y50665000D01*
X121023095Y50617381D01*
X120975476Y50522143D01*
X120975476Y50426905D01*
X121023095Y50284048D01*
X121594524Y49712619D01*
X120975476Y49712619D01*
X120642143Y50712619D02*
X119975476Y50712619D01*
X120404048Y49712619D01*
X121880238Y45267619D02*
X122451667Y45267619D01*
X122165953Y45267619D02*
X122165953Y46267619D01*
X122261191Y46124762D01*
X122356429Y46029524D01*
X122451667Y45981905D01*
X121261191Y46267619D02*
X121165952Y46267619D01*
X121070714Y46220000D01*
X121023095Y46172381D01*
X120975476Y46077143D01*
X120927857Y45886667D01*
X120927857Y45648571D01*
X120975476Y45458095D01*
X121023095Y45362857D01*
X121070714Y45315238D01*
X121165952Y45267619D01*
X121261191Y45267619D01*
X121356429Y45315238D01*
X121404048Y45362857D01*
X121451667Y45458095D01*
X121499286Y45648571D01*
X121499286Y45886667D01*
X121451667Y46077143D01*
X121404048Y46172381D01*
X121356429Y46220000D01*
X121261191Y46267619D01*
X120499286Y45267619D02*
X120499286Y46267619D01*
X120404048Y45648571D02*
X120118333Y45267619D01*
X120118333Y45934286D02*
X120499286Y45553333D01*
X125737857Y49712619D02*
X126071191Y50188810D01*
X126309286Y49712619D02*
X126309286Y50712619D01*
X125928333Y50712619D01*
X125833095Y50665000D01*
X125785476Y50617381D01*
X125737857Y50522143D01*
X125737857Y50379286D01*
X125785476Y50284048D01*
X125833095Y50236429D01*
X125928333Y50188810D01*
X126309286Y50188810D01*
X125356905Y50617381D02*
X125309286Y50665000D01*
X125214048Y50712619D01*
X124975952Y50712619D01*
X124880714Y50665000D01*
X124833095Y50617381D01*
X124785476Y50522143D01*
X124785476Y50426905D01*
X124833095Y50284048D01*
X125404524Y49712619D01*
X124785476Y49712619D01*
X123928333Y50712619D02*
X124118810Y50712619D01*
X124214048Y50665000D01*
X124261667Y50617381D01*
X124356905Y50474524D01*
X124404524Y50284048D01*
X124404524Y49903095D01*
X124356905Y49807857D01*
X124309286Y49760238D01*
X124214048Y49712619D01*
X124023571Y49712619D01*
X123928333Y49760238D01*
X123880714Y49807857D01*
X123833095Y49903095D01*
X123833095Y50141190D01*
X123880714Y50236429D01*
X123928333Y50284048D01*
X124023571Y50331667D01*
X124214048Y50331667D01*
X124309286Y50284048D01*
X124356905Y50236429D01*
X124404524Y50141190D01*
X125690238Y45267619D02*
X126261667Y45267619D01*
X125975953Y45267619D02*
X125975953Y46267619D01*
X126071191Y46124762D01*
X126166429Y46029524D01*
X126261667Y45981905D01*
X125071191Y46267619D02*
X124975952Y46267619D01*
X124880714Y46220000D01*
X124833095Y46172381D01*
X124785476Y46077143D01*
X124737857Y45886667D01*
X124737857Y45648571D01*
X124785476Y45458095D01*
X124833095Y45362857D01*
X124880714Y45315238D01*
X124975952Y45267619D01*
X125071191Y45267619D01*
X125166429Y45315238D01*
X125214048Y45362857D01*
X125261667Y45458095D01*
X125309286Y45648571D01*
X125309286Y45886667D01*
X125261667Y46077143D01*
X125214048Y46172381D01*
X125166429Y46220000D01*
X125071191Y46267619D01*
X124309286Y45267619D02*
X124309286Y46267619D01*
X124214048Y45648571D02*
X123928333Y45267619D01*
X123928333Y45934286D02*
X124309286Y45553333D01*
X113037857Y49712619D02*
X113371191Y50188810D01*
X113609286Y49712619D02*
X113609286Y50712619D01*
X113228333Y50712619D01*
X113133095Y50665000D01*
X113085476Y50617381D01*
X113037857Y50522143D01*
X113037857Y50379286D01*
X113085476Y50284048D01*
X113133095Y50236429D01*
X113228333Y50188810D01*
X113609286Y50188810D01*
X112656905Y50617381D02*
X112609286Y50665000D01*
X112514048Y50712619D01*
X112275952Y50712619D01*
X112180714Y50665000D01*
X112133095Y50617381D01*
X112085476Y50522143D01*
X112085476Y50426905D01*
X112133095Y50284048D01*
X112704524Y49712619D01*
X112085476Y49712619D01*
X111180714Y50712619D02*
X111656905Y50712619D01*
X111704524Y50236429D01*
X111656905Y50284048D01*
X111561667Y50331667D01*
X111323571Y50331667D01*
X111228333Y50284048D01*
X111180714Y50236429D01*
X111133095Y50141190D01*
X111133095Y49903095D01*
X111180714Y49807857D01*
X111228333Y49760238D01*
X111323571Y49712619D01*
X111561667Y49712619D01*
X111656905Y49760238D01*
X111704524Y49807857D01*
X112990238Y45267619D02*
X113561667Y45267619D01*
X113275953Y45267619D02*
X113275953Y46267619D01*
X113371191Y46124762D01*
X113466429Y46029524D01*
X113561667Y45981905D01*
X112371191Y46267619D02*
X112275952Y46267619D01*
X112180714Y46220000D01*
X112133095Y46172381D01*
X112085476Y46077143D01*
X112037857Y45886667D01*
X112037857Y45648571D01*
X112085476Y45458095D01*
X112133095Y45362857D01*
X112180714Y45315238D01*
X112275952Y45267619D01*
X112371191Y45267619D01*
X112466429Y45315238D01*
X112514048Y45362857D01*
X112561667Y45458095D01*
X112609286Y45648571D01*
X112609286Y45886667D01*
X112561667Y46077143D01*
X112514048Y46172381D01*
X112466429Y46220000D01*
X112371191Y46267619D01*
X111609286Y45267619D02*
X111609286Y46267619D01*
X111514048Y45648571D02*
X111228333Y45267619D01*
X111228333Y45934286D02*
X111609286Y45553333D01*
X13977857Y57332619D02*
X14311191Y57808810D01*
X14549286Y57332619D02*
X14549286Y58332619D01*
X14168333Y58332619D01*
X14073095Y58285000D01*
X14025476Y58237381D01*
X13977857Y58142143D01*
X13977857Y57999286D01*
X14025476Y57904048D01*
X14073095Y57856429D01*
X14168333Y57808810D01*
X14549286Y57808810D01*
X13596905Y58237381D02*
X13549286Y58285000D01*
X13454048Y58332619D01*
X13215952Y58332619D01*
X13120714Y58285000D01*
X13073095Y58237381D01*
X13025476Y58142143D01*
X13025476Y58046905D01*
X13073095Y57904048D01*
X13644524Y57332619D01*
X13025476Y57332619D01*
X12692143Y58332619D02*
X12073095Y58332619D01*
X12406429Y57951667D01*
X12263571Y57951667D01*
X12168333Y57904048D01*
X12120714Y57856429D01*
X12073095Y57761190D01*
X12073095Y57523095D01*
X12120714Y57427857D01*
X12168333Y57380238D01*
X12263571Y57332619D01*
X12549286Y57332619D01*
X12644524Y57380238D01*
X12692143Y57427857D01*
X13930238Y61777619D02*
X14501667Y61777619D01*
X14215953Y61777619D02*
X14215953Y62777619D01*
X14311191Y62634762D01*
X14406429Y62539524D01*
X14501667Y62491905D01*
X13311191Y62777619D02*
X13215952Y62777619D01*
X13120714Y62730000D01*
X13073095Y62682381D01*
X13025476Y62587143D01*
X12977857Y62396667D01*
X12977857Y62158571D01*
X13025476Y61968095D01*
X13073095Y61872857D01*
X13120714Y61825238D01*
X13215952Y61777619D01*
X13311191Y61777619D01*
X13406429Y61825238D01*
X13454048Y61872857D01*
X13501667Y61968095D01*
X13549286Y62158571D01*
X13549286Y62396667D01*
X13501667Y62587143D01*
X13454048Y62682381D01*
X13406429Y62730000D01*
X13311191Y62777619D01*
X12549286Y61777619D02*
X12549286Y62777619D01*
X12454048Y62158571D02*
X12168333Y61777619D01*
X12168333Y62444286D02*
X12549286Y62063333D01*
X10167857Y57332619D02*
X10501191Y57808810D01*
X10739286Y57332619D02*
X10739286Y58332619D01*
X10358333Y58332619D01*
X10263095Y58285000D01*
X10215476Y58237381D01*
X10167857Y58142143D01*
X10167857Y57999286D01*
X10215476Y57904048D01*
X10263095Y57856429D01*
X10358333Y57808810D01*
X10739286Y57808810D01*
X9786905Y58237381D02*
X9739286Y58285000D01*
X9644048Y58332619D01*
X9405952Y58332619D01*
X9310714Y58285000D01*
X9263095Y58237381D01*
X9215476Y58142143D01*
X9215476Y58046905D01*
X9263095Y57904048D01*
X9834524Y57332619D01*
X9215476Y57332619D01*
X8834524Y58237381D02*
X8786905Y58285000D01*
X8691667Y58332619D01*
X8453571Y58332619D01*
X8358333Y58285000D01*
X8310714Y58237381D01*
X8263095Y58142143D01*
X8263095Y58046905D01*
X8310714Y57904048D01*
X8882143Y57332619D01*
X8263095Y57332619D01*
X10120238Y61777619D02*
X10691667Y61777619D01*
X10405953Y61777619D02*
X10405953Y62777619D01*
X10501191Y62634762D01*
X10596429Y62539524D01*
X10691667Y62491905D01*
X9501191Y62777619D02*
X9405952Y62777619D01*
X9310714Y62730000D01*
X9263095Y62682381D01*
X9215476Y62587143D01*
X9167857Y62396667D01*
X9167857Y62158571D01*
X9215476Y61968095D01*
X9263095Y61872857D01*
X9310714Y61825238D01*
X9405952Y61777619D01*
X9501191Y61777619D01*
X9596429Y61825238D01*
X9644048Y61872857D01*
X9691667Y61968095D01*
X9739286Y62158571D01*
X9739286Y62396667D01*
X9691667Y62587143D01*
X9644048Y62682381D01*
X9596429Y62730000D01*
X9501191Y62777619D01*
X8739286Y61777619D02*
X8739286Y62777619D01*
X8644048Y62158571D02*
X8358333Y61777619D01*
X8358333Y62444286D02*
X8739286Y62063333D01*
X22867857Y57332619D02*
X23201191Y57808810D01*
X23439286Y57332619D02*
X23439286Y58332619D01*
X23058333Y58332619D01*
X22963095Y58285000D01*
X22915476Y58237381D01*
X22867857Y58142143D01*
X22867857Y57999286D01*
X22915476Y57904048D01*
X22963095Y57856429D01*
X23058333Y57808810D01*
X23439286Y57808810D01*
X22486905Y58237381D02*
X22439286Y58285000D01*
X22344048Y58332619D01*
X22105952Y58332619D01*
X22010714Y58285000D01*
X21963095Y58237381D01*
X21915476Y58142143D01*
X21915476Y58046905D01*
X21963095Y57904048D01*
X22534524Y57332619D01*
X21915476Y57332619D01*
X20963095Y57332619D02*
X21534524Y57332619D01*
X21248810Y57332619D02*
X21248810Y58332619D01*
X21344048Y58189762D01*
X21439286Y58094524D01*
X21534524Y58046905D01*
X22820238Y61777619D02*
X23391667Y61777619D01*
X23105953Y61777619D02*
X23105953Y62777619D01*
X23201191Y62634762D01*
X23296429Y62539524D01*
X23391667Y62491905D01*
X22201191Y62777619D02*
X22105952Y62777619D01*
X22010714Y62730000D01*
X21963095Y62682381D01*
X21915476Y62587143D01*
X21867857Y62396667D01*
X21867857Y62158571D01*
X21915476Y61968095D01*
X21963095Y61872857D01*
X22010714Y61825238D01*
X22105952Y61777619D01*
X22201191Y61777619D01*
X22296429Y61825238D01*
X22344048Y61872857D01*
X22391667Y61968095D01*
X22439286Y62158571D01*
X22439286Y62396667D01*
X22391667Y62587143D01*
X22344048Y62682381D01*
X22296429Y62730000D01*
X22201191Y62777619D01*
X21439286Y61777619D02*
X21439286Y62777619D01*
X21344048Y62158571D02*
X21058333Y61777619D01*
X21058333Y62444286D02*
X21439286Y62063333D01*
X60249969Y7690268D02*
X60822390Y7791283D01*
X60654030Y7286206D02*
X61361137Y7993313D01*
X61091763Y8262688D01*
X60990747Y8296359D01*
X60923404Y8296359D01*
X60822389Y8262688D01*
X60721374Y8161672D01*
X60687702Y8060657D01*
X60687702Y7993314D01*
X60721374Y7892299D01*
X60990748Y7622924D01*
X60249970Y8498390D02*
X60350985Y8464718D01*
X60418328Y8464718D01*
X60519343Y8498390D01*
X60553015Y8532061D01*
X60586687Y8633076D01*
X60586687Y8700420D01*
X60553015Y8801435D01*
X60418328Y8936123D01*
X60317312Y8969794D01*
X60249969Y8969794D01*
X60148954Y8936123D01*
X60115282Y8902451D01*
X60081610Y8801436D01*
X60081610Y8734092D01*
X60115282Y8633077D01*
X60249970Y8498390D01*
X60283641Y8397374D01*
X60283641Y8330031D01*
X60249969Y8229015D01*
X60115282Y8094328D01*
X60014267Y8060657D01*
X59946924Y8060657D01*
X59845908Y8094328D01*
X59711221Y8229016D01*
X59677549Y8330031D01*
X59677549Y8397374D01*
X59711221Y8498390D01*
X59845908Y8633076D01*
X59946924Y8666749D01*
X60014267Y8666749D01*
X60115282Y8633077D01*
X64240778Y5181015D02*
X64644840Y5585076D01*
X64442810Y5383046D02*
X63735703Y6090153D01*
X63904061Y6056481D01*
X64038748Y6056481D01*
X64139763Y6090153D01*
X63095939Y5450390D02*
X63028595Y5383045D01*
X62994924Y5282030D01*
X62994924Y5214687D01*
X63028595Y5113672D01*
X63129610Y4945313D01*
X63297970Y4776954D01*
X63466328Y4675939D01*
X63567343Y4642267D01*
X63634687Y4642267D01*
X63735702Y4675939D01*
X63803046Y4743283D01*
X63836718Y4844298D01*
X63836718Y4911641D01*
X63803046Y5012657D01*
X63702031Y5181015D01*
X63533672Y5349374D01*
X63365313Y5450390D01*
X63264298Y5484061D01*
X63196955Y5484061D01*
X63095939Y5450390D01*
X63264298Y4204535D02*
X62557191Y4911641D01*
X62927581Y4406565D02*
X62994924Y3935160D01*
X62523519Y4406565D02*
X63062268Y4406565D01*
X57582969Y12262268D02*
X58155390Y12363283D01*
X57987030Y11858206D02*
X58694137Y12565313D01*
X58424763Y12834688D01*
X58323747Y12868359D01*
X58256404Y12868359D01*
X58155389Y12834688D01*
X58054374Y12733672D01*
X58020702Y12632657D01*
X58020702Y12565314D01*
X58054374Y12464299D01*
X58323748Y12194924D01*
X58054374Y13205076D02*
X57582969Y13676481D01*
X57178908Y12666328D01*
X55350778Y15976015D02*
X55754840Y16380076D01*
X55552810Y16178046D02*
X54845703Y16885153D01*
X55014061Y16851481D01*
X55148748Y16851481D01*
X55249763Y16885153D01*
X54205939Y16245390D02*
X54138595Y16178045D01*
X54104924Y16077030D01*
X54104924Y16009687D01*
X54138595Y15908672D01*
X54239610Y15740313D01*
X54407970Y15571954D01*
X54576328Y15470939D01*
X54677343Y15437267D01*
X54744687Y15437267D01*
X54845702Y15470939D01*
X54913046Y15538283D01*
X54946718Y15639298D01*
X54946718Y15706641D01*
X54913046Y15807657D01*
X54812031Y15976015D01*
X54643672Y16144374D01*
X54475313Y16245390D01*
X54374298Y16279061D01*
X54306955Y16279061D01*
X54205939Y16245390D01*
X54374298Y14999535D02*
X53667191Y15706641D01*
X54037581Y15201565D02*
X54104924Y14730160D01*
X53633519Y15201565D02*
X54172268Y15201565D01*
X70155969Y25089268D02*
X70728390Y25190283D01*
X70560030Y24685206D02*
X71267137Y25392313D01*
X70997763Y25661688D01*
X70896747Y25695359D01*
X70829404Y25695359D01*
X70728389Y25661688D01*
X70627374Y25560672D01*
X70593702Y25459657D01*
X70593702Y25392314D01*
X70627374Y25291299D01*
X70896748Y25021924D01*
X70256984Y26402466D02*
X70391672Y26267778D01*
X70425343Y26166763D01*
X70425343Y26099420D01*
X70391672Y25931061D01*
X70290657Y25762703D01*
X70021282Y25493328D01*
X69920267Y25459657D01*
X69852924Y25459657D01*
X69751908Y25493328D01*
X69617221Y25628016D01*
X69583549Y25729031D01*
X69583549Y25796374D01*
X69617221Y25897390D01*
X69785579Y26065748D01*
X69886595Y26099421D01*
X69953939Y26099421D01*
X70054954Y26065749D01*
X70189641Y25931061D01*
X70223313Y25830046D01*
X70223313Y25762703D01*
X70189641Y25661687D01*
X68050778Y28676015D02*
X68454840Y29080076D01*
X68252810Y28878046D02*
X67545703Y29585153D01*
X67714061Y29551481D01*
X67848748Y29551481D01*
X67949763Y29585153D01*
X66905939Y28945390D02*
X66838595Y28878045D01*
X66804924Y28777030D01*
X66804924Y28709687D01*
X66838595Y28608672D01*
X66939610Y28440313D01*
X67107970Y28271954D01*
X67276328Y28170939D01*
X67377343Y28137267D01*
X67444687Y28137267D01*
X67545702Y28170939D01*
X67613046Y28238283D01*
X67646718Y28339298D01*
X67646718Y28406641D01*
X67613046Y28507657D01*
X67512031Y28676015D01*
X67343672Y28844374D01*
X67175313Y28945390D01*
X67074298Y28979061D01*
X67006955Y28979061D01*
X66905939Y28945390D01*
X67074298Y27699535D02*
X66367191Y28406641D01*
X66737581Y27901565D02*
X66804924Y27430160D01*
X66333519Y27901565D02*
X66872268Y27901565D01*
X75362969Y23057268D02*
X75935390Y23158283D01*
X75767030Y22653206D02*
X76474137Y23360313D01*
X76204763Y23629688D01*
X76103747Y23663359D01*
X76036404Y23663359D01*
X75935389Y23629688D01*
X75834374Y23528672D01*
X75800702Y23427657D01*
X75800702Y23360314D01*
X75834374Y23259299D01*
X76103748Y22989924D01*
X75430312Y24404138D02*
X75767030Y24067420D01*
X75463985Y23697031D01*
X75463985Y23764374D01*
X75430313Y23865390D01*
X75261954Y24033749D01*
X75160939Y24067421D01*
X75093595Y24067421D01*
X74992579Y24033748D01*
X74824221Y23865390D01*
X74790549Y23764374D01*
X74790549Y23697031D01*
X74824221Y23596016D01*
X74992580Y23427657D01*
X75093595Y23393985D01*
X75160939Y23393985D01*
X79480778Y20421015D02*
X79884840Y20825076D01*
X79682810Y20623046D02*
X78975703Y21330153D01*
X79144061Y21296481D01*
X79278748Y21296481D01*
X79379763Y21330153D01*
X78335939Y20690390D02*
X78268595Y20623045D01*
X78234924Y20522030D01*
X78234924Y20454687D01*
X78268595Y20353672D01*
X78369610Y20185313D01*
X78537970Y20016954D01*
X78706328Y19915939D01*
X78807343Y19882267D01*
X78874687Y19882267D01*
X78975702Y19915939D01*
X79043046Y19983283D01*
X79076718Y20084298D01*
X79076718Y20151641D01*
X79043046Y20252657D01*
X78942031Y20421015D01*
X78773672Y20589374D01*
X78605313Y20690390D01*
X78504298Y20724061D01*
X78436955Y20724061D01*
X78335939Y20690390D01*
X78504298Y19444535D02*
X77797191Y20151641D01*
X78167581Y19646565D02*
X78234924Y19175160D01*
X77763519Y19646565D02*
X78302268Y19646565D01*
X65202969Y12770267D02*
X65775390Y12871282D01*
X65607030Y12366205D02*
X66314137Y13073312D01*
X66044763Y13342687D01*
X65943747Y13376358D01*
X65876404Y13376358D01*
X65775389Y13342687D01*
X65674374Y13241671D01*
X65640702Y13140656D01*
X65640702Y13073313D01*
X65674374Y12972298D01*
X65943748Y12702923D01*
X65068282Y13847763D02*
X64596877Y13376358D01*
X65506015Y13948777D02*
X65169297Y13275342D01*
X64731564Y13713075D01*
X69320778Y10261015D02*
X69724840Y10665076D01*
X69522810Y10463046D02*
X68815703Y11170153D01*
X68984061Y11136481D01*
X69118748Y11136481D01*
X69219763Y11170153D01*
X68175939Y10530390D02*
X68108595Y10463045D01*
X68074924Y10362030D01*
X68074924Y10294687D01*
X68108595Y10193672D01*
X68209610Y10025313D01*
X68377970Y9856954D01*
X68546328Y9755939D01*
X68647343Y9722267D01*
X68714687Y9722267D01*
X68815702Y9755939D01*
X68883046Y9823283D01*
X68916718Y9924298D01*
X68916718Y9991641D01*
X68883046Y10092657D01*
X68782031Y10261015D01*
X68613672Y10429374D01*
X68445313Y10530390D01*
X68344298Y10564061D01*
X68276955Y10564061D01*
X68175939Y10530390D01*
X68344298Y9284535D02*
X67637191Y9991641D01*
X68007581Y9486565D02*
X68074924Y9015160D01*
X67603519Y9486565D02*
X68142268Y9486565D01*
X62662969Y17342268D02*
X63235390Y17443283D01*
X63067030Y16938206D02*
X63774137Y17645313D01*
X63504763Y17914688D01*
X63403747Y17948359D01*
X63336404Y17948359D01*
X63235389Y17914688D01*
X63134374Y17813672D01*
X63100702Y17712657D01*
X63100702Y17645314D01*
X63134374Y17544299D01*
X63403748Y17274924D01*
X63134374Y18285076D02*
X62696641Y18722810D01*
X62662970Y18217733D01*
X62561954Y18318749D01*
X62460939Y18352421D01*
X62393595Y18352421D01*
X62292579Y18318748D01*
X62124221Y18150390D01*
X62090549Y18049374D01*
X62090549Y17982031D01*
X62124221Y17881016D01*
X62326252Y17678985D01*
X62427267Y17645313D01*
X62494610Y17645313D01*
X60430778Y21056015D02*
X60834840Y21460076D01*
X60632810Y21258046D02*
X59925703Y21965153D01*
X60094061Y21931481D01*
X60228748Y21931481D01*
X60329763Y21965153D01*
X59285939Y21325390D02*
X59218595Y21258045D01*
X59184924Y21157030D01*
X59184924Y21089687D01*
X59218595Y20988672D01*
X59319610Y20820313D01*
X59487970Y20651954D01*
X59656328Y20550939D01*
X59757343Y20517267D01*
X59824687Y20517267D01*
X59925702Y20550939D01*
X59993046Y20618283D01*
X60026718Y20719298D01*
X60026718Y20786641D01*
X59993046Y20887657D01*
X59892031Y21056015D01*
X59723672Y21224374D01*
X59555313Y21325390D01*
X59454298Y21359061D01*
X59386955Y21359061D01*
X59285939Y21325390D01*
X59454298Y20079535D02*
X58747191Y20786641D01*
X59117581Y20281565D02*
X59184924Y19810160D01*
X58713519Y20281565D02*
X59252268Y20281565D01*
X70282969Y17977268D02*
X70855390Y18078283D01*
X70687030Y17573206D02*
X71394137Y18280313D01*
X71124763Y18549688D01*
X71023747Y18583359D01*
X70956404Y18583359D01*
X70855389Y18549688D01*
X70754374Y18448672D01*
X70720702Y18347657D01*
X70720702Y18280314D01*
X70754374Y18179299D01*
X71023748Y17909924D01*
X70653359Y18886405D02*
X70653359Y18953748D01*
X70619687Y19054763D01*
X70451328Y19223123D01*
X70350312Y19256794D01*
X70282969Y19256794D01*
X70181954Y19223123D01*
X70114610Y19155779D01*
X70047267Y19021092D01*
X70047267Y18212970D01*
X69609534Y18650703D01*
X74400778Y15341015D02*
X74804840Y15745076D01*
X74602810Y15543046D02*
X73895703Y16250153D01*
X74064061Y16216481D01*
X74198748Y16216481D01*
X74299763Y16250153D01*
X73255939Y15610390D02*
X73188595Y15543045D01*
X73154924Y15442030D01*
X73154924Y15374687D01*
X73188595Y15273672D01*
X73289610Y15105313D01*
X73457970Y14936954D01*
X73626328Y14835939D01*
X73727343Y14802267D01*
X73794687Y14802267D01*
X73895702Y14835939D01*
X73963046Y14903283D01*
X73996718Y15004298D01*
X73996718Y15071641D01*
X73963046Y15172657D01*
X73862031Y15341015D01*
X73693672Y15509374D01*
X73525313Y15610390D01*
X73424298Y15644061D01*
X73356955Y15644061D01*
X73255939Y15610390D01*
X73424298Y14364535D02*
X72717191Y15071641D01*
X73087581Y14566565D02*
X73154924Y14095160D01*
X72683519Y14566565D02*
X73222268Y14566565D01*
X94146666Y61142619D02*
X94480000Y61618810D01*
X94718095Y61142619D02*
X94718095Y62142619D01*
X94337142Y62142619D01*
X94241904Y62095000D01*
X94194285Y62047381D01*
X94146666Y61952143D01*
X94146666Y61809286D01*
X94194285Y61714048D01*
X94241904Y61666429D01*
X94337142Y61618810D01*
X94718095Y61618810D01*
X93194285Y61142619D02*
X93765714Y61142619D01*
X93480000Y61142619D02*
X93480000Y62142619D01*
X93575238Y61999762D01*
X93670476Y61904524D01*
X93765714Y61856905D01*
X94432381Y64730238D02*
X94432381Y65301667D01*
X94432381Y65015953D02*
X93432381Y65015953D01*
X93575238Y65111191D01*
X93670476Y65206429D01*
X93718095Y65301667D01*
X93432381Y64111191D02*
X93432381Y64015952D01*
X93480000Y63920714D01*
X93527619Y63873095D01*
X93622857Y63825476D01*
X93813333Y63777857D01*
X94051429Y63777857D01*
X94241905Y63825476D01*
X94337143Y63873095D01*
X94384762Y63920714D01*
X94432381Y64015952D01*
X94432381Y64111191D01*
X94384762Y64206429D01*
X94337143Y64254048D01*
X94241905Y64301667D01*
X94051429Y64349286D01*
X93813333Y64349286D01*
X93622857Y64301667D01*
X93527619Y64254048D01*
X93480000Y64206429D01*
X93432381Y64111191D01*
X94432381Y63349286D02*
X93432381Y63349286D01*
X94051429Y63254048D02*
X94432381Y62968333D01*
X93765714Y62968333D02*
X94146667Y63349286D01*
D14*
X62217904Y70406381D02*
X62217904Y69583905D01*
X62169523Y69487143D01*
X62121142Y69438762D01*
X62024380Y69390381D01*
X61830857Y69390381D01*
X61734095Y69438762D01*
X61685714Y69487143D01*
X61637333Y69583905D01*
X61637333Y70406381D01*
X60621333Y69390381D02*
X61201904Y69390381D01*
X60911618Y69390381D02*
X60911618Y70406381D01*
X61008380Y70261238D01*
X61105142Y70164476D01*
X61201904Y70116095D01*
X59992380Y70406381D02*
X59895619Y70406381D01*
X59798857Y70358000D01*
X59750476Y70309619D01*
X59702095Y70212857D01*
X59653714Y70019333D01*
X59653714Y69777429D01*
X59702095Y69583905D01*
X59750476Y69487143D01*
X59798857Y69438762D01*
X59895619Y69390381D01*
X59992380Y69390381D01*
X60089142Y69438762D01*
X60137523Y69487143D01*
X60185904Y69583905D01*
X60234285Y69777429D01*
X60234285Y70019333D01*
X60185904Y70212857D01*
X60137523Y70309619D01*
X60089142Y70358000D01*
X59992380Y70406381D01*
X63524190Y71295381D02*
X63524190Y72311381D01*
X63137143Y72311381D01*
X63040381Y72263000D01*
X62992000Y72214619D01*
X62943619Y72117857D01*
X62943619Y71972714D01*
X62992000Y71875952D01*
X63040381Y71827571D01*
X63137143Y71779190D01*
X63524190Y71779190D01*
X62508190Y71295381D02*
X62508190Y71972714D01*
X62508190Y71779190D02*
X62459809Y71875952D01*
X62411428Y71924333D01*
X62314666Y71972714D01*
X62217905Y71972714D01*
X61734095Y71295381D02*
X61830857Y71343762D01*
X61879238Y71392143D01*
X61927619Y71488905D01*
X61927619Y71779190D01*
X61879238Y71875952D01*
X61830857Y71924333D01*
X61734095Y71972714D01*
X61588953Y71972714D01*
X61492191Y71924333D01*
X61443810Y71875952D01*
X61395429Y71779190D01*
X61395429Y71488905D01*
X61443810Y71392143D01*
X61492191Y71343762D01*
X61588953Y71295381D01*
X61734095Y71295381D01*
X60960000Y71295381D02*
X60960000Y72311381D01*
X60621334Y71585667D01*
X60282667Y72311381D01*
X60282667Y71295381D01*
X59798857Y71295381D02*
X59798857Y71972714D01*
X59798857Y72311381D02*
X59847238Y72263000D01*
X59798857Y72214619D01*
X59750476Y72263000D01*
X59798857Y72311381D01*
X59798857Y72214619D01*
X59315047Y71972714D02*
X59315047Y71295381D01*
X59315047Y71875952D02*
X59266666Y71924333D01*
X59169904Y71972714D01*
X59024762Y71972714D01*
X58928000Y71924333D01*
X58879619Y71827571D01*
X58879619Y71295381D01*
X58395809Y71295381D02*
X58395809Y71972714D01*
X58395809Y72311381D02*
X58444190Y72263000D01*
X58395809Y72214619D01*
X58347428Y72263000D01*
X58395809Y72311381D01*
X58395809Y72214619D01*
X77609095Y71343762D02*
X77463952Y71295381D01*
X77222048Y71295381D01*
X77125286Y71343762D01*
X77076905Y71392143D01*
X77028524Y71488905D01*
X77028524Y71585667D01*
X77076905Y71682429D01*
X77125286Y71730810D01*
X77222048Y71779190D01*
X77415571Y71827571D01*
X77512333Y71875952D01*
X77560714Y71924333D01*
X77609095Y72021095D01*
X77609095Y72117857D01*
X77560714Y72214619D01*
X77512333Y72263000D01*
X77415571Y72311381D01*
X77173667Y72311381D01*
X77028524Y72263000D01*
X76641476Y72214619D02*
X76593095Y72263000D01*
X76496333Y72311381D01*
X76254429Y72311381D01*
X76157667Y72263000D01*
X76109286Y72214619D01*
X76060905Y72117857D01*
X76060905Y72021095D01*
X76109286Y71875952D01*
X76689857Y71295381D01*
X76060905Y71295381D01*
X79254047Y65961381D02*
X79060524Y65961381D01*
X78963762Y65913000D01*
X78867000Y65816238D01*
X78818619Y65622714D01*
X78818619Y65284048D01*
X78867000Y65090524D01*
X78963762Y64993762D01*
X79060524Y64945381D01*
X79254047Y64945381D01*
X79350809Y64993762D01*
X79447571Y65090524D01*
X79495952Y65284048D01*
X79495952Y65622714D01*
X79447571Y65816238D01*
X79350809Y65913000D01*
X79254047Y65961381D01*
X78383190Y64945381D02*
X78383190Y65961381D01*
X77802619Y64945381D01*
X77802619Y65961381D01*
X77560714Y64848619D02*
X76786619Y64848619D01*
X76351190Y65961381D02*
X76157667Y65961381D01*
X76060905Y65913000D01*
X75964143Y65816238D01*
X75915762Y65622714D01*
X75915762Y65284048D01*
X75964143Y65090524D01*
X76060905Y64993762D01*
X76157667Y64945381D01*
X76351190Y64945381D01*
X76447952Y64993762D01*
X76544714Y65090524D01*
X76593095Y65284048D01*
X76593095Y65622714D01*
X76544714Y65816238D01*
X76447952Y65913000D01*
X76351190Y65961381D01*
X75141667Y65477571D02*
X75480333Y65477571D01*
X75480333Y64945381D02*
X75480333Y65961381D01*
X74996524Y65961381D01*
X74270810Y65477571D02*
X74609476Y65477571D01*
X74609476Y64945381D02*
X74609476Y65961381D01*
X74125667Y65961381D01*
D10*
X24075571Y35251571D02*
X23966714Y35215286D01*
X23785285Y35215286D01*
X23712714Y35251571D01*
X23676428Y35287857D01*
X23640143Y35360429D01*
X23640143Y35433000D01*
X23676428Y35505571D01*
X23712714Y35541857D01*
X23785285Y35578143D01*
X23930428Y35614429D01*
X24003000Y35650714D01*
X24039285Y35687000D01*
X24075571Y35759571D01*
X24075571Y35832143D01*
X24039285Y35904714D01*
X24003000Y35941000D01*
X23930428Y35977286D01*
X23749000Y35977286D01*
X23640143Y35941000D01*
X23386143Y35977286D02*
X22914429Y35977286D01*
X23168429Y35687000D01*
X23059571Y35687000D01*
X22987000Y35650714D01*
X22950714Y35614429D01*
X22914429Y35541857D01*
X22914429Y35360429D01*
X22950714Y35287857D01*
X22987000Y35251571D01*
X23059571Y35215286D01*
X23277286Y35215286D01*
X23349857Y35251571D01*
X23386143Y35287857D01*
X24583571Y29500286D02*
X24583571Y30262286D01*
X24293286Y30262286D01*
X24220714Y30226000D01*
X24184429Y30189714D01*
X24148143Y30117143D01*
X24148143Y30008286D01*
X24184429Y29935714D01*
X24220714Y29899429D01*
X24293286Y29863143D01*
X24583571Y29863143D01*
X23857857Y29718000D02*
X23495000Y29718000D01*
X23930429Y29500286D02*
X23676429Y30262286D01*
X23422429Y29500286D01*
X23168428Y29500286D02*
X23168428Y30262286D01*
X22370143Y29500286D02*
X22624143Y29863143D01*
X22805571Y29500286D02*
X22805571Y30262286D01*
X22515286Y30262286D01*
X22442714Y30226000D01*
X22406429Y30189714D01*
X22370143Y30117143D01*
X22370143Y30008286D01*
X22406429Y29935714D01*
X22442714Y29899429D01*
X22515286Y29863143D01*
X22805571Y29863143D01*
%LPC*%
D15*
X41910000Y66675000D03*
X41910000Y64135000D03*
X41910000Y61595000D03*
X41910000Y59055000D03*
X41910000Y56515000D03*
D16*
X41910000Y53975000D03*
D15*
X41910000Y51435000D03*
X41910000Y48895000D03*
X41910000Y46355000D03*
X41910000Y43815000D03*
D17*
X41910000Y40640000D03*
X92710000Y40640000D03*
X92710000Y69850000D03*
X41910000Y69850000D03*
D18*
X85090000Y28575000D03*
X85090000Y31115000D03*
X85090000Y33655000D03*
X85090000Y36195000D03*
X85090000Y38735000D03*
X85090000Y41275000D03*
X85090000Y43815000D03*
X85090000Y46355000D03*
X85090000Y48895000D03*
X85090000Y51435000D03*
X85090000Y53975000D03*
X85090000Y56515000D03*
X105410000Y66675000D03*
X105410000Y64135000D03*
X105410000Y61595000D03*
X105410000Y59055000D03*
X105410000Y56515000D03*
X105410000Y53975000D03*
X105410000Y51435000D03*
X105410000Y48895000D03*
X105410000Y46355000D03*
X105410000Y43815000D03*
X105410000Y41275000D03*
X105410000Y38735000D03*
X105410000Y36195000D03*
X105410000Y33655000D03*
X105410000Y31115000D03*
X105410000Y28575000D03*
D17*
X86360000Y70485000D03*
X104140000Y70485000D03*
D19*
X87630000Y28575000D03*
X87630000Y31115000D03*
X87630000Y33655000D03*
X87630000Y36195000D03*
X87630000Y38735000D03*
X87630000Y41275000D03*
X87630000Y43815000D03*
X87630000Y46355000D03*
X87630000Y48895000D03*
X87630000Y51435000D03*
X87630000Y53975000D03*
X87630000Y56515000D03*
X102870000Y66675000D03*
X102870000Y64135000D03*
X102870000Y61595000D03*
X102870000Y59055000D03*
X102870000Y56515000D03*
X102870000Y53975000D03*
X102870000Y51435000D03*
X102870000Y48895000D03*
X102870000Y46355000D03*
X102870000Y43815000D03*
X102870000Y41275000D03*
X102870000Y38735000D03*
X102870000Y36195000D03*
X102870000Y33655000D03*
X102870000Y31115000D03*
X102870000Y28575000D03*
D17*
X86360000Y24765000D03*
X104140000Y24765000D03*
D20*
X113385600Y39649400D03*
X113385600Y31470600D03*
X108864400Y31470600D03*
X108864400Y39649400D03*
D18*
X49530000Y67310000D03*
X49530000Y64770000D03*
X49530000Y62230000D03*
X49530000Y59690000D03*
X49530000Y57150000D03*
X49530000Y54610000D03*
X49530000Y52070000D03*
X49530000Y49530000D03*
X49530000Y46990000D03*
X49530000Y44450000D03*
X49530000Y41910000D03*
X49530000Y39370000D03*
D21*
X45720000Y34925000D03*
X43180000Y34925000D03*
X40640000Y34925000D03*
X38100000Y34925000D03*
X35560000Y34925000D03*
X33020000Y34925000D03*
D18*
X29210000Y39370000D03*
X29210000Y41910000D03*
X29210000Y44450000D03*
X29210000Y46990000D03*
X29210000Y49530000D03*
X29210000Y52070000D03*
X29210000Y54610000D03*
X29210000Y57150000D03*
X29210000Y59690000D03*
X29210000Y62230000D03*
X29210000Y64770000D03*
X29210000Y67310000D03*
D17*
X48895000Y35560000D03*
X29845000Y35560000D03*
X29845000Y71120000D03*
X48895000Y71120000D03*
D22*
X46990000Y67310000D03*
X46990000Y64770000D03*
X46990000Y62230000D03*
X46990000Y59690000D03*
X46990000Y57150000D03*
X46990000Y54610000D03*
X46990000Y52070000D03*
X46990000Y49530000D03*
X46990000Y46990000D03*
X46990000Y44450000D03*
X46990000Y41910000D03*
X46990000Y39370000D03*
X31750000Y39370000D03*
X31750000Y41910000D03*
X31750000Y44450000D03*
X31750000Y46990000D03*
X31750000Y49530000D03*
X31750000Y52070000D03*
X31750000Y54610000D03*
X31750000Y57150000D03*
X31750000Y59690000D03*
X31750000Y62230000D03*
D23*
X31750000Y64770000D03*
X31750000Y67310000D03*
D17*
X48260000Y24765000D03*
X30480000Y24765000D03*
X118110000Y35560000D03*
X16510000Y35560000D03*
D24*
X121285000Y60230000D03*
X121285000Y64230000D03*
X125095000Y60230000D03*
X125095000Y64230000D03*
X112395000Y60230000D03*
X112395000Y64230000D03*
X13335000Y50260000D03*
X13335000Y46260000D03*
X9525000Y50260000D03*
X9525000Y46260000D03*
X22225000Y50260000D03*
X22225000Y46260000D03*
D10*
G36*
X69328047Y6382563D02*
X67277437Y4331953D01*
X65580381Y6029009D01*
X67630991Y8079619D01*
X69328047Y6382563D01*
X69328047Y6382563D01*
G37*
G36*
X66499619Y9210991D02*
X64449009Y7160381D01*
X62751953Y8857437D01*
X64802563Y10908047D01*
X66499619Y9210991D01*
X66499619Y9210991D01*
G37*
G36*
X60438047Y17177563D02*
X58387437Y15126953D01*
X56690381Y16824009D01*
X58740991Y18874619D01*
X60438047Y17177563D01*
X60438047Y17177563D01*
G37*
G36*
X57609619Y20005991D02*
X55559009Y17955381D01*
X53861953Y19652437D01*
X55912563Y21703047D01*
X57609619Y20005991D01*
X57609619Y20005991D01*
G37*
G36*
X66561953Y32352437D02*
X68612563Y34403047D01*
X70309619Y32705991D01*
X68259009Y30655381D01*
X66561953Y32352437D01*
X66561953Y32352437D01*
G37*
G36*
X69390381Y29524009D02*
X71440991Y31574619D01*
X73138047Y29877563D01*
X71087437Y27826953D01*
X69390381Y29524009D01*
X69390381Y29524009D01*
G37*
G36*
X77991953Y24097437D02*
X80042563Y26148047D01*
X81739619Y24450991D01*
X79689009Y22400381D01*
X77991953Y24097437D01*
X77991953Y24097437D01*
G37*
G36*
X80820381Y21269009D02*
X82870991Y23319619D01*
X84568047Y21622563D01*
X82517437Y19571953D01*
X80820381Y21269009D01*
X80820381Y21269009D01*
G37*
G36*
X67831953Y13937437D02*
X69882563Y15988047D01*
X71579619Y14290991D01*
X69529009Y12240381D01*
X67831953Y13937437D01*
X67831953Y13937437D01*
G37*
G36*
X70660381Y11109009D02*
X72710991Y13159619D01*
X74408047Y11462563D01*
X72357437Y9411953D01*
X70660381Y11109009D01*
X70660381Y11109009D01*
G37*
G36*
X61481953Y27272437D02*
X63532563Y29323047D01*
X65229619Y27625991D01*
X63179009Y25575381D01*
X61481953Y27272437D01*
X61481953Y27272437D01*
G37*
G36*
X64310381Y24444009D02*
X66360991Y26494619D01*
X68058047Y24797563D01*
X66007437Y22746953D01*
X64310381Y24444009D01*
X64310381Y24444009D01*
G37*
G36*
X72911953Y19017437D02*
X74962563Y21068047D01*
X76659619Y19370991D01*
X74609009Y17320381D01*
X72911953Y19017437D01*
X72911953Y19017437D01*
G37*
G36*
X75740381Y16189009D02*
X77790991Y18239619D01*
X79488047Y16542563D01*
X77437437Y14491953D01*
X75740381Y16189009D01*
X75740381Y16189009D01*
G37*
D24*
X121285000Y43720000D03*
X121285000Y47720000D03*
X125095000Y43720000D03*
X125095000Y47720000D03*
X112395000Y43720000D03*
X112395000Y47720000D03*
X13335000Y64230000D03*
X13335000Y60230000D03*
X9525000Y64230000D03*
X9525000Y60230000D03*
X22225000Y64230000D03*
X22225000Y60230000D03*
D10*
G36*
X60211953Y6317437D02*
X62262563Y8368047D01*
X63959619Y6670991D01*
X61909009Y4620381D01*
X60211953Y6317437D01*
X60211953Y6317437D01*
G37*
G36*
X63040381Y3489009D02*
X65090991Y5539619D01*
X66788047Y3842563D01*
X64737437Y1791953D01*
X63040381Y3489009D01*
X63040381Y3489009D01*
G37*
G36*
X51321953Y17112437D02*
X53372563Y19163047D01*
X55069619Y17465991D01*
X53019009Y15415381D01*
X51321953Y17112437D01*
X51321953Y17112437D01*
G37*
G36*
X54150381Y14284009D02*
X56200991Y16334619D01*
X57898047Y14637563D01*
X55847437Y12586953D01*
X54150381Y14284009D01*
X54150381Y14284009D01*
G37*
G36*
X70598047Y27337563D02*
X68547437Y25286953D01*
X66850381Y26984009D01*
X68900991Y29034619D01*
X70598047Y27337563D01*
X70598047Y27337563D01*
G37*
G36*
X67769619Y30165991D02*
X65719009Y28115381D01*
X64021953Y29812437D01*
X66072563Y31863047D01*
X67769619Y30165991D01*
X67769619Y30165991D01*
G37*
G36*
X82028047Y19082563D02*
X79977437Y17031953D01*
X78280381Y18729009D01*
X80330991Y20779619D01*
X82028047Y19082563D01*
X82028047Y19082563D01*
G37*
G36*
X79199619Y21910991D02*
X77149009Y19860381D01*
X75451953Y21557437D01*
X77502563Y23608047D01*
X79199619Y21910991D01*
X79199619Y21910991D01*
G37*
G36*
X71868047Y8922563D02*
X69817437Y6871953D01*
X68120381Y8569009D01*
X70170991Y10619619D01*
X71868047Y8922563D01*
X71868047Y8922563D01*
G37*
G36*
X69039619Y11750991D02*
X66989009Y9700381D01*
X65291953Y11397437D01*
X67342563Y13448047D01*
X69039619Y11750991D01*
X69039619Y11750991D01*
G37*
G36*
X62978047Y19717563D02*
X60927437Y17666953D01*
X59230381Y19364009D01*
X61280991Y21414619D01*
X62978047Y19717563D01*
X62978047Y19717563D01*
G37*
G36*
X60149619Y22545991D02*
X58099009Y20495381D01*
X56401953Y22192437D01*
X58452563Y24243047D01*
X60149619Y22545991D01*
X60149619Y22545991D01*
G37*
G36*
X76948047Y14002563D02*
X74897437Y11951953D01*
X73200381Y13649009D01*
X75250991Y15699619D01*
X76948047Y14002563D01*
X76948047Y14002563D01*
G37*
G36*
X74119619Y16830991D02*
X72069009Y14780381D01*
X70371953Y16477437D01*
X72422563Y18528047D01*
X74119619Y16830991D01*
X74119619Y16830991D01*
G37*
D25*
X95980000Y64135000D03*
X91980000Y64135000D03*
D26*
X68420158Y17304842D03*
D27*
X56703398Y29021602D03*
D26*
X60762191Y11867191D03*
D27*
X77916602Y7808398D03*
D26*
X73857809Y24962809D03*
D27*
X56703398Y7808398D03*
X77916602Y29021602D03*
D28*
X64128019Y15233019D03*
X70491981Y21596981D03*
D26*
X52206199Y10665110D03*
X60762191Y24962809D03*
X63703755Y34565319D03*
X70916245Y2264681D03*
X83389608Y15162309D03*
X82413801Y26164890D03*
D29*
X19350000Y55245000D03*
D28*
X17780000Y59745000D03*
D29*
X17780000Y64505000D03*
D28*
X17780000Y50745000D03*
D29*
X17780000Y45985000D03*
X8520000Y55245000D03*
X115270000Y55245000D03*
D28*
X116840000Y50745000D03*
D29*
X116840000Y45985000D03*
D28*
X116840000Y59745000D03*
D29*
X116840000Y64505000D03*
X126100000Y55245000D03*
D18*
X68580000Y71755000D03*
X68580000Y69215000D03*
X68580000Y66675000D03*
X68580000Y64135000D03*
X68580000Y61595000D03*
X68580000Y59055000D03*
X68580000Y56515000D03*
X68580000Y53975000D03*
X68580000Y51435000D03*
X68580000Y48895000D03*
X68580000Y46355000D03*
X68580000Y43815000D03*
D21*
X67310000Y41275000D03*
X64770000Y41275000D03*
X62230000Y41275000D03*
X59690000Y41275000D03*
X57150000Y41275000D03*
X54610000Y41275000D03*
D18*
X53340000Y43815001D03*
X53340000Y46355000D03*
X53340000Y48895000D03*
X53340000Y51435000D03*
X53340000Y53975000D03*
X53340000Y56515000D03*
X53340000Y59055000D03*
X53340000Y61595000D03*
X53340000Y64135000D03*
X53340000Y66675000D03*
X53340000Y69215000D03*
X53340000Y71755000D03*
D22*
X66040000Y71755000D03*
X66040000Y69215000D03*
X66040000Y66675000D03*
X66040000Y64135000D03*
X66040000Y61595000D03*
X66040000Y59055000D03*
X66040000Y56515000D03*
X66040000Y53975000D03*
X66040000Y51435000D03*
X66040000Y48895000D03*
X66040000Y46355000D03*
X71120000Y43815000D03*
X69850000Y41275000D03*
X64770000Y43815000D03*
X62230000Y43815000D03*
X59690000Y43815000D03*
X57150000Y43815000D03*
X55880000Y46355000D03*
X53340000Y38100000D03*
X52705000Y36195000D03*
X55880000Y48895000D03*
X55880000Y51435000D03*
X55880000Y53975000D03*
X55880000Y56515000D03*
X55880000Y59055000D03*
X55880000Y61595000D03*
X55880000Y64135000D03*
X55880000Y66675000D03*
D23*
X55880000Y69215000D03*
X55880000Y71755000D03*
D28*
X74185000Y69850000D03*
X79485000Y69850000D03*
D20*
X25755600Y39649400D03*
X25755600Y31470600D03*
X21234400Y31470600D03*
X21234400Y39649400D03*
M02*
