G04 #@! TF.FileFunction,Soldermask,Bot*
%FSLAX46Y46*%
G04 Gerber Fmt 4.6, Leading zero omitted, Abs format (unit mm)*
G04 Created by KiCad (PCBNEW 4.0.1-3.201512221401+6198~38~ubuntu15.10.1-stable) date Fri Feb  5 22:48:27 2016*
%MOMM*%
G01*
G04 APERTURE LIST*
%ADD10C,0.101600*%
%ADD11C,0.152400*%
%ADD12O,2.432000X1.924000*%
%ADD13O,1.924000X2.432000*%
%ADD14O,1.924000X1.924000*%
%ADD15O,1.797000X1.797000*%
%ADD16C,1.901140*%
%ADD17C,2.398980*%
%ADD18C,1.924000*%
%ADD19C,4.100000*%
%ADD20C,2.400000*%
%ADD21R,2.432000X2.432000*%
%ADD22O,2.432000X2.432000*%
%ADD23C,4.572000*%
%ADD24O,2.813000X1.797000*%
%ADD25O,2.432000X1.797000*%
G04 APERTURE END LIST*
D10*
D11*
X115570000Y52070000D02*
X117475000Y52070000D01*
X115570000Y52070000D02*
G75*
G03X114300000Y50800000I0J-1270000D01*
G01*
X107950000Y50800000D02*
G75*
G03X106680000Y52070000I-1270000J0D01*
G01*
X113030000Y45720000D02*
G75*
G03X114300000Y46990000I0J1270000D01*
G01*
X107950000Y46990000D02*
G75*
G03X109220000Y45720000I1270000J0D01*
G01*
X109220000Y45720000D02*
X113030000Y45720000D01*
X114300000Y46990000D02*
X114300000Y50800000D01*
X107950000Y50800000D02*
X107950000Y46990000D01*
X85090000Y0D02*
X106045000Y0D01*
X50800000Y0D02*
X29845000Y0D01*
X85090000Y0D02*
G75*
G03X67945000Y17145000I-17145000J0D01*
G01*
X67945000Y17145000D02*
G75*
G03X50800000Y0I0J-17145000D01*
G01*
X29845000Y0D02*
X5842000Y21717000D01*
X5842641Y21717641D02*
G75*
G02X18415000Y52070000I12572359J12572359D01*
G01*
X18415000Y52070000D02*
X106680000Y52070000D01*
X106045000Y0D02*
X130048000Y21717000D01*
X130047359Y21717641D02*
G75*
G03X117475000Y52070000I-12572359J12572359D01*
G01*
D12*
X69215000Y50800000D03*
X69215000Y48260000D03*
X69215000Y45720000D03*
X69215000Y43180000D03*
X69215000Y40640000D03*
X69215000Y38100000D03*
X69215000Y35560000D03*
X69215000Y33020000D03*
X69215000Y30480000D03*
X69215000Y27940000D03*
X69215000Y25400000D03*
X69215000Y22860000D03*
D13*
X67945000Y20320000D03*
X65405000Y20320000D03*
X62865000Y20320000D03*
X60325000Y20320000D03*
X57785000Y20320000D03*
X55245000Y20320000D03*
D12*
X53975000Y22860001D03*
X53975000Y25400000D03*
X53975000Y27940000D03*
X53975000Y30480000D03*
X53975000Y33020000D03*
X53975000Y35560000D03*
X53975000Y38100000D03*
X53975000Y40640000D03*
X53975000Y43180000D03*
X53975000Y45720000D03*
X53975000Y48260000D03*
X53975000Y50800000D03*
D14*
X66675000Y50800000D03*
X66675000Y48260000D03*
X66675000Y45720000D03*
X66675000Y43180000D03*
X66675000Y40640000D03*
X66675000Y38100000D03*
X66675000Y35560000D03*
X66675000Y33020000D03*
X66675000Y30480000D03*
X66675000Y27940000D03*
X66675000Y25400000D03*
X71755000Y22860000D03*
X70485000Y20320000D03*
X65405000Y22860000D03*
X62865000Y22860000D03*
X60325000Y22860000D03*
X57785000Y22860000D03*
X52705000Y20320000D03*
X51435000Y22860000D03*
X56515000Y25400000D03*
X56515000Y27940000D03*
X56515000Y30480000D03*
X56515000Y33020000D03*
X56515000Y35560000D03*
X56515000Y38100000D03*
X56515000Y40640000D03*
X56515000Y43180000D03*
X56515000Y45720000D03*
D15*
X56515000Y48260000D03*
X56515000Y50800000D03*
D16*
X116205000Y20320000D03*
X118745000Y20320000D03*
X131445000Y33020000D03*
X131445000Y35560000D03*
X116205000Y46990000D03*
X118745000Y46990000D03*
X79375000Y26035000D03*
X79375000Y28575000D03*
X4445000Y33020000D03*
X4445000Y35560000D03*
X19685000Y20955000D03*
X17145000Y20955000D03*
X19685000Y46990000D03*
X17145000Y46990000D03*
D17*
X122555000Y23495000D03*
X112395000Y23495000D03*
X128270000Y39370000D03*
X128270000Y29210000D03*
X122555000Y43815000D03*
X112395000Y43815000D03*
X82550000Y36195000D03*
X82550000Y26035000D03*
X7620000Y39370000D03*
X7620000Y29210000D03*
X13335000Y24130000D03*
X23495000Y24130000D03*
X13335000Y43815000D03*
X23495000Y43815000D03*
D18*
X117475000Y26790000D03*
X114975000Y26790000D03*
X119975000Y26790000D03*
X114975000Y41290000D03*
X119975000Y41290000D03*
D19*
X124175000Y34290000D03*
X110775000Y34290000D03*
D18*
X18415000Y26790000D03*
X15915000Y26790000D03*
X20915000Y26790000D03*
X15915000Y41290000D03*
X20915000Y41290000D03*
D19*
X25115000Y34290000D03*
X11715000Y34290000D03*
D20*
X75455000Y48895000D03*
X80755000Y48895000D03*
D21*
X81915000Y22860000D03*
D22*
X79375000Y22860000D03*
D12*
X48895000Y46355000D03*
X48895000Y43815000D03*
X48895000Y41275000D03*
X48895000Y38735000D03*
X48895000Y36195000D03*
X48895000Y33655000D03*
X48895000Y31115000D03*
X48895000Y28575000D03*
X48895000Y26035000D03*
X48895000Y23495000D03*
X48895000Y20955000D03*
X48895000Y18415000D03*
D13*
X45085000Y13970000D03*
X42545000Y13970000D03*
X40005000Y13970000D03*
X37465000Y13970000D03*
X34925000Y13970000D03*
X32385000Y13970000D03*
D12*
X28575000Y18415000D03*
X28575000Y20955000D03*
X28575000Y23495000D03*
X28575000Y26035000D03*
X28575000Y28575000D03*
X28575000Y31115000D03*
X28575000Y33655000D03*
X28575000Y36195000D03*
X28575000Y38735000D03*
X28575000Y41275000D03*
X28575000Y43815000D03*
X28575000Y46355000D03*
D23*
X48260000Y14605000D03*
X29210000Y14605000D03*
X29210000Y50165000D03*
X48260000Y50165000D03*
D14*
X46355000Y46355000D03*
X46355000Y43815000D03*
X46355000Y41275000D03*
X46355000Y38735000D03*
X46355000Y36195000D03*
X46355000Y33655000D03*
X46355000Y31115000D03*
X46355000Y28575000D03*
X46355000Y26035000D03*
X46355000Y23495000D03*
X46355000Y20955000D03*
X46355000Y18415000D03*
X31115000Y18415000D03*
X31115000Y20955000D03*
X31115000Y23495000D03*
X31115000Y26035000D03*
X31115000Y28575000D03*
X31115000Y31115000D03*
X31115000Y33655000D03*
X31115000Y36195000D03*
X31115000Y38735000D03*
X31115000Y41275000D03*
D15*
X31115000Y43815000D03*
X31115000Y46355000D03*
D23*
X48260000Y3810000D03*
X30480000Y3810000D03*
X113665000Y13970000D03*
X22225000Y13970000D03*
D24*
X42545000Y45720000D03*
X42545000Y43180000D03*
X42545000Y40640000D03*
X42545000Y38100000D03*
X42545000Y35560000D03*
D25*
X42545000Y33020000D03*
D24*
X42545000Y30480000D03*
X42545000Y27940000D03*
X42545000Y25400000D03*
X42545000Y22860000D03*
D23*
X42545000Y19685000D03*
X93345000Y19685000D03*
X93345000Y48895000D03*
X42545000Y48895000D03*
D12*
X106680000Y7620000D03*
X106680000Y10160000D03*
X106680000Y12700000D03*
X106680000Y15240000D03*
X106680000Y17780000D03*
X106680000Y20320000D03*
X106680000Y22860000D03*
X106680000Y25400000D03*
X106680000Y27940000D03*
X106680000Y30480000D03*
X106680000Y33020000D03*
X106680000Y35560000D03*
X86360000Y45720000D03*
X86360000Y43180000D03*
X86360000Y40640000D03*
X86360000Y38100000D03*
X86360000Y35560000D03*
X86360000Y33020000D03*
X86360000Y30480000D03*
X86360000Y27940000D03*
X86360000Y25400000D03*
X86360000Y22860000D03*
X86360000Y20320000D03*
X86360000Y17780000D03*
X86360000Y15240000D03*
X86360000Y12700000D03*
X86360000Y10160000D03*
X86360000Y7620000D03*
D23*
X105410000Y49530000D03*
X87630000Y49530000D03*
D18*
X104140000Y7620000D03*
X104140000Y10160000D03*
X104140000Y12700000D03*
X104140000Y15240000D03*
X104140000Y17780000D03*
X104140000Y20320000D03*
X104140000Y22860000D03*
X104140000Y25400000D03*
X104140000Y27940000D03*
X104140000Y30480000D03*
X104140000Y33020000D03*
X104140000Y35560000D03*
X88900000Y45720000D03*
X88900000Y43180000D03*
X88900000Y40640000D03*
X88900000Y38100000D03*
X88900000Y35560000D03*
X88900000Y33020000D03*
X88900000Y30480000D03*
X88900000Y27940000D03*
X88900000Y25400000D03*
X88900000Y22860000D03*
X88900000Y20320000D03*
X88900000Y17780000D03*
X88900000Y15240000D03*
X88900000Y12700000D03*
X88900000Y10160000D03*
X88900000Y7620000D03*
D23*
X105410000Y3810000D03*
X87630000Y3810000D03*
M02*
