G04 #@! TF.FileFunction,Legend,Bot*
%FSLAX46Y46*%
G04 Gerber Fmt 4.6, Leading zero omitted, Abs format (unit mm)*
G04 Created by KiCad (PCBNEW 4.0.1-3.201512221401+6198~38~ubuntu15.10.1-stable) date Mon Feb 15 20:14:59 2016*
%MOMM*%
G01*
G04 APERTURE LIST*
%ADD10C,0.101600*%
%ADD11C,0.152400*%
%ADD12C,0.150000*%
%ADD13O,2.432000X1.924000*%
%ADD14O,1.924000X2.432000*%
%ADD15O,1.924000X1.924000*%
%ADD16O,1.797000X1.797000*%
%ADD17C,1.901140*%
%ADD18C,2.398980*%
%ADD19R,2.432000X2.432000*%
%ADD20O,2.432000X2.432000*%
%ADD21C,4.572000*%
%ADD22O,2.813000X1.797000*%
%ADD23O,2.432000X1.797000*%
%ADD24C,1.924000*%
%ADD25C,2.000000*%
%ADD26C,4.100000*%
%ADD27C,3.000000*%
G04 APERTURE END LIST*
D10*
D11*
X139700000Y-22860000D02*
X141605000Y-22860000D01*
X139700000Y-22860000D02*
G75*
G03X138430000Y-24130000I0J-1270000D01*
G01*
X132080000Y-24130000D02*
G75*
G03X130810000Y-22860000I-1270000J0D01*
G01*
X137160000Y-29210000D02*
G75*
G03X138430000Y-27940000I0J1270000D01*
G01*
X132080000Y-27940000D02*
G75*
G03X133350000Y-29210000I1270000J0D01*
G01*
X133350000Y-29210000D02*
X137160000Y-29210000D01*
X138430000Y-27940000D02*
X138430000Y-24130000D01*
X132080000Y-24130000D02*
X132080000Y-27940000D01*
X109220000Y-74930000D02*
X130175000Y-74930000D01*
X74930000Y-74930000D02*
X53975000Y-74930000D01*
X109220000Y-74930000D02*
G75*
G03X92075000Y-57785000I-17145000J0D01*
G01*
X92075000Y-57785000D02*
G75*
G03X74930000Y-74930000I0J-17145000D01*
G01*
X53975000Y-74930000D02*
X29972000Y-53213000D01*
X29972641Y-53212359D02*
G75*
G02X42545000Y-22860000I12572359J12572359D01*
G01*
X42545000Y-22860000D02*
X130810000Y-22860000D01*
X130175000Y-74930000D02*
X154178000Y-53213000D01*
X154177359Y-53212359D02*
G75*
G03X141605000Y-22860000I-12572359J12572359D01*
G01*
X78105000Y-22860000D02*
X93345000Y-22860000D01*
X93345000Y-55880000D02*
X78105000Y-55880000D01*
D12*
X94615000Y-54610000D02*
G75*
G02X93345000Y-55880000I-1270000J0D01*
G01*
X78105000Y-55880000D02*
G75*
G02X76835000Y-54610000I0J1270000D01*
G01*
X76835000Y-24130000D02*
G75*
G02X78105000Y-22860000I1270000J0D01*
G01*
X93345000Y-22860000D02*
G75*
G02X94615000Y-24130000I0J-1270000D01*
G01*
X76835000Y-54610000D02*
X76835000Y-24130000D01*
X94615000Y-24130000D02*
X94615000Y-54610000D01*
X53340000Y-62230000D02*
X72390000Y-62230000D01*
X51435000Y-24765000D02*
X51435000Y-60325000D01*
X72390000Y-22860000D02*
X53340000Y-22860000D01*
X74295000Y-60325000D02*
X74295000Y-24765000D01*
X74295000Y-60325000D02*
G75*
G02X72390000Y-62230000I-1905000J0D01*
G01*
X53340000Y-62230000D02*
G75*
G02X51435000Y-60325000I0J1905000D01*
G01*
X51435000Y-24765000D02*
G75*
G02X53340000Y-22860000I1905000J0D01*
G01*
X72390000Y-22860000D02*
G75*
G02X74295000Y-24765000I0J-1905000D01*
G01*
X99535000Y-21035000D02*
G75*
G02X104935000Y-21035000I2700000J-5000000D01*
G01*
X104935000Y-21035000D02*
X99535000Y-21035000D01*
X104935000Y-22935000D02*
X104935000Y-21035000D01*
X99535000Y-21035000D02*
X99535000Y-22935000D01*
X95735000Y-29435000D02*
X95735000Y-22935000D01*
X95735000Y-22935000D02*
X108735000Y-22935000D01*
X108735000Y-22935000D02*
X108735000Y-29435000D01*
X108735000Y-29435000D02*
X95735000Y-29435000D01*
D11*
X93967904Y-56593619D02*
X93967904Y-57416095D01*
X93919523Y-57512857D01*
X93871142Y-57561238D01*
X93774380Y-57609619D01*
X93580857Y-57609619D01*
X93484095Y-57561238D01*
X93435714Y-57512857D01*
X93387333Y-57416095D01*
X93387333Y-56593619D01*
X92371333Y-57609619D02*
X92951904Y-57609619D01*
X92661618Y-57609619D02*
X92661618Y-56593619D01*
X92758380Y-56738762D01*
X92855142Y-56835524D01*
X92951904Y-56883905D01*
X91742380Y-56593619D02*
X91645619Y-56593619D01*
X91548857Y-56642000D01*
X91500476Y-56690381D01*
X91452095Y-56787143D01*
X91403714Y-56980667D01*
X91403714Y-57222571D01*
X91452095Y-57416095D01*
X91500476Y-57512857D01*
X91548857Y-57561238D01*
X91645619Y-57609619D01*
X91742380Y-57609619D01*
X91839142Y-57561238D01*
X91887523Y-57512857D01*
X91935904Y-57416095D01*
X91984285Y-57222571D01*
X91984285Y-56980667D01*
X91935904Y-56787143D01*
X91887523Y-56690381D01*
X91839142Y-56642000D01*
X91742380Y-56593619D01*
X88289190Y-57609619D02*
X88289190Y-56593619D01*
X87902143Y-56593619D01*
X87805381Y-56642000D01*
X87757000Y-56690381D01*
X87708619Y-56787143D01*
X87708619Y-56932286D01*
X87757000Y-57029048D01*
X87805381Y-57077429D01*
X87902143Y-57125810D01*
X88289190Y-57125810D01*
X87273190Y-57609619D02*
X87273190Y-56932286D01*
X87273190Y-57125810D02*
X87224809Y-57029048D01*
X87176428Y-56980667D01*
X87079666Y-56932286D01*
X86982905Y-56932286D01*
X86499095Y-57609619D02*
X86595857Y-57561238D01*
X86644238Y-57512857D01*
X86692619Y-57416095D01*
X86692619Y-57125810D01*
X86644238Y-57029048D01*
X86595857Y-56980667D01*
X86499095Y-56932286D01*
X86353953Y-56932286D01*
X86257191Y-56980667D01*
X86208810Y-57029048D01*
X86160429Y-57125810D01*
X86160429Y-57416095D01*
X86208810Y-57512857D01*
X86257191Y-57561238D01*
X86353953Y-57609619D01*
X86499095Y-57609619D01*
X85725000Y-57609619D02*
X85725000Y-56593619D01*
X85386334Y-57319333D01*
X85047667Y-56593619D01*
X85047667Y-57609619D01*
X84563857Y-57609619D02*
X84563857Y-56932286D01*
X84563857Y-56593619D02*
X84612238Y-56642000D01*
X84563857Y-56690381D01*
X84515476Y-56642000D01*
X84563857Y-56593619D01*
X84563857Y-56690381D01*
X84080047Y-56932286D02*
X84080047Y-57609619D01*
X84080047Y-57029048D02*
X84031666Y-56980667D01*
X83934904Y-56932286D01*
X83789762Y-56932286D01*
X83693000Y-56980667D01*
X83644619Y-57077429D01*
X83644619Y-57609619D01*
X83160809Y-57609619D02*
X83160809Y-56932286D01*
X83160809Y-56593619D02*
X83209190Y-56642000D01*
X83160809Y-56690381D01*
X83112428Y-56642000D01*
X83160809Y-56593619D01*
X83160809Y-56690381D01*
X70624095Y-62943619D02*
X70624095Y-63766095D01*
X70575714Y-63862857D01*
X70527333Y-63911238D01*
X70430571Y-63959619D01*
X70237048Y-63959619D01*
X70140286Y-63911238D01*
X70091905Y-63862857D01*
X70043524Y-63766095D01*
X70043524Y-62943619D01*
X69656476Y-62943619D02*
X68979143Y-62943619D01*
X69414571Y-63959619D01*
X66783856Y-63427429D02*
X66445190Y-63427429D01*
X66300047Y-63959619D02*
X66783856Y-63959619D01*
X66783856Y-62943619D01*
X66300047Y-62943619D01*
X65961380Y-62943619D02*
X65284047Y-62943619D01*
X65961380Y-63959619D01*
X65284047Y-63959619D01*
X64896999Y-63959619D02*
X64896999Y-62943619D01*
X64896999Y-63330667D02*
X64800237Y-63282286D01*
X64606714Y-63282286D01*
X64509952Y-63330667D01*
X64461571Y-63379048D01*
X64413190Y-63475810D01*
X64413190Y-63766095D01*
X64461571Y-63862857D01*
X64509952Y-63911238D01*
X64606714Y-63959619D01*
X64800237Y-63959619D01*
X64896999Y-63911238D01*
X63832618Y-63959619D02*
X63929380Y-63911238D01*
X63977761Y-63814476D01*
X63977761Y-62943619D01*
X63010143Y-63282286D02*
X63010143Y-63959619D01*
X63445571Y-63282286D02*
X63445571Y-63814476D01*
X63397190Y-63911238D01*
X63300428Y-63959619D01*
X63155286Y-63959619D01*
X63058524Y-63911238D01*
X63010143Y-63862857D01*
X62139286Y-63911238D02*
X62236048Y-63959619D01*
X62429571Y-63959619D01*
X62526333Y-63911238D01*
X62574714Y-63814476D01*
X62574714Y-63427429D01*
X62526333Y-63330667D01*
X62429571Y-63282286D01*
X62236048Y-63282286D01*
X62139286Y-63330667D01*
X62090905Y-63427429D01*
X62090905Y-63524190D01*
X62574714Y-63620952D01*
X61800619Y-63282286D02*
X61413571Y-63282286D01*
X61655476Y-63959619D02*
X61655476Y-63088762D01*
X61607095Y-62992000D01*
X61510333Y-62943619D01*
X61413571Y-62943619D01*
X61074905Y-63959619D02*
X61074905Y-63282286D01*
X61074905Y-63475810D02*
X61026524Y-63379048D01*
X60978143Y-63330667D01*
X60881381Y-63282286D01*
X60784620Y-63282286D01*
X60010525Y-63282286D02*
X60010525Y-63959619D01*
X60445953Y-63282286D02*
X60445953Y-63814476D01*
X60397572Y-63911238D01*
X60300810Y-63959619D01*
X60155668Y-63959619D01*
X60058906Y-63911238D01*
X60010525Y-63862857D01*
X59526715Y-63959619D02*
X59526715Y-63282286D01*
X59526715Y-62943619D02*
X59575096Y-62992000D01*
X59526715Y-63040381D01*
X59478334Y-62992000D01*
X59526715Y-62943619D01*
X59526715Y-63040381D01*
X59188048Y-63282286D02*
X58801000Y-63282286D01*
X59042905Y-62943619D02*
X59042905Y-63814476D01*
X58994524Y-63911238D01*
X58897762Y-63959619D01*
X58801000Y-63959619D01*
X107564095Y-30891238D02*
X107418952Y-30939619D01*
X107177048Y-30939619D01*
X107080286Y-30891238D01*
X107031905Y-30842857D01*
X106983524Y-30746095D01*
X106983524Y-30649333D01*
X107031905Y-30552571D01*
X107080286Y-30504190D01*
X107177048Y-30455810D01*
X107370571Y-30407429D01*
X107467333Y-30359048D01*
X107515714Y-30310667D01*
X107564095Y-30213905D01*
X107564095Y-30117143D01*
X107515714Y-30020381D01*
X107467333Y-29972000D01*
X107370571Y-29923619D01*
X107128667Y-29923619D01*
X106983524Y-29972000D01*
X106596476Y-30020381D02*
X106548095Y-29972000D01*
X106451333Y-29923619D01*
X106209429Y-29923619D01*
X106112667Y-29972000D01*
X106064286Y-30020381D01*
X106015905Y-30117143D01*
X106015905Y-30213905D01*
X106064286Y-30359048D01*
X106644857Y-30939619D01*
X106015905Y-30939619D01*
X104654047Y-29923619D02*
X104460524Y-29923619D01*
X104363762Y-29972000D01*
X104267000Y-30068762D01*
X104218619Y-30262286D01*
X104218619Y-30600952D01*
X104267000Y-30794476D01*
X104363762Y-30891238D01*
X104460524Y-30939619D01*
X104654047Y-30939619D01*
X104750809Y-30891238D01*
X104847571Y-30794476D01*
X104895952Y-30600952D01*
X104895952Y-30262286D01*
X104847571Y-30068762D01*
X104750809Y-29972000D01*
X104654047Y-29923619D01*
X103783190Y-30939619D02*
X103783190Y-29923619D01*
X103202619Y-30939619D01*
X103202619Y-29923619D01*
X102960714Y-31036381D02*
X102186619Y-31036381D01*
X101751190Y-29923619D02*
X101557667Y-29923619D01*
X101460905Y-29972000D01*
X101364143Y-30068762D01*
X101315762Y-30262286D01*
X101315762Y-30600952D01*
X101364143Y-30794476D01*
X101460905Y-30891238D01*
X101557667Y-30939619D01*
X101751190Y-30939619D01*
X101847952Y-30891238D01*
X101944714Y-30794476D01*
X101993095Y-30600952D01*
X101993095Y-30262286D01*
X101944714Y-30068762D01*
X101847952Y-29972000D01*
X101751190Y-29923619D01*
X100541667Y-30407429D02*
X100880333Y-30407429D01*
X100880333Y-30939619D02*
X100880333Y-29923619D01*
X100396524Y-29923619D01*
X99670810Y-30407429D02*
X100009476Y-30407429D01*
X100009476Y-30939619D02*
X100009476Y-29923619D01*
X99525667Y-29923619D01*
%LPC*%
D13*
X93345000Y-24130000D03*
X93345000Y-26670000D03*
X93345000Y-29210000D03*
X93345000Y-31750000D03*
X93345000Y-34290000D03*
X93345000Y-36830000D03*
X93345000Y-39370000D03*
X93345000Y-41910000D03*
X93345000Y-44450000D03*
X93345000Y-46990000D03*
X93345000Y-49530000D03*
X93345000Y-52070000D03*
D14*
X92075000Y-54610000D03*
X89535000Y-54610000D03*
X86995000Y-54610000D03*
X84455000Y-54610000D03*
X81915000Y-54610000D03*
X79375000Y-54610000D03*
D13*
X78105000Y-52069999D03*
X78105000Y-49530000D03*
X78105000Y-46990000D03*
X78105000Y-44450000D03*
X78105000Y-41910000D03*
X78105000Y-39370000D03*
X78105000Y-36830000D03*
X78105000Y-34290000D03*
X78105000Y-31750000D03*
X78105000Y-29210000D03*
X78105000Y-26670000D03*
X78105000Y-24130000D03*
D15*
X90805000Y-24130000D03*
X90805000Y-26670000D03*
X90805000Y-29210000D03*
X90805000Y-31750000D03*
X90805000Y-34290000D03*
X90805000Y-36830000D03*
X90805000Y-39370000D03*
X90805000Y-41910000D03*
X90805000Y-44450000D03*
X90805000Y-46990000D03*
X90805000Y-49530000D03*
X95885000Y-52070000D03*
X94615000Y-54610000D03*
X89535000Y-52070000D03*
X86995000Y-52070000D03*
X84455000Y-52070000D03*
X81915000Y-52070000D03*
X76835000Y-54610000D03*
X75565000Y-52070000D03*
X80645000Y-49530000D03*
X80645000Y-46990000D03*
X80645000Y-44450000D03*
X80645000Y-41910000D03*
X80645000Y-39370000D03*
X80645000Y-36830000D03*
X80645000Y-34290000D03*
X80645000Y-31750000D03*
X80645000Y-29210000D03*
D16*
X80645000Y-26670000D03*
X80645000Y-24130000D03*
D17*
X140335000Y-54610000D03*
X142875000Y-54610000D03*
X155575000Y-41910000D03*
X155575000Y-39370000D03*
X140335000Y-27940000D03*
X142875000Y-27940000D03*
X103505000Y-48895000D03*
X103505000Y-46355000D03*
X28575000Y-41910000D03*
X28575000Y-39370000D03*
X43815000Y-53975000D03*
X41275000Y-53975000D03*
X43815000Y-27940000D03*
X41275000Y-27940000D03*
D18*
X146685000Y-51435000D03*
X136525000Y-51435000D03*
X152400000Y-35560000D03*
X152400000Y-45720000D03*
X146685000Y-31115000D03*
X136525000Y-31115000D03*
X106680000Y-38735000D03*
X106680000Y-48895000D03*
X31750000Y-35560000D03*
X31750000Y-45720000D03*
X37465000Y-50800000D03*
X47625000Y-50800000D03*
X37465000Y-31115000D03*
X47625000Y-31115000D03*
D19*
X106045000Y-52070000D03*
D20*
X103505000Y-52070000D03*
D13*
X73025000Y-28575000D03*
X73025000Y-31115000D03*
X73025000Y-33655000D03*
X73025000Y-36195000D03*
X73025000Y-38735000D03*
X73025000Y-41275000D03*
X73025000Y-43815000D03*
X73025000Y-46355000D03*
X73025000Y-48895000D03*
X73025000Y-51435000D03*
X73025000Y-53975000D03*
X73025000Y-56515000D03*
D14*
X69215000Y-60960000D03*
X66675000Y-60960000D03*
X64135000Y-60960000D03*
X61595000Y-60960000D03*
X59055000Y-60960000D03*
X56515000Y-60960000D03*
D13*
X52705000Y-56515000D03*
X52705000Y-53975000D03*
X52705000Y-51435000D03*
X52705000Y-48895000D03*
X52705000Y-46355000D03*
X52705000Y-43815000D03*
X52705000Y-41275000D03*
X52705000Y-38735000D03*
X52705000Y-36195000D03*
X52705000Y-33655000D03*
X52705000Y-31115000D03*
X52705000Y-28575000D03*
D21*
X72390000Y-60325000D03*
X53340000Y-60325000D03*
X53340000Y-24765000D03*
X72390000Y-24765000D03*
D15*
X70485000Y-28575000D03*
X70485000Y-31115000D03*
X70485000Y-33655000D03*
X70485000Y-36195000D03*
X70485000Y-38735000D03*
X70485000Y-41275000D03*
X70485000Y-43815000D03*
X70485000Y-46355000D03*
X70485000Y-48895000D03*
X70485000Y-51435000D03*
X70485000Y-53975000D03*
X70485000Y-56515000D03*
X55245000Y-56515000D03*
X55245000Y-53975000D03*
X55245000Y-51435000D03*
X55245000Y-48895000D03*
X55245000Y-46355000D03*
X55245000Y-43815000D03*
X55245000Y-41275000D03*
X55245000Y-38735000D03*
X55245000Y-36195000D03*
X55245000Y-33655000D03*
D16*
X55245000Y-31115000D03*
X55245000Y-28575000D03*
D21*
X72390000Y-71120000D03*
X54610000Y-71120000D03*
X137795000Y-60960000D03*
X46355000Y-60960000D03*
D22*
X66675000Y-29210000D03*
X66675000Y-31750000D03*
X66675000Y-34290000D03*
X66675000Y-36830000D03*
X66675000Y-39370000D03*
D23*
X66675000Y-41910000D03*
D22*
X66675000Y-44450000D03*
X66675000Y-46990000D03*
X66675000Y-49530000D03*
X66675000Y-52070000D03*
D21*
X66675000Y-55245000D03*
X117475000Y-55245000D03*
X117475000Y-26035000D03*
X66675000Y-26035000D03*
D13*
X130810000Y-67310000D03*
X130810000Y-64770000D03*
X130810000Y-62230000D03*
X130810000Y-59690000D03*
X130810000Y-57150000D03*
X130810000Y-54610000D03*
X130810000Y-52070000D03*
X130810000Y-49530000D03*
X130810000Y-46990000D03*
X130810000Y-44450000D03*
X130810000Y-41910000D03*
X130810000Y-39370000D03*
X110490000Y-29210000D03*
X110490000Y-31750000D03*
X110490000Y-34290000D03*
X110490000Y-36830000D03*
X110490000Y-39370000D03*
X110490000Y-41910000D03*
X110490000Y-44450000D03*
X110490000Y-46990000D03*
X110490000Y-49530000D03*
X110490000Y-52070000D03*
X110490000Y-54610000D03*
X110490000Y-57150000D03*
X110490000Y-59690000D03*
X110490000Y-62230000D03*
X110490000Y-64770000D03*
X110490000Y-67310000D03*
D21*
X129540000Y-25400000D03*
X111760000Y-25400000D03*
D24*
X128270000Y-67310000D03*
X128270000Y-64770000D03*
X128270000Y-62230000D03*
X128270000Y-59690000D03*
X128270000Y-57150000D03*
X128270000Y-54610000D03*
X128270000Y-52070000D03*
X128270000Y-49530000D03*
X128270000Y-46990000D03*
X128270000Y-44450000D03*
X128270000Y-41910000D03*
X128270000Y-39370000D03*
X113030000Y-29210000D03*
X113030000Y-31750000D03*
X113030000Y-34290000D03*
X113030000Y-36830000D03*
X113030000Y-39370000D03*
X113030000Y-41910000D03*
X113030000Y-44450000D03*
X113030000Y-46990000D03*
X113030000Y-49530000D03*
X113030000Y-52070000D03*
X113030000Y-54610000D03*
X113030000Y-57150000D03*
X113030000Y-59690000D03*
X113030000Y-62230000D03*
X113030000Y-64770000D03*
X113030000Y-67310000D03*
D21*
X129540000Y-71120000D03*
X111760000Y-71120000D03*
D25*
X42545000Y-48140000D03*
X40045000Y-48140000D03*
X45045000Y-48140000D03*
X40045000Y-33640000D03*
X45045000Y-33640000D03*
D26*
X49245000Y-40640000D03*
X35845000Y-40640000D03*
D25*
X141605000Y-48140000D03*
X139105000Y-48140000D03*
X144105000Y-48140000D03*
X139105000Y-33640000D03*
X144105000Y-33640000D03*
D26*
X148305000Y-40640000D03*
X134905000Y-40640000D03*
D27*
X99585000Y-26035000D03*
X104885000Y-26035000D03*
M02*
