G04 #@! TF.FileFunction,Legend,Top*
%FSLAX46Y46*%
G04 Gerber Fmt 4.6, Leading zero omitted, Abs format (unit mm)*
G04 Created by KiCad (PCBNEW 4.0.1-3.201512221401+6198~38~ubuntu15.10.1-stable) date Mon Feb 15 20:14:59 2016*
%MOMM*%
G01*
G04 APERTURE LIST*
%ADD10C,0.101600*%
%ADD11C,0.254000*%
%ADD12C,0.304800*%
%ADD13C,0.152400*%
%ADD14C,0.150000*%
%ADD15O,2.432000X1.924000*%
%ADD16O,1.924000X2.432000*%
%ADD17O,1.924000X1.924000*%
%ADD18O,1.797000X1.797000*%
%ADD19C,1.901140*%
%ADD20C,2.398980*%
%ADD21R,2.432000X2.432000*%
%ADD22O,2.432000X2.432000*%
%ADD23C,4.572000*%
%ADD24O,2.813000X1.797000*%
%ADD25O,2.432000X1.797000*%
%ADD26C,1.924000*%
%ADD27C,2.000000*%
%ADD28C,4.100000*%
%ADD29C,3.000000*%
G04 APERTURE END LIST*
D10*
D11*
X56273096Y-67037857D02*
X56515000Y-67884524D01*
X56756905Y-67279762D01*
X56998810Y-67884524D01*
X57240715Y-67037857D01*
X57603572Y-67037857D02*
X57845476Y-67884524D01*
X58087381Y-67279762D01*
X58329286Y-67884524D01*
X58571191Y-67037857D01*
X58934048Y-67037857D02*
X59175952Y-67884524D01*
X59417857Y-67279762D01*
X59659762Y-67884524D01*
X59901667Y-67037857D01*
X60385476Y-67763571D02*
X60445952Y-67824048D01*
X60385476Y-67884524D01*
X60325000Y-67824048D01*
X60385476Y-67763571D01*
X60385476Y-67884524D01*
X60869286Y-67037857D02*
X61111190Y-67884524D01*
X61353095Y-67279762D01*
X61595000Y-67884524D01*
X61836905Y-67037857D01*
X62199762Y-67037857D02*
X62502143Y-67884524D01*
X62804523Y-67037857D02*
X62502143Y-67884524D01*
X62381190Y-68186905D01*
X62320714Y-68247381D01*
X62199762Y-68307857D01*
X63469762Y-67884524D02*
X63348809Y-67824048D01*
X63288333Y-67763571D01*
X63227857Y-67642619D01*
X63227857Y-67279762D01*
X63288333Y-67158810D01*
X63348809Y-67098333D01*
X63469762Y-67037857D01*
X63651190Y-67037857D01*
X63772142Y-67098333D01*
X63832619Y-67158810D01*
X63893095Y-67279762D01*
X63893095Y-67642619D01*
X63832619Y-67763571D01*
X63772142Y-67824048D01*
X63651190Y-67884524D01*
X63469762Y-67884524D01*
X64618810Y-67884524D02*
X64497857Y-67824048D01*
X64437381Y-67703095D01*
X64437381Y-66614524D01*
X65646905Y-67037857D02*
X65646905Y-67884524D01*
X65102619Y-67037857D02*
X65102619Y-67703095D01*
X65163095Y-67824048D01*
X65284048Y-67884524D01*
X65465476Y-67884524D01*
X65586428Y-67824048D01*
X65646905Y-67763571D01*
X66251667Y-67884524D02*
X66251667Y-67037857D01*
X66251667Y-67158810D02*
X66312143Y-67098333D01*
X66433096Y-67037857D01*
X66614524Y-67037857D01*
X66735476Y-67098333D01*
X66795953Y-67219286D01*
X66795953Y-67884524D01*
X66795953Y-67219286D02*
X66856429Y-67098333D01*
X66977381Y-67037857D01*
X67158810Y-67037857D01*
X67279762Y-67098333D01*
X67340238Y-67219286D01*
X67340238Y-67884524D01*
X67945000Y-67763571D02*
X68005476Y-67824048D01*
X67945000Y-67884524D01*
X67884524Y-67824048D01*
X67945000Y-67763571D01*
X67945000Y-67884524D01*
X69094048Y-67824048D02*
X68973095Y-67884524D01*
X68731191Y-67884524D01*
X68610238Y-67824048D01*
X68549762Y-67763571D01*
X68489286Y-67642619D01*
X68489286Y-67279762D01*
X68549762Y-67158810D01*
X68610238Y-67098333D01*
X68731191Y-67037857D01*
X68973095Y-67037857D01*
X69094048Y-67098333D01*
X69819762Y-67884524D02*
X69698809Y-67824048D01*
X69638333Y-67763571D01*
X69577857Y-67642619D01*
X69577857Y-67279762D01*
X69638333Y-67158810D01*
X69698809Y-67098333D01*
X69819762Y-67037857D01*
X70001190Y-67037857D01*
X70122142Y-67098333D01*
X70182619Y-67158810D01*
X70243095Y-67279762D01*
X70243095Y-67642619D01*
X70182619Y-67763571D01*
X70122142Y-67824048D01*
X70001190Y-67884524D01*
X69819762Y-67884524D01*
X70787381Y-67884524D02*
X70787381Y-67037857D01*
X70787381Y-67158810D02*
X70847857Y-67098333D01*
X70968810Y-67037857D01*
X71150238Y-67037857D01*
X71271190Y-67098333D01*
X71331667Y-67219286D01*
X71331667Y-67884524D01*
X71331667Y-67219286D02*
X71392143Y-67098333D01*
X71513095Y-67037857D01*
X71694524Y-67037857D01*
X71815476Y-67098333D01*
X71875952Y-67219286D01*
X71875952Y-67884524D01*
D12*
X56569428Y-63935429D02*
X57077428Y-65459429D01*
X57585428Y-63935429D01*
X58674000Y-65386857D02*
X58528857Y-65459429D01*
X58238571Y-65459429D01*
X58093428Y-65386857D01*
X58020857Y-65241714D01*
X58020857Y-64661143D01*
X58093428Y-64516000D01*
X58238571Y-64443429D01*
X58528857Y-64443429D01*
X58674000Y-64516000D01*
X58746571Y-64661143D01*
X58746571Y-64806286D01*
X58020857Y-64951429D01*
X59617428Y-65459429D02*
X59472286Y-65386857D01*
X59399714Y-65241714D01*
X59399714Y-63935429D01*
X60415714Y-65459429D02*
X60270572Y-65386857D01*
X60198000Y-65314286D01*
X60125429Y-65169143D01*
X60125429Y-64733714D01*
X60198000Y-64588571D01*
X60270572Y-64516000D01*
X60415714Y-64443429D01*
X60633429Y-64443429D01*
X60778572Y-64516000D01*
X60851143Y-64588571D01*
X60923714Y-64733714D01*
X60923714Y-65169143D01*
X60851143Y-65314286D01*
X60778572Y-65386857D01*
X60633429Y-65459429D01*
X60415714Y-65459429D01*
X61576857Y-65459429D02*
X61576857Y-63935429D01*
X62447714Y-65459429D02*
X61794571Y-64588571D01*
X62447714Y-63935429D02*
X61576857Y-64806286D01*
X63681429Y-65386857D02*
X63536286Y-65459429D01*
X63246000Y-65459429D01*
X63100857Y-65386857D01*
X63028286Y-65241714D01*
X63028286Y-64661143D01*
X63100857Y-64516000D01*
X63246000Y-64443429D01*
X63536286Y-64443429D01*
X63681429Y-64516000D01*
X63754000Y-64661143D01*
X63754000Y-64806286D01*
X63028286Y-64951429D01*
X64262000Y-64443429D02*
X64624857Y-65459429D01*
X64987715Y-64443429D02*
X64624857Y-65459429D01*
X64479715Y-65822286D01*
X64407143Y-65894857D01*
X64262000Y-65967429D01*
X65205429Y-65604571D02*
X66366572Y-65604571D01*
X67019715Y-63935429D02*
X67310001Y-63935429D01*
X67455143Y-64008000D01*
X67600286Y-64153143D01*
X67672858Y-64443429D01*
X67672858Y-64951429D01*
X67600286Y-65241714D01*
X67455143Y-65386857D01*
X67310001Y-65459429D01*
X67019715Y-65459429D01*
X66874572Y-65386857D01*
X66729429Y-65241714D01*
X66656858Y-64951429D01*
X66656858Y-64443429D01*
X66729429Y-64153143D01*
X66874572Y-64008000D01*
X67019715Y-63935429D01*
X68108286Y-63935429D02*
X68979143Y-63935429D01*
X68543714Y-65459429D02*
X68543714Y-63935429D01*
X69414572Y-65386857D02*
X69632286Y-65459429D01*
X69995143Y-65459429D01*
X70140286Y-65386857D01*
X70212857Y-65314286D01*
X70285429Y-65169143D01*
X70285429Y-65024000D01*
X70212857Y-64878857D01*
X70140286Y-64806286D01*
X69995143Y-64733714D01*
X69704857Y-64661143D01*
X69559715Y-64588571D01*
X69487143Y-64516000D01*
X69414572Y-64370857D01*
X69414572Y-64225714D01*
X69487143Y-64080571D01*
X69559715Y-64008000D01*
X69704857Y-63935429D01*
X70067715Y-63935429D01*
X70285429Y-64008000D01*
D13*
X139700000Y-22860000D02*
X141605000Y-22860000D01*
X139700000Y-22860000D02*
G75*
G03X138430000Y-24130000I0J-1270000D01*
G01*
X132080000Y-24130000D02*
G75*
G03X130810000Y-22860000I-1270000J0D01*
G01*
X137160000Y-29210000D02*
G75*
G03X138430000Y-27940000I0J1270000D01*
G01*
X132080000Y-27940000D02*
G75*
G03X133350000Y-29210000I1270000J0D01*
G01*
X133350000Y-29210000D02*
X137160000Y-29210000D01*
X138430000Y-27940000D02*
X138430000Y-24130000D01*
X132080000Y-24130000D02*
X132080000Y-27940000D01*
X109220000Y-74930000D02*
X130175000Y-74930000D01*
X74930000Y-74930000D02*
X53975000Y-74930000D01*
X109220000Y-74930000D02*
G75*
G03X92075000Y-57785000I-17145000J0D01*
G01*
X92075000Y-57785000D02*
G75*
G03X74930000Y-74930000I0J-17145000D01*
G01*
X53975000Y-74930000D02*
X29972000Y-53213000D01*
X29972641Y-53212359D02*
G75*
G02X42545000Y-22860000I12572359J12572359D01*
G01*
X42545000Y-22860000D02*
X130810000Y-22860000D01*
X130175000Y-74930000D02*
X154178000Y-53213000D01*
X154177359Y-53212359D02*
G75*
G03X141605000Y-22860000I-12572359J12572359D01*
G01*
D14*
X139115800Y-53340000D02*
X144145000Y-53340000D01*
X144145000Y-53340000D02*
X144145000Y-55880000D01*
X144145000Y-55880000D02*
X139065000Y-55880000D01*
X139065000Y-55880000D02*
X139065000Y-53340000D01*
X139065000Y-53975000D02*
X139700000Y-53340000D01*
X154305000Y-43129200D02*
X154305000Y-38100000D01*
X154305000Y-38100000D02*
X156845000Y-38100000D01*
X156845000Y-38100000D02*
X156845000Y-43180000D01*
X156845000Y-43180000D02*
X154305000Y-43180000D01*
X154940000Y-43180000D02*
X154305000Y-42545000D01*
X139115800Y-26670000D02*
X144145000Y-26670000D01*
X144145000Y-26670000D02*
X144145000Y-29210000D01*
X144145000Y-29210000D02*
X139065000Y-29210000D01*
X139065000Y-29210000D02*
X139065000Y-26670000D01*
X139065000Y-27305000D02*
X139700000Y-26670000D01*
X102235000Y-50114200D02*
X102235000Y-45085000D01*
X102235000Y-45085000D02*
X104775000Y-45085000D01*
X104775000Y-45085000D02*
X104775000Y-50165000D01*
X104775000Y-50165000D02*
X102235000Y-50165000D01*
X102870000Y-50165000D02*
X102235000Y-49530000D01*
X27305000Y-43129200D02*
X27305000Y-38100000D01*
X27305000Y-38100000D02*
X29845000Y-38100000D01*
X29845000Y-38100000D02*
X29845000Y-43180000D01*
X29845000Y-43180000D02*
X27305000Y-43180000D01*
X27940000Y-43180000D02*
X27305000Y-42545000D01*
X45034200Y-55245000D02*
X40005000Y-55245000D01*
X40005000Y-55245000D02*
X40005000Y-52705000D01*
X40005000Y-52705000D02*
X45085000Y-52705000D01*
X45085000Y-52705000D02*
X45085000Y-55245000D01*
X45085000Y-54610000D02*
X44450000Y-55245000D01*
X45034200Y-29210000D02*
X40005000Y-29210000D01*
X40005000Y-29210000D02*
X40005000Y-26670000D01*
X40005000Y-26670000D02*
X45085000Y-26670000D01*
X45085000Y-26670000D02*
X45085000Y-29210000D01*
X45085000Y-28575000D02*
X44450000Y-29210000D01*
X144145000Y-52705000D02*
X139065000Y-52705000D01*
X139065000Y-52705000D02*
X139065000Y-50165000D01*
X139065000Y-50165000D02*
X144145000Y-50165000D01*
X144145000Y-50165000D02*
X144145000Y-52705000D01*
X144145000Y-51435000D02*
X145415000Y-51435000D01*
X139065000Y-51435000D02*
X137795000Y-51435000D01*
X153670000Y-38100000D02*
X153670000Y-43180000D01*
X153670000Y-43180000D02*
X151130000Y-43180000D01*
X151130000Y-43180000D02*
X151130000Y-38100000D01*
X151130000Y-38100000D02*
X153670000Y-38100000D01*
X152400000Y-38100000D02*
X152400000Y-36830000D01*
X152400000Y-43180000D02*
X152400000Y-44450000D01*
X144145000Y-32385000D02*
X139065000Y-32385000D01*
X139065000Y-32385000D02*
X139065000Y-29845000D01*
X139065000Y-29845000D02*
X144145000Y-29845000D01*
X144145000Y-29845000D02*
X144145000Y-32385000D01*
X144145000Y-31115000D02*
X145415000Y-31115000D01*
X139065000Y-31115000D02*
X137795000Y-31115000D01*
X107950000Y-41275000D02*
X107950000Y-46355000D01*
X107950000Y-46355000D02*
X105410000Y-46355000D01*
X105410000Y-46355000D02*
X105410000Y-41275000D01*
X105410000Y-41275000D02*
X107950000Y-41275000D01*
X106680000Y-41275000D02*
X106680000Y-40005000D01*
X106680000Y-46355000D02*
X106680000Y-47625000D01*
X33020000Y-38100000D02*
X33020000Y-43180000D01*
X33020000Y-43180000D02*
X30480000Y-43180000D01*
X30480000Y-43180000D02*
X30480000Y-38100000D01*
X30480000Y-38100000D02*
X33020000Y-38100000D01*
X31750000Y-38100000D02*
X31750000Y-36830000D01*
X31750000Y-43180000D02*
X31750000Y-44450000D01*
X40005000Y-49530000D02*
X45085000Y-49530000D01*
X45085000Y-49530000D02*
X45085000Y-52070000D01*
X45085000Y-52070000D02*
X40005000Y-52070000D01*
X40005000Y-52070000D02*
X40005000Y-49530000D01*
X40005000Y-50800000D02*
X38735000Y-50800000D01*
X45085000Y-50800000D02*
X46355000Y-50800000D01*
X40005000Y-29845000D02*
X45085000Y-29845000D01*
X45085000Y-29845000D02*
X45085000Y-32385000D01*
X45085000Y-32385000D02*
X40005000Y-32385000D01*
X40005000Y-32385000D02*
X40005000Y-29845000D01*
X40005000Y-31115000D02*
X38735000Y-31115000D01*
X45085000Y-31115000D02*
X46355000Y-31115000D01*
X104775000Y-53340000D02*
X104775000Y-50800000D01*
X107315000Y-53340000D02*
X107315000Y-50800000D01*
X107315000Y-50800000D02*
X104775000Y-50800000D01*
X104775000Y-50800000D02*
X102235000Y-50800000D01*
X102235000Y-50800000D02*
X102235000Y-53340000D01*
X102235000Y-53340000D02*
X107315000Y-53340000D01*
X120015000Y-55245000D02*
X120015000Y-26035000D01*
X66675000Y-57785000D02*
X117475000Y-57785000D01*
X64135000Y-26035000D02*
X64135000Y-55245000D01*
X117475000Y-23495000D02*
X66675000Y-23495000D01*
X64135000Y-55245000D02*
G75*
G03X66675000Y-57785000I2540000J0D01*
G01*
X117475000Y-57785000D02*
G75*
G03X120015000Y-55245000I0J2540000D01*
G01*
X120015000Y-26035000D02*
G75*
G03X117475000Y-23495000I-2540000J0D01*
G01*
X66675000Y-23495000D02*
G75*
G03X64135000Y-26035000I0J-2540000D01*
G01*
X111760000Y-73660000D02*
X129540000Y-73660000D01*
X109220000Y-25400000D02*
X109220000Y-71120000D01*
X129540000Y-22860000D02*
X111760000Y-22860000D01*
X132080000Y-71120000D02*
X132080000Y-25400000D01*
X132080000Y-25400000D02*
G75*
G03X129540000Y-22860000I-2540000J0D01*
G01*
X111760000Y-22860000D02*
G75*
G03X109220000Y-25400000I0J-2540000D01*
G01*
X109220000Y-71120000D02*
G75*
G03X111760000Y-73660000I2540000J0D01*
G01*
X129540000Y-73660000D02*
G75*
G03X132080000Y-71120000I0J2540000D01*
G01*
X37045000Y-47390000D02*
X48045000Y-47390000D01*
X48795000Y-46640000D02*
X48795000Y-34640000D01*
X36295000Y-34640000D02*
X36295000Y-46640000D01*
X48045000Y-33890000D02*
X37045000Y-33890000D01*
X37045000Y-33890000D02*
G75*
G03X36295000Y-34640000I0J-750000D01*
G01*
X36295000Y-46640000D02*
G75*
G03X37045000Y-47390000I750000J0D01*
G01*
X48045000Y-47390000D02*
G75*
G03X48795000Y-46640000I0J750000D01*
G01*
X48795000Y-34640000D02*
G75*
G03X48045000Y-33890000I-750000J0D01*
G01*
X46295000Y-38140000D02*
X48795000Y-38140000D01*
X38795000Y-38140000D02*
X36295000Y-38140000D01*
X38795000Y-43140000D02*
X36295000Y-43140000D01*
X46295000Y-43140000D02*
X48795000Y-43140000D01*
X38795000Y-43140000D02*
G75*
G03X46295000Y-43140000I3750000J2500000D01*
G01*
X46295000Y-38140000D02*
G75*
G03X38795000Y-38140000I-3750000J-2500000D01*
G01*
X46045000Y-40640000D02*
G75*
G03X46045000Y-40640000I-3500000J0D01*
G01*
X45545000Y-40640000D02*
G75*
G03X45545000Y-40640000I-3000000J0D01*
G01*
X136105000Y-47390000D02*
X147105000Y-47390000D01*
X147855000Y-46640000D02*
X147855000Y-34640000D01*
X135355000Y-34640000D02*
X135355000Y-46640000D01*
X147105000Y-33890000D02*
X136105000Y-33890000D01*
X136105000Y-33890000D02*
G75*
G03X135355000Y-34640000I0J-750000D01*
G01*
X135355000Y-46640000D02*
G75*
G03X136105000Y-47390000I750000J0D01*
G01*
X147105000Y-47390000D02*
G75*
G03X147855000Y-46640000I0J750000D01*
G01*
X147855000Y-34640000D02*
G75*
G03X147105000Y-33890000I-750000J0D01*
G01*
X145355000Y-38140000D02*
X147855000Y-38140000D01*
X137855000Y-38140000D02*
X135355000Y-38140000D01*
X137855000Y-43140000D02*
X135355000Y-43140000D01*
X145355000Y-43140000D02*
X147855000Y-43140000D01*
X137855000Y-43140000D02*
G75*
G03X145355000Y-43140000I3750000J2500000D01*
G01*
X145355000Y-38140000D02*
G75*
G03X137855000Y-38140000I-3750000J-2500000D01*
G01*
X145105000Y-40640000D02*
G75*
G03X145105000Y-40640000I-3500000J0D01*
G01*
X144605000Y-40640000D02*
G75*
G03X144605000Y-40640000I-3000000J0D01*
G01*
D13*
X146031857Y-54972857D02*
X145983476Y-55021238D01*
X145838333Y-55069619D01*
X145741571Y-55069619D01*
X145596429Y-55021238D01*
X145499667Y-54924476D01*
X145451286Y-54827714D01*
X145402905Y-54634190D01*
X145402905Y-54489048D01*
X145451286Y-54295524D01*
X145499667Y-54198762D01*
X145596429Y-54102000D01*
X145741571Y-54053619D01*
X145838333Y-54053619D01*
X145983476Y-54102000D01*
X146031857Y-54150381D01*
X146370524Y-54053619D02*
X146999476Y-54053619D01*
X146660810Y-54440667D01*
X146805952Y-54440667D01*
X146902714Y-54489048D01*
X146951095Y-54537429D01*
X146999476Y-54634190D01*
X146999476Y-54876095D01*
X146951095Y-54972857D01*
X146902714Y-55021238D01*
X146805952Y-55069619D01*
X146515667Y-55069619D01*
X146418905Y-55021238D01*
X146370524Y-54972857D01*
X147918714Y-54053619D02*
X147434905Y-54053619D01*
X147386524Y-54537429D01*
X147434905Y-54489048D01*
X147531667Y-54440667D01*
X147773571Y-54440667D01*
X147870333Y-54489048D01*
X147918714Y-54537429D01*
X147967095Y-54634190D01*
X147967095Y-54876095D01*
X147918714Y-54972857D01*
X147870333Y-55021238D01*
X147773571Y-55069619D01*
X147531667Y-55069619D01*
X147434905Y-55021238D01*
X147386524Y-54972857D01*
X154921857Y-37192857D02*
X154873476Y-37241238D01*
X154728333Y-37289619D01*
X154631571Y-37289619D01*
X154486429Y-37241238D01*
X154389667Y-37144476D01*
X154341286Y-37047714D01*
X154292905Y-36854190D01*
X154292905Y-36709048D01*
X154341286Y-36515524D01*
X154389667Y-36418762D01*
X154486429Y-36322000D01*
X154631571Y-36273619D01*
X154728333Y-36273619D01*
X154873476Y-36322000D01*
X154921857Y-36370381D01*
X155260524Y-36273619D02*
X155889476Y-36273619D01*
X155550810Y-36660667D01*
X155695952Y-36660667D01*
X155792714Y-36709048D01*
X155841095Y-36757429D01*
X155889476Y-36854190D01*
X155889476Y-37096095D01*
X155841095Y-37192857D01*
X155792714Y-37241238D01*
X155695952Y-37289619D01*
X155405667Y-37289619D01*
X155308905Y-37241238D01*
X155260524Y-37192857D01*
X156760333Y-36612286D02*
X156760333Y-37289619D01*
X156518429Y-36225238D02*
X156276524Y-36950952D01*
X156905476Y-36950952D01*
X146031857Y-28302857D02*
X145983476Y-28351238D01*
X145838333Y-28399619D01*
X145741571Y-28399619D01*
X145596429Y-28351238D01*
X145499667Y-28254476D01*
X145451286Y-28157714D01*
X145402905Y-27964190D01*
X145402905Y-27819048D01*
X145451286Y-27625524D01*
X145499667Y-27528762D01*
X145596429Y-27432000D01*
X145741571Y-27383619D01*
X145838333Y-27383619D01*
X145983476Y-27432000D01*
X146031857Y-27480381D01*
X146370524Y-27383619D02*
X146999476Y-27383619D01*
X146660810Y-27770667D01*
X146805952Y-27770667D01*
X146902714Y-27819048D01*
X146951095Y-27867429D01*
X146999476Y-27964190D01*
X146999476Y-28206095D01*
X146951095Y-28302857D01*
X146902714Y-28351238D01*
X146805952Y-28399619D01*
X146515667Y-28399619D01*
X146418905Y-28351238D01*
X146370524Y-28302857D01*
X147338143Y-27383619D02*
X147967095Y-27383619D01*
X147628429Y-27770667D01*
X147773571Y-27770667D01*
X147870333Y-27819048D01*
X147918714Y-27867429D01*
X147967095Y-27964190D01*
X147967095Y-28206095D01*
X147918714Y-28302857D01*
X147870333Y-28351238D01*
X147773571Y-28399619D01*
X147483286Y-28399619D01*
X147386524Y-28351238D01*
X147338143Y-28302857D01*
X102851857Y-44177857D02*
X102803476Y-44226238D01*
X102658333Y-44274619D01*
X102561571Y-44274619D01*
X102416429Y-44226238D01*
X102319667Y-44129476D01*
X102271286Y-44032714D01*
X102222905Y-43839190D01*
X102222905Y-43694048D01*
X102271286Y-43500524D01*
X102319667Y-43403762D01*
X102416429Y-43307000D01*
X102561571Y-43258619D01*
X102658333Y-43258619D01*
X102803476Y-43307000D01*
X102851857Y-43355381D01*
X103190524Y-43258619D02*
X103819476Y-43258619D01*
X103480810Y-43645667D01*
X103625952Y-43645667D01*
X103722714Y-43694048D01*
X103771095Y-43742429D01*
X103819476Y-43839190D01*
X103819476Y-44081095D01*
X103771095Y-44177857D01*
X103722714Y-44226238D01*
X103625952Y-44274619D01*
X103335667Y-44274619D01*
X103238905Y-44226238D01*
X103190524Y-44177857D01*
X104206524Y-43355381D02*
X104254905Y-43307000D01*
X104351667Y-43258619D01*
X104593571Y-43258619D01*
X104690333Y-43307000D01*
X104738714Y-43355381D01*
X104787095Y-43452143D01*
X104787095Y-43548905D01*
X104738714Y-43694048D01*
X104158143Y-44274619D01*
X104787095Y-44274619D01*
X27921857Y-37827857D02*
X27873476Y-37876238D01*
X27728333Y-37924619D01*
X27631571Y-37924619D01*
X27486429Y-37876238D01*
X27389667Y-37779476D01*
X27341286Y-37682714D01*
X27292905Y-37489190D01*
X27292905Y-37344048D01*
X27341286Y-37150524D01*
X27389667Y-37053762D01*
X27486429Y-36957000D01*
X27631571Y-36908619D01*
X27728333Y-36908619D01*
X27873476Y-36957000D01*
X27921857Y-37005381D01*
X28260524Y-36908619D02*
X28889476Y-36908619D01*
X28550810Y-37295667D01*
X28695952Y-37295667D01*
X28792714Y-37344048D01*
X28841095Y-37392429D01*
X28889476Y-37489190D01*
X28889476Y-37731095D01*
X28841095Y-37827857D01*
X28792714Y-37876238D01*
X28695952Y-37924619D01*
X28405667Y-37924619D01*
X28308905Y-37876238D01*
X28260524Y-37827857D01*
X29857095Y-37924619D02*
X29276524Y-37924619D01*
X29566810Y-37924619D02*
X29566810Y-36908619D01*
X29470048Y-37053762D01*
X29373286Y-37150524D01*
X29276524Y-37198905D01*
X36811857Y-54337857D02*
X36763476Y-54386238D01*
X36618333Y-54434619D01*
X36521571Y-54434619D01*
X36376429Y-54386238D01*
X36279667Y-54289476D01*
X36231286Y-54192714D01*
X36182905Y-53999190D01*
X36182905Y-53854048D01*
X36231286Y-53660524D01*
X36279667Y-53563762D01*
X36376429Y-53467000D01*
X36521571Y-53418619D01*
X36618333Y-53418619D01*
X36763476Y-53467000D01*
X36811857Y-53515381D01*
X37150524Y-53418619D02*
X37779476Y-53418619D01*
X37440810Y-53805667D01*
X37585952Y-53805667D01*
X37682714Y-53854048D01*
X37731095Y-53902429D01*
X37779476Y-53999190D01*
X37779476Y-54241095D01*
X37731095Y-54337857D01*
X37682714Y-54386238D01*
X37585952Y-54434619D01*
X37295667Y-54434619D01*
X37198905Y-54386238D01*
X37150524Y-54337857D01*
X38408429Y-53418619D02*
X38505190Y-53418619D01*
X38601952Y-53467000D01*
X38650333Y-53515381D01*
X38698714Y-53612143D01*
X38747095Y-53805667D01*
X38747095Y-54047571D01*
X38698714Y-54241095D01*
X38650333Y-54337857D01*
X38601952Y-54386238D01*
X38505190Y-54434619D01*
X38408429Y-54434619D01*
X38311667Y-54386238D01*
X38263286Y-54337857D01*
X38214905Y-54241095D01*
X38166524Y-54047571D01*
X38166524Y-53805667D01*
X38214905Y-53612143D01*
X38263286Y-53515381D01*
X38311667Y-53467000D01*
X38408429Y-53418619D01*
X36811857Y-28302857D02*
X36763476Y-28351238D01*
X36618333Y-28399619D01*
X36521571Y-28399619D01*
X36376429Y-28351238D01*
X36279667Y-28254476D01*
X36231286Y-28157714D01*
X36182905Y-27964190D01*
X36182905Y-27819048D01*
X36231286Y-27625524D01*
X36279667Y-27528762D01*
X36376429Y-27432000D01*
X36521571Y-27383619D01*
X36618333Y-27383619D01*
X36763476Y-27432000D01*
X36811857Y-27480381D01*
X37198905Y-27480381D02*
X37247286Y-27432000D01*
X37344048Y-27383619D01*
X37585952Y-27383619D01*
X37682714Y-27432000D01*
X37731095Y-27480381D01*
X37779476Y-27577143D01*
X37779476Y-27673905D01*
X37731095Y-27819048D01*
X37150524Y-28399619D01*
X37779476Y-28399619D01*
X38263286Y-28399619D02*
X38456810Y-28399619D01*
X38553571Y-28351238D01*
X38601952Y-28302857D01*
X38698714Y-28157714D01*
X38747095Y-27964190D01*
X38747095Y-27577143D01*
X38698714Y-27480381D01*
X38650333Y-27432000D01*
X38553571Y-27383619D01*
X38360048Y-27383619D01*
X38263286Y-27432000D01*
X38214905Y-27480381D01*
X38166524Y-27577143D01*
X38166524Y-27819048D01*
X38214905Y-27915810D01*
X38263286Y-27964190D01*
X38360048Y-28012571D01*
X38553571Y-28012571D01*
X38650333Y-27964190D01*
X38698714Y-27915810D01*
X38747095Y-27819048D01*
X146031857Y-53799619D02*
X145693191Y-53315810D01*
X145451286Y-53799619D02*
X145451286Y-52783619D01*
X145838333Y-52783619D01*
X145935095Y-52832000D01*
X145983476Y-52880381D01*
X146031857Y-52977143D01*
X146031857Y-53122286D01*
X145983476Y-53219048D01*
X145935095Y-53267429D01*
X145838333Y-53315810D01*
X145451286Y-53315810D01*
X146418905Y-52880381D02*
X146467286Y-52832000D01*
X146564048Y-52783619D01*
X146805952Y-52783619D01*
X146902714Y-52832000D01*
X146951095Y-52880381D01*
X146999476Y-52977143D01*
X146999476Y-53073905D01*
X146951095Y-53219048D01*
X146370524Y-53799619D01*
X146999476Y-53799619D01*
X147338143Y-52783619D02*
X148015476Y-52783619D01*
X147580048Y-53799619D01*
X154921857Y-36019619D02*
X154583191Y-35535810D01*
X154341286Y-36019619D02*
X154341286Y-35003619D01*
X154728333Y-35003619D01*
X154825095Y-35052000D01*
X154873476Y-35100381D01*
X154921857Y-35197143D01*
X154921857Y-35342286D01*
X154873476Y-35439048D01*
X154825095Y-35487429D01*
X154728333Y-35535810D01*
X154341286Y-35535810D01*
X155308905Y-35100381D02*
X155357286Y-35052000D01*
X155454048Y-35003619D01*
X155695952Y-35003619D01*
X155792714Y-35052000D01*
X155841095Y-35100381D01*
X155889476Y-35197143D01*
X155889476Y-35293905D01*
X155841095Y-35439048D01*
X155260524Y-36019619D01*
X155889476Y-36019619D01*
X156760333Y-35003619D02*
X156566810Y-35003619D01*
X156470048Y-35052000D01*
X156421667Y-35100381D01*
X156324905Y-35245524D01*
X156276524Y-35439048D01*
X156276524Y-35826095D01*
X156324905Y-35922857D01*
X156373286Y-35971238D01*
X156470048Y-36019619D01*
X156663571Y-36019619D01*
X156760333Y-35971238D01*
X156808714Y-35922857D01*
X156857095Y-35826095D01*
X156857095Y-35584190D01*
X156808714Y-35487429D01*
X156760333Y-35439048D01*
X156663571Y-35390667D01*
X156470048Y-35390667D01*
X156373286Y-35439048D01*
X156324905Y-35487429D01*
X156276524Y-35584190D01*
X146031857Y-29669619D02*
X145693191Y-29185810D01*
X145451286Y-29669619D02*
X145451286Y-28653619D01*
X145838333Y-28653619D01*
X145935095Y-28702000D01*
X145983476Y-28750381D01*
X146031857Y-28847143D01*
X146031857Y-28992286D01*
X145983476Y-29089048D01*
X145935095Y-29137429D01*
X145838333Y-29185810D01*
X145451286Y-29185810D01*
X146418905Y-28750381D02*
X146467286Y-28702000D01*
X146564048Y-28653619D01*
X146805952Y-28653619D01*
X146902714Y-28702000D01*
X146951095Y-28750381D01*
X146999476Y-28847143D01*
X146999476Y-28943905D01*
X146951095Y-29089048D01*
X146370524Y-29669619D01*
X146999476Y-29669619D01*
X147918714Y-28653619D02*
X147434905Y-28653619D01*
X147386524Y-29137429D01*
X147434905Y-29089048D01*
X147531667Y-29040667D01*
X147773571Y-29040667D01*
X147870333Y-29089048D01*
X147918714Y-29137429D01*
X147967095Y-29234190D01*
X147967095Y-29476095D01*
X147918714Y-29572857D01*
X147870333Y-29621238D01*
X147773571Y-29669619D01*
X147531667Y-29669619D01*
X147434905Y-29621238D01*
X147386524Y-29572857D01*
X102851857Y-42369619D02*
X102513191Y-41885810D01*
X102271286Y-42369619D02*
X102271286Y-41353619D01*
X102658333Y-41353619D01*
X102755095Y-41402000D01*
X102803476Y-41450381D01*
X102851857Y-41547143D01*
X102851857Y-41692286D01*
X102803476Y-41789048D01*
X102755095Y-41837429D01*
X102658333Y-41885810D01*
X102271286Y-41885810D01*
X103238905Y-41450381D02*
X103287286Y-41402000D01*
X103384048Y-41353619D01*
X103625952Y-41353619D01*
X103722714Y-41402000D01*
X103771095Y-41450381D01*
X103819476Y-41547143D01*
X103819476Y-41643905D01*
X103771095Y-41789048D01*
X103190524Y-42369619D01*
X103819476Y-42369619D01*
X104690333Y-41692286D02*
X104690333Y-42369619D01*
X104448429Y-41305238D02*
X104206524Y-42030952D01*
X104835476Y-42030952D01*
X27921857Y-36019619D02*
X27583191Y-35535810D01*
X27341286Y-36019619D02*
X27341286Y-35003619D01*
X27728333Y-35003619D01*
X27825095Y-35052000D01*
X27873476Y-35100381D01*
X27921857Y-35197143D01*
X27921857Y-35342286D01*
X27873476Y-35439048D01*
X27825095Y-35487429D01*
X27728333Y-35535810D01*
X27341286Y-35535810D01*
X28308905Y-35100381D02*
X28357286Y-35052000D01*
X28454048Y-35003619D01*
X28695952Y-35003619D01*
X28792714Y-35052000D01*
X28841095Y-35100381D01*
X28889476Y-35197143D01*
X28889476Y-35293905D01*
X28841095Y-35439048D01*
X28260524Y-36019619D01*
X28889476Y-36019619D01*
X29228143Y-35003619D02*
X29857095Y-35003619D01*
X29518429Y-35390667D01*
X29663571Y-35390667D01*
X29760333Y-35439048D01*
X29808714Y-35487429D01*
X29857095Y-35584190D01*
X29857095Y-35826095D01*
X29808714Y-35922857D01*
X29760333Y-35971238D01*
X29663571Y-36019619D01*
X29373286Y-36019619D01*
X29276524Y-35971238D01*
X29228143Y-35922857D01*
X36811857Y-53164619D02*
X36473191Y-52680810D01*
X36231286Y-53164619D02*
X36231286Y-52148619D01*
X36618333Y-52148619D01*
X36715095Y-52197000D01*
X36763476Y-52245381D01*
X36811857Y-52342143D01*
X36811857Y-52487286D01*
X36763476Y-52584048D01*
X36715095Y-52632429D01*
X36618333Y-52680810D01*
X36231286Y-52680810D01*
X37198905Y-52245381D02*
X37247286Y-52197000D01*
X37344048Y-52148619D01*
X37585952Y-52148619D01*
X37682714Y-52197000D01*
X37731095Y-52245381D01*
X37779476Y-52342143D01*
X37779476Y-52438905D01*
X37731095Y-52584048D01*
X37150524Y-53164619D01*
X37779476Y-53164619D01*
X38166524Y-52245381D02*
X38214905Y-52197000D01*
X38311667Y-52148619D01*
X38553571Y-52148619D01*
X38650333Y-52197000D01*
X38698714Y-52245381D01*
X38747095Y-52342143D01*
X38747095Y-52438905D01*
X38698714Y-52584048D01*
X38118143Y-53164619D01*
X38747095Y-53164619D01*
X36811857Y-29669619D02*
X36473191Y-29185810D01*
X36231286Y-29669619D02*
X36231286Y-28653619D01*
X36618333Y-28653619D01*
X36715095Y-28702000D01*
X36763476Y-28750381D01*
X36811857Y-28847143D01*
X36811857Y-28992286D01*
X36763476Y-29089048D01*
X36715095Y-29137429D01*
X36618333Y-29185810D01*
X36231286Y-29185810D01*
X37198905Y-28750381D02*
X37247286Y-28702000D01*
X37344048Y-28653619D01*
X37585952Y-28653619D01*
X37682714Y-28702000D01*
X37731095Y-28750381D01*
X37779476Y-28847143D01*
X37779476Y-28943905D01*
X37731095Y-29089048D01*
X37150524Y-29669619D01*
X37779476Y-29669619D01*
X38747095Y-29669619D02*
X38166524Y-29669619D01*
X38456810Y-29669619D02*
X38456810Y-28653619D01*
X38360048Y-28798762D01*
X38263286Y-28895524D01*
X38166524Y-28943905D01*
X103541286Y-54815619D02*
X103541286Y-53799619D01*
X103928333Y-53799619D01*
X104025095Y-53848000D01*
X104073476Y-53896381D01*
X104121857Y-53993143D01*
X104121857Y-54138286D01*
X104073476Y-54235048D01*
X104025095Y-54283429D01*
X103928333Y-54331810D01*
X103541286Y-54331810D01*
X104992714Y-54138286D02*
X104992714Y-54815619D01*
X104750810Y-53751238D02*
X104508905Y-54476952D01*
X105137857Y-54476952D01*
X105428143Y-53799619D02*
X106057095Y-53799619D01*
X105718429Y-54186667D01*
X105863571Y-54186667D01*
X105960333Y-54235048D01*
X106008714Y-54283429D01*
X106057095Y-54380190D01*
X106057095Y-54622095D01*
X106008714Y-54718857D01*
X105960333Y-54767238D01*
X105863571Y-54815619D01*
X105573286Y-54815619D01*
X105476524Y-54767238D01*
X105428143Y-54718857D01*
X62943619Y-46494095D02*
X63766095Y-46494095D01*
X63862857Y-46445714D01*
X63911238Y-46397333D01*
X63959619Y-46300571D01*
X63959619Y-46107048D01*
X63911238Y-46010286D01*
X63862857Y-45961905D01*
X63766095Y-45913524D01*
X62943619Y-45913524D01*
X63379048Y-45284571D02*
X63330667Y-45381333D01*
X63282286Y-45429714D01*
X63185524Y-45478095D01*
X63137143Y-45478095D01*
X63040381Y-45429714D01*
X62992000Y-45381333D01*
X62943619Y-45284571D01*
X62943619Y-45091048D01*
X62992000Y-44994286D01*
X63040381Y-44945905D01*
X63137143Y-44897524D01*
X63185524Y-44897524D01*
X63282286Y-44945905D01*
X63330667Y-44994286D01*
X63379048Y-45091048D01*
X63379048Y-45284571D01*
X63427429Y-45381333D01*
X63475810Y-45429714D01*
X63572571Y-45478095D01*
X63766095Y-45478095D01*
X63862857Y-45429714D01*
X63911238Y-45381333D01*
X63959619Y-45284571D01*
X63959619Y-45091048D01*
X63911238Y-44994286D01*
X63862857Y-44945905D01*
X63766095Y-44897524D01*
X63572571Y-44897524D01*
X63475810Y-44945905D01*
X63427429Y-44994286D01*
X63379048Y-45091048D01*
X63959619Y-42938095D02*
X63959619Y-43421904D01*
X62943619Y-43421904D01*
X63862857Y-42018857D02*
X63911238Y-42067238D01*
X63959619Y-42212381D01*
X63959619Y-42309143D01*
X63911238Y-42454285D01*
X63814476Y-42551047D01*
X63717714Y-42599428D01*
X63524190Y-42647809D01*
X63379048Y-42647809D01*
X63185524Y-42599428D01*
X63088762Y-42551047D01*
X62992000Y-42454285D01*
X62943619Y-42309143D01*
X62943619Y-42212381D01*
X62992000Y-42067238D01*
X63040381Y-42018857D01*
X63959619Y-41583428D02*
X62943619Y-41583428D01*
X62943619Y-41341523D01*
X62992000Y-41196381D01*
X63088762Y-41099619D01*
X63185524Y-41051238D01*
X63379048Y-41002857D01*
X63524190Y-41002857D01*
X63717714Y-41051238D01*
X63814476Y-41099619D01*
X63911238Y-41196381D01*
X63959619Y-41341523D01*
X63959619Y-41583428D01*
X64056381Y-40809333D02*
X64056381Y-40035238D01*
X62943619Y-39938476D02*
X62943619Y-39357905D01*
X63959619Y-39648190D02*
X62943619Y-39648190D01*
X63427429Y-38680572D02*
X63427429Y-39019238D01*
X63959619Y-39019238D02*
X62943619Y-39019238D01*
X62943619Y-38535429D01*
X62943619Y-38293524D02*
X62943619Y-37712953D01*
X63959619Y-38003238D02*
X62943619Y-38003238D01*
X114160905Y-73738619D02*
X114160905Y-74561095D01*
X114209286Y-74657857D01*
X114257667Y-74706238D01*
X114354429Y-74754619D01*
X114547952Y-74754619D01*
X114644714Y-74706238D01*
X114693095Y-74657857D01*
X114741476Y-74561095D01*
X114741476Y-73738619D01*
X115273667Y-74754619D02*
X115467191Y-74754619D01*
X115563952Y-74706238D01*
X115612333Y-74657857D01*
X115709095Y-74512714D01*
X115757476Y-74319190D01*
X115757476Y-73932143D01*
X115709095Y-73835381D01*
X115660714Y-73787000D01*
X115563952Y-73738619D01*
X115370429Y-73738619D01*
X115273667Y-73787000D01*
X115225286Y-73835381D01*
X115176905Y-73932143D01*
X115176905Y-74174048D01*
X115225286Y-74270810D01*
X115273667Y-74319190D01*
X115370429Y-74367571D01*
X115563952Y-74367571D01*
X115660714Y-74319190D01*
X115709095Y-74270810D01*
X115757476Y-74174048D01*
X117335905Y-74222429D02*
X116997239Y-74222429D01*
X116997239Y-74754619D02*
X116997239Y-73738619D01*
X117481048Y-73738619D01*
X118255143Y-74706238D02*
X118158381Y-74754619D01*
X117964858Y-74754619D01*
X117868096Y-74706238D01*
X117819715Y-74609476D01*
X117819715Y-74222429D01*
X117868096Y-74125667D01*
X117964858Y-74077286D01*
X118158381Y-74077286D01*
X118255143Y-74125667D01*
X118303524Y-74222429D01*
X118303524Y-74319190D01*
X117819715Y-74415952D01*
X119174381Y-74754619D02*
X119174381Y-74222429D01*
X119126000Y-74125667D01*
X119029238Y-74077286D01*
X118835715Y-74077286D01*
X118738953Y-74125667D01*
X119174381Y-74706238D02*
X119077619Y-74754619D01*
X118835715Y-74754619D01*
X118738953Y-74706238D01*
X118690572Y-74609476D01*
X118690572Y-74512714D01*
X118738953Y-74415952D01*
X118835715Y-74367571D01*
X119077619Y-74367571D01*
X119174381Y-74319190D01*
X119513048Y-74077286D02*
X119900096Y-74077286D01*
X119658191Y-73738619D02*
X119658191Y-74609476D01*
X119706572Y-74706238D01*
X119803334Y-74754619D01*
X119900096Y-74754619D01*
X120238762Y-74754619D02*
X120238762Y-73738619D01*
X120674190Y-74754619D02*
X120674190Y-74222429D01*
X120625809Y-74125667D01*
X120529047Y-74077286D01*
X120383905Y-74077286D01*
X120287143Y-74125667D01*
X120238762Y-74174048D01*
X121545047Y-74706238D02*
X121448285Y-74754619D01*
X121254762Y-74754619D01*
X121158000Y-74706238D01*
X121109619Y-74609476D01*
X121109619Y-74222429D01*
X121158000Y-74125667D01*
X121254762Y-74077286D01*
X121448285Y-74077286D01*
X121545047Y-74125667D01*
X121593428Y-74222429D01*
X121593428Y-74319190D01*
X121109619Y-74415952D01*
X122028857Y-74754619D02*
X122028857Y-74077286D01*
X122028857Y-74270810D02*
X122077238Y-74174048D01*
X122125619Y-74125667D01*
X122222381Y-74077286D01*
X122319142Y-74077286D01*
X122657809Y-74754619D02*
X122657809Y-73738619D01*
X122996475Y-74464333D01*
X123335142Y-73738619D01*
X123335142Y-74754619D01*
X124012476Y-73738619D02*
X124109237Y-73738619D01*
X124205999Y-73787000D01*
X124254380Y-73835381D01*
X124302761Y-73932143D01*
X124351142Y-74125667D01*
X124351142Y-74367571D01*
X124302761Y-74561095D01*
X124254380Y-74657857D01*
X124205999Y-74706238D01*
X124109237Y-74754619D01*
X124012476Y-74754619D01*
X123915714Y-74706238D01*
X123867333Y-74657857D01*
X123818952Y-74561095D01*
X123770571Y-74367571D01*
X123770571Y-74125667D01*
X123818952Y-73932143D01*
X123867333Y-73835381D01*
X123915714Y-73787000D01*
X124012476Y-73738619D01*
X46923477Y-32947429D02*
X47262143Y-32947429D01*
X47407286Y-33479619D02*
X46923477Y-33479619D01*
X46923477Y-32463619D01*
X47407286Y-32463619D01*
X47745953Y-32463619D02*
X48374905Y-32463619D01*
X48036239Y-32850667D01*
X48181381Y-32850667D01*
X48278143Y-32899048D01*
X48326524Y-32947429D01*
X48374905Y-33044190D01*
X48374905Y-33286095D01*
X48326524Y-33382857D01*
X48278143Y-33431238D01*
X48181381Y-33479619D01*
X47891096Y-33479619D01*
X47794334Y-33431238D01*
X47745953Y-33382857D01*
X34749620Y-32947429D02*
X35088286Y-32947429D01*
X35233429Y-33479619D02*
X34749620Y-33479619D01*
X34749620Y-32463619D01*
X35233429Y-32463619D01*
X35668858Y-33479619D02*
X35668858Y-32463619D01*
X36249429Y-33479619D01*
X36249429Y-32463619D01*
X37313810Y-33382857D02*
X37265429Y-33431238D01*
X37120286Y-33479619D01*
X37023524Y-33479619D01*
X36878382Y-33431238D01*
X36781620Y-33334476D01*
X36733239Y-33237714D01*
X36684858Y-33044190D01*
X36684858Y-32899048D01*
X36733239Y-32705524D01*
X36781620Y-32608762D01*
X36878382Y-32512000D01*
X37023524Y-32463619D01*
X37120286Y-32463619D01*
X37265429Y-32512000D01*
X37313810Y-32560381D01*
X37507334Y-33576381D02*
X38281429Y-33576381D01*
X38474953Y-33189333D02*
X38958762Y-33189333D01*
X38378191Y-33479619D02*
X38716858Y-32463619D01*
X39055524Y-33479619D01*
X42859476Y-46752857D02*
X42811095Y-46801238D01*
X42665952Y-46849619D01*
X42569190Y-46849619D01*
X42424048Y-46801238D01*
X42327286Y-46704476D01*
X42278905Y-46607714D01*
X42230524Y-46414190D01*
X42230524Y-46269048D01*
X42278905Y-46075524D01*
X42327286Y-45978762D01*
X42424048Y-45882000D01*
X42569190Y-45833619D01*
X42665952Y-45833619D01*
X42811095Y-45882000D01*
X42859476Y-45930381D01*
X39803096Y-46559333D02*
X40286905Y-46559333D01*
X39706334Y-46849619D02*
X40045001Y-45833619D01*
X40383667Y-46849619D01*
X45117571Y-46317429D02*
X45262714Y-46365810D01*
X45311095Y-46414190D01*
X45359476Y-46510952D01*
X45359476Y-46656095D01*
X45311095Y-46752857D01*
X45262714Y-46801238D01*
X45165952Y-46849619D01*
X44778905Y-46849619D01*
X44778905Y-45833619D01*
X45117571Y-45833619D01*
X45214333Y-45882000D01*
X45262714Y-45930381D01*
X45311095Y-46027143D01*
X45311095Y-46123905D01*
X45262714Y-46220667D01*
X45214333Y-46269048D01*
X45117571Y-46317429D01*
X44778905Y-46317429D01*
X39174143Y-35801238D02*
X39319286Y-35849619D01*
X39561190Y-35849619D01*
X39657952Y-35801238D01*
X39706333Y-35752857D01*
X39754714Y-35656095D01*
X39754714Y-35559333D01*
X39706333Y-35462571D01*
X39657952Y-35414190D01*
X39561190Y-35365810D01*
X39367667Y-35317429D01*
X39270905Y-35269048D01*
X39222524Y-35220667D01*
X39174143Y-35123905D01*
X39174143Y-35027143D01*
X39222524Y-34930381D01*
X39270905Y-34882000D01*
X39367667Y-34833619D01*
X39609571Y-34833619D01*
X39754714Y-34882000D01*
X40093381Y-34833619D02*
X40335286Y-35849619D01*
X40528809Y-35123905D01*
X40722333Y-35849619D01*
X40964238Y-34833619D01*
X44174143Y-35801238D02*
X44319286Y-35849619D01*
X44561190Y-35849619D01*
X44657952Y-35801238D01*
X44706333Y-35752857D01*
X44754714Y-35656095D01*
X44754714Y-35559333D01*
X44706333Y-35462571D01*
X44657952Y-35414190D01*
X44561190Y-35365810D01*
X44367667Y-35317429D01*
X44270905Y-35269048D01*
X44222524Y-35220667D01*
X44174143Y-35123905D01*
X44174143Y-35027143D01*
X44222524Y-34930381D01*
X44270905Y-34882000D01*
X44367667Y-34833619D01*
X44609571Y-34833619D01*
X44754714Y-34882000D01*
X45093381Y-34833619D02*
X45335286Y-35849619D01*
X45528809Y-35123905D01*
X45722333Y-35849619D01*
X45964238Y-34833619D01*
X145983477Y-32947429D02*
X146322143Y-32947429D01*
X146467286Y-33479619D02*
X145983477Y-33479619D01*
X145983477Y-32463619D01*
X146467286Y-32463619D01*
X147338143Y-32802286D02*
X147338143Y-33479619D01*
X147096239Y-32415238D02*
X146854334Y-33140952D01*
X147483286Y-33140952D01*
X133737048Y-32947429D02*
X134075714Y-32947429D01*
X134220857Y-33479619D02*
X133737048Y-33479619D01*
X133737048Y-32463619D01*
X134220857Y-32463619D01*
X134656286Y-33479619D02*
X134656286Y-32463619D01*
X135236857Y-33479619D01*
X135236857Y-32463619D01*
X136301238Y-33382857D02*
X136252857Y-33431238D01*
X136107714Y-33479619D01*
X136010952Y-33479619D01*
X135865810Y-33431238D01*
X135769048Y-33334476D01*
X135720667Y-33237714D01*
X135672286Y-33044190D01*
X135672286Y-32899048D01*
X135720667Y-32705524D01*
X135769048Y-32608762D01*
X135865810Y-32512000D01*
X136010952Y-32463619D01*
X136107714Y-32463619D01*
X136252857Y-32512000D01*
X136301238Y-32560381D01*
X136494762Y-33576381D02*
X137268857Y-33576381D01*
X137849428Y-32947429D02*
X137994571Y-32995810D01*
X138042952Y-33044190D01*
X138091333Y-33140952D01*
X138091333Y-33286095D01*
X138042952Y-33382857D01*
X137994571Y-33431238D01*
X137897809Y-33479619D01*
X137510762Y-33479619D01*
X137510762Y-32463619D01*
X137849428Y-32463619D01*
X137946190Y-32512000D01*
X137994571Y-32560381D01*
X138042952Y-32657143D01*
X138042952Y-32753905D01*
X137994571Y-32850667D01*
X137946190Y-32899048D01*
X137849428Y-32947429D01*
X137510762Y-32947429D01*
X141919476Y-46752857D02*
X141871095Y-46801238D01*
X141725952Y-46849619D01*
X141629190Y-46849619D01*
X141484048Y-46801238D01*
X141387286Y-46704476D01*
X141338905Y-46607714D01*
X141290524Y-46414190D01*
X141290524Y-46269048D01*
X141338905Y-46075524D01*
X141387286Y-45978762D01*
X141484048Y-45882000D01*
X141629190Y-45833619D01*
X141725952Y-45833619D01*
X141871095Y-45882000D01*
X141919476Y-45930381D01*
X138863096Y-46559333D02*
X139346905Y-46559333D01*
X138766334Y-46849619D02*
X139105001Y-45833619D01*
X139443667Y-46849619D01*
X144177571Y-46317429D02*
X144322714Y-46365810D01*
X144371095Y-46414190D01*
X144419476Y-46510952D01*
X144419476Y-46656095D01*
X144371095Y-46752857D01*
X144322714Y-46801238D01*
X144225952Y-46849619D01*
X143838905Y-46849619D01*
X143838905Y-45833619D01*
X144177571Y-45833619D01*
X144274333Y-45882000D01*
X144322714Y-45930381D01*
X144371095Y-46027143D01*
X144371095Y-46123905D01*
X144322714Y-46220667D01*
X144274333Y-46269048D01*
X144177571Y-46317429D01*
X143838905Y-46317429D01*
X138234143Y-35801238D02*
X138379286Y-35849619D01*
X138621190Y-35849619D01*
X138717952Y-35801238D01*
X138766333Y-35752857D01*
X138814714Y-35656095D01*
X138814714Y-35559333D01*
X138766333Y-35462571D01*
X138717952Y-35414190D01*
X138621190Y-35365810D01*
X138427667Y-35317429D01*
X138330905Y-35269048D01*
X138282524Y-35220667D01*
X138234143Y-35123905D01*
X138234143Y-35027143D01*
X138282524Y-34930381D01*
X138330905Y-34882000D01*
X138427667Y-34833619D01*
X138669571Y-34833619D01*
X138814714Y-34882000D01*
X139153381Y-34833619D02*
X139395286Y-35849619D01*
X139588809Y-35123905D01*
X139782333Y-35849619D01*
X140024238Y-34833619D01*
X143234143Y-35801238D02*
X143379286Y-35849619D01*
X143621190Y-35849619D01*
X143717952Y-35801238D01*
X143766333Y-35752857D01*
X143814714Y-35656095D01*
X143814714Y-35559333D01*
X143766333Y-35462571D01*
X143717952Y-35414190D01*
X143621190Y-35365810D01*
X143427667Y-35317429D01*
X143330905Y-35269048D01*
X143282524Y-35220667D01*
X143234143Y-35123905D01*
X143234143Y-35027143D01*
X143282524Y-34930381D01*
X143330905Y-34882000D01*
X143427667Y-34833619D01*
X143669571Y-34833619D01*
X143814714Y-34882000D01*
X144153381Y-34833619D02*
X144395286Y-35849619D01*
X144588809Y-35123905D01*
X144782333Y-35849619D01*
X145024238Y-34833619D01*
%LPC*%
D15*
X93345000Y-24130000D03*
X93345000Y-26670000D03*
X93345000Y-29210000D03*
X93345000Y-31750000D03*
X93345000Y-34290000D03*
X93345000Y-36830000D03*
X93345000Y-39370000D03*
X93345000Y-41910000D03*
X93345000Y-44450000D03*
X93345000Y-46990000D03*
X93345000Y-49530000D03*
X93345000Y-52070000D03*
D16*
X92075000Y-54610000D03*
X89535000Y-54610000D03*
X86995000Y-54610000D03*
X84455000Y-54610000D03*
X81915000Y-54610000D03*
X79375000Y-54610000D03*
D15*
X78105000Y-52069999D03*
X78105000Y-49530000D03*
X78105000Y-46990000D03*
X78105000Y-44450000D03*
X78105000Y-41910000D03*
X78105000Y-39370000D03*
X78105000Y-36830000D03*
X78105000Y-34290000D03*
X78105000Y-31750000D03*
X78105000Y-29210000D03*
X78105000Y-26670000D03*
X78105000Y-24130000D03*
D17*
X90805000Y-24130000D03*
X90805000Y-26670000D03*
X90805000Y-29210000D03*
X90805000Y-31750000D03*
X90805000Y-34290000D03*
X90805000Y-36830000D03*
X90805000Y-39370000D03*
X90805000Y-41910000D03*
X90805000Y-44450000D03*
X90805000Y-46990000D03*
X90805000Y-49530000D03*
X95885000Y-52070000D03*
X94615000Y-54610000D03*
X89535000Y-52070000D03*
X86995000Y-52070000D03*
X84455000Y-52070000D03*
X81915000Y-52070000D03*
X76835000Y-54610000D03*
X75565000Y-52070000D03*
X80645000Y-49530000D03*
X80645000Y-46990000D03*
X80645000Y-44450000D03*
X80645000Y-41910000D03*
X80645000Y-39370000D03*
X80645000Y-36830000D03*
X80645000Y-34290000D03*
X80645000Y-31750000D03*
X80645000Y-29210000D03*
D18*
X80645000Y-26670000D03*
X80645000Y-24130000D03*
D19*
X140335000Y-54610000D03*
X142875000Y-54610000D03*
X155575000Y-41910000D03*
X155575000Y-39370000D03*
X140335000Y-27940000D03*
X142875000Y-27940000D03*
X103505000Y-48895000D03*
X103505000Y-46355000D03*
X28575000Y-41910000D03*
X28575000Y-39370000D03*
X43815000Y-53975000D03*
X41275000Y-53975000D03*
X43815000Y-27940000D03*
X41275000Y-27940000D03*
D20*
X146685000Y-51435000D03*
X136525000Y-51435000D03*
X152400000Y-35560000D03*
X152400000Y-45720000D03*
X146685000Y-31115000D03*
X136525000Y-31115000D03*
X106680000Y-38735000D03*
X106680000Y-48895000D03*
X31750000Y-35560000D03*
X31750000Y-45720000D03*
X37465000Y-50800000D03*
X47625000Y-50800000D03*
X37465000Y-31115000D03*
X47625000Y-31115000D03*
D21*
X106045000Y-52070000D03*
D22*
X103505000Y-52070000D03*
D15*
X73025000Y-28575000D03*
X73025000Y-31115000D03*
X73025000Y-33655000D03*
X73025000Y-36195000D03*
X73025000Y-38735000D03*
X73025000Y-41275000D03*
X73025000Y-43815000D03*
X73025000Y-46355000D03*
X73025000Y-48895000D03*
X73025000Y-51435000D03*
X73025000Y-53975000D03*
X73025000Y-56515000D03*
D16*
X69215000Y-60960000D03*
X66675000Y-60960000D03*
X64135000Y-60960000D03*
X61595000Y-60960000D03*
X59055000Y-60960000D03*
X56515000Y-60960000D03*
D15*
X52705000Y-56515000D03*
X52705000Y-53975000D03*
X52705000Y-51435000D03*
X52705000Y-48895000D03*
X52705000Y-46355000D03*
X52705000Y-43815000D03*
X52705000Y-41275000D03*
X52705000Y-38735000D03*
X52705000Y-36195000D03*
X52705000Y-33655000D03*
X52705000Y-31115000D03*
X52705000Y-28575000D03*
D23*
X72390000Y-60325000D03*
X53340000Y-60325000D03*
X53340000Y-24765000D03*
X72390000Y-24765000D03*
D17*
X70485000Y-28575000D03*
X70485000Y-31115000D03*
X70485000Y-33655000D03*
X70485000Y-36195000D03*
X70485000Y-38735000D03*
X70485000Y-41275000D03*
X70485000Y-43815000D03*
X70485000Y-46355000D03*
X70485000Y-48895000D03*
X70485000Y-51435000D03*
X70485000Y-53975000D03*
X70485000Y-56515000D03*
X55245000Y-56515000D03*
X55245000Y-53975000D03*
X55245000Y-51435000D03*
X55245000Y-48895000D03*
X55245000Y-46355000D03*
X55245000Y-43815000D03*
X55245000Y-41275000D03*
X55245000Y-38735000D03*
X55245000Y-36195000D03*
X55245000Y-33655000D03*
D18*
X55245000Y-31115000D03*
X55245000Y-28575000D03*
D23*
X72390000Y-71120000D03*
X54610000Y-71120000D03*
X137795000Y-60960000D03*
X46355000Y-60960000D03*
D24*
X66675000Y-29210000D03*
X66675000Y-31750000D03*
X66675000Y-34290000D03*
X66675000Y-36830000D03*
X66675000Y-39370000D03*
D25*
X66675000Y-41910000D03*
D24*
X66675000Y-44450000D03*
X66675000Y-46990000D03*
X66675000Y-49530000D03*
X66675000Y-52070000D03*
D23*
X66675000Y-55245000D03*
X117475000Y-55245000D03*
X117475000Y-26035000D03*
X66675000Y-26035000D03*
D15*
X130810000Y-67310000D03*
X130810000Y-64770000D03*
X130810000Y-62230000D03*
X130810000Y-59690000D03*
X130810000Y-57150000D03*
X130810000Y-54610000D03*
X130810000Y-52070000D03*
X130810000Y-49530000D03*
X130810000Y-46990000D03*
X130810000Y-44450000D03*
X130810000Y-41910000D03*
X130810000Y-39370000D03*
X110490000Y-29210000D03*
X110490000Y-31750000D03*
X110490000Y-34290000D03*
X110490000Y-36830000D03*
X110490000Y-39370000D03*
X110490000Y-41910000D03*
X110490000Y-44450000D03*
X110490000Y-46990000D03*
X110490000Y-49530000D03*
X110490000Y-52070000D03*
X110490000Y-54610000D03*
X110490000Y-57150000D03*
X110490000Y-59690000D03*
X110490000Y-62230000D03*
X110490000Y-64770000D03*
X110490000Y-67310000D03*
D23*
X129540000Y-25400000D03*
X111760000Y-25400000D03*
D26*
X128270000Y-67310000D03*
X128270000Y-64770000D03*
X128270000Y-62230000D03*
X128270000Y-59690000D03*
X128270000Y-57150000D03*
X128270000Y-54610000D03*
X128270000Y-52070000D03*
X128270000Y-49530000D03*
X128270000Y-46990000D03*
X128270000Y-44450000D03*
X128270000Y-41910000D03*
X128270000Y-39370000D03*
X113030000Y-29210000D03*
X113030000Y-31750000D03*
X113030000Y-34290000D03*
X113030000Y-36830000D03*
X113030000Y-39370000D03*
X113030000Y-41910000D03*
X113030000Y-44450000D03*
X113030000Y-46990000D03*
X113030000Y-49530000D03*
X113030000Y-52070000D03*
X113030000Y-54610000D03*
X113030000Y-57150000D03*
X113030000Y-59690000D03*
X113030000Y-62230000D03*
X113030000Y-64770000D03*
X113030000Y-67310000D03*
D23*
X129540000Y-71120000D03*
X111760000Y-71120000D03*
D27*
X42545000Y-48140000D03*
X40045000Y-48140000D03*
X45045000Y-48140000D03*
X40045000Y-33640000D03*
X45045000Y-33640000D03*
D28*
X49245000Y-40640000D03*
X35845000Y-40640000D03*
D27*
X141605000Y-48140000D03*
X139105000Y-48140000D03*
X144105000Y-48140000D03*
X139105000Y-33640000D03*
X144105000Y-33640000D03*
D28*
X148305000Y-40640000D03*
X134905000Y-40640000D03*
D29*
X99585000Y-26035000D03*
X104885000Y-26035000D03*
M02*
