M48
;DRILL file {KiCad 4.0.1-3.201512221401+6198~38~ubuntu15.10.1-stable} date Mon Feb 15 20:15:15 2016
;FORMAT={2:4/ absolute / inch / keep zeros}
FMAT,2
INCH,TZ
T1C0.020
T2C0.032
T3C0.039
T4C0.039
T5C0.040
T6C0.063
T7C0.106
T8C0.120
%
G90
G05
M72
T1
X020000Y011500
X029243Y017450
X029250Y018250
X029750Y008950
X030750Y015500
X030750Y017500
X032500Y012500
X036500Y013500
X042750Y017000
T2
X001750Y014000
X001750Y013000
X006750Y018500
X006750Y008250
X007750Y018500
X007750Y008250
X031250Y011250
X031250Y010250
X045750Y018500
X045750Y008000
X046750Y018500
X046750Y008000
X051750Y014000
X051750Y013000
T3
X006266Y016256
X006266Y010547
X007250Y010547
X008234Y016256
X008234Y010547
X045266Y016256
X045266Y010547
X046250Y010547
X047234Y016256
X047234Y010547
T4
X003000Y015500
X003000Y011500
X005250Y017250
X005250Y009500
X009250Y017250
X009250Y009500
X032500Y014250
X032500Y010250
X044250Y017250
X044250Y009250
X048250Y017250
X048250Y009250
X050500Y015500
X050500Y011500
T5
X011250Y018250
X011250Y017250
X011250Y016250
X011250Y015250
X011250Y014250
X011250Y013250
X011250Y012250
X011250Y011250
X011250Y010250
X011250Y009250
X011250Y008250
X011250Y007250
X012250Y018250
X012250Y017250
X012250Y016250
X012250Y015250
X012250Y014250
X012250Y013250
X012250Y012250
X012250Y011250
X012250Y010250
X012250Y009250
X012250Y008250
X012250Y007250
X012750Y005500
X013750Y005500
X014750Y005500
X015750Y005500
X016750Y018000
X016750Y017000
X016750Y016000
X016750Y015000
X016750Y014000
X016750Y013000
X016750Y012000
X016750Y011000
X016750Y010000
X016750Y009000
X016750Y005500
X017750Y005500
X018250Y018250
X018250Y017250
X018250Y016250
X018250Y015250
X018250Y014250
X018250Y013250
X018250Y012250
X018250Y011250
X018250Y010250
X018250Y009250
X018250Y008250
X018250Y007250
X019250Y018250
X019250Y017250
X019250Y016250
X019250Y015250
X019250Y014250
X019250Y013250
X019250Y012250
X019250Y011250
X019250Y010250
X019250Y009250
X019250Y008250
X019250Y007250
X020250Y009000
X020750Y008000
X021250Y020000
X021250Y019000
X021250Y018000
X021250Y017000
X021250Y016000
X021250Y015000
X021250Y014000
X021250Y013000
X021250Y012000
X021250Y011000
X021250Y010000
X021250Y009000
X021750Y008000
X022250Y020000
X022250Y019000
X022250Y018000
X022250Y017000
X022250Y016000
X022250Y015000
X022250Y014000
X022250Y013000
X022250Y012000
X022250Y011000
X022250Y010000
X022750Y009000
X022750Y008000
X023750Y009000
X023750Y008000
X024750Y009000
X024750Y008000
X025750Y009000
X025750Y008000
X026250Y020000
X026250Y019000
X026250Y018000
X026250Y017000
X026250Y016000
X026250Y015000
X026250Y014000
X026250Y013000
X026250Y012000
X026250Y011000
X026250Y010000
X026750Y008000
X027250Y020000
X027250Y019000
X027250Y018000
X027250Y017000
X027250Y016000
X027250Y015000
X027250Y014000
X027250Y013000
X027250Y012000
X027250Y011000
X027250Y010000
X027250Y009000
X027750Y008000
X028250Y009000
X031250Y009000
X032250Y009000
X034000Y018000
X034000Y017000
X034000Y016000
X034000Y015000
X034000Y014000
X034000Y013000
X034000Y012000
X034000Y011000
X034000Y010000
X034000Y009000
X034000Y008000
X034000Y007000
X034000Y006000
X034000Y005000
X034000Y004000
X034000Y003000
X035000Y018000
X035000Y017000
X035000Y016000
X035000Y015000
X035000Y014000
X035000Y013000
X035000Y012000
X035000Y011000
X035000Y010000
X035000Y009000
X035000Y008000
X035000Y007000
X035000Y006000
X035000Y005000
X035000Y004000
X035000Y003000
X041000Y014000
X041000Y013000
X041000Y012000
X041000Y011000
X041000Y010000
X041000Y009000
X041000Y008000
X041000Y007000
X041000Y006000
X041000Y005000
X041000Y004000
X041000Y003000
X042000Y014000
X042000Y013000
X042000Y012000
X042000Y011000
X042000Y010000
X042000Y009000
X042000Y008000
X042000Y007000
X042000Y006000
X042000Y005000
X042000Y004000
X042000Y003000
T6
X029707Y019250
X031793Y019250
T7
X004612Y013500
X009888Y013500
X043612Y013500
X048888Y013500
T8
X008750Y005500
X011500Y019750
X011500Y005750
X012000Y001500
X016750Y019250
X016750Y007750
X019000Y019750
X019000Y005750
X019000Y001500
X034500Y019500
X034500Y001500
X036750Y019250
X036750Y007750
X041500Y019500
X041500Y001500
X044750Y005500
T0
M30
