G04 #@! TF.FileFunction,Legend,Top*
%FSLAX46Y46*%
G04 Gerber Fmt 4.6, Leading zero omitted, Abs format (unit mm)*
G04 Created by KiCad (PCBNEW 4.0.1-3.201512221401+6198~38~ubuntu15.10.1-stable) date Fri Feb  5 22:48:27 2016*
%MOMM*%
G01*
G04 APERTURE LIST*
%ADD10C,0.101600*%
%ADD11C,0.254000*%
%ADD12C,0.304800*%
%ADD13C,0.152400*%
%ADD14C,0.150000*%
%ADD15O,2.432000X1.924000*%
%ADD16O,1.924000X2.432000*%
%ADD17O,1.924000X1.924000*%
%ADD18O,1.797000X1.797000*%
%ADD19C,1.901140*%
%ADD20C,2.398980*%
%ADD21C,1.924000*%
%ADD22C,4.100000*%
%ADD23C,2.400000*%
%ADD24R,2.432000X2.432000*%
%ADD25O,2.432000X2.432000*%
%ADD26C,4.572000*%
%ADD27O,2.813000X1.797000*%
%ADD28O,2.432000X1.797000*%
G04 APERTURE END LIST*
D10*
D11*
X32143096Y7892143D02*
X32385000Y7045476D01*
X32626905Y7650238D01*
X32868810Y7045476D01*
X33110715Y7892143D01*
X33473572Y7892143D02*
X33715476Y7045476D01*
X33957381Y7650238D01*
X34199286Y7045476D01*
X34441191Y7892143D01*
X34804048Y7892143D02*
X35045952Y7045476D01*
X35287857Y7650238D01*
X35529762Y7045476D01*
X35771667Y7892143D01*
X36255476Y7166429D02*
X36315952Y7105952D01*
X36255476Y7045476D01*
X36195000Y7105952D01*
X36255476Y7166429D01*
X36255476Y7045476D01*
X36739286Y7892143D02*
X36981190Y7045476D01*
X37223095Y7650238D01*
X37465000Y7045476D01*
X37706905Y7892143D01*
X38069762Y7892143D02*
X38372143Y7045476D01*
X38674523Y7892143D02*
X38372143Y7045476D01*
X38251190Y6743095D01*
X38190714Y6682619D01*
X38069762Y6622143D01*
X39339762Y7045476D02*
X39218809Y7105952D01*
X39158333Y7166429D01*
X39097857Y7287381D01*
X39097857Y7650238D01*
X39158333Y7771190D01*
X39218809Y7831667D01*
X39339762Y7892143D01*
X39521190Y7892143D01*
X39642142Y7831667D01*
X39702619Y7771190D01*
X39763095Y7650238D01*
X39763095Y7287381D01*
X39702619Y7166429D01*
X39642142Y7105952D01*
X39521190Y7045476D01*
X39339762Y7045476D01*
X40488810Y7045476D02*
X40367857Y7105952D01*
X40307381Y7226905D01*
X40307381Y8315476D01*
X41516905Y7892143D02*
X41516905Y7045476D01*
X40972619Y7892143D02*
X40972619Y7226905D01*
X41033095Y7105952D01*
X41154048Y7045476D01*
X41335476Y7045476D01*
X41456428Y7105952D01*
X41516905Y7166429D01*
X42121667Y7045476D02*
X42121667Y7892143D01*
X42121667Y7771190D02*
X42182143Y7831667D01*
X42303096Y7892143D01*
X42484524Y7892143D01*
X42605476Y7831667D01*
X42665953Y7710714D01*
X42665953Y7045476D01*
X42665953Y7710714D02*
X42726429Y7831667D01*
X42847381Y7892143D01*
X43028810Y7892143D01*
X43149762Y7831667D01*
X43210238Y7710714D01*
X43210238Y7045476D01*
X43815000Y7166429D02*
X43875476Y7105952D01*
X43815000Y7045476D01*
X43754524Y7105952D01*
X43815000Y7166429D01*
X43815000Y7045476D01*
X44964048Y7105952D02*
X44843095Y7045476D01*
X44601191Y7045476D01*
X44480238Y7105952D01*
X44419762Y7166429D01*
X44359286Y7287381D01*
X44359286Y7650238D01*
X44419762Y7771190D01*
X44480238Y7831667D01*
X44601191Y7892143D01*
X44843095Y7892143D01*
X44964048Y7831667D01*
X45689762Y7045476D02*
X45568809Y7105952D01*
X45508333Y7166429D01*
X45447857Y7287381D01*
X45447857Y7650238D01*
X45508333Y7771190D01*
X45568809Y7831667D01*
X45689762Y7892143D01*
X45871190Y7892143D01*
X45992142Y7831667D01*
X46052619Y7771190D01*
X46113095Y7650238D01*
X46113095Y7287381D01*
X46052619Y7166429D01*
X45992142Y7105952D01*
X45871190Y7045476D01*
X45689762Y7045476D01*
X46657381Y7045476D02*
X46657381Y7892143D01*
X46657381Y7771190D02*
X46717857Y7831667D01*
X46838810Y7892143D01*
X47020238Y7892143D01*
X47141190Y7831667D01*
X47201667Y7710714D01*
X47201667Y7045476D01*
X47201667Y7710714D02*
X47262143Y7831667D01*
X47383095Y7892143D01*
X47564524Y7892143D01*
X47685476Y7831667D01*
X47745952Y7710714D01*
X47745952Y7045476D01*
D12*
X32439428Y10994571D02*
X32947428Y9470571D01*
X33455428Y10994571D01*
X34544000Y9543143D02*
X34398857Y9470571D01*
X34108571Y9470571D01*
X33963428Y9543143D01*
X33890857Y9688286D01*
X33890857Y10268857D01*
X33963428Y10414000D01*
X34108571Y10486571D01*
X34398857Y10486571D01*
X34544000Y10414000D01*
X34616571Y10268857D01*
X34616571Y10123714D01*
X33890857Y9978571D01*
X35487428Y9470571D02*
X35342286Y9543143D01*
X35269714Y9688286D01*
X35269714Y10994571D01*
X36285714Y9470571D02*
X36140572Y9543143D01*
X36068000Y9615714D01*
X35995429Y9760857D01*
X35995429Y10196286D01*
X36068000Y10341429D01*
X36140572Y10414000D01*
X36285714Y10486571D01*
X36503429Y10486571D01*
X36648572Y10414000D01*
X36721143Y10341429D01*
X36793714Y10196286D01*
X36793714Y9760857D01*
X36721143Y9615714D01*
X36648572Y9543143D01*
X36503429Y9470571D01*
X36285714Y9470571D01*
X37446857Y9470571D02*
X37446857Y10994571D01*
X38317714Y9470571D02*
X37664571Y10341429D01*
X38317714Y10994571D02*
X37446857Y10123714D01*
X39551429Y9543143D02*
X39406286Y9470571D01*
X39116000Y9470571D01*
X38970857Y9543143D01*
X38898286Y9688286D01*
X38898286Y10268857D01*
X38970857Y10414000D01*
X39116000Y10486571D01*
X39406286Y10486571D01*
X39551429Y10414000D01*
X39624000Y10268857D01*
X39624000Y10123714D01*
X38898286Y9978571D01*
X40132000Y10486571D02*
X40494857Y9470571D01*
X40857715Y10486571D02*
X40494857Y9470571D01*
X40349715Y9107714D01*
X40277143Y9035143D01*
X40132000Y8962571D01*
X41075429Y9325429D02*
X42236572Y9325429D01*
X42889715Y10994571D02*
X43180001Y10994571D01*
X43325143Y10922000D01*
X43470286Y10776857D01*
X43542858Y10486571D01*
X43542858Y9978571D01*
X43470286Y9688286D01*
X43325143Y9543143D01*
X43180001Y9470571D01*
X42889715Y9470571D01*
X42744572Y9543143D01*
X42599429Y9688286D01*
X42526858Y9978571D01*
X42526858Y10486571D01*
X42599429Y10776857D01*
X42744572Y10922000D01*
X42889715Y10994571D01*
X43978286Y10994571D02*
X44849143Y10994571D01*
X44413714Y9470571D02*
X44413714Y10994571D01*
X45284572Y9543143D02*
X45502286Y9470571D01*
X45865143Y9470571D01*
X46010286Y9543143D01*
X46082857Y9615714D01*
X46155429Y9760857D01*
X46155429Y9906000D01*
X46082857Y10051143D01*
X46010286Y10123714D01*
X45865143Y10196286D01*
X45574857Y10268857D01*
X45429715Y10341429D01*
X45357143Y10414000D01*
X45284572Y10559143D01*
X45284572Y10704286D01*
X45357143Y10849429D01*
X45429715Y10922000D01*
X45574857Y10994571D01*
X45937715Y10994571D01*
X46155429Y10922000D01*
D13*
X115570000Y52070000D02*
X117475000Y52070000D01*
X115570000Y52070000D02*
G75*
G03X114300000Y50800000I0J-1270000D01*
G01*
X107950000Y50800000D02*
G75*
G03X106680000Y52070000I-1270000J0D01*
G01*
X113030000Y45720000D02*
G75*
G03X114300000Y46990000I0J1270000D01*
G01*
X107950000Y46990000D02*
G75*
G03X109220000Y45720000I1270000J0D01*
G01*
X109220000Y45720000D02*
X113030000Y45720000D01*
X114300000Y46990000D02*
X114300000Y50800000D01*
X107950000Y50800000D02*
X107950000Y46990000D01*
X85090000Y0D02*
X106045000Y0D01*
X50800000Y0D02*
X29845000Y0D01*
X85090000Y0D02*
G75*
G03X67945000Y17145000I-17145000J0D01*
G01*
X67945000Y17145000D02*
G75*
G03X50800000Y0I0J-17145000D01*
G01*
X29845000Y0D02*
X5842000Y21717000D01*
X5842641Y21717641D02*
G75*
G02X18415000Y52070000I12572359J12572359D01*
G01*
X18415000Y52070000D02*
X106680000Y52070000D01*
X106045000Y0D02*
X130048000Y21717000D01*
X130047359Y21717641D02*
G75*
G03X117475000Y52070000I-12572359J12572359D01*
G01*
D14*
X114985800Y21590000D02*
X120015000Y21590000D01*
X120015000Y21590000D02*
X120015000Y19050000D01*
X120015000Y19050000D02*
X114935000Y19050000D01*
X114935000Y19050000D02*
X114935000Y21590000D01*
X114935000Y20955000D02*
X115570000Y21590000D01*
X130175000Y31800800D02*
X130175000Y36830000D01*
X130175000Y36830000D02*
X132715000Y36830000D01*
X132715000Y36830000D02*
X132715000Y31750000D01*
X132715000Y31750000D02*
X130175000Y31750000D01*
X130810000Y31750000D02*
X130175000Y32385000D01*
X114985800Y48260000D02*
X120015000Y48260000D01*
X120015000Y48260000D02*
X120015000Y45720000D01*
X120015000Y45720000D02*
X114935000Y45720000D01*
X114935000Y45720000D02*
X114935000Y48260000D01*
X114935000Y47625000D02*
X115570000Y48260000D01*
X78105000Y24815800D02*
X78105000Y29845000D01*
X78105000Y29845000D02*
X80645000Y29845000D01*
X80645000Y29845000D02*
X80645000Y24765000D01*
X80645000Y24765000D02*
X78105000Y24765000D01*
X78740000Y24765000D02*
X78105000Y25400000D01*
X3175000Y31800800D02*
X3175000Y36830000D01*
X3175000Y36830000D02*
X5715000Y36830000D01*
X5715000Y36830000D02*
X5715000Y31750000D01*
X5715000Y31750000D02*
X3175000Y31750000D01*
X3810000Y31750000D02*
X3175000Y32385000D01*
X20904200Y19685000D02*
X15875000Y19685000D01*
X15875000Y19685000D02*
X15875000Y22225000D01*
X15875000Y22225000D02*
X20955000Y22225000D01*
X20955000Y22225000D02*
X20955000Y19685000D01*
X20955000Y20320000D02*
X20320000Y19685000D01*
X20904200Y45720000D02*
X15875000Y45720000D01*
X15875000Y45720000D02*
X15875000Y48260000D01*
X15875000Y48260000D02*
X20955000Y48260000D01*
X20955000Y48260000D02*
X20955000Y45720000D01*
X20955000Y46355000D02*
X20320000Y45720000D01*
X120015000Y22225000D02*
X114935000Y22225000D01*
X114935000Y22225000D02*
X114935000Y24765000D01*
X114935000Y24765000D02*
X120015000Y24765000D01*
X120015000Y24765000D02*
X120015000Y22225000D01*
X120015000Y23495000D02*
X121285000Y23495000D01*
X114935000Y23495000D02*
X113665000Y23495000D01*
X129540000Y36830000D02*
X129540000Y31750000D01*
X129540000Y31750000D02*
X127000000Y31750000D01*
X127000000Y31750000D02*
X127000000Y36830000D01*
X127000000Y36830000D02*
X129540000Y36830000D01*
X128270000Y36830000D02*
X128270000Y38100000D01*
X128270000Y31750000D02*
X128270000Y30480000D01*
X120015000Y42545000D02*
X114935000Y42545000D01*
X114935000Y42545000D02*
X114935000Y45085000D01*
X114935000Y45085000D02*
X120015000Y45085000D01*
X120015000Y45085000D02*
X120015000Y42545000D01*
X120015000Y43815000D02*
X121285000Y43815000D01*
X114935000Y43815000D02*
X113665000Y43815000D01*
X83820000Y33655000D02*
X83820000Y28575000D01*
X83820000Y28575000D02*
X81280000Y28575000D01*
X81280000Y28575000D02*
X81280000Y33655000D01*
X81280000Y33655000D02*
X83820000Y33655000D01*
X82550000Y33655000D02*
X82550000Y34925000D01*
X82550000Y28575000D02*
X82550000Y27305000D01*
X8890000Y36830000D02*
X8890000Y31750000D01*
X8890000Y31750000D02*
X6350000Y31750000D01*
X6350000Y31750000D02*
X6350000Y36830000D01*
X6350000Y36830000D02*
X8890000Y36830000D01*
X7620000Y36830000D02*
X7620000Y38100000D01*
X7620000Y31750000D02*
X7620000Y30480000D01*
X15875000Y25400000D02*
X20955000Y25400000D01*
X20955000Y25400000D02*
X20955000Y22860000D01*
X20955000Y22860000D02*
X15875000Y22860000D01*
X15875000Y22860000D02*
X15875000Y25400000D01*
X15875000Y24130000D02*
X14605000Y24130000D01*
X20955000Y24130000D02*
X22225000Y24130000D01*
X15875000Y45085000D02*
X20955000Y45085000D01*
X20955000Y45085000D02*
X20955000Y42545000D01*
X20955000Y42545000D02*
X15875000Y42545000D01*
X15875000Y42545000D02*
X15875000Y45085000D01*
X15875000Y43815000D02*
X14605000Y43815000D01*
X20955000Y43815000D02*
X22225000Y43815000D01*
X111975000Y27540000D02*
X122975000Y27540000D01*
X123725000Y28290000D02*
X123725000Y40290000D01*
X111225000Y40290000D02*
X111225000Y28290000D01*
X122975000Y41040000D02*
X111975000Y41040000D01*
X111975000Y41040000D02*
G75*
G03X111225000Y40290000I0J-750000D01*
G01*
X111225000Y28290000D02*
G75*
G03X111975000Y27540000I750000J0D01*
G01*
X122975000Y27540000D02*
G75*
G03X123725000Y28290000I0J750000D01*
G01*
X123725000Y40290000D02*
G75*
G03X122975000Y41040000I-750000J0D01*
G01*
X121225000Y36790000D02*
X123725000Y36790000D01*
X113725000Y36790000D02*
X111225000Y36790000D01*
X113725000Y31790000D02*
X111225000Y31790000D01*
X121225000Y31790000D02*
X123725000Y31790000D01*
X113725000Y31790000D02*
G75*
G03X121225000Y31790000I3750000J2500000D01*
G01*
X121225000Y36790000D02*
G75*
G03X113725000Y36790000I-3750000J-2500000D01*
G01*
X120975000Y34290000D02*
G75*
G03X120975000Y34290000I-3500000J0D01*
G01*
X120475000Y34290000D02*
G75*
G03X120475000Y34290000I-3000000J0D01*
G01*
X12915000Y27540000D02*
X23915000Y27540000D01*
X24665000Y28290000D02*
X24665000Y40290000D01*
X12165000Y40290000D02*
X12165000Y28290000D01*
X23915000Y41040000D02*
X12915000Y41040000D01*
X12915000Y41040000D02*
G75*
G03X12165000Y40290000I0J-750000D01*
G01*
X12165000Y28290000D02*
G75*
G03X12915000Y27540000I750000J0D01*
G01*
X23915000Y27540000D02*
G75*
G03X24665000Y28290000I0J750000D01*
G01*
X24665000Y40290000D02*
G75*
G03X23915000Y41040000I-750000J0D01*
G01*
X22165000Y36790000D02*
X24665000Y36790000D01*
X14665000Y36790000D02*
X12165000Y36790000D01*
X14665000Y31790000D02*
X12165000Y31790000D01*
X22165000Y31790000D02*
X24665000Y31790000D01*
X14665000Y31790000D02*
G75*
G03X22165000Y31790000I3750000J2500000D01*
G01*
X22165000Y36790000D02*
G75*
G03X14665000Y36790000I-3750000J-2500000D01*
G01*
X21915000Y34290000D02*
G75*
G03X21915000Y34290000I-3500000J0D01*
G01*
X21415000Y34290000D02*
G75*
G03X21415000Y34290000I-3000000J0D01*
G01*
X80645000Y21590000D02*
X80645000Y24130000D01*
X83185000Y21590000D02*
X83185000Y24130000D01*
X83185000Y24130000D02*
X80645000Y24130000D01*
X80645000Y24130000D02*
X78105000Y24130000D01*
X78105000Y24130000D02*
X78105000Y21590000D01*
X78105000Y21590000D02*
X83185000Y21590000D01*
X95885000Y19685000D02*
X95885000Y48895000D01*
X42545000Y17145000D02*
X93345000Y17145000D01*
X40005000Y48895000D02*
X40005000Y19685000D01*
X93345000Y51435000D02*
X42545000Y51435000D01*
X40005000Y19685000D02*
G75*
G03X42545000Y17145000I2540000J0D01*
G01*
X93345000Y17145000D02*
G75*
G03X95885000Y19685000I0J2540000D01*
G01*
X95885000Y48895000D02*
G75*
G03X93345000Y51435000I-2540000J0D01*
G01*
X42545000Y51435000D02*
G75*
G03X40005000Y48895000I0J-2540000D01*
G01*
X87630000Y1270000D02*
X105410000Y1270000D01*
X85090000Y49530000D02*
X85090000Y3810000D01*
X105410000Y52070000D02*
X87630000Y52070000D01*
X107950000Y3810000D02*
X107950000Y49530000D01*
X107950000Y49530000D02*
G75*
G03X105410000Y52070000I-2540000J0D01*
G01*
X87630000Y52070000D02*
G75*
G03X85090000Y49530000I0J-2540000D01*
G01*
X85090000Y3810000D02*
G75*
G03X87630000Y1270000I2540000J0D01*
G01*
X105410000Y1270000D02*
G75*
G03X107950000Y3810000I0J2540000D01*
G01*
D10*
X56515000Y47612300D02*
X56515000Y47612300D01*
X56515000Y48907700D02*
X56515000Y48907700D01*
X56515000Y47612300D02*
G75*
G03X56515000Y48907700I0J647700D01*
G01*
X56515000Y48907700D02*
G75*
G03X56515000Y47612300I0J-647700D01*
G01*
X56515000Y50152300D02*
X56515000Y50152300D01*
X56515000Y51447700D02*
X56515000Y51447700D01*
X56515000Y50152300D02*
G75*
G03X56515000Y51447700I0J647700D01*
G01*
X56515000Y51447700D02*
G75*
G03X56515000Y50152300I0J-647700D01*
G01*
X116904770Y20320000D02*
G75*
G03X116904770Y20320000I-699770J0D01*
G01*
X119444770Y20320000D02*
G75*
G03X119444770Y20320000I-699770J0D01*
G01*
X132144770Y33020000D02*
G75*
G03X132144770Y33020000I-699770J0D01*
G01*
X132144770Y35560000D02*
G75*
G03X132144770Y35560000I-699770J0D01*
G01*
X116904770Y46990000D02*
G75*
G03X116904770Y46990000I-699770J0D01*
G01*
X119444770Y46990000D02*
G75*
G03X119444770Y46990000I-699770J0D01*
G01*
X80074770Y26035000D02*
G75*
G03X80074770Y26035000I-699770J0D01*
G01*
X80074770Y28575000D02*
G75*
G03X80074770Y28575000I-699770J0D01*
G01*
X5144770Y33020000D02*
G75*
G03X5144770Y33020000I-699770J0D01*
G01*
X5144770Y35560000D02*
G75*
G03X5144770Y35560000I-699770J0D01*
G01*
X20384770Y20955000D02*
G75*
G03X20384770Y20955000I-699770J0D01*
G01*
X17844770Y20955000D02*
G75*
G03X17844770Y20955000I-699770J0D01*
G01*
X20384770Y46990000D02*
G75*
G03X20384770Y46990000I-699770J0D01*
G01*
X17844770Y46990000D02*
G75*
G03X17844770Y46990000I-699770J0D01*
G01*
X123503690Y23495000D02*
G75*
G03X123503690Y23495000I-948690J0D01*
G01*
X113343690Y23495000D02*
G75*
G03X113343690Y23495000I-948690J0D01*
G01*
X129218690Y39370000D02*
G75*
G03X129218690Y39370000I-948690J0D01*
G01*
X129218690Y29210000D02*
G75*
G03X129218690Y29210000I-948690J0D01*
G01*
X123503690Y43815000D02*
G75*
G03X123503690Y43815000I-948690J0D01*
G01*
X113343690Y43815000D02*
G75*
G03X113343690Y43815000I-948690J0D01*
G01*
X83498690Y36195000D02*
G75*
G03X83498690Y36195000I-948690J0D01*
G01*
X83498690Y26035000D02*
G75*
G03X83498690Y26035000I-948690J0D01*
G01*
X8568690Y39370000D02*
G75*
G03X8568690Y39370000I-948690J0D01*
G01*
X8568690Y29210000D02*
G75*
G03X8568690Y29210000I-948690J0D01*
G01*
X14283690Y24130000D02*
G75*
G03X14283690Y24130000I-948690J0D01*
G01*
X24443690Y24130000D02*
G75*
G03X24443690Y24130000I-948690J0D01*
G01*
X14283690Y43815000D02*
G75*
G03X14283690Y43815000I-948690J0D01*
G01*
X24443690Y43815000D02*
G75*
G03X24443690Y43815000I-948690J0D01*
G01*
X118186200Y26790000D02*
G75*
G03X118186200Y26790000I-711200J0D01*
G01*
X115686200Y26790000D02*
G75*
G03X115686200Y26790000I-711200J0D01*
G01*
X120686200Y26790000D02*
G75*
G03X120686200Y26790000I-711200J0D01*
G01*
X115686200Y41290000D02*
G75*
G03X115686200Y41290000I-711200J0D01*
G01*
X120686200Y41290000D02*
G75*
G03X120686200Y41290000I-711200J0D01*
G01*
X125974200Y34290000D02*
G75*
G03X125974200Y34290000I-1799200J0D01*
G01*
X112574200Y34290000D02*
G75*
G03X112574200Y34290000I-1799200J0D01*
G01*
X19126200Y26790000D02*
G75*
G03X19126200Y26790000I-711200J0D01*
G01*
X16626200Y26790000D02*
G75*
G03X16626200Y26790000I-711200J0D01*
G01*
X21626200Y26790000D02*
G75*
G03X21626200Y26790000I-711200J0D01*
G01*
X16626200Y41290000D02*
G75*
G03X16626200Y41290000I-711200J0D01*
G01*
X21626200Y41290000D02*
G75*
G03X21626200Y41290000I-711200J0D01*
G01*
X26914200Y34290000D02*
G75*
G03X26914200Y34290000I-1799200J0D01*
G01*
X13514200Y34290000D02*
G75*
G03X13514200Y34290000I-1799200J0D01*
G01*
X80340200Y22860000D02*
X80340200Y22860000D01*
X78409800Y22860000D02*
X78409800Y22860000D01*
X80340200Y22860000D02*
G75*
G03X78409800Y22860000I-965200J0D01*
G01*
X78409800Y22860000D02*
G75*
G03X80340200Y22860000I965200J0D01*
G01*
X31115000Y43167300D02*
X31115000Y43167300D01*
X31115000Y44462700D02*
X31115000Y44462700D01*
X31115000Y43167300D02*
G75*
G03X31115000Y44462700I0J647700D01*
G01*
X31115000Y44462700D02*
G75*
G03X31115000Y43167300I0J-647700D01*
G01*
X31115000Y45707300D02*
X31115000Y45707300D01*
X31115000Y47002700D02*
X31115000Y47002700D01*
X31115000Y45707300D02*
G75*
G03X31115000Y47002700I0J647700D01*
G01*
X31115000Y47002700D02*
G75*
G03X31115000Y45707300I0J-647700D01*
G01*
X49733200Y3810000D02*
G75*
G03X49733200Y3810000I-1473200J0D01*
G01*
X31953200Y3810000D02*
G75*
G03X31953200Y3810000I-1473200J0D01*
G01*
X115138200Y13970000D02*
G75*
G03X115138200Y13970000I-1473200J0D01*
G01*
X23698200Y13970000D02*
G75*
G03X23698200Y13970000I-1473200J0D01*
G01*
X42037000Y45072300D02*
X43053000Y45072300D01*
X42037000Y46367700D02*
X43053000Y46367700D01*
X43053000Y45072300D02*
G75*
G03X43053000Y46367700I0J647700D01*
G01*
X42037000Y46367700D02*
G75*
G03X42037000Y45072300I0J-647700D01*
G01*
X42037000Y42532300D02*
X43053000Y42532300D01*
X42037000Y43827700D02*
X43053000Y43827700D01*
X43053000Y42532300D02*
G75*
G03X43053000Y43827700I0J647700D01*
G01*
X42037000Y43827700D02*
G75*
G03X42037000Y42532300I0J-647700D01*
G01*
X42037000Y39992300D02*
X43053000Y39992300D01*
X42037000Y41287700D02*
X43053000Y41287700D01*
X43053000Y39992300D02*
G75*
G03X43053000Y41287700I0J647700D01*
G01*
X42037000Y41287700D02*
G75*
G03X42037000Y39992300I0J-647700D01*
G01*
X42037000Y37452300D02*
X43053000Y37452300D01*
X42037000Y38747700D02*
X43053000Y38747700D01*
X43053000Y37452300D02*
G75*
G03X43053000Y38747700I0J647700D01*
G01*
X42037000Y38747700D02*
G75*
G03X42037000Y37452300I0J-647700D01*
G01*
X42037000Y34912300D02*
X43053000Y34912300D01*
X42037000Y36207700D02*
X43053000Y36207700D01*
X43053000Y34912300D02*
G75*
G03X43053000Y36207700I0J647700D01*
G01*
X42037000Y36207700D02*
G75*
G03X42037000Y34912300I0J-647700D01*
G01*
X42227500Y32372300D02*
X42862500Y32372300D01*
X42227500Y33667700D02*
X42862500Y33667700D01*
X42862500Y32372300D02*
G75*
G03X42862500Y33667700I0J647700D01*
G01*
X42227500Y33667700D02*
G75*
G03X42227500Y32372300I0J-647700D01*
G01*
X42037000Y29832300D02*
X43053000Y29832300D01*
X42037000Y31127700D02*
X43053000Y31127700D01*
X43053000Y29832300D02*
G75*
G03X43053000Y31127700I0J647700D01*
G01*
X42037000Y31127700D02*
G75*
G03X42037000Y29832300I0J-647700D01*
G01*
X42037000Y27292300D02*
X43053000Y27292300D01*
X42037000Y28587700D02*
X43053000Y28587700D01*
X43053000Y27292300D02*
G75*
G03X43053000Y28587700I0J647700D01*
G01*
X42037000Y28587700D02*
G75*
G03X42037000Y27292300I0J-647700D01*
G01*
X42037000Y24752300D02*
X43053000Y24752300D01*
X42037000Y26047700D02*
X43053000Y26047700D01*
X43053000Y24752300D02*
G75*
G03X43053000Y26047700I0J647700D01*
G01*
X42037000Y26047700D02*
G75*
G03X42037000Y24752300I0J-647700D01*
G01*
X42037000Y22212300D02*
X43053000Y22212300D01*
X42037000Y23507700D02*
X43053000Y23507700D01*
X43053000Y22212300D02*
G75*
G03X43053000Y23507700I0J647700D01*
G01*
X42037000Y23507700D02*
G75*
G03X42037000Y22212300I0J-647700D01*
G01*
X44018200Y19685000D02*
G75*
G03X44018200Y19685000I-1473200J0D01*
G01*
X94818200Y19685000D02*
G75*
G03X94818200Y19685000I-1473200J0D01*
G01*
X94818200Y48895000D02*
G75*
G03X94818200Y48895000I-1473200J0D01*
G01*
X44018200Y48895000D02*
G75*
G03X44018200Y48895000I-1473200J0D01*
G01*
X106934000Y8331200D02*
X106426000Y8331200D01*
X106934000Y6908800D02*
X106426000Y6908800D01*
X106426000Y8331200D02*
G75*
G03X106426000Y6908800I0J-711200D01*
G01*
X106934000Y6908800D02*
G75*
G03X106934000Y8331200I0J711200D01*
G01*
X106934000Y10871200D02*
X106426000Y10871200D01*
X106934000Y9448800D02*
X106426000Y9448800D01*
X106426000Y10871200D02*
G75*
G03X106426000Y9448800I0J-711200D01*
G01*
X106934000Y9448800D02*
G75*
G03X106934000Y10871200I0J711200D01*
G01*
X106934000Y13411200D02*
X106426000Y13411200D01*
X106934000Y11988800D02*
X106426000Y11988800D01*
X106426000Y13411200D02*
G75*
G03X106426000Y11988800I0J-711200D01*
G01*
X106934000Y11988800D02*
G75*
G03X106934000Y13411200I0J711200D01*
G01*
X106934000Y15951200D02*
X106426000Y15951200D01*
X106934000Y14528800D02*
X106426000Y14528800D01*
X106426000Y15951200D02*
G75*
G03X106426000Y14528800I0J-711200D01*
G01*
X106934000Y14528800D02*
G75*
G03X106934000Y15951200I0J711200D01*
G01*
X106934000Y18491200D02*
X106426000Y18491200D01*
X106934000Y17068800D02*
X106426000Y17068800D01*
X106426000Y18491200D02*
G75*
G03X106426000Y17068800I0J-711200D01*
G01*
X106934000Y17068800D02*
G75*
G03X106934000Y18491200I0J711200D01*
G01*
X106934000Y21031200D02*
X106426000Y21031200D01*
X106934000Y19608800D02*
X106426000Y19608800D01*
X106426000Y21031200D02*
G75*
G03X106426000Y19608800I0J-711200D01*
G01*
X106934000Y19608800D02*
G75*
G03X106934000Y21031200I0J711200D01*
G01*
X106934000Y23571200D02*
X106426000Y23571200D01*
X106934000Y22148800D02*
X106426000Y22148800D01*
X106426000Y23571200D02*
G75*
G03X106426000Y22148800I0J-711200D01*
G01*
X106934000Y22148800D02*
G75*
G03X106934000Y23571200I0J711200D01*
G01*
X106934000Y26111200D02*
X106426000Y26111200D01*
X106934000Y24688800D02*
X106426000Y24688800D01*
X106426000Y26111200D02*
G75*
G03X106426000Y24688800I0J-711200D01*
G01*
X106934000Y24688800D02*
G75*
G03X106934000Y26111200I0J711200D01*
G01*
X106934000Y28651200D02*
X106426000Y28651200D01*
X106934000Y27228800D02*
X106426000Y27228800D01*
X106426000Y28651200D02*
G75*
G03X106426000Y27228800I0J-711200D01*
G01*
X106934000Y27228800D02*
G75*
G03X106934000Y28651200I0J711200D01*
G01*
X106934000Y31191200D02*
X106426000Y31191200D01*
X106934000Y29768800D02*
X106426000Y29768800D01*
X106426000Y31191200D02*
G75*
G03X106426000Y29768800I0J-711200D01*
G01*
X106934000Y29768800D02*
G75*
G03X106934000Y31191200I0J711200D01*
G01*
X106934000Y33731200D02*
X106426000Y33731200D01*
X106934000Y32308800D02*
X106426000Y32308800D01*
X106426000Y33731200D02*
G75*
G03X106426000Y32308800I0J-711200D01*
G01*
X106934000Y32308800D02*
G75*
G03X106934000Y33731200I0J711200D01*
G01*
X106934000Y36271200D02*
X106426000Y36271200D01*
X106934000Y34848800D02*
X106426000Y34848800D01*
X106426000Y36271200D02*
G75*
G03X106426000Y34848800I0J-711200D01*
G01*
X106934000Y34848800D02*
G75*
G03X106934000Y36271200I0J711200D01*
G01*
X86614000Y46431200D02*
X86106000Y46431200D01*
X86614000Y45008800D02*
X86106000Y45008800D01*
X86106000Y46431200D02*
G75*
G03X86106000Y45008800I0J-711200D01*
G01*
X86614000Y45008800D02*
G75*
G03X86614000Y46431200I0J711200D01*
G01*
X86614000Y43891200D02*
X86106000Y43891200D01*
X86614000Y42468800D02*
X86106000Y42468800D01*
X86106000Y43891200D02*
G75*
G03X86106000Y42468800I0J-711200D01*
G01*
X86614000Y42468800D02*
G75*
G03X86614000Y43891200I0J711200D01*
G01*
X86614000Y41351200D02*
X86106000Y41351200D01*
X86614000Y39928800D02*
X86106000Y39928800D01*
X86106000Y41351200D02*
G75*
G03X86106000Y39928800I0J-711200D01*
G01*
X86614000Y39928800D02*
G75*
G03X86614000Y41351200I0J711200D01*
G01*
X86614000Y38811200D02*
X86106000Y38811200D01*
X86614000Y37388800D02*
X86106000Y37388800D01*
X86106000Y38811200D02*
G75*
G03X86106000Y37388800I0J-711200D01*
G01*
X86614000Y37388800D02*
G75*
G03X86614000Y38811200I0J711200D01*
G01*
X86614000Y36271200D02*
X86106000Y36271200D01*
X86614000Y34848800D02*
X86106000Y34848800D01*
X86106000Y36271200D02*
G75*
G03X86106000Y34848800I0J-711200D01*
G01*
X86614000Y34848800D02*
G75*
G03X86614000Y36271200I0J711200D01*
G01*
X86614000Y33731200D02*
X86106000Y33731200D01*
X86614000Y32308800D02*
X86106000Y32308800D01*
X86106000Y33731200D02*
G75*
G03X86106000Y32308800I0J-711200D01*
G01*
X86614000Y32308800D02*
G75*
G03X86614000Y33731200I0J711200D01*
G01*
X86614000Y31191200D02*
X86106000Y31191200D01*
X86614000Y29768800D02*
X86106000Y29768800D01*
X86106000Y31191200D02*
G75*
G03X86106000Y29768800I0J-711200D01*
G01*
X86614000Y29768800D02*
G75*
G03X86614000Y31191200I0J711200D01*
G01*
X86614000Y28651200D02*
X86106000Y28651200D01*
X86614000Y27228800D02*
X86106000Y27228800D01*
X86106000Y28651200D02*
G75*
G03X86106000Y27228800I0J-711200D01*
G01*
X86614000Y27228800D02*
G75*
G03X86614000Y28651200I0J711200D01*
G01*
X86614000Y26111200D02*
X86106000Y26111200D01*
X86614000Y24688800D02*
X86106000Y24688800D01*
X86106000Y26111200D02*
G75*
G03X86106000Y24688800I0J-711200D01*
G01*
X86614000Y24688800D02*
G75*
G03X86614000Y26111200I0J711200D01*
G01*
X86614000Y23571200D02*
X86106000Y23571200D01*
X86614000Y22148800D02*
X86106000Y22148800D01*
X86106000Y23571200D02*
G75*
G03X86106000Y22148800I0J-711200D01*
G01*
X86614000Y22148800D02*
G75*
G03X86614000Y23571200I0J711200D01*
G01*
X86614000Y21031200D02*
X86106000Y21031200D01*
X86614000Y19608800D02*
X86106000Y19608800D01*
X86106000Y21031200D02*
G75*
G03X86106000Y19608800I0J-711200D01*
G01*
X86614000Y19608800D02*
G75*
G03X86614000Y21031200I0J711200D01*
G01*
X86614000Y18491200D02*
X86106000Y18491200D01*
X86614000Y17068800D02*
X86106000Y17068800D01*
X86106000Y18491200D02*
G75*
G03X86106000Y17068800I0J-711200D01*
G01*
X86614000Y17068800D02*
G75*
G03X86614000Y18491200I0J711200D01*
G01*
X86614000Y15951200D02*
X86106000Y15951200D01*
X86614000Y14528800D02*
X86106000Y14528800D01*
X86106000Y15951200D02*
G75*
G03X86106000Y14528800I0J-711200D01*
G01*
X86614000Y14528800D02*
G75*
G03X86614000Y15951200I0J711200D01*
G01*
X86614000Y13411200D02*
X86106000Y13411200D01*
X86614000Y11988800D02*
X86106000Y11988800D01*
X86106000Y13411200D02*
G75*
G03X86106000Y11988800I0J-711200D01*
G01*
X86614000Y11988800D02*
G75*
G03X86614000Y13411200I0J711200D01*
G01*
X86614000Y10871200D02*
X86106000Y10871200D01*
X86614000Y9448800D02*
X86106000Y9448800D01*
X86106000Y10871200D02*
G75*
G03X86106000Y9448800I0J-711200D01*
G01*
X86614000Y9448800D02*
G75*
G03X86614000Y10871200I0J711200D01*
G01*
X86614000Y8331200D02*
X86106000Y8331200D01*
X86614000Y6908800D02*
X86106000Y6908800D01*
X86106000Y8331200D02*
G75*
G03X86106000Y6908800I0J-711200D01*
G01*
X86614000Y6908800D02*
G75*
G03X86614000Y8331200I0J711200D01*
G01*
X106883200Y49530000D02*
G75*
G03X106883200Y49530000I-1473200J0D01*
G01*
X89103200Y49530000D02*
G75*
G03X89103200Y49530000I-1473200J0D01*
G01*
X104851200Y7620000D02*
G75*
G03X104851200Y7620000I-711200J0D01*
G01*
X104851200Y10160000D02*
G75*
G03X104851200Y10160000I-711200J0D01*
G01*
X104851200Y12700000D02*
G75*
G03X104851200Y12700000I-711200J0D01*
G01*
X104851200Y15240000D02*
G75*
G03X104851200Y15240000I-711200J0D01*
G01*
X104851200Y17780000D02*
G75*
G03X104851200Y17780000I-711200J0D01*
G01*
X104851200Y20320000D02*
G75*
G03X104851200Y20320000I-711200J0D01*
G01*
X104851200Y22860000D02*
G75*
G03X104851200Y22860000I-711200J0D01*
G01*
X104851200Y25400000D02*
G75*
G03X104851200Y25400000I-711200J0D01*
G01*
X104851200Y27940000D02*
G75*
G03X104851200Y27940000I-711200J0D01*
G01*
X104851200Y30480000D02*
G75*
G03X104851200Y30480000I-711200J0D01*
G01*
X104851200Y33020000D02*
G75*
G03X104851200Y33020000I-711200J0D01*
G01*
X104851200Y35560000D02*
G75*
G03X104851200Y35560000I-711200J0D01*
G01*
X89611200Y45720000D02*
G75*
G03X89611200Y45720000I-711200J0D01*
G01*
X89611200Y43180000D02*
G75*
G03X89611200Y43180000I-711200J0D01*
G01*
X89611200Y40640000D02*
G75*
G03X89611200Y40640000I-711200J0D01*
G01*
X89611200Y38100000D02*
G75*
G03X89611200Y38100000I-711200J0D01*
G01*
X89611200Y35560000D02*
G75*
G03X89611200Y35560000I-711200J0D01*
G01*
X89611200Y33020000D02*
G75*
G03X89611200Y33020000I-711200J0D01*
G01*
X89611200Y30480000D02*
G75*
G03X89611200Y30480000I-711200J0D01*
G01*
X89611200Y27940000D02*
G75*
G03X89611200Y27940000I-711200J0D01*
G01*
X89611200Y25400000D02*
G75*
G03X89611200Y25400000I-711200J0D01*
G01*
X89611200Y22860000D02*
G75*
G03X89611200Y22860000I-711200J0D01*
G01*
X89611200Y20320000D02*
G75*
G03X89611200Y20320000I-711200J0D01*
G01*
X89611200Y17780000D02*
G75*
G03X89611200Y17780000I-711200J0D01*
G01*
X89611200Y15240000D02*
G75*
G03X89611200Y15240000I-711200J0D01*
G01*
X89611200Y12700000D02*
G75*
G03X89611200Y12700000I-711200J0D01*
G01*
X89611200Y10160000D02*
G75*
G03X89611200Y10160000I-711200J0D01*
G01*
X89611200Y7620000D02*
G75*
G03X89611200Y7620000I-711200J0D01*
G01*
X106883200Y3810000D02*
G75*
G03X106883200Y3810000I-1473200J0D01*
G01*
X89103200Y3810000D02*
G75*
G03X89103200Y3810000I-1473200J0D01*
G01*
D13*
X121901857Y19957143D02*
X121853476Y19908762D01*
X121708333Y19860381D01*
X121611571Y19860381D01*
X121466429Y19908762D01*
X121369667Y20005524D01*
X121321286Y20102286D01*
X121272905Y20295810D01*
X121272905Y20440952D01*
X121321286Y20634476D01*
X121369667Y20731238D01*
X121466429Y20828000D01*
X121611571Y20876381D01*
X121708333Y20876381D01*
X121853476Y20828000D01*
X121901857Y20779619D01*
X122240524Y20876381D02*
X122869476Y20876381D01*
X122530810Y20489333D01*
X122675952Y20489333D01*
X122772714Y20440952D01*
X122821095Y20392571D01*
X122869476Y20295810D01*
X122869476Y20053905D01*
X122821095Y19957143D01*
X122772714Y19908762D01*
X122675952Y19860381D01*
X122385667Y19860381D01*
X122288905Y19908762D01*
X122240524Y19957143D01*
X123788714Y20876381D02*
X123304905Y20876381D01*
X123256524Y20392571D01*
X123304905Y20440952D01*
X123401667Y20489333D01*
X123643571Y20489333D01*
X123740333Y20440952D01*
X123788714Y20392571D01*
X123837095Y20295810D01*
X123837095Y20053905D01*
X123788714Y19957143D01*
X123740333Y19908762D01*
X123643571Y19860381D01*
X123401667Y19860381D01*
X123304905Y19908762D01*
X123256524Y19957143D01*
X130791857Y37737143D02*
X130743476Y37688762D01*
X130598333Y37640381D01*
X130501571Y37640381D01*
X130356429Y37688762D01*
X130259667Y37785524D01*
X130211286Y37882286D01*
X130162905Y38075810D01*
X130162905Y38220952D01*
X130211286Y38414476D01*
X130259667Y38511238D01*
X130356429Y38608000D01*
X130501571Y38656381D01*
X130598333Y38656381D01*
X130743476Y38608000D01*
X130791857Y38559619D01*
X131130524Y38656381D02*
X131759476Y38656381D01*
X131420810Y38269333D01*
X131565952Y38269333D01*
X131662714Y38220952D01*
X131711095Y38172571D01*
X131759476Y38075810D01*
X131759476Y37833905D01*
X131711095Y37737143D01*
X131662714Y37688762D01*
X131565952Y37640381D01*
X131275667Y37640381D01*
X131178905Y37688762D01*
X131130524Y37737143D01*
X132630333Y38317714D02*
X132630333Y37640381D01*
X132388429Y38704762D02*
X132146524Y37979048D01*
X132775476Y37979048D01*
X121901857Y46627143D02*
X121853476Y46578762D01*
X121708333Y46530381D01*
X121611571Y46530381D01*
X121466429Y46578762D01*
X121369667Y46675524D01*
X121321286Y46772286D01*
X121272905Y46965810D01*
X121272905Y47110952D01*
X121321286Y47304476D01*
X121369667Y47401238D01*
X121466429Y47498000D01*
X121611571Y47546381D01*
X121708333Y47546381D01*
X121853476Y47498000D01*
X121901857Y47449619D01*
X122240524Y47546381D02*
X122869476Y47546381D01*
X122530810Y47159333D01*
X122675952Y47159333D01*
X122772714Y47110952D01*
X122821095Y47062571D01*
X122869476Y46965810D01*
X122869476Y46723905D01*
X122821095Y46627143D01*
X122772714Y46578762D01*
X122675952Y46530381D01*
X122385667Y46530381D01*
X122288905Y46578762D01*
X122240524Y46627143D01*
X123208143Y47546381D02*
X123837095Y47546381D01*
X123498429Y47159333D01*
X123643571Y47159333D01*
X123740333Y47110952D01*
X123788714Y47062571D01*
X123837095Y46965810D01*
X123837095Y46723905D01*
X123788714Y46627143D01*
X123740333Y46578762D01*
X123643571Y46530381D01*
X123353286Y46530381D01*
X123256524Y46578762D01*
X123208143Y46627143D01*
X78721857Y30752143D02*
X78673476Y30703762D01*
X78528333Y30655381D01*
X78431571Y30655381D01*
X78286429Y30703762D01*
X78189667Y30800524D01*
X78141286Y30897286D01*
X78092905Y31090810D01*
X78092905Y31235952D01*
X78141286Y31429476D01*
X78189667Y31526238D01*
X78286429Y31623000D01*
X78431571Y31671381D01*
X78528333Y31671381D01*
X78673476Y31623000D01*
X78721857Y31574619D01*
X79060524Y31671381D02*
X79689476Y31671381D01*
X79350810Y31284333D01*
X79495952Y31284333D01*
X79592714Y31235952D01*
X79641095Y31187571D01*
X79689476Y31090810D01*
X79689476Y30848905D01*
X79641095Y30752143D01*
X79592714Y30703762D01*
X79495952Y30655381D01*
X79205667Y30655381D01*
X79108905Y30703762D01*
X79060524Y30752143D01*
X80076524Y31574619D02*
X80124905Y31623000D01*
X80221667Y31671381D01*
X80463571Y31671381D01*
X80560333Y31623000D01*
X80608714Y31574619D01*
X80657095Y31477857D01*
X80657095Y31381095D01*
X80608714Y31235952D01*
X80028143Y30655381D01*
X80657095Y30655381D01*
X3791857Y37102143D02*
X3743476Y37053762D01*
X3598333Y37005381D01*
X3501571Y37005381D01*
X3356429Y37053762D01*
X3259667Y37150524D01*
X3211286Y37247286D01*
X3162905Y37440810D01*
X3162905Y37585952D01*
X3211286Y37779476D01*
X3259667Y37876238D01*
X3356429Y37973000D01*
X3501571Y38021381D01*
X3598333Y38021381D01*
X3743476Y37973000D01*
X3791857Y37924619D01*
X4130524Y38021381D02*
X4759476Y38021381D01*
X4420810Y37634333D01*
X4565952Y37634333D01*
X4662714Y37585952D01*
X4711095Y37537571D01*
X4759476Y37440810D01*
X4759476Y37198905D01*
X4711095Y37102143D01*
X4662714Y37053762D01*
X4565952Y37005381D01*
X4275667Y37005381D01*
X4178905Y37053762D01*
X4130524Y37102143D01*
X5727095Y37005381D02*
X5146524Y37005381D01*
X5436810Y37005381D02*
X5436810Y38021381D01*
X5340048Y37876238D01*
X5243286Y37779476D01*
X5146524Y37731095D01*
X12681857Y20592143D02*
X12633476Y20543762D01*
X12488333Y20495381D01*
X12391571Y20495381D01*
X12246429Y20543762D01*
X12149667Y20640524D01*
X12101286Y20737286D01*
X12052905Y20930810D01*
X12052905Y21075952D01*
X12101286Y21269476D01*
X12149667Y21366238D01*
X12246429Y21463000D01*
X12391571Y21511381D01*
X12488333Y21511381D01*
X12633476Y21463000D01*
X12681857Y21414619D01*
X13020524Y21511381D02*
X13649476Y21511381D01*
X13310810Y21124333D01*
X13455952Y21124333D01*
X13552714Y21075952D01*
X13601095Y21027571D01*
X13649476Y20930810D01*
X13649476Y20688905D01*
X13601095Y20592143D01*
X13552714Y20543762D01*
X13455952Y20495381D01*
X13165667Y20495381D01*
X13068905Y20543762D01*
X13020524Y20592143D01*
X14278429Y21511381D02*
X14375190Y21511381D01*
X14471952Y21463000D01*
X14520333Y21414619D01*
X14568714Y21317857D01*
X14617095Y21124333D01*
X14617095Y20882429D01*
X14568714Y20688905D01*
X14520333Y20592143D01*
X14471952Y20543762D01*
X14375190Y20495381D01*
X14278429Y20495381D01*
X14181667Y20543762D01*
X14133286Y20592143D01*
X14084905Y20688905D01*
X14036524Y20882429D01*
X14036524Y21124333D01*
X14084905Y21317857D01*
X14133286Y21414619D01*
X14181667Y21463000D01*
X14278429Y21511381D01*
X12681857Y46627143D02*
X12633476Y46578762D01*
X12488333Y46530381D01*
X12391571Y46530381D01*
X12246429Y46578762D01*
X12149667Y46675524D01*
X12101286Y46772286D01*
X12052905Y46965810D01*
X12052905Y47110952D01*
X12101286Y47304476D01*
X12149667Y47401238D01*
X12246429Y47498000D01*
X12391571Y47546381D01*
X12488333Y47546381D01*
X12633476Y47498000D01*
X12681857Y47449619D01*
X13068905Y47449619D02*
X13117286Y47498000D01*
X13214048Y47546381D01*
X13455952Y47546381D01*
X13552714Y47498000D01*
X13601095Y47449619D01*
X13649476Y47352857D01*
X13649476Y47256095D01*
X13601095Y47110952D01*
X13020524Y46530381D01*
X13649476Y46530381D01*
X14133286Y46530381D02*
X14326810Y46530381D01*
X14423571Y46578762D01*
X14471952Y46627143D01*
X14568714Y46772286D01*
X14617095Y46965810D01*
X14617095Y47352857D01*
X14568714Y47449619D01*
X14520333Y47498000D01*
X14423571Y47546381D01*
X14230048Y47546381D01*
X14133286Y47498000D01*
X14084905Y47449619D01*
X14036524Y47352857D01*
X14036524Y47110952D01*
X14084905Y47014190D01*
X14133286Y46965810D01*
X14230048Y46917429D01*
X14423571Y46917429D01*
X14520333Y46965810D01*
X14568714Y47014190D01*
X14617095Y47110952D01*
X121901857Y21130381D02*
X121563191Y21614190D01*
X121321286Y21130381D02*
X121321286Y22146381D01*
X121708333Y22146381D01*
X121805095Y22098000D01*
X121853476Y22049619D01*
X121901857Y21952857D01*
X121901857Y21807714D01*
X121853476Y21710952D01*
X121805095Y21662571D01*
X121708333Y21614190D01*
X121321286Y21614190D01*
X122288905Y22049619D02*
X122337286Y22098000D01*
X122434048Y22146381D01*
X122675952Y22146381D01*
X122772714Y22098000D01*
X122821095Y22049619D01*
X122869476Y21952857D01*
X122869476Y21856095D01*
X122821095Y21710952D01*
X122240524Y21130381D01*
X122869476Y21130381D01*
X123208143Y22146381D02*
X123885476Y22146381D01*
X123450048Y21130381D01*
X130791857Y38910381D02*
X130453191Y39394190D01*
X130211286Y38910381D02*
X130211286Y39926381D01*
X130598333Y39926381D01*
X130695095Y39878000D01*
X130743476Y39829619D01*
X130791857Y39732857D01*
X130791857Y39587714D01*
X130743476Y39490952D01*
X130695095Y39442571D01*
X130598333Y39394190D01*
X130211286Y39394190D01*
X131178905Y39829619D02*
X131227286Y39878000D01*
X131324048Y39926381D01*
X131565952Y39926381D01*
X131662714Y39878000D01*
X131711095Y39829619D01*
X131759476Y39732857D01*
X131759476Y39636095D01*
X131711095Y39490952D01*
X131130524Y38910381D01*
X131759476Y38910381D01*
X132630333Y39926381D02*
X132436810Y39926381D01*
X132340048Y39878000D01*
X132291667Y39829619D01*
X132194905Y39684476D01*
X132146524Y39490952D01*
X132146524Y39103905D01*
X132194905Y39007143D01*
X132243286Y38958762D01*
X132340048Y38910381D01*
X132533571Y38910381D01*
X132630333Y38958762D01*
X132678714Y39007143D01*
X132727095Y39103905D01*
X132727095Y39345810D01*
X132678714Y39442571D01*
X132630333Y39490952D01*
X132533571Y39539333D01*
X132340048Y39539333D01*
X132243286Y39490952D01*
X132194905Y39442571D01*
X132146524Y39345810D01*
X121901857Y45260381D02*
X121563191Y45744190D01*
X121321286Y45260381D02*
X121321286Y46276381D01*
X121708333Y46276381D01*
X121805095Y46228000D01*
X121853476Y46179619D01*
X121901857Y46082857D01*
X121901857Y45937714D01*
X121853476Y45840952D01*
X121805095Y45792571D01*
X121708333Y45744190D01*
X121321286Y45744190D01*
X122288905Y46179619D02*
X122337286Y46228000D01*
X122434048Y46276381D01*
X122675952Y46276381D01*
X122772714Y46228000D01*
X122821095Y46179619D01*
X122869476Y46082857D01*
X122869476Y45986095D01*
X122821095Y45840952D01*
X122240524Y45260381D01*
X122869476Y45260381D01*
X123788714Y46276381D02*
X123304905Y46276381D01*
X123256524Y45792571D01*
X123304905Y45840952D01*
X123401667Y45889333D01*
X123643571Y45889333D01*
X123740333Y45840952D01*
X123788714Y45792571D01*
X123837095Y45695810D01*
X123837095Y45453905D01*
X123788714Y45357143D01*
X123740333Y45308762D01*
X123643571Y45260381D01*
X123401667Y45260381D01*
X123304905Y45308762D01*
X123256524Y45357143D01*
X78721857Y32560381D02*
X78383191Y33044190D01*
X78141286Y32560381D02*
X78141286Y33576381D01*
X78528333Y33576381D01*
X78625095Y33528000D01*
X78673476Y33479619D01*
X78721857Y33382857D01*
X78721857Y33237714D01*
X78673476Y33140952D01*
X78625095Y33092571D01*
X78528333Y33044190D01*
X78141286Y33044190D01*
X79108905Y33479619D02*
X79157286Y33528000D01*
X79254048Y33576381D01*
X79495952Y33576381D01*
X79592714Y33528000D01*
X79641095Y33479619D01*
X79689476Y33382857D01*
X79689476Y33286095D01*
X79641095Y33140952D01*
X79060524Y32560381D01*
X79689476Y32560381D01*
X80560333Y33237714D02*
X80560333Y32560381D01*
X80318429Y33624762D02*
X80076524Y32899048D01*
X80705476Y32899048D01*
X3791857Y38910381D02*
X3453191Y39394190D01*
X3211286Y38910381D02*
X3211286Y39926381D01*
X3598333Y39926381D01*
X3695095Y39878000D01*
X3743476Y39829619D01*
X3791857Y39732857D01*
X3791857Y39587714D01*
X3743476Y39490952D01*
X3695095Y39442571D01*
X3598333Y39394190D01*
X3211286Y39394190D01*
X4178905Y39829619D02*
X4227286Y39878000D01*
X4324048Y39926381D01*
X4565952Y39926381D01*
X4662714Y39878000D01*
X4711095Y39829619D01*
X4759476Y39732857D01*
X4759476Y39636095D01*
X4711095Y39490952D01*
X4130524Y38910381D01*
X4759476Y38910381D01*
X5098143Y39926381D02*
X5727095Y39926381D01*
X5388429Y39539333D01*
X5533571Y39539333D01*
X5630333Y39490952D01*
X5678714Y39442571D01*
X5727095Y39345810D01*
X5727095Y39103905D01*
X5678714Y39007143D01*
X5630333Y38958762D01*
X5533571Y38910381D01*
X5243286Y38910381D01*
X5146524Y38958762D01*
X5098143Y39007143D01*
X12681857Y21765381D02*
X12343191Y22249190D01*
X12101286Y21765381D02*
X12101286Y22781381D01*
X12488333Y22781381D01*
X12585095Y22733000D01*
X12633476Y22684619D01*
X12681857Y22587857D01*
X12681857Y22442714D01*
X12633476Y22345952D01*
X12585095Y22297571D01*
X12488333Y22249190D01*
X12101286Y22249190D01*
X13068905Y22684619D02*
X13117286Y22733000D01*
X13214048Y22781381D01*
X13455952Y22781381D01*
X13552714Y22733000D01*
X13601095Y22684619D01*
X13649476Y22587857D01*
X13649476Y22491095D01*
X13601095Y22345952D01*
X13020524Y21765381D01*
X13649476Y21765381D01*
X14036524Y22684619D02*
X14084905Y22733000D01*
X14181667Y22781381D01*
X14423571Y22781381D01*
X14520333Y22733000D01*
X14568714Y22684619D01*
X14617095Y22587857D01*
X14617095Y22491095D01*
X14568714Y22345952D01*
X13988143Y21765381D01*
X14617095Y21765381D01*
X12681857Y45260381D02*
X12343191Y45744190D01*
X12101286Y45260381D02*
X12101286Y46276381D01*
X12488333Y46276381D01*
X12585095Y46228000D01*
X12633476Y46179619D01*
X12681857Y46082857D01*
X12681857Y45937714D01*
X12633476Y45840952D01*
X12585095Y45792571D01*
X12488333Y45744190D01*
X12101286Y45744190D01*
X13068905Y46179619D02*
X13117286Y46228000D01*
X13214048Y46276381D01*
X13455952Y46276381D01*
X13552714Y46228000D01*
X13601095Y46179619D01*
X13649476Y46082857D01*
X13649476Y45986095D01*
X13601095Y45840952D01*
X13020524Y45260381D01*
X13649476Y45260381D01*
X14617095Y45260381D02*
X14036524Y45260381D01*
X14326810Y45260381D02*
X14326810Y46276381D01*
X14230048Y46131238D01*
X14133286Y46034476D01*
X14036524Y45986095D01*
X111693477Y41982571D02*
X112032143Y41982571D01*
X112177286Y41450381D02*
X111693477Y41450381D01*
X111693477Y42466381D01*
X112177286Y42466381D01*
X113048143Y42127714D02*
X113048143Y41450381D01*
X112806239Y42514762D02*
X112564334Y41789048D01*
X113193286Y41789048D01*
X121037048Y41982571D02*
X121375714Y41982571D01*
X121520857Y41450381D02*
X121037048Y41450381D01*
X121037048Y42466381D01*
X121520857Y42466381D01*
X121956286Y41450381D02*
X121956286Y42466381D01*
X122536857Y41450381D01*
X122536857Y42466381D01*
X123601238Y41547143D02*
X123552857Y41498762D01*
X123407714Y41450381D01*
X123310952Y41450381D01*
X123165810Y41498762D01*
X123069048Y41595524D01*
X123020667Y41692286D01*
X122972286Y41885810D01*
X122972286Y42030952D01*
X123020667Y42224476D01*
X123069048Y42321238D01*
X123165810Y42418000D01*
X123310952Y42466381D01*
X123407714Y42466381D01*
X123552857Y42418000D01*
X123601238Y42369619D01*
X123794762Y41353619D02*
X124568857Y41353619D01*
X125149428Y41982571D02*
X125294571Y41934190D01*
X125342952Y41885810D01*
X125391333Y41789048D01*
X125391333Y41643905D01*
X125342952Y41547143D01*
X125294571Y41498762D01*
X125197809Y41450381D01*
X124810762Y41450381D01*
X124810762Y42466381D01*
X125149428Y42466381D01*
X125246190Y42418000D01*
X125294571Y42369619D01*
X125342952Y42272857D01*
X125342952Y42176095D01*
X125294571Y42079333D01*
X125246190Y42030952D01*
X125149428Y41982571D01*
X124810762Y41982571D01*
X117789476Y28177143D02*
X117741095Y28128762D01*
X117595952Y28080381D01*
X117499190Y28080381D01*
X117354048Y28128762D01*
X117257286Y28225524D01*
X117208905Y28322286D01*
X117160524Y28515810D01*
X117160524Y28660952D01*
X117208905Y28854476D01*
X117257286Y28951238D01*
X117354048Y29048000D01*
X117499190Y29096381D01*
X117595952Y29096381D01*
X117741095Y29048000D01*
X117789476Y28999619D01*
X114733096Y28370667D02*
X115216905Y28370667D01*
X114636334Y28080381D02*
X114975001Y29096381D01*
X115313667Y28080381D01*
X120047571Y28612571D02*
X120192714Y28564190D01*
X120241095Y28515810D01*
X120289476Y28419048D01*
X120289476Y28273905D01*
X120241095Y28177143D01*
X120192714Y28128762D01*
X120095952Y28080381D01*
X119708905Y28080381D01*
X119708905Y29096381D01*
X120047571Y29096381D01*
X120144333Y29048000D01*
X120192714Y28999619D01*
X120241095Y28902857D01*
X120241095Y28806095D01*
X120192714Y28709333D01*
X120144333Y28660952D01*
X120047571Y28612571D01*
X119708905Y28612571D01*
X114104143Y39128762D02*
X114249286Y39080381D01*
X114491190Y39080381D01*
X114587952Y39128762D01*
X114636333Y39177143D01*
X114684714Y39273905D01*
X114684714Y39370667D01*
X114636333Y39467429D01*
X114587952Y39515810D01*
X114491190Y39564190D01*
X114297667Y39612571D01*
X114200905Y39660952D01*
X114152524Y39709333D01*
X114104143Y39806095D01*
X114104143Y39902857D01*
X114152524Y39999619D01*
X114200905Y40048000D01*
X114297667Y40096381D01*
X114539571Y40096381D01*
X114684714Y40048000D01*
X115023381Y40096381D02*
X115265286Y39080381D01*
X115458809Y39806095D01*
X115652333Y39080381D01*
X115894238Y40096381D01*
X119104143Y39128762D02*
X119249286Y39080381D01*
X119491190Y39080381D01*
X119587952Y39128762D01*
X119636333Y39177143D01*
X119684714Y39273905D01*
X119684714Y39370667D01*
X119636333Y39467429D01*
X119587952Y39515810D01*
X119491190Y39564190D01*
X119297667Y39612571D01*
X119200905Y39660952D01*
X119152524Y39709333D01*
X119104143Y39806095D01*
X119104143Y39902857D01*
X119152524Y39999619D01*
X119200905Y40048000D01*
X119297667Y40096381D01*
X119539571Y40096381D01*
X119684714Y40048000D01*
X120023381Y40096381D02*
X120265286Y39080381D01*
X120458809Y39806095D01*
X120652333Y39080381D01*
X120894238Y40096381D01*
X22793477Y41982571D02*
X23132143Y41982571D01*
X23277286Y41450381D02*
X22793477Y41450381D01*
X22793477Y42466381D01*
X23277286Y42466381D01*
X23615953Y42466381D02*
X24244905Y42466381D01*
X23906239Y42079333D01*
X24051381Y42079333D01*
X24148143Y42030952D01*
X24196524Y41982571D01*
X24244905Y41885810D01*
X24244905Y41643905D01*
X24196524Y41547143D01*
X24148143Y41498762D01*
X24051381Y41450381D01*
X23761096Y41450381D01*
X23664334Y41498762D01*
X23615953Y41547143D01*
X10619620Y41982571D02*
X10958286Y41982571D01*
X11103429Y41450381D02*
X10619620Y41450381D01*
X10619620Y42466381D01*
X11103429Y42466381D01*
X11538858Y41450381D02*
X11538858Y42466381D01*
X12119429Y41450381D01*
X12119429Y42466381D01*
X13183810Y41547143D02*
X13135429Y41498762D01*
X12990286Y41450381D01*
X12893524Y41450381D01*
X12748382Y41498762D01*
X12651620Y41595524D01*
X12603239Y41692286D01*
X12554858Y41885810D01*
X12554858Y42030952D01*
X12603239Y42224476D01*
X12651620Y42321238D01*
X12748382Y42418000D01*
X12893524Y42466381D01*
X12990286Y42466381D01*
X13135429Y42418000D01*
X13183810Y42369619D01*
X13377334Y41353619D02*
X14151429Y41353619D01*
X14344953Y41740667D02*
X14828762Y41740667D01*
X14248191Y41450381D02*
X14586858Y42466381D01*
X14925524Y41450381D01*
X18729476Y28177143D02*
X18681095Y28128762D01*
X18535952Y28080381D01*
X18439190Y28080381D01*
X18294048Y28128762D01*
X18197286Y28225524D01*
X18148905Y28322286D01*
X18100524Y28515810D01*
X18100524Y28660952D01*
X18148905Y28854476D01*
X18197286Y28951238D01*
X18294048Y29048000D01*
X18439190Y29096381D01*
X18535952Y29096381D01*
X18681095Y29048000D01*
X18729476Y28999619D01*
X15673096Y28370667D02*
X16156905Y28370667D01*
X15576334Y28080381D02*
X15915001Y29096381D01*
X16253667Y28080381D01*
X20987571Y28612571D02*
X21132714Y28564190D01*
X21181095Y28515810D01*
X21229476Y28419048D01*
X21229476Y28273905D01*
X21181095Y28177143D01*
X21132714Y28128762D01*
X21035952Y28080381D01*
X20648905Y28080381D01*
X20648905Y29096381D01*
X20987571Y29096381D01*
X21084333Y29048000D01*
X21132714Y28999619D01*
X21181095Y28902857D01*
X21181095Y28806095D01*
X21132714Y28709333D01*
X21084333Y28660952D01*
X20987571Y28612571D01*
X20648905Y28612571D01*
X15044143Y39128762D02*
X15189286Y39080381D01*
X15431190Y39080381D01*
X15527952Y39128762D01*
X15576333Y39177143D01*
X15624714Y39273905D01*
X15624714Y39370667D01*
X15576333Y39467429D01*
X15527952Y39515810D01*
X15431190Y39564190D01*
X15237667Y39612571D01*
X15140905Y39660952D01*
X15092524Y39709333D01*
X15044143Y39806095D01*
X15044143Y39902857D01*
X15092524Y39999619D01*
X15140905Y40048000D01*
X15237667Y40096381D01*
X15479571Y40096381D01*
X15624714Y40048000D01*
X15963381Y40096381D02*
X16205286Y39080381D01*
X16398809Y39806095D01*
X16592333Y39080381D01*
X16834238Y40096381D01*
X20044143Y39128762D02*
X20189286Y39080381D01*
X20431190Y39080381D01*
X20527952Y39128762D01*
X20576333Y39177143D01*
X20624714Y39273905D01*
X20624714Y39370667D01*
X20576333Y39467429D01*
X20527952Y39515810D01*
X20431190Y39564190D01*
X20237667Y39612571D01*
X20140905Y39660952D01*
X20092524Y39709333D01*
X20044143Y39806095D01*
X20044143Y39902857D01*
X20092524Y39999619D01*
X20140905Y40048000D01*
X20237667Y40096381D01*
X20479571Y40096381D01*
X20624714Y40048000D01*
X20963381Y40096381D02*
X21205286Y39080381D01*
X21398809Y39806095D01*
X21592333Y39080381D01*
X21834238Y40096381D01*
X79411286Y20114381D02*
X79411286Y21130381D01*
X79798333Y21130381D01*
X79895095Y21082000D01*
X79943476Y21033619D01*
X79991857Y20936857D01*
X79991857Y20791714D01*
X79943476Y20694952D01*
X79895095Y20646571D01*
X79798333Y20598190D01*
X79411286Y20598190D01*
X80862714Y20791714D02*
X80862714Y20114381D01*
X80620810Y21178762D02*
X80378905Y20453048D01*
X81007857Y20453048D01*
X81298143Y21130381D02*
X81927095Y21130381D01*
X81588429Y20743333D01*
X81733571Y20743333D01*
X81830333Y20694952D01*
X81878714Y20646571D01*
X81927095Y20549810D01*
X81927095Y20307905D01*
X81878714Y20211143D01*
X81830333Y20162762D01*
X81733571Y20114381D01*
X81443286Y20114381D01*
X81346524Y20162762D01*
X81298143Y20211143D01*
X38813619Y28435905D02*
X39636095Y28435905D01*
X39732857Y28484286D01*
X39781238Y28532667D01*
X39829619Y28629429D01*
X39829619Y28822952D01*
X39781238Y28919714D01*
X39732857Y28968095D01*
X39636095Y29016476D01*
X38813619Y29016476D01*
X39249048Y29645429D02*
X39200667Y29548667D01*
X39152286Y29500286D01*
X39055524Y29451905D01*
X39007143Y29451905D01*
X38910381Y29500286D01*
X38862000Y29548667D01*
X38813619Y29645429D01*
X38813619Y29838952D01*
X38862000Y29935714D01*
X38910381Y29984095D01*
X39007143Y30032476D01*
X39055524Y30032476D01*
X39152286Y29984095D01*
X39200667Y29935714D01*
X39249048Y29838952D01*
X39249048Y29645429D01*
X39297429Y29548667D01*
X39345810Y29500286D01*
X39442571Y29451905D01*
X39636095Y29451905D01*
X39732857Y29500286D01*
X39781238Y29548667D01*
X39829619Y29645429D01*
X39829619Y29838952D01*
X39781238Y29935714D01*
X39732857Y29984095D01*
X39636095Y30032476D01*
X39442571Y30032476D01*
X39345810Y29984095D01*
X39297429Y29935714D01*
X39249048Y29838952D01*
X39829619Y31991905D02*
X39829619Y31508096D01*
X38813619Y31508096D01*
X39732857Y32911143D02*
X39781238Y32862762D01*
X39829619Y32717619D01*
X39829619Y32620857D01*
X39781238Y32475715D01*
X39684476Y32378953D01*
X39587714Y32330572D01*
X39394190Y32282191D01*
X39249048Y32282191D01*
X39055524Y32330572D01*
X38958762Y32378953D01*
X38862000Y32475715D01*
X38813619Y32620857D01*
X38813619Y32717619D01*
X38862000Y32862762D01*
X38910381Y32911143D01*
X39829619Y33346572D02*
X38813619Y33346572D01*
X38813619Y33588477D01*
X38862000Y33733619D01*
X38958762Y33830381D01*
X39055524Y33878762D01*
X39249048Y33927143D01*
X39394190Y33927143D01*
X39587714Y33878762D01*
X39684476Y33830381D01*
X39781238Y33733619D01*
X39829619Y33588477D01*
X39829619Y33346572D01*
X39926381Y34120667D02*
X39926381Y34894762D01*
X38813619Y34991524D02*
X38813619Y35572095D01*
X39829619Y35281810D02*
X38813619Y35281810D01*
X39297429Y36249428D02*
X39297429Y35910762D01*
X39829619Y35910762D02*
X38813619Y35910762D01*
X38813619Y36394571D01*
X38813619Y36636476D02*
X38813619Y37217047D01*
X39829619Y36926762D02*
X38813619Y36926762D01*
X90030905Y1191381D02*
X90030905Y368905D01*
X90079286Y272143D01*
X90127667Y223762D01*
X90224429Y175381D01*
X90417952Y175381D01*
X90514714Y223762D01*
X90563095Y272143D01*
X90611476Y368905D01*
X90611476Y1191381D01*
X91143667Y175381D02*
X91337191Y175381D01*
X91433952Y223762D01*
X91482333Y272143D01*
X91579095Y417286D01*
X91627476Y610810D01*
X91627476Y997857D01*
X91579095Y1094619D01*
X91530714Y1143000D01*
X91433952Y1191381D01*
X91240429Y1191381D01*
X91143667Y1143000D01*
X91095286Y1094619D01*
X91046905Y997857D01*
X91046905Y755952D01*
X91095286Y659190D01*
X91143667Y610810D01*
X91240429Y562429D01*
X91433952Y562429D01*
X91530714Y610810D01*
X91579095Y659190D01*
X91627476Y755952D01*
X93205905Y707571D02*
X92867239Y707571D01*
X92867239Y175381D02*
X92867239Y1191381D01*
X93351048Y1191381D01*
X94125143Y223762D02*
X94028381Y175381D01*
X93834858Y175381D01*
X93738096Y223762D01*
X93689715Y320524D01*
X93689715Y707571D01*
X93738096Y804333D01*
X93834858Y852714D01*
X94028381Y852714D01*
X94125143Y804333D01*
X94173524Y707571D01*
X94173524Y610810D01*
X93689715Y514048D01*
X95044381Y175381D02*
X95044381Y707571D01*
X94996000Y804333D01*
X94899238Y852714D01*
X94705715Y852714D01*
X94608953Y804333D01*
X95044381Y223762D02*
X94947619Y175381D01*
X94705715Y175381D01*
X94608953Y223762D01*
X94560572Y320524D01*
X94560572Y417286D01*
X94608953Y514048D01*
X94705715Y562429D01*
X94947619Y562429D01*
X95044381Y610810D01*
X95383048Y852714D02*
X95770096Y852714D01*
X95528191Y1191381D02*
X95528191Y320524D01*
X95576572Y223762D01*
X95673334Y175381D01*
X95770096Y175381D01*
X96108762Y175381D02*
X96108762Y1191381D01*
X96544190Y175381D02*
X96544190Y707571D01*
X96495809Y804333D01*
X96399047Y852714D01*
X96253905Y852714D01*
X96157143Y804333D01*
X96108762Y755952D01*
X97415047Y223762D02*
X97318285Y175381D01*
X97124762Y175381D01*
X97028000Y223762D01*
X96979619Y320524D01*
X96979619Y707571D01*
X97028000Y804333D01*
X97124762Y852714D01*
X97318285Y852714D01*
X97415047Y804333D01*
X97463428Y707571D01*
X97463428Y610810D01*
X96979619Y514048D01*
X97898857Y175381D02*
X97898857Y852714D01*
X97898857Y659190D02*
X97947238Y755952D01*
X97995619Y804333D01*
X98092381Y852714D01*
X98189142Y852714D01*
X98527809Y175381D02*
X98527809Y1191381D01*
X98866475Y465667D01*
X99205142Y1191381D01*
X99205142Y175381D01*
X99882476Y1191381D02*
X99979237Y1191381D01*
X100075999Y1143000D01*
X100124380Y1094619D01*
X100172761Y997857D01*
X100221142Y804333D01*
X100221142Y562429D01*
X100172761Y368905D01*
X100124380Y272143D01*
X100075999Y223762D01*
X99979237Y175381D01*
X99882476Y175381D01*
X99785714Y223762D01*
X99737333Y272143D01*
X99688952Y368905D01*
X99640571Y562429D01*
X99640571Y804333D01*
X99688952Y997857D01*
X99737333Y1094619D01*
X99785714Y1143000D01*
X99882476Y1191381D01*
%LPC*%
D15*
X69215000Y50800000D03*
X69215000Y48260000D03*
X69215000Y45720000D03*
X69215000Y43180000D03*
X69215000Y40640000D03*
X69215000Y38100000D03*
X69215000Y35560000D03*
X69215000Y33020000D03*
X69215000Y30480000D03*
X69215000Y27940000D03*
X69215000Y25400000D03*
X69215000Y22860000D03*
D16*
X67945000Y20320000D03*
X65405000Y20320000D03*
X62865000Y20320000D03*
X60325000Y20320000D03*
X57785000Y20320000D03*
X55245000Y20320000D03*
D15*
X53975000Y22860001D03*
X53975000Y25400000D03*
X53975000Y27940000D03*
X53975000Y30480000D03*
X53975000Y33020000D03*
X53975000Y35560000D03*
X53975000Y38100000D03*
X53975000Y40640000D03*
X53975000Y43180000D03*
X53975000Y45720000D03*
X53975000Y48260000D03*
X53975000Y50800000D03*
D17*
X66675000Y50800000D03*
X66675000Y48260000D03*
X66675000Y45720000D03*
X66675000Y43180000D03*
X66675000Y40640000D03*
X66675000Y38100000D03*
X66675000Y35560000D03*
X66675000Y33020000D03*
X66675000Y30480000D03*
X66675000Y27940000D03*
X66675000Y25400000D03*
X71755000Y22860000D03*
X70485000Y20320000D03*
X65405000Y22860000D03*
X62865000Y22860000D03*
X60325000Y22860000D03*
X57785000Y22860000D03*
X52705000Y20320000D03*
X51435000Y22860000D03*
X56515000Y25400000D03*
X56515000Y27940000D03*
X56515000Y30480000D03*
X56515000Y33020000D03*
X56515000Y35560000D03*
X56515000Y38100000D03*
X56515000Y40640000D03*
X56515000Y43180000D03*
X56515000Y45720000D03*
D18*
X56515000Y48260000D03*
X56515000Y50800000D03*
D19*
X116205000Y20320000D03*
X118745000Y20320000D03*
X131445000Y33020000D03*
X131445000Y35560000D03*
X116205000Y46990000D03*
X118745000Y46990000D03*
X79375000Y26035000D03*
X79375000Y28575000D03*
X4445000Y33020000D03*
X4445000Y35560000D03*
X19685000Y20955000D03*
X17145000Y20955000D03*
X19685000Y46990000D03*
X17145000Y46990000D03*
D20*
X122555000Y23495000D03*
X112395000Y23495000D03*
X128270000Y39370000D03*
X128270000Y29210000D03*
X122555000Y43815000D03*
X112395000Y43815000D03*
X82550000Y36195000D03*
X82550000Y26035000D03*
X7620000Y39370000D03*
X7620000Y29210000D03*
X13335000Y24130000D03*
X23495000Y24130000D03*
X13335000Y43815000D03*
X23495000Y43815000D03*
D21*
X117475000Y26790000D03*
X114975000Y26790000D03*
X119975000Y26790000D03*
X114975000Y41290000D03*
X119975000Y41290000D03*
D22*
X124175000Y34290000D03*
X110775000Y34290000D03*
D21*
X18415000Y26790000D03*
X15915000Y26790000D03*
X20915000Y26790000D03*
X15915000Y41290000D03*
X20915000Y41290000D03*
D22*
X25115000Y34290000D03*
X11715000Y34290000D03*
D23*
X75455000Y48895000D03*
X80755000Y48895000D03*
D24*
X81915000Y22860000D03*
D25*
X79375000Y22860000D03*
D15*
X48895000Y46355000D03*
X48895000Y43815000D03*
X48895000Y41275000D03*
X48895000Y38735000D03*
X48895000Y36195000D03*
X48895000Y33655000D03*
X48895000Y31115000D03*
X48895000Y28575000D03*
X48895000Y26035000D03*
X48895000Y23495000D03*
X48895000Y20955000D03*
X48895000Y18415000D03*
D16*
X45085000Y13970000D03*
X42545000Y13970000D03*
X40005000Y13970000D03*
X37465000Y13970000D03*
X34925000Y13970000D03*
X32385000Y13970000D03*
D15*
X28575000Y18415000D03*
X28575000Y20955000D03*
X28575000Y23495000D03*
X28575000Y26035000D03*
X28575000Y28575000D03*
X28575000Y31115000D03*
X28575000Y33655000D03*
X28575000Y36195000D03*
X28575000Y38735000D03*
X28575000Y41275000D03*
X28575000Y43815000D03*
X28575000Y46355000D03*
D26*
X48260000Y14605000D03*
X29210000Y14605000D03*
X29210000Y50165000D03*
X48260000Y50165000D03*
D17*
X46355000Y46355000D03*
X46355000Y43815000D03*
X46355000Y41275000D03*
X46355000Y38735000D03*
X46355000Y36195000D03*
X46355000Y33655000D03*
X46355000Y31115000D03*
X46355000Y28575000D03*
X46355000Y26035000D03*
X46355000Y23495000D03*
X46355000Y20955000D03*
X46355000Y18415000D03*
X31115000Y18415000D03*
X31115000Y20955000D03*
X31115000Y23495000D03*
X31115000Y26035000D03*
X31115000Y28575000D03*
X31115000Y31115000D03*
X31115000Y33655000D03*
X31115000Y36195000D03*
X31115000Y38735000D03*
X31115000Y41275000D03*
D18*
X31115000Y43815000D03*
X31115000Y46355000D03*
D26*
X48260000Y3810000D03*
X30480000Y3810000D03*
X113665000Y13970000D03*
X22225000Y13970000D03*
D27*
X42545000Y45720000D03*
X42545000Y43180000D03*
X42545000Y40640000D03*
X42545000Y38100000D03*
X42545000Y35560000D03*
D28*
X42545000Y33020000D03*
D27*
X42545000Y30480000D03*
X42545000Y27940000D03*
X42545000Y25400000D03*
X42545000Y22860000D03*
D26*
X42545000Y19685000D03*
X93345000Y19685000D03*
X93345000Y48895000D03*
X42545000Y48895000D03*
D15*
X106680000Y7620000D03*
X106680000Y10160000D03*
X106680000Y12700000D03*
X106680000Y15240000D03*
X106680000Y17780000D03*
X106680000Y20320000D03*
X106680000Y22860000D03*
X106680000Y25400000D03*
X106680000Y27940000D03*
X106680000Y30480000D03*
X106680000Y33020000D03*
X106680000Y35560000D03*
X86360000Y45720000D03*
X86360000Y43180000D03*
X86360000Y40640000D03*
X86360000Y38100000D03*
X86360000Y35560000D03*
X86360000Y33020000D03*
X86360000Y30480000D03*
X86360000Y27940000D03*
X86360000Y25400000D03*
X86360000Y22860000D03*
X86360000Y20320000D03*
X86360000Y17780000D03*
X86360000Y15240000D03*
X86360000Y12700000D03*
X86360000Y10160000D03*
X86360000Y7620000D03*
D26*
X105410000Y49530000D03*
X87630000Y49530000D03*
D21*
X104140000Y7620000D03*
X104140000Y10160000D03*
X104140000Y12700000D03*
X104140000Y15240000D03*
X104140000Y17780000D03*
X104140000Y20320000D03*
X104140000Y22860000D03*
X104140000Y25400000D03*
X104140000Y27940000D03*
X104140000Y30480000D03*
X104140000Y33020000D03*
X104140000Y35560000D03*
X88900000Y45720000D03*
X88900000Y43180000D03*
X88900000Y40640000D03*
X88900000Y38100000D03*
X88900000Y35560000D03*
X88900000Y33020000D03*
X88900000Y30480000D03*
X88900000Y27940000D03*
X88900000Y25400000D03*
X88900000Y22860000D03*
X88900000Y20320000D03*
X88900000Y17780000D03*
X88900000Y15240000D03*
X88900000Y12700000D03*
X88900000Y10160000D03*
X88900000Y7620000D03*
D26*
X105410000Y3810000D03*
X87630000Y3810000D03*
M02*
