G04 #@! TF.FileFunction,Legend,Bot*
%FSLAX46Y46*%
G04 Gerber Fmt 4.6, Leading zero omitted, Abs format (unit mm)*
G04 Created by KiCad (PCBNEW 4.0.1-3.201512221401+6198~38~ubuntu15.10.1-stable) date Fri Feb  5 22:48:27 2016*
%MOMM*%
G01*
G04 APERTURE LIST*
%ADD10C,0.101600*%
%ADD11C,0.152400*%
%ADD12C,0.150000*%
%ADD13O,2.432000X1.924000*%
%ADD14O,1.924000X2.432000*%
%ADD15O,1.924000X1.924000*%
%ADD16O,1.797000X1.797000*%
%ADD17C,1.901140*%
%ADD18C,2.398980*%
%ADD19C,1.924000*%
%ADD20C,4.100000*%
%ADD21C,2.400000*%
%ADD22R,2.432000X2.432000*%
%ADD23O,2.432000X2.432000*%
%ADD24C,4.572000*%
%ADD25O,2.813000X1.797000*%
%ADD26O,2.432000X1.797000*%
G04 APERTURE END LIST*
D10*
D11*
X115570000Y52070000D02*
X117475000Y52070000D01*
X115570000Y52070000D02*
G75*
G03X114300000Y50800000I0J-1270000D01*
G01*
X107950000Y50800000D02*
G75*
G03X106680000Y52070000I-1270000J0D01*
G01*
X113030000Y45720000D02*
G75*
G03X114300000Y46990000I0J1270000D01*
G01*
X107950000Y46990000D02*
G75*
G03X109220000Y45720000I1270000J0D01*
G01*
X109220000Y45720000D02*
X113030000Y45720000D01*
X114300000Y46990000D02*
X114300000Y50800000D01*
X107950000Y50800000D02*
X107950000Y46990000D01*
X85090000Y0D02*
X106045000Y0D01*
X50800000Y0D02*
X29845000Y0D01*
X85090000Y0D02*
G75*
G03X67945000Y17145000I-17145000J0D01*
G01*
X67945000Y17145000D02*
G75*
G03X50800000Y0I0J-17145000D01*
G01*
X29845000Y0D02*
X5842000Y21717000D01*
X5842641Y21717641D02*
G75*
G02X18415000Y52070000I12572359J12572359D01*
G01*
X18415000Y52070000D02*
X106680000Y52070000D01*
X106045000Y0D02*
X130048000Y21717000D01*
X130047359Y21717641D02*
G75*
G03X117475000Y52070000I-12572359J12572359D01*
G01*
X53975000Y52070000D02*
X69215000Y52070000D01*
X69215000Y19050000D02*
X53975000Y19050000D01*
D12*
X70485000Y20320000D02*
G75*
G02X69215000Y19050000I-1270000J0D01*
G01*
X53975000Y19050000D02*
G75*
G02X52705000Y20320000I0J1270000D01*
G01*
X52705000Y50800000D02*
G75*
G02X53975000Y52070000I1270000J0D01*
G01*
X69215000Y52070000D02*
G75*
G02X70485000Y50800000I0J-1270000D01*
G01*
X52705000Y20320000D02*
X52705000Y50800000D01*
X70485000Y50800000D02*
X70485000Y20320000D01*
X75405000Y53895000D02*
G75*
G02X80805000Y53895000I2700000J-5000000D01*
G01*
X80805000Y53895000D02*
X75405000Y53895000D01*
X80805000Y51995000D02*
X80805000Y53895000D01*
X75405000Y53895000D02*
X75405000Y51995000D01*
X71605000Y45495000D02*
X71605000Y51995000D01*
X71605000Y51995000D02*
X84605000Y51995000D01*
X84605000Y51995000D02*
X84605000Y45495000D01*
X84605000Y45495000D02*
X71605000Y45495000D01*
X29210000Y12700000D02*
X48260000Y12700000D01*
X27305000Y50165000D02*
X27305000Y14605000D01*
X48260000Y52070000D02*
X29210000Y52070000D01*
X50165000Y14605000D02*
X50165000Y50165000D01*
X50165000Y14605000D02*
G75*
G02X48260000Y12700000I-1905000J0D01*
G01*
X29210000Y12700000D02*
G75*
G02X27305000Y14605000I0J1905000D01*
G01*
X27305000Y50165000D02*
G75*
G02X29210000Y52070000I1905000J0D01*
G01*
X48260000Y52070000D02*
G75*
G02X50165000Y50165000I0J-1905000D01*
G01*
D10*
X68961000Y50088800D02*
X69469000Y50088800D01*
X68961000Y51511200D02*
X69469000Y51511200D01*
X69469000Y50088800D02*
G75*
G03X69469000Y51511200I0J711200D01*
G01*
X68961000Y51511200D02*
G75*
G03X68961000Y50088800I0J-711200D01*
G01*
X68961000Y47548800D02*
X69469000Y47548800D01*
X68961000Y48971200D02*
X69469000Y48971200D01*
X69469000Y47548800D02*
G75*
G03X69469000Y48971200I0J711200D01*
G01*
X68961000Y48971200D02*
G75*
G03X68961000Y47548800I0J-711200D01*
G01*
X68961000Y45008800D02*
X69469000Y45008800D01*
X68961000Y46431200D02*
X69469000Y46431200D01*
X69469000Y45008800D02*
G75*
G03X69469000Y46431200I0J711200D01*
G01*
X68961000Y46431200D02*
G75*
G03X68961000Y45008800I0J-711200D01*
G01*
X68961000Y42468800D02*
X69469000Y42468800D01*
X68961000Y43891200D02*
X69469000Y43891200D01*
X69469000Y42468800D02*
G75*
G03X69469000Y43891200I0J711200D01*
G01*
X68961000Y43891200D02*
G75*
G03X68961000Y42468800I0J-711200D01*
G01*
X68961000Y39928800D02*
X69469000Y39928800D01*
X68961000Y41351200D02*
X69469000Y41351200D01*
X69469000Y39928800D02*
G75*
G03X69469000Y41351200I0J711200D01*
G01*
X68961000Y41351200D02*
G75*
G03X68961000Y39928800I0J-711200D01*
G01*
X68961000Y37388800D02*
X69469000Y37388800D01*
X68961000Y38811200D02*
X69469000Y38811200D01*
X69469000Y37388800D02*
G75*
G03X69469000Y38811200I0J711200D01*
G01*
X68961000Y38811200D02*
G75*
G03X68961000Y37388800I0J-711200D01*
G01*
X68961000Y34848800D02*
X69469000Y34848800D01*
X68961000Y36271200D02*
X69469000Y36271200D01*
X69469000Y34848800D02*
G75*
G03X69469000Y36271200I0J711200D01*
G01*
X68961000Y36271200D02*
G75*
G03X68961000Y34848800I0J-711200D01*
G01*
X68961000Y32308800D02*
X69469000Y32308800D01*
X68961000Y33731200D02*
X69469000Y33731200D01*
X69469000Y32308800D02*
G75*
G03X69469000Y33731200I0J711200D01*
G01*
X68961000Y33731200D02*
G75*
G03X68961000Y32308800I0J-711200D01*
G01*
X68961000Y29768800D02*
X69469000Y29768800D01*
X68961000Y31191200D02*
X69469000Y31191200D01*
X69469000Y29768800D02*
G75*
G03X69469000Y31191200I0J711200D01*
G01*
X68961000Y31191200D02*
G75*
G03X68961000Y29768800I0J-711200D01*
G01*
X68961000Y27228800D02*
X69469000Y27228800D01*
X68961000Y28651200D02*
X69469000Y28651200D01*
X69469000Y27228800D02*
G75*
G03X69469000Y28651200I0J711200D01*
G01*
X68961000Y28651200D02*
G75*
G03X68961000Y27228800I0J-711200D01*
G01*
X68961000Y24688800D02*
X69469000Y24688800D01*
X68961000Y26111200D02*
X69469000Y26111200D01*
X69469000Y24688800D02*
G75*
G03X69469000Y26111200I0J711200D01*
G01*
X68961000Y26111200D02*
G75*
G03X68961000Y24688800I0J-711200D01*
G01*
X68961000Y22148800D02*
X69469000Y22148800D01*
X68961000Y23571200D02*
X69469000Y23571200D01*
X69469000Y22148800D02*
G75*
G03X69469000Y23571200I0J711200D01*
G01*
X68961000Y23571200D02*
G75*
G03X68961000Y22148800I0J-711200D01*
G01*
X68656200Y20066000D02*
X68656200Y20574000D01*
X67233800Y20066000D02*
X67233800Y20574000D01*
X68656200Y20574000D02*
G75*
G03X67233800Y20574000I-711200J0D01*
G01*
X67233800Y20066000D02*
G75*
G03X68656200Y20066000I711200J0D01*
G01*
X66116200Y20066000D02*
X66116200Y20574000D01*
X64693800Y20066000D02*
X64693800Y20574000D01*
X66116200Y20574000D02*
G75*
G03X64693800Y20574000I-711200J0D01*
G01*
X64693800Y20066000D02*
G75*
G03X66116200Y20066000I711200J0D01*
G01*
X63576200Y20066000D02*
X63576200Y20574000D01*
X62153800Y20066000D02*
X62153800Y20574000D01*
X63576200Y20574000D02*
G75*
G03X62153800Y20574000I-711200J0D01*
G01*
X62153800Y20066000D02*
G75*
G03X63576200Y20066000I711200J0D01*
G01*
X61036200Y20066000D02*
X61036200Y20574000D01*
X59613800Y20066000D02*
X59613800Y20574000D01*
X61036200Y20574000D02*
G75*
G03X59613800Y20574000I-711200J0D01*
G01*
X59613800Y20066000D02*
G75*
G03X61036200Y20066000I711200J0D01*
G01*
X58496200Y20066000D02*
X58496200Y20574000D01*
X57073800Y20066000D02*
X57073800Y20574000D01*
X58496200Y20574000D02*
G75*
G03X57073800Y20574000I-711200J0D01*
G01*
X57073800Y20066000D02*
G75*
G03X58496200Y20066000I711200J0D01*
G01*
X55956200Y20066000D02*
X55956200Y20574000D01*
X54533800Y20066000D02*
X54533800Y20574000D01*
X55956200Y20574000D02*
G75*
G03X54533800Y20574000I-711200J0D01*
G01*
X54533800Y20066000D02*
G75*
G03X55956200Y20066000I711200J0D01*
G01*
X53721000Y22148801D02*
X54229000Y22148801D01*
X53721000Y23571201D02*
X54229000Y23571201D01*
X54229000Y22148801D02*
G75*
G03X54229000Y23571201I0J711200D01*
G01*
X53721000Y23571201D02*
G75*
G03X53721000Y22148801I0J-711200D01*
G01*
X53721000Y24688800D02*
X54229000Y24688800D01*
X53721000Y26111200D02*
X54229000Y26111200D01*
X54229000Y24688800D02*
G75*
G03X54229000Y26111200I0J711200D01*
G01*
X53721000Y26111200D02*
G75*
G03X53721000Y24688800I0J-711200D01*
G01*
X53721000Y27228800D02*
X54229000Y27228800D01*
X53721000Y28651200D02*
X54229000Y28651200D01*
X54229000Y27228800D02*
G75*
G03X54229000Y28651200I0J711200D01*
G01*
X53721000Y28651200D02*
G75*
G03X53721000Y27228800I0J-711200D01*
G01*
X53721000Y29768800D02*
X54229000Y29768800D01*
X53721000Y31191200D02*
X54229000Y31191200D01*
X54229000Y29768800D02*
G75*
G03X54229000Y31191200I0J711200D01*
G01*
X53721000Y31191200D02*
G75*
G03X53721000Y29768800I0J-711200D01*
G01*
X53721000Y32308800D02*
X54229000Y32308800D01*
X53721000Y33731200D02*
X54229000Y33731200D01*
X54229000Y32308800D02*
G75*
G03X54229000Y33731200I0J711200D01*
G01*
X53721000Y33731200D02*
G75*
G03X53721000Y32308800I0J-711200D01*
G01*
X53721000Y34848800D02*
X54229000Y34848800D01*
X53721000Y36271200D02*
X54229000Y36271200D01*
X54229000Y34848800D02*
G75*
G03X54229000Y36271200I0J711200D01*
G01*
X53721000Y36271200D02*
G75*
G03X53721000Y34848800I0J-711200D01*
G01*
X53721000Y37388800D02*
X54229000Y37388800D01*
X53721000Y38811200D02*
X54229000Y38811200D01*
X54229000Y37388800D02*
G75*
G03X54229000Y38811200I0J711200D01*
G01*
X53721000Y38811200D02*
G75*
G03X53721000Y37388800I0J-711200D01*
G01*
X53721000Y39928800D02*
X54229000Y39928800D01*
X53721000Y41351200D02*
X54229000Y41351200D01*
X54229000Y39928800D02*
G75*
G03X54229000Y41351200I0J711200D01*
G01*
X53721000Y41351200D02*
G75*
G03X53721000Y39928800I0J-711200D01*
G01*
X53721000Y42468800D02*
X54229000Y42468800D01*
X53721000Y43891200D02*
X54229000Y43891200D01*
X54229000Y42468800D02*
G75*
G03X54229000Y43891200I0J711200D01*
G01*
X53721000Y43891200D02*
G75*
G03X53721000Y42468800I0J-711200D01*
G01*
X53721000Y45008800D02*
X54229000Y45008800D01*
X53721000Y46431200D02*
X54229000Y46431200D01*
X54229000Y45008800D02*
G75*
G03X54229000Y46431200I0J711200D01*
G01*
X53721000Y46431200D02*
G75*
G03X53721000Y45008800I0J-711200D01*
G01*
X53721000Y47548800D02*
X54229000Y47548800D01*
X53721000Y48971200D02*
X54229000Y48971200D01*
X54229000Y47548800D02*
G75*
G03X54229000Y48971200I0J711200D01*
G01*
X53721000Y48971200D02*
G75*
G03X53721000Y47548800I0J-711200D01*
G01*
X53721000Y50088800D02*
X54229000Y50088800D01*
X53721000Y51511200D02*
X54229000Y51511200D01*
X54229000Y50088800D02*
G75*
G03X54229000Y51511200I0J711200D01*
G01*
X53721000Y51511200D02*
G75*
G03X53721000Y50088800I0J-711200D01*
G01*
X66675000Y50088800D02*
X66675000Y50088800D01*
X66675000Y51511200D02*
X66675000Y51511200D01*
X66675000Y50088800D02*
G75*
G03X66675000Y51511200I0J711200D01*
G01*
X66675000Y51511200D02*
G75*
G03X66675000Y50088800I0J-711200D01*
G01*
X66675000Y47548800D02*
X66675000Y47548800D01*
X66675000Y48971200D02*
X66675000Y48971200D01*
X66675000Y47548800D02*
G75*
G03X66675000Y48971200I0J711200D01*
G01*
X66675000Y48971200D02*
G75*
G03X66675000Y47548800I0J-711200D01*
G01*
X66675000Y45008800D02*
X66675000Y45008800D01*
X66675000Y46431200D02*
X66675000Y46431200D01*
X66675000Y45008800D02*
G75*
G03X66675000Y46431200I0J711200D01*
G01*
X66675000Y46431200D02*
G75*
G03X66675000Y45008800I0J-711200D01*
G01*
X66675000Y42468800D02*
X66675000Y42468800D01*
X66675000Y43891200D02*
X66675000Y43891200D01*
X66675000Y42468800D02*
G75*
G03X66675000Y43891200I0J711200D01*
G01*
X66675000Y43891200D02*
G75*
G03X66675000Y42468800I0J-711200D01*
G01*
X66675000Y39928800D02*
X66675000Y39928800D01*
X66675000Y41351200D02*
X66675000Y41351200D01*
X66675000Y39928800D02*
G75*
G03X66675000Y41351200I0J711200D01*
G01*
X66675000Y41351200D02*
G75*
G03X66675000Y39928800I0J-711200D01*
G01*
X66675000Y37388800D02*
X66675000Y37388800D01*
X66675000Y38811200D02*
X66675000Y38811200D01*
X66675000Y37388800D02*
G75*
G03X66675000Y38811200I0J711200D01*
G01*
X66675000Y38811200D02*
G75*
G03X66675000Y37388800I0J-711200D01*
G01*
X66675000Y34848800D02*
X66675000Y34848800D01*
X66675000Y36271200D02*
X66675000Y36271200D01*
X66675000Y34848800D02*
G75*
G03X66675000Y36271200I0J711200D01*
G01*
X66675000Y36271200D02*
G75*
G03X66675000Y34848800I0J-711200D01*
G01*
X66675000Y32308800D02*
X66675000Y32308800D01*
X66675000Y33731200D02*
X66675000Y33731200D01*
X66675000Y32308800D02*
G75*
G03X66675000Y33731200I0J711200D01*
G01*
X66675000Y33731200D02*
G75*
G03X66675000Y32308800I0J-711200D01*
G01*
X66675000Y29768800D02*
X66675000Y29768800D01*
X66675000Y31191200D02*
X66675000Y31191200D01*
X66675000Y29768800D02*
G75*
G03X66675000Y31191200I0J711200D01*
G01*
X66675000Y31191200D02*
G75*
G03X66675000Y29768800I0J-711200D01*
G01*
X66675000Y27228800D02*
X66675000Y27228800D01*
X66675000Y28651200D02*
X66675000Y28651200D01*
X66675000Y27228800D02*
G75*
G03X66675000Y28651200I0J711200D01*
G01*
X66675000Y28651200D02*
G75*
G03X66675000Y27228800I0J-711200D01*
G01*
X66675000Y24688800D02*
X66675000Y24688800D01*
X66675000Y26111200D02*
X66675000Y26111200D01*
X66675000Y24688800D02*
G75*
G03X66675000Y26111200I0J711200D01*
G01*
X66675000Y26111200D02*
G75*
G03X66675000Y24688800I0J-711200D01*
G01*
X71755000Y22148800D02*
X71755000Y22148800D01*
X71755000Y23571200D02*
X71755000Y23571200D01*
X71755000Y22148800D02*
G75*
G03X71755000Y23571200I0J711200D01*
G01*
X71755000Y23571200D02*
G75*
G03X71755000Y22148800I0J-711200D01*
G01*
X70485000Y19608800D02*
X70485000Y19608800D01*
X70485000Y21031200D02*
X70485000Y21031200D01*
X70485000Y19608800D02*
G75*
G03X70485000Y21031200I0J711200D01*
G01*
X70485000Y21031200D02*
G75*
G03X70485000Y19608800I0J-711200D01*
G01*
X65405000Y22148800D02*
X65405000Y22148800D01*
X65405000Y23571200D02*
X65405000Y23571200D01*
X65405000Y22148800D02*
G75*
G03X65405000Y23571200I0J711200D01*
G01*
X65405000Y23571200D02*
G75*
G03X65405000Y22148800I0J-711200D01*
G01*
X62865000Y22148800D02*
X62865000Y22148800D01*
X62865000Y23571200D02*
X62865000Y23571200D01*
X62865000Y22148800D02*
G75*
G03X62865000Y23571200I0J711200D01*
G01*
X62865000Y23571200D02*
G75*
G03X62865000Y22148800I0J-711200D01*
G01*
X60325000Y22148800D02*
X60325000Y22148800D01*
X60325000Y23571200D02*
X60325000Y23571200D01*
X60325000Y22148800D02*
G75*
G03X60325000Y23571200I0J711200D01*
G01*
X60325000Y23571200D02*
G75*
G03X60325000Y22148800I0J-711200D01*
G01*
X57785000Y22148800D02*
X57785000Y22148800D01*
X57785000Y23571200D02*
X57785000Y23571200D01*
X57785000Y22148800D02*
G75*
G03X57785000Y23571200I0J711200D01*
G01*
X57785000Y23571200D02*
G75*
G03X57785000Y22148800I0J-711200D01*
G01*
X52705000Y19608800D02*
X52705000Y19608800D01*
X52705000Y21031200D02*
X52705000Y21031200D01*
X52705000Y19608800D02*
G75*
G03X52705000Y21031200I0J711200D01*
G01*
X52705000Y21031200D02*
G75*
G03X52705000Y19608800I0J-711200D01*
G01*
X51435000Y22148800D02*
X51435000Y22148800D01*
X51435000Y23571200D02*
X51435000Y23571200D01*
X51435000Y22148800D02*
G75*
G03X51435000Y23571200I0J711200D01*
G01*
X51435000Y23571200D02*
G75*
G03X51435000Y22148800I0J-711200D01*
G01*
X56515000Y24688800D02*
X56515000Y24688800D01*
X56515000Y26111200D02*
X56515000Y26111200D01*
X56515000Y24688800D02*
G75*
G03X56515000Y26111200I0J711200D01*
G01*
X56515000Y26111200D02*
G75*
G03X56515000Y24688800I0J-711200D01*
G01*
X56515000Y27228800D02*
X56515000Y27228800D01*
X56515000Y28651200D02*
X56515000Y28651200D01*
X56515000Y27228800D02*
G75*
G03X56515000Y28651200I0J711200D01*
G01*
X56515000Y28651200D02*
G75*
G03X56515000Y27228800I0J-711200D01*
G01*
X56515000Y29768800D02*
X56515000Y29768800D01*
X56515000Y31191200D02*
X56515000Y31191200D01*
X56515000Y29768800D02*
G75*
G03X56515000Y31191200I0J711200D01*
G01*
X56515000Y31191200D02*
G75*
G03X56515000Y29768800I0J-711200D01*
G01*
X56515000Y32308800D02*
X56515000Y32308800D01*
X56515000Y33731200D02*
X56515000Y33731200D01*
X56515000Y32308800D02*
G75*
G03X56515000Y33731200I0J711200D01*
G01*
X56515000Y33731200D02*
G75*
G03X56515000Y32308800I0J-711200D01*
G01*
X56515000Y34848800D02*
X56515000Y34848800D01*
X56515000Y36271200D02*
X56515000Y36271200D01*
X56515000Y34848800D02*
G75*
G03X56515000Y36271200I0J711200D01*
G01*
X56515000Y36271200D02*
G75*
G03X56515000Y34848800I0J-711200D01*
G01*
X56515000Y37388800D02*
X56515000Y37388800D01*
X56515000Y38811200D02*
X56515000Y38811200D01*
X56515000Y37388800D02*
G75*
G03X56515000Y38811200I0J711200D01*
G01*
X56515000Y38811200D02*
G75*
G03X56515000Y37388800I0J-711200D01*
G01*
X56515000Y39928800D02*
X56515000Y39928800D01*
X56515000Y41351200D02*
X56515000Y41351200D01*
X56515000Y39928800D02*
G75*
G03X56515000Y41351200I0J711200D01*
G01*
X56515000Y41351200D02*
G75*
G03X56515000Y39928800I0J-711200D01*
G01*
X56515000Y42468800D02*
X56515000Y42468800D01*
X56515000Y43891200D02*
X56515000Y43891200D01*
X56515000Y42468800D02*
G75*
G03X56515000Y43891200I0J711200D01*
G01*
X56515000Y43891200D02*
G75*
G03X56515000Y42468800I0J-711200D01*
G01*
X56515000Y45008800D02*
X56515000Y45008800D01*
X56515000Y46431200D02*
X56515000Y46431200D01*
X56515000Y45008800D02*
G75*
G03X56515000Y46431200I0J711200D01*
G01*
X56515000Y46431200D02*
G75*
G03X56515000Y45008800I0J-711200D01*
G01*
X123503690Y23495000D02*
G75*
G03X123503690Y23495000I-948690J0D01*
G01*
X113343690Y23495000D02*
G75*
G03X113343690Y23495000I-948690J0D01*
G01*
X129218690Y39370000D02*
G75*
G03X129218690Y39370000I-948690J0D01*
G01*
X129218690Y29210000D02*
G75*
G03X129218690Y29210000I-948690J0D01*
G01*
X123503690Y43815000D02*
G75*
G03X123503690Y43815000I-948690J0D01*
G01*
X113343690Y43815000D02*
G75*
G03X113343690Y43815000I-948690J0D01*
G01*
X83498690Y36195000D02*
G75*
G03X83498690Y36195000I-948690J0D01*
G01*
X83498690Y26035000D02*
G75*
G03X83498690Y26035000I-948690J0D01*
G01*
X8568690Y39370000D02*
G75*
G03X8568690Y39370000I-948690J0D01*
G01*
X8568690Y29210000D02*
G75*
G03X8568690Y29210000I-948690J0D01*
G01*
X14283690Y24130000D02*
G75*
G03X14283690Y24130000I-948690J0D01*
G01*
X24443690Y24130000D02*
G75*
G03X24443690Y24130000I-948690J0D01*
G01*
X14283690Y43815000D02*
G75*
G03X14283690Y43815000I-948690J0D01*
G01*
X24443690Y43815000D02*
G75*
G03X24443690Y43815000I-948690J0D01*
G01*
X76404200Y48895000D02*
G75*
G03X76404200Y48895000I-949200J0D01*
G01*
X81704200Y48895000D02*
G75*
G03X81704200Y48895000I-949200J0D01*
G01*
X48641000Y45643800D02*
X49149000Y45643800D01*
X48641000Y47066200D02*
X49149000Y47066200D01*
X49149000Y45643800D02*
G75*
G03X49149000Y47066200I0J711200D01*
G01*
X48641000Y47066200D02*
G75*
G03X48641000Y45643800I0J-711200D01*
G01*
X48641000Y43103800D02*
X49149000Y43103800D01*
X48641000Y44526200D02*
X49149000Y44526200D01*
X49149000Y43103800D02*
G75*
G03X49149000Y44526200I0J711200D01*
G01*
X48641000Y44526200D02*
G75*
G03X48641000Y43103800I0J-711200D01*
G01*
X48641000Y40563800D02*
X49149000Y40563800D01*
X48641000Y41986200D02*
X49149000Y41986200D01*
X49149000Y40563800D02*
G75*
G03X49149000Y41986200I0J711200D01*
G01*
X48641000Y41986200D02*
G75*
G03X48641000Y40563800I0J-711200D01*
G01*
X48641000Y38023800D02*
X49149000Y38023800D01*
X48641000Y39446200D02*
X49149000Y39446200D01*
X49149000Y38023800D02*
G75*
G03X49149000Y39446200I0J711200D01*
G01*
X48641000Y39446200D02*
G75*
G03X48641000Y38023800I0J-711200D01*
G01*
X48641000Y35483800D02*
X49149000Y35483800D01*
X48641000Y36906200D02*
X49149000Y36906200D01*
X49149000Y35483800D02*
G75*
G03X49149000Y36906200I0J711200D01*
G01*
X48641000Y36906200D02*
G75*
G03X48641000Y35483800I0J-711200D01*
G01*
X48641000Y32943800D02*
X49149000Y32943800D01*
X48641000Y34366200D02*
X49149000Y34366200D01*
X49149000Y32943800D02*
G75*
G03X49149000Y34366200I0J711200D01*
G01*
X48641000Y34366200D02*
G75*
G03X48641000Y32943800I0J-711200D01*
G01*
X48641000Y30403800D02*
X49149000Y30403800D01*
X48641000Y31826200D02*
X49149000Y31826200D01*
X49149000Y30403800D02*
G75*
G03X49149000Y31826200I0J711200D01*
G01*
X48641000Y31826200D02*
G75*
G03X48641000Y30403800I0J-711200D01*
G01*
X48641000Y27863800D02*
X49149000Y27863800D01*
X48641000Y29286200D02*
X49149000Y29286200D01*
X49149000Y27863800D02*
G75*
G03X49149000Y29286200I0J711200D01*
G01*
X48641000Y29286200D02*
G75*
G03X48641000Y27863800I0J-711200D01*
G01*
X48641000Y25323800D02*
X49149000Y25323800D01*
X48641000Y26746200D02*
X49149000Y26746200D01*
X49149000Y25323800D02*
G75*
G03X49149000Y26746200I0J711200D01*
G01*
X48641000Y26746200D02*
G75*
G03X48641000Y25323800I0J-711200D01*
G01*
X48641000Y22783800D02*
X49149000Y22783800D01*
X48641000Y24206200D02*
X49149000Y24206200D01*
X49149000Y22783800D02*
G75*
G03X49149000Y24206200I0J711200D01*
G01*
X48641000Y24206200D02*
G75*
G03X48641000Y22783800I0J-711200D01*
G01*
X48641000Y20243800D02*
X49149000Y20243800D01*
X48641000Y21666200D02*
X49149000Y21666200D01*
X49149000Y20243800D02*
G75*
G03X49149000Y21666200I0J711200D01*
G01*
X48641000Y21666200D02*
G75*
G03X48641000Y20243800I0J-711200D01*
G01*
X48641000Y17703800D02*
X49149000Y17703800D01*
X48641000Y19126200D02*
X49149000Y19126200D01*
X49149000Y17703800D02*
G75*
G03X49149000Y19126200I0J711200D01*
G01*
X48641000Y19126200D02*
G75*
G03X48641000Y17703800I0J-711200D01*
G01*
X45796200Y13716000D02*
X45796200Y14224000D01*
X44373800Y13716000D02*
X44373800Y14224000D01*
X45796200Y14224000D02*
G75*
G03X44373800Y14224000I-711200J0D01*
G01*
X44373800Y13716000D02*
G75*
G03X45796200Y13716000I711200J0D01*
G01*
X43256200Y13716000D02*
X43256200Y14224000D01*
X41833800Y13716000D02*
X41833800Y14224000D01*
X43256200Y14224000D02*
G75*
G03X41833800Y14224000I-711200J0D01*
G01*
X41833800Y13716000D02*
G75*
G03X43256200Y13716000I711200J0D01*
G01*
X40716200Y13716000D02*
X40716200Y14224000D01*
X39293800Y13716000D02*
X39293800Y14224000D01*
X40716200Y14224000D02*
G75*
G03X39293800Y14224000I-711200J0D01*
G01*
X39293800Y13716000D02*
G75*
G03X40716200Y13716000I711200J0D01*
G01*
X38176200Y13716000D02*
X38176200Y14224000D01*
X36753800Y13716000D02*
X36753800Y14224000D01*
X38176200Y14224000D02*
G75*
G03X36753800Y14224000I-711200J0D01*
G01*
X36753800Y13716000D02*
G75*
G03X38176200Y13716000I711200J0D01*
G01*
X35636200Y13716000D02*
X35636200Y14224000D01*
X34213800Y13716000D02*
X34213800Y14224000D01*
X35636200Y14224000D02*
G75*
G03X34213800Y14224000I-711200J0D01*
G01*
X34213800Y13716000D02*
G75*
G03X35636200Y13716000I711200J0D01*
G01*
X33096200Y13716000D02*
X33096200Y14224000D01*
X31673800Y13716000D02*
X31673800Y14224000D01*
X33096200Y14224000D02*
G75*
G03X31673800Y14224000I-711200J0D01*
G01*
X31673800Y13716000D02*
G75*
G03X33096200Y13716000I711200J0D01*
G01*
X28321000Y17703800D02*
X28829000Y17703800D01*
X28321000Y19126200D02*
X28829000Y19126200D01*
X28829000Y17703800D02*
G75*
G03X28829000Y19126200I0J711200D01*
G01*
X28321000Y19126200D02*
G75*
G03X28321000Y17703800I0J-711200D01*
G01*
X28321000Y20243800D02*
X28829000Y20243800D01*
X28321000Y21666200D02*
X28829000Y21666200D01*
X28829000Y20243800D02*
G75*
G03X28829000Y21666200I0J711200D01*
G01*
X28321000Y21666200D02*
G75*
G03X28321000Y20243800I0J-711200D01*
G01*
X28321000Y22783800D02*
X28829000Y22783800D01*
X28321000Y24206200D02*
X28829000Y24206200D01*
X28829000Y22783800D02*
G75*
G03X28829000Y24206200I0J711200D01*
G01*
X28321000Y24206200D02*
G75*
G03X28321000Y22783800I0J-711200D01*
G01*
X28321000Y25323800D02*
X28829000Y25323800D01*
X28321000Y26746200D02*
X28829000Y26746200D01*
X28829000Y25323800D02*
G75*
G03X28829000Y26746200I0J711200D01*
G01*
X28321000Y26746200D02*
G75*
G03X28321000Y25323800I0J-711200D01*
G01*
X28321000Y27863800D02*
X28829000Y27863800D01*
X28321000Y29286200D02*
X28829000Y29286200D01*
X28829000Y27863800D02*
G75*
G03X28829000Y29286200I0J711200D01*
G01*
X28321000Y29286200D02*
G75*
G03X28321000Y27863800I0J-711200D01*
G01*
X28321000Y30403800D02*
X28829000Y30403800D01*
X28321000Y31826200D02*
X28829000Y31826200D01*
X28829000Y30403800D02*
G75*
G03X28829000Y31826200I0J711200D01*
G01*
X28321000Y31826200D02*
G75*
G03X28321000Y30403800I0J-711200D01*
G01*
X28321000Y32943800D02*
X28829000Y32943800D01*
X28321000Y34366200D02*
X28829000Y34366200D01*
X28829000Y32943800D02*
G75*
G03X28829000Y34366200I0J711200D01*
G01*
X28321000Y34366200D02*
G75*
G03X28321000Y32943800I0J-711200D01*
G01*
X28321000Y35483800D02*
X28829000Y35483800D01*
X28321000Y36906200D02*
X28829000Y36906200D01*
X28829000Y35483800D02*
G75*
G03X28829000Y36906200I0J711200D01*
G01*
X28321000Y36906200D02*
G75*
G03X28321000Y35483800I0J-711200D01*
G01*
X28321000Y38023800D02*
X28829000Y38023800D01*
X28321000Y39446200D02*
X28829000Y39446200D01*
X28829000Y38023800D02*
G75*
G03X28829000Y39446200I0J711200D01*
G01*
X28321000Y39446200D02*
G75*
G03X28321000Y38023800I0J-711200D01*
G01*
X28321000Y40563800D02*
X28829000Y40563800D01*
X28321000Y41986200D02*
X28829000Y41986200D01*
X28829000Y40563800D02*
G75*
G03X28829000Y41986200I0J711200D01*
G01*
X28321000Y41986200D02*
G75*
G03X28321000Y40563800I0J-711200D01*
G01*
X28321000Y43103800D02*
X28829000Y43103800D01*
X28321000Y44526200D02*
X28829000Y44526200D01*
X28829000Y43103800D02*
G75*
G03X28829000Y44526200I0J711200D01*
G01*
X28321000Y44526200D02*
G75*
G03X28321000Y43103800I0J-711200D01*
G01*
X28321000Y45643800D02*
X28829000Y45643800D01*
X28321000Y47066200D02*
X28829000Y47066200D01*
X28829000Y45643800D02*
G75*
G03X28829000Y47066200I0J711200D01*
G01*
X28321000Y47066200D02*
G75*
G03X28321000Y45643800I0J-711200D01*
G01*
X49733200Y14605000D02*
G75*
G03X49733200Y14605000I-1473200J0D01*
G01*
X30683200Y14605000D02*
G75*
G03X30683200Y14605000I-1473200J0D01*
G01*
X30683200Y50165000D02*
G75*
G03X30683200Y50165000I-1473200J0D01*
G01*
X49733200Y50165000D02*
G75*
G03X49733200Y50165000I-1473200J0D01*
G01*
X46355000Y45643800D02*
X46355000Y45643800D01*
X46355000Y47066200D02*
X46355000Y47066200D01*
X46355000Y45643800D02*
G75*
G03X46355000Y47066200I0J711200D01*
G01*
X46355000Y47066200D02*
G75*
G03X46355000Y45643800I0J-711200D01*
G01*
X46355000Y43103800D02*
X46355000Y43103800D01*
X46355000Y44526200D02*
X46355000Y44526200D01*
X46355000Y43103800D02*
G75*
G03X46355000Y44526200I0J711200D01*
G01*
X46355000Y44526200D02*
G75*
G03X46355000Y43103800I0J-711200D01*
G01*
X46355000Y40563800D02*
X46355000Y40563800D01*
X46355000Y41986200D02*
X46355000Y41986200D01*
X46355000Y40563800D02*
G75*
G03X46355000Y41986200I0J711200D01*
G01*
X46355000Y41986200D02*
G75*
G03X46355000Y40563800I0J-711200D01*
G01*
X46355000Y38023800D02*
X46355000Y38023800D01*
X46355000Y39446200D02*
X46355000Y39446200D01*
X46355000Y38023800D02*
G75*
G03X46355000Y39446200I0J711200D01*
G01*
X46355000Y39446200D02*
G75*
G03X46355000Y38023800I0J-711200D01*
G01*
X46355000Y35483800D02*
X46355000Y35483800D01*
X46355000Y36906200D02*
X46355000Y36906200D01*
X46355000Y35483800D02*
G75*
G03X46355000Y36906200I0J711200D01*
G01*
X46355000Y36906200D02*
G75*
G03X46355000Y35483800I0J-711200D01*
G01*
X46355000Y32943800D02*
X46355000Y32943800D01*
X46355000Y34366200D02*
X46355000Y34366200D01*
X46355000Y32943800D02*
G75*
G03X46355000Y34366200I0J711200D01*
G01*
X46355000Y34366200D02*
G75*
G03X46355000Y32943800I0J-711200D01*
G01*
X46355000Y30403800D02*
X46355000Y30403800D01*
X46355000Y31826200D02*
X46355000Y31826200D01*
X46355000Y30403800D02*
G75*
G03X46355000Y31826200I0J711200D01*
G01*
X46355000Y31826200D02*
G75*
G03X46355000Y30403800I0J-711200D01*
G01*
X46355000Y27863800D02*
X46355000Y27863800D01*
X46355000Y29286200D02*
X46355000Y29286200D01*
X46355000Y27863800D02*
G75*
G03X46355000Y29286200I0J711200D01*
G01*
X46355000Y29286200D02*
G75*
G03X46355000Y27863800I0J-711200D01*
G01*
X46355000Y25323800D02*
X46355000Y25323800D01*
X46355000Y26746200D02*
X46355000Y26746200D01*
X46355000Y25323800D02*
G75*
G03X46355000Y26746200I0J711200D01*
G01*
X46355000Y26746200D02*
G75*
G03X46355000Y25323800I0J-711200D01*
G01*
X46355000Y22783800D02*
X46355000Y22783800D01*
X46355000Y24206200D02*
X46355000Y24206200D01*
X46355000Y22783800D02*
G75*
G03X46355000Y24206200I0J711200D01*
G01*
X46355000Y24206200D02*
G75*
G03X46355000Y22783800I0J-711200D01*
G01*
X46355000Y20243800D02*
X46355000Y20243800D01*
X46355000Y21666200D02*
X46355000Y21666200D01*
X46355000Y20243800D02*
G75*
G03X46355000Y21666200I0J711200D01*
G01*
X46355000Y21666200D02*
G75*
G03X46355000Y20243800I0J-711200D01*
G01*
X46355000Y17703800D02*
X46355000Y17703800D01*
X46355000Y19126200D02*
X46355000Y19126200D01*
X46355000Y17703800D02*
G75*
G03X46355000Y19126200I0J711200D01*
G01*
X46355000Y19126200D02*
G75*
G03X46355000Y17703800I0J-711200D01*
G01*
X31115000Y17703800D02*
X31115000Y17703800D01*
X31115000Y19126200D02*
X31115000Y19126200D01*
X31115000Y17703800D02*
G75*
G03X31115000Y19126200I0J711200D01*
G01*
X31115000Y19126200D02*
G75*
G03X31115000Y17703800I0J-711200D01*
G01*
X31115000Y20243800D02*
X31115000Y20243800D01*
X31115000Y21666200D02*
X31115000Y21666200D01*
X31115000Y20243800D02*
G75*
G03X31115000Y21666200I0J711200D01*
G01*
X31115000Y21666200D02*
G75*
G03X31115000Y20243800I0J-711200D01*
G01*
X31115000Y22783800D02*
X31115000Y22783800D01*
X31115000Y24206200D02*
X31115000Y24206200D01*
X31115000Y22783800D02*
G75*
G03X31115000Y24206200I0J711200D01*
G01*
X31115000Y24206200D02*
G75*
G03X31115000Y22783800I0J-711200D01*
G01*
X31115000Y25323800D02*
X31115000Y25323800D01*
X31115000Y26746200D02*
X31115000Y26746200D01*
X31115000Y25323800D02*
G75*
G03X31115000Y26746200I0J711200D01*
G01*
X31115000Y26746200D02*
G75*
G03X31115000Y25323800I0J-711200D01*
G01*
X31115000Y27863800D02*
X31115000Y27863800D01*
X31115000Y29286200D02*
X31115000Y29286200D01*
X31115000Y27863800D02*
G75*
G03X31115000Y29286200I0J711200D01*
G01*
X31115000Y29286200D02*
G75*
G03X31115000Y27863800I0J-711200D01*
G01*
X31115000Y30403800D02*
X31115000Y30403800D01*
X31115000Y31826200D02*
X31115000Y31826200D01*
X31115000Y30403800D02*
G75*
G03X31115000Y31826200I0J711200D01*
G01*
X31115000Y31826200D02*
G75*
G03X31115000Y30403800I0J-711200D01*
G01*
X31115000Y32943800D02*
X31115000Y32943800D01*
X31115000Y34366200D02*
X31115000Y34366200D01*
X31115000Y32943800D02*
G75*
G03X31115000Y34366200I0J711200D01*
G01*
X31115000Y34366200D02*
G75*
G03X31115000Y32943800I0J-711200D01*
G01*
X31115000Y35483800D02*
X31115000Y35483800D01*
X31115000Y36906200D02*
X31115000Y36906200D01*
X31115000Y35483800D02*
G75*
G03X31115000Y36906200I0J711200D01*
G01*
X31115000Y36906200D02*
G75*
G03X31115000Y35483800I0J-711200D01*
G01*
X31115000Y38023800D02*
X31115000Y38023800D01*
X31115000Y39446200D02*
X31115000Y39446200D01*
X31115000Y38023800D02*
G75*
G03X31115000Y39446200I0J711200D01*
G01*
X31115000Y39446200D02*
G75*
G03X31115000Y38023800I0J-711200D01*
G01*
X31115000Y40563800D02*
X31115000Y40563800D01*
X31115000Y41986200D02*
X31115000Y41986200D01*
X31115000Y40563800D02*
G75*
G03X31115000Y41986200I0J711200D01*
G01*
X31115000Y41986200D02*
G75*
G03X31115000Y40563800I0J-711200D01*
G01*
D11*
X69837904Y18336381D02*
X69837904Y17513905D01*
X69789523Y17417143D01*
X69741142Y17368762D01*
X69644380Y17320381D01*
X69450857Y17320381D01*
X69354095Y17368762D01*
X69305714Y17417143D01*
X69257333Y17513905D01*
X69257333Y18336381D01*
X68241333Y17320381D02*
X68821904Y17320381D01*
X68531618Y17320381D02*
X68531618Y18336381D01*
X68628380Y18191238D01*
X68725142Y18094476D01*
X68821904Y18046095D01*
X67612380Y18336381D02*
X67515619Y18336381D01*
X67418857Y18288000D01*
X67370476Y18239619D01*
X67322095Y18142857D01*
X67273714Y17949333D01*
X67273714Y17707429D01*
X67322095Y17513905D01*
X67370476Y17417143D01*
X67418857Y17368762D01*
X67515619Y17320381D01*
X67612380Y17320381D01*
X67709142Y17368762D01*
X67757523Y17417143D01*
X67805904Y17513905D01*
X67854285Y17707429D01*
X67854285Y17949333D01*
X67805904Y18142857D01*
X67757523Y18239619D01*
X67709142Y18288000D01*
X67612380Y18336381D01*
X64159190Y17320381D02*
X64159190Y18336381D01*
X63772143Y18336381D01*
X63675381Y18288000D01*
X63627000Y18239619D01*
X63578619Y18142857D01*
X63578619Y17997714D01*
X63627000Y17900952D01*
X63675381Y17852571D01*
X63772143Y17804190D01*
X64159190Y17804190D01*
X63143190Y17320381D02*
X63143190Y17997714D01*
X63143190Y17804190D02*
X63094809Y17900952D01*
X63046428Y17949333D01*
X62949666Y17997714D01*
X62852905Y17997714D01*
X62369095Y17320381D02*
X62465857Y17368762D01*
X62514238Y17417143D01*
X62562619Y17513905D01*
X62562619Y17804190D01*
X62514238Y17900952D01*
X62465857Y17949333D01*
X62369095Y17997714D01*
X62223953Y17997714D01*
X62127191Y17949333D01*
X62078810Y17900952D01*
X62030429Y17804190D01*
X62030429Y17513905D01*
X62078810Y17417143D01*
X62127191Y17368762D01*
X62223953Y17320381D01*
X62369095Y17320381D01*
X61595000Y17320381D02*
X61595000Y18336381D01*
X61256334Y17610667D01*
X60917667Y18336381D01*
X60917667Y17320381D01*
X60433857Y17320381D02*
X60433857Y17997714D01*
X60433857Y18336381D02*
X60482238Y18288000D01*
X60433857Y18239619D01*
X60385476Y18288000D01*
X60433857Y18336381D01*
X60433857Y18239619D01*
X59950047Y17997714D02*
X59950047Y17320381D01*
X59950047Y17900952D02*
X59901666Y17949333D01*
X59804904Y17997714D01*
X59659762Y17997714D01*
X59563000Y17949333D01*
X59514619Y17852571D01*
X59514619Y17320381D01*
X59030809Y17320381D02*
X59030809Y17997714D01*
X59030809Y18336381D02*
X59079190Y18288000D01*
X59030809Y18239619D01*
X58982428Y18288000D01*
X59030809Y18336381D01*
X59030809Y18239619D01*
X83434095Y44038762D02*
X83288952Y43990381D01*
X83047048Y43990381D01*
X82950286Y44038762D01*
X82901905Y44087143D01*
X82853524Y44183905D01*
X82853524Y44280667D01*
X82901905Y44377429D01*
X82950286Y44425810D01*
X83047048Y44474190D01*
X83240571Y44522571D01*
X83337333Y44570952D01*
X83385714Y44619333D01*
X83434095Y44716095D01*
X83434095Y44812857D01*
X83385714Y44909619D01*
X83337333Y44958000D01*
X83240571Y45006381D01*
X82998667Y45006381D01*
X82853524Y44958000D01*
X82466476Y44909619D02*
X82418095Y44958000D01*
X82321333Y45006381D01*
X82079429Y45006381D01*
X81982667Y44958000D01*
X81934286Y44909619D01*
X81885905Y44812857D01*
X81885905Y44716095D01*
X81934286Y44570952D01*
X82514857Y43990381D01*
X81885905Y43990381D01*
X80524047Y45006381D02*
X80330524Y45006381D01*
X80233762Y44958000D01*
X80137000Y44861238D01*
X80088619Y44667714D01*
X80088619Y44329048D01*
X80137000Y44135524D01*
X80233762Y44038762D01*
X80330524Y43990381D01*
X80524047Y43990381D01*
X80620809Y44038762D01*
X80717571Y44135524D01*
X80765952Y44329048D01*
X80765952Y44667714D01*
X80717571Y44861238D01*
X80620809Y44958000D01*
X80524047Y45006381D01*
X79653190Y43990381D02*
X79653190Y45006381D01*
X79072619Y43990381D01*
X79072619Y45006381D01*
X78830714Y43893619D02*
X78056619Y43893619D01*
X77621190Y45006381D02*
X77427667Y45006381D01*
X77330905Y44958000D01*
X77234143Y44861238D01*
X77185762Y44667714D01*
X77185762Y44329048D01*
X77234143Y44135524D01*
X77330905Y44038762D01*
X77427667Y43990381D01*
X77621190Y43990381D01*
X77717952Y44038762D01*
X77814714Y44135524D01*
X77863095Y44329048D01*
X77863095Y44667714D01*
X77814714Y44861238D01*
X77717952Y44958000D01*
X77621190Y45006381D01*
X76411667Y44522571D02*
X76750333Y44522571D01*
X76750333Y43990381D02*
X76750333Y45006381D01*
X76266524Y45006381D01*
X75540810Y44522571D02*
X75879476Y44522571D01*
X75879476Y43990381D02*
X75879476Y45006381D01*
X75395667Y45006381D01*
X46494095Y11986381D02*
X46494095Y11163905D01*
X46445714Y11067143D01*
X46397333Y11018762D01*
X46300571Y10970381D01*
X46107048Y10970381D01*
X46010286Y11018762D01*
X45961905Y11067143D01*
X45913524Y11163905D01*
X45913524Y11986381D01*
X45526476Y11986381D02*
X44849143Y11986381D01*
X45284571Y10970381D01*
X42653856Y11502571D02*
X42315190Y11502571D01*
X42170047Y10970381D02*
X42653856Y10970381D01*
X42653856Y11986381D01*
X42170047Y11986381D01*
X41831380Y11986381D02*
X41154047Y11986381D01*
X41831380Y10970381D01*
X41154047Y10970381D01*
X40766999Y10970381D02*
X40766999Y11986381D01*
X40766999Y11599333D02*
X40670237Y11647714D01*
X40476714Y11647714D01*
X40379952Y11599333D01*
X40331571Y11550952D01*
X40283190Y11454190D01*
X40283190Y11163905D01*
X40331571Y11067143D01*
X40379952Y11018762D01*
X40476714Y10970381D01*
X40670237Y10970381D01*
X40766999Y11018762D01*
X39702618Y10970381D02*
X39799380Y11018762D01*
X39847761Y11115524D01*
X39847761Y11986381D01*
X38880143Y11647714D02*
X38880143Y10970381D01*
X39315571Y11647714D02*
X39315571Y11115524D01*
X39267190Y11018762D01*
X39170428Y10970381D01*
X39025286Y10970381D01*
X38928524Y11018762D01*
X38880143Y11067143D01*
X38009286Y11018762D02*
X38106048Y10970381D01*
X38299571Y10970381D01*
X38396333Y11018762D01*
X38444714Y11115524D01*
X38444714Y11502571D01*
X38396333Y11599333D01*
X38299571Y11647714D01*
X38106048Y11647714D01*
X38009286Y11599333D01*
X37960905Y11502571D01*
X37960905Y11405810D01*
X38444714Y11309048D01*
X37670619Y11647714D02*
X37283571Y11647714D01*
X37525476Y10970381D02*
X37525476Y11841238D01*
X37477095Y11938000D01*
X37380333Y11986381D01*
X37283571Y11986381D01*
X36944905Y10970381D02*
X36944905Y11647714D01*
X36944905Y11454190D02*
X36896524Y11550952D01*
X36848143Y11599333D01*
X36751381Y11647714D01*
X36654620Y11647714D01*
X35880525Y11647714D02*
X35880525Y10970381D01*
X36315953Y11647714D02*
X36315953Y11115524D01*
X36267572Y11018762D01*
X36170810Y10970381D01*
X36025668Y10970381D01*
X35928906Y11018762D01*
X35880525Y11067143D01*
X35396715Y10970381D02*
X35396715Y11647714D01*
X35396715Y11986381D02*
X35445096Y11938000D01*
X35396715Y11889619D01*
X35348334Y11938000D01*
X35396715Y11986381D01*
X35396715Y11889619D01*
X35058048Y11647714D02*
X34671000Y11647714D01*
X34912905Y11986381D02*
X34912905Y11115524D01*
X34864524Y11018762D01*
X34767762Y10970381D01*
X34671000Y10970381D01*
%LPC*%
D13*
X69215000Y50800000D03*
X69215000Y48260000D03*
X69215000Y45720000D03*
X69215000Y43180000D03*
X69215000Y40640000D03*
X69215000Y38100000D03*
X69215000Y35560000D03*
X69215000Y33020000D03*
X69215000Y30480000D03*
X69215000Y27940000D03*
X69215000Y25400000D03*
X69215000Y22860000D03*
D14*
X67945000Y20320000D03*
X65405000Y20320000D03*
X62865000Y20320000D03*
X60325000Y20320000D03*
X57785000Y20320000D03*
X55245000Y20320000D03*
D13*
X53975000Y22860001D03*
X53975000Y25400000D03*
X53975000Y27940000D03*
X53975000Y30480000D03*
X53975000Y33020000D03*
X53975000Y35560000D03*
X53975000Y38100000D03*
X53975000Y40640000D03*
X53975000Y43180000D03*
X53975000Y45720000D03*
X53975000Y48260000D03*
X53975000Y50800000D03*
D15*
X66675000Y50800000D03*
X66675000Y48260000D03*
X66675000Y45720000D03*
X66675000Y43180000D03*
X66675000Y40640000D03*
X66675000Y38100000D03*
X66675000Y35560000D03*
X66675000Y33020000D03*
X66675000Y30480000D03*
X66675000Y27940000D03*
X66675000Y25400000D03*
X71755000Y22860000D03*
X70485000Y20320000D03*
X65405000Y22860000D03*
X62865000Y22860000D03*
X60325000Y22860000D03*
X57785000Y22860000D03*
X52705000Y20320000D03*
X51435000Y22860000D03*
X56515000Y25400000D03*
X56515000Y27940000D03*
X56515000Y30480000D03*
X56515000Y33020000D03*
X56515000Y35560000D03*
X56515000Y38100000D03*
X56515000Y40640000D03*
X56515000Y43180000D03*
X56515000Y45720000D03*
D16*
X56515000Y48260000D03*
X56515000Y50800000D03*
D17*
X116205000Y20320000D03*
X118745000Y20320000D03*
X131445000Y33020000D03*
X131445000Y35560000D03*
X116205000Y46990000D03*
X118745000Y46990000D03*
X79375000Y26035000D03*
X79375000Y28575000D03*
X4445000Y33020000D03*
X4445000Y35560000D03*
X19685000Y20955000D03*
X17145000Y20955000D03*
X19685000Y46990000D03*
X17145000Y46990000D03*
D18*
X122555000Y23495000D03*
X112395000Y23495000D03*
X128270000Y39370000D03*
X128270000Y29210000D03*
X122555000Y43815000D03*
X112395000Y43815000D03*
X82550000Y36195000D03*
X82550000Y26035000D03*
X7620000Y39370000D03*
X7620000Y29210000D03*
X13335000Y24130000D03*
X23495000Y24130000D03*
X13335000Y43815000D03*
X23495000Y43815000D03*
D19*
X117475000Y26790000D03*
X114975000Y26790000D03*
X119975000Y26790000D03*
X114975000Y41290000D03*
X119975000Y41290000D03*
D20*
X124175000Y34290000D03*
X110775000Y34290000D03*
D19*
X18415000Y26790000D03*
X15915000Y26790000D03*
X20915000Y26790000D03*
X15915000Y41290000D03*
X20915000Y41290000D03*
D20*
X25115000Y34290000D03*
X11715000Y34290000D03*
D21*
X75455000Y48895000D03*
X80755000Y48895000D03*
D22*
X81915000Y22860000D03*
D23*
X79375000Y22860000D03*
D13*
X48895000Y46355000D03*
X48895000Y43815000D03*
X48895000Y41275000D03*
X48895000Y38735000D03*
X48895000Y36195000D03*
X48895000Y33655000D03*
X48895000Y31115000D03*
X48895000Y28575000D03*
X48895000Y26035000D03*
X48895000Y23495000D03*
X48895000Y20955000D03*
X48895000Y18415000D03*
D14*
X45085000Y13970000D03*
X42545000Y13970000D03*
X40005000Y13970000D03*
X37465000Y13970000D03*
X34925000Y13970000D03*
X32385000Y13970000D03*
D13*
X28575000Y18415000D03*
X28575000Y20955000D03*
X28575000Y23495000D03*
X28575000Y26035000D03*
X28575000Y28575000D03*
X28575000Y31115000D03*
X28575000Y33655000D03*
X28575000Y36195000D03*
X28575000Y38735000D03*
X28575000Y41275000D03*
X28575000Y43815000D03*
X28575000Y46355000D03*
D24*
X48260000Y14605000D03*
X29210000Y14605000D03*
X29210000Y50165000D03*
X48260000Y50165000D03*
D15*
X46355000Y46355000D03*
X46355000Y43815000D03*
X46355000Y41275000D03*
X46355000Y38735000D03*
X46355000Y36195000D03*
X46355000Y33655000D03*
X46355000Y31115000D03*
X46355000Y28575000D03*
X46355000Y26035000D03*
X46355000Y23495000D03*
X46355000Y20955000D03*
X46355000Y18415000D03*
X31115000Y18415000D03*
X31115000Y20955000D03*
X31115000Y23495000D03*
X31115000Y26035000D03*
X31115000Y28575000D03*
X31115000Y31115000D03*
X31115000Y33655000D03*
X31115000Y36195000D03*
X31115000Y38735000D03*
X31115000Y41275000D03*
D16*
X31115000Y43815000D03*
X31115000Y46355000D03*
D24*
X48260000Y3810000D03*
X30480000Y3810000D03*
X113665000Y13970000D03*
X22225000Y13970000D03*
D25*
X42545000Y45720000D03*
X42545000Y43180000D03*
X42545000Y40640000D03*
X42545000Y38100000D03*
X42545000Y35560000D03*
D26*
X42545000Y33020000D03*
D25*
X42545000Y30480000D03*
X42545000Y27940000D03*
X42545000Y25400000D03*
X42545000Y22860000D03*
D24*
X42545000Y19685000D03*
X93345000Y19685000D03*
X93345000Y48895000D03*
X42545000Y48895000D03*
D13*
X106680000Y7620000D03*
X106680000Y10160000D03*
X106680000Y12700000D03*
X106680000Y15240000D03*
X106680000Y17780000D03*
X106680000Y20320000D03*
X106680000Y22860000D03*
X106680000Y25400000D03*
X106680000Y27940000D03*
X106680000Y30480000D03*
X106680000Y33020000D03*
X106680000Y35560000D03*
X86360000Y45720000D03*
X86360000Y43180000D03*
X86360000Y40640000D03*
X86360000Y38100000D03*
X86360000Y35560000D03*
X86360000Y33020000D03*
X86360000Y30480000D03*
X86360000Y27940000D03*
X86360000Y25400000D03*
X86360000Y22860000D03*
X86360000Y20320000D03*
X86360000Y17780000D03*
X86360000Y15240000D03*
X86360000Y12700000D03*
X86360000Y10160000D03*
X86360000Y7620000D03*
D24*
X105410000Y49530000D03*
X87630000Y49530000D03*
D19*
X104140000Y7620000D03*
X104140000Y10160000D03*
X104140000Y12700000D03*
X104140000Y15240000D03*
X104140000Y17780000D03*
X104140000Y20320000D03*
X104140000Y22860000D03*
X104140000Y25400000D03*
X104140000Y27940000D03*
X104140000Y30480000D03*
X104140000Y33020000D03*
X104140000Y35560000D03*
X88900000Y45720000D03*
X88900000Y43180000D03*
X88900000Y40640000D03*
X88900000Y38100000D03*
X88900000Y35560000D03*
X88900000Y33020000D03*
X88900000Y30480000D03*
X88900000Y27940000D03*
X88900000Y25400000D03*
X88900000Y22860000D03*
X88900000Y20320000D03*
X88900000Y17780000D03*
X88900000Y15240000D03*
X88900000Y12700000D03*
X88900000Y10160000D03*
X88900000Y7620000D03*
D24*
X105410000Y3810000D03*
X87630000Y3810000D03*
M02*
