G04 #@! TF.FileFunction,Copper,L1,Top,Signal*
%FSLAX46Y46*%
G04 Gerber Fmt 4.6, Leading zero omitted, Abs format (unit mm)*
G04 Created by KiCad (PCBNEW 4.0.1-3.201512221402+6198~38~ubuntu15.04.1-stable) date Fri Feb  5 12:20:29 2016*
%MOMM*%
G01*
G04 APERTURE LIST*
%ADD10C,0.101600*%
%ADD11C,0.152400*%
%ADD12O,2.032000X1.524000*%
%ADD13O,1.524000X2.032000*%
%ADD14O,1.524000X1.524000*%
%ADD15O,1.397000X1.397000*%
%ADD16R,2.032000X2.032000*%
%ADD17O,2.032000X2.032000*%
%ADD18C,1.501140*%
%ADD19C,1.998980*%
%ADD20C,1.524000*%
%ADD21C,3.700000*%
%ADD22O,2.413000X1.397000*%
%ADD23O,2.032000X1.397000*%
%ADD24C,2.000000*%
%ADD25C,0.762000*%
%ADD26C,0.254000*%
%ADD27C,0.762000*%
%ADD28C,0.508000*%
G04 APERTURE END LIST*
D10*
D11*
X1666666Y0D02*
G75*
G03X1666666Y0I-1666666J0D01*
G01*
X-2500000Y0D02*
X2500000Y0D01*
X0Y2500000D02*
X0Y-2500000D01*
X115570000Y52070000D02*
X117475000Y52070000D01*
X115570000Y52070000D02*
G75*
G03X114300000Y50800000I0J-1270000D01*
G01*
X107950000Y50800000D02*
G75*
G03X106680000Y52070000I-1270000J0D01*
G01*
X113030000Y45720000D02*
G75*
G03X114300000Y46990000I0J1270000D01*
G01*
X107950000Y46990000D02*
G75*
G03X109220000Y45720000I1270000J0D01*
G01*
X109220000Y45720000D02*
X113030000Y45720000D01*
X114300000Y46990000D02*
X114300000Y50800000D01*
X107950000Y50800000D02*
X107950000Y46990000D01*
X85090000Y0D02*
X106045000Y0D01*
X50800000Y0D02*
X29845000Y0D01*
X85090000Y0D02*
G75*
G03X67945000Y17145000I-17145000J0D01*
G01*
X67945000Y17145000D02*
G75*
G03X50800000Y0I0J-17145000D01*
G01*
X29845000Y0D02*
X5842000Y21717000D01*
X5842641Y21717641D02*
G75*
G02X18415000Y52070000I12572359J12572359D01*
G01*
X18415000Y52070000D02*
X106680000Y52070000D01*
X106045000Y0D02*
X130048000Y21717000D01*
X130047359Y21717641D02*
G75*
G03X117475000Y52070000I-12572359J12572359D01*
G01*
D12*
X69215000Y50800000D03*
X69215000Y48260000D03*
X69215000Y45720000D03*
X69215000Y43180000D03*
X69215000Y40640000D03*
X69215000Y38100000D03*
X69215000Y35560000D03*
X69215000Y33020000D03*
X69215000Y30480000D03*
X69215000Y27940000D03*
X69215000Y25400000D03*
X69215000Y22860000D03*
D13*
X67945000Y20320000D03*
X65405000Y20320000D03*
X62865000Y20320000D03*
X60325000Y20320000D03*
X57785000Y20320000D03*
X55245000Y20320000D03*
D12*
X53975000Y22860001D03*
X53975000Y25400000D03*
X53975000Y27940000D03*
X53975000Y30480000D03*
X53975000Y33020000D03*
X53975000Y35560000D03*
X53975000Y38100000D03*
X53975000Y40640000D03*
X53975000Y43180000D03*
X53975000Y45720000D03*
X53975000Y48260000D03*
X53975000Y50800000D03*
D14*
X66675000Y50800000D03*
X66675000Y48260000D03*
X66675000Y45720000D03*
X66675000Y43180000D03*
X66675000Y40640000D03*
X66675000Y38100000D03*
X66675000Y35560000D03*
X66675000Y33020000D03*
X66675000Y30480000D03*
X66675000Y27940000D03*
X66675000Y25400000D03*
X71755000Y22860000D03*
X70485000Y20320000D03*
X65405000Y22860000D03*
X62865000Y22860000D03*
X60325000Y22860000D03*
X57785000Y22860000D03*
X52705000Y20320000D03*
X51435000Y22860000D03*
X56515000Y25400000D03*
X56515000Y27940000D03*
X56515000Y30480000D03*
X56515000Y33020000D03*
X56515000Y35560000D03*
X56515000Y38100000D03*
X56515000Y40640000D03*
X56515000Y43180000D03*
X56515000Y45720000D03*
D15*
X56515000Y48260000D03*
X56515000Y50800000D03*
D12*
X48895000Y46355000D03*
X48895000Y43815000D03*
X48895000Y41275000D03*
X48895000Y38735000D03*
X48895000Y36195000D03*
X48895000Y33655000D03*
X48895000Y31115000D03*
X48895000Y28575000D03*
X48895000Y26035000D03*
X48895000Y23495000D03*
X48895000Y20955000D03*
X48895000Y18415000D03*
D13*
X45085000Y13970000D03*
X42545000Y13970000D03*
X40005000Y13970000D03*
X37465000Y13970000D03*
X34925000Y13970000D03*
X32385000Y13970000D03*
D12*
X28575000Y18415000D03*
X28575000Y20955000D03*
X28575000Y23495000D03*
X28575000Y26035000D03*
X28575000Y28575000D03*
X28575000Y31115000D03*
X28575000Y33655000D03*
X28575000Y36195000D03*
X28575000Y38735000D03*
X28575000Y41275000D03*
X28575000Y43815000D03*
X28575000Y46355000D03*
D14*
X46355000Y46355000D03*
X46355000Y43815000D03*
X46355000Y41275000D03*
X46355000Y38735000D03*
X46355000Y36195000D03*
X46355000Y33655000D03*
X46355000Y31115000D03*
X46355000Y28575000D03*
X46355000Y26035000D03*
X46355000Y23495000D03*
X46355000Y20955000D03*
X46355000Y18415000D03*
X31115000Y18415000D03*
X31115000Y20955000D03*
X31115000Y23495000D03*
X31115000Y26035000D03*
X31115000Y28575000D03*
X31115000Y31115000D03*
X31115000Y33655000D03*
X31115000Y36195000D03*
X31115000Y38735000D03*
X31115000Y41275000D03*
D15*
X31115000Y43815000D03*
X31115000Y46355000D03*
D16*
X81915000Y22860000D03*
D17*
X79375000Y22860000D03*
D18*
X116205000Y20320000D03*
X118745000Y20320000D03*
X131445000Y33020000D03*
X131445000Y35560000D03*
X116205000Y46990000D03*
X118745000Y46990000D03*
X79375000Y26035000D03*
X79375000Y28575000D03*
X4445000Y33020000D03*
X4445000Y35560000D03*
X19685000Y20955000D03*
X17145000Y20955000D03*
X19685000Y46990000D03*
X17145000Y46990000D03*
D19*
X122555000Y23495000D03*
X112395000Y23495000D03*
X128270000Y39370000D03*
X128270000Y29210000D03*
X122555000Y43815000D03*
X112395000Y43815000D03*
X82550000Y36195000D03*
X82550000Y26035000D03*
X7620000Y39370000D03*
X7620000Y29210000D03*
X13335000Y24130000D03*
X23495000Y24130000D03*
X13335000Y43815000D03*
X23495000Y43815000D03*
D20*
X117475000Y26790000D03*
X114975000Y26790000D03*
X119975000Y26790000D03*
X114975000Y41290000D03*
X119975000Y41290000D03*
D21*
X124175000Y34290000D03*
X110775000Y34290000D03*
D20*
X18415000Y26790000D03*
X15915000Y26790000D03*
X20915000Y26790000D03*
X15915000Y41290000D03*
X20915000Y41290000D03*
D21*
X25115000Y34290000D03*
X11715000Y34290000D03*
D22*
X42545000Y45720000D03*
X42545000Y43180000D03*
X42545000Y40640000D03*
X42545000Y38100000D03*
X42545000Y35560000D03*
D23*
X42545000Y33020000D03*
D22*
X42545000Y30480000D03*
X42545000Y27940000D03*
X42545000Y25400000D03*
X42545000Y22860000D03*
D24*
X75455000Y48895000D03*
X80755000Y48895000D03*
D12*
X106680000Y7620000D03*
X106680000Y10160000D03*
X106680000Y12700000D03*
X106680000Y15240000D03*
X106680000Y17780000D03*
X106680000Y20320000D03*
X106680000Y22860000D03*
X106680000Y25400000D03*
X106680000Y27940000D03*
X106680000Y30480000D03*
X106680000Y33020000D03*
X106680000Y35560000D03*
X86360000Y45720000D03*
X86360000Y43180000D03*
X86360000Y40640000D03*
X86360000Y38100000D03*
X86360000Y35560000D03*
X86360000Y33020000D03*
X86360000Y30480000D03*
X86360000Y27940000D03*
X86360000Y25400000D03*
X86360000Y22860000D03*
X86360000Y20320000D03*
X86360000Y17780000D03*
X86360000Y15240000D03*
X86360000Y12700000D03*
X86360000Y10160000D03*
X86360000Y7620000D03*
D20*
X104140000Y7620000D03*
X104140000Y10160000D03*
X104140000Y12700000D03*
X104140000Y15240000D03*
X104140000Y17780000D03*
X104140000Y20320000D03*
X104140000Y22860000D03*
X104140000Y25400000D03*
X104140000Y27940000D03*
X104140000Y30480000D03*
X104140000Y33020000D03*
X104140000Y35560000D03*
X88900000Y45720000D03*
X88900000Y43180000D03*
X88900000Y40640000D03*
X88900000Y38100000D03*
X88900000Y35560000D03*
X88900000Y33020000D03*
X88900000Y30480000D03*
X88900000Y27940000D03*
X88900000Y25400000D03*
X88900000Y22860000D03*
X88900000Y20320000D03*
X88900000Y17780000D03*
X88900000Y15240000D03*
X88900000Y12700000D03*
X88900000Y10160000D03*
X88900000Y7620000D03*
D25*
X50800000Y29210000D03*
X75565000Y22733000D03*
X74295000Y44450038D03*
X74295000Y46990000D03*
X78105000Y44450000D03*
X78104996Y39370000D03*
X108585000Y43180000D03*
X92710006Y34290000D03*
X82550000Y31750000D03*
D26*
X104140000Y25400000D02*
X102235000Y27305000D01*
X102235000Y27305000D02*
X102235000Y40005000D01*
X102235000Y40005000D02*
X101600000Y40640000D01*
X101600000Y40640000D02*
X91440000Y40640000D01*
X91440000Y40640000D02*
X90170000Y41910000D01*
X90170000Y41910000D02*
X82550000Y41910000D01*
X82550000Y41910000D02*
X81280000Y43180000D01*
X81280000Y43180000D02*
X76835000Y43180000D01*
X76835000Y43180000D02*
X73025000Y46990000D01*
X73025000Y46990000D02*
X65405000Y46990000D01*
X65405000Y46990000D02*
X64135000Y45720000D01*
X64135000Y45720000D02*
X59055000Y45720000D01*
X59055000Y45720000D02*
X57785000Y46990000D01*
X57785000Y46990000D02*
X50800000Y46990000D01*
X50800000Y46990000D02*
X50165000Y46355000D01*
X50165000Y46355000D02*
X48895000Y46355000D01*
X48895000Y46355000D02*
X46355000Y46355000D01*
X106680000Y25400000D02*
X104140000Y25400000D01*
X48895000Y43815000D02*
X50165000Y43815000D01*
X50165000Y43815000D02*
X50800000Y44450000D01*
X50800000Y44450000D02*
X57785000Y44450000D01*
X57785000Y44450000D02*
X60325000Y41910000D01*
X60325000Y41910000D02*
X80010000Y41910000D01*
X80010000Y41910000D02*
X82550000Y39370000D01*
X82550000Y39370000D02*
X100965000Y39370000D01*
X100965000Y39370000D02*
X101600000Y38735000D01*
X101600000Y38735000D02*
X101600000Y22860000D01*
X101600000Y22860000D02*
X103378001Y21081999D01*
X103378001Y21081999D02*
X104140000Y20320000D01*
X46355000Y43815000D02*
X48895000Y43815000D01*
X104140000Y20320000D02*
X106680000Y20320000D01*
X104140000Y17780000D02*
X100965000Y20955000D01*
X100965000Y20955000D02*
X100965000Y36195000D01*
X83820000Y38100000D02*
X81280000Y38100000D01*
X81280000Y38100000D02*
X80010000Y36830000D01*
X80010000Y36830000D02*
X62865000Y36830000D01*
X100965000Y36195000D02*
X100330000Y36830000D01*
X100330000Y36830000D02*
X85090000Y36830000D01*
X85090000Y36830000D02*
X83820000Y38100000D01*
X62865000Y36830000D02*
X57785000Y41910000D01*
X57785000Y41910000D02*
X51435000Y41910000D01*
X51435000Y41910000D02*
X50800000Y42545000D01*
X50800000Y42545000D02*
X44958000Y42545000D01*
X44958000Y42545000D02*
X43053000Y40640000D01*
X43053000Y40640000D02*
X42545000Y40640000D01*
X106680000Y17780000D02*
X104140000Y17780000D01*
X42545000Y38100000D02*
X43053000Y38100000D01*
X43053000Y38100000D02*
X44958000Y40005000D01*
X44958000Y40005000D02*
X50165000Y40005000D01*
X50165000Y40005000D02*
X50800000Y39370000D01*
X83185000Y33020000D02*
X84455000Y31750000D01*
X84455000Y31750000D02*
X99695000Y31750000D01*
X99695000Y31750000D02*
X100330000Y31115000D01*
X50800000Y39370000D02*
X57785000Y39370000D01*
X57785000Y39370000D02*
X65405000Y31750000D01*
X65405000Y31750000D02*
X71755000Y31750000D01*
X71755000Y31750000D02*
X73025000Y33020000D01*
X73025000Y33020000D02*
X83185000Y33020000D01*
X100330000Y31115000D02*
X100330000Y19050000D01*
X100330000Y19050000D02*
X103378001Y16001999D01*
X103378001Y16001999D02*
X104140000Y15240000D01*
X104140000Y15240000D02*
X106680000Y15240000D01*
X42545000Y33020000D02*
X42862500Y33020000D01*
X42862500Y33020000D02*
X44767500Y34925000D01*
X82832158Y29210000D02*
X99060000Y29210000D01*
X99060000Y29210000D02*
X99695000Y28575000D01*
X44767500Y34925000D02*
X50165000Y34925000D01*
X50165000Y34925000D02*
X52070000Y36830000D01*
X58420000Y36830000D02*
X66040000Y29210000D01*
X66040000Y29210000D02*
X73025000Y29210000D01*
X52070000Y36830000D02*
X58420000Y36830000D01*
X73025000Y29210000D02*
X73660000Y29845000D01*
X99695000Y28575000D02*
X99695000Y17145000D01*
X73660000Y29845000D02*
X82197158Y29845000D01*
X82197158Y29845000D02*
X82832158Y29210000D01*
X99695000Y17145000D02*
X104140000Y12700000D01*
X106680000Y12700000D02*
X104140000Y12700000D01*
X50800000Y29210000D02*
X57785000Y29210000D01*
X76200000Y26670000D02*
X77470000Y25400000D01*
X57785000Y29210000D02*
X60325000Y26670000D01*
X60325000Y26670000D02*
X76200000Y26670000D01*
X77470000Y25400000D02*
X77470000Y22225000D01*
X77470000Y22225000D02*
X80645000Y19050000D01*
X80645000Y19050000D02*
X89535000Y19050000D01*
X89535000Y19050000D02*
X97155000Y11430000D01*
X97155000Y11430000D02*
X107950000Y11430000D01*
X107950000Y11430000D02*
X108585000Y12065000D01*
X108585000Y12065000D02*
X108585000Y22225000D01*
X108585000Y22225000D02*
X107950000Y22860000D01*
X107950000Y22860000D02*
X106680000Y22860000D01*
X104140000Y22860000D02*
X106680000Y22860000D01*
X107950000Y27940000D02*
X106680000Y27940000D01*
X109220000Y26670000D02*
X107950000Y27940000D01*
X109220000Y9525000D02*
X108585000Y8890000D01*
X109220000Y9525000D02*
X109220000Y26670000D01*
X44640500Y27305000D02*
X44005500Y27940000D01*
X51435000Y27305000D02*
X44640500Y27305000D01*
X76835000Y23495000D02*
X76200000Y24130000D01*
X76835000Y21590000D02*
X76835000Y23495000D01*
X52070000Y26670000D02*
X51435000Y27305000D01*
X97155000Y8890000D02*
X89535000Y16510000D01*
X108585000Y8890000D02*
X97155000Y8890000D01*
X81915000Y16510000D02*
X76835000Y21590000D01*
X76200000Y24130000D02*
X59690000Y24130000D01*
X44005500Y27940000D02*
X42545000Y27940000D01*
X89535000Y16510000D02*
X81915000Y16510000D01*
X59690000Y24130000D02*
X57150000Y26670000D01*
X57150000Y26670000D02*
X52070000Y26670000D01*
X104140000Y27940000D02*
X106680000Y27940000D01*
X86360000Y12700000D02*
X83185000Y12700000D01*
X83185000Y12700000D02*
X77089000Y18796000D01*
X77089000Y18796000D02*
X57150000Y18796000D01*
X56515000Y19431000D02*
X56515000Y22225000D01*
X56515000Y22225000D02*
X55880000Y22860000D01*
X55880000Y22860000D02*
X53975001Y22860000D01*
X57150000Y18796000D02*
X56515000Y19431000D01*
X53975001Y22860000D02*
X53975000Y22860001D01*
X51435000Y22860000D02*
X53974999Y22860000D01*
X53974999Y22860000D02*
X53975000Y22860001D01*
X86360000Y12700000D02*
X88900000Y12700000D01*
X88900000Y10160000D02*
X90170000Y10160000D01*
X90170000Y10160000D02*
X90805000Y10795000D01*
X90805000Y10795000D02*
X90805000Y13335000D01*
X83185000Y13970000D02*
X75565000Y21590000D01*
X75565000Y21590000D02*
X75565000Y22733000D01*
X90805000Y13335000D02*
X90170000Y13970000D01*
X90170000Y13970000D02*
X83185000Y13970000D01*
X53975000Y25400000D02*
X56515000Y25400000D01*
X88900000Y10160000D02*
X89535000Y10160000D01*
X88900000Y10160000D02*
X86360000Y10160000D01*
X35560000Y36830000D02*
X34925000Y37465000D01*
X34925000Y37465000D02*
X24740000Y37465000D01*
X24740000Y37465000D02*
X20915000Y41290000D01*
X53975000Y38100000D02*
X50800000Y38100000D01*
X50800000Y38100000D02*
X50165000Y37465000D01*
X50165000Y37465000D02*
X45085000Y37465000D01*
X45085000Y37465000D02*
X44450000Y36830000D01*
X44450000Y36830000D02*
X35560000Y36830000D01*
X19685000Y46990000D02*
X19685000Y43815000D01*
X19685000Y43815000D02*
X19685000Y42520000D01*
X23495000Y43815000D02*
X19685000Y43815000D01*
X19685000Y42520000D02*
X20915000Y41290000D01*
X56515000Y38100000D02*
X53975000Y38100000D01*
X35560000Y29845000D02*
X23970000Y29845000D01*
X23970000Y29845000D02*
X20915000Y26790000D01*
X56515000Y35560000D02*
X57785000Y35560000D01*
X50800000Y31115000D02*
X50800000Y30480000D01*
X57785000Y35560000D02*
X58420000Y34925000D01*
X58420000Y34925000D02*
X58420000Y32385000D01*
X43815000Y29210000D02*
X36195000Y29210000D01*
X58420000Y32385000D02*
X57785000Y31750000D01*
X36195000Y29210000D02*
X35560000Y29845000D01*
X57785000Y31750000D02*
X51435000Y31750000D01*
X51435000Y31750000D02*
X50800000Y31115000D01*
X50800000Y30480000D02*
X50165000Y29845000D01*
X50165000Y29845000D02*
X44450000Y29845000D01*
X44450000Y29845000D02*
X43815000Y29210000D01*
X20915000Y26790000D02*
X20915000Y24130000D01*
X20915000Y24130000D02*
X20915000Y22185000D01*
X23495000Y24130000D02*
X20915000Y24130000D01*
X20915000Y22185000D02*
X19685000Y20955000D01*
X56515000Y35560000D02*
X53975000Y35560000D01*
X53975000Y33020000D02*
X50800000Y33020000D01*
X50800000Y33020000D02*
X50165000Y32385000D01*
X44450000Y31750000D02*
X36830000Y31750000D01*
X36830000Y31750000D02*
X36195000Y32385000D01*
X16510000Y31115000D02*
X15915000Y30520000D01*
X50165000Y32385000D02*
X45085000Y32385000D01*
X36195000Y32385000D02*
X27305000Y32385000D01*
X15915000Y30520000D02*
X15915000Y26790000D01*
X45085000Y32385000D02*
X44450000Y31750000D01*
X27305000Y32385000D02*
X26035000Y31115000D01*
X26035000Y31115000D02*
X16510000Y31115000D01*
X56515000Y33020000D02*
X53975000Y33020000D01*
X7620000Y29210000D02*
X7620000Y27796508D01*
X7620000Y27796508D02*
X8626508Y26790000D01*
X8626508Y26790000D02*
X15915000Y26790000D01*
X4445000Y33020000D02*
X4445000Y29845000D01*
X4445000Y29845000D02*
X5080000Y29210000D01*
X5080000Y29210000D02*
X7620000Y29210000D01*
X81915000Y22860000D02*
X86360000Y22860000D01*
X82550000Y24765000D02*
X81915000Y24130000D01*
X81915000Y24130000D02*
X81915000Y22860000D01*
X82550000Y26035000D02*
X82550000Y24765000D01*
X79375000Y26035000D02*
X82550000Y26035000D01*
X88900000Y22860000D02*
X86360000Y22860000D01*
X74295000Y44450038D02*
X59054962Y44450038D01*
X59054962Y44450038D02*
X57785000Y45720000D01*
X57785000Y45720000D02*
X56515000Y45720000D01*
X90805000Y46990000D02*
X74295000Y46990000D01*
X112395000Y43815000D02*
X110490000Y43815000D01*
X110490000Y43815000D02*
X109855000Y44450000D01*
X109855000Y44450000D02*
X93345000Y44450000D01*
X93345000Y44450000D02*
X90805000Y46990000D01*
X56515000Y45720000D02*
X53975000Y45720000D01*
X115570000Y43815000D02*
X112395000Y43815000D01*
X116205000Y44450000D02*
X115570000Y43815000D01*
X116205000Y46990000D02*
X116205000Y44450000D01*
X112395000Y43815000D02*
X112395000Y41910000D01*
X113015000Y41290000D02*
X114975000Y41290000D01*
X112395000Y41910000D02*
X113015000Y41290000D01*
X120650000Y29210000D02*
X119975000Y28535000D01*
X119975000Y28535000D02*
X119975000Y26790000D01*
X128270000Y29210000D02*
X120650000Y29210000D01*
X108585000Y43180000D02*
X92710000Y43180000D01*
X92710000Y43180000D02*
X91440000Y44450000D01*
X78643815Y44450000D02*
X78105000Y44450000D01*
X91440000Y44450000D02*
X78643815Y44450000D01*
X78104996Y39370000D02*
X61595000Y39370000D01*
X61595000Y39370000D02*
X57785000Y43180000D01*
X57785000Y43180000D02*
X56515000Y43180000D01*
X56515000Y43180000D02*
X53975000Y43180000D01*
X131445000Y33020000D02*
X128905000Y33020000D01*
X128270000Y32385000D02*
X128270000Y29210000D01*
X128905000Y33020000D02*
X128270000Y32385000D01*
X64135000Y34290000D02*
X90805000Y34290000D01*
X90805000Y34290000D02*
X92710006Y34290000D01*
X57785000Y40640000D02*
X64135000Y34290000D01*
X56515000Y40640000D02*
X57785000Y40640000D01*
X115570000Y23495000D02*
X116205000Y22860000D01*
X116205000Y22860000D02*
X116205000Y20320000D01*
X112395000Y23495000D02*
X115570000Y23495000D01*
X56515000Y40640000D02*
X53975000Y40640000D01*
X114975000Y26790000D02*
X113030000Y26790000D01*
X112395000Y26155000D02*
X113030000Y26790000D01*
X112395000Y23495000D02*
X112395000Y26155000D01*
D27*
X37465000Y16891000D02*
X51816000Y16891000D01*
X108585000Y6286499D02*
X110490000Y8191499D01*
X119380000Y18415000D02*
X122555000Y21590000D01*
X51816000Y16891000D02*
X52705000Y17780000D01*
X52705000Y17780000D02*
X76200000Y17780000D01*
X76200000Y17780000D02*
X84201000Y9779000D01*
X110490000Y17145000D02*
X111760000Y18415000D01*
X84201000Y9779000D02*
X84201000Y7239000D01*
X84201000Y7239000D02*
X85153501Y6286499D01*
X85153501Y6286499D02*
X108585000Y6286499D01*
X111760000Y18415000D02*
X119380000Y18415000D01*
X110490000Y8191499D02*
X110490000Y17145000D01*
X122555000Y21590000D02*
X122555000Y23495000D01*
X133350000Y31115000D02*
X129540000Y27305000D01*
X122555000Y26035000D02*
X123825000Y27305000D01*
X123825000Y27305000D02*
X129540000Y27305000D01*
X122555000Y23495000D02*
X122555000Y26035000D01*
X88900000Y43180000D02*
X90805000Y43180000D01*
X90805000Y43180000D02*
X92075000Y41910000D01*
X92075000Y41910000D02*
X109220000Y41910000D01*
X109220000Y41910000D02*
X110490000Y40640000D01*
X110490000Y40640000D02*
X110490000Y39370000D01*
X110490000Y39370000D02*
X111125000Y38735000D01*
X111125000Y38735000D02*
X121920000Y38735000D01*
X121920000Y38735000D02*
X122555000Y39370000D01*
X128270000Y39370000D02*
X122555000Y39370000D01*
X122555000Y43815000D02*
X122555000Y39370000D01*
X128270000Y39370000D02*
X132080000Y39370000D01*
X132080000Y39370000D02*
X133350000Y38100000D01*
X133350000Y38100000D02*
X133350000Y31115000D01*
D28*
X42545000Y43180000D02*
X43053000Y43180000D01*
D27*
X20320000Y49530000D02*
X15240000Y49530000D01*
X22860000Y49530000D02*
X20320000Y49530000D01*
X20320000Y49530000D02*
X22860000Y49530000D01*
X22860000Y49530000D02*
X27305000Y45085000D01*
X32385000Y45085000D02*
X33655000Y45085000D01*
D28*
X27305000Y45085000D02*
X32385000Y45085000D01*
D27*
X43180000Y43180000D02*
X42545000Y43180000D01*
X69215000Y30480000D02*
X66675000Y30480000D01*
X42545000Y22860000D02*
X38735000Y22860000D01*
X37465000Y21590000D02*
X37465000Y16891000D01*
X38735000Y22860000D02*
X37465000Y21590000D01*
X17399000Y16891000D02*
X13335000Y20955000D01*
X13335000Y20955000D02*
X13335000Y24130000D01*
X37465000Y16891000D02*
X17399000Y16891000D01*
X46355000Y26035000D02*
X45720000Y26035000D01*
X45720000Y26035000D02*
X42545000Y22860000D01*
X48895000Y26035000D02*
X46355000Y26035000D01*
X72390000Y30480000D02*
X73660000Y31750000D01*
X73660000Y31750000D02*
X82550000Y31750000D01*
X69215000Y30480000D02*
X72390000Y30480000D01*
X42545000Y43180000D02*
X35560000Y43180000D01*
X35560000Y43180000D02*
X33655000Y45085000D01*
X13335000Y47625000D02*
X13335000Y43815000D01*
X15240000Y49530000D02*
X13335000Y47625000D01*
X2540000Y29845000D02*
X8255000Y24130000D01*
X8255000Y24130000D02*
X13335000Y24130000D01*
X2540000Y37465000D02*
X2540000Y29845000D01*
X4445000Y39370000D02*
X2540000Y37465000D01*
X7620000Y39370000D02*
X4445000Y39370000D01*
X7620000Y43180000D02*
X8255000Y43815000D01*
X8255000Y43815000D02*
X13335000Y43815000D01*
X7620000Y39370000D02*
X7620000Y43180000D01*
X88900000Y43180000D02*
X86360000Y43180000D01*
D26*
X48895000Y41275000D02*
X46355000Y41275000D01*
X46355000Y38735000D02*
X48895000Y38735000D01*
X48895000Y36195000D02*
X46355000Y36195000D01*
X46355000Y33655000D02*
X48895000Y33655000D01*
X48895000Y31115000D02*
X46355000Y31115000D01*
X46355000Y28575000D02*
X48895000Y28575000D01*
X46355000Y20955000D02*
X48895000Y20955000D01*
X46355000Y18415000D02*
X48895000Y18415000D01*
X28575000Y18415000D02*
X31115000Y18415000D01*
X28575000Y20955000D02*
X31115000Y20955000D01*
X28575000Y23495000D02*
X31115000Y23495000D01*
X28575000Y26035000D02*
X31115000Y26035000D01*
X28575000Y28575000D02*
X31115000Y28575000D01*
X28575000Y31115000D02*
X31115000Y31115000D01*
X28575000Y33655000D02*
X31115000Y33655000D01*
X31115000Y36195000D02*
X28575000Y36195000D01*
X28575000Y38735000D02*
X31115000Y38735000D01*
X31115000Y41275000D02*
X28575000Y41275000D01*
X28575000Y43815000D02*
X31115000Y43815000D01*
X31115000Y46355000D02*
X28575000Y46355000D01*
X106680000Y7620000D02*
X104140000Y7620000D01*
X104140000Y10160000D02*
X106680000Y10160000D01*
X106680000Y30480000D02*
X104140000Y30480000D01*
X106680000Y35560000D02*
X104140000Y35560000D01*
X86360000Y45720000D02*
X88900000Y45720000D01*
X86360000Y40640000D02*
X88900000Y40640000D01*
X88900000Y38100000D02*
X86360000Y38100000D01*
X86360000Y35560000D02*
X88900000Y35560000D01*
X88900000Y33020000D02*
X86360000Y33020000D01*
X86360000Y30480000D02*
X88900000Y30480000D01*
X88900000Y27940000D02*
X86360000Y27940000D01*
X86360000Y25400000D02*
X88900000Y25400000D01*
X86360000Y20320000D02*
X88900000Y20320000D01*
X86360000Y17780000D02*
X88900000Y17780000D01*
X88900000Y15240000D02*
X86360000Y15240000D01*
X66675000Y50800000D02*
X69215000Y50800000D01*
X69215000Y48260000D02*
X66675000Y48260000D01*
X66675000Y45720000D02*
X69215000Y45720000D01*
X69215000Y43180000D02*
X66675000Y43180000D01*
X66675000Y40640000D02*
X69215000Y40640000D01*
X66675000Y38100000D02*
X69215000Y38100000D01*
X69215000Y35560000D02*
X66675000Y35560000D01*
X66675000Y33020000D02*
X69215000Y33020000D01*
X69215000Y27940000D02*
X66675000Y27940000D01*
X71755000Y22860000D02*
X69215000Y22860000D01*
X67945000Y20320000D02*
X70485000Y20320000D01*
X65405000Y22860000D02*
X65405000Y20320000D01*
X62865000Y22860000D02*
X62865000Y20320000D01*
X60325000Y20320000D02*
X60325000Y22860000D01*
X57785000Y22860000D02*
X57785000Y20320000D01*
X55245000Y20320000D02*
X52705000Y20320000D01*
X56515000Y27940000D02*
X53975000Y27940000D01*
X56515000Y30480000D02*
X53975000Y30480000D01*
X53975000Y48260000D02*
X56515000Y48260000D01*
X53975000Y50800000D02*
X56515000Y50800000D01*
X104140000Y33020000D02*
X106680000Y33020000D01*
M02*
