<?xml version="1.0" standalone="no"?>
 <!DOCTYPE svg PUBLIC "-//W3C//DTD SVG 1.1//EN" 
 "http://www.w3.org/Graphics/SVG/1.1/DTD/svg11.dtd"> 
<svg xmlns="http://www.w3.org/2000/svg" version="1.1" 
    width="16.0807cm" height="8.75538cm" viewBox="0 0 63310 34470 ">
<title>SVG Picture created as OTS-brd.svg date 2016/02/15 20:09:01 </title>
  <desc>Picture generated by PCBNEW </desc>
<g style="fill:#000000; fill-opacity:1;stroke:#000000; stroke-opacity:1;
stroke-linecap:round; stroke-linejoin:round; "
 transform="translate(0 0) scale(1 1)">
</g>
<g style="fill:#000000; fill-opacity:0.0; 
stroke:#000000; stroke-width:-0.000393701; stroke-opacity:1; 
stroke-linecap:round; stroke-linejoin:round;">
</g>
<g style="fill:#848484; fill-opacity:0.0; 
stroke:#848484; stroke-width:-0.000393701; stroke-opacity:1; 
stroke-linecap:round; stroke-linejoin:round;">
</g>
<g style="fill:#848484; fill-opacity:0.0; 
stroke:#848484; stroke-width:60; stroke-opacity:1; 
stroke-linecap:round; stroke-linejoin:round;">
<path d="M21250 5390
L27250 5390
" />
<path d="M27250 18390
L21250 18390
" />
</g>
<g style="fill:#848484; fill-opacity:0.0; 
stroke:#848484; stroke-width:59.0551; stroke-opacity:1; 
stroke-linecap:round; stroke-linejoin:round;">
<path d="M27250 18390 A500 500 0.0 0 0 27750 17890 " />
<path d="M20750 17890 A500 500 0.0 0 0 21250 18390 " />
<path d="M21250 5390 A500 500 0.0 0 0 20750 5890 " />
<path d="M27750 5890 A500 500 0.0 0 0 27250 5390 " />
<path d="M20750 17890
L20750 5890
" />
<path d="M27750 5890
L27750 17890
" />
<path d="M11500 20890
L19000 20890
" />
<path d="M10750 6140
L10750 20140
" />
<path d="M19000 5390
L11500 5390
" />
<path d="M19750 20140
L19750 6140
" />
<path d="M19000 20890 A750 750 0.0 0 0 19750 20140 " />
<path d="M10750 20140 A750 750 0.0 0 0 11500 20890 " />
<path d="M11500 5390 A750 750 0.0 0 0 10750 6140 " />
<path d="M19750 6140 A750 750 0.0 0 0 19000 5390 " />
<path d="M31813 4671.5 A2237.18 2237.18 0.0 0 0 29687 4671.5 " />
<path d="M31812 4671
L29687 4671
" />
<path d="M31812 5419
L31812 4671
" />
<path d="M29687 4671
L29687 5419
" />
<path d="M28190 7978
L28190 5419
" />
<path d="M28190 5419
L33309 5419
" />
<path d="M33309 5419
L33309 7978
" />
<path d="M33309 7978
L28190 7978
" />
</g>
<g style="fill:#848484; fill-opacity:0.0; 
stroke:#848484; stroke-width:60; stroke-opacity:1; 
stroke-linecap:round; stroke-linejoin:round;">
<path d="M27495 18670
L27495 18994
L27476 19032
L27457 19051
L27419 19070
L27342 19070
L27304 19051
L27285 19032
L27266 18994
L27266 18670
" />
<path d="M26866 19070
L27095 19070
" />
<path d="M26980 19070
L26980 18670
L27019 18728
L27057 18766
L27095 18785
" />
<path d="M26619 18670
L26580 18670
L26542 18690
L26523 18709
L26504 18747
L26485 18823
L26485 18918
L26504 18994
L26523 19032
L26542 19051
L26580 19070
L26619 19070
L26657 19051
L26676 19032
L26695 18994
L26714 18918
L26714 18823
L26695 18747
L26676 18709
L26657 18690
L26619 18670
" />
<path d="M25259 19070
L25259 18670
L25107 18670
L25069 18690
L25050 18709
L25030 18747
L25030 18804
L25050 18842
L25069 18861
L25107 18880
L25259 18880
" />
<path d="M24859 19070
L24859 18804
" />
<path d="M24859 18880
L24840 18842
L24821 18823
L24783 18804
L24745 18804
" />
<path d="M24554 19070
L24592 19051
L24611 19032
L24630 18994
L24630 18880
L24611 18842
L24592 18823
L24554 18804
L24497 18804
L24459 18823
L24440 18842
L24421 18880
L24421 18994
L24440 19032
L24459 19051
L24497 19070
L24554 19070
" />
<path d="M24250 19070
L24250 18670
L24116 18956
L23983 18670
L23983 19070
" />
<path d="M23792 19070
L23792 18804
" />
<path d="M23792 18670
L23811 18690
L23792 18709
L23773 18690
L23792 18670
L23792 18709
" />
<path d="M23602 18804
L23602 19070
" />
<path d="M23602 18842
L23583 18823
L23545 18804
L23488 18804
L23450 18823
L23430 18861
L23430 19070
" />
<path d="M23240 19070
L23240 18804
" />
<path d="M23240 18670
L23259 18690
L23240 18709
L23221 18690
L23240 18670
L23240 18709
" />
<path d="M18304 21170
L18304 21494
L18285 21532
L18266 21551
L18228 21570
L18152 21570
L18114 21551
L18095 21532
L18076 21494
L18076 21170
" />
<path d="M17923 21170
L17657 21170
L17828 21570
" />
<path d="M16792 21361
L16659 21361
" />
<path d="M16602 21570
L16792 21570
L16792 21170
L16602 21170
" />
<path d="M16469 21170
L16202 21170
L16469 21570
L16202 21570
" />
<path d="M16049 21570
L16049 21170
" />
<path d="M16049 21323
L16011 21304
L15935 21304
L15897 21323
L15878 21342
L15859 21380
L15859 21494
L15878 21532
L15897 21551
L15935 21570
L16011 21570
L16049 21551
" />
<path d="M15630 21570
L15669 21551
L15688 21513
L15688 21170
" />
<path d="M15307 21304
L15307 21570
" />
<path d="M15478 21304
L15478 21513
L15459 21551
L15421 21570
L15364 21570
L15326 21551
L15307 21532
" />
<path d="M14964 21551
L15002 21570
L15078 21570
L15116 21551
L15135 21513
L15135 21361
L15116 21323
L15078 21304
L15002 21304
L14964 21323
L14945 21361
L14945 21399
L15135 21437
" />
<path d="M14830 21304
L14678 21304
" />
<path d="M14773 21570
L14773 21228
L14754 21190
L14716 21170
L14678 21170
" />
<path d="M14545 21570
L14545 21304
" />
<path d="M14545 21380
L14526 21342
L14507 21323
L14469 21304
L14430 21304
" />
<path d="M14126 21304
L14126 21570
" />
<path d="M14297 21304
L14297 21513
L14278 21551
L14240 21570
L14183 21570
L14145 21551
L14126 21532
" />
<path d="M13935 21570
L13935 21304
" />
<path d="M13935 21170
L13954 21190
L13935 21209
L13916 21190
L13935 21170
L13935 21209
" />
<path d="M13802 21304
L13650 21304
" />
<path d="M13745 21170
L13745 21513
L13726 21551
L13688 21570
L13650 21570
" />
<path d="M32848 8551
L32790 8570
L32695 8570
L32657 8551
L32638 8532
L32619 8494
L32619 8456
L32638 8418
L32657 8399
L32695 8380
L32771 8361
L32809 8342
L32829 8323
L32848 8285
L32848 8247
L32829 8209
L32809 8190
L32771 8170
L32676 8170
L32619 8190
" />
<path d="M32467 8209
L32448 8190
L32409 8170
L32314 8170
L32276 8190
L32257 8209
L32238 8247
L32238 8285
L32257 8342
L32486 8570
L32238 8570
" />
<path d="M31702 8170
L31626 8170
L31588 8190
L31550 8228
L31530 8304
L31530 8437
L31550 8513
L31588 8551
L31626 8570
L31702 8570
L31740 8551
L31778 8513
L31797 8437
L31797 8304
L31778 8228
L31740 8190
L31702 8170
" />
<path d="M31359 8570
L31359 8170
L31130 8570
L31130 8170
" />
<path d="M31035 8609
L30730 8609
" />
<path d="M30559 8170
L30483 8170
L30445 8190
L30407 8228
L30388 8304
L30388 8437
L30407 8513
L30445 8551
L30483 8570
L30559 8570
L30597 8551
L30635 8513
L30654 8437
L30654 8304
L30635 8228
L30597 8190
L30559 8170
" />
<path d="M30083 8361
L30216 8361
" />
<path d="M30216 8570
L30216 8170
L30026 8170
" />
<path d="M29740 8361
L29873 8361
" />
<path d="M29873 8570
L29873 8170
L29683 8170
" />
</g>
<g style="fill:#000000; fill-opacity:0.0; 
stroke:#000000; stroke-width:60; stroke-opacity:1; 
stroke-linecap:round; stroke-linejoin:round;">
</g>
<g style="fill:#848484; fill-opacity:0.0; 
stroke:#848484; stroke-width:60; stroke-opacity:1; 
stroke-linecap:round; stroke-linejoin:round;">
</g>
<g style="fill:#848484; fill-opacity:0.0; 
stroke:#848484; stroke-width:100; stroke-opacity:1; 
stroke-linecap:round; stroke-linejoin:round;">
<path d="M12654 22782
L12750 23116
L12845 22878
L12940 23116
L13035 22782
" />
<path d="M13178 22782
L13273 23116
L13369 22878
L13464 23116
L13559 22782
" />
<path d="M13702 22782
L13797 23116
L13892 22878
L13988 23116
L14083 22782
" />
<path d="M14273 23068
L14297 23092
L14273 23116
L14250 23092
L14273 23068
L14273 23116
" />
<path d="M14464 22782
L14559 23116
L14654 22878
L14750 23116
L14845 22782
" />
<path d="M14988 22782
L15107 23116
" />
<path d="M15226 22782
L15107 23116
L15059 23235
L15035 23259
L14988 23282
" />
<path d="M15488 23116
L15440 23092
L15416 23068
L15392 23020
L15392 22878
L15416 22830
L15440 22806
L15488 22782
L15559 22782
L15607 22806
L15630 22830
L15654 22878
L15654 23020
L15630 23068
L15607 23092
L15559 23116
L15488 23116
" />
<path d="M15940 23116
L15892 23092
L15869 23044
L15869 22616
" />
<path d="M16345 22782
L16345 23116
" />
<path d="M16130 22782
L16130 23044
L16154 23092
L16202 23116
L16273 23116
L16321 23092
L16345 23068
" />
<path d="M16583 23116
L16583 22782
" />
<path d="M16583 22830
L16607 22806
L16654 22782
L16726 22782
L16773 22806
L16797 22854
L16797 23116
" />
<path d="M16797 22854
L16821 22806
L16869 22782
L16940 22782
L16988 22806
L17011 22854
L17011 23116
" />
<path d="M17250 23068
L17273 23092
L17250 23116
L17226 23092
L17250 23068
L17250 23116
" />
<path d="M17702 23092
L17654 23116
L17559 23116
L17511 23092
L17488 23068
L17464 23020
L17464 22878
L17488 22830
L17511 22806
L17559 22782
L17654 22782
L17702 22806
" />
<path d="M17988 23116
L17940 23092
L17916 23068
L17892 23020
L17892 22878
L17916 22830
L17940 22806
L17988 22782
L18059 22782
L18107 22806
L18130 22830
L18154 22878
L18154 23020
L18130 23068
L18107 23092
L18059 23116
L17988 23116
" />
<path d="M18369 23116
L18369 22782
" />
<path d="M18369 22830
L18392 22806
L18440 22782
L18511 22782
L18559 22806
L18583 22854
L18583 23116
" />
<path d="M18583 22854
L18607 22806
L18654 22782
L18726 22782
L18773 22806
L18797 22854
L18797 23116
" />
</g>
<g style="fill:#848484; fill-opacity:0.0; 
stroke:#848484; stroke-width:120; stroke-opacity:1; 
stroke-linecap:round; stroke-linejoin:round;">
<path d="M12771 21561
L12971 22161
L13171 21561
" />
<path d="M13600 22132
L13542 22161
L13428 22161
L13371 22132
L13342 22075
L13342 21847
L13371 21790
L13428 21761
L13542 21761
L13600 21790
L13628 21847
L13628 21904
L13342 21961
" />
<path d="M13971 22161
L13914 22132
L13885 22075
L13885 21561
" />
<path d="M14285 22161
L14228 22132
L14200 22104
L14171 22047
L14171 21875
L14200 21818
L14228 21790
L14285 21761
L14371 21761
L14428 21790
L14457 21818
L14485 21875
L14485 22047
L14457 22104
L14428 22132
L14371 22161
L14285 22161
" />
<path d="M14742 22161
L14742 21561
" />
<path d="M15085 22161
L14828 21818
" />
<path d="M15085 21561
L14742 21904
" />
<path d="M15571 22132
L15514 22161
L15400 22161
L15342 22132
L15314 22075
L15314 21847
L15342 21790
L15400 21761
L15514 21761
L15571 21790
L15600 21847
L15600 21904
L15314 21961
" />
<path d="M15800 21761
L15942 22161
" />
<path d="M16085 21761
L15942 22161
L15885 22304
L15857 22332
L15800 22361
" />
<path d="M16171 22218
L16628 22218
" />
<path d="M16885 21561
L17000 21561
L17057 21590
L17114 21647
L17142 21761
L17142 21961
L17114 22075
L17057 22132
L17000 22161
L16885 22161
L16828 22132
L16771 22075
L16742 21961
L16742 21761
L16771 21647
L16828 21590
L16885 21561
" />
<path d="M17314 21561
L17657 21561
" />
<path d="M17485 22161
L17485 21561
" />
<path d="M17828 22132
L17914 22161
L18057 22161
L18114 22132
L18142 22104
L18171 22047
L18171 21990
L18142 21932
L18114 21904
L18057 21875
L17942 21847
L17885 21818
L17857 21790
L17828 21732
L17828 21675
L17857 21618
L17885 21590
L17942 21561
L18085 21561
L18171 21590
" />
</g>
<g style="fill:#848484; fill-opacity:0.0; 
stroke:#848484; stroke-width:59.0551; stroke-opacity:1; 
stroke-linecap:round; stroke-linejoin:round;">
<path d="M45270 17390
L47250 17390
" />
<path d="M47250 17390
L47250 18390
" />
<path d="M47250 18390
L45250 18390
" />
<path d="M45250 18390
L45250 17390
" />
<path d="M45250 17640
L45500 17390
" />
<path d="M51250 13370
L51250 11390
" />
<path d="M51250 11390
L52250 11390
" />
<path d="M52250 11390
L52250 13390
" />
<path d="M52250 13390
L51250 13390
" />
<path d="M51500 13390
L51250 13140
" />
<path d="M45270 6890
L47250 6890
" />
<path d="M47250 6890
L47250 7890
" />
<path d="M47250 7890
L45250 7890
" />
<path d="M45250 7890
L45250 6890
" />
<path d="M45250 7140
L45500 6890
" />
<path d="M30750 16120
L30750 14140
" />
<path d="M30750 14140
L31750 14140
" />
<path d="M31750 14140
L31750 16140
" />
<path d="M31750 16140
L30750 16140
" />
<path d="M31000 16140
L30750 15890
" />
<path d="M1250 13370
L1250 11390
" />
<path d="M1250 11390
L2250 11390
" />
<path d="M2250 11390
L2250 13390
" />
<path d="M2250 13390
L1250 13390
" />
<path d="M1500 13390
L1250 13140
" />
<path d="M8230 18140
L6250 18140
" />
<path d="M6250 18140
L6250 17140
" />
<path d="M6250 17140
L8250 17140
" />
<path d="M8250 17140
L8250 18140
" />
<path d="M8250 17890
L8000 18140
" />
<path d="M8230 7890
L6250 7890
" />
<path d="M6250 7890
L6250 6890
" />
<path d="M6250 6890
L8250 6890
" />
<path d="M8250 6890
L8250 7890
" />
<path d="M8250 7640
L8000 7890
" />
<path d="M47250 17140
L45250 17140
" />
<path d="M45250 17140
L45250 16140
" />
<path d="M45250 16140
L47250 16140
" />
<path d="M47250 16140
L47250 17140
" />
<path d="M47250 16640
L47750 16640
" />
<path d="M45250 16640
L44750 16640
" />
<path d="M51000 11390
L51000 13390
" />
<path d="M51000 13390
L50000 13390
" />
<path d="M50000 13390
L50000 11390
" />
<path d="M50000 11390
L51000 11390
" />
<path d="M50500 11390
L50500 10890
" />
<path d="M50500 13390
L50500 13890
" />
<path d="M47250 9140
L45250 9140
" />
<path d="M45250 9140
L45250 8140
" />
<path d="M45250 8140
L47250 8140
" />
<path d="M47250 8140
L47250 9140
" />
<path d="M47250 8640
L47750 8640
" />
<path d="M45250 8640
L44750 8640
" />
<path d="M33000 12640
L33000 14640
" />
<path d="M33000 14640
L32000 14640
" />
<path d="M32000 14640
L32000 12640
" />
<path d="M32000 12640
L33000 12640
" />
<path d="M32500 12640
L32500 12140
" />
<path d="M32500 14640
L32500 15140
" />
<path d="M3500 11390
L3500 13390
" />
<path d="M3500 13390
L2500 13390
" />
<path d="M2500 13390
L2500 11390
" />
<path d="M2500 11390
L3500 11390
" />
<path d="M3000 11390
L3000 10890
" />
<path d="M3000 13390
L3000 13890
" />
<path d="M6250 15890
L8250 15890
" />
<path d="M8250 15890
L8250 16890
" />
<path d="M8250 16890
L6250 16890
" />
<path d="M6250 16890
L6250 15890
" />
<path d="M6250 16390
L5750 16390
" />
<path d="M8250 16390
L8750 16390
" />
<path d="M6250 8140
L8250 8140
" />
<path d="M8250 8140
L8250 9140
" />
<path d="M8250 9140
L6250 9140
" />
<path d="M6250 9140
L6250 8140
" />
<path d="M6250 8640
L5750 8640
" />
<path d="M8250 8640
L8750 8640
" />
<path d="M31750 17390
L31750 16390
" />
<path d="M32750 17390
L32750 16390
" />
<path d="M32750 16390
L31750 16390
" />
<path d="M31750 16390
L30750 16390
" />
<path d="M30750 16390
L30750 17390
" />
<path d="M30750 17390
L32750 17390
" />
<path d="M37750 18140
L37750 6640
" />
<path d="M16750 19140
L36750 19140
" />
<path d="M15750 6640
L15750 18140
" />
<path d="M36750 5640
L16750 5640
" />
<path d="M15750 18140 A1000 1000 0.0 0 0 16750 19140 " />
<path d="M36750 19140 A1000 1000 0.0 0 0 37750 18140 " />
<path d="M37750 6640 A1000 1000 0.0 0 0 36750 5640 " />
<path d="M16750 5640 A1000 1000 0.0 0 0 15750 6640 " />
<path d="M34500 25390
L41500 25390
" />
<path d="M33500 6390
L33500 24390
" />
<path d="M41500 5390
L34500 5390
" />
<path d="M42500 24390
L42500 6390
" />
<path d="M42500 6390 A1000 1000 0.0 0 0 41500 5390 " />
<path d="M34500 5390 A1000 1000 0.0 0 0 33500 6390 " />
<path d="M33500 24390 A1000 1000 0.0 0 0 34500 25390 " />
<path d="M41500 25390 A1000 1000 0.0 0 0 42500 24390 " />
<path d="M5084 15047
L9415 15047
" />
<path d="M9710 14752
L9710 10027
" />
<path d="M4789 10027
L4789 14752
" />
<path d="M9415 9732
L5084 9732
" />
<path d="M5084.65 9732.52 A295.276 295.276 0.0 0 0 4789.37 10027.8 " />
<path d="M4789.37 14752.2 A295.276 295.276 0.0 0 0 5084.65 15047.5 " />
<path d="M9415.35 15047.5 A295.276 295.276 0.0 0 0 9710.63 14752.2 " />
<path d="M9710.63 10027.8 A295.276 295.276 0.0 0 0 9415.35 9732.52 " />
<path d="M8726 11405
L9710 11405
" />
<path d="M5773 11405
L4789 11405
" />
<path d="M5773 13374
L4789 13374
" />
<path d="M8726 13374
L9710 13374
" />
<path d="M5773.62 13374.3 A1774.39 1774.39 0.0 0 0 8726.38 13374.3 " />
<path d="M8726.38 11405.7 A1774.39 1774.39 0.0 0 0 5773.62 11405.7 " />
<circle cx="7250" cy="12390" r="1377.95" /> 
<circle cx="7250" cy="12390" r="1181.1" /> 
<path d="M44084 15047
L48415 15047
" />
<path d="M48710 14752
L48710 10027
" />
<path d="M43789 10027
L43789 14752
" />
<path d="M48415 9732
L44084 9732
" />
<path d="M44084.6 9732.52 A295.276 295.276 0.0 0 0 43789.4 10027.8 " />
<path d="M43789.4 14752.2 A295.276 295.276 0.0 0 0 44084.6 15047.5 " />
<path d="M48415.4 15047.5 A295.276 295.276 0.0 0 0 48710.6 14752.2 " />
<path d="M48710.6 10027.8 A295.276 295.276 0.0 0 0 48415.4 9732.52 " />
<path d="M47726 11405
L48710 11405
" />
<path d="M44773 11405
L43789 11405
" />
<path d="M44773 13374
L43789 13374
" />
<path d="M47726 13374
L48710 13374
" />
<path d="M44773.6 13374.3 A1774.39 1774.39 0.0 0 0 47726.4 13374.3 " />
<path d="M47726.4 11405.7 A1774.39 1774.39 0.0 0 0 44773.6 11405.7 " />
<circle cx="46250" cy="12390" r="1377.95" /> 
<circle cx="46250" cy="12390" r="1181.1" /> 
</g>
<g style="fill:#848484; fill-opacity:0.0; 
stroke:#848484; stroke-width:60; stroke-opacity:1; 
stroke-linecap:round; stroke-linejoin:round;">
<path d="M47992 18032
L47973 18051
L47916 18070
L47878 18070
L47821 18051
L47783 18013
L47764 17975
L47745 17899
L47745 17842
L47764 17766
L47783 17728
L47821 17690
L47878 17670
L47916 17670
L47973 17690
L47992 17709
" />
<path d="M48126 17670
L48373 17670
L48240 17823
L48297 17823
L48335 17842
L48354 17861
L48373 17899
L48373 17994
L48354 18032
L48335 18051
L48297 18070
L48183 18070
L48145 18051
L48126 18032
" />
<path d="M48735 17670
L48545 17670
L48526 17861
L48545 17842
L48583 17823
L48678 17823
L48716 17842
L48735 17861
L48754 17899
L48754 17994
L48735 18032
L48716 18051
L48678 18070
L48583 18070
L48545 18051
L48526 18032
" />
<path d="M51492 11032
L51473 11051
L51416 11070
L51378 11070
L51321 11051
L51283 11013
L51264 10975
L51245 10899
L51245 10842
L51264 10766
L51283 10728
L51321 10690
L51378 10670
L51416 10670
L51473 10690
L51492 10709
" />
<path d="M51626 10670
L51873 10670
L51740 10823
L51797 10823
L51835 10842
L51854 10861
L51873 10899
L51873 10994
L51854 11032
L51835 11051
L51797 11070
L51683 11070
L51645 11051
L51626 11032
" />
<path d="M52216 10804
L52216 11070
" />
<path d="M52121 10651
L52026 10937
L52273 10937
" />
<path d="M47992 7532
L47973 7551
L47916 7570
L47878 7570
L47821 7551
L47783 7513
L47764 7475
L47745 7399
L47745 7342
L47764 7266
L47783 7228
L47821 7190
L47878 7170
L47916 7170
L47973 7190
L47992 7209
" />
<path d="M48126 7170
L48373 7170
L48240 7323
L48297 7323
L48335 7342
L48354 7361
L48373 7399
L48373 7494
L48354 7532
L48335 7551
L48297 7570
L48183 7570
L48145 7551
L48126 7532
" />
<path d="M48507 7170
L48754 7170
L48621 7323
L48678 7323
L48716 7342
L48735 7361
L48754 7399
L48754 7494
L48735 7532
L48716 7551
L48678 7570
L48564 7570
L48526 7551
L48507 7532
" />
<path d="M30992 13782
L30973 13801
L30916 13820
L30878 13820
L30821 13801
L30783 13763
L30764 13725
L30745 13649
L30745 13592
L30764 13516
L30783 13478
L30821 13440
L30878 13420
L30916 13420
L30973 13440
L30992 13459
" />
<path d="M31126 13420
L31373 13420
L31240 13573
L31297 13573
L31335 13592
L31354 13611
L31373 13649
L31373 13744
L31354 13782
L31335 13801
L31297 13820
L31183 13820
L31145 13801
L31126 13782
" />
<path d="M31526 13459
L31545 13440
L31583 13420
L31678 13420
L31716 13440
L31735 13459
L31754 13497
L31754 13535
L31735 13592
L31507 13820
L31754 13820
" />
<path d="M1492 11282
L1473 11301
L1416 11320
L1378 11320
L1321 11301
L1283 11263
L1264 11225
L1245 11149
L1245 11092
L1264 11016
L1283 10978
L1321 10940
L1378 10920
L1416 10920
L1473 10940
L1492 10959
" />
<path d="M1626 10920
L1873 10920
L1740 11073
L1797 11073
L1835 11092
L1854 11111
L1873 11149
L1873 11244
L1854 11282
L1835 11301
L1797 11320
L1683 11320
L1645 11301
L1626 11282
" />
<path d="M2254 11320
L2026 11320
" />
<path d="M2140 11320
L2140 10920
L2102 10978
L2064 11016
L2026 11035
" />
<path d="M4992 17782
L4973 17801
L4916 17820
L4878 17820
L4821 17801
L4783 17763
L4764 17725
L4745 17649
L4745 17592
L4764 17516
L4783 17478
L4821 17440
L4878 17420
L4916 17420
L4973 17440
L4992 17459
" />
<path d="M5126 17420
L5373 17420
L5240 17573
L5297 17573
L5335 17592
L5354 17611
L5373 17649
L5373 17744
L5354 17782
L5335 17801
L5297 17820
L5183 17820
L5145 17801
L5126 17782
" />
<path d="M5621 17420
L5659 17420
L5697 17440
L5716 17459
L5735 17497
L5754 17573
L5754 17668
L5735 17744
L5716 17782
L5697 17801
L5659 17820
L5621 17820
L5583 17801
L5564 17782
L5545 17744
L5526 17668
L5526 17573
L5545 17497
L5564 17459
L5583 17440
L5621 17420
" />
<path d="M4992 7532
L4973 7551
L4916 7570
L4878 7570
L4821 7551
L4783 7513
L4764 7475
L4745 7399
L4745 7342
L4764 7266
L4783 7228
L4821 7190
L4878 7170
L4916 7170
L4973 7190
L4992 7209
" />
<path d="M5145 7209
L5164 7190
L5202 7170
L5297 7170
L5335 7190
L5354 7209
L5373 7247
L5373 7285
L5354 7342
L5126 7570
L5373 7570
" />
<path d="M5564 7570
L5640 7570
L5678 7551
L5697 7532
L5735 7475
L5754 7399
L5754 7247
L5735 7209
L5716 7190
L5678 7170
L5602 7170
L5564 7190
L5545 7209
L5526 7247
L5526 7342
L5545 7380
L5564 7399
L5602 7418
L5678 7418
L5716 7399
L5735 7380
L5754 7342
" />
<path d="M47992 17570
L47859 17380
" />
<path d="M47764 17570
L47764 17170
L47916 17170
L47954 17190
L47973 17209
L47992 17247
L47992 17304
L47973 17342
L47954 17361
L47916 17380
L47764 17380
" />
<path d="M48145 17209
L48164 17190
L48202 17170
L48297 17170
L48335 17190
L48354 17209
L48373 17247
L48373 17285
L48354 17342
L48126 17570
L48373 17570
" />
<path d="M48507 17170
L48773 17170
L48602 17570
" />
<path d="M51492 10570
L51359 10380
" />
<path d="M51264 10570
L51264 10170
L51416 10170
L51454 10190
L51473 10209
L51492 10247
L51492 10304
L51473 10342
L51454 10361
L51416 10380
L51264 10380
" />
<path d="M51645 10209
L51664 10190
L51702 10170
L51797 10170
L51835 10190
L51854 10209
L51873 10247
L51873 10285
L51854 10342
L51626 10570
L51873 10570
" />
<path d="M52216 10170
L52140 10170
L52102 10190
L52083 10209
L52045 10266
L52026 10342
L52026 10494
L52045 10532
L52064 10551
L52102 10570
L52178 10570
L52216 10551
L52235 10532
L52254 10494
L52254 10399
L52235 10361
L52216 10342
L52178 10323
L52102 10323
L52064 10342
L52045 10361
L52026 10399
" />
<path d="M47992 8070
L47859 7880
" />
<path d="M47764 8070
L47764 7670
L47916 7670
L47954 7690
L47973 7709
L47992 7747
L47992 7804
L47973 7842
L47954 7861
L47916 7880
L47764 7880
" />
<path d="M48145 7709
L48164 7690
L48202 7670
L48297 7670
L48335 7690
L48354 7709
L48373 7747
L48373 7785
L48354 7842
L48126 8070
L48373 8070
" />
<path d="M48735 7670
L48545 7670
L48526 7861
L48545 7842
L48583 7823
L48678 7823
L48716 7842
L48735 7861
L48754 7899
L48754 7994
L48735 8032
L48716 8051
L48678 8070
L48583 8070
L48545 8051
L48526 8032
" />
<path d="M30992 13070
L30859 12880
" />
<path d="M30764 13070
L30764 12670
L30916 12670
L30954 12690
L30973 12709
L30992 12747
L30992 12804
L30973 12842
L30954 12861
L30916 12880
L30764 12880
" />
<path d="M31145 12709
L31164 12690
L31202 12670
L31297 12670
L31335 12690
L31354 12709
L31373 12747
L31373 12785
L31354 12842
L31126 13070
L31373 13070
" />
<path d="M31716 12804
L31716 13070
" />
<path d="M31621 12651
L31526 12937
L31773 12937
" />
<path d="M1492 10570
L1359 10380
" />
<path d="M1264 10570
L1264 10170
L1416 10170
L1454 10190
L1473 10209
L1492 10247
L1492 10304
L1473 10342
L1454 10361
L1416 10380
L1264 10380
" />
<path d="M1645 10209
L1664 10190
L1702 10170
L1797 10170
L1835 10190
L1854 10209
L1873 10247
L1873 10285
L1854 10342
L1626 10570
L1873 10570
" />
<path d="M2007 10170
L2254 10170
L2121 10323
L2178 10323
L2216 10342
L2235 10361
L2254 10399
L2254 10494
L2235 10532
L2216 10551
L2178 10570
L2064 10570
L2026 10551
L2007 10532
" />
<path d="M4992 17320
L4859 17130
" />
<path d="M4764 17320
L4764 16920
L4916 16920
L4954 16940
L4973 16959
L4992 16997
L4992 17054
L4973 17092
L4954 17111
L4916 17130
L4764 17130
" />
<path d="M5145 16959
L5164 16940
L5202 16920
L5297 16920
L5335 16940
L5354 16959
L5373 16997
L5373 17035
L5354 17092
L5126 17320
L5373 17320
" />
<path d="M5526 16959
L5545 16940
L5583 16920
L5678 16920
L5716 16940
L5735 16959
L5754 16997
L5754 17035
L5735 17092
L5507 17320
L5754 17320
" />
<path d="M4992 8070
L4859 7880
" />
<path d="M4764 8070
L4764 7670
L4916 7670
L4954 7690
L4973 7709
L4992 7747
L4992 7804
L4973 7842
L4954 7861
L4916 7880
L4764 7880
" />
<path d="M5145 7709
L5164 7690
L5202 7670
L5297 7670
L5335 7690
L5354 7709
L5373 7747
L5373 7785
L5354 7842
L5126 8070
L5373 8070
" />
<path d="M5754 8070
L5526 8070
" />
<path d="M5640 8070
L5640 7670
L5602 7728
L5564 7766
L5526 7785
" />
<path d="M31264 17970
L31264 17570
L31416 17570
L31454 17590
L31473 17609
L31492 17647
L31492 17704
L31473 17742
L31454 17761
L31416 17780
L31264 17780
" />
<path d="M31835 17704
L31835 17970
" />
<path d="M31740 17551
L31645 17837
L31892 17837
" />
<path d="M32007 17570
L32254 17570
L32121 17723
L32178 17723
L32216 17742
L32235 17761
L32254 17799
L32254 17894
L32235 17932
L32216 17951
L32178 17970
L32064 17970
L32026 17951
L32007 17932
" />
<path d="M15280 14694
L15604 14694
L15642 14675
L15661 14656
L15680 14618
L15680 14542
L15661 14504
L15642 14485
L15604 14466
L15280 14466
" />
<path d="M15452 14218
L15433 14256
L15414 14275
L15376 14294
L15357 14294
L15319 14275
L15300 14256
L15280 14218
L15280 14142
L15300 14104
L15319 14085
L15357 14066
L15376 14066
L15414 14085
L15433 14104
L15452 14142
L15452 14218
L15471 14256
L15490 14275
L15528 14294
L15604 14294
L15642 14275
L15661 14256
L15680 14218
L15680 14142
L15661 14104
L15642 14085
L15604 14066
L15528 14066
L15490 14085
L15471 14104
L15452 14142
" />
<path d="M15680 13294
L15680 13485
L15280 13485
" />
<path d="M15642 12932
L15661 12951
L15680 13009
L15680 13047
L15661 13104
L15623 13142
L15585 13161
L15509 13180
L15452 13180
L15376 13161
L15338 13142
L15300 13104
L15280 13047
L15280 13009
L15300 12951
L15319 12932
" />
<path d="M15680 12761
L15280 12761
L15280 12666
L15300 12609
L15338 12570
L15376 12551
L15452 12532
L15509 12532
L15585 12551
L15623 12570
L15661 12609
L15680 12666
L15680 12761
" />
<path d="M15719 12456
L15719 12151
" />
<path d="M15280 12113
L15280 11885
" />
<path d="M15680 11999
L15280 11999
" />
<path d="M15471 11618
L15471 11751
" />
<path d="M15680 11751
L15280 11751
L15280 11561
" />
<path d="M15280 11466
L15280 11237
" />
<path d="M15680 11351
L15280 11351
" />
<path d="M35445 25420
L35445 25744
L35464 25782
L35483 25801
L35521 25820
L35597 25820
L35635 25801
L35654 25782
L35673 25744
L35673 25420
" />
<path d="M35883 25820
L35959 25820
L35997 25801
L36016 25782
L36054 25725
L36073 25649
L36073 25497
L36054 25459
L36035 25440
L35997 25420
L35921 25420
L35883 25440
L35864 25459
L35845 25497
L35845 25592
L35864 25630
L35883 25649
L35921 25668
L35997 25668
L36035 25649
L36054 25630
L36073 25592
" />
<path d="M36695 25611
L36561 25611
" />
<path d="M36561 25820
L36561 25420
L36752 25420
" />
<path d="M37057 25801
L37019 25820
L36942 25820
L36904 25801
L36885 25763
L36885 25611
L36904 25573
L36942 25554
L37019 25554
L37057 25573
L37076 25611
L37076 25649
L36885 25687
" />
<path d="M37419 25820
L37419 25611
L37400 25573
L37361 25554
L37285 25554
L37247 25573
" />
<path d="M37419 25801
L37380 25820
L37285 25820
L37247 25801
L37228 25763
L37228 25725
L37247 25687
L37285 25668
L37380 25668
L37419 25649
" />
<path d="M37552 25554
L37704 25554
" />
<path d="M37609 25420
L37609 25763
L37628 25801
L37666 25820
L37704 25820
" />
<path d="M37838 25820
L37838 25420
" />
<path d="M38009 25820
L38009 25611
L37990 25573
L37952 25554
L37895 25554
L37857 25573
L37838 25592
" />
<path d="M38352 25801
L38314 25820
L38238 25820
L38200 25801
L38180 25763
L38180 25611
L38200 25573
L38238 25554
L38314 25554
L38352 25573
L38371 25611
L38371 25649
L38180 25687
" />
<path d="M38542 25820
L38542 25554
" />
<path d="M38542 25630
L38561 25592
L38580 25573
L38619 25554
L38657 25554
" />
<path d="M38790 25820
L38790 25420
L38923 25706
L39057 25420
L39057 25820
" />
<path d="M39323 25420
L39361 25420
L39399 25440
L39419 25459
L39438 25497
L39457 25573
L39457 25668
L39438 25744
L39419 25782
L39399 25801
L39361 25820
L39323 25820
L39285 25801
L39266 25782
L39247 25744
L39228 25668
L39228 25573
L39247 25497
L39266 25459
L39285 25440
L39323 25420
" />
<path d="M8973 9361
L9107 9361
" />
<path d="M9164 9570
L8973 9570
L8973 9170
L9164 9170
" />
<path d="M9297 9170
L9545 9170
L9411 9323
L9469 9323
L9507 9342
L9526 9361
L9545 9399
L9545 9494
L9526 9532
L9507 9551
L9469 9570
L9354 9570
L9316 9551
L9297 9532
" />
<path d="M4180 9361
L4314 9361
" />
<path d="M4371 9570
L4180 9570
L4180 9170
L4371 9170
" />
<path d="M4542 9570
L4542 9170
L4771 9570
L4771 9170
" />
<path d="M5190 9532
L5171 9551
L5114 9570
L5076 9570
L5019 9551
L4980 9513
L4961 9475
L4942 9399
L4942 9342
L4961 9266
L4980 9228
L5019 9190
L5076 9170
L5114 9170
L5171 9190
L5190 9209
" />
<path d="M5266 9609
L5571 9609
" />
<path d="M5647 9456
L5838 9456
" />
<path d="M5609 9570
L5742 9170
L5876 9570
" />
<path d="M7373 14796
L7354 14815
L7297 14834
L7259 14834
L7202 14815
L7164 14777
L7145 14739
L7126 14663
L7126 14606
L7145 14529
L7164 14491
L7202 14453
L7259 14434
L7297 14434
L7354 14453
L7373 14472
" />
<path d="M6170 14720
L6360 14720
" />
<path d="M6132 14834
L6265 14434
L6399 14834
" />
<path d="M8262 14625
L8319 14644
L8339 14663
L8358 14701
L8358 14758
L8339 14796
L8319 14815
L8281 14834
L8129 14834
L8129 14434
L8262 14434
L8300 14453
L8319 14472
L8339 14510
L8339 14549
L8319 14587
L8300 14606
L8262 14625
L8129 14625
" />
<path d="M5922 10484
L5980 10504
L6075 10504
L6113 10484
L6132 10465
L6151 10427
L6151 10389
L6132 10351
L6113 10332
L6075 10313
L5999 10294
L5960 10275
L5941 10256
L5922 10218
L5922 10180
L5941 10142
L5960 10123
L5999 10104
L6094 10104
L6151 10123
" />
<path d="M6284 10104
L6380 10504
L6456 10218
L6532 10504
L6627 10104
" />
<path d="M7891 10484
L7948 10504
L8043 10504
L8081 10484
L8100 10465
L8119 10427
L8119 10389
L8100 10351
L8081 10332
L8043 10313
L7967 10294
L7929 10275
L7910 10256
L7891 10218
L7891 10180
L7910 10142
L7929 10123
L7967 10104
L8062 10104
L8119 10123
" />
<path d="M8253 10104
L8348 10504
L8424 10218
L8500 10504
L8596 10104
" />
<path d="M47973 9361
L48107 9361
" />
<path d="M48164 9570
L47973 9570
L47973 9170
L48164 9170
" />
<path d="M48507 9304
L48507 9570
" />
<path d="M48411 9151
L48316 9437
L48564 9437
" />
<path d="M43152 9361
L43285 9361
" />
<path d="M43342 9570
L43152 9570
L43152 9170
L43342 9170
" />
<path d="M43514 9570
L43514 9170
L43742 9570
L43742 9170
" />
<path d="M44161 9532
L44142 9551
L44085 9570
L44047 9570
L43990 9551
L43952 9513
L43933 9475
L43914 9399
L43914 9342
L43933 9266
L43952 9228
L43990 9190
L44047 9170
L44085 9170
L44142 9190
L44161 9209
" />
<path d="M44238 9609
L44542 9609
" />
<path d="M44771 9361
L44828 9380
L44847 9399
L44866 9437
L44866 9494
L44847 9532
L44828 9551
L44790 9570
L44638 9570
L44638 9170
L44771 9170
L44809 9190
L44828 9209
L44847 9247
L44847 9285
L44828 9323
L44809 9342
L44771 9361
L44638 9361
" />
<path d="M46373 14796
L46354 14815
L46297 14834
L46259 14834
L46202 14815
L46164 14777
L46145 14739
L46126 14663
L46126 14606
L46145 14529
L46164 14491
L46202 14453
L46259 14434
L46297 14434
L46354 14453
L46373 14472
" />
<path d="M45170 14720
L45360 14720
" />
<path d="M45132 14834
L45265 14434
L45399 14834
" />
<path d="M47262 14625
L47319 14644
L47339 14663
L47358 14701
L47358 14758
L47339 14796
L47319 14815
L47281 14834
L47129 14834
L47129 14434
L47262 14434
L47300 14453
L47319 14472
L47339 14510
L47339 14549
L47319 14587
L47300 14606
L47262 14625
L47129 14625
" />
<path d="M44922 10484
L44980 10504
L45075 10504
L45113 10484
L45132 10465
L45151 10427
L45151 10389
L45132 10351
L45113 10332
L45075 10313
L44999 10294
L44960 10275
L44941 10256
L44922 10218
L44922 10180
L44941 10142
L44960 10123
L44999 10104
L45094 10104
L45151 10123
" />
<path d="M45284 10104
L45380 10504
L45456 10218
L45532 10504
L45627 10104
" />
<path d="M46891 10484
L46948 10504
L47043 10504
L47081 10484
L47100 10465
L47119 10427
L47119 10389
L47100 10351
L47081 10332
L47043 10313
L46967 10294
L46929 10275
L46910 10256
L46891 10218
L46891 10180
L46910 10142
L46929 10123
L46967 10104
L47062 10104
L47119 10123
" />
<path d="M47253 10104
L47348 10504
L47424 10218
L47500 10504
L47596 10104
" />
</g>
<g style="fill:#000000; fill-opacity:0.0; 
stroke:#000000; stroke-width:60; stroke-opacity:1; 
stroke-linecap:round; stroke-linejoin:round;">
</g>
<g style="fill:#C2C2C2; fill-opacity:0.0; 
stroke:#C2C2C2; stroke-width:60; stroke-opacity:1; 
stroke-linecap:round; stroke-linejoin:round;">
</g>
<g style="fill:#C2C2C2; fill-opacity:0.0; 
stroke:#C2C2C2; stroke-width:80; stroke-opacity:1; 
stroke-linecap:round; stroke-linejoin:round;">
<path d="M42500 6390 A1000 1000 0.0 0 0 41500 5390 " />
<path d="M16750 5640 A1000 1000 0.0 0 0 15750 6640 " />
<path d="M21250 5390 A500 500 0.0 0 0 20750 5890 " />
<path d="M27750 5890 A500 500 0.0 0 0 27250 5390 " />
<path d="M34250 5390 A1030.78 1030.78 0.0 0 0 33500 6640 " />
<path d="M37750 6640 A1000 1000 0.0 0 0 36750 5640 " />
<path d="M36750 19140 A1000 1000 0.0 0 0 37750 18140 " />
<path d="M27250 18390 A500 500 0.0 0 0 27750 17890 " />
<path d="M20750 17890 A500 500 0.0 0 0 21250 18390 " />
<path d="M15750 18140 A1000 1000 0.0 0 0 16750 19140 " />
<circle cx="26750" cy="12390" r="750" /> 
<path d="M26250 12390 A500 500 0.0 0 0 26750 12890 " />
<path d="M27250 12390 A500 500 0.0 0 0 26750 11890 " />
<path d="M25750 12390
L27750 12390
" />
<path d="M26750 13390
L26750 11390
" />
<path d="M31000 6640
L30500 6640
" />
<path d="M30750 6390
L30750 6890
" />
<path d="M28250 7890
L28250 5390
" />
<path d="M33250 7890
L28250 7890
" />
<path d="M33250 5390
L33250 7890
" />
<path d="M28250 5390
L33250 5390
" />
<path d="M33500 24140
L33500 6390
" />
<path d="M41500 25390
L34500 25390
" />
<path d="M42500 6390
L42500 24390
" />
<path d="M34500 5390
L41500 5390
" />
<path d="M27250 5390
L21250 5390
" />
<path d="M27750 17890
L27750 5890
" />
<path d="M21250 18390
L27250 18390
" />
<path d="M20750 5890
L20750 17890
" />
<path d="M15750 18140
L15750 6640
" />
<path d="M36750 19140
L16750 19140
" />
<path d="M37750 6640
L37750 18140
" />
<path d="M16750 5640
L36750 5640
" />
<path d="M10750 20140
L10750 6140
" />
<path d="M19000 20890
L11500 20890
" />
<path d="M19750 6140
L19750 20140
" />
<path d="M11500 5390
L19000 5390
" />
<circle cx="7250" cy="12390" r="7000" /> 
<circle cx="46250" cy="12390" r="7000" /> 
<circle cx="16750" cy="18140" r="750" /> 
<circle cx="19000" cy="20140" r="750" /> 
<circle cx="11500" cy="20140" r="750" /> 
<circle cx="11500" cy="6140" r="750" /> 
<circle cx="16750" cy="6640" r="750" /> 
<circle cx="19000" cy="6140" r="750" /> 
<circle cx="41500" cy="6390" r="750" /> 
<circle cx="34500" cy="6390" r="750" /> 
<circle cx="36750" cy="6640" r="750" /> 
<circle cx="36750" cy="18140" r="750" /> 
<circle cx="44750" cy="20390" r="750" /> 
<circle cx="41500" cy="24390" r="750" /> 
<circle cx="34500" cy="24390" r="750" /> 
<circle cx="19000" cy="24390" r="750" /> 
<circle cx="12000" cy="24390" r="750" /> 
<circle cx="8750" cy="20390" r="750" /> 
</g>
<g style="fill:#C2C2C2; fill-opacity:0.0; 
stroke:#C2C2C2; stroke-width:120; stroke-opacity:1; 
stroke-linecap:round; stroke-linejoin:round;">
<path d="M56368 6932
L56368 6990
L56340 7047
L56311 7075
L56254 7104
L56140 7132
L55997 7132
L55882 7104
L55825 7075
L55797 7047
L55768 6990
L55768 6932
L55797 6875
L55825 6847
L55882 6818
L55997 6790
L56140 6790
L56254 6818
L56311 6847
L56340 6875
L56368 6932
" />
<path d="M55825 7390
L55797 7418
L55768 7390
L55797 7361
L55825 7390
L55768 7390
" />
<path d="M56368 7618
L56368 8018
L55768 7761
" />
<path d="M56368 8361
L56368 8418
L56340 8475
L56311 8504
L56254 8532
L56140 8561
L55997 8561
L55882 8532
L55825 8504
L55797 8475
L55768 8418
L55768 8361
L55797 8304
L55825 8275
L55882 8247
L55997 8218
L56140 8218
L56254 8247
L56311 8275
L56340 8304
L56368 8361
" />
<path d="M56368 8932
L56368 8990
L56340 9047
L56311 9075
L56254 9104
L56140 9132
L55997 9132
L55882 9104
L55825 9075
L55797 9047
L55768 8990
L55768 8932
L55797 8875
L55825 8847
L55882 8818
L55997 8790
L56140 8790
L56254 8818
L56311 8847
L56340 8875
L56368 8932
" />
<path d="M56368 9504
L56368 9561
L56340 9618
L56311 9647
L56254 9675
L56140 9704
L55997 9704
L55882 9675
L55825 9647
L55797 9618
L55768 9561
L55768 9504
L55797 9447
L55825 9418
L55882 9390
L55997 9361
L56140 9361
L56254 9390
L56311 9418
L56340 9447
L56368 9504
" />
<path d="M55768 10418
L56168 10418
" />
<path d="M56368 10418
L56340 10390
L56311 10418
L56340 10447
L56368 10418
L56311 10418
" />
<path d="M56168 10704
L55768 10704
" />
<path d="M56111 10704
L56140 10732
L56168 10790
L56168 10875
L56140 10932
L56082 10961
L55768 10961
" />
<path d="M55500 5390
L55500 12390
" />
<path d="M46250 5390
L56580 5390
" />
<path d="M46250 12390
L56580 12390
" />
<path d="M55500 12390
L55269 11946
" />
<path d="M55500 12390
L55730 11946
" />
<path d="M55500 5390
L55269 5833
" />
<path d="M55500 5390
L55730 5833
" />
<path d="M36742 3871
L36400 3871
" />
<path d="M36571 3871
L36571 3271
L36514 3357
L36457 3414
L36400 3442
" />
<path d="M37000 3814
L37028 3842
L37000 3871
L36971 3842
L37000 3814
L37000 3871
" />
<path d="M37571 3271
L37285 3271
L37257 3557
L37285 3528
L37342 3500
L37485 3500
L37542 3528
L37571 3557
L37600 3614
L37600 3757
L37571 3814
L37542 3842
L37485 3871
L37342 3871
L37285 3842
L37257 3814
" />
<path d="M38142 3271
L37857 3271
L37828 3557
L37857 3528
L37914 3500
L38057 3500
L38114 3528
L38142 3557
L38171 3614
L38171 3757
L38142 3814
L38114 3842
L38057 3871
L37914 3871
L37857 3842
L37828 3814
" />
<path d="M38542 3271
L38600 3271
L38657 3300
L38685 3328
L38714 3385
L38742 3500
L38742 3642
L38714 3757
L38685 3814
L38657 3842
L38600 3871
L38542 3871
L38485 3842
L38457 3814
L38428 3757
L38400 3642
L38400 3500
L38428 3385
L38457 3328
L38485 3300
L38542 3271
" />
<path d="M39114 3271
L39171 3271
L39228 3300
L39257 3328
L39285 3385
L39314 3500
L39314 3642
L39285 3757
L39257 3814
L39228 3842
L39171 3871
L39114 3871
L39057 3842
L39028 3814
L39000 3757
L38971 3642
L38971 3500
L39000 3385
L39028 3328
L39057 3300
L39114 3271
" />
<path d="M40028 3871
L40028 3471
" />
<path d="M40028 3271
L40000 3300
L40028 3328
L40057 3300
L40028 3271
L40028 3328
" />
<path d="M40314 3471
L40314 3871
" />
<path d="M40314 3528
L40342 3500
L40400 3471
L40485 3471
L40542 3500
L40571 3557
L40571 3871
" />
<path d="M46250 4140
L30750 4140
" />
<path d="M46250 5390
L46250 3060
" />
<path d="M30750 5390
L30750 3060
" />
<path d="M30750 4140
L31193 3909
" />
<path d="M30750 4140
L31193 4370
" />
<path d="M46250 4140
L45806 3909
" />
<path d="M46250 4140
L45806 4370
" />
<path d="M50618 21182
L50618 21240
L50590 21297
L50561 21325
L50504 21354
L50390 21382
L50247 21382
L50132 21354
L50075 21325
L50047 21297
L50018 21240
L50018 21182
L50047 21125
L50075 21097
L50132 21068
L50247 21040
L50390 21040
L50504 21068
L50561 21097
L50590 21125
L50618 21182
" />
<path d="M50075 21640
L50047 21668
L50018 21640
L50047 21611
L50075 21640
L50018 21640
" />
<path d="M50618 22211
L50618 21925
L50332 21897
L50361 21925
L50390 21982
L50390 22125
L50361 22182
L50332 22211
L50275 22240
L50132 22240
L50075 22211
L50047 22182
L50018 22125
L50018 21982
L50047 21925
L50075 21897
" />
<path d="M50618 22782
L50618 22497
L50332 22468
L50361 22497
L50390 22554
L50390 22697
L50361 22754
L50332 22782
L50275 22811
L50132 22811
L50075 22782
L50047 22754
L50018 22697
L50018 22554
L50047 22497
L50075 22468
" />
<path d="M50618 23182
L50618 23240
L50590 23297
L50561 23325
L50504 23354
L50390 23382
L50247 23382
L50132 23354
L50075 23325
L50047 23297
L50018 23240
L50018 23182
L50047 23125
L50075 23097
L50132 23068
L50247 23040
L50390 23040
L50504 23068
L50561 23097
L50590 23125
L50618 23182
" />
<path d="M50618 23754
L50618 23811
L50590 23868
L50561 23897
L50504 23925
L50390 23954
L50247 23954
L50132 23925
L50075 23897
L50047 23868
L50018 23811
L50018 23754
L50047 23697
L50075 23668
L50132 23640
L50247 23611
L50390 23611
L50504 23640
L50561 23668
L50590 23697
L50618 23754
" />
<path d="M50018 24668
L50418 24668
" />
<path d="M50618 24668
L50590 24640
L50561 24668
L50590 24697
L50618 24668
L50561 24668
" />
<path d="M50418 24954
L50018 24954
" />
<path d="M50361 24954
L50390 24982
L50418 25040
L50418 25125
L50390 25182
L50332 25211
L50018 25211
" />
<path d="M49750 20390
L49750 25890
" />
<path d="M44750 20390
L50830 20390
" />
<path d="M44750 25890
L50830 25890
" />
<path d="M49750 25890
L49519 25446
" />
<path d="M49750 25890
L49980 25446
" />
<path d="M49750 20390
L49519 20833
" />
<path d="M49750 20390
L49980 20833
" />
<path d="M24621 33601
L24992 33601
L24792 33829
L24878 33829
L24935 33858
L24964 33887
L24992 33944
L24992 34087
L24964 34144
L24935 34172
L24878 34201
L24707 34201
L24650 34172
L24621 34144
" />
<path d="M25250 34144
L25278 34172
L25250 34201
L25221 34172
L25250 34144
L25250 34201
" />
<path d="M25792 33601
L25678 33601
L25621 33629
L25592 33658
L25535 33744
L25507 33858
L25507 34087
L25535 34144
L25564 34172
L25621 34201
L25735 34201
L25792 34172
L25821 34144
L25850 34087
L25850 33944
L25821 33887
L25792 33858
L25735 33829
L25621 33829
L25564 33858
L25535 33887
L25507 33944
" />
<path d="M26221 33601
L26278 33601
L26335 33629
L26364 33658
L26392 33715
L26421 33829
L26421 33972
L26392 34087
L26364 34144
L26335 34172
L26278 34201
L26221 34201
L26164 34172
L26135 34144
L26107 34087
L26078 33972
L26078 33829
L26107 33715
L26135 33658
L26164 33629
L26221 33601
" />
<path d="M26792 33601
L26850 33601
L26907 33629
L26935 33658
L26964 33715
L26992 33829
L26992 33972
L26964 34087
L26935 34144
L26907 34172
L26850 34201
L26792 34201
L26735 34172
L26707 34144
L26678 34087
L26650 33972
L26650 33829
L26678 33715
L26707 33658
L26735 33629
L26792 33601
" />
<path d="M27364 33601
L27421 33601
L27478 33629
L27507 33658
L27535 33715
L27564 33829
L27564 33972
L27535 34087
L27507 34144
L27478 34172
L27421 34201
L27364 34201
L27307 34172
L27278 34144
L27250 34087
L27221 33972
L27221 33829
L27250 33715
L27278 33658
L27307 33629
L27364 33601
" />
<path d="M28278 34201
L28278 33801
" />
<path d="M28278 33601
L28250 33629
L28278 33658
L28307 33629
L28278 33601
L28278 33658
" />
<path d="M28564 33801
L28564 34201
" />
<path d="M28564 33858
L28592 33829
L28650 33801
L28735 33801
L28792 33829
L28821 33887
L28821 34201
" />
<path d="M8750 33389
L44750 33389
" />
<path d="M8750 20390
L8750 34469
" />
<path d="M44750 20390
L44750 34469
" />
<path d="M44750 33389
L44306 33620
" />
<path d="M44750 33389
L44306 33159
" />
<path d="M8750 33389
L9193 33620
" />
<path d="M8750 33389
L9193 33159
" />
<path d="M48828 24004
L48828 24061
L48800 24118
L48771 24147
L48714 24175
L48600 24204
L48457 24204
L48342 24175
L48285 24147
L48257 24118
L48228 24061
L48228 24004
L48257 23947
L48285 23918
L48342 23890
L48457 23861
L48600 23861
L48714 23890
L48771 23918
L48800 23947
L48828 24004
" />
<path d="M48285 24461
L48257 24490
L48228 24461
L48257 24432
L48285 24461
L48228 24461
" />
<path d="M48228 25061
L48228 24718
" />
<path d="M48228 24890
L48828 24890
L48742 24832
L48685 24775
L48657 24718
" />
<path d="M48828 25604
L48828 25318
L48542 25290
L48571 25318
L48600 25375
L48600 25518
L48571 25575
L48542 25604
L48485 25632
L48342 25632
L48285 25604
L48257 25575
L48228 25518
L48228 25375
L48257 25318
L48285 25290
" />
<path d="M48228 26347
L48628 26347
" />
<path d="M48828 26347
L48800 26318
L48771 26347
L48800 26375
L48828 26347
L48771 26347
" />
<path d="M48628 26632
L48228 26632
" />
<path d="M48571 26632
L48600 26661
L48628 26718
L48628 26804
L48600 26861
L48542 26890
L48228 26890
" />
<path d="M47000 24390
L47000 25890
" />
<path d="M41500 24390
L48080 24390
" />
<path d="M41500 25890
L48080 25890
" />
<path d="M47000 25890
L46769 25446
" />
<path d="M47000 25890
L47230 25446
" />
<path d="M47000 24390
L46769 24833
" />
<path d="M47000 24390
L47230 24833
" />
<path d="M24650 30658
L24678 30630
L24735 30601
L24878 30601
L24935 30630
L24964 30658
L24992 30715
L24992 30772
L24964 30858
L24621 31201
L24992 31201
" />
<path d="M25250 31144
L25278 31172
L25250 31201
L25221 31172
L25250 31144
L25250 31201
" />
<path d="M25564 31201
L25678 31201
L25735 31172
L25764 31144
L25821 31058
L25850 30944
L25850 30715
L25821 30658
L25792 30630
L25735 30601
L25621 30601
L25564 30630
L25535 30658
L25507 30715
L25507 30858
L25535 30915
L25564 30944
L25621 30972
L25735 30972
L25792 30944
L25821 30915
L25850 30858
" />
<path d="M26392 30601
L26107 30601
L26078 30887
L26107 30858
L26164 30830
L26307 30830
L26364 30858
L26392 30887
L26421 30944
L26421 31087
L26392 31144
L26364 31172
L26307 31201
L26164 31201
L26107 31172
L26078 31144
" />
<path d="M26792 30601
L26850 30601
L26907 30630
L26935 30658
L26964 30715
L26992 30830
L26992 30972
L26964 31087
L26935 31144
L26907 31172
L26850 31201
L26792 31201
L26735 31172
L26707 31144
L26678 31087
L26650 30972
L26650 30830
L26678 30715
L26707 30658
L26735 30630
L26792 30601
" />
<path d="M27364 30601
L27421 30601
L27478 30630
L27507 30658
L27535 30715
L27564 30830
L27564 30972
L27535 31087
L27507 31144
L27478 31172
L27421 31201
L27364 31201
L27307 31172
L27278 31144
L27250 31087
L27221 30972
L27221 30830
L27250 30715
L27278 30658
L27307 30630
L27364 30601
" />
<path d="M28278 31201
L28278 30801
" />
<path d="M28278 30601
L28250 30630
L28278 30658
L28307 30630
L28278 30601
L28278 30658
" />
<path d="M28564 30801
L28564 31201
" />
<path d="M28564 30858
L28592 30830
L28650 30801
L28735 30801
L28792 30830
L28821 30887
L28821 31201
" />
<path d="M12000 30390
L41500 30390
" />
<path d="M12000 24390
L12000 31470
" />
<path d="M41500 24390
L41500 31470
" />
<path d="M41500 30390
L41056 30620
" />
<path d="M41500 30390
L41056 30159
" />
<path d="M12000 30390
L12443 30620
" />
<path d="M12000 30390
L12443 30159
" />
<path d="M24992 29701
L24650 29701
" />
<path d="M24821 29701
L24821 29101
L24764 29187
L24707 29244
L24650 29272
" />
<path d="M25250 29644
L25278 29672
L25250 29701
L25221 29672
L25250 29644
L25250 29701
" />
<path d="M25821 29101
L25535 29101
L25507 29387
L25535 29358
L25592 29330
L25735 29330
L25792 29358
L25821 29387
L25850 29444
L25850 29587
L25821 29644
L25792 29672
L25735 29701
L25592 29701
L25535 29672
L25507 29644
" />
<path d="M26392 29101
L26107 29101
L26078 29387
L26107 29358
L26164 29330
L26307 29330
L26364 29358
L26392 29387
L26421 29444
L26421 29587
L26392 29644
L26364 29672
L26307 29701
L26164 29701
L26107 29672
L26078 29644
" />
<path d="M26792 29101
L26850 29101
L26907 29130
L26935 29158
L26964 29215
L26992 29330
L26992 29472
L26964 29587
L26935 29644
L26907 29672
L26850 29701
L26792 29701
L26735 29672
L26707 29644
L26678 29587
L26650 29472
L26650 29330
L26678 29215
L26707 29158
L26735 29130
L26792 29101
" />
<path d="M27364 29101
L27421 29101
L27478 29130
L27507 29158
L27535 29215
L27564 29330
L27564 29472
L27535 29587
L27507 29644
L27478 29672
L27421 29701
L27364 29701
L27307 29672
L27278 29644
L27250 29587
L27221 29472
L27221 29330
L27250 29215
L27278 29158
L27307 29130
L27364 29101
" />
<path d="M28278 29701
L28278 29301
" />
<path d="M28278 29101
L28250 29130
L28278 29158
L28307 29130
L28278 29101
L28278 29158
" />
<path d="M28564 29301
L28564 29701
" />
<path d="M28564 29358
L28592 29330
L28650 29301
L28735 29301
L28792 29330
L28821 29387
L28821 29701
" />
<path d="M19000 28890
L34500 28890
" />
<path d="M19000 24390
L19000 29970
" />
<path d="M34500 24390
L34500 29970
" />
<path d="M34500 28890
L34056 29120
" />
<path d="M34500 28890
L34056 28659
" />
<path d="M19000 28890
L19443 29120
" />
<path d="M19000 28890
L19443 28659
" />
<path d="M61311 13540
L61340 13568
L61368 13625
L61368 13768
L61340 13825
L61311 13854
L61254 13882
L61197 13882
L61111 13854
L60768 13511
L60768 13882
" />
<path d="M60825 14140
L60797 14168
L60768 14140
L60797 14111
L60825 14140
L60768 14140
" />
<path d="M61368 14540
L61368 14597
L61340 14654
L61311 14682
L61254 14711
L61140 14740
L60997 14740
L60882 14711
L60825 14682
L60797 14654
L60768 14597
L60768 14540
L60797 14482
L60825 14454
L60882 14425
L60997 14397
L61140 14397
L61254 14425
L61311 14454
L61340 14482
L61368 14540
" />
<path d="M61368 15282
L61368 14997
L61082 14968
L61111 14997
L61140 15054
L61140 15197
L61111 15254
L61082 15282
L61025 15311
L60882 15311
L60825 15282
L60797 15254
L60768 15197
L60768 15054
L60797 14997
L60825 14968
" />
<path d="M61368 15682
L61368 15740
L61340 15797
L61311 15825
L61254 15854
L61140 15882
L60997 15882
L60882 15854
L60825 15825
L60797 15797
L60768 15740
L60768 15682
L60797 15625
L60825 15597
L60882 15568
L60997 15540
L61140 15540
L61254 15568
L61311 15597
L61340 15625
L61368 15682
" />
<path d="M61368 16254
L61368 16311
L61340 16368
L61311 16397
L61254 16425
L61140 16454
L60997 16454
L60882 16425
L60825 16397
L60797 16368
L60768 16311
L60768 16254
L60797 16197
L60825 16168
L60882 16140
L60997 16111
L61140 16111
L61254 16140
L61311 16168
L61340 16197
L61368 16254
" />
<path d="M60768 17168
L61168 17168
" />
<path d="M61368 17168
L61340 17140
L61311 17168
L61340 17197
L61368 17168
L61311 17168
" />
<path d="M61168 17454
L60768 17454
" />
<path d="M61111 17454
L61140 17482
L61168 17540
L61168 17625
L61140 17682
L61082 17711
L60768 17711
" />
<path d="M60500 5390
L60500 25890
" />
<path d="M46250 5390
L61580 5390
" />
<path d="M46250 25890
L61580 25890
" />
<path d="M60500 25890
L60269 25446
" />
<path d="M60500 25890
L60730 25446
" />
<path d="M60500 5390
L60269 5833
" />
<path d="M60500 5390
L60730 5833
" />
<path d="M24964 271
L24678 271
L24650 557
L24678 528
L24735 500
L24878 500
L24935 528
L24964 557
L24992 614
L24992 757
L24964 814
L24935 842
L24878 871
L24735 871
L24678 842
L24650 814
" />
<path d="M25250 814
L25278 842
L25250 871
L25221 842
L25250 814
L25250 871
" />
<path d="M25478 271
L25850 271
L25650 500
L25735 500
L25792 528
L25821 557
L25850 614
L25850 757
L25821 814
L25792 842
L25735 871
L25564 871
L25507 842
L25478 814
" />
<path d="M26221 271
L26278 271
L26335 300
L26364 328
L26392 385
L26421 500
L26421 642
L26392 757
L26364 814
L26335 842
L26278 871
L26221 871
L26164 842
L26135 814
L26107 757
L26078 642
L26078 500
L26107 385
L26135 328
L26164 300
L26221 271
" />
<path d="M26792 271
L26850 271
L26907 300
L26935 328
L26964 385
L26992 500
L26992 642
L26964 757
L26935 814
L26907 842
L26850 871
L26792 871
L26735 842
L26707 814
L26678 757
L26650 642
L26650 500
L26678 385
L26707 328
L26735 300
L26792 271
" />
<path d="M27364 271
L27421 271
L27478 300
L27507 328
L27535 385
L27564 500
L27564 642
L27535 757
L27507 814
L27478 842
L27421 871
L27364 871
L27307 842
L27278 814
L27250 757
L27221 642
L27221 500
L27250 385
L27278 328
L27307 300
L27364 271
" />
<path d="M28278 871
L28278 471
" />
<path d="M28278 271
L28250 300
L28278 328
L28307 300
L28278 271
L28278 328
" />
<path d="M28564 471
L28564 871
" />
<path d="M28564 528
L28592 500
L28650 471
L28735 471
L28792 500
L28821 557
L28821 871
" />
<path d="M250 1140
L53250 1140
" />
<path d="M250 12390
L250 60
" />
<path d="M53250 12390
L53250 60
" />
<path d="M53250 1140
L52806 1370
" />
<path d="M53250 1140
L52806 909
" />
<path d="M250 1140
L693 1370
" />
<path d="M250 1140
L693 909
" />
<path d="M24621 32101
L24992 32101
L24792 32330
L24878 32330
L24935 32358
L24964 32387
L24992 32444
L24992 32587
L24964 32644
L24935 32672
L24878 32701
L24707 32701
L24650 32672
L24621 32644
" />
<path d="M25250 32644
L25278 32672
L25250 32701
L25221 32672
L25250 32644
L25250 32701
" />
<path d="M25650 32101
L25707 32101
L25764 32130
L25792 32158
L25821 32215
L25850 32330
L25850 32472
L25821 32587
L25792 32644
L25764 32672
L25707 32701
L25650 32701
L25592 32672
L25564 32644
L25535 32587
L25507 32472
L25507 32330
L25535 32215
L25564 32158
L25592 32130
L25650 32101
" />
<path d="M26221 32101
L26278 32101
L26335 32130
L26364 32158
L26392 32215
L26421 32330
L26421 32472
L26392 32587
L26364 32644
L26335 32672
L26278 32701
L26221 32701
L26164 32672
L26135 32644
L26107 32587
L26078 32472
L26078 32330
L26107 32215
L26135 32158
L26164 32130
L26221 32101
" />
<path d="M26792 32101
L26850 32101
L26907 32130
L26935 32158
L26964 32215
L26992 32330
L26992 32472
L26964 32587
L26935 32644
L26907 32672
L26850 32701
L26792 32701
L26735 32672
L26707 32644
L26678 32587
L26650 32472
L26650 32330
L26678 32215
L26707 32158
L26735 32130
L26792 32101
" />
<path d="M27364 32101
L27421 32101
L27478 32130
L27507 32158
L27535 32215
L27564 32330
L27564 32472
L27535 32587
L27507 32644
L27478 32672
L27421 32701
L27364 32701
L27307 32672
L27278 32644
L27250 32587
L27221 32472
L27221 32330
L27250 32215
L27278 32158
L27307 32130
L27364 32101
" />
<path d="M28278 32701
L28278 32301
" />
<path d="M28278 32101
L28250 32130
L28278 32158
L28307 32130
L28278 32101
L28278 32158
" />
<path d="M28564 32301
L28564 32701
" />
<path d="M28564 32358
L28592 32330
L28650 32301
L28735 32301
L28792 32330
L28821 32387
L28821 32701
" />
<path d="M11750 31890
L41750 31890
" />
<path d="M11750 25890
L11750 32970
" />
<path d="M41750 25890
L41750 32970
" />
<path d="M41750 31890
L41306 32120
" />
<path d="M41750 31890
L41306 31659
" />
<path d="M11750 31890
L12193 32120
" />
<path d="M11750 31890
L12193 31659
" />
<path d="M24992 28201
L24650 28201
" />
<path d="M24821 28201
L24821 27601
L24764 27687
L24707 27744
L24650 27772
" />
<path d="M25250 28144
L25278 28172
L25250 28201
L25221 28172
L25250 28144
L25250 28201
" />
<path d="M25478 27601
L25850 27601
L25650 27829
L25735 27829
L25792 27858
L25821 27887
L25850 27944
L25850 28087
L25821 28144
L25792 28172
L25735 28201
L25564 28201
L25507 28172
L25478 28144
" />
<path d="M26392 27601
L26107 27601
L26078 27887
L26107 27858
L26164 27829
L26307 27829
L26364 27858
L26392 27887
L26421 27944
L26421 28087
L26392 28144
L26364 28172
L26307 28201
L26164 28201
L26107 28172
L26078 28144
" />
<path d="M26792 27601
L26850 27601
L26907 27629
L26935 27658
L26964 27715
L26992 27829
L26992 27972
L26964 28087
L26935 28144
L26907 28172
L26850 28201
L26792 28201
L26735 28172
L26707 28144
L26678 28087
L26650 27972
L26650 27829
L26678 27715
L26707 27658
L26735 27629
L26792 27601
" />
<path d="M27364 27601
L27421 27601
L27478 27629
L27507 27658
L27535 27715
L27564 27829
L27564 27972
L27535 28087
L27507 28144
L27478 28172
L27421 28201
L27364 28201
L27307 28172
L27278 28144
L27250 28087
L27221 27972
L27221 27829
L27250 27715
L27278 27658
L27307 27629
L27364 27601
" />
<path d="M28278 28201
L28278 27801
" />
<path d="M28278 27601
L28250 27629
L28278 27658
L28307 27629
L28278 27601
L28278 27658
" />
<path d="M28564 27801
L28564 28201
" />
<path d="M28564 27858
L28592 27829
L28650 27801
L28735 27801
L28792 27829
L28821 27887
L28821 28201
" />
<path d="M20000 27389
L33500 27389
" />
<path d="M20000 25890
L20000 28469
" />
<path d="M33500 25890
L33500 28469
" />
<path d="M33500 27389
L33056 27620
" />
<path d="M33500 27389
L33056 27159
" />
<path d="M20000 27389
L20443 27620
" />
<path d="M20000 27389
L20443 27159
" />
<path d="M24621 1771
L24992 1771
L24792 2000
L24878 2000
L24935 2028
L24964 2057
L24992 2114
L24992 2257
L24964 2314
L24935 2342
L24878 2371
L24707 2371
L24650 2342
L24621 2314
" />
<path d="M25250 2314
L25278 2342
L25250 2371
L25221 2342
L25250 2314
L25250 2371
" />
<path d="M25564 2371
L25678 2371
L25735 2342
L25764 2314
L25821 2228
L25850 2114
L25850 1885
L25821 1828
L25792 1800
L25735 1771
L25621 1771
L25564 1800
L25535 1828
L25507 1885
L25507 2028
L25535 2085
L25564 2114
L25621 2142
L25735 2142
L25792 2114
L25821 2085
L25850 2028
" />
<path d="M26221 1771
L26278 1771
L26335 1800
L26364 1828
L26392 1885
L26421 2000
L26421 2142
L26392 2257
L26364 2314
L26335 2342
L26278 2371
L26221 2371
L26164 2342
L26135 2314
L26107 2257
L26078 2142
L26078 2000
L26107 1885
L26135 1828
L26164 1800
L26221 1771
" />
<path d="M26792 1771
L26850 1771
L26907 1800
L26935 1828
L26964 1885
L26992 2000
L26992 2142
L26964 2257
L26935 2314
L26907 2342
L26850 2371
L26792 2371
L26735 2342
L26707 2314
L26678 2257
L26650 2142
L26650 2000
L26678 1885
L26707 1828
L26735 1800
L26792 1771
" />
<path d="M27364 1771
L27421 1771
L27478 1800
L27507 1828
L27535 1885
L27564 2000
L27564 2142
L27535 2257
L27507 2314
L27478 2342
L27421 2371
L27364 2371
L27307 2342
L27278 2314
L27250 2257
L27221 2142
L27221 2000
L27250 1885
L27278 1828
L27307 1800
L27364 1771
" />
<path d="M28278 2371
L28278 1971
" />
<path d="M28278 1771
L28250 1800
L28278 1828
L28307 1800
L28278 1771
L28278 1828
" />
<path d="M28564 1971
L28564 2371
" />
<path d="M28564 2028
L28592 2000
L28650 1971
L28735 1971
L28792 2000
L28821 2057
L28821 2371
" />
<path d="M7250 2640
L46250 2640
" />
<path d="M7250 12390
L7250 1560
" />
<path d="M46250 12390
L46250 1560
" />
<path d="M46250 2640
L45806 2870
" />
<path d="M46250 2640
L45806 2409
" />
<path d="M7250 2640
L7693 2870
" />
<path d="M7250 2640
L7693 2409
" />
</g>
<g style="fill:#000000; fill-opacity:0.0; 
stroke:#000000; stroke-width:120; stroke-opacity:1; 
stroke-linecap:round; stroke-linejoin:round;">
</g>
<g style="fill:#C2C200; fill-opacity:0.0; 
stroke:#C2C200; stroke-width:120; stroke-opacity:1; 
stroke-linecap:round; stroke-linejoin:round;">
</g>
<g style="fill:#C2C200; fill-opacity:0.0; 
stroke:#C2C200; stroke-width:60; stroke-opacity:1; 
stroke-linecap:round; stroke-linejoin:round;">
<path d="M45500 5390
L46250 5390
" />
<path d="M45500 5390 A500 500 0.0 0 0 45000 5890 " />
<path d="M42500 5890 A500 500 0.0 0 0 42000 5390 " />
<path d="M44500 7890 A500 500 0.0 0 0 45000 7390 " />
<path d="M42500 7390 A500 500 0.0 0 0 43000 7890 " />
<path d="M43000 7890
L44500 7890
" />
<path d="M45000 7390
L45000 5890
" />
<path d="M42500 5890
L42500 7390
" />
<path d="M33500 25890
L41750 25890
" />
<path d="M20000 25890
L11750 25890
" />
<path d="M33500 25890 A6750 6750 0.0 0 0 26750 19140 " />
<path d="M26750 19140 A6750 6750 0.0 0 0 20000 25890 " />
<path d="M11750 25890
L2300 17340
" />
<path d="M7250 5390 A7000 7000 0.0 0 0 2300.25 17339.7 " />
<path d="M7250 5390
L42000 5390
" />
<path d="M41750 25890
L51200 17340
" />
<path d="M51199.7 17339.7 A7000 7000 0.0 0 0 46250 5390 " />
</g> 
</svg>
